G04 #@! TF.GenerationSoftware,KiCad,Pcbnew,(7.0.0)*
G04 #@! TF.CreationDate,2023-03-23T23:46:17+08:00*
G04 #@! TF.ProjectId,ServoLess,53657276-6f4c-4657-9373-2e6b69636164,rev?*
G04 #@! TF.SameCoordinates,Original*
G04 #@! TF.FileFunction,Copper,L2,Inr*
G04 #@! TF.FilePolarity,Positive*
%FSLAX46Y46*%
G04 Gerber Fmt 4.6, Leading zero omitted, Abs format (unit mm)*
G04 Created by KiCad (PCBNEW (7.0.0)) date 2023-03-23 23:46:17*
%MOMM*%
%LPD*%
G01*
G04 APERTURE LIST*
G04 Aperture macros list*
%AMHorizOval*
0 Thick line with rounded ends*
0 $1 width*
0 $2 $3 position (X,Y) of the first rounded end (center of the circle)*
0 $4 $5 position (X,Y) of the second rounded end (center of the circle)*
0 Add line between two ends*
20,1,$1,$2,$3,$4,$5,0*
0 Add two circle primitives to create the rounded ends*
1,1,$1,$2,$3*
1,1,$1,$4,$5*%
G04 Aperture macros list end*
G04 #@! TA.AperFunction,ComponentPad*
%ADD10HorizOval,1.000000X0.210476X0.508134X-0.210476X-0.508134X0*%
G04 #@! TD*
G04 #@! TA.AperFunction,ComponentPad*
%ADD11HorizOval,1.000000X0.114805X0.277164X-0.114805X-0.277164X0*%
G04 #@! TD*
G04 #@! TA.AperFunction,ComponentPad*
%ADD12C,1.400000*%
G04 #@! TD*
G04 #@! TA.AperFunction,ComponentPad*
%ADD13R,3.500000X3.500000*%
G04 #@! TD*
G04 #@! TA.AperFunction,ComponentPad*
%ADD14C,3.500000*%
G04 #@! TD*
G04 #@! TA.AperFunction,ComponentPad*
%ADD15C,0.500000*%
G04 #@! TD*
G04 #@! TA.AperFunction,ViaPad*
%ADD16C,0.500000*%
G04 #@! TD*
G04 #@! TA.AperFunction,ViaPad*
%ADD17C,1.000000*%
G04 #@! TD*
G04 #@! TA.AperFunction,ViaPad*
%ADD18C,0.800000*%
G04 #@! TD*
G04 APERTURE END LIST*
D10*
X149457662Y-77877562D03*
D11*
X151057279Y-74015746D03*
D10*
X141475343Y-74571178D03*
D11*
X143074960Y-70709361D03*
D12*
X120800000Y-95700000D03*
X120800000Y-84700000D03*
D13*
X130799999Y-87699999D03*
D14*
X130800000Y-92700000D03*
D15*
X136150000Y-100550002D03*
X137150000Y-100550002D03*
X138150001Y-100550002D03*
X139150002Y-100550002D03*
X140150002Y-100550002D03*
X136150000Y-99550001D03*
X137150000Y-99550001D03*
X138150001Y-99550001D03*
X139150002Y-99550001D03*
X140150002Y-99550001D03*
X136150000Y-98550000D03*
X137150000Y-98550000D03*
X138150001Y-98550000D03*
X139150002Y-98550000D03*
X140150002Y-98550000D03*
D16*
X148125000Y-91525000D03*
X156125000Y-86650000D03*
X133975000Y-75025000D03*
D17*
X123900000Y-80475000D03*
D16*
X132925000Y-75025000D03*
X136325000Y-75025000D03*
X139120882Y-97457831D03*
X134150000Y-79525000D03*
X143750000Y-78850000D03*
X137825000Y-101650000D03*
X123350000Y-96350000D03*
X152200000Y-92800000D03*
X151025000Y-79775000D03*
X131975000Y-75000000D03*
X138400000Y-75025000D03*
X131125000Y-101975000D03*
X153225000Y-93950000D03*
X137300000Y-76575000D03*
X138205000Y-86250500D03*
X134175000Y-81125000D03*
X135250000Y-82225000D03*
X146450000Y-98175000D03*
X128925000Y-75000000D03*
X151800000Y-99625000D03*
X149250000Y-85600000D03*
X126550000Y-95800000D03*
X138800000Y-77075000D03*
X134380000Y-104300000D03*
X135275000Y-77525000D03*
X142009551Y-85750000D03*
X125800000Y-96350000D03*
X122250000Y-96350000D03*
X139500000Y-75050000D03*
X135375000Y-75025000D03*
X155200000Y-97150000D03*
X136075000Y-81425000D03*
X141750000Y-72325000D03*
X144175000Y-93700000D03*
X136325000Y-83250000D03*
X130925000Y-75000000D03*
X136375000Y-88325000D03*
X147050000Y-90400000D03*
X133925000Y-95450000D03*
X135275000Y-79550000D03*
X147950000Y-83250000D03*
X138025000Y-83275000D03*
X136900000Y-82150000D03*
X124650000Y-96350000D03*
X141100000Y-103900000D03*
X147425000Y-98925000D03*
X139775000Y-101625000D03*
X127025000Y-97850000D03*
X153100000Y-85425000D03*
X155575000Y-81525000D03*
X127850000Y-75000000D03*
X129925000Y-75000000D03*
X131600000Y-104750000D03*
X134100000Y-76100000D03*
X159761014Y-83616234D03*
X138075000Y-82175000D03*
X134075000Y-77500000D03*
X142375000Y-101600000D03*
X145175000Y-93725000D03*
X151800000Y-97075000D03*
X135300000Y-76100000D03*
X126850000Y-75000000D03*
X143375000Y-68650000D03*
X137350000Y-75025000D03*
X139200000Y-82200000D03*
X137175000Y-101625000D03*
X143300000Y-82125000D03*
X143700000Y-80650000D03*
X145287500Y-96825000D03*
X129025000Y-81625000D03*
X131175000Y-83075000D03*
X131825000Y-83075000D03*
X129025000Y-82975000D03*
X154050000Y-82075000D03*
X130525000Y-83075000D03*
X129025000Y-82300000D03*
X147525000Y-86200000D03*
X153025000Y-84050000D03*
X138225000Y-91125000D03*
X138700000Y-94600500D03*
X141725000Y-89500500D03*
X124850000Y-102275000D03*
X143223186Y-86357602D03*
X147550000Y-107250000D03*
X129150000Y-105600000D03*
X121625000Y-102250000D03*
X143075000Y-105175000D03*
X123150000Y-99275000D03*
X120950000Y-99475000D03*
X143325000Y-85500000D03*
X143050000Y-106175000D03*
X129125000Y-106900000D03*
X132750000Y-107375000D03*
X134875000Y-105649500D03*
X145999139Y-105912091D03*
X135875000Y-101600000D03*
D18*
X132550000Y-104300000D03*
D16*
X143100000Y-99925000D03*
X143725000Y-74900000D03*
X138025000Y-78925000D03*
X147050000Y-78875000D03*
X140400000Y-77575000D03*
X154800000Y-98075000D03*
X152950000Y-78075000D03*
X145500000Y-87075500D03*
X124625000Y-93125000D03*
X120625000Y-90400000D03*
X121025000Y-97775000D03*
X120625000Y-88950000D03*
X120625000Y-89675000D03*
X122625000Y-93100000D03*
X126050000Y-93125000D03*
X126975000Y-103025000D03*
X125350000Y-93125000D03*
X123350000Y-93100000D03*
X121850000Y-93100000D03*
X127250000Y-90350000D03*
X129300000Y-98400000D03*
X127250000Y-89650000D03*
X127250000Y-89000000D03*
X133925000Y-101550000D03*
X134575000Y-99575000D03*
X147275000Y-75425000D03*
X145325000Y-75875000D03*
X146300000Y-76300000D03*
X146350000Y-75050000D03*
X155350000Y-96200000D03*
X146324452Y-95897886D03*
X155700000Y-95225000D03*
X147233556Y-95675500D03*
X155575000Y-84400000D03*
X155150000Y-83225000D03*
X136575000Y-106375000D03*
X137550000Y-106350000D03*
X138450000Y-106300000D03*
X131250000Y-78175500D03*
X137800000Y-80425000D03*
X130400000Y-78700000D03*
X138825000Y-81150000D03*
X141188572Y-77859287D03*
X146350000Y-84400000D03*
X129200000Y-107625000D03*
X141675000Y-98250000D03*
X142162820Y-94811880D03*
X142928300Y-94752800D03*
X143255804Y-95421332D03*
X143925000Y-95625000D03*
X150625000Y-87600000D03*
X150125500Y-88133991D03*
X145800000Y-85800000D03*
X141600000Y-78425000D03*
G04 #@! TA.AperFunction,Conductor*
G36*
X143492664Y-67500643D02*
G01*
X143496512Y-67501268D01*
X143902263Y-67573780D01*
X143902778Y-67573874D01*
X144430540Y-67673194D01*
X144434387Y-67673983D01*
X144835355Y-67762997D01*
X144835889Y-67763118D01*
X145360445Y-67884475D01*
X145364309Y-67885436D01*
X145759815Y-67990678D01*
X145760390Y-67990833D01*
X146280773Y-68134119D01*
X146284631Y-68135250D01*
X146674058Y-68256429D01*
X146674470Y-68256559D01*
X147190001Y-68421712D01*
X147193786Y-68422994D01*
X147576103Y-68559649D01*
X147576987Y-68559970D01*
X148086513Y-68746748D01*
X148090263Y-68748194D01*
X148465052Y-68900022D01*
X148465641Y-68900263D01*
X148968759Y-69108661D01*
X148972548Y-69110306D01*
X149338844Y-69276751D01*
X149339488Y-69277047D01*
X149834547Y-69506515D01*
X149835257Y-69506844D01*
X149839060Y-69508686D01*
X150196140Y-69689226D01*
X150196941Y-69689635D01*
X150684494Y-69940599D01*
X150688247Y-69942613D01*
X150897278Y-70059461D01*
X151035676Y-70136826D01*
X151036156Y-70137096D01*
X151515082Y-70409223D01*
X151518776Y-70411408D01*
X151855726Y-70618615D01*
X151856142Y-70618873D01*
X152325524Y-70911875D01*
X152329110Y-70914202D01*
X152643713Y-71126192D01*
X152654812Y-71133671D01*
X152655438Y-71134096D01*
X153114402Y-71447674D01*
X153117946Y-71450188D01*
X153431779Y-71681208D01*
X153432393Y-71681662D01*
X153832793Y-71980226D01*
X153880405Y-72015728D01*
X153883873Y-72018412D01*
X154185683Y-72260568D01*
X154622170Y-72615025D01*
X154625557Y-72617878D01*
X154914197Y-72869903D01*
X154914685Y-72870331D01*
X155138000Y-73067538D01*
X155338475Y-73244575D01*
X155341765Y-73247587D01*
X155616973Y-73508839D01*
X156028147Y-73903358D01*
X156031260Y-73906456D01*
X156176764Y-74056573D01*
X156292197Y-74175666D01*
X156292469Y-74175947D01*
X156689826Y-74590079D01*
X156692853Y-74593352D01*
X156935415Y-74865388D01*
X156939328Y-74869776D01*
X156939636Y-74870124D01*
X157101570Y-75053496D01*
X157322459Y-75303629D01*
X157325417Y-75307105D01*
X157556593Y-75589167D01*
X157556948Y-75589602D01*
X157925017Y-76042852D01*
X157927849Y-76046475D01*
X158021366Y-76170784D01*
X158143551Y-76333202D01*
X158496422Y-76806433D01*
X158499086Y-76810150D01*
X158688610Y-77085194D01*
X158698557Y-77099629D01*
X158698814Y-77100003D01*
X159023346Y-77575000D01*
X159035629Y-77592977D01*
X159038183Y-77596870D01*
X159048606Y-77613430D01*
X159221176Y-77887622D01*
X159221419Y-77888010D01*
X159361271Y-78112049D01*
X159484705Y-78309787D01*
X159541799Y-78401249D01*
X159544213Y-78405284D01*
X159710291Y-78695258D01*
X159710501Y-78695626D01*
X160014023Y-79229807D01*
X160016283Y-79233968D01*
X160165266Y-79521172D01*
X160165445Y-79521519D01*
X160451487Y-80077221D01*
X160453588Y-80081502D01*
X160584941Y-80362764D01*
X160585091Y-80363088D01*
X160853462Y-80942080D01*
X160855397Y-80946475D01*
X160968726Y-81218074D01*
X160968790Y-81218397D01*
X160968850Y-81218373D01*
X161219218Y-81822817D01*
X161220981Y-81827321D01*
X161316263Y-82085385D01*
X161316363Y-82085656D01*
X161548165Y-82718001D01*
X161549749Y-82722601D01*
X161550922Y-82726237D01*
X161626579Y-82960743D01*
X161626657Y-82960986D01*
X161839714Y-83626051D01*
X161841118Y-83630750D01*
X161899151Y-83840058D01*
X161899181Y-83840279D01*
X161899210Y-83840272D01*
X162093368Y-84545415D01*
X162094584Y-84550202D01*
X162133822Y-84718649D01*
X162133864Y-84718830D01*
X162308687Y-85474484D01*
X162309711Y-85479352D01*
X162330005Y-85586467D01*
X162330033Y-85586616D01*
X162485307Y-86411701D01*
X162486132Y-86416629D01*
X162487389Y-86425194D01*
X162487407Y-86425321D01*
X162622507Y-87352593D01*
X162623141Y-87357679D01*
X162720678Y-88298148D01*
X162721102Y-88303256D01*
X162779693Y-89246983D01*
X162779905Y-89252104D01*
X162799447Y-90197436D01*
X162799447Y-90202562D01*
X162779905Y-91147895D01*
X162779693Y-91153016D01*
X162721102Y-92096743D01*
X162720678Y-92101851D01*
X162623141Y-93042320D01*
X162622507Y-93047406D01*
X162487390Y-93974795D01*
X162487371Y-93974927D01*
X162486131Y-93983374D01*
X162485307Y-93988297D01*
X162330033Y-94813383D01*
X162330005Y-94813533D01*
X162309711Y-94920647D01*
X162308687Y-94925514D01*
X162133864Y-95681169D01*
X162133822Y-95681351D01*
X162094584Y-95849797D01*
X162093368Y-95854583D01*
X161899210Y-96559727D01*
X161899151Y-96559940D01*
X161841118Y-96769248D01*
X161839714Y-96773947D01*
X161626657Y-97439013D01*
X161626579Y-97439256D01*
X161549751Y-97677392D01*
X161548165Y-97681997D01*
X161316363Y-98314343D01*
X161316263Y-98314614D01*
X161220981Y-98572677D01*
X161219218Y-98577181D01*
X160968850Y-99181626D01*
X160968726Y-99181924D01*
X160855397Y-99453523D01*
X160853462Y-99457918D01*
X160585091Y-100036911D01*
X160584941Y-100037235D01*
X160453588Y-100318496D01*
X160451487Y-100322777D01*
X160165445Y-100878480D01*
X160165266Y-100878827D01*
X160016283Y-101166030D01*
X160014023Y-101170191D01*
X159710501Y-101704372D01*
X159710291Y-101704740D01*
X159544213Y-101994714D01*
X159541799Y-101998749D01*
X159221419Y-102511988D01*
X159221176Y-102512376D01*
X159038189Y-102803119D01*
X159035629Y-102807021D01*
X158698836Y-103299963D01*
X158698557Y-103300369D01*
X158499103Y-103589824D01*
X158496404Y-103593590D01*
X158143641Y-104066676D01*
X158143325Y-104067097D01*
X157927849Y-104353523D01*
X157925017Y-104357146D01*
X157556948Y-104810396D01*
X157556593Y-104810831D01*
X157325417Y-105092893D01*
X157322459Y-105096369D01*
X156939722Y-105529777D01*
X156939328Y-105530222D01*
X156692865Y-105806634D01*
X156689788Y-105809961D01*
X156292633Y-106223881D01*
X156292197Y-106224332D01*
X156031297Y-106493505D01*
X156028108Y-106496678D01*
X155617376Y-106890773D01*
X155616898Y-106891230D01*
X155341768Y-107152409D01*
X155338475Y-107155423D01*
X154914720Y-107529636D01*
X154914198Y-107530095D01*
X154625572Y-107782109D01*
X154622184Y-107784962D01*
X154185947Y-108139217D01*
X154185378Y-108139676D01*
X153883881Y-108381580D01*
X153880405Y-108384270D01*
X153432393Y-108718336D01*
X153431779Y-108718790D01*
X153117946Y-108949810D01*
X153114388Y-108952334D01*
X152655472Y-109265879D01*
X152654812Y-109266327D01*
X152329132Y-109485782D01*
X152325502Y-109488137D01*
X151856280Y-109781040D01*
X151855573Y-109781478D01*
X151518778Y-109988589D01*
X151515082Y-109990775D01*
X151036345Y-110262795D01*
X151035590Y-110263220D01*
X150688247Y-110457385D01*
X150684494Y-110459399D01*
X150196941Y-110710363D01*
X150196140Y-110710772D01*
X149839060Y-110891312D01*
X149835257Y-110893154D01*
X149339611Y-111122894D01*
X149338762Y-111123284D01*
X148972575Y-111289680D01*
X148968730Y-111291349D01*
X148465764Y-111499684D01*
X148464869Y-111500051D01*
X148090337Y-111651775D01*
X148086457Y-111653271D01*
X147576987Y-111840028D01*
X147576046Y-111840369D01*
X147193856Y-111976980D01*
X147189949Y-111978303D01*
X146674797Y-112143335D01*
X146673810Y-112143647D01*
X146284664Y-112264738D01*
X146280739Y-112265889D01*
X145760596Y-112409109D01*
X145759564Y-112409388D01*
X145364338Y-112514554D01*
X145360402Y-112515533D01*
X144836204Y-112636808D01*
X144835127Y-112637052D01*
X144434433Y-112726005D01*
X144430493Y-112726813D01*
X143903070Y-112826070D01*
X143901951Y-112826275D01*
X143496532Y-112898727D01*
X143492596Y-112899365D01*
X142962886Y-112976542D01*
X142961726Y-112976706D01*
X142552332Y-113032411D01*
X142548405Y-113032881D01*
X142017080Y-113087985D01*
X142015881Y-113088104D01*
X141603410Y-113126833D01*
X141599502Y-113127138D01*
X141067347Y-113160178D01*
X141066110Y-113160248D01*
X140651395Y-113181838D01*
X140647511Y-113181980D01*
X140115422Y-113192979D01*
X140114149Y-113192998D01*
X139697909Y-113197328D01*
X139694056Y-113197309D01*
X139163030Y-113186332D01*
X139161724Y-113186298D01*
X138744546Y-113173274D01*
X138740731Y-113173096D01*
X138211537Y-113140241D01*
X138210200Y-113140150D01*
X137793076Y-113109722D01*
X137789305Y-113109389D01*
X137262835Y-113054788D01*
X137261469Y-113054639D01*
X136845053Y-113006780D01*
X136841334Y-113006296D01*
X136318291Y-112930091D01*
X136316897Y-112929879D01*
X135902096Y-112864623D01*
X135898434Y-112863991D01*
X135379809Y-112766390D01*
X135378393Y-112766115D01*
X134965850Y-112683497D01*
X134962250Y-112682720D01*
X134448837Y-112563942D01*
X134447400Y-112563601D01*
X134037924Y-112463716D01*
X134034392Y-112462799D01*
X133526975Y-112323083D01*
X133525521Y-112322673D01*
X133119902Y-112205654D01*
X133116444Y-112204601D01*
X132615908Y-112044251D01*
X132614440Y-112043771D01*
X132213387Y-111909760D01*
X132210007Y-111908576D01*
X131738941Y-111735897D01*
X131717026Y-111727863D01*
X131715599Y-111727329D01*
X131583528Y-111677000D01*
X131319956Y-111576557D01*
X131316660Y-111575247D01*
X130832044Y-111374513D01*
X130830559Y-111373886D01*
X130441063Y-111206585D01*
X130437855Y-111205153D01*
X129962514Y-110984826D01*
X129961024Y-110984124D01*
X129578274Y-110800501D01*
X129575159Y-110798952D01*
X129382923Y-110700000D01*
X138744417Y-110700000D01*
X138745014Y-110706061D01*
X138764102Y-110899869D01*
X138764103Y-110899875D01*
X138764700Y-110905934D01*
X138824768Y-111103954D01*
X138827638Y-111109323D01*
X138827640Y-111109328D01*
X138835100Y-111123284D01*
X138922315Y-111286450D01*
X139053590Y-111446410D01*
X139213550Y-111577685D01*
X139396046Y-111675232D01*
X139594066Y-111735300D01*
X139800000Y-111755583D01*
X140005934Y-111735300D01*
X140203954Y-111675232D01*
X140386450Y-111577685D01*
X140546410Y-111446410D01*
X140677685Y-111286450D01*
X140775232Y-111103954D01*
X140835300Y-110905934D01*
X140855583Y-110700000D01*
X140835300Y-110494066D01*
X140775232Y-110296046D01*
X140677685Y-110113550D01*
X140546410Y-109953590D01*
X140386450Y-109822315D01*
X140381079Y-109819444D01*
X140209328Y-109727640D01*
X140209323Y-109727638D01*
X140203954Y-109724768D01*
X140167356Y-109713666D01*
X140011764Y-109666468D01*
X140011759Y-109666467D01*
X140005934Y-109664700D01*
X139999875Y-109664103D01*
X139999869Y-109664102D01*
X139806061Y-109645014D01*
X139800000Y-109644417D01*
X139793939Y-109645014D01*
X139600130Y-109664102D01*
X139600122Y-109664103D01*
X139594066Y-109664700D01*
X139588242Y-109666466D01*
X139588235Y-109666468D01*
X139401877Y-109722999D01*
X139401875Y-109722999D01*
X139396046Y-109724768D01*
X139390679Y-109727636D01*
X139390671Y-109727640D01*
X139218920Y-109819444D01*
X139218915Y-109819447D01*
X139213550Y-109822315D01*
X139208846Y-109826174D01*
X139208842Y-109826178D01*
X139058296Y-109949727D01*
X139058290Y-109949732D01*
X139053590Y-109953590D01*
X139049732Y-109958290D01*
X139049727Y-109958296D01*
X138926178Y-110108842D01*
X138926174Y-110108846D01*
X138922315Y-110113550D01*
X138919447Y-110118915D01*
X138919444Y-110118920D01*
X138827640Y-110290671D01*
X138827636Y-110290679D01*
X138824768Y-110296046D01*
X138822999Y-110301875D01*
X138822999Y-110301877D01*
X138766468Y-110488235D01*
X138766466Y-110488242D01*
X138764700Y-110494066D01*
X138764103Y-110500122D01*
X138764102Y-110500130D01*
X138758341Y-110558629D01*
X138744417Y-110700000D01*
X129382923Y-110700000D01*
X129109793Y-110559408D01*
X129108304Y-110558629D01*
X128733075Y-110359005D01*
X128730056Y-110357345D01*
X128457978Y-110202750D01*
X128275324Y-110098966D01*
X128273908Y-110098148D01*
X127906911Y-109882855D01*
X127903995Y-109881090D01*
X127460733Y-109604392D01*
X127459257Y-109603456D01*
X127101189Y-109372860D01*
X127098375Y-109370993D01*
X126667348Y-109076503D01*
X126665883Y-109075487D01*
X126317287Y-108829893D01*
X126314580Y-108827930D01*
X125896415Y-108516119D01*
X125894967Y-108515023D01*
X125556605Y-108254923D01*
X125554043Y-108252899D01*
X125212763Y-107975756D01*
X125176569Y-107927426D01*
X125167493Y-107867729D01*
X125187689Y-107810823D01*
X125232367Y-107770202D01*
X125290933Y-107755500D01*
X128654880Y-107755500D01*
X128659306Y-107755500D01*
X128665988Y-107754539D01*
X128667152Y-107754622D01*
X128668108Y-107754554D01*
X128668117Y-107754691D01*
X128718569Y-107758299D01*
X128764837Y-107783562D01*
X128796429Y-107825763D01*
X128813434Y-107862997D01*
X128817118Y-107871063D01*
X128822920Y-107877759D01*
X128822922Y-107877762D01*
X128865956Y-107927426D01*
X128901951Y-107968967D01*
X128909411Y-107973761D01*
X128909412Y-107973762D01*
X128921211Y-107981344D01*
X129010931Y-108039004D01*
X129135228Y-108075500D01*
X129255901Y-108075500D01*
X129264772Y-108075500D01*
X129389069Y-108039004D01*
X129498049Y-107968967D01*
X129582882Y-107871063D01*
X129603570Y-107825763D01*
X129635160Y-107783564D01*
X129681428Y-107758300D01*
X129731882Y-107754691D01*
X129731892Y-107754554D01*
X129732846Y-107754622D01*
X129734010Y-107754539D01*
X129740694Y-107755500D01*
X132472388Y-107755500D01*
X132539426Y-107775183D01*
X132560931Y-107789004D01*
X132685228Y-107825500D01*
X132805901Y-107825500D01*
X132814772Y-107825500D01*
X132939069Y-107789004D01*
X132960573Y-107775183D01*
X133027612Y-107755500D01*
X146995816Y-107755500D01*
X146999411Y-107755500D01*
X147046671Y-107749992D01*
X147102175Y-107736876D01*
X147146899Y-107720648D01*
X147186694Y-107694569D01*
X147213204Y-107672414D01*
X147259221Y-107648174D01*
X147311137Y-107644940D01*
X147344493Y-107657511D01*
X147345401Y-107655524D01*
X147353467Y-107659207D01*
X147360931Y-107664004D01*
X147485228Y-107700500D01*
X147605901Y-107700500D01*
X147614772Y-107700500D01*
X147739069Y-107664004D01*
X147848049Y-107593967D01*
X147932882Y-107496063D01*
X147986697Y-107378226D01*
X147988562Y-107365252D01*
X148007588Y-107314927D01*
X148046142Y-107277396D01*
X148088191Y-107262777D01*
X148087910Y-107261560D01*
X148094653Y-107259997D01*
X148101535Y-107259196D01*
X148187305Y-107228938D01*
X148233733Y-107199682D01*
X148269487Y-107171132D01*
X150408991Y-105031630D01*
X150434547Y-105000490D01*
X150461427Y-104960262D01*
X150492112Y-104886182D01*
X150501551Y-104838729D01*
X150505500Y-104798638D01*
X150505500Y-104695689D01*
X153240106Y-104695689D01*
X153240703Y-104701750D01*
X153259791Y-104895558D01*
X153259792Y-104895564D01*
X153260389Y-104901623D01*
X153262156Y-104907448D01*
X153262157Y-104907453D01*
X153299826Y-105031630D01*
X153320457Y-105099643D01*
X153323327Y-105105012D01*
X153323329Y-105105017D01*
X153398850Y-105246305D01*
X153418004Y-105282139D01*
X153549279Y-105442099D01*
X153709239Y-105573374D01*
X153891735Y-105670921D01*
X154089755Y-105730989D01*
X154295689Y-105751272D01*
X154501623Y-105730989D01*
X154699643Y-105670921D01*
X154882139Y-105573374D01*
X155042099Y-105442099D01*
X155173374Y-105282139D01*
X155270921Y-105099643D01*
X155330989Y-104901623D01*
X155351272Y-104695689D01*
X155330989Y-104489755D01*
X155270921Y-104291735D01*
X155173374Y-104109239D01*
X155042099Y-103949279D01*
X154972881Y-103892474D01*
X154886846Y-103821867D01*
X154882139Y-103818004D01*
X154876768Y-103815133D01*
X154705017Y-103723329D01*
X154705012Y-103723327D01*
X154699643Y-103720457D01*
X154616971Y-103695379D01*
X154507453Y-103662157D01*
X154507448Y-103662156D01*
X154501623Y-103660389D01*
X154495564Y-103659792D01*
X154495558Y-103659791D01*
X154301750Y-103640703D01*
X154295689Y-103640106D01*
X154289628Y-103640703D01*
X154095819Y-103659791D01*
X154095811Y-103659792D01*
X154089755Y-103660389D01*
X154083931Y-103662155D01*
X154083924Y-103662157D01*
X153897566Y-103718688D01*
X153897564Y-103718688D01*
X153891735Y-103720457D01*
X153886368Y-103723325D01*
X153886360Y-103723329D01*
X153714609Y-103815133D01*
X153714604Y-103815136D01*
X153709239Y-103818004D01*
X153704535Y-103821863D01*
X153704531Y-103821867D01*
X153553985Y-103945416D01*
X153553979Y-103945421D01*
X153549279Y-103949279D01*
X153545421Y-103953979D01*
X153545416Y-103953985D01*
X153421867Y-104104531D01*
X153421863Y-104104535D01*
X153418004Y-104109239D01*
X153415136Y-104114604D01*
X153415133Y-104114609D01*
X153323329Y-104286360D01*
X153323325Y-104286368D01*
X153320457Y-104291735D01*
X153318688Y-104297564D01*
X153318688Y-104297566D01*
X153262157Y-104483924D01*
X153262155Y-104483931D01*
X153260389Y-104489755D01*
X153259792Y-104495811D01*
X153259791Y-104495819D01*
X153256421Y-104530039D01*
X153240106Y-104695689D01*
X150505500Y-104695689D01*
X150505500Y-98075000D01*
X154344867Y-98075000D01*
X154346129Y-98083777D01*
X154362040Y-98194446D01*
X154362041Y-98194450D01*
X154363303Y-98203226D01*
X154366987Y-98211294D01*
X154366988Y-98211295D01*
X154413434Y-98312998D01*
X154413436Y-98313002D01*
X154417118Y-98321063D01*
X154422920Y-98327759D01*
X154422922Y-98327762D01*
X154473641Y-98386295D01*
X154501951Y-98418967D01*
X154610931Y-98489004D01*
X154735228Y-98525500D01*
X154855901Y-98525500D01*
X154864772Y-98525500D01*
X154989069Y-98489004D01*
X155098049Y-98418967D01*
X155182882Y-98321063D01*
X155236697Y-98203226D01*
X155255133Y-98075000D01*
X155236697Y-97946774D01*
X155182882Y-97828937D01*
X155159540Y-97801999D01*
X155103856Y-97737735D01*
X155098049Y-97731033D01*
X155090589Y-97726238D01*
X155090587Y-97726237D01*
X155021747Y-97681997D01*
X154989069Y-97660996D01*
X154980555Y-97658496D01*
X154873284Y-97626999D01*
X154873282Y-97626998D01*
X154864772Y-97624500D01*
X154735228Y-97624500D01*
X154726718Y-97626998D01*
X154726715Y-97626999D01*
X154619444Y-97658496D01*
X154619441Y-97658497D01*
X154610931Y-97660996D01*
X154603468Y-97665791D01*
X154603468Y-97665792D01*
X154509412Y-97726237D01*
X154509406Y-97726241D01*
X154501951Y-97731033D01*
X154496146Y-97737732D01*
X154496143Y-97737735D01*
X154422922Y-97822237D01*
X154422917Y-97822243D01*
X154417118Y-97828937D01*
X154413438Y-97836994D01*
X154413434Y-97837001D01*
X154378848Y-97912735D01*
X154363303Y-97946774D01*
X154362041Y-97955547D01*
X154362040Y-97955553D01*
X154353781Y-98012998D01*
X154344867Y-98075000D01*
X150505500Y-98075000D01*
X150505500Y-96200000D01*
X154894867Y-96200000D01*
X154896129Y-96208777D01*
X154912040Y-96319446D01*
X154912041Y-96319450D01*
X154913303Y-96328226D01*
X154916987Y-96336294D01*
X154916988Y-96336295D01*
X154963434Y-96437998D01*
X154963436Y-96438002D01*
X154967118Y-96446063D01*
X154972920Y-96452759D01*
X154972922Y-96452762D01*
X154997419Y-96481033D01*
X155051951Y-96543967D01*
X155160931Y-96614004D01*
X155285228Y-96650500D01*
X155405901Y-96650500D01*
X155414772Y-96650500D01*
X155539069Y-96614004D01*
X155648049Y-96543967D01*
X155732882Y-96446063D01*
X155786697Y-96328226D01*
X155805133Y-96200000D01*
X155786697Y-96071774D01*
X155732882Y-95953937D01*
X155727076Y-95947237D01*
X155727074Y-95947233D01*
X155669425Y-95880702D01*
X155640400Y-95817147D01*
X155650344Y-95747988D01*
X155696099Y-95695184D01*
X155747598Y-95680062D01*
X155747124Y-95676762D01*
X155755900Y-95675500D01*
X155764772Y-95675500D01*
X155889069Y-95639004D01*
X155998049Y-95568967D01*
X156082882Y-95471063D01*
X156136697Y-95353226D01*
X156155133Y-95225000D01*
X156136697Y-95096774D01*
X156095848Y-95007328D01*
X156086565Y-94987001D01*
X156086564Y-94986999D01*
X156082882Y-94978937D01*
X156076623Y-94971714D01*
X156026486Y-94913852D01*
X155998049Y-94881033D01*
X155990589Y-94876238D01*
X155990587Y-94876237D01*
X155931863Y-94838498D01*
X155889069Y-94810996D01*
X155880555Y-94808496D01*
X155773284Y-94776999D01*
X155773282Y-94776998D01*
X155764772Y-94774500D01*
X155635228Y-94774500D01*
X155626718Y-94776998D01*
X155626715Y-94776999D01*
X155519444Y-94808496D01*
X155519441Y-94808497D01*
X155510931Y-94810996D01*
X155503468Y-94815791D01*
X155503468Y-94815792D01*
X155409412Y-94876237D01*
X155409406Y-94876241D01*
X155401951Y-94881033D01*
X155396146Y-94887732D01*
X155396143Y-94887735D01*
X155322922Y-94972237D01*
X155322917Y-94972243D01*
X155317118Y-94978937D01*
X155313438Y-94986994D01*
X155313434Y-94987001D01*
X155269104Y-95084071D01*
X155263303Y-95096774D01*
X155262041Y-95105547D01*
X155262040Y-95105553D01*
X155251768Y-95176999D01*
X155244867Y-95225000D01*
X155246129Y-95233777D01*
X155262040Y-95344446D01*
X155262041Y-95344450D01*
X155263303Y-95353226D01*
X155266987Y-95361294D01*
X155266988Y-95361295D01*
X155313434Y-95462998D01*
X155313436Y-95463002D01*
X155317118Y-95471063D01*
X155322921Y-95477761D01*
X155322925Y-95477766D01*
X155380575Y-95544298D01*
X155409600Y-95607853D01*
X155399656Y-95677012D01*
X155353901Y-95729816D01*
X155302401Y-95744937D01*
X155302876Y-95748238D01*
X155294098Y-95749500D01*
X155285228Y-95749500D01*
X155276718Y-95751998D01*
X155276715Y-95751999D01*
X155169444Y-95783496D01*
X155169441Y-95783497D01*
X155160931Y-95785996D01*
X155153468Y-95790791D01*
X155153468Y-95790792D01*
X155059412Y-95851237D01*
X155059406Y-95851241D01*
X155051951Y-95856033D01*
X155046146Y-95862732D01*
X155046143Y-95862735D01*
X154972922Y-95947237D01*
X154972917Y-95947243D01*
X154967118Y-95953937D01*
X154963438Y-95961994D01*
X154963434Y-95962001D01*
X154923465Y-96049522D01*
X154913303Y-96071774D01*
X154912041Y-96080547D01*
X154912040Y-96080553D01*
X154897369Y-96182593D01*
X154894867Y-96200000D01*
X150505500Y-96200000D01*
X150505500Y-90316615D01*
X150518626Y-90266314D01*
X150510576Y-90249294D01*
X150733146Y-90249294D01*
X150753117Y-90306885D01*
X150763854Y-90443302D01*
X150764988Y-90448026D01*
X150764989Y-90448031D01*
X150819690Y-90675873D01*
X150820828Y-90680612D01*
X150822693Y-90685116D01*
X150822694Y-90685117D01*
X150912357Y-90901586D01*
X150912361Y-90901594D01*
X150914223Y-90906089D01*
X151041741Y-91114179D01*
X151044905Y-91117884D01*
X151044909Y-91117889D01*
X151152999Y-91244446D01*
X151200241Y-91299759D01*
X151203948Y-91302925D01*
X151382110Y-91455090D01*
X151382113Y-91455092D01*
X151385821Y-91458259D01*
X151593911Y-91585777D01*
X151598410Y-91587640D01*
X151598413Y-91587642D01*
X151659600Y-91612986D01*
X151819388Y-91679172D01*
X152056698Y-91736146D01*
X152300000Y-91755294D01*
X152543302Y-91736146D01*
X152780612Y-91679172D01*
X153006089Y-91585777D01*
X153214179Y-91458259D01*
X153399759Y-91299759D01*
X153558259Y-91114179D01*
X153685777Y-90906089D01*
X153779172Y-90680612D01*
X153836146Y-90443302D01*
X153855294Y-90200000D01*
X157244706Y-90200000D01*
X157245088Y-90204854D01*
X157251045Y-90280553D01*
X157263854Y-90443302D01*
X157264988Y-90448026D01*
X157264989Y-90448031D01*
X157319690Y-90675873D01*
X157320828Y-90680612D01*
X157322693Y-90685116D01*
X157322694Y-90685117D01*
X157412357Y-90901586D01*
X157412361Y-90901594D01*
X157414223Y-90906089D01*
X157541741Y-91114179D01*
X157544905Y-91117884D01*
X157544909Y-91117889D01*
X157652999Y-91244446D01*
X157700241Y-91299759D01*
X157703948Y-91302925D01*
X157882110Y-91455090D01*
X157882113Y-91455092D01*
X157885821Y-91458259D01*
X158093911Y-91585777D01*
X158098410Y-91587640D01*
X158098413Y-91587642D01*
X158159600Y-91612986D01*
X158319388Y-91679172D01*
X158556698Y-91736146D01*
X158800000Y-91755294D01*
X159043302Y-91736146D01*
X159280612Y-91679172D01*
X159506089Y-91585777D01*
X159714179Y-91458259D01*
X159899759Y-91299759D01*
X160058259Y-91114179D01*
X160185777Y-90906089D01*
X160279172Y-90680612D01*
X160336146Y-90443302D01*
X160355294Y-90200000D01*
X160336146Y-89956698D01*
X160279172Y-89719388D01*
X160197318Y-89521774D01*
X160187642Y-89498413D01*
X160187640Y-89498410D01*
X160185777Y-89493911D01*
X160058259Y-89285821D01*
X160027277Y-89249546D01*
X159902925Y-89103948D01*
X159899759Y-89100241D01*
X159843860Y-89052499D01*
X159717889Y-88944909D01*
X159717884Y-88944905D01*
X159714179Y-88941741D01*
X159710023Y-88939194D01*
X159710020Y-88939192D01*
X159532737Y-88830553D01*
X159506089Y-88814223D01*
X159501594Y-88812361D01*
X159501586Y-88812357D01*
X159285117Y-88722694D01*
X159285116Y-88722693D01*
X159280612Y-88720828D01*
X159275875Y-88719690D01*
X159275873Y-88719690D01*
X159048031Y-88664989D01*
X159048026Y-88664988D01*
X159043302Y-88663854D01*
X159038455Y-88663472D01*
X159038452Y-88663472D01*
X158804854Y-88645088D01*
X158800000Y-88644706D01*
X158795146Y-88645088D01*
X158561547Y-88663472D01*
X158561542Y-88663472D01*
X158556698Y-88663854D01*
X158551975Y-88664987D01*
X158551968Y-88664989D01*
X158324126Y-88719690D01*
X158324120Y-88719691D01*
X158319388Y-88720828D01*
X158314886Y-88722692D01*
X158314882Y-88722694D01*
X158098413Y-88812357D01*
X158098400Y-88812363D01*
X158093911Y-88814223D01*
X158089757Y-88816768D01*
X158089756Y-88816769D01*
X157889979Y-88939192D01*
X157889970Y-88939198D01*
X157885821Y-88941741D01*
X157882121Y-88944900D01*
X157882110Y-88944909D01*
X157703948Y-89097074D01*
X157703941Y-89097080D01*
X157700241Y-89100241D01*
X157697080Y-89103941D01*
X157697074Y-89103948D01*
X157544909Y-89282110D01*
X157544900Y-89282121D01*
X157541741Y-89285821D01*
X157539198Y-89289970D01*
X157539192Y-89289979D01*
X157433733Y-89462073D01*
X157414223Y-89493911D01*
X157412363Y-89498400D01*
X157412357Y-89498413D01*
X157322694Y-89714882D01*
X157320828Y-89719388D01*
X157319691Y-89724120D01*
X157319690Y-89724126D01*
X157264989Y-89951968D01*
X157264987Y-89951975D01*
X157263854Y-89956698D01*
X157263472Y-89961542D01*
X157263472Y-89961547D01*
X157246029Y-90183191D01*
X157244706Y-90200000D01*
X153855294Y-90200000D01*
X153836146Y-89956698D01*
X153779172Y-89719388D01*
X153697318Y-89521774D01*
X153687642Y-89498413D01*
X153687640Y-89498410D01*
X153685777Y-89493911D01*
X153558259Y-89285821D01*
X153527277Y-89249546D01*
X153402925Y-89103948D01*
X153399759Y-89100241D01*
X153343860Y-89052499D01*
X153217889Y-88944909D01*
X153217884Y-88944905D01*
X153214179Y-88941741D01*
X153210023Y-88939194D01*
X153210020Y-88939192D01*
X153032737Y-88830553D01*
X153006089Y-88814223D01*
X153001594Y-88812361D01*
X153001586Y-88812357D01*
X152785117Y-88722694D01*
X152785116Y-88722693D01*
X152780612Y-88720828D01*
X152775875Y-88719690D01*
X152775873Y-88719690D01*
X152548031Y-88664989D01*
X152548026Y-88664988D01*
X152543302Y-88663854D01*
X152538455Y-88663472D01*
X152538452Y-88663472D01*
X152304854Y-88645088D01*
X152300000Y-88644706D01*
X152295146Y-88645088D01*
X152061547Y-88663472D01*
X152061542Y-88663472D01*
X152056698Y-88663854D01*
X152051975Y-88664987D01*
X152051968Y-88664989D01*
X151824126Y-88719690D01*
X151824120Y-88719691D01*
X151819388Y-88720828D01*
X151814886Y-88722692D01*
X151814882Y-88722694D01*
X151598413Y-88812357D01*
X151598400Y-88812363D01*
X151593911Y-88814223D01*
X151589757Y-88816768D01*
X151589756Y-88816769D01*
X151389979Y-88939192D01*
X151389970Y-88939198D01*
X151385821Y-88941741D01*
X151382121Y-88944900D01*
X151382110Y-88944909D01*
X151203948Y-89097074D01*
X151203941Y-89097080D01*
X151200241Y-89100241D01*
X151197080Y-89103941D01*
X151197074Y-89103948D01*
X151044909Y-89282110D01*
X151044900Y-89282121D01*
X151041741Y-89285821D01*
X151039198Y-89289970D01*
X151039192Y-89289979D01*
X150933733Y-89462073D01*
X150914223Y-89493911D01*
X150912363Y-89498400D01*
X150912357Y-89498413D01*
X150822694Y-89714882D01*
X150820828Y-89719388D01*
X150819691Y-89724120D01*
X150819690Y-89724126D01*
X150764989Y-89951968D01*
X150764987Y-89951975D01*
X150763854Y-89956698D01*
X150763472Y-89961542D01*
X150763472Y-89961547D01*
X150746029Y-90183191D01*
X150744706Y-90200000D01*
X150744894Y-90202395D01*
X150733146Y-90249294D01*
X150510576Y-90249294D01*
X150499471Y-90225814D01*
X150493826Y-90197436D01*
X150492112Y-90188818D01*
X150461427Y-90114738D01*
X150434547Y-90074510D01*
X150408991Y-90043371D01*
X148499611Y-88133991D01*
X149670367Y-88133991D01*
X149671629Y-88142768D01*
X149687540Y-88253437D01*
X149687541Y-88253441D01*
X149688803Y-88262217D01*
X149692487Y-88270285D01*
X149692488Y-88270286D01*
X149738934Y-88371989D01*
X149738936Y-88371993D01*
X149742618Y-88380054D01*
X149748420Y-88386750D01*
X149748422Y-88386753D01*
X149812138Y-88460285D01*
X149827451Y-88477958D01*
X149936431Y-88547995D01*
X150060728Y-88584491D01*
X150181401Y-88584491D01*
X150190272Y-88584491D01*
X150314569Y-88547995D01*
X150423549Y-88477958D01*
X150508382Y-88380054D01*
X150562197Y-88262217D01*
X150577564Y-88155336D01*
X150595986Y-88105945D01*
X150633264Y-88068668D01*
X150681977Y-88050500D01*
X150689772Y-88050500D01*
X150814069Y-88014004D01*
X150923049Y-87943967D01*
X151007882Y-87846063D01*
X151061697Y-87728226D01*
X151080133Y-87600000D01*
X151061697Y-87471774D01*
X151007882Y-87353937D01*
X150923049Y-87256033D01*
X150915589Y-87251238D01*
X150915587Y-87251237D01*
X150841657Y-87203726D01*
X150814069Y-87185996D01*
X150805555Y-87183496D01*
X150698284Y-87151999D01*
X150698282Y-87151998D01*
X150689772Y-87149500D01*
X150560228Y-87149500D01*
X150551718Y-87151998D01*
X150551715Y-87151999D01*
X150444444Y-87183496D01*
X150444441Y-87183497D01*
X150435931Y-87185996D01*
X150428468Y-87190791D01*
X150428468Y-87190792D01*
X150334412Y-87251237D01*
X150334406Y-87251241D01*
X150326951Y-87256033D01*
X150321146Y-87262732D01*
X150321143Y-87262735D01*
X150247922Y-87347237D01*
X150247917Y-87347243D01*
X150242118Y-87353937D01*
X150238438Y-87361994D01*
X150238434Y-87362001D01*
X150191988Y-87463704D01*
X150188303Y-87471774D01*
X150187041Y-87480547D01*
X150187040Y-87480553D01*
X150172936Y-87578652D01*
X150154514Y-87628044D01*
X150117238Y-87665320D01*
X150068522Y-87683491D01*
X150060728Y-87683491D01*
X150052218Y-87685989D01*
X150052215Y-87685990D01*
X149944944Y-87717487D01*
X149944941Y-87717488D01*
X149936431Y-87719987D01*
X149928968Y-87724782D01*
X149928968Y-87724783D01*
X149834912Y-87785228D01*
X149834906Y-87785232D01*
X149827451Y-87790024D01*
X149821646Y-87796723D01*
X149821643Y-87796726D01*
X149748422Y-87881228D01*
X149748417Y-87881234D01*
X149742618Y-87887928D01*
X149738938Y-87895985D01*
X149738934Y-87895992D01*
X149706814Y-87966326D01*
X149688803Y-88005765D01*
X149687541Y-88014538D01*
X149687540Y-88014544D01*
X149682371Y-88050500D01*
X149670367Y-88133991D01*
X148499611Y-88133991D01*
X147154373Y-86788753D01*
X147123501Y-86737420D01*
X147120295Y-86677605D01*
X147145503Y-86623266D01*
X147193242Y-86587083D01*
X147252372Y-86577502D01*
X147309094Y-86596757D01*
X147328466Y-86609207D01*
X147328468Y-86609208D01*
X147335931Y-86614004D01*
X147460228Y-86650500D01*
X147580901Y-86650500D01*
X147589772Y-86650500D01*
X147714069Y-86614004D01*
X147823049Y-86543967D01*
X147907882Y-86446063D01*
X147961697Y-86328226D01*
X147980133Y-86200000D01*
X147961697Y-86071774D01*
X147907882Y-85953937D01*
X147898943Y-85943621D01*
X147828856Y-85862735D01*
X147823049Y-85856033D01*
X147815589Y-85851238D01*
X147815587Y-85851237D01*
X147768559Y-85821014D01*
X147714069Y-85785996D01*
X147705555Y-85783496D01*
X147598284Y-85751999D01*
X147598282Y-85751998D01*
X147589772Y-85749500D01*
X147460228Y-85749500D01*
X147451718Y-85751998D01*
X147451715Y-85751999D01*
X147344444Y-85783496D01*
X147344441Y-85783497D01*
X147335931Y-85785996D01*
X147328468Y-85790791D01*
X147328468Y-85790792D01*
X147234412Y-85851237D01*
X147234406Y-85851241D01*
X147226951Y-85856033D01*
X147221146Y-85862732D01*
X147221143Y-85862735D01*
X147147922Y-85947237D01*
X147147917Y-85947243D01*
X147142118Y-85953937D01*
X147138438Y-85961994D01*
X147138434Y-85962001D01*
X147091988Y-86063704D01*
X147088303Y-86071774D01*
X147087041Y-86080547D01*
X147087040Y-86080553D01*
X147081426Y-86119603D01*
X147069867Y-86200000D01*
X147071129Y-86208777D01*
X147087040Y-86319446D01*
X147087041Y-86319450D01*
X147088303Y-86328226D01*
X147091987Y-86336294D01*
X147091988Y-86336295D01*
X147134357Y-86429069D01*
X147144540Y-86496473D01*
X147117557Y-86559074D01*
X147061561Y-86597953D01*
X146993478Y-86601359D01*
X146933882Y-86568262D01*
X146390105Y-86024485D01*
X146390104Y-86024484D01*
X146387628Y-86022008D01*
X146384895Y-86019832D01*
X146384888Y-86019826D01*
X146366508Y-86005194D01*
X146351355Y-85993131D01*
X146306034Y-85964761D01*
X146271396Y-85932382D01*
X146251442Y-85889367D01*
X146249093Y-85842007D01*
X146253871Y-85808780D01*
X146253871Y-85808777D01*
X146255133Y-85800000D01*
X146236697Y-85671774D01*
X146193144Y-85576408D01*
X146186565Y-85562001D01*
X146186564Y-85561999D01*
X146182882Y-85553937D01*
X146153323Y-85519824D01*
X146124143Y-85486147D01*
X146098049Y-85456033D01*
X146090589Y-85451238D01*
X146090587Y-85451237D01*
X146029269Y-85411831D01*
X145989069Y-85385996D01*
X145980555Y-85383496D01*
X145873284Y-85351999D01*
X145873282Y-85351998D01*
X145864772Y-85349500D01*
X145737849Y-85349500D01*
X145676489Y-85333254D01*
X145631209Y-85288776D01*
X145610550Y-85253957D01*
X145608173Y-85250897D01*
X145581503Y-85216565D01*
X145581501Y-85216562D01*
X145579128Y-85213508D01*
X145031629Y-84666009D01*
X145000490Y-84640453D01*
X144997975Y-84638772D01*
X144997969Y-84638768D01*
X144965324Y-84616955D01*
X144965321Y-84616953D01*
X144960262Y-84613573D01*
X144954640Y-84611244D01*
X144954634Y-84611241D01*
X144891808Y-84585218D01*
X144891804Y-84585216D01*
X144886182Y-84582888D01*
X144880211Y-84581700D01*
X144880207Y-84581699D01*
X144841720Y-84574044D01*
X144841721Y-84574044D01*
X144838729Y-84573449D01*
X144835709Y-84573151D01*
X144835699Y-84573150D01*
X144801670Y-84569798D01*
X144801656Y-84569797D01*
X144798638Y-84569500D01*
X144795589Y-84569500D01*
X143651818Y-84569500D01*
X143594561Y-84555489D01*
X143550243Y-84516624D01*
X143528879Y-84461686D01*
X143528453Y-84458454D01*
X143523498Y-84420812D01*
X143517921Y-84400000D01*
X145894867Y-84400000D01*
X145896129Y-84408777D01*
X145912040Y-84519446D01*
X145912041Y-84519450D01*
X145913303Y-84528226D01*
X145916987Y-84536294D01*
X145916988Y-84536295D01*
X145963434Y-84637998D01*
X145963436Y-84638002D01*
X145967118Y-84646063D01*
X145972920Y-84652759D01*
X145972922Y-84652762D01*
X145982720Y-84664069D01*
X146051951Y-84743967D01*
X146059411Y-84748761D01*
X146059412Y-84748762D01*
X146071211Y-84756344D01*
X146160931Y-84814004D01*
X146285228Y-84850500D01*
X146405901Y-84850500D01*
X146414772Y-84850500D01*
X146539069Y-84814004D01*
X146648049Y-84743967D01*
X146732882Y-84646063D01*
X146786697Y-84528226D01*
X146805133Y-84400000D01*
X146786697Y-84271774D01*
X146739357Y-84168115D01*
X146736565Y-84162001D01*
X146736564Y-84161999D01*
X146732882Y-84153937D01*
X146725163Y-84145029D01*
X146653856Y-84062735D01*
X146648049Y-84056033D01*
X146640589Y-84051238D01*
X146640587Y-84051237D01*
X146638662Y-84050000D01*
X152569867Y-84050000D01*
X152571129Y-84058777D01*
X152587040Y-84169446D01*
X152587041Y-84169450D01*
X152588303Y-84178226D01*
X152591987Y-84186294D01*
X152591988Y-84186295D01*
X152638434Y-84287998D01*
X152638436Y-84288002D01*
X152642118Y-84296063D01*
X152647920Y-84302759D01*
X152647922Y-84302762D01*
X152711638Y-84376294D01*
X152726951Y-84393967D01*
X152734411Y-84398761D01*
X152734412Y-84398762D01*
X152746211Y-84406344D01*
X152835931Y-84464004D01*
X152960228Y-84500500D01*
X153080901Y-84500500D01*
X153089772Y-84500500D01*
X153214069Y-84464004D01*
X153313661Y-84400000D01*
X155119867Y-84400000D01*
X155121129Y-84408777D01*
X155137040Y-84519446D01*
X155137041Y-84519450D01*
X155138303Y-84528226D01*
X155141987Y-84536294D01*
X155141988Y-84536295D01*
X155188434Y-84637998D01*
X155188436Y-84638002D01*
X155192118Y-84646063D01*
X155197920Y-84652759D01*
X155197922Y-84652762D01*
X155207720Y-84664069D01*
X155276951Y-84743967D01*
X155284411Y-84748761D01*
X155284412Y-84748762D01*
X155296211Y-84756344D01*
X155385931Y-84814004D01*
X155510228Y-84850500D01*
X155630901Y-84850500D01*
X155639772Y-84850500D01*
X155764069Y-84814004D01*
X155873049Y-84743967D01*
X155957882Y-84646063D01*
X156011697Y-84528226D01*
X156030133Y-84400000D01*
X156011697Y-84271774D01*
X155964357Y-84168115D01*
X155961565Y-84162001D01*
X155961564Y-84161999D01*
X155957882Y-84153937D01*
X155950163Y-84145029D01*
X155878856Y-84062735D01*
X155873049Y-84056033D01*
X155865589Y-84051238D01*
X155865587Y-84051237D01*
X155818558Y-84021014D01*
X155764069Y-83985996D01*
X155736537Y-83977912D01*
X155648284Y-83951999D01*
X155648282Y-83951998D01*
X155639772Y-83949500D01*
X155510228Y-83949500D01*
X155501718Y-83951998D01*
X155501715Y-83951999D01*
X155394444Y-83983496D01*
X155394441Y-83983497D01*
X155385931Y-83985996D01*
X155378468Y-83990791D01*
X155378468Y-83990792D01*
X155284412Y-84051237D01*
X155284406Y-84051241D01*
X155276951Y-84056033D01*
X155271146Y-84062732D01*
X155271143Y-84062735D01*
X155197922Y-84147237D01*
X155197917Y-84147243D01*
X155192118Y-84153937D01*
X155188438Y-84161994D01*
X155188434Y-84162001D01*
X155160037Y-84224183D01*
X155138303Y-84271774D01*
X155137041Y-84280547D01*
X155137040Y-84280553D01*
X155126043Y-84357043D01*
X155119867Y-84400000D01*
X153313661Y-84400000D01*
X153323049Y-84393967D01*
X153407882Y-84296063D01*
X153461697Y-84178226D01*
X153480133Y-84050000D01*
X153461697Y-83921774D01*
X153407882Y-83803937D01*
X153323049Y-83706033D01*
X153315589Y-83701238D01*
X153315587Y-83701237D01*
X153268558Y-83671014D01*
X153214069Y-83635996D01*
X153205555Y-83633496D01*
X153098284Y-83601999D01*
X153098282Y-83601998D01*
X153089772Y-83599500D01*
X152960228Y-83599500D01*
X152951718Y-83601998D01*
X152951715Y-83601999D01*
X152844444Y-83633496D01*
X152844441Y-83633497D01*
X152835931Y-83635996D01*
X152828468Y-83640791D01*
X152828468Y-83640792D01*
X152734412Y-83701237D01*
X152734406Y-83701241D01*
X152726951Y-83706033D01*
X152721146Y-83712732D01*
X152721143Y-83712735D01*
X152647922Y-83797237D01*
X152647917Y-83797243D01*
X152642118Y-83803937D01*
X152638438Y-83811994D01*
X152638434Y-83812001D01*
X152600788Y-83894435D01*
X152588303Y-83921774D01*
X152587041Y-83930547D01*
X152587040Y-83930553D01*
X152572369Y-84032593D01*
X152569867Y-84050000D01*
X146638662Y-84050000D01*
X146593558Y-84021014D01*
X146539069Y-83985996D01*
X146511537Y-83977912D01*
X146423284Y-83951999D01*
X146423282Y-83951998D01*
X146414772Y-83949500D01*
X146285228Y-83949500D01*
X146276718Y-83951998D01*
X146276715Y-83951999D01*
X146169444Y-83983496D01*
X146169441Y-83983497D01*
X146160931Y-83985996D01*
X146153468Y-83990791D01*
X146153468Y-83990792D01*
X146059412Y-84051237D01*
X146059406Y-84051241D01*
X146051951Y-84056033D01*
X146046146Y-84062732D01*
X146046143Y-84062735D01*
X145972922Y-84147237D01*
X145972917Y-84147243D01*
X145967118Y-84153937D01*
X145963438Y-84161994D01*
X145963434Y-84162001D01*
X145935037Y-84224183D01*
X145913303Y-84271774D01*
X145912041Y-84280547D01*
X145912040Y-84280553D01*
X145901043Y-84357043D01*
X145894867Y-84400000D01*
X143517921Y-84400000D01*
X143506885Y-84358812D01*
X143486355Y-84309250D01*
X143453697Y-84266690D01*
X143408310Y-84221303D01*
X143365750Y-84188645D01*
X143358243Y-84185535D01*
X143358239Y-84185533D01*
X143319941Y-84169669D01*
X143319932Y-84169666D01*
X143316188Y-84168115D01*
X143312272Y-84167065D01*
X143312270Y-84167065D01*
X143258101Y-84152550D01*
X143258093Y-84152548D01*
X143254188Y-84151502D01*
X143250173Y-84150973D01*
X143250166Y-84150972D01*
X143205022Y-84145029D01*
X143205014Y-84145028D01*
X143201000Y-84144500D01*
X142099000Y-84144500D01*
X142094986Y-84145028D01*
X142094977Y-84145029D01*
X142049833Y-84150972D01*
X142049823Y-84150973D01*
X142045812Y-84151502D01*
X142041909Y-84152547D01*
X142041898Y-84152550D01*
X141987729Y-84167065D01*
X141987722Y-84167067D01*
X141983812Y-84168115D01*
X141980071Y-84169664D01*
X141980058Y-84169669D01*
X141941760Y-84185533D01*
X141941752Y-84185537D01*
X141934250Y-84188645D01*
X141927804Y-84193591D01*
X141927801Y-84193593D01*
X141894921Y-84218823D01*
X141894914Y-84218828D01*
X141891690Y-84221303D01*
X141888817Y-84224175D01*
X141888809Y-84224183D01*
X141849183Y-84263809D01*
X141849175Y-84263817D01*
X141846303Y-84266690D01*
X141843828Y-84269914D01*
X141843823Y-84269921D01*
X141818593Y-84302801D01*
X141818591Y-84302804D01*
X141813645Y-84309250D01*
X141810537Y-84316752D01*
X141810533Y-84316760D01*
X141794669Y-84355058D01*
X141794664Y-84355071D01*
X141793115Y-84358812D01*
X141792067Y-84362722D01*
X141792065Y-84362729D01*
X141777550Y-84416898D01*
X141777547Y-84416909D01*
X141776502Y-84420812D01*
X141775973Y-84424823D01*
X141775972Y-84424833D01*
X141770029Y-84469977D01*
X141770028Y-84469986D01*
X141769500Y-84474000D01*
X141769500Y-85179048D01*
X141769937Y-85182703D01*
X141769938Y-85182719D01*
X141773620Y-85213508D01*
X141775293Y-85227496D01*
X141776159Y-85231068D01*
X141776161Y-85231076D01*
X141788209Y-85280740D01*
X141788212Y-85280751D01*
X141789077Y-85284315D01*
X141790359Y-85287753D01*
X141790362Y-85287762D01*
X141803545Y-85323109D01*
X141806127Y-85330031D01*
X141833475Y-85370438D01*
X141835893Y-85373229D01*
X141835898Y-85373235D01*
X141851111Y-85390792D01*
X141871762Y-85414625D01*
X141907867Y-85447447D01*
X141950691Y-85470832D01*
X141954112Y-85472201D01*
X141954115Y-85472203D01*
X141998081Y-85489805D01*
X141997808Y-85490485D01*
X142004942Y-85492694D01*
X142005393Y-85491579D01*
X142011036Y-85493857D01*
X142016428Y-85496676D01*
X142095267Y-85519824D01*
X142127371Y-85534485D01*
X142156640Y-85553295D01*
X142183313Y-85576408D01*
X142233133Y-85633905D01*
X142233143Y-85633914D01*
X142237125Y-85638510D01*
X142241931Y-85642243D01*
X142244880Y-85644534D01*
X142253235Y-85653776D01*
X142254054Y-85652897D01*
X142288777Y-85685228D01*
X142330324Y-85715190D01*
X142377989Y-85733945D01*
X142437419Y-85749115D01*
X142488245Y-85755500D01*
X142674723Y-85755500D01*
X142718790Y-85763594D01*
X142757104Y-85786821D01*
X142871534Y-85888536D01*
X142906671Y-85941647D01*
X142910812Y-86005194D01*
X142882867Y-86062416D01*
X142846111Y-86104835D01*
X142846105Y-86104843D01*
X142840304Y-86111539D01*
X142836624Y-86119596D01*
X142836620Y-86119603D01*
X142795896Y-86208777D01*
X142786489Y-86229376D01*
X142785227Y-86238149D01*
X142785226Y-86238155D01*
X142773539Y-86319446D01*
X142768053Y-86357602D01*
X142769315Y-86366379D01*
X142785226Y-86477048D01*
X142785227Y-86477052D01*
X142786489Y-86485828D01*
X142790173Y-86493896D01*
X142790174Y-86493897D01*
X142836620Y-86595600D01*
X142836622Y-86595604D01*
X142840304Y-86603665D01*
X142846106Y-86610361D01*
X142846108Y-86610364D01*
X142857288Y-86623266D01*
X142925137Y-86701569D01*
X143034117Y-86771606D01*
X143158414Y-86808102D01*
X143279087Y-86808102D01*
X143287958Y-86808102D01*
X143412255Y-86771606D01*
X143521235Y-86701569D01*
X143606068Y-86603665D01*
X143659883Y-86485828D01*
X143663330Y-86461852D01*
X143685060Y-86407573D01*
X143729248Y-86369284D01*
X143786068Y-86355500D01*
X144313518Y-86355500D01*
X144360971Y-86364939D01*
X144401199Y-86391819D01*
X144884598Y-86875218D01*
X144925047Y-86906640D01*
X144977793Y-86937936D01*
X144980182Y-86938976D01*
X145019473Y-86970737D01*
X145042868Y-87015952D01*
X145045554Y-87057854D01*
X145046129Y-87057854D01*
X145046129Y-87066722D01*
X145044867Y-87075500D01*
X145046129Y-87084277D01*
X145062040Y-87194946D01*
X145062041Y-87194950D01*
X145063303Y-87203726D01*
X145066987Y-87211794D01*
X145066988Y-87211795D01*
X145113434Y-87313498D01*
X145113436Y-87313502D01*
X145117118Y-87321563D01*
X145122920Y-87328259D01*
X145122922Y-87328262D01*
X145145571Y-87354400D01*
X145201951Y-87419467D01*
X145310931Y-87489504D01*
X145435228Y-87526000D01*
X145444099Y-87526000D01*
X145524136Y-87526000D01*
X145588830Y-87544214D01*
X145634267Y-87593234D01*
X145635174Y-87595317D01*
X145637147Y-87598643D01*
X145637149Y-87598646D01*
X145637952Y-87600000D01*
X145666470Y-87648063D01*
X145668843Y-87651118D01*
X145668846Y-87651122D01*
X145693991Y-87683491D01*
X145697892Y-87688512D01*
X145700633Y-87691253D01*
X148758181Y-90748801D01*
X148785061Y-90789029D01*
X148794500Y-90836482D01*
X148794500Y-104263518D01*
X148785061Y-104310971D01*
X148758181Y-104351199D01*
X147751199Y-105358181D01*
X147710971Y-105385061D01*
X147663518Y-105394500D01*
X144536483Y-105394500D01*
X144489030Y-105385061D01*
X144448802Y-105358181D01*
X144166768Y-105076147D01*
X143881630Y-104791008D01*
X143850487Y-104765450D01*
X143847973Y-104763770D01*
X143847966Y-104763765D01*
X143829133Y-104751182D01*
X143810259Y-104738571D01*
X143804633Y-104736240D01*
X143804628Y-104736238D01*
X143741816Y-104710221D01*
X143741810Y-104710219D01*
X143736182Y-104707888D01*
X143730201Y-104706698D01*
X143730200Y-104706698D01*
X143691720Y-104699044D01*
X143691721Y-104699044D01*
X143688729Y-104698449D01*
X143685709Y-104698151D01*
X143685699Y-104698150D01*
X143651670Y-104694798D01*
X143651656Y-104694797D01*
X143648638Y-104694500D01*
X133222149Y-104694500D01*
X133163696Y-104679858D01*
X133119047Y-104639391D01*
X133098746Y-104582654D01*
X133107588Y-104523047D01*
X133123793Y-104483924D01*
X133135044Y-104456762D01*
X133155682Y-104300000D01*
X133135044Y-104143238D01*
X133074536Y-103997159D01*
X132978282Y-103871718D01*
X132852841Y-103775464D01*
X132807280Y-103756592D01*
X132714271Y-103718066D01*
X132714268Y-103718065D01*
X132706762Y-103714956D01*
X132698708Y-103713895D01*
X132698702Y-103713894D01*
X132558059Y-103695379D01*
X132550000Y-103694318D01*
X132541941Y-103695379D01*
X132401297Y-103713894D01*
X132401289Y-103713896D01*
X132393238Y-103714956D01*
X132385733Y-103718064D01*
X132385728Y-103718066D01*
X132254666Y-103772354D01*
X132254662Y-103772355D01*
X132247159Y-103775464D01*
X132240714Y-103780408D01*
X132240711Y-103780411D01*
X132128164Y-103866771D01*
X132128160Y-103866774D01*
X132121718Y-103871718D01*
X132116774Y-103878160D01*
X132116771Y-103878164D01*
X132030411Y-103990711D01*
X132030408Y-103990714D01*
X132025464Y-103997159D01*
X132022355Y-104004662D01*
X132022354Y-104004666D01*
X131968066Y-104135728D01*
X131968064Y-104135733D01*
X131964956Y-104143238D01*
X131963896Y-104151289D01*
X131963894Y-104151297D01*
X131949121Y-104263518D01*
X131944318Y-104300000D01*
X131945379Y-104308059D01*
X131963894Y-104448702D01*
X131963895Y-104448708D01*
X131964956Y-104456762D01*
X132025464Y-104602841D01*
X132121718Y-104728282D01*
X132247159Y-104824536D01*
X132393238Y-104885044D01*
X132550000Y-104905682D01*
X132654918Y-104891869D01*
X132709032Y-104896752D01*
X132755865Y-104924303D01*
X132786422Y-104969231D01*
X132794731Y-105022240D01*
X132794500Y-105024000D01*
X132794500Y-105028058D01*
X132794500Y-105870500D01*
X132777887Y-105932500D01*
X132732500Y-105977887D01*
X132670500Y-105994500D01*
X129658041Y-105994500D01*
X129598614Y-105979332D01*
X129553725Y-105937539D01*
X129534357Y-105879346D01*
X129545247Y-105818988D01*
X129556087Y-105795252D01*
X129586697Y-105728226D01*
X129605133Y-105600000D01*
X129586697Y-105471774D01*
X129532882Y-105353937D01*
X129482755Y-105296087D01*
X129453856Y-105262735D01*
X129448049Y-105256033D01*
X129440589Y-105251238D01*
X129440587Y-105251237D01*
X129350837Y-105193559D01*
X129339069Y-105185996D01*
X129294985Y-105173052D01*
X129223284Y-105151999D01*
X129223282Y-105151998D01*
X129214772Y-105149500D01*
X129085228Y-105149500D01*
X129076718Y-105151998D01*
X129076715Y-105151999D01*
X128969444Y-105183496D01*
X128969441Y-105183497D01*
X128960931Y-105185996D01*
X128953468Y-105190791D01*
X128953468Y-105190792D01*
X128859412Y-105251237D01*
X128859406Y-105251241D01*
X128851951Y-105256033D01*
X128846146Y-105262732D01*
X128846143Y-105262735D01*
X128772922Y-105347237D01*
X128772917Y-105347243D01*
X128767118Y-105353937D01*
X128763438Y-105361994D01*
X128763434Y-105362001D01*
X128716988Y-105463704D01*
X128713303Y-105471774D01*
X128712041Y-105480547D01*
X128712040Y-105480553D01*
X128699422Y-105568316D01*
X128694867Y-105600000D01*
X128696129Y-105608777D01*
X128712040Y-105719446D01*
X128712041Y-105719450D01*
X128713303Y-105728226D01*
X128716987Y-105736294D01*
X128716988Y-105736295D01*
X128754753Y-105818988D01*
X128765643Y-105879346D01*
X128746275Y-105937539D01*
X128701386Y-105979332D01*
X128641959Y-105994500D01*
X127186482Y-105994500D01*
X127139029Y-105985061D01*
X127098801Y-105958181D01*
X126404628Y-105264008D01*
X126404627Y-105264007D01*
X126401574Y-105260954D01*
X126356089Y-105226639D01*
X126350333Y-105223440D01*
X126345090Y-105220526D01*
X126303754Y-105183262D01*
X126282879Y-105131671D01*
X126286670Y-105076147D01*
X126288642Y-105069646D01*
X126339611Y-104901623D01*
X126359894Y-104695689D01*
X126339611Y-104489755D01*
X126279543Y-104291735D01*
X126181996Y-104109239D01*
X126050721Y-103949279D01*
X125981503Y-103892474D01*
X125895468Y-103821867D01*
X125890761Y-103818004D01*
X125885390Y-103815133D01*
X125713639Y-103723329D01*
X125713634Y-103723327D01*
X125708265Y-103720457D01*
X125625593Y-103695379D01*
X125516075Y-103662157D01*
X125516070Y-103662156D01*
X125510245Y-103660389D01*
X125504186Y-103659792D01*
X125504180Y-103659791D01*
X125310372Y-103640703D01*
X125304311Y-103640106D01*
X125298250Y-103640703D01*
X125104441Y-103659791D01*
X125104433Y-103659792D01*
X125098377Y-103660389D01*
X125092553Y-103662155D01*
X125092546Y-103662157D01*
X124923851Y-103713330D01*
X124868323Y-103717121D01*
X124816730Y-103696242D01*
X124779469Y-103654902D01*
X124773359Y-103643908D01*
X124739045Y-103598425D01*
X124165620Y-103025000D01*
X126519867Y-103025000D01*
X126521129Y-103033777D01*
X126537040Y-103144446D01*
X126537041Y-103144450D01*
X126538303Y-103153226D01*
X126541987Y-103161294D01*
X126541988Y-103161295D01*
X126588434Y-103262998D01*
X126588436Y-103263002D01*
X126592118Y-103271063D01*
X126597920Y-103277759D01*
X126597922Y-103277762D01*
X126617511Y-103300369D01*
X126676951Y-103368967D01*
X126785931Y-103439004D01*
X126910228Y-103475500D01*
X127030901Y-103475500D01*
X127039772Y-103475500D01*
X127164069Y-103439004D01*
X127273049Y-103368967D01*
X127357882Y-103271063D01*
X127411697Y-103153226D01*
X127430133Y-103025000D01*
X127411697Y-102896774D01*
X127357882Y-102778937D01*
X127333847Y-102751199D01*
X127278856Y-102687735D01*
X127273049Y-102681033D01*
X127265589Y-102676238D01*
X127265587Y-102676237D01*
X127218558Y-102646014D01*
X127164069Y-102610996D01*
X127155555Y-102608496D01*
X127048284Y-102576999D01*
X127048282Y-102576998D01*
X127039772Y-102574500D01*
X126910228Y-102574500D01*
X126901718Y-102576998D01*
X126901715Y-102576999D01*
X126794444Y-102608496D01*
X126794441Y-102608497D01*
X126785931Y-102610996D01*
X126778468Y-102615791D01*
X126778468Y-102615792D01*
X126684412Y-102676237D01*
X126684406Y-102676241D01*
X126676951Y-102681033D01*
X126671146Y-102687732D01*
X126671143Y-102687735D01*
X126597922Y-102772237D01*
X126597917Y-102772243D01*
X126592118Y-102778937D01*
X126588438Y-102786994D01*
X126588434Y-102787001D01*
X126541988Y-102888704D01*
X126538303Y-102896774D01*
X126537041Y-102905547D01*
X126537040Y-102905553D01*
X126522369Y-103007593D01*
X126519867Y-103025000D01*
X124165620Y-103025000D01*
X123891819Y-102751199D01*
X123864939Y-102710971D01*
X123855500Y-102663518D01*
X123855500Y-102275000D01*
X124394867Y-102275000D01*
X124396129Y-102283777D01*
X124412040Y-102394446D01*
X124412041Y-102394450D01*
X124413303Y-102403226D01*
X124416987Y-102411294D01*
X124416988Y-102411295D01*
X124463434Y-102512998D01*
X124463436Y-102513002D01*
X124467118Y-102521063D01*
X124472920Y-102527759D01*
X124472922Y-102527762D01*
X124515586Y-102576999D01*
X124551951Y-102618967D01*
X124660931Y-102689004D01*
X124785228Y-102725500D01*
X124905901Y-102725500D01*
X124914772Y-102725500D01*
X125039069Y-102689004D01*
X125148049Y-102618967D01*
X125232882Y-102521063D01*
X125286697Y-102403226D01*
X125305133Y-102275000D01*
X125286697Y-102146774D01*
X125232882Y-102028937D01*
X125215786Y-102009207D01*
X125176618Y-101964004D01*
X125148049Y-101931033D01*
X125140589Y-101926238D01*
X125140587Y-101926237D01*
X125079943Y-101887264D01*
X125039069Y-101860996D01*
X124988211Y-101846063D01*
X124923284Y-101826999D01*
X124923282Y-101826998D01*
X124914772Y-101824500D01*
X124785228Y-101824500D01*
X124776718Y-101826998D01*
X124776715Y-101826999D01*
X124669444Y-101858496D01*
X124669441Y-101858497D01*
X124660931Y-101860996D01*
X124653468Y-101865791D01*
X124653468Y-101865792D01*
X124559412Y-101926237D01*
X124559406Y-101926241D01*
X124551951Y-101931033D01*
X124546146Y-101937732D01*
X124546143Y-101937735D01*
X124472922Y-102022237D01*
X124472917Y-102022243D01*
X124467118Y-102028937D01*
X124463438Y-102036994D01*
X124463434Y-102037001D01*
X124416988Y-102138704D01*
X124413303Y-102146774D01*
X124412041Y-102155547D01*
X124412040Y-102155553D01*
X124397369Y-102257593D01*
X124394867Y-102275000D01*
X123855500Y-102275000D01*
X123855500Y-101550000D01*
X133469867Y-101550000D01*
X133471129Y-101558777D01*
X133487040Y-101669446D01*
X133487041Y-101669450D01*
X133488303Y-101678226D01*
X133491987Y-101686294D01*
X133491988Y-101686295D01*
X133538434Y-101787998D01*
X133538436Y-101788002D01*
X133542118Y-101796063D01*
X133547920Y-101802759D01*
X133547922Y-101802762D01*
X133591247Y-101852762D01*
X133626951Y-101893967D01*
X133735931Y-101964004D01*
X133860228Y-102000500D01*
X133980901Y-102000500D01*
X133989772Y-102000500D01*
X134114069Y-101964004D01*
X134223049Y-101893967D01*
X134307882Y-101796063D01*
X134361697Y-101678226D01*
X134372944Y-101600000D01*
X135419867Y-101600000D01*
X135421129Y-101608777D01*
X135437040Y-101719446D01*
X135437041Y-101719450D01*
X135438303Y-101728226D01*
X135441987Y-101736294D01*
X135441988Y-101736295D01*
X135488434Y-101837998D01*
X135488436Y-101838002D01*
X135492118Y-101846063D01*
X135497920Y-101852759D01*
X135497922Y-101852762D01*
X135537781Y-101898762D01*
X135576951Y-101943967D01*
X135685931Y-102014004D01*
X135810228Y-102050500D01*
X135930901Y-102050500D01*
X135939772Y-102050500D01*
X136064069Y-102014004D01*
X136173049Y-101943967D01*
X136257882Y-101846063D01*
X136311697Y-101728226D01*
X136330133Y-101600000D01*
X136311697Y-101471774D01*
X136295809Y-101436986D01*
X136285583Y-101369918D01*
X136312183Y-101307505D01*
X136367648Y-101268433D01*
X136461860Y-101235466D01*
X136471440Y-101229065D01*
X136828558Y-101229065D01*
X136838139Y-101235466D01*
X136975475Y-101283523D01*
X136988977Y-101286605D01*
X137143077Y-101303968D01*
X137156923Y-101303968D01*
X137311022Y-101286605D01*
X137324524Y-101283523D01*
X137461859Y-101235466D01*
X137471440Y-101229065D01*
X137828559Y-101229065D01*
X137838140Y-101235466D01*
X137975476Y-101283523D01*
X137988978Y-101286605D01*
X138143078Y-101303968D01*
X138156924Y-101303968D01*
X138311023Y-101286605D01*
X138324525Y-101283523D01*
X138461860Y-101235466D01*
X138471441Y-101229065D01*
X138828560Y-101229065D01*
X138838141Y-101235466D01*
X138975477Y-101283523D01*
X138988979Y-101286605D01*
X139143079Y-101303968D01*
X139156925Y-101303968D01*
X139311024Y-101286605D01*
X139324526Y-101283523D01*
X139461861Y-101235466D01*
X139471442Y-101229065D01*
X139828560Y-101229065D01*
X139838141Y-101235466D01*
X139975477Y-101283523D01*
X139988979Y-101286605D01*
X140143079Y-101303968D01*
X140156925Y-101303968D01*
X140311024Y-101286605D01*
X140324526Y-101283523D01*
X140461861Y-101235466D01*
X140471442Y-101229065D01*
X140465588Y-101219141D01*
X140161544Y-100915097D01*
X140150002Y-100908433D01*
X140138458Y-100915098D01*
X139834414Y-101219141D01*
X139828560Y-101229065D01*
X139471442Y-101229065D01*
X139465588Y-101219141D01*
X139161544Y-100915097D01*
X139150002Y-100908433D01*
X139138458Y-100915098D01*
X138834414Y-101219141D01*
X138828560Y-101229065D01*
X138471441Y-101229065D01*
X138465587Y-101219141D01*
X138161543Y-100915097D01*
X138150001Y-100908433D01*
X138138457Y-100915098D01*
X137834413Y-101219141D01*
X137828559Y-101229065D01*
X137471440Y-101229065D01*
X137465586Y-101219141D01*
X137161542Y-100915097D01*
X137150000Y-100908433D01*
X137138456Y-100915098D01*
X136834412Y-101219141D01*
X136828558Y-101229065D01*
X136471440Y-101229065D01*
X136465586Y-101219141D01*
X136161542Y-100915097D01*
X136149999Y-100908433D01*
X136138457Y-100915097D01*
X135940374Y-101113181D01*
X135900146Y-101140061D01*
X135852693Y-101149500D01*
X135810228Y-101149500D01*
X135801718Y-101151998D01*
X135801715Y-101151999D01*
X135694444Y-101183496D01*
X135694441Y-101183497D01*
X135685931Y-101185996D01*
X135678468Y-101190791D01*
X135678468Y-101190792D01*
X135584412Y-101251237D01*
X135584406Y-101251241D01*
X135576951Y-101256033D01*
X135571146Y-101262732D01*
X135571143Y-101262735D01*
X135497922Y-101347237D01*
X135497917Y-101347243D01*
X135492118Y-101353937D01*
X135488438Y-101361994D01*
X135488434Y-101362001D01*
X135454189Y-101436988D01*
X135438303Y-101471774D01*
X135437041Y-101480547D01*
X135437040Y-101480553D01*
X135427056Y-101550000D01*
X135419867Y-101600000D01*
X134372944Y-101600000D01*
X134380133Y-101550000D01*
X134361697Y-101421774D01*
X134307882Y-101303937D01*
X134290193Y-101283523D01*
X134228856Y-101212735D01*
X134223049Y-101206033D01*
X134215589Y-101201238D01*
X134215587Y-101201237D01*
X134138970Y-101151999D01*
X134114069Y-101135996D01*
X134105555Y-101133496D01*
X133998284Y-101101999D01*
X133998282Y-101101998D01*
X133989772Y-101099500D01*
X133860228Y-101099500D01*
X133851718Y-101101998D01*
X133851715Y-101101999D01*
X133744444Y-101133496D01*
X133744441Y-101133497D01*
X133735931Y-101135996D01*
X133728468Y-101140791D01*
X133728468Y-101140792D01*
X133634412Y-101201237D01*
X133634406Y-101201241D01*
X133626951Y-101206033D01*
X133621146Y-101212732D01*
X133621143Y-101212735D01*
X133547922Y-101297237D01*
X133547917Y-101297243D01*
X133542118Y-101303937D01*
X133538438Y-101311994D01*
X133538434Y-101312001D01*
X133491988Y-101413704D01*
X133488303Y-101421774D01*
X133487041Y-101430547D01*
X133487040Y-101430553D01*
X133482274Y-101463704D01*
X133469867Y-101550000D01*
X123855500Y-101550000D01*
X123855500Y-100556925D01*
X135396034Y-100556925D01*
X135413397Y-100711027D01*
X135416476Y-100724519D01*
X135464535Y-100861865D01*
X135470934Y-100871442D01*
X135480861Y-100865586D01*
X135784904Y-100561544D01*
X135791568Y-100550002D01*
X136508431Y-100550002D01*
X136515095Y-100561544D01*
X136638457Y-100684906D01*
X136650000Y-100691570D01*
X136661542Y-100684906D01*
X136784904Y-100561544D01*
X136791568Y-100550002D01*
X137508431Y-100550002D01*
X137515095Y-100561544D01*
X137638457Y-100684906D01*
X137649999Y-100691570D01*
X137661543Y-100684905D01*
X137784905Y-100561544D01*
X137791569Y-100550002D01*
X138508432Y-100550002D01*
X138515096Y-100561544D01*
X138638458Y-100684906D01*
X138650000Y-100691570D01*
X138661544Y-100684905D01*
X138784906Y-100561544D01*
X138791570Y-100550002D01*
X139508433Y-100550002D01*
X139515097Y-100561544D01*
X139638459Y-100684906D01*
X139650002Y-100691570D01*
X139661544Y-100684906D01*
X139784906Y-100561544D01*
X139791570Y-100550002D01*
X140508433Y-100550002D01*
X140515097Y-100561544D01*
X140819141Y-100865588D01*
X140829065Y-100871442D01*
X140835466Y-100861861D01*
X140883523Y-100724526D01*
X140886605Y-100711024D01*
X140903968Y-100556925D01*
X140903968Y-100543079D01*
X140886605Y-100388979D01*
X140883523Y-100375477D01*
X140835466Y-100238141D01*
X140829065Y-100228560D01*
X140819141Y-100234414D01*
X140515098Y-100538458D01*
X140508433Y-100550002D01*
X139791570Y-100550002D01*
X139784906Y-100538459D01*
X139661544Y-100415097D01*
X139650002Y-100408433D01*
X139638459Y-100415097D01*
X139515097Y-100538459D01*
X139508433Y-100550002D01*
X138791570Y-100550002D01*
X138784905Y-100538458D01*
X138661544Y-100415097D01*
X138650000Y-100408432D01*
X138638458Y-100415096D01*
X138515097Y-100538458D01*
X138508432Y-100550002D01*
X137791569Y-100550002D01*
X137784904Y-100538458D01*
X137661543Y-100415097D01*
X137649999Y-100408432D01*
X137638457Y-100415096D01*
X137515096Y-100538458D01*
X137508431Y-100550002D01*
X136791568Y-100550002D01*
X136784904Y-100538459D01*
X136661542Y-100415097D01*
X136650000Y-100408433D01*
X136638457Y-100415097D01*
X136515095Y-100538459D01*
X136508431Y-100550002D01*
X135791568Y-100550002D01*
X135784904Y-100538459D01*
X135480859Y-100234414D01*
X135470934Y-100228559D01*
X135464535Y-100238136D01*
X135416477Y-100375480D01*
X135413396Y-100388978D01*
X135396034Y-100543079D01*
X135396034Y-100556925D01*
X123855500Y-100556925D01*
X123855500Y-100050000D01*
X136008430Y-100050000D01*
X136015095Y-100061544D01*
X136138456Y-100184905D01*
X136150000Y-100191570D01*
X136161542Y-100184906D01*
X136284903Y-100061544D01*
X136291568Y-100050000D01*
X137008430Y-100050000D01*
X137015095Y-100061544D01*
X137138456Y-100184905D01*
X137150000Y-100191570D01*
X137161542Y-100184906D01*
X137284903Y-100061544D01*
X137291568Y-100050000D01*
X138008431Y-100050000D01*
X138015096Y-100061544D01*
X138138457Y-100184905D01*
X138150001Y-100191570D01*
X138161543Y-100184906D01*
X138284904Y-100061544D01*
X138291569Y-100050000D01*
X139008432Y-100050000D01*
X139015097Y-100061544D01*
X139138458Y-100184905D01*
X139150002Y-100191570D01*
X139161544Y-100184906D01*
X139284905Y-100061544D01*
X139291570Y-100050000D01*
X140008432Y-100050000D01*
X140015097Y-100061544D01*
X140138458Y-100184905D01*
X140150002Y-100191570D01*
X140161544Y-100184906D01*
X140284905Y-100061544D01*
X140291570Y-100050000D01*
X140284906Y-100038458D01*
X140171448Y-99925000D01*
X142644867Y-99925000D01*
X142646129Y-99933777D01*
X142662040Y-100044446D01*
X142662041Y-100044450D01*
X142663303Y-100053226D01*
X142666987Y-100061294D01*
X142666988Y-100061295D01*
X142713434Y-100162998D01*
X142713436Y-100163002D01*
X142717118Y-100171063D01*
X142722920Y-100177759D01*
X142722922Y-100177762D01*
X142786638Y-100251294D01*
X142801951Y-100268967D01*
X142910931Y-100339004D01*
X143035228Y-100375500D01*
X143155901Y-100375500D01*
X143164772Y-100375500D01*
X143289069Y-100339004D01*
X143398049Y-100268967D01*
X143482882Y-100171063D01*
X143536697Y-100053226D01*
X143555133Y-99925000D01*
X143536697Y-99796774D01*
X143482882Y-99678937D01*
X143470199Y-99664300D01*
X143403856Y-99587735D01*
X143398049Y-99581033D01*
X143390589Y-99576238D01*
X143390587Y-99576237D01*
X143338990Y-99543078D01*
X143289069Y-99510996D01*
X143258533Y-99502030D01*
X143173284Y-99476999D01*
X143173282Y-99476998D01*
X143164772Y-99474500D01*
X143035228Y-99474500D01*
X143026718Y-99476998D01*
X143026715Y-99476999D01*
X142919444Y-99508496D01*
X142919441Y-99508497D01*
X142910931Y-99510996D01*
X142903468Y-99515791D01*
X142903468Y-99515792D01*
X142809412Y-99576237D01*
X142809406Y-99576241D01*
X142801951Y-99581033D01*
X142796146Y-99587732D01*
X142796143Y-99587735D01*
X142722922Y-99672237D01*
X142722917Y-99672243D01*
X142717118Y-99678937D01*
X142713438Y-99686994D01*
X142713434Y-99687001D01*
X142666988Y-99788704D01*
X142663303Y-99796774D01*
X142662041Y-99805547D01*
X142662040Y-99805553D01*
X142647369Y-99907593D01*
X142644867Y-99925000D01*
X140171448Y-99925000D01*
X140161544Y-99915096D01*
X140150002Y-99908432D01*
X140138458Y-99915097D01*
X140015096Y-100038458D01*
X140008432Y-100050000D01*
X139291570Y-100050000D01*
X139284906Y-100038458D01*
X139161544Y-99915096D01*
X139150002Y-99908432D01*
X139138458Y-99915097D01*
X139015096Y-100038458D01*
X139008432Y-100050000D01*
X138291569Y-100050000D01*
X138284905Y-100038458D01*
X138161543Y-99915096D01*
X138150001Y-99908432D01*
X138138457Y-99915097D01*
X138015095Y-100038458D01*
X138008431Y-100050000D01*
X137291568Y-100050000D01*
X137284904Y-100038458D01*
X137161542Y-99915096D01*
X137150000Y-99908432D01*
X137138456Y-99915097D01*
X137015094Y-100038458D01*
X137008430Y-100050000D01*
X136291568Y-100050000D01*
X136284904Y-100038458D01*
X136161542Y-99915096D01*
X136150000Y-99908432D01*
X136138456Y-99915097D01*
X136015094Y-100038458D01*
X136008430Y-100050000D01*
X123855500Y-100050000D01*
X123855500Y-99575000D01*
X134119867Y-99575000D01*
X134121129Y-99583777D01*
X134137040Y-99694446D01*
X134137041Y-99694450D01*
X134138303Y-99703226D01*
X134141987Y-99711294D01*
X134141988Y-99711295D01*
X134188434Y-99812998D01*
X134188436Y-99813002D01*
X134192118Y-99821063D01*
X134197920Y-99827759D01*
X134197922Y-99827762D01*
X134235770Y-99871441D01*
X134276951Y-99918967D01*
X134284411Y-99923761D01*
X134284412Y-99923762D01*
X134296211Y-99931344D01*
X134385931Y-99989004D01*
X134510228Y-100025500D01*
X134630901Y-100025500D01*
X134639772Y-100025500D01*
X134764069Y-99989004D01*
X134873049Y-99918967D01*
X134957882Y-99821063D01*
X135011697Y-99703226D01*
X135030133Y-99575000D01*
X135027534Y-99556924D01*
X135396034Y-99556924D01*
X135413397Y-99711026D01*
X135416476Y-99724518D01*
X135464535Y-99861864D01*
X135470934Y-99871441D01*
X135480861Y-99865585D01*
X135784904Y-99561543D01*
X135791568Y-99550001D01*
X136508431Y-99550001D01*
X136515095Y-99561543D01*
X136638457Y-99684905D01*
X136649999Y-99691569D01*
X136661542Y-99684905D01*
X136784904Y-99561543D01*
X136791568Y-99550001D01*
X137508431Y-99550001D01*
X137515095Y-99561543D01*
X137638457Y-99684905D01*
X137649999Y-99691569D01*
X137661543Y-99684904D01*
X137784905Y-99561543D01*
X137791569Y-99550001D01*
X138508432Y-99550001D01*
X138515096Y-99561543D01*
X138638458Y-99684905D01*
X138650000Y-99691569D01*
X138661544Y-99684904D01*
X138784906Y-99561543D01*
X138791570Y-99550001D01*
X139508433Y-99550001D01*
X139515097Y-99561543D01*
X139638459Y-99684905D01*
X139650001Y-99691569D01*
X139661544Y-99684905D01*
X139784906Y-99561543D01*
X139791570Y-99550001D01*
X140508433Y-99550001D01*
X140515097Y-99561543D01*
X140819141Y-99865587D01*
X140829065Y-99871441D01*
X140835466Y-99861860D01*
X140883523Y-99724525D01*
X140886605Y-99711023D01*
X140903968Y-99556924D01*
X140903968Y-99543078D01*
X140886605Y-99388978D01*
X140883523Y-99375476D01*
X140835466Y-99238140D01*
X140829065Y-99228559D01*
X140819141Y-99234413D01*
X140515098Y-99538457D01*
X140508433Y-99550001D01*
X139791570Y-99550001D01*
X139784906Y-99538458D01*
X139661544Y-99415096D01*
X139650002Y-99408432D01*
X139638459Y-99415096D01*
X139515097Y-99538458D01*
X139508433Y-99550001D01*
X138791570Y-99550001D01*
X138784905Y-99538457D01*
X138661544Y-99415096D01*
X138650000Y-99408431D01*
X138638458Y-99415095D01*
X138515097Y-99538457D01*
X138508432Y-99550001D01*
X137791569Y-99550001D01*
X137784904Y-99538457D01*
X137661543Y-99415096D01*
X137649999Y-99408431D01*
X137638457Y-99415095D01*
X137515096Y-99538457D01*
X137508431Y-99550001D01*
X136791568Y-99550001D01*
X136784904Y-99538458D01*
X136661542Y-99415096D01*
X136650000Y-99408432D01*
X136638457Y-99415096D01*
X136515095Y-99538458D01*
X136508431Y-99550001D01*
X135791568Y-99550001D01*
X135784904Y-99538458D01*
X135480859Y-99234413D01*
X135470934Y-99228558D01*
X135464535Y-99238135D01*
X135416477Y-99375479D01*
X135413396Y-99388977D01*
X135396034Y-99543078D01*
X135396034Y-99556924D01*
X135027534Y-99556924D01*
X135011697Y-99446774D01*
X134957882Y-99328937D01*
X134873049Y-99231033D01*
X134865589Y-99226238D01*
X134865587Y-99226237D01*
X134801272Y-99184905D01*
X134764069Y-99160996D01*
X134755555Y-99158496D01*
X134648284Y-99126999D01*
X134648282Y-99126998D01*
X134639772Y-99124500D01*
X134510228Y-99124500D01*
X134501718Y-99126998D01*
X134501715Y-99126999D01*
X134394444Y-99158496D01*
X134394441Y-99158497D01*
X134385931Y-99160996D01*
X134378468Y-99165791D01*
X134378468Y-99165792D01*
X134284412Y-99226237D01*
X134284406Y-99226241D01*
X134276951Y-99231033D01*
X134271146Y-99237732D01*
X134271143Y-99237735D01*
X134197922Y-99322237D01*
X134197917Y-99322243D01*
X134192118Y-99328937D01*
X134188438Y-99336994D01*
X134188434Y-99337001D01*
X134141988Y-99438704D01*
X134138303Y-99446774D01*
X134137041Y-99455547D01*
X134137040Y-99455553D01*
X134125665Y-99534675D01*
X134119867Y-99575000D01*
X123855500Y-99575000D01*
X123855500Y-99049999D01*
X136008430Y-99049999D01*
X136015095Y-99061543D01*
X136138456Y-99184904D01*
X136150000Y-99191569D01*
X136161542Y-99184905D01*
X136284903Y-99061543D01*
X136291568Y-99049999D01*
X137008430Y-99049999D01*
X137015095Y-99061543D01*
X137138456Y-99184904D01*
X137150000Y-99191569D01*
X137161542Y-99184905D01*
X137284903Y-99061543D01*
X137291568Y-99049999D01*
X138008431Y-99049999D01*
X138015096Y-99061543D01*
X138138457Y-99184904D01*
X138150001Y-99191569D01*
X138161543Y-99184905D01*
X138284904Y-99061543D01*
X138291569Y-99049999D01*
X139008432Y-99049999D01*
X139015097Y-99061543D01*
X139138458Y-99184904D01*
X139150002Y-99191569D01*
X139161544Y-99184905D01*
X139284905Y-99061543D01*
X139291570Y-99049999D01*
X140008432Y-99049999D01*
X140015097Y-99061543D01*
X140138458Y-99184904D01*
X140150002Y-99191569D01*
X140161544Y-99184905D01*
X140284905Y-99061543D01*
X140291570Y-99049999D01*
X140284906Y-99038457D01*
X140161544Y-98915095D01*
X140150002Y-98908431D01*
X140138458Y-98915096D01*
X140015096Y-99038457D01*
X140008432Y-99049999D01*
X139291570Y-99049999D01*
X139284906Y-99038457D01*
X139161544Y-98915095D01*
X139150002Y-98908431D01*
X139138458Y-98915096D01*
X139015096Y-99038457D01*
X139008432Y-99049999D01*
X138291569Y-99049999D01*
X138284905Y-99038457D01*
X138161543Y-98915095D01*
X138150001Y-98908431D01*
X138138457Y-98915096D01*
X138015095Y-99038457D01*
X138008431Y-99049999D01*
X137291568Y-99049999D01*
X137284904Y-99038457D01*
X137161542Y-98915095D01*
X137150000Y-98908431D01*
X137138456Y-98915096D01*
X137015094Y-99038457D01*
X137008430Y-99049999D01*
X136291568Y-99049999D01*
X136284904Y-99038457D01*
X136161542Y-98915095D01*
X136150000Y-98908431D01*
X136138456Y-98915096D01*
X136015094Y-99038457D01*
X136008430Y-99049999D01*
X123855500Y-99049999D01*
X123855500Y-98579500D01*
X123872113Y-98517500D01*
X123917500Y-98472113D01*
X123979500Y-98455500D01*
X125621945Y-98455500D01*
X125626000Y-98455500D01*
X125679188Y-98448498D01*
X125741188Y-98431885D01*
X125790750Y-98411355D01*
X125805548Y-98400000D01*
X128844867Y-98400000D01*
X128846129Y-98408777D01*
X128862040Y-98519446D01*
X128862041Y-98519450D01*
X128863303Y-98528226D01*
X128866987Y-98536294D01*
X128866988Y-98536295D01*
X128913434Y-98637998D01*
X128913436Y-98638002D01*
X128917118Y-98646063D01*
X128922920Y-98652759D01*
X128922922Y-98652762D01*
X128962121Y-98698000D01*
X129001951Y-98743967D01*
X129110931Y-98814004D01*
X129235228Y-98850500D01*
X129355901Y-98850500D01*
X129364772Y-98850500D01*
X129489069Y-98814004D01*
X129598049Y-98743967D01*
X129682882Y-98646063D01*
X129723591Y-98556923D01*
X135396034Y-98556923D01*
X135413397Y-98711025D01*
X135416476Y-98724517D01*
X135464535Y-98861863D01*
X135470934Y-98871440D01*
X135480861Y-98865584D01*
X135784904Y-98561542D01*
X135791568Y-98550000D01*
X135791567Y-98549999D01*
X136508431Y-98549999D01*
X136515095Y-98561542D01*
X136638457Y-98684904D01*
X136649999Y-98691568D01*
X136661542Y-98684904D01*
X136784904Y-98561542D01*
X136791568Y-98550000D01*
X137508431Y-98550000D01*
X137515095Y-98561542D01*
X137638457Y-98684904D01*
X137649999Y-98691568D01*
X137661543Y-98684903D01*
X137784905Y-98561542D01*
X137791569Y-98550000D01*
X138508432Y-98550000D01*
X138515096Y-98561542D01*
X138638458Y-98684904D01*
X138650000Y-98691568D01*
X138661544Y-98684903D01*
X138784906Y-98561542D01*
X138791570Y-98550000D01*
X138791569Y-98549999D01*
X139508433Y-98549999D01*
X139515097Y-98561542D01*
X139638459Y-98684904D01*
X139650001Y-98691568D01*
X139661544Y-98684904D01*
X139784906Y-98561542D01*
X139791570Y-98550000D01*
X140508433Y-98550000D01*
X140515097Y-98561542D01*
X140819141Y-98865586D01*
X140829065Y-98871440D01*
X140835466Y-98861859D01*
X140883523Y-98724524D01*
X140886605Y-98711022D01*
X140903968Y-98556923D01*
X140903968Y-98543077D01*
X140886605Y-98388977D01*
X140883523Y-98375475D01*
X140839616Y-98250000D01*
X141219867Y-98250000D01*
X141221129Y-98258777D01*
X141237040Y-98369446D01*
X141237041Y-98369450D01*
X141238303Y-98378226D01*
X141241987Y-98386294D01*
X141241988Y-98386295D01*
X141288434Y-98487998D01*
X141288436Y-98488002D01*
X141292118Y-98496063D01*
X141297920Y-98502759D01*
X141297922Y-98502762D01*
X141328851Y-98538456D01*
X141376951Y-98593967D01*
X141485931Y-98664004D01*
X141610228Y-98700500D01*
X141730901Y-98700500D01*
X141739772Y-98700500D01*
X141864069Y-98664004D01*
X141973049Y-98593967D01*
X142057882Y-98496063D01*
X142111697Y-98378226D01*
X142130133Y-98250000D01*
X142111697Y-98121774D01*
X142057882Y-98003937D01*
X142042336Y-97985996D01*
X141978856Y-97912735D01*
X141973049Y-97906033D01*
X141965589Y-97901238D01*
X141965587Y-97901237D01*
X141908477Y-97864535D01*
X141864069Y-97835996D01*
X141840028Y-97828937D01*
X141748284Y-97801999D01*
X141748282Y-97801998D01*
X141739772Y-97799500D01*
X141610228Y-97799500D01*
X141601718Y-97801998D01*
X141601715Y-97801999D01*
X141494444Y-97833496D01*
X141494441Y-97833497D01*
X141485931Y-97835996D01*
X141478468Y-97840791D01*
X141478468Y-97840792D01*
X141384412Y-97901237D01*
X141384406Y-97901241D01*
X141376951Y-97906033D01*
X141371146Y-97912732D01*
X141371143Y-97912735D01*
X141297922Y-97997237D01*
X141297917Y-97997243D01*
X141292118Y-98003937D01*
X141288438Y-98011994D01*
X141288434Y-98012001D01*
X141242646Y-98112264D01*
X141238303Y-98121774D01*
X141237041Y-98130547D01*
X141237040Y-98130553D01*
X141222950Y-98228557D01*
X141219867Y-98250000D01*
X140839616Y-98250000D01*
X140835466Y-98238139D01*
X140829065Y-98228558D01*
X140819141Y-98234412D01*
X140515098Y-98538456D01*
X140508433Y-98550000D01*
X139791570Y-98550000D01*
X139784906Y-98538457D01*
X139661544Y-98415095D01*
X139650001Y-98408431D01*
X139638459Y-98415095D01*
X139515097Y-98538457D01*
X139508433Y-98549999D01*
X138791569Y-98549999D01*
X138784905Y-98538456D01*
X138661544Y-98415095D01*
X138650000Y-98408430D01*
X138638458Y-98415094D01*
X138515097Y-98538456D01*
X138508432Y-98550000D01*
X137791569Y-98550000D01*
X137784904Y-98538456D01*
X137661543Y-98415095D01*
X137649999Y-98408430D01*
X137638457Y-98415094D01*
X137515096Y-98538456D01*
X137508431Y-98550000D01*
X136791568Y-98550000D01*
X136784904Y-98538457D01*
X136661542Y-98415095D01*
X136649999Y-98408431D01*
X136638457Y-98415095D01*
X136515095Y-98538457D01*
X136508431Y-98549999D01*
X135791567Y-98549999D01*
X135784904Y-98538457D01*
X135480859Y-98234412D01*
X135470934Y-98228557D01*
X135464535Y-98238134D01*
X135416477Y-98375478D01*
X135413396Y-98388976D01*
X135396034Y-98543077D01*
X135396034Y-98556923D01*
X129723591Y-98556923D01*
X129736697Y-98528226D01*
X129755133Y-98400000D01*
X129736697Y-98271774D01*
X129697024Y-98184904D01*
X129686565Y-98162001D01*
X129686564Y-98161999D01*
X129682882Y-98153937D01*
X129673632Y-98143262D01*
X129611427Y-98071472D01*
X129598049Y-98056033D01*
X129590589Y-98051238D01*
X129590587Y-98051237D01*
X129531085Y-98012998D01*
X129489069Y-97985996D01*
X129480555Y-97983496D01*
X129373284Y-97951999D01*
X129373282Y-97951998D01*
X129364772Y-97949500D01*
X129235228Y-97949500D01*
X129226718Y-97951998D01*
X129226715Y-97951999D01*
X129119444Y-97983496D01*
X129119441Y-97983497D01*
X129110931Y-97985996D01*
X129103468Y-97990791D01*
X129103468Y-97990792D01*
X129009412Y-98051237D01*
X129009406Y-98051241D01*
X129001951Y-98056033D01*
X128996146Y-98062732D01*
X128996143Y-98062735D01*
X128922922Y-98147237D01*
X128922917Y-98147243D01*
X128917118Y-98153937D01*
X128913438Y-98161994D01*
X128913434Y-98162001D01*
X128866988Y-98263704D01*
X128863303Y-98271774D01*
X128862041Y-98280547D01*
X128862040Y-98280553D01*
X128854041Y-98336190D01*
X128844867Y-98400000D01*
X125805548Y-98400000D01*
X125833310Y-98378697D01*
X125878697Y-98333310D01*
X125911355Y-98290750D01*
X125931885Y-98241188D01*
X125948498Y-98179188D01*
X125955500Y-98126000D01*
X125955500Y-97870934D01*
X135828557Y-97870934D01*
X135834412Y-97880859D01*
X136138457Y-98184904D01*
X136149999Y-98191568D01*
X136161542Y-98184904D01*
X136465584Y-97880861D01*
X136471440Y-97870934D01*
X136828557Y-97870934D01*
X136834412Y-97880859D01*
X137138457Y-98184904D01*
X137149999Y-98191568D01*
X137161542Y-98184904D01*
X137465584Y-97880861D01*
X137471440Y-97870934D01*
X137828558Y-97870934D01*
X137834413Y-97880859D01*
X138138458Y-98184904D01*
X138150000Y-98191568D01*
X138161543Y-98184904D01*
X138465585Y-97880861D01*
X138471441Y-97870934D01*
X138828559Y-97870934D01*
X138834414Y-97880859D01*
X139138459Y-98184904D01*
X139150001Y-98191568D01*
X139161544Y-98184904D01*
X139465586Y-97880861D01*
X139471442Y-97870934D01*
X139828559Y-97870934D01*
X139834414Y-97880859D01*
X140138459Y-98184904D01*
X140150001Y-98191568D01*
X140161544Y-98184904D01*
X140465586Y-97880861D01*
X140471442Y-97870934D01*
X140461865Y-97864535D01*
X140324519Y-97816476D01*
X140311027Y-97813397D01*
X140156925Y-97796034D01*
X140143079Y-97796034D01*
X139988978Y-97813396D01*
X139975480Y-97816477D01*
X139838136Y-97864535D01*
X139828559Y-97870934D01*
X139471442Y-97870934D01*
X139461865Y-97864535D01*
X139324519Y-97816476D01*
X139311027Y-97813397D01*
X139156925Y-97796034D01*
X139143079Y-97796034D01*
X138988978Y-97813396D01*
X138975480Y-97816477D01*
X138838136Y-97864535D01*
X138828559Y-97870934D01*
X138471441Y-97870934D01*
X138461864Y-97864535D01*
X138324518Y-97816476D01*
X138311026Y-97813397D01*
X138156924Y-97796034D01*
X138143078Y-97796034D01*
X137988977Y-97813396D01*
X137975479Y-97816477D01*
X137838135Y-97864535D01*
X137828558Y-97870934D01*
X137471440Y-97870934D01*
X137461863Y-97864535D01*
X137324517Y-97816476D01*
X137311025Y-97813397D01*
X137156923Y-97796034D01*
X137143077Y-97796034D01*
X136988976Y-97813396D01*
X136975478Y-97816477D01*
X136838134Y-97864535D01*
X136828557Y-97870934D01*
X136471440Y-97870934D01*
X136461863Y-97864535D01*
X136324517Y-97816476D01*
X136311025Y-97813397D01*
X136156923Y-97796034D01*
X136143077Y-97796034D01*
X135988976Y-97813396D01*
X135975478Y-97816477D01*
X135838134Y-97864535D01*
X135828557Y-97870934D01*
X125955500Y-97870934D01*
X125955500Y-97524000D01*
X125948498Y-97470812D01*
X125931885Y-97408812D01*
X125911355Y-97359250D01*
X125878697Y-97316690D01*
X125833310Y-97271303D01*
X125790750Y-97238645D01*
X125783243Y-97235535D01*
X125783239Y-97235533D01*
X125744941Y-97219669D01*
X125744932Y-97219666D01*
X125741188Y-97218115D01*
X125737272Y-97217065D01*
X125737270Y-97217065D01*
X125683101Y-97202550D01*
X125683093Y-97202548D01*
X125679188Y-97201502D01*
X125675173Y-97200973D01*
X125675166Y-97200972D01*
X125630022Y-97195029D01*
X125630014Y-97195028D01*
X125626000Y-97194500D01*
X122701362Y-97194500D01*
X122698344Y-97194797D01*
X122698329Y-97194798D01*
X122664300Y-97198150D01*
X122664287Y-97198151D01*
X122661271Y-97198449D01*
X122658281Y-97199043D01*
X122658279Y-97199044D01*
X122619792Y-97206699D01*
X122619785Y-97206701D01*
X122613818Y-97207888D01*
X122608198Y-97210215D01*
X122608191Y-97210218D01*
X122545365Y-97236241D01*
X122545354Y-97236246D01*
X122539738Y-97238573D01*
X122534682Y-97241950D01*
X122534675Y-97241955D01*
X122502030Y-97263768D01*
X122502014Y-97263779D01*
X122499510Y-97265453D01*
X122497168Y-97267374D01*
X122497160Y-97267381D01*
X122470734Y-97289069D01*
X122470726Y-97289076D01*
X122468371Y-97291009D01*
X122466218Y-97293161D01*
X122466208Y-97293171D01*
X121616117Y-98143262D01*
X121556521Y-98176359D01*
X121488437Y-98172953D01*
X121432442Y-98134074D01*
X121405459Y-98071472D01*
X121415641Y-98004072D01*
X121461697Y-97903226D01*
X121480133Y-97775000D01*
X121461697Y-97646774D01*
X121407882Y-97528937D01*
X121400118Y-97519977D01*
X121330174Y-97439256D01*
X121323049Y-97431033D01*
X121315589Y-97426238D01*
X121315587Y-97426237D01*
X121268559Y-97396014D01*
X121214069Y-97360996D01*
X121186159Y-97352801D01*
X121098284Y-97326999D01*
X121098282Y-97326998D01*
X121089772Y-97324500D01*
X120960228Y-97324500D01*
X120951718Y-97326998D01*
X120951715Y-97326999D01*
X120844444Y-97358496D01*
X120844441Y-97358497D01*
X120835931Y-97360996D01*
X120828468Y-97365791D01*
X120828468Y-97365792D01*
X120734412Y-97426237D01*
X120734406Y-97426241D01*
X120726951Y-97431033D01*
X120721146Y-97437732D01*
X120721143Y-97437735D01*
X120647922Y-97522237D01*
X120647917Y-97522243D01*
X120642118Y-97528937D01*
X120638438Y-97536994D01*
X120638434Y-97537001D01*
X120591988Y-97638704D01*
X120588303Y-97646774D01*
X120587041Y-97655547D01*
X120587040Y-97655553D01*
X120576878Y-97726237D01*
X120569867Y-97775000D01*
X120571129Y-97783777D01*
X120587040Y-97894446D01*
X120587041Y-97894450D01*
X120588303Y-97903226D01*
X120591987Y-97911294D01*
X120591988Y-97911295D01*
X120638434Y-98012998D01*
X120638436Y-98013002D01*
X120642118Y-98021063D01*
X120647920Y-98027759D01*
X120647922Y-98027762D01*
X120685797Y-98071472D01*
X120726951Y-98118967D01*
X120734411Y-98123761D01*
X120734412Y-98123762D01*
X120744153Y-98130022D01*
X120835931Y-98189004D01*
X120960228Y-98225500D01*
X121080901Y-98225500D01*
X121089772Y-98225500D01*
X121214069Y-98189004D01*
X121240905Y-98171757D01*
X121297625Y-98152502D01*
X121356756Y-98162083D01*
X121404496Y-98198265D01*
X121429704Y-98252604D01*
X121426498Y-98312420D01*
X121395626Y-98363753D01*
X120293171Y-99466208D01*
X120293161Y-99466218D01*
X120291009Y-99468371D01*
X120289076Y-99470726D01*
X120289069Y-99470734D01*
X120267381Y-99497160D01*
X120267374Y-99497168D01*
X120265453Y-99499510D01*
X120263779Y-99502014D01*
X120263768Y-99502030D01*
X120241955Y-99534675D01*
X120241950Y-99534682D01*
X120238573Y-99539738D01*
X120236246Y-99545354D01*
X120236241Y-99545365D01*
X120210218Y-99608191D01*
X120210215Y-99608198D01*
X120207888Y-99613818D01*
X120206701Y-99619785D01*
X120206699Y-99619792D01*
X120199044Y-99658279D01*
X120198449Y-99661271D01*
X120198151Y-99664287D01*
X120198150Y-99664300D01*
X120194798Y-99698329D01*
X120194797Y-99698344D01*
X120194500Y-99701362D01*
X120194500Y-99704411D01*
X120194500Y-101771013D01*
X120178101Y-101832640D01*
X120133243Y-101877968D01*
X120071790Y-101895006D01*
X120009995Y-101879250D01*
X119964204Y-101834865D01*
X119954629Y-101818925D01*
X119953117Y-101816339D01*
X119696763Y-101365173D01*
X119695762Y-101363372D01*
X119490032Y-100986181D01*
X119488697Y-100983664D01*
X119251312Y-100522492D01*
X119250345Y-100520571D01*
X119198388Y-100415097D01*
X119060402Y-100134983D01*
X119059184Y-100132435D01*
X118841088Y-99661909D01*
X118840281Y-99660127D01*
X118666439Y-99266737D01*
X118665302Y-99264080D01*
X118654390Y-99237735D01*
X118466917Y-98785136D01*
X118466181Y-98783313D01*
X118308762Y-98382800D01*
X118307822Y-98380324D01*
X118129428Y-97893669D01*
X118128709Y-97891652D01*
X117988073Y-97484898D01*
X117987228Y-97482357D01*
X117829134Y-96988863D01*
X117828511Y-96986853D01*
X117779987Y-96825000D01*
X144832367Y-96825000D01*
X144833629Y-96833777D01*
X144849540Y-96944446D01*
X144849541Y-96944450D01*
X144850803Y-96953226D01*
X144854487Y-96961294D01*
X144854488Y-96961295D01*
X144900934Y-97062998D01*
X144900936Y-97063002D01*
X144904618Y-97071063D01*
X144910420Y-97077759D01*
X144910422Y-97077762D01*
X144974138Y-97151294D01*
X144989451Y-97168967D01*
X145098431Y-97239004D01*
X145222728Y-97275500D01*
X145343401Y-97275500D01*
X145352272Y-97275500D01*
X145476569Y-97239004D01*
X145585549Y-97168967D01*
X145670382Y-97071063D01*
X145724197Y-96953226D01*
X145742633Y-96825000D01*
X145724197Y-96696774D01*
X145670382Y-96578937D01*
X145664292Y-96571909D01*
X145591356Y-96487735D01*
X145585549Y-96481033D01*
X145578089Y-96476238D01*
X145578087Y-96476237D01*
X145518585Y-96437998D01*
X145476569Y-96410996D01*
X145468055Y-96408496D01*
X145360784Y-96376999D01*
X145360782Y-96376998D01*
X145352272Y-96374500D01*
X145222728Y-96374500D01*
X145214218Y-96376998D01*
X145214215Y-96376999D01*
X145106944Y-96408496D01*
X145106941Y-96408497D01*
X145098431Y-96410996D01*
X145090968Y-96415791D01*
X145090968Y-96415792D01*
X144996912Y-96476237D01*
X144996906Y-96476241D01*
X144989451Y-96481033D01*
X144983646Y-96487732D01*
X144983643Y-96487735D01*
X144910422Y-96572237D01*
X144910417Y-96572243D01*
X144904618Y-96578937D01*
X144900938Y-96586994D01*
X144900934Y-96587001D01*
X144854488Y-96688704D01*
X144850803Y-96696774D01*
X144849541Y-96705547D01*
X144849540Y-96705553D01*
X144841340Y-96762590D01*
X144832367Y-96825000D01*
X117779987Y-96825000D01*
X117704902Y-96574548D01*
X117704158Y-96571962D01*
X117566622Y-96072459D01*
X117566018Y-96070179D01*
X117519848Y-95889109D01*
X117471628Y-95700000D01*
X119994435Y-95700000D01*
X119995215Y-95706923D01*
X120013795Y-95871832D01*
X120014632Y-95879255D01*
X120016928Y-95885819D01*
X120016930Y-95885824D01*
X120071405Y-96041503D01*
X120074211Y-96049522D01*
X120077912Y-96055412D01*
X120120694Y-96123500D01*
X120170184Y-96202262D01*
X120297738Y-96329816D01*
X120450478Y-96425789D01*
X120620745Y-96485368D01*
X120800000Y-96505565D01*
X120979255Y-96485368D01*
X121149522Y-96425789D01*
X121302262Y-96329816D01*
X121429816Y-96202262D01*
X121525789Y-96049522D01*
X121585368Y-95879255D01*
X121605565Y-95700000D01*
X121585368Y-95520745D01*
X121525789Y-95350478D01*
X121429816Y-95197738D01*
X121302262Y-95070184D01*
X121149522Y-94974211D01*
X121142959Y-94971914D01*
X121142956Y-94971913D01*
X120985824Y-94916930D01*
X120985819Y-94916928D01*
X120979255Y-94914632D01*
X120972335Y-94913852D01*
X120972334Y-94913852D01*
X120806923Y-94895215D01*
X120800000Y-94894435D01*
X120793077Y-94895215D01*
X120627665Y-94913852D01*
X120627662Y-94913852D01*
X120620745Y-94914632D01*
X120614182Y-94916928D01*
X120614175Y-94916930D01*
X120457043Y-94971913D01*
X120457036Y-94971915D01*
X120450478Y-94974211D01*
X120444590Y-94977910D01*
X120444587Y-94977912D01*
X120303638Y-95066476D01*
X120303633Y-95066479D01*
X120297738Y-95070184D01*
X120292813Y-95075108D01*
X120292809Y-95075112D01*
X120175112Y-95192809D01*
X120175108Y-95192813D01*
X120170184Y-95197738D01*
X120166479Y-95203633D01*
X120166476Y-95203638D01*
X120077912Y-95344587D01*
X120077910Y-95344590D01*
X120074211Y-95350478D01*
X120071915Y-95357036D01*
X120071913Y-95357043D01*
X120016930Y-95514175D01*
X120016928Y-95514182D01*
X120014632Y-95520745D01*
X120013852Y-95527662D01*
X120013852Y-95527665D01*
X119995215Y-95693077D01*
X119994435Y-95700000D01*
X117471628Y-95700000D01*
X117459695Y-95653201D01*
X117459061Y-95650594D01*
X117342292Y-95145872D01*
X117341816Y-95143720D01*
X117252874Y-94722406D01*
X117252356Y-94719813D01*
X117156578Y-94210871D01*
X117156161Y-94208525D01*
X117153266Y-94191292D01*
X117084822Y-93783880D01*
X117084418Y-93781299D01*
X117081426Y-93760766D01*
X117035270Y-93443967D01*
X117009770Y-93268944D01*
X117009449Y-93266580D01*
X116988546Y-93100000D01*
X121394867Y-93100000D01*
X121396129Y-93108777D01*
X121412040Y-93219446D01*
X121412041Y-93219450D01*
X121413303Y-93228226D01*
X121416987Y-93236294D01*
X121416988Y-93236295D01*
X121463434Y-93337998D01*
X121463436Y-93338002D01*
X121467118Y-93346063D01*
X121472920Y-93352759D01*
X121472922Y-93352762D01*
X121488780Y-93371063D01*
X121551951Y-93443967D01*
X121660931Y-93514004D01*
X121785228Y-93550500D01*
X121905901Y-93550500D01*
X121914772Y-93550500D01*
X122039069Y-93514004D01*
X122148049Y-93443967D01*
X122153860Y-93437259D01*
X122156292Y-93435153D01*
X122208261Y-93408358D01*
X122266731Y-93408357D01*
X122318702Y-93435149D01*
X122321143Y-93437264D01*
X122326951Y-93443967D01*
X122435931Y-93514004D01*
X122560228Y-93550500D01*
X122680901Y-93550500D01*
X122689772Y-93550500D01*
X122814069Y-93514004D01*
X122821534Y-93509205D01*
X122821537Y-93509205D01*
X122920461Y-93445631D01*
X122964033Y-93428187D01*
X123010967Y-93428187D01*
X123054539Y-93445631D01*
X123153462Y-93509205D01*
X123153467Y-93509207D01*
X123160931Y-93514004D01*
X123285228Y-93550500D01*
X123405901Y-93550500D01*
X123414772Y-93550500D01*
X123539069Y-93514004D01*
X123648049Y-93443967D01*
X123732882Y-93346063D01*
X123786697Y-93228226D01*
X123801539Y-93125000D01*
X124169867Y-93125000D01*
X124171129Y-93133777D01*
X124187040Y-93244446D01*
X124187041Y-93244450D01*
X124188303Y-93253226D01*
X124191987Y-93261294D01*
X124191988Y-93261295D01*
X124238434Y-93362998D01*
X124238436Y-93363002D01*
X124242118Y-93371063D01*
X124247920Y-93377759D01*
X124247922Y-93377762D01*
X124305289Y-93443967D01*
X124326951Y-93468967D01*
X124435931Y-93539004D01*
X124560228Y-93575500D01*
X124680901Y-93575500D01*
X124689772Y-93575500D01*
X124814069Y-93539004D01*
X124821534Y-93534205D01*
X124821537Y-93534205D01*
X124920461Y-93470631D01*
X124964033Y-93453187D01*
X125010967Y-93453187D01*
X125054539Y-93470631D01*
X125153462Y-93534205D01*
X125153467Y-93534207D01*
X125160931Y-93539004D01*
X125285228Y-93575500D01*
X125405901Y-93575500D01*
X125414772Y-93575500D01*
X125539069Y-93539004D01*
X125632960Y-93478663D01*
X125676533Y-93461220D01*
X125723467Y-93461220D01*
X125767040Y-93478664D01*
X125853466Y-93534207D01*
X125853468Y-93534208D01*
X125860931Y-93539004D01*
X125985228Y-93575500D01*
X126105901Y-93575500D01*
X126114772Y-93575500D01*
X126239069Y-93539004D01*
X126348049Y-93468967D01*
X126432882Y-93371063D01*
X126486697Y-93253226D01*
X126505133Y-93125000D01*
X126486697Y-92996774D01*
X126432882Y-92878937D01*
X126418207Y-92862001D01*
X126363663Y-92799053D01*
X126348049Y-92781033D01*
X126340589Y-92776238D01*
X126340587Y-92776237D01*
X126293559Y-92746014D01*
X126239069Y-92710996D01*
X126216666Y-92704418D01*
X126201619Y-92700000D01*
X128844518Y-92700000D01*
X128844834Y-92704418D01*
X128864105Y-92973871D01*
X128864106Y-92973880D01*
X128864422Y-92978294D01*
X128865362Y-92982619D01*
X128865364Y-92982627D01*
X128920547Y-93236295D01*
X128923729Y-93250923D01*
X128925278Y-93255076D01*
X129019683Y-93508188D01*
X129019685Y-93508194D01*
X129021231Y-93512337D01*
X129154944Y-93757213D01*
X129322145Y-93980568D01*
X129519432Y-94177855D01*
X129742787Y-94345056D01*
X129987663Y-94478769D01*
X130249077Y-94576271D01*
X130521706Y-94635578D01*
X130800000Y-94655482D01*
X131078294Y-94635578D01*
X131239544Y-94600500D01*
X138244867Y-94600500D01*
X138246129Y-94609277D01*
X138262040Y-94719946D01*
X138262041Y-94719950D01*
X138263303Y-94728726D01*
X138266987Y-94736794D01*
X138266988Y-94736795D01*
X138313434Y-94838498D01*
X138313436Y-94838502D01*
X138317118Y-94846563D01*
X138322920Y-94853259D01*
X138322922Y-94853262D01*
X138375423Y-94913852D01*
X138401951Y-94944467D01*
X138510931Y-95014504D01*
X138635228Y-95051000D01*
X138755901Y-95051000D01*
X138764772Y-95051000D01*
X138889069Y-95014504D01*
X138998049Y-94944467D01*
X139082882Y-94846563D01*
X139098721Y-94811880D01*
X141707687Y-94811880D01*
X141708949Y-94820657D01*
X141724860Y-94931326D01*
X141724861Y-94931330D01*
X141726123Y-94940106D01*
X141729807Y-94948174D01*
X141729808Y-94948175D01*
X141776254Y-95049878D01*
X141776256Y-95049882D01*
X141779938Y-95057943D01*
X141785740Y-95064639D01*
X141785742Y-95064642D01*
X141821639Y-95106069D01*
X141864771Y-95155847D01*
X141973751Y-95225884D01*
X142098048Y-95262380D01*
X142218721Y-95262380D01*
X142227592Y-95262380D01*
X142351889Y-95225884D01*
X142460869Y-95155847D01*
X142483973Y-95129182D01*
X142531597Y-95095268D01*
X142589471Y-95086946D01*
X142644725Y-95106069D01*
X142739231Y-95166804D01*
X142747248Y-95169158D01*
X142789177Y-95200545D01*
X142814441Y-95246813D01*
X142818202Y-95299394D01*
X142806766Y-95378937D01*
X142800671Y-95421332D01*
X142801933Y-95430109D01*
X142817844Y-95540778D01*
X142817845Y-95540782D01*
X142819107Y-95549558D01*
X142822791Y-95557626D01*
X142822792Y-95557627D01*
X142869238Y-95659330D01*
X142869240Y-95659334D01*
X142872922Y-95667395D01*
X142878724Y-95674091D01*
X142878726Y-95674094D01*
X142927009Y-95729816D01*
X142957755Y-95765299D01*
X143066735Y-95835336D01*
X143191032Y-95871832D01*
X143311705Y-95871832D01*
X143320576Y-95871832D01*
X143421254Y-95842271D01*
X143491122Y-95842271D01*
X143549900Y-95880046D01*
X143620915Y-95962001D01*
X143626951Y-95968967D01*
X143735931Y-96039004D01*
X143860228Y-96075500D01*
X143980901Y-96075500D01*
X143989772Y-96075500D01*
X144114069Y-96039004D01*
X144223049Y-95968967D01*
X144284640Y-95897886D01*
X145869319Y-95897886D01*
X145870581Y-95906663D01*
X145886492Y-96017332D01*
X145886493Y-96017336D01*
X145887755Y-96026112D01*
X145891439Y-96034180D01*
X145891440Y-96034181D01*
X145937886Y-96135884D01*
X145937888Y-96135888D01*
X145941570Y-96143949D01*
X145947372Y-96150645D01*
X145947374Y-96150648D01*
X145990138Y-96200000D01*
X146026403Y-96241853D01*
X146135383Y-96311890D01*
X146259680Y-96348386D01*
X146380353Y-96348386D01*
X146389224Y-96348386D01*
X146513521Y-96311890D01*
X146622501Y-96241853D01*
X146707334Y-96143949D01*
X146744493Y-96062582D01*
X146779482Y-96017542D01*
X146830931Y-95992927D01*
X146887956Y-95993946D01*
X146934484Y-96018287D01*
X146935507Y-96019467D01*
X147044487Y-96089504D01*
X147168784Y-96126000D01*
X147289457Y-96126000D01*
X147298328Y-96126000D01*
X147422625Y-96089504D01*
X147531605Y-96019467D01*
X147616438Y-95921563D01*
X147670253Y-95803726D01*
X147688689Y-95675500D01*
X147670253Y-95547274D01*
X147631765Y-95462998D01*
X147620121Y-95437501D01*
X147620120Y-95437499D01*
X147616438Y-95429437D01*
X147609415Y-95421332D01*
X147560469Y-95364845D01*
X147531605Y-95331533D01*
X147524145Y-95326738D01*
X147524143Y-95326737D01*
X147453025Y-95281033D01*
X147422625Y-95261496D01*
X147387573Y-95251204D01*
X147306840Y-95227499D01*
X147306838Y-95227498D01*
X147298328Y-95225000D01*
X147168784Y-95225000D01*
X147160274Y-95227498D01*
X147160271Y-95227499D01*
X147053000Y-95258996D01*
X147052997Y-95258997D01*
X147044487Y-95261496D01*
X147037024Y-95266291D01*
X147037024Y-95266292D01*
X146942968Y-95326737D01*
X146942962Y-95326741D01*
X146935507Y-95331533D01*
X146929702Y-95338232D01*
X146929699Y-95338235D01*
X146856478Y-95422737D01*
X146856473Y-95422743D01*
X146850674Y-95429437D01*
X146846992Y-95437498D01*
X146846992Y-95437499D01*
X146813514Y-95510804D01*
X146778525Y-95555844D01*
X146727076Y-95580458D01*
X146670051Y-95579439D01*
X146623523Y-95555098D01*
X146622501Y-95553919D01*
X146615041Y-95549124D01*
X146615039Y-95549123D01*
X146560658Y-95514175D01*
X146513521Y-95483882D01*
X146505007Y-95481382D01*
X146397736Y-95449885D01*
X146397734Y-95449884D01*
X146389224Y-95447386D01*
X146259680Y-95447386D01*
X146251170Y-95449884D01*
X146251167Y-95449885D01*
X146143896Y-95481382D01*
X146143893Y-95481383D01*
X146135383Y-95483882D01*
X146127920Y-95488677D01*
X146127920Y-95488678D01*
X146033864Y-95549123D01*
X146033858Y-95549127D01*
X146026403Y-95553919D01*
X146020598Y-95560618D01*
X146020595Y-95560621D01*
X145947374Y-95645123D01*
X145947369Y-95645129D01*
X145941570Y-95651823D01*
X145937890Y-95659880D01*
X145937886Y-95659887D01*
X145891575Y-95761295D01*
X145887755Y-95769660D01*
X145886493Y-95778433D01*
X145886492Y-95778439D01*
X145873065Y-95871832D01*
X145869319Y-95897886D01*
X144284640Y-95897886D01*
X144307882Y-95871063D01*
X144361697Y-95753226D01*
X144380133Y-95625000D01*
X144361697Y-95496774D01*
X144307882Y-95378937D01*
X144292595Y-95361295D01*
X144228856Y-95287735D01*
X144223049Y-95281033D01*
X144215589Y-95276238D01*
X144215587Y-95276237D01*
X144149517Y-95233777D01*
X144114069Y-95210996D01*
X144090447Y-95204060D01*
X143998284Y-95176999D01*
X143998282Y-95176998D01*
X143989772Y-95174500D01*
X143860228Y-95174500D01*
X143851721Y-95176997D01*
X143851719Y-95176998D01*
X143759549Y-95204061D01*
X143689680Y-95204060D01*
X143630903Y-95166285D01*
X143559664Y-95084071D01*
X143559662Y-95084069D01*
X143553853Y-95077365D01*
X143546393Y-95072570D01*
X143546391Y-95072569D01*
X143452332Y-95012121D01*
X143452328Y-95012119D01*
X143444873Y-95007328D01*
X143436854Y-95004973D01*
X143394927Y-94973588D01*
X143369662Y-94927319D01*
X143365901Y-94874737D01*
X143371112Y-94838498D01*
X143383433Y-94752800D01*
X143364997Y-94624574D01*
X143311182Y-94506737D01*
X143288288Y-94480316D01*
X143249453Y-94435497D01*
X143226349Y-94408833D01*
X143218889Y-94404038D01*
X143218887Y-94404037D01*
X143152510Y-94361380D01*
X143117369Y-94338796D01*
X143108855Y-94336296D01*
X143001584Y-94304799D01*
X143001582Y-94304798D01*
X142993072Y-94302300D01*
X142863528Y-94302300D01*
X142855018Y-94304798D01*
X142855015Y-94304799D01*
X142747744Y-94336296D01*
X142747741Y-94336297D01*
X142739231Y-94338796D01*
X142731768Y-94343591D01*
X142731768Y-94343592D01*
X142637712Y-94404037D01*
X142637706Y-94404041D01*
X142630251Y-94408833D01*
X142624446Y-94415531D01*
X142624437Y-94415540D01*
X142607145Y-94435497D01*
X142559519Y-94469412D01*
X142501646Y-94477733D01*
X142446394Y-94458610D01*
X142359352Y-94402672D01*
X142359351Y-94402671D01*
X142351889Y-94397876D01*
X142343375Y-94395376D01*
X142236104Y-94363879D01*
X142236102Y-94363878D01*
X142227592Y-94361380D01*
X142098048Y-94361380D01*
X142089538Y-94363878D01*
X142089535Y-94363879D01*
X141982264Y-94395376D01*
X141982261Y-94395377D01*
X141973751Y-94397876D01*
X141966288Y-94402671D01*
X141966288Y-94402672D01*
X141872232Y-94463117D01*
X141872226Y-94463121D01*
X141864771Y-94467913D01*
X141858966Y-94474612D01*
X141858963Y-94474615D01*
X141785742Y-94559117D01*
X141785737Y-94559123D01*
X141779938Y-94565817D01*
X141776258Y-94573874D01*
X141776254Y-94573881D01*
X141729808Y-94675584D01*
X141726123Y-94683654D01*
X141724861Y-94692427D01*
X141724860Y-94692433D01*
X141717443Y-94744023D01*
X141707687Y-94811880D01*
X139098721Y-94811880D01*
X139136697Y-94728726D01*
X139155133Y-94600500D01*
X139136697Y-94472274D01*
X139082882Y-94354437D01*
X139074753Y-94345056D01*
X139003856Y-94263235D01*
X138998049Y-94256533D01*
X138990589Y-94251738D01*
X138990587Y-94251737D01*
X138923347Y-94208525D01*
X138889069Y-94186496D01*
X138880555Y-94183996D01*
X138773284Y-94152499D01*
X138773282Y-94152498D01*
X138764772Y-94150000D01*
X138635228Y-94150000D01*
X138626718Y-94152498D01*
X138626715Y-94152499D01*
X138519444Y-94183996D01*
X138519441Y-94183997D01*
X138510931Y-94186496D01*
X138503468Y-94191291D01*
X138503468Y-94191292D01*
X138409412Y-94251737D01*
X138409406Y-94251741D01*
X138401951Y-94256533D01*
X138396146Y-94263232D01*
X138396143Y-94263235D01*
X138322922Y-94347737D01*
X138322917Y-94347743D01*
X138317118Y-94354437D01*
X138313438Y-94362494D01*
X138313434Y-94362501D01*
X138266988Y-94464204D01*
X138263303Y-94472274D01*
X138262041Y-94481047D01*
X138262040Y-94481053D01*
X138248694Y-94573881D01*
X138244867Y-94600500D01*
X131239544Y-94600500D01*
X131350923Y-94576271D01*
X131612337Y-94478769D01*
X131857213Y-94345056D01*
X132080568Y-94177855D01*
X132277855Y-93980568D01*
X132445056Y-93757213D01*
X132578769Y-93512337D01*
X132676271Y-93250923D01*
X132735578Y-92978294D01*
X132755482Y-92700000D01*
X132735578Y-92421706D01*
X132676271Y-92149077D01*
X132578769Y-91887663D01*
X132445056Y-91642787D01*
X132277855Y-91419432D01*
X132080568Y-91222145D01*
X131950797Y-91125000D01*
X137769867Y-91125000D01*
X137771129Y-91133777D01*
X137787040Y-91244446D01*
X137787041Y-91244450D01*
X137788303Y-91253226D01*
X137791987Y-91261294D01*
X137791988Y-91261295D01*
X137838434Y-91362998D01*
X137838436Y-91363002D01*
X137842118Y-91371063D01*
X137847920Y-91377759D01*
X137847922Y-91377762D01*
X137881310Y-91416294D01*
X137926951Y-91468967D01*
X138035931Y-91539004D01*
X138160228Y-91575500D01*
X138280901Y-91575500D01*
X138289772Y-91575500D01*
X138414069Y-91539004D01*
X138523049Y-91468967D01*
X138607882Y-91371063D01*
X138661697Y-91253226D01*
X138680133Y-91125000D01*
X138661697Y-90996774D01*
X138620282Y-90906089D01*
X138611565Y-90887001D01*
X138611564Y-90886999D01*
X138607882Y-90878937D01*
X138581075Y-90848000D01*
X138551618Y-90814004D01*
X138523049Y-90781033D01*
X138515589Y-90776238D01*
X138515587Y-90776237D01*
X138454943Y-90737264D01*
X138414069Y-90710996D01*
X138372403Y-90698762D01*
X138298284Y-90676999D01*
X138298282Y-90676998D01*
X138289772Y-90674500D01*
X138160228Y-90674500D01*
X138151718Y-90676998D01*
X138151715Y-90676999D01*
X138044444Y-90708496D01*
X138044441Y-90708497D01*
X138035931Y-90710996D01*
X138028468Y-90715791D01*
X138028468Y-90715792D01*
X137934412Y-90776237D01*
X137934406Y-90776241D01*
X137926951Y-90781033D01*
X137921146Y-90787732D01*
X137921143Y-90787735D01*
X137847922Y-90872237D01*
X137847917Y-90872243D01*
X137842118Y-90878937D01*
X137838438Y-90886994D01*
X137838434Y-90887001D01*
X137791988Y-90988704D01*
X137788303Y-90996774D01*
X137787041Y-91005547D01*
X137787040Y-91005553D01*
X137780245Y-91052817D01*
X137769867Y-91125000D01*
X131950797Y-91125000D01*
X131857213Y-91054944D01*
X131612337Y-90921231D01*
X131608194Y-90919685D01*
X131608188Y-90919683D01*
X131355076Y-90825278D01*
X131350923Y-90823729D01*
X131346591Y-90822786D01*
X131346589Y-90822786D01*
X131082627Y-90765364D01*
X131082619Y-90765362D01*
X131078294Y-90764422D01*
X131073880Y-90764106D01*
X131073871Y-90764105D01*
X130804418Y-90744834D01*
X130800000Y-90744518D01*
X130795582Y-90744834D01*
X130526128Y-90764105D01*
X130526117Y-90764106D01*
X130521706Y-90764422D01*
X130517382Y-90765362D01*
X130517372Y-90765364D01*
X130253410Y-90822786D01*
X130253404Y-90822787D01*
X130249077Y-90823729D01*
X130244927Y-90825276D01*
X130244923Y-90825278D01*
X129991811Y-90919683D01*
X129991800Y-90919687D01*
X129987663Y-90921231D01*
X129983781Y-90923350D01*
X129983776Y-90923353D01*
X129746681Y-91052817D01*
X129746673Y-91052821D01*
X129742787Y-91054944D01*
X129739237Y-91057601D01*
X129739233Y-91057604D01*
X129522983Y-91219486D01*
X129522976Y-91219491D01*
X129519432Y-91222145D01*
X129516301Y-91225275D01*
X129516294Y-91225282D01*
X129325282Y-91416294D01*
X129325275Y-91416301D01*
X129322145Y-91419432D01*
X129319491Y-91422976D01*
X129319486Y-91422983D01*
X129157604Y-91639233D01*
X129154944Y-91642787D01*
X129152821Y-91646673D01*
X129152817Y-91646681D01*
X129093510Y-91755294D01*
X129021231Y-91887663D01*
X129019687Y-91891800D01*
X129019683Y-91891811D01*
X128941343Y-92101851D01*
X128923729Y-92149077D01*
X128922787Y-92153404D01*
X128922786Y-92153410D01*
X128865364Y-92417372D01*
X128865362Y-92417382D01*
X128864422Y-92421706D01*
X128864106Y-92426117D01*
X128864105Y-92426128D01*
X128848130Y-92649500D01*
X128844518Y-92700000D01*
X126201619Y-92700000D01*
X126123284Y-92676999D01*
X126123282Y-92676998D01*
X126114772Y-92674500D01*
X125985228Y-92674500D01*
X125976718Y-92676998D01*
X125976715Y-92676999D01*
X125869444Y-92708496D01*
X125869441Y-92708497D01*
X125860931Y-92710996D01*
X125853471Y-92715790D01*
X125853467Y-92715792D01*
X125767039Y-92771336D01*
X125700000Y-92791020D01*
X125632961Y-92771336D01*
X125546532Y-92715792D01*
X125546531Y-92715791D01*
X125539069Y-92710996D01*
X125516666Y-92704418D01*
X125423284Y-92676999D01*
X125423282Y-92676998D01*
X125414772Y-92674500D01*
X125285228Y-92674500D01*
X125276718Y-92676998D01*
X125276715Y-92676999D01*
X125169444Y-92708496D01*
X125169441Y-92708497D01*
X125160931Y-92710996D01*
X125153471Y-92715790D01*
X125153467Y-92715792D01*
X125054539Y-92779369D01*
X124987500Y-92799053D01*
X124920461Y-92779369D01*
X124821532Y-92715792D01*
X124821531Y-92715791D01*
X124814069Y-92710996D01*
X124791666Y-92704418D01*
X124698284Y-92676999D01*
X124698282Y-92676998D01*
X124689772Y-92674500D01*
X124560228Y-92674500D01*
X124551718Y-92676998D01*
X124551715Y-92676999D01*
X124444444Y-92708496D01*
X124444441Y-92708497D01*
X124435931Y-92710996D01*
X124428468Y-92715791D01*
X124428468Y-92715792D01*
X124334412Y-92776237D01*
X124334406Y-92776241D01*
X124326951Y-92781033D01*
X124321146Y-92787732D01*
X124321143Y-92787735D01*
X124247922Y-92872237D01*
X124247917Y-92872243D01*
X124242118Y-92878937D01*
X124238438Y-92886994D01*
X124238434Y-92887001D01*
X124191988Y-92988704D01*
X124188303Y-92996774D01*
X124187041Y-93005547D01*
X124187040Y-93005553D01*
X124181023Y-93047406D01*
X124169867Y-93125000D01*
X123801539Y-93125000D01*
X123805133Y-93100000D01*
X123786697Y-92971774D01*
X123744299Y-92878937D01*
X123736565Y-92862001D01*
X123736564Y-92861999D01*
X123732882Y-92853937D01*
X123717868Y-92836610D01*
X123668269Y-92779369D01*
X123648049Y-92756033D01*
X123640589Y-92751238D01*
X123640587Y-92751237D01*
X123593558Y-92721014D01*
X123539069Y-92685996D01*
X123530555Y-92683496D01*
X123423284Y-92651999D01*
X123423282Y-92651998D01*
X123414772Y-92649500D01*
X123285228Y-92649500D01*
X123276718Y-92651998D01*
X123276715Y-92651999D01*
X123169444Y-92683496D01*
X123169441Y-92683497D01*
X123160931Y-92685996D01*
X123153471Y-92690790D01*
X123153467Y-92690792D01*
X123054539Y-92754369D01*
X122987500Y-92774053D01*
X122920461Y-92754369D01*
X122821532Y-92690792D01*
X122821531Y-92690791D01*
X122814069Y-92685996D01*
X122805555Y-92683496D01*
X122698284Y-92651999D01*
X122698282Y-92651998D01*
X122689772Y-92649500D01*
X122560228Y-92649500D01*
X122551718Y-92651998D01*
X122551715Y-92651999D01*
X122444444Y-92683496D01*
X122444441Y-92683497D01*
X122435931Y-92685996D01*
X122428468Y-92690791D01*
X122428468Y-92690792D01*
X122334408Y-92751240D01*
X122334404Y-92751242D01*
X122326951Y-92756033D01*
X122321146Y-92762731D01*
X122318702Y-92764850D01*
X122266734Y-92791642D01*
X122208266Y-92791642D01*
X122156298Y-92764850D01*
X122153853Y-92762731D01*
X122148049Y-92756033D01*
X122039069Y-92685996D01*
X122030555Y-92683496D01*
X121923284Y-92651999D01*
X121923282Y-92651998D01*
X121914772Y-92649500D01*
X121785228Y-92649500D01*
X121776718Y-92651998D01*
X121776715Y-92651999D01*
X121669444Y-92683496D01*
X121669441Y-92683497D01*
X121660931Y-92685996D01*
X121653468Y-92690791D01*
X121653468Y-92690792D01*
X121559412Y-92751237D01*
X121559409Y-92751240D01*
X121551951Y-92756033D01*
X121546146Y-92762732D01*
X121546143Y-92762735D01*
X121472922Y-92847237D01*
X121472917Y-92847243D01*
X121467118Y-92853937D01*
X121463438Y-92861994D01*
X121463434Y-92862001D01*
X121416988Y-92963704D01*
X121413303Y-92971774D01*
X121412041Y-92980547D01*
X121412040Y-92980553D01*
X121402688Y-93045600D01*
X121394867Y-93100000D01*
X116988546Y-93100000D01*
X116955825Y-92839244D01*
X116955524Y-92836610D01*
X116902115Y-92321632D01*
X116901904Y-92319391D01*
X116866087Y-91890005D01*
X116865911Y-91887579D01*
X116833819Y-91370683D01*
X116833702Y-91368425D01*
X116815779Y-90937932D01*
X116815703Y-90935480D01*
X116805004Y-90417887D01*
X116804978Y-90415325D01*
X116804978Y-90400000D01*
X120169867Y-90400000D01*
X120171129Y-90408777D01*
X120187040Y-90519446D01*
X120187041Y-90519450D01*
X120188303Y-90528226D01*
X120191987Y-90536294D01*
X120191988Y-90536295D01*
X120238434Y-90637998D01*
X120238436Y-90638002D01*
X120242118Y-90646063D01*
X120247920Y-90652759D01*
X120247922Y-90652762D01*
X120270503Y-90678822D01*
X120326951Y-90743967D01*
X120435931Y-90814004D01*
X120560228Y-90850500D01*
X120680901Y-90850500D01*
X120689772Y-90850500D01*
X120814069Y-90814004D01*
X120923049Y-90743967D01*
X121007882Y-90646063D01*
X121061697Y-90528226D01*
X121080133Y-90400000D01*
X121072944Y-90350000D01*
X126794867Y-90350000D01*
X126796129Y-90358777D01*
X126812040Y-90469446D01*
X126812041Y-90469450D01*
X126813303Y-90478226D01*
X126816987Y-90486294D01*
X126816988Y-90486295D01*
X126863434Y-90587998D01*
X126863436Y-90588002D01*
X126867118Y-90596063D01*
X126872920Y-90602759D01*
X126872922Y-90602762D01*
X126916247Y-90652762D01*
X126951951Y-90693967D01*
X127060931Y-90764004D01*
X127185228Y-90800500D01*
X127305901Y-90800500D01*
X127314772Y-90800500D01*
X127439069Y-90764004D01*
X127548049Y-90693967D01*
X127632882Y-90596063D01*
X127686697Y-90478226D01*
X127705133Y-90350000D01*
X127686697Y-90221774D01*
X127632882Y-90103937D01*
X127627073Y-90097233D01*
X127613181Y-90081200D01*
X127586391Y-90029230D01*
X127586392Y-89970762D01*
X127613183Y-89918796D01*
X127632882Y-89896063D01*
X127686697Y-89778226D01*
X127705133Y-89650000D01*
X127686697Y-89521774D01*
X127674249Y-89494518D01*
X128550000Y-89494518D01*
X128550353Y-89501114D01*
X128555573Y-89549667D01*
X128559111Y-89564641D01*
X128603547Y-89683777D01*
X128611962Y-89699189D01*
X128687498Y-89800092D01*
X128699907Y-89812501D01*
X128800810Y-89888037D01*
X128816222Y-89896452D01*
X128935358Y-89940888D01*
X128950332Y-89944426D01*
X128998885Y-89949646D01*
X129005482Y-89950000D01*
X130533674Y-89950000D01*
X130546549Y-89946549D01*
X130550000Y-89933674D01*
X131050000Y-89933674D01*
X131053450Y-89946549D01*
X131066326Y-89950000D01*
X132594518Y-89950000D01*
X132601114Y-89949646D01*
X132649667Y-89944426D01*
X132664641Y-89940888D01*
X132783777Y-89896452D01*
X132799189Y-89888037D01*
X132900092Y-89812501D01*
X132912501Y-89800092D01*
X132988037Y-89699189D01*
X132996452Y-89683777D01*
X133040888Y-89564641D01*
X133044426Y-89549667D01*
X133049646Y-89501114D01*
X133049679Y-89500500D01*
X141269867Y-89500500D01*
X141271129Y-89509277D01*
X141287040Y-89619946D01*
X141287041Y-89619950D01*
X141288303Y-89628726D01*
X141291987Y-89636794D01*
X141291988Y-89636795D01*
X141338434Y-89738498D01*
X141338436Y-89738502D01*
X141342118Y-89746563D01*
X141347920Y-89753259D01*
X141347922Y-89753262D01*
X141376545Y-89786295D01*
X141426951Y-89844467D01*
X141535931Y-89914504D01*
X141660228Y-89951000D01*
X141780901Y-89951000D01*
X141789772Y-89951000D01*
X141914069Y-89914504D01*
X142023049Y-89844467D01*
X142107882Y-89746563D01*
X142161697Y-89628726D01*
X142180133Y-89500500D01*
X142161697Y-89372274D01*
X142107882Y-89254437D01*
X142101423Y-89246983D01*
X142028856Y-89163235D01*
X142023049Y-89156533D01*
X142015589Y-89151738D01*
X142015587Y-89151737D01*
X141965340Y-89119446D01*
X141914069Y-89086496D01*
X141905555Y-89083996D01*
X141798284Y-89052499D01*
X141798282Y-89052498D01*
X141789772Y-89050000D01*
X141660228Y-89050000D01*
X141651718Y-89052498D01*
X141651715Y-89052499D01*
X141544444Y-89083996D01*
X141544441Y-89083997D01*
X141535931Y-89086496D01*
X141528468Y-89091291D01*
X141528468Y-89091292D01*
X141434412Y-89151737D01*
X141434406Y-89151741D01*
X141426951Y-89156533D01*
X141421146Y-89163232D01*
X141421143Y-89163235D01*
X141347922Y-89247737D01*
X141347917Y-89247743D01*
X141342118Y-89254437D01*
X141338438Y-89262494D01*
X141338434Y-89262501D01*
X141291988Y-89364204D01*
X141288303Y-89372274D01*
X141287041Y-89381047D01*
X141287040Y-89381053D01*
X141275392Y-89462073D01*
X141269867Y-89500500D01*
X133049679Y-89500500D01*
X133050000Y-89494518D01*
X133050000Y-87966326D01*
X133046549Y-87953450D01*
X133033674Y-87950000D01*
X131066326Y-87950000D01*
X131053450Y-87953450D01*
X131050000Y-87966326D01*
X131050000Y-89933674D01*
X130550000Y-89933674D01*
X130550000Y-87966326D01*
X130546549Y-87953450D01*
X130533674Y-87950000D01*
X128566326Y-87950000D01*
X128553450Y-87953450D01*
X128550000Y-87966326D01*
X128550000Y-89494518D01*
X127674249Y-89494518D01*
X127632882Y-89403937D01*
X127627072Y-89397232D01*
X127623734Y-89392037D01*
X127606291Y-89348464D01*
X127606292Y-89301530D01*
X127623737Y-89257958D01*
X127627072Y-89252767D01*
X127632882Y-89246063D01*
X127686697Y-89128226D01*
X127705133Y-89000000D01*
X127686697Y-88871774D01*
X127632882Y-88753937D01*
X127604193Y-88720828D01*
X127553856Y-88662735D01*
X127548049Y-88656033D01*
X127540589Y-88651238D01*
X127540587Y-88651237D01*
X127470247Y-88606033D01*
X127439069Y-88585996D01*
X127425429Y-88581991D01*
X127323284Y-88551999D01*
X127323282Y-88551998D01*
X127314772Y-88549500D01*
X127185228Y-88549500D01*
X127176718Y-88551998D01*
X127176715Y-88551999D01*
X127069444Y-88583496D01*
X127069441Y-88583497D01*
X127060931Y-88585996D01*
X127053468Y-88590791D01*
X127053468Y-88590792D01*
X126959412Y-88651237D01*
X126959406Y-88651241D01*
X126951951Y-88656033D01*
X126946146Y-88662732D01*
X126946143Y-88662735D01*
X126872922Y-88747237D01*
X126872917Y-88747243D01*
X126867118Y-88753937D01*
X126863438Y-88761994D01*
X126863434Y-88762001D01*
X126816988Y-88863704D01*
X126813303Y-88871774D01*
X126812041Y-88880547D01*
X126812040Y-88880553D01*
X126803243Y-88941741D01*
X126794867Y-89000000D01*
X126796129Y-89008777D01*
X126812040Y-89119446D01*
X126812041Y-89119450D01*
X126813303Y-89128226D01*
X126867118Y-89246063D01*
X126872923Y-89252762D01*
X126876265Y-89257963D01*
X126895948Y-89325000D01*
X126876265Y-89392037D01*
X126872922Y-89397237D01*
X126867118Y-89403937D01*
X126863435Y-89412001D01*
X126863434Y-89412003D01*
X126823019Y-89500500D01*
X126813303Y-89521774D01*
X126812041Y-89530547D01*
X126812040Y-89530553D01*
X126799188Y-89619946D01*
X126794867Y-89650000D01*
X126796129Y-89658777D01*
X126812040Y-89769446D01*
X126812041Y-89769450D01*
X126813303Y-89778226D01*
X126816987Y-89786294D01*
X126816988Y-89786295D01*
X126863434Y-89887998D01*
X126863436Y-89888002D01*
X126867118Y-89896063D01*
X126872921Y-89902761D01*
X126872925Y-89902766D01*
X126886818Y-89918800D01*
X126913608Y-89970767D01*
X126913608Y-90029233D01*
X126886818Y-90081200D01*
X126872925Y-90097233D01*
X126872919Y-90097241D01*
X126867118Y-90103937D01*
X126863438Y-90111994D01*
X126863434Y-90112001D01*
X126821030Y-90204854D01*
X126813303Y-90221774D01*
X126812041Y-90230547D01*
X126812040Y-90230553D01*
X126809346Y-90249294D01*
X126794867Y-90350000D01*
X121072944Y-90350000D01*
X121061697Y-90271774D01*
X121007882Y-90153937D01*
X121002076Y-90147237D01*
X121002074Y-90147233D01*
X120977352Y-90118702D01*
X120950560Y-90066734D01*
X120950560Y-90008266D01*
X120977352Y-89956298D01*
X121002074Y-89927766D01*
X121002077Y-89927762D01*
X121007882Y-89921063D01*
X121061697Y-89803226D01*
X121080133Y-89675000D01*
X121061697Y-89546774D01*
X121007882Y-89428937D01*
X121002076Y-89422237D01*
X121002074Y-89422233D01*
X120977352Y-89393702D01*
X120950560Y-89341734D01*
X120950560Y-89283266D01*
X120977352Y-89231298D01*
X121002074Y-89202766D01*
X121002077Y-89202762D01*
X121007882Y-89196063D01*
X121061697Y-89078226D01*
X121080133Y-88950000D01*
X121061697Y-88821774D01*
X121007882Y-88703937D01*
X120978109Y-88669577D01*
X120928856Y-88612735D01*
X120923049Y-88606033D01*
X120915589Y-88601238D01*
X120915587Y-88601237D01*
X120836628Y-88550494D01*
X120814069Y-88535996D01*
X120805555Y-88533496D01*
X120698284Y-88501999D01*
X120698282Y-88501998D01*
X120689772Y-88499500D01*
X120560228Y-88499500D01*
X120551718Y-88501998D01*
X120551715Y-88501999D01*
X120444444Y-88533496D01*
X120444441Y-88533497D01*
X120435931Y-88535996D01*
X120428468Y-88540791D01*
X120428468Y-88540792D01*
X120334412Y-88601237D01*
X120334406Y-88601241D01*
X120326951Y-88606033D01*
X120321146Y-88612732D01*
X120321143Y-88612735D01*
X120247922Y-88697237D01*
X120247917Y-88697243D01*
X120242118Y-88703937D01*
X120238438Y-88711994D01*
X120238434Y-88712001D01*
X120191988Y-88813704D01*
X120188303Y-88821774D01*
X120187041Y-88830547D01*
X120187040Y-88830553D01*
X120182274Y-88863704D01*
X120169867Y-88950000D01*
X120171129Y-88958777D01*
X120187040Y-89069446D01*
X120187041Y-89069450D01*
X120188303Y-89078226D01*
X120191987Y-89086294D01*
X120191988Y-89086295D01*
X120238434Y-89187998D01*
X120238436Y-89188002D01*
X120242118Y-89196063D01*
X120247920Y-89202759D01*
X120247922Y-89202762D01*
X120272648Y-89231297D01*
X120299438Y-89283264D01*
X120299439Y-89341731D01*
X120272650Y-89393698D01*
X120247925Y-89422233D01*
X120247919Y-89422241D01*
X120242118Y-89428937D01*
X120238438Y-89436994D01*
X120238434Y-89437001D01*
X120191988Y-89538704D01*
X120188303Y-89546774D01*
X120187041Y-89555547D01*
X120187040Y-89555553D01*
X120176520Y-89628726D01*
X120169867Y-89675000D01*
X120171129Y-89683777D01*
X120187040Y-89794446D01*
X120187041Y-89794450D01*
X120188303Y-89803226D01*
X120191987Y-89811294D01*
X120191988Y-89811295D01*
X120238434Y-89912998D01*
X120238436Y-89913002D01*
X120242118Y-89921063D01*
X120247920Y-89927759D01*
X120247922Y-89927762D01*
X120272649Y-89956299D01*
X120299439Y-90008267D01*
X120299439Y-90066733D01*
X120272649Y-90118701D01*
X120247922Y-90147237D01*
X120247917Y-90147243D01*
X120242118Y-90153937D01*
X120238438Y-90161994D01*
X120238434Y-90162001D01*
X120198569Y-90249294D01*
X120188303Y-90271774D01*
X120187041Y-90280547D01*
X120187040Y-90280553D01*
X120177056Y-90350000D01*
X120169867Y-90400000D01*
X116804978Y-90400000D01*
X116804978Y-89984675D01*
X116805004Y-89982113D01*
X116806350Y-89917003D01*
X116815703Y-89464513D01*
X116815779Y-89462073D01*
X116833703Y-89031564D01*
X116833819Y-89029323D01*
X116865912Y-88512406D01*
X116866086Y-88510008D01*
X116901906Y-88080590D01*
X116902113Y-88078384D01*
X116955527Y-87563354D01*
X116955827Y-87560741D01*
X116957901Y-87544214D01*
X116971772Y-87433674D01*
X128550000Y-87433674D01*
X128553450Y-87446549D01*
X128566326Y-87450000D01*
X130533674Y-87450000D01*
X130546549Y-87446549D01*
X130550000Y-87433674D01*
X131050000Y-87433674D01*
X131053450Y-87446549D01*
X131066326Y-87450000D01*
X133033674Y-87450000D01*
X133046549Y-87446549D01*
X133050000Y-87433674D01*
X133050000Y-85905482D01*
X133049646Y-85898885D01*
X133044426Y-85850332D01*
X133040888Y-85835358D01*
X132996452Y-85716222D01*
X132988037Y-85700810D01*
X132912501Y-85599907D01*
X132900092Y-85587498D01*
X132799189Y-85511962D01*
X132783777Y-85503547D01*
X132664641Y-85459111D01*
X132649667Y-85455573D01*
X132601114Y-85450353D01*
X132594518Y-85450000D01*
X131066326Y-85450000D01*
X131053450Y-85453450D01*
X131050000Y-85466326D01*
X131050000Y-87433674D01*
X130550000Y-87433674D01*
X130550000Y-85466326D01*
X130546549Y-85453450D01*
X130533674Y-85450000D01*
X129005482Y-85450000D01*
X128998885Y-85450353D01*
X128950332Y-85455573D01*
X128935358Y-85459111D01*
X128816222Y-85503547D01*
X128800810Y-85511962D01*
X128699907Y-85587498D01*
X128687498Y-85599907D01*
X128611962Y-85700810D01*
X128603547Y-85716222D01*
X128559111Y-85835358D01*
X128555573Y-85850332D01*
X128550353Y-85898885D01*
X128550000Y-85905482D01*
X128550000Y-87433674D01*
X116971772Y-87433674D01*
X117009452Y-87133392D01*
X117009770Y-87131054D01*
X117037790Y-86938734D01*
X117084424Y-86618660D01*
X117084817Y-86616147D01*
X117156175Y-86191392D01*
X117156571Y-86189164D01*
X117252363Y-85680151D01*
X117252867Y-85677628D01*
X117341826Y-85256235D01*
X117342283Y-85254169D01*
X117459070Y-84749364D01*
X117459685Y-84746839D01*
X117471628Y-84700000D01*
X119994435Y-84700000D01*
X119995215Y-84706923D01*
X120007561Y-84816503D01*
X120014632Y-84879255D01*
X120016928Y-84885819D01*
X120016930Y-84885824D01*
X120071913Y-85042956D01*
X120074211Y-85049522D01*
X120170184Y-85202262D01*
X120297738Y-85329816D01*
X120450478Y-85425789D01*
X120620745Y-85485368D01*
X120800000Y-85505565D01*
X120979255Y-85485368D01*
X121149522Y-85425789D01*
X121302262Y-85329816D01*
X121429816Y-85202262D01*
X121525789Y-85049522D01*
X121585368Y-84879255D01*
X121605565Y-84700000D01*
X121585368Y-84520745D01*
X121525789Y-84350478D01*
X121429816Y-84197738D01*
X121302262Y-84070184D01*
X121270139Y-84050000D01*
X121155412Y-83977912D01*
X121149522Y-83974211D01*
X121142959Y-83971914D01*
X121142956Y-83971913D01*
X120985824Y-83916930D01*
X120985819Y-83916928D01*
X120979255Y-83914632D01*
X120972335Y-83913852D01*
X120972334Y-83913852D01*
X120806923Y-83895215D01*
X120800000Y-83894435D01*
X120793077Y-83895215D01*
X120627665Y-83913852D01*
X120627662Y-83913852D01*
X120620745Y-83914632D01*
X120614182Y-83916928D01*
X120614175Y-83916930D01*
X120457043Y-83971913D01*
X120457036Y-83971915D01*
X120450478Y-83974211D01*
X120444590Y-83977910D01*
X120444587Y-83977912D01*
X120303638Y-84066476D01*
X120303633Y-84066479D01*
X120297738Y-84070184D01*
X120292813Y-84075108D01*
X120292809Y-84075112D01*
X120175112Y-84192809D01*
X120175108Y-84192813D01*
X120170184Y-84197738D01*
X120166479Y-84203633D01*
X120166476Y-84203638D01*
X120077912Y-84344587D01*
X120077910Y-84344590D01*
X120074211Y-84350478D01*
X120071915Y-84357036D01*
X120071913Y-84357043D01*
X120016930Y-84514175D01*
X120016928Y-84514182D01*
X120014632Y-84520745D01*
X120013852Y-84527662D01*
X120013852Y-84527665D01*
X120004173Y-84613573D01*
X119994435Y-84700000D01*
X117471628Y-84700000D01*
X117566028Y-84329779D01*
X117566622Y-84327539D01*
X117571658Y-84309250D01*
X117704172Y-83827986D01*
X117704887Y-83825498D01*
X117828529Y-83413086D01*
X117829114Y-83411201D01*
X117968853Y-82975000D01*
X128569867Y-82975000D01*
X128572624Y-82994178D01*
X128587040Y-83094446D01*
X128587041Y-83094450D01*
X128588303Y-83103226D01*
X128591987Y-83111294D01*
X128591988Y-83111295D01*
X128638434Y-83212998D01*
X128638436Y-83213002D01*
X128642118Y-83221063D01*
X128647920Y-83227759D01*
X128647922Y-83227762D01*
X128711638Y-83301294D01*
X128726951Y-83318967D01*
X128835931Y-83389004D01*
X128960228Y-83425500D01*
X129080901Y-83425500D01*
X129089772Y-83425500D01*
X129214069Y-83389004D01*
X129323049Y-83318967D01*
X129407882Y-83221063D01*
X129461697Y-83103226D01*
X129465755Y-83075000D01*
X130069867Y-83075000D01*
X130071129Y-83083777D01*
X130087040Y-83194446D01*
X130087041Y-83194450D01*
X130088303Y-83203226D01*
X130091987Y-83211294D01*
X130091988Y-83211295D01*
X130138434Y-83312998D01*
X130138436Y-83313002D01*
X130142118Y-83321063D01*
X130147920Y-83327759D01*
X130147922Y-83327762D01*
X130196832Y-83384207D01*
X130226951Y-83418967D01*
X130234411Y-83423761D01*
X130234412Y-83423762D01*
X130239896Y-83427286D01*
X130335931Y-83489004D01*
X130460228Y-83525500D01*
X130580901Y-83525500D01*
X130589772Y-83525500D01*
X130714069Y-83489004D01*
X130782961Y-83444729D01*
X130826531Y-83427286D01*
X130873466Y-83427286D01*
X130917039Y-83444730D01*
X130978466Y-83484207D01*
X130978468Y-83484208D01*
X130985931Y-83489004D01*
X131110228Y-83525500D01*
X131230901Y-83525500D01*
X131239772Y-83525500D01*
X131364069Y-83489004D01*
X131432961Y-83444729D01*
X131476531Y-83427286D01*
X131523466Y-83427286D01*
X131567039Y-83444730D01*
X131628466Y-83484207D01*
X131628468Y-83484208D01*
X131635931Y-83489004D01*
X131760228Y-83525500D01*
X131880901Y-83525500D01*
X131889772Y-83525500D01*
X132014069Y-83489004D01*
X132123049Y-83418967D01*
X132207882Y-83321063D01*
X132251753Y-83225000D01*
X154694867Y-83225000D01*
X154696129Y-83233777D01*
X154712040Y-83344446D01*
X154712041Y-83344450D01*
X154713303Y-83353226D01*
X154716987Y-83361294D01*
X154716988Y-83361295D01*
X154763434Y-83462998D01*
X154763436Y-83463002D01*
X154767118Y-83471063D01*
X154772920Y-83477759D01*
X154772922Y-83477762D01*
X154784829Y-83491503D01*
X154851951Y-83568967D01*
X154960931Y-83639004D01*
X155085228Y-83675500D01*
X155205901Y-83675500D01*
X155214772Y-83675500D01*
X155339069Y-83639004D01*
X155448049Y-83568967D01*
X155532882Y-83471063D01*
X155586697Y-83353226D01*
X155605133Y-83225000D01*
X155586697Y-83096774D01*
X155532882Y-82978937D01*
X155521865Y-82966223D01*
X155453856Y-82887735D01*
X155448049Y-82881033D01*
X155440589Y-82876238D01*
X155440587Y-82876237D01*
X155393558Y-82846014D01*
X155339069Y-82810996D01*
X155330555Y-82808496D01*
X155223284Y-82776999D01*
X155223282Y-82776998D01*
X155214772Y-82774500D01*
X155085228Y-82774500D01*
X155076718Y-82776998D01*
X155076715Y-82776999D01*
X154969444Y-82808496D01*
X154969441Y-82808497D01*
X154960931Y-82810996D01*
X154953468Y-82815791D01*
X154953468Y-82815792D01*
X154859412Y-82876237D01*
X154859406Y-82876241D01*
X154851951Y-82881033D01*
X154846146Y-82887732D01*
X154846143Y-82887735D01*
X154772922Y-82972237D01*
X154772917Y-82972243D01*
X154767118Y-82978937D01*
X154763438Y-82986994D01*
X154763434Y-82987001D01*
X154716988Y-83088704D01*
X154713303Y-83096774D01*
X154712041Y-83105547D01*
X154712040Y-83105553D01*
X154699260Y-83194446D01*
X154694867Y-83225000D01*
X132251753Y-83225000D01*
X132261697Y-83203226D01*
X132280133Y-83075000D01*
X132261697Y-82946774D01*
X132216028Y-82846774D01*
X132211565Y-82837001D01*
X132211564Y-82836999D01*
X132207882Y-82828937D01*
X132192336Y-82810996D01*
X132128856Y-82737735D01*
X132123049Y-82731033D01*
X132115589Y-82726238D01*
X132115587Y-82726237D01*
X132068559Y-82696014D01*
X132014069Y-82660996D01*
X132005555Y-82658496D01*
X131898284Y-82626999D01*
X131898282Y-82626998D01*
X131889772Y-82624500D01*
X131760228Y-82624500D01*
X131751718Y-82626998D01*
X131751715Y-82626999D01*
X131644444Y-82658496D01*
X131644441Y-82658497D01*
X131635931Y-82660996D01*
X131628468Y-82665791D01*
X131628468Y-82665792D01*
X131567039Y-82705270D01*
X131500000Y-82724954D01*
X131432961Y-82705270D01*
X131424342Y-82699731D01*
X131364069Y-82660996D01*
X131355555Y-82658496D01*
X131248284Y-82626999D01*
X131248282Y-82626998D01*
X131239772Y-82624500D01*
X131110228Y-82624500D01*
X131101718Y-82626998D01*
X131101715Y-82626999D01*
X130994444Y-82658496D01*
X130994441Y-82658497D01*
X130985931Y-82660996D01*
X130978468Y-82665791D01*
X130978468Y-82665792D01*
X130917039Y-82705270D01*
X130850000Y-82724954D01*
X130782961Y-82705270D01*
X130774342Y-82699731D01*
X130714069Y-82660996D01*
X130705555Y-82658496D01*
X130598284Y-82626999D01*
X130598282Y-82626998D01*
X130589772Y-82624500D01*
X130460228Y-82624500D01*
X130451718Y-82626998D01*
X130451715Y-82626999D01*
X130344444Y-82658496D01*
X130344441Y-82658497D01*
X130335931Y-82660996D01*
X130328468Y-82665791D01*
X130328468Y-82665792D01*
X130234412Y-82726237D01*
X130234406Y-82726241D01*
X130226951Y-82731033D01*
X130221146Y-82737732D01*
X130221143Y-82737735D01*
X130147922Y-82822237D01*
X130147917Y-82822243D01*
X130142118Y-82828937D01*
X130138438Y-82836994D01*
X130138434Y-82837001D01*
X130091988Y-82938704D01*
X130088303Y-82946774D01*
X130087041Y-82955547D01*
X130087040Y-82955553D01*
X130082519Y-82987001D01*
X130069867Y-83075000D01*
X129465755Y-83075000D01*
X129480133Y-82975000D01*
X129461697Y-82846774D01*
X129407882Y-82728937D01*
X129399014Y-82718703D01*
X129372222Y-82666735D01*
X129372222Y-82608265D01*
X129399015Y-82556296D01*
X129407882Y-82546063D01*
X129461697Y-82428226D01*
X129480133Y-82300000D01*
X129461697Y-82171774D01*
X129417501Y-82075000D01*
X153594867Y-82075000D01*
X153596129Y-82083777D01*
X153612040Y-82194446D01*
X153612041Y-82194450D01*
X153613303Y-82203226D01*
X153616987Y-82211294D01*
X153616988Y-82211295D01*
X153663434Y-82312998D01*
X153663436Y-82313002D01*
X153667118Y-82321063D01*
X153672920Y-82327759D01*
X153672922Y-82327762D01*
X153736638Y-82401294D01*
X153751951Y-82418967D01*
X153860931Y-82489004D01*
X153985228Y-82525500D01*
X154105901Y-82525500D01*
X154114772Y-82525500D01*
X154239069Y-82489004D01*
X154348049Y-82418967D01*
X154432882Y-82321063D01*
X154486697Y-82203226D01*
X154505133Y-82075000D01*
X154486697Y-81946774D01*
X154432882Y-81828937D01*
X154348049Y-81731033D01*
X154340589Y-81726238D01*
X154340587Y-81726237D01*
X154293558Y-81696014D01*
X154239069Y-81660996D01*
X154230555Y-81658496D01*
X154123284Y-81626999D01*
X154123282Y-81626998D01*
X154114772Y-81624500D01*
X153985228Y-81624500D01*
X153976718Y-81626998D01*
X153976715Y-81626999D01*
X153869444Y-81658496D01*
X153869441Y-81658497D01*
X153860931Y-81660996D01*
X153853468Y-81665791D01*
X153853468Y-81665792D01*
X153759412Y-81726237D01*
X153759406Y-81726241D01*
X153751951Y-81731033D01*
X153746146Y-81737732D01*
X153746143Y-81737735D01*
X153672922Y-81822237D01*
X153672917Y-81822243D01*
X153667118Y-81828937D01*
X153663438Y-81836994D01*
X153663434Y-81837001D01*
X153616988Y-81938704D01*
X153613303Y-81946774D01*
X153612041Y-81955547D01*
X153612040Y-81955553D01*
X153599367Y-82043699D01*
X153594867Y-82075000D01*
X129417501Y-82075000D01*
X129407882Y-82053937D01*
X129399014Y-82043703D01*
X129372222Y-81991735D01*
X129372222Y-81933265D01*
X129399015Y-81881296D01*
X129407882Y-81871063D01*
X129461697Y-81753226D01*
X129480133Y-81625000D01*
X129461697Y-81496774D01*
X129407882Y-81378937D01*
X129323049Y-81281033D01*
X129315589Y-81276238D01*
X129315587Y-81276237D01*
X129225585Y-81218397D01*
X129214069Y-81210996D01*
X129205555Y-81208496D01*
X129098284Y-81176999D01*
X129098282Y-81176998D01*
X129089772Y-81174500D01*
X128960228Y-81174500D01*
X128951718Y-81176998D01*
X128951715Y-81176999D01*
X128844444Y-81208496D01*
X128844441Y-81208497D01*
X128835931Y-81210996D01*
X128828468Y-81215791D01*
X128828468Y-81215792D01*
X128734412Y-81276237D01*
X128734406Y-81276241D01*
X128726951Y-81281033D01*
X128721146Y-81287732D01*
X128721143Y-81287735D01*
X128647922Y-81372237D01*
X128647917Y-81372243D01*
X128642118Y-81378937D01*
X128638438Y-81386994D01*
X128638434Y-81387001D01*
X128592646Y-81487264D01*
X128588303Y-81496774D01*
X128587041Y-81505547D01*
X128587040Y-81505553D01*
X128572369Y-81607593D01*
X128569867Y-81625000D01*
X128571129Y-81633777D01*
X128587040Y-81744446D01*
X128587041Y-81744450D01*
X128588303Y-81753226D01*
X128591987Y-81761294D01*
X128591988Y-81761295D01*
X128638434Y-81862998D01*
X128638436Y-81863002D01*
X128642118Y-81871063D01*
X128647921Y-81877761D01*
X128647925Y-81877766D01*
X128650988Y-81881301D01*
X128677777Y-81933267D01*
X128677777Y-81991733D01*
X128650988Y-82043699D01*
X128647925Y-82047233D01*
X128647919Y-82047241D01*
X128642118Y-82053937D01*
X128638438Y-82061994D01*
X128638434Y-82062001D01*
X128591988Y-82163704D01*
X128588303Y-82171774D01*
X128587041Y-82180547D01*
X128587040Y-82180553D01*
X128572369Y-82282593D01*
X128569867Y-82300000D01*
X128571129Y-82308777D01*
X128587040Y-82419446D01*
X128587041Y-82419450D01*
X128588303Y-82428226D01*
X128591987Y-82436294D01*
X128591988Y-82436295D01*
X128638434Y-82537998D01*
X128638436Y-82538002D01*
X128642118Y-82546063D01*
X128647921Y-82552761D01*
X128647925Y-82552766D01*
X128650988Y-82556301D01*
X128677777Y-82608267D01*
X128677777Y-82666733D01*
X128650988Y-82718699D01*
X128647925Y-82722233D01*
X128647919Y-82722241D01*
X128642118Y-82728937D01*
X128638438Y-82736994D01*
X128638434Y-82737001D01*
X128592766Y-82837001D01*
X128588303Y-82846774D01*
X128587041Y-82855547D01*
X128587040Y-82855553D01*
X128573925Y-82946774D01*
X128569867Y-82975000D01*
X117968853Y-82975000D01*
X117987245Y-82917588D01*
X117988056Y-82915152D01*
X118128732Y-82508280D01*
X118129401Y-82506403D01*
X118307844Y-82019614D01*
X118308740Y-82017255D01*
X118466211Y-81616611D01*
X118466885Y-81614940D01*
X118659469Y-81150000D01*
X138369867Y-81150000D01*
X138371129Y-81158777D01*
X138387040Y-81269446D01*
X138387041Y-81269450D01*
X138388303Y-81278226D01*
X138391987Y-81286294D01*
X138391988Y-81286295D01*
X138438434Y-81387998D01*
X138438436Y-81388002D01*
X138442118Y-81396063D01*
X138447920Y-81402759D01*
X138447922Y-81402762D01*
X138511638Y-81476294D01*
X138526951Y-81493967D01*
X138635931Y-81564004D01*
X138760228Y-81600500D01*
X138880901Y-81600500D01*
X138889772Y-81600500D01*
X139014069Y-81564004D01*
X139123049Y-81493967D01*
X139207882Y-81396063D01*
X139261697Y-81278226D01*
X139280133Y-81150000D01*
X139261697Y-81021774D01*
X139207882Y-80903937D01*
X139201059Y-80896063D01*
X139151618Y-80839004D01*
X139123049Y-80806033D01*
X139115589Y-80801238D01*
X139115587Y-80801237D01*
X139054943Y-80762264D01*
X139014069Y-80735996D01*
X139005555Y-80733496D01*
X138898284Y-80701999D01*
X138898282Y-80701998D01*
X138889772Y-80699500D01*
X138760228Y-80699500D01*
X138751718Y-80701998D01*
X138751715Y-80701999D01*
X138644444Y-80733496D01*
X138644441Y-80733497D01*
X138635931Y-80735996D01*
X138628468Y-80740791D01*
X138628468Y-80740792D01*
X138534412Y-80801237D01*
X138534406Y-80801241D01*
X138526951Y-80806033D01*
X138521146Y-80812732D01*
X138521143Y-80812735D01*
X138447922Y-80897237D01*
X138447917Y-80897243D01*
X138442118Y-80903937D01*
X138438438Y-80911994D01*
X138438434Y-80912001D01*
X138404063Y-80987264D01*
X138388303Y-81021774D01*
X138387041Y-81030547D01*
X138387040Y-81030553D01*
X138377343Y-81098000D01*
X138369867Y-81150000D01*
X118659469Y-81150000D01*
X118665333Y-81135844D01*
X118666412Y-81133324D01*
X118840319Y-80739788D01*
X118841050Y-80738172D01*
X118986210Y-80425000D01*
X137344867Y-80425000D01*
X137346129Y-80433777D01*
X137362040Y-80544446D01*
X137362041Y-80544450D01*
X137363303Y-80553226D01*
X137366987Y-80561294D01*
X137366988Y-80561295D01*
X137413434Y-80662998D01*
X137413436Y-80663002D01*
X137417118Y-80671063D01*
X137422920Y-80677759D01*
X137422922Y-80677762D01*
X137471216Y-80733496D01*
X137501951Y-80768967D01*
X137610931Y-80839004D01*
X137735228Y-80875500D01*
X137855901Y-80875500D01*
X137864772Y-80875500D01*
X137989069Y-80839004D01*
X138098049Y-80768967D01*
X138182882Y-80671063D01*
X138192501Y-80650000D01*
X143244867Y-80650000D01*
X143246129Y-80658777D01*
X143262040Y-80769446D01*
X143262041Y-80769450D01*
X143263303Y-80778226D01*
X143266987Y-80786294D01*
X143266988Y-80786295D01*
X143313434Y-80887998D01*
X143313436Y-80888002D01*
X143317118Y-80896063D01*
X143322920Y-80902759D01*
X143322922Y-80902762D01*
X143371505Y-80958830D01*
X143401951Y-80993967D01*
X143510931Y-81064004D01*
X143635228Y-81100500D01*
X143755901Y-81100500D01*
X143764772Y-81100500D01*
X143889069Y-81064004D01*
X143998049Y-80993967D01*
X144082882Y-80896063D01*
X144136697Y-80778226D01*
X144155133Y-80650000D01*
X144136697Y-80521774D01*
X144082882Y-80403937D01*
X143998049Y-80306033D01*
X143990589Y-80301238D01*
X143990587Y-80301237D01*
X143934326Y-80265081D01*
X143889069Y-80235996D01*
X143880555Y-80233496D01*
X143773284Y-80201999D01*
X143773282Y-80201998D01*
X143764772Y-80199500D01*
X143635228Y-80199500D01*
X143626718Y-80201998D01*
X143626715Y-80201999D01*
X143519444Y-80233496D01*
X143519441Y-80233497D01*
X143510931Y-80235996D01*
X143503468Y-80240791D01*
X143503468Y-80240792D01*
X143409412Y-80301237D01*
X143409406Y-80301241D01*
X143401951Y-80306033D01*
X143396146Y-80312732D01*
X143396143Y-80312735D01*
X143322922Y-80397237D01*
X143322917Y-80397243D01*
X143317118Y-80403937D01*
X143313438Y-80411994D01*
X143313434Y-80412001D01*
X143266988Y-80513704D01*
X143263303Y-80521774D01*
X143262041Y-80530547D01*
X143262040Y-80530553D01*
X143247369Y-80632593D01*
X143244867Y-80650000D01*
X138192501Y-80650000D01*
X138236697Y-80553226D01*
X138255133Y-80425000D01*
X138236697Y-80296774D01*
X138182882Y-80178937D01*
X138098049Y-80081033D01*
X138090589Y-80076238D01*
X138090587Y-80076237D01*
X138043559Y-80046014D01*
X137989069Y-80010996D01*
X137980555Y-80008496D01*
X137873284Y-79976999D01*
X137873282Y-79976998D01*
X137864772Y-79974500D01*
X137735228Y-79974500D01*
X137726718Y-79976998D01*
X137726715Y-79976999D01*
X137619444Y-80008496D01*
X137619441Y-80008497D01*
X137610931Y-80010996D01*
X137603468Y-80015791D01*
X137603468Y-80015792D01*
X137509412Y-80076237D01*
X137509406Y-80076241D01*
X137501951Y-80081033D01*
X137496146Y-80087732D01*
X137496143Y-80087735D01*
X137422922Y-80172237D01*
X137422917Y-80172243D01*
X137417118Y-80178937D01*
X137413438Y-80186994D01*
X137413434Y-80187001D01*
X137376612Y-80267631D01*
X137363303Y-80296774D01*
X137362041Y-80305547D01*
X137362040Y-80305553D01*
X137348859Y-80397237D01*
X137344867Y-80425000D01*
X118986210Y-80425000D01*
X119059216Y-80267496D01*
X119060370Y-80265081D01*
X119250407Y-79879303D01*
X119251263Y-79877603D01*
X119488734Y-79416263D01*
X119489994Y-79413887D01*
X119695841Y-79036483D01*
X119696708Y-79034924D01*
X119887012Y-78700000D01*
X129944867Y-78700000D01*
X129946129Y-78708777D01*
X129962040Y-78819446D01*
X129962041Y-78819450D01*
X129963303Y-78828226D01*
X129966987Y-78836294D01*
X129966988Y-78836295D01*
X130013434Y-78937998D01*
X130013436Y-78938002D01*
X130017118Y-78946063D01*
X130022920Y-78952759D01*
X130022922Y-78952762D01*
X130042221Y-78975034D01*
X130101951Y-79043967D01*
X130210931Y-79114004D01*
X130335228Y-79150500D01*
X130455901Y-79150500D01*
X130464772Y-79150500D01*
X130589069Y-79114004D01*
X130698049Y-79043967D01*
X130782882Y-78946063D01*
X130792501Y-78925000D01*
X137569867Y-78925000D01*
X137571129Y-78933777D01*
X137587040Y-79044446D01*
X137587041Y-79044450D01*
X137588303Y-79053226D01*
X137591987Y-79061294D01*
X137591988Y-79061295D01*
X137638434Y-79162998D01*
X137638436Y-79163002D01*
X137642118Y-79171063D01*
X137647920Y-79177759D01*
X137647922Y-79177762D01*
X137677818Y-79212264D01*
X137726951Y-79268967D01*
X137835931Y-79339004D01*
X137960228Y-79375500D01*
X138080901Y-79375500D01*
X138089772Y-79375500D01*
X138214069Y-79339004D01*
X138323049Y-79268967D01*
X138407882Y-79171063D01*
X138461697Y-79053226D01*
X138480133Y-78925000D01*
X138461697Y-78796774D01*
X138407882Y-78678937D01*
X138401059Y-78671063D01*
X138345084Y-78606463D01*
X138323049Y-78581033D01*
X138315589Y-78576238D01*
X138315587Y-78576237D01*
X138245247Y-78531033D01*
X138214069Y-78510996D01*
X138205555Y-78508496D01*
X138098284Y-78476999D01*
X138098282Y-78476998D01*
X138089772Y-78474500D01*
X137960228Y-78474500D01*
X137951718Y-78476998D01*
X137951715Y-78476999D01*
X137844444Y-78508496D01*
X137844441Y-78508497D01*
X137835931Y-78510996D01*
X137828468Y-78515791D01*
X137828468Y-78515792D01*
X137734412Y-78576237D01*
X137734406Y-78576241D01*
X137726951Y-78581033D01*
X137721146Y-78587732D01*
X137721143Y-78587735D01*
X137647922Y-78672237D01*
X137647917Y-78672243D01*
X137642118Y-78678937D01*
X137638438Y-78686994D01*
X137638434Y-78687001D01*
X137604063Y-78762264D01*
X137588303Y-78796774D01*
X137587041Y-78805547D01*
X137587040Y-78805553D01*
X137578129Y-78867535D01*
X137569867Y-78925000D01*
X130792501Y-78925000D01*
X130836697Y-78828226D01*
X130855133Y-78700000D01*
X130853871Y-78691223D01*
X130853871Y-78683524D01*
X130871229Y-78620251D01*
X130918444Y-78574692D01*
X130982297Y-78559603D01*
X131044910Y-78579208D01*
X131060931Y-78589504D01*
X131185228Y-78626000D01*
X131305901Y-78626000D01*
X131314772Y-78626000D01*
X131439069Y-78589504D01*
X131548049Y-78519467D01*
X131632882Y-78421563D01*
X131686697Y-78303726D01*
X131705133Y-78175500D01*
X131686697Y-78047274D01*
X131632882Y-77929437D01*
X131548049Y-77831533D01*
X131540589Y-77826738D01*
X131540587Y-77826737D01*
X131493558Y-77796514D01*
X131439069Y-77761496D01*
X131365314Y-77739840D01*
X131323284Y-77727499D01*
X131323282Y-77727498D01*
X131314772Y-77725000D01*
X131185228Y-77725000D01*
X131176718Y-77727498D01*
X131176715Y-77727499D01*
X131069444Y-77758996D01*
X131069441Y-77758997D01*
X131060931Y-77761496D01*
X131053468Y-77766291D01*
X131053468Y-77766292D01*
X130959412Y-77826737D01*
X130959406Y-77826741D01*
X130951951Y-77831533D01*
X130946146Y-77838232D01*
X130946143Y-77838235D01*
X130872922Y-77922737D01*
X130872917Y-77922743D01*
X130867118Y-77929437D01*
X130863438Y-77937494D01*
X130863434Y-77937501D01*
X130817562Y-78037948D01*
X130813303Y-78047274D01*
X130812041Y-78056047D01*
X130812040Y-78056053D01*
X130801263Y-78131013D01*
X130794867Y-78175500D01*
X130796129Y-78184277D01*
X130796129Y-78191976D01*
X130778771Y-78255249D01*
X130731556Y-78300808D01*
X130667703Y-78315897D01*
X130605090Y-78296292D01*
X130604380Y-78295836D01*
X130589069Y-78285996D01*
X130545799Y-78273291D01*
X130473284Y-78251999D01*
X130473282Y-78251998D01*
X130464772Y-78249500D01*
X130335228Y-78249500D01*
X130326718Y-78251998D01*
X130326715Y-78251999D01*
X130219444Y-78283496D01*
X130219441Y-78283497D01*
X130210931Y-78285996D01*
X130203468Y-78290791D01*
X130203468Y-78290792D01*
X130109412Y-78351237D01*
X130109406Y-78351241D01*
X130101951Y-78356033D01*
X130096146Y-78362732D01*
X130096143Y-78362735D01*
X130022922Y-78447237D01*
X130022917Y-78447243D01*
X130017118Y-78453937D01*
X130013438Y-78461994D01*
X130013434Y-78462001D01*
X129966988Y-78563704D01*
X129963303Y-78571774D01*
X129962041Y-78580547D01*
X129962040Y-78580553D01*
X129950187Y-78662998D01*
X129944867Y-78700000D01*
X119887012Y-78700000D01*
X119953163Y-78583579D01*
X119954585Y-78581146D01*
X120175801Y-78212885D01*
X120176698Y-78211420D01*
X120451728Y-77770828D01*
X120453239Y-77768474D01*
X120580702Y-77575000D01*
X139944867Y-77575000D01*
X139946129Y-77583777D01*
X139962040Y-77694446D01*
X139962041Y-77694450D01*
X139963303Y-77703226D01*
X139966987Y-77711294D01*
X139966988Y-77711295D01*
X140013434Y-77812998D01*
X140013436Y-77813002D01*
X140017118Y-77821063D01*
X140022920Y-77827759D01*
X140022922Y-77827762D01*
X140063956Y-77875118D01*
X140101951Y-77918967D01*
X140210931Y-77989004D01*
X140335228Y-78025500D01*
X140455901Y-78025500D01*
X140464772Y-78025500D01*
X140589069Y-77989004D01*
X140596533Y-77984206D01*
X140604599Y-77980524D01*
X140605015Y-77981436D01*
X140644465Y-77966722D01*
X140697047Y-77970482D01*
X140743316Y-77995746D01*
X140774908Y-78037948D01*
X140802006Y-78097285D01*
X140802008Y-78097289D01*
X140805690Y-78105350D01*
X140811492Y-78112046D01*
X140811494Y-78112049D01*
X140874080Y-78184277D01*
X140890523Y-78203254D01*
X140999503Y-78273291D01*
X141051996Y-78288704D01*
X141057064Y-78290192D01*
X141103332Y-78315456D01*
X141134923Y-78357657D01*
X141146129Y-78409169D01*
X141146129Y-78416223D01*
X141144867Y-78425000D01*
X141146129Y-78433777D01*
X141162040Y-78544446D01*
X141162041Y-78544450D01*
X141163303Y-78553226D01*
X141166987Y-78561294D01*
X141166988Y-78561295D01*
X141213434Y-78662998D01*
X141213436Y-78663002D01*
X141217118Y-78671063D01*
X141222920Y-78677759D01*
X141222922Y-78677762D01*
X141249797Y-78708777D01*
X141301951Y-78768967D01*
X141410931Y-78839004D01*
X141535228Y-78875500D01*
X141655901Y-78875500D01*
X141664772Y-78875500D01*
X141666475Y-78875000D01*
X146594867Y-78875000D01*
X146596129Y-78883777D01*
X146612040Y-78994446D01*
X146612041Y-78994450D01*
X146613303Y-79003226D01*
X146616987Y-79011294D01*
X146616988Y-79011295D01*
X146663434Y-79112998D01*
X146663436Y-79113002D01*
X146667118Y-79121063D01*
X146672920Y-79127759D01*
X146672922Y-79127762D01*
X146714796Y-79176087D01*
X146751951Y-79218967D01*
X146860931Y-79289004D01*
X146985228Y-79325500D01*
X147105901Y-79325500D01*
X147114772Y-79325500D01*
X147239069Y-79289004D01*
X147348049Y-79218967D01*
X147432882Y-79121063D01*
X147486697Y-79003226D01*
X147505133Y-78875000D01*
X147486697Y-78746774D01*
X147432882Y-78628937D01*
X147413408Y-78606463D01*
X147353856Y-78537735D01*
X147348049Y-78531033D01*
X147340589Y-78526238D01*
X147340587Y-78526237D01*
X147263970Y-78476999D01*
X147239069Y-78460996D01*
X147215028Y-78453937D01*
X147123284Y-78426999D01*
X147123282Y-78426998D01*
X147114772Y-78424500D01*
X146985228Y-78424500D01*
X146976718Y-78426998D01*
X146976715Y-78426999D01*
X146869444Y-78458496D01*
X146869441Y-78458497D01*
X146860931Y-78460996D01*
X146853468Y-78465791D01*
X146853468Y-78465792D01*
X146759412Y-78526237D01*
X146759406Y-78526241D01*
X146751951Y-78531033D01*
X146746146Y-78537732D01*
X146746143Y-78537735D01*
X146672922Y-78622237D01*
X146672917Y-78622243D01*
X146667118Y-78628937D01*
X146663438Y-78636994D01*
X146663434Y-78637001D01*
X146616988Y-78738704D01*
X146613303Y-78746774D01*
X146612041Y-78755547D01*
X146612040Y-78755553D01*
X146607407Y-78787781D01*
X146594867Y-78875000D01*
X141666475Y-78875000D01*
X141789069Y-78839004D01*
X141898049Y-78768967D01*
X141982882Y-78671063D01*
X142036697Y-78553226D01*
X142055133Y-78425000D01*
X142050413Y-78392168D01*
X148242666Y-78392168D01*
X148242825Y-78404676D01*
X148264532Y-78594241D01*
X148267206Y-78606463D01*
X148326627Y-78787781D01*
X148331705Y-78799214D01*
X148426409Y-78964856D01*
X148433686Y-78975034D01*
X148559795Y-79118222D01*
X148568972Y-79126726D01*
X148721323Y-79241599D01*
X148732023Y-79248081D01*
X148904375Y-79329933D01*
X148916166Y-79334131D01*
X149101464Y-79379611D01*
X149113867Y-79381350D01*
X149190951Y-79384281D01*
X149204088Y-79381203D01*
X149207663Y-79368192D01*
X149207663Y-79261651D01*
X149707663Y-79261651D01*
X149710710Y-79272765D01*
X149721714Y-79269332D01*
X149867175Y-79176087D01*
X149876970Y-79168305D01*
X150013591Y-79035102D01*
X150021616Y-79025510D01*
X150128624Y-78867535D01*
X150134556Y-78856521D01*
X150430648Y-78141693D01*
X150432330Y-78130349D01*
X150421206Y-78127563D01*
X149723989Y-78127563D01*
X149711113Y-78131013D01*
X149707663Y-78143889D01*
X149707663Y-79261651D01*
X149207663Y-79261651D01*
X149207663Y-78143889D01*
X149204212Y-78131013D01*
X149191337Y-78127563D01*
X148293869Y-78127563D01*
X148282442Y-78130037D01*
X148276787Y-78140276D01*
X148261928Y-78189824D01*
X148259565Y-78202112D01*
X148242666Y-78392168D01*
X142050413Y-78392168D01*
X142036697Y-78296774D01*
X141982882Y-78178937D01*
X141950610Y-78141693D01*
X141903856Y-78087735D01*
X141898049Y-78081033D01*
X141890589Y-78076238D01*
X141890587Y-78076237D01*
X141888662Y-78075000D01*
X152494867Y-78075000D01*
X152496129Y-78083777D01*
X152512040Y-78194446D01*
X152512041Y-78194450D01*
X152513303Y-78203226D01*
X152516987Y-78211294D01*
X152516988Y-78211295D01*
X152563434Y-78312998D01*
X152563436Y-78313002D01*
X152567118Y-78321063D01*
X152572920Y-78327759D01*
X152572922Y-78327762D01*
X152597419Y-78356033D01*
X152651951Y-78418967D01*
X152659411Y-78423761D01*
X152659412Y-78423762D01*
X152664295Y-78426900D01*
X152760931Y-78489004D01*
X152885228Y-78525500D01*
X153005901Y-78525500D01*
X153014772Y-78525500D01*
X153139069Y-78489004D01*
X153248049Y-78418967D01*
X153332882Y-78321063D01*
X153386697Y-78203226D01*
X153405133Y-78075000D01*
X153386697Y-77946774D01*
X153342734Y-77850510D01*
X153336565Y-77837001D01*
X153336564Y-77836999D01*
X153332882Y-77828937D01*
X153326059Y-77821063D01*
X153253856Y-77737735D01*
X153248049Y-77731033D01*
X153240589Y-77726238D01*
X153240587Y-77726237D01*
X153191118Y-77694446D01*
X153139069Y-77660996D01*
X153130555Y-77658496D01*
X153023284Y-77626999D01*
X153023282Y-77626998D01*
X153014772Y-77624500D01*
X152885228Y-77624500D01*
X152876718Y-77626998D01*
X152876715Y-77626999D01*
X152769444Y-77658496D01*
X152769441Y-77658497D01*
X152760931Y-77660996D01*
X152753468Y-77665791D01*
X152753468Y-77665792D01*
X152659412Y-77726237D01*
X152659406Y-77726241D01*
X152651951Y-77731033D01*
X152646146Y-77737732D01*
X152646143Y-77737735D01*
X152572922Y-77822237D01*
X152572917Y-77822243D01*
X152567118Y-77828937D01*
X152563438Y-77836994D01*
X152563434Y-77837001D01*
X152516988Y-77938704D01*
X152513303Y-77946774D01*
X152512041Y-77955547D01*
X152512040Y-77955553D01*
X152502343Y-78023000D01*
X152494867Y-78075000D01*
X141888662Y-78075000D01*
X141843559Y-78046014D01*
X141789069Y-78010996D01*
X141780558Y-78008497D01*
X141780556Y-78008496D01*
X141731508Y-77994095D01*
X141685240Y-77968831D01*
X141653649Y-77926630D01*
X141642443Y-77875118D01*
X141642443Y-77868064D01*
X141643705Y-77859287D01*
X141625269Y-77731061D01*
X141590427Y-77654769D01*
X141575137Y-77621288D01*
X141575136Y-77621286D01*
X141571454Y-77613224D01*
X141557283Y-77596870D01*
X141492428Y-77522022D01*
X141486621Y-77515320D01*
X141479161Y-77510525D01*
X141479159Y-77510524D01*
X141432131Y-77480301D01*
X141377641Y-77445283D01*
X141369127Y-77442783D01*
X141261856Y-77411286D01*
X141261854Y-77411285D01*
X141253344Y-77408787D01*
X141123800Y-77408787D01*
X141115290Y-77411285D01*
X141115287Y-77411286D01*
X141008016Y-77442783D01*
X141008013Y-77442784D01*
X140999503Y-77445283D01*
X140992041Y-77450078D01*
X140983973Y-77453763D01*
X140983239Y-77452157D01*
X140926443Y-77468826D01*
X140859412Y-77449138D01*
X140813663Y-77396337D01*
X140786566Y-77337003D01*
X140786564Y-77337001D01*
X140782882Y-77328937D01*
X140698049Y-77231033D01*
X140690589Y-77226238D01*
X140690587Y-77226237D01*
X140643559Y-77196014D01*
X140589069Y-77160996D01*
X140547059Y-77148661D01*
X140473284Y-77126999D01*
X140473282Y-77126998D01*
X140464772Y-77124500D01*
X140335228Y-77124500D01*
X140326718Y-77126998D01*
X140326715Y-77126999D01*
X140219444Y-77158496D01*
X140219441Y-77158497D01*
X140210931Y-77160996D01*
X140203468Y-77165791D01*
X140203468Y-77165792D01*
X140109412Y-77226237D01*
X140109406Y-77226241D01*
X140101951Y-77231033D01*
X140096146Y-77237732D01*
X140096143Y-77237735D01*
X140022922Y-77322237D01*
X140022917Y-77322243D01*
X140017118Y-77328937D01*
X140013438Y-77336994D01*
X140013434Y-77337001D01*
X139966988Y-77438704D01*
X139963303Y-77446774D01*
X139962041Y-77455547D01*
X139962040Y-77455553D01*
X139952484Y-77522022D01*
X139944867Y-77575000D01*
X120580702Y-77575000D01*
X120689476Y-77409894D01*
X120690470Y-77408413D01*
X120983535Y-76979473D01*
X120985137Y-76977189D01*
X121083458Y-76840670D01*
X147908534Y-76840670D01*
X147910061Y-76850311D01*
X147928091Y-76964154D01*
X147928092Y-76964159D01*
X147929619Y-76973796D01*
X147990810Y-77093890D01*
X148086118Y-77189198D01*
X148206212Y-77250389D01*
X148305850Y-77266170D01*
X148367948Y-77266170D01*
X148372826Y-77266170D01*
X148427779Y-77257466D01*
X148492370Y-77264468D01*
X148544555Y-77303171D01*
X148570007Y-77362949D01*
X148561737Y-77427391D01*
X148484677Y-77613430D01*
X148482994Y-77624776D01*
X148494119Y-77627563D01*
X149191337Y-77627563D01*
X149204212Y-77624112D01*
X149207663Y-77611237D01*
X149707663Y-77611237D01*
X149711113Y-77624112D01*
X149723989Y-77627563D01*
X150621456Y-77627563D01*
X150632883Y-77625088D01*
X150638537Y-77614851D01*
X150653398Y-77565297D01*
X150655760Y-77553015D01*
X150672659Y-77362957D01*
X150672500Y-77350449D01*
X150650793Y-77160883D01*
X150648119Y-77148661D01*
X150588698Y-76967344D01*
X150583620Y-76955911D01*
X150488917Y-76790268D01*
X150481640Y-76780091D01*
X150355530Y-76636902D01*
X150346354Y-76628398D01*
X150193999Y-76513523D01*
X150183308Y-76507045D01*
X150010946Y-76425190D01*
X149999161Y-76420995D01*
X149813861Y-76375514D01*
X149801458Y-76373775D01*
X149724374Y-76370844D01*
X149711237Y-76373922D01*
X149707663Y-76386934D01*
X149707663Y-77611237D01*
X149207663Y-77611237D01*
X149207663Y-76493475D01*
X149204615Y-76482360D01*
X149193611Y-76485793D01*
X149048154Y-76579036D01*
X149038349Y-76586826D01*
X148924566Y-76697762D01*
X148875198Y-76727267D01*
X148817829Y-76731325D01*
X148764800Y-76709064D01*
X148727518Y-76665271D01*
X148715165Y-76641028D01*
X148687866Y-76587450D01*
X148592558Y-76492142D01*
X148580097Y-76485793D01*
X148511265Y-76450721D01*
X148472464Y-76430951D01*
X148462827Y-76429424D01*
X148462822Y-76429423D01*
X148377646Y-76415933D01*
X148377640Y-76415932D01*
X148372826Y-76415170D01*
X148305850Y-76415170D01*
X148301036Y-76415932D01*
X148301029Y-76415933D01*
X148215853Y-76429423D01*
X148215846Y-76429425D01*
X148206212Y-76430951D01*
X148197516Y-76435381D01*
X148197515Y-76435382D01*
X148094813Y-76487711D01*
X148094809Y-76487713D01*
X148086118Y-76492142D01*
X148079219Y-76499040D01*
X148079216Y-76499043D01*
X147997711Y-76580548D01*
X147997708Y-76580551D01*
X147990810Y-76587450D01*
X147986381Y-76596141D01*
X147986379Y-76596145D01*
X147945350Y-76676670D01*
X147929619Y-76707544D01*
X147928092Y-76717178D01*
X147928091Y-76717185D01*
X147913368Y-76810150D01*
X147908534Y-76840670D01*
X121083458Y-76840670D01*
X121236018Y-76628841D01*
X121236990Y-76627515D01*
X121547720Y-76210799D01*
X121549457Y-76208530D01*
X121814432Y-75871149D01*
X121815409Y-75869926D01*
X122143205Y-75466270D01*
X122145156Y-75463929D01*
X122423693Y-75138147D01*
X122424769Y-75136908D01*
X122769126Y-74746961D01*
X122771140Y-74744739D01*
X122938648Y-74564566D01*
X122979932Y-74535322D01*
X123029462Y-74525000D01*
X124787126Y-74525000D01*
X124849827Y-74542021D01*
X124895315Y-74588411D01*
X124911102Y-74651434D01*
X124892854Y-74713789D01*
X124845580Y-74758358D01*
X124723231Y-74823755D01*
X124723226Y-74823758D01*
X124717861Y-74826626D01*
X124713157Y-74830485D01*
X124713153Y-74830489D01*
X124562607Y-74954038D01*
X124562601Y-74954043D01*
X124557901Y-74957901D01*
X124554043Y-74962601D01*
X124554038Y-74962607D01*
X124430489Y-75113153D01*
X124430485Y-75113157D01*
X124426626Y-75117861D01*
X124423758Y-75123226D01*
X124423755Y-75123231D01*
X124331951Y-75294982D01*
X124331947Y-75294990D01*
X124329079Y-75300357D01*
X124327310Y-75306186D01*
X124327310Y-75306188D01*
X124270779Y-75492546D01*
X124270777Y-75492553D01*
X124269011Y-75498377D01*
X124268414Y-75504433D01*
X124268413Y-75504441D01*
X124253243Y-75658472D01*
X124248728Y-75704311D01*
X124249325Y-75710372D01*
X124268413Y-75904180D01*
X124268414Y-75904186D01*
X124269011Y-75910245D01*
X124270778Y-75916070D01*
X124270779Y-75916075D01*
X124291197Y-75983383D01*
X124329079Y-76108265D01*
X124331949Y-76113634D01*
X124331951Y-76113639D01*
X124423123Y-76284207D01*
X124426626Y-76290761D01*
X124557901Y-76450721D01*
X124717861Y-76581996D01*
X124900357Y-76679543D01*
X125098377Y-76739611D01*
X125304311Y-76759894D01*
X125510245Y-76739611D01*
X125708265Y-76679543D01*
X125890761Y-76581996D01*
X126050721Y-76450721D01*
X126181996Y-76290761D01*
X126279543Y-76108265D01*
X126339611Y-75910245D01*
X126359894Y-75704311D01*
X126339611Y-75498377D01*
X126279543Y-75300357D01*
X126181996Y-75117861D01*
X126155671Y-75085784D01*
X140260347Y-75085784D01*
X140260506Y-75098292D01*
X140282213Y-75287857D01*
X140284887Y-75300079D01*
X140344308Y-75481397D01*
X140349386Y-75492830D01*
X140444090Y-75658472D01*
X140451367Y-75668650D01*
X140577476Y-75811838D01*
X140586653Y-75820342D01*
X140739004Y-75935215D01*
X140749704Y-75941697D01*
X140922056Y-76023549D01*
X140933847Y-76027747D01*
X141119145Y-76073227D01*
X141131548Y-76074966D01*
X141208632Y-76077897D01*
X141221769Y-76074819D01*
X141225344Y-76061808D01*
X141225344Y-75955267D01*
X141725344Y-75955267D01*
X141728391Y-75966381D01*
X141739395Y-75962948D01*
X141876593Y-75875000D01*
X144869867Y-75875000D01*
X144871129Y-75883777D01*
X144887040Y-75994446D01*
X144887041Y-75994450D01*
X144888303Y-76003226D01*
X144891987Y-76011294D01*
X144891988Y-76011295D01*
X144938434Y-76112998D01*
X144938436Y-76113002D01*
X144942118Y-76121063D01*
X144947920Y-76127759D01*
X144947922Y-76127762D01*
X145003252Y-76191617D01*
X145026951Y-76218967D01*
X145135931Y-76289004D01*
X145260228Y-76325500D01*
X145380901Y-76325500D01*
X145389772Y-76325500D01*
X145514069Y-76289004D01*
X145623049Y-76218967D01*
X145628857Y-76212263D01*
X145635560Y-76206456D01*
X145636249Y-76207251D01*
X145677139Y-76178426D01*
X145736262Y-76170784D01*
X145792119Y-76191617D01*
X145831798Y-76236109D01*
X145845878Y-76292964D01*
X145844867Y-76300000D01*
X145846129Y-76308777D01*
X145862040Y-76419446D01*
X145862041Y-76419450D01*
X145863303Y-76428226D01*
X145866987Y-76436294D01*
X145866988Y-76436295D01*
X145913434Y-76537998D01*
X145913436Y-76538002D01*
X145917118Y-76546063D01*
X145922920Y-76552759D01*
X145922922Y-76552762D01*
X145960515Y-76596147D01*
X146001951Y-76643967D01*
X146110931Y-76714004D01*
X146235228Y-76750500D01*
X146355901Y-76750500D01*
X146364772Y-76750500D01*
X146489069Y-76714004D01*
X146598049Y-76643967D01*
X146682882Y-76546063D01*
X146736697Y-76428226D01*
X146755133Y-76300000D01*
X146736697Y-76171774D01*
X146692419Y-76074819D01*
X146686565Y-76062001D01*
X146686564Y-76061999D01*
X146682882Y-76053937D01*
X146676416Y-76046475D01*
X146626913Y-75989345D01*
X146598049Y-75956033D01*
X146590589Y-75951238D01*
X146590587Y-75951237D01*
X146517364Y-75904180D01*
X146489069Y-75885996D01*
X146472136Y-75881024D01*
X146373284Y-75851999D01*
X146373282Y-75851998D01*
X146364772Y-75849500D01*
X146235228Y-75849500D01*
X146226718Y-75851998D01*
X146226715Y-75851999D01*
X146119444Y-75883496D01*
X146119441Y-75883497D01*
X146110931Y-75885996D01*
X146103468Y-75890791D01*
X146103468Y-75890792D01*
X146009412Y-75951237D01*
X146009406Y-75951241D01*
X146001951Y-75956033D01*
X145996144Y-75962734D01*
X145989440Y-75968544D01*
X145988750Y-75967748D01*
X145947861Y-75996574D01*
X145888738Y-76004216D01*
X145832881Y-75983383D01*
X145793202Y-75938891D01*
X145779121Y-75882035D01*
X145780133Y-75875000D01*
X145761697Y-75746774D01*
X145707882Y-75628937D01*
X145623049Y-75531033D01*
X145615589Y-75526238D01*
X145615587Y-75526237D01*
X145553745Y-75486494D01*
X145514069Y-75460996D01*
X145505555Y-75458496D01*
X145398284Y-75426999D01*
X145398282Y-75426998D01*
X145389772Y-75424500D01*
X145260228Y-75424500D01*
X145251718Y-75426998D01*
X145251715Y-75426999D01*
X145144444Y-75458496D01*
X145144441Y-75458497D01*
X145135931Y-75460996D01*
X145128468Y-75465791D01*
X145128468Y-75465792D01*
X145034412Y-75526237D01*
X145034406Y-75526241D01*
X145026951Y-75531033D01*
X145021146Y-75537732D01*
X145021143Y-75537735D01*
X144947922Y-75622237D01*
X144947917Y-75622243D01*
X144942118Y-75628937D01*
X144938438Y-75636994D01*
X144938434Y-75637001D01*
X144891988Y-75738704D01*
X144888303Y-75746774D01*
X144887041Y-75755547D01*
X144887040Y-75755553D01*
X144875732Y-75834207D01*
X144869867Y-75875000D01*
X141876593Y-75875000D01*
X141884856Y-75869703D01*
X141894651Y-75861921D01*
X142031272Y-75728718D01*
X142039297Y-75719126D01*
X142146305Y-75561151D01*
X142152237Y-75550137D01*
X142425516Y-74890383D01*
X142469161Y-74836117D01*
X142535173Y-74813933D01*
X142602732Y-74830830D01*
X142637489Y-74867660D01*
X142640618Y-74865388D01*
X142646355Y-74873285D01*
X142650786Y-74881980D01*
X142746094Y-74977288D01*
X142866188Y-75038479D01*
X142965826Y-75054260D01*
X143027924Y-75054260D01*
X143032802Y-75054260D01*
X143132440Y-75038479D01*
X143147356Y-75030878D01*
X143211907Y-75017638D01*
X143274128Y-75039338D01*
X143316446Y-75089850D01*
X143342118Y-75146063D01*
X143347920Y-75152759D01*
X143347922Y-75152762D01*
X143377590Y-75187001D01*
X143426951Y-75243967D01*
X143535931Y-75314004D01*
X143660228Y-75350500D01*
X143780901Y-75350500D01*
X143789772Y-75350500D01*
X143914069Y-75314004D01*
X144023049Y-75243967D01*
X144107882Y-75146063D01*
X144151753Y-75050000D01*
X145894867Y-75050000D01*
X145896129Y-75058777D01*
X145912040Y-75169446D01*
X145912041Y-75169450D01*
X145913303Y-75178226D01*
X145916987Y-75186294D01*
X145916988Y-75186295D01*
X145963434Y-75287998D01*
X145963436Y-75288002D01*
X145967118Y-75296063D01*
X145972920Y-75302759D01*
X145972922Y-75302762D01*
X146012121Y-75348000D01*
X146051951Y-75393967D01*
X146160931Y-75464004D01*
X146285228Y-75500500D01*
X146405901Y-75500500D01*
X146414772Y-75500500D01*
X146539069Y-75464004D01*
X146638931Y-75399826D01*
X146697123Y-75380458D01*
X146757481Y-75391347D01*
X146805237Y-75429831D01*
X146828708Y-75486494D01*
X146837040Y-75544446D01*
X146837041Y-75544450D01*
X146838303Y-75553226D01*
X146841987Y-75561294D01*
X146841988Y-75561295D01*
X146888434Y-75662998D01*
X146888436Y-75663002D01*
X146892118Y-75671063D01*
X146897920Y-75677759D01*
X146897922Y-75677762D01*
X146950728Y-75738704D01*
X146976951Y-75768967D01*
X147085931Y-75839004D01*
X147210228Y-75875500D01*
X147330901Y-75875500D01*
X147339772Y-75875500D01*
X147464069Y-75839004D01*
X147573049Y-75768967D01*
X147629073Y-75704311D01*
X153240106Y-75704311D01*
X153240703Y-75710372D01*
X153259791Y-75904180D01*
X153259792Y-75904186D01*
X153260389Y-75910245D01*
X153262156Y-75916070D01*
X153262157Y-75916075D01*
X153282575Y-75983383D01*
X153320457Y-76108265D01*
X153323327Y-76113634D01*
X153323329Y-76113639D01*
X153414501Y-76284207D01*
X153418004Y-76290761D01*
X153549279Y-76450721D01*
X153709239Y-76581996D01*
X153891735Y-76679543D01*
X154089755Y-76739611D01*
X154295689Y-76759894D01*
X154501623Y-76739611D01*
X154699643Y-76679543D01*
X154882139Y-76581996D01*
X155042099Y-76450721D01*
X155173374Y-76290761D01*
X155270921Y-76108265D01*
X155330989Y-75910245D01*
X155351272Y-75704311D01*
X155330989Y-75498377D01*
X155270921Y-75300357D01*
X155173374Y-75117861D01*
X155042099Y-74957901D01*
X154988244Y-74913704D01*
X154886846Y-74830489D01*
X154882139Y-74826626D01*
X154876577Y-74823653D01*
X154705017Y-74731951D01*
X154705012Y-74731949D01*
X154699643Y-74729079D01*
X154649238Y-74713789D01*
X154507453Y-74670779D01*
X154507448Y-74670778D01*
X154501623Y-74669011D01*
X154495564Y-74668414D01*
X154495558Y-74668413D01*
X154301750Y-74649325D01*
X154295689Y-74648728D01*
X154289628Y-74649325D01*
X154095819Y-74668413D01*
X154095811Y-74668414D01*
X154089755Y-74669011D01*
X154083931Y-74670777D01*
X154083924Y-74670779D01*
X153897566Y-74727310D01*
X153897564Y-74727310D01*
X153891735Y-74729079D01*
X153886368Y-74731947D01*
X153886360Y-74731951D01*
X153714609Y-74823755D01*
X153714604Y-74823758D01*
X153709239Y-74826626D01*
X153704535Y-74830485D01*
X153704531Y-74830489D01*
X153553985Y-74954038D01*
X153553979Y-74954043D01*
X153549279Y-74957901D01*
X153545421Y-74962601D01*
X153545416Y-74962607D01*
X153421867Y-75113153D01*
X153421863Y-75113157D01*
X153418004Y-75117861D01*
X153415136Y-75123226D01*
X153415133Y-75123231D01*
X153323329Y-75294982D01*
X153323325Y-75294990D01*
X153320457Y-75300357D01*
X153318688Y-75306186D01*
X153318688Y-75306188D01*
X153262157Y-75492546D01*
X153262155Y-75492553D01*
X153260389Y-75498377D01*
X153259792Y-75504433D01*
X153259791Y-75504441D01*
X153244621Y-75658472D01*
X153240106Y-75704311D01*
X147629073Y-75704311D01*
X147657882Y-75671063D01*
X147711697Y-75553226D01*
X147730133Y-75425000D01*
X147711697Y-75296774D01*
X147657882Y-75178937D01*
X147649658Y-75169446D01*
X147588004Y-75098292D01*
X147573049Y-75081033D01*
X147565589Y-75076238D01*
X147565587Y-75076237D01*
X147511103Y-75041223D01*
X147464069Y-75010996D01*
X147455555Y-75008496D01*
X147348284Y-74976999D01*
X147348282Y-74976998D01*
X147339772Y-74974500D01*
X147210228Y-74974500D01*
X147201718Y-74976998D01*
X147201715Y-74976999D01*
X147094444Y-75008496D01*
X147094441Y-75008497D01*
X147085931Y-75010996D01*
X147078471Y-75015790D01*
X147078467Y-75015792D01*
X146986068Y-75075173D01*
X146927874Y-75094541D01*
X146867517Y-75083651D01*
X146819761Y-75045167D01*
X146796291Y-74988503D01*
X146786697Y-74921774D01*
X146732882Y-74803937D01*
X146707587Y-74774745D01*
X146666485Y-74727310D01*
X146648049Y-74706033D01*
X146640589Y-74701238D01*
X146640587Y-74701237D01*
X146589511Y-74668413D01*
X146539069Y-74635996D01*
X146494338Y-74622862D01*
X146423284Y-74601999D01*
X146423282Y-74601998D01*
X146414772Y-74599500D01*
X146285228Y-74599500D01*
X146276718Y-74601998D01*
X146276715Y-74601999D01*
X146169444Y-74633496D01*
X146169441Y-74633497D01*
X146160931Y-74635996D01*
X146153468Y-74640791D01*
X146153468Y-74640792D01*
X146059412Y-74701237D01*
X146059406Y-74701241D01*
X146051951Y-74706033D01*
X146046146Y-74712732D01*
X146046143Y-74712735D01*
X145972922Y-74797237D01*
X145972917Y-74797243D01*
X145967118Y-74803937D01*
X145963438Y-74811994D01*
X145963434Y-74812001D01*
X145916988Y-74913704D01*
X145913303Y-74921774D01*
X145912041Y-74930547D01*
X145912040Y-74930553D01*
X145905321Y-74977288D01*
X145894867Y-75050000D01*
X144151753Y-75050000D01*
X144161697Y-75028226D01*
X144180133Y-74900000D01*
X144161697Y-74771774D01*
X144107882Y-74653937D01*
X144092336Y-74635996D01*
X144028856Y-74562735D01*
X144023049Y-74556033D01*
X144015589Y-74551238D01*
X144015587Y-74551237D01*
X143931817Y-74497402D01*
X143914069Y-74485996D01*
X143905555Y-74483496D01*
X143798284Y-74451999D01*
X143798282Y-74451998D01*
X143789772Y-74449500D01*
X143660228Y-74449500D01*
X143651718Y-74451998D01*
X143651715Y-74451999D01*
X143544440Y-74483497D01*
X143544436Y-74483498D01*
X143535931Y-74485996D01*
X143533985Y-74487246D01*
X143476098Y-74497402D01*
X143417112Y-74476826D01*
X143375643Y-74430102D01*
X143352273Y-74384237D01*
X143347842Y-74375540D01*
X143271683Y-74299381D01*
X149937954Y-74299381D01*
X149938113Y-74311890D01*
X149959820Y-74501456D01*
X149962494Y-74513678D01*
X150021915Y-74694995D01*
X150026993Y-74706428D01*
X150121697Y-74872070D01*
X150128974Y-74882248D01*
X150255084Y-75025437D01*
X150264260Y-75033941D01*
X150416614Y-75148816D01*
X150427305Y-75155293D01*
X150599668Y-75237149D01*
X150611453Y-75241344D01*
X150795883Y-75286611D01*
X150803705Y-75284779D01*
X150807280Y-75271768D01*
X150807280Y-75208918D01*
X151307280Y-75208918D01*
X151310023Y-75220019D01*
X151321368Y-75218593D01*
X151390666Y-75191924D01*
X151401829Y-75186272D01*
X151562463Y-75083301D01*
X151572258Y-75075519D01*
X151708882Y-74942313D01*
X151716900Y-74932729D01*
X151823916Y-74774745D01*
X151829845Y-74763737D01*
X152030265Y-74279877D01*
X152031948Y-74268533D01*
X152020824Y-74265747D01*
X151323606Y-74265747D01*
X151310730Y-74269197D01*
X151307280Y-74282073D01*
X151307280Y-75208918D01*
X150807280Y-75208918D01*
X150807280Y-74282073D01*
X150803829Y-74269197D01*
X150790954Y-74265747D01*
X149956337Y-74265747D01*
X149943831Y-74268900D01*
X149939581Y-74281080D01*
X149937954Y-74299381D01*
X143271683Y-74299381D01*
X143252534Y-74280232D01*
X143229573Y-74268533D01*
X143154857Y-74230463D01*
X143132440Y-74219041D01*
X143122803Y-74217514D01*
X143122798Y-74217513D01*
X143037622Y-74204023D01*
X143037616Y-74204022D01*
X143032802Y-74203260D01*
X142965826Y-74203260D01*
X142961012Y-74204022D01*
X142961005Y-74204023D01*
X142875824Y-74217514D01*
X142875819Y-74217515D01*
X142866188Y-74219041D01*
X142857499Y-74223467D01*
X142848531Y-74226382D01*
X142788106Y-74230463D01*
X142732955Y-74205437D01*
X142696235Y-74157276D01*
X142686704Y-74097468D01*
X142690340Y-74056573D01*
X142690181Y-74044065D01*
X142668474Y-73854499D01*
X142665800Y-73842277D01*
X142639806Y-73762960D01*
X150082611Y-73762960D01*
X150093736Y-73765747D01*
X150790954Y-73765747D01*
X150803829Y-73762296D01*
X150807280Y-73749421D01*
X151307280Y-73749421D01*
X151310730Y-73762296D01*
X151323606Y-73765747D01*
X152158223Y-73765747D01*
X152170728Y-73762593D01*
X152174978Y-73750413D01*
X152176605Y-73732112D01*
X152176446Y-73719603D01*
X152154739Y-73530038D01*
X152152065Y-73517816D01*
X152092644Y-73336498D01*
X152087566Y-73325065D01*
X151992862Y-73159423D01*
X151985585Y-73149245D01*
X151859476Y-73006057D01*
X151850299Y-72997553D01*
X151697945Y-72882678D01*
X151687254Y-72876201D01*
X151514888Y-72794344D01*
X151503111Y-72790151D01*
X151318676Y-72744882D01*
X151310854Y-72746714D01*
X151307280Y-72759726D01*
X151307280Y-73749421D01*
X150807280Y-73749421D01*
X150807280Y-72822576D01*
X150804536Y-72811474D01*
X150793191Y-72812900D01*
X150723895Y-72839568D01*
X150712725Y-72845224D01*
X150552103Y-72948189D01*
X150542296Y-72955980D01*
X150405687Y-73089171D01*
X150397652Y-73098774D01*
X150290646Y-73256745D01*
X150284714Y-73267759D01*
X150084293Y-73751616D01*
X150082611Y-73762960D01*
X142639806Y-73762960D01*
X142606379Y-73660960D01*
X142601301Y-73649527D01*
X142506598Y-73483884D01*
X142499321Y-73473707D01*
X142373211Y-73330518D01*
X142364035Y-73322014D01*
X142211680Y-73207139D01*
X142200989Y-73200661D01*
X142028627Y-73118806D01*
X142016842Y-73114611D01*
X141831542Y-73069130D01*
X141819139Y-73067391D01*
X141742055Y-73064460D01*
X141728918Y-73067538D01*
X141725344Y-73080550D01*
X141725344Y-75955267D01*
X141225344Y-75955267D01*
X141225344Y-74837505D01*
X141221893Y-74824629D01*
X141209018Y-74821179D01*
X140311550Y-74821179D01*
X140300123Y-74823653D01*
X140294468Y-74833892D01*
X140279609Y-74883440D01*
X140277246Y-74895728D01*
X140260347Y-75085784D01*
X126155671Y-75085784D01*
X126050721Y-74957901D01*
X125996866Y-74913704D01*
X125895468Y-74830489D01*
X125890761Y-74826626D01*
X125885199Y-74823653D01*
X125763042Y-74758358D01*
X125715768Y-74713789D01*
X125697520Y-74651434D01*
X125713307Y-74588411D01*
X125758795Y-74542021D01*
X125821496Y-74525000D01*
X140387760Y-74525000D01*
X140400000Y-74525000D01*
X140452248Y-74398001D01*
X140479102Y-74357638D01*
X140519379Y-74330656D01*
X140566923Y-74321179D01*
X141209018Y-74321179D01*
X141221893Y-74317728D01*
X141225344Y-74304853D01*
X141225344Y-73187091D01*
X141222296Y-73175976D01*
X141211290Y-73179410D01*
X141192614Y-73191382D01*
X141133603Y-73210736D01*
X141072609Y-73199049D01*
X141024931Y-73159253D01*
X141002529Y-73101330D01*
X141011022Y-73039813D01*
X141756888Y-71226868D01*
X141792290Y-71178695D01*
X141846119Y-71152685D01*
X141905862Y-71154885D01*
X141957632Y-71184784D01*
X141989396Y-71235431D01*
X142039595Y-71388610D01*
X142044674Y-71400043D01*
X142139378Y-71565685D01*
X142146655Y-71575863D01*
X142272765Y-71719052D01*
X142281941Y-71727556D01*
X142434295Y-71842431D01*
X142444986Y-71848908D01*
X142617349Y-71930764D01*
X142629134Y-71934959D01*
X142813564Y-71980226D01*
X142821386Y-71978394D01*
X142824961Y-71965383D01*
X142824961Y-71902533D01*
X143324961Y-71902533D01*
X143327704Y-71913634D01*
X143339049Y-71912208D01*
X143408347Y-71885539D01*
X143419510Y-71879887D01*
X143580144Y-71776916D01*
X143589939Y-71769134D01*
X143726563Y-71635928D01*
X143734581Y-71626344D01*
X143841597Y-71468360D01*
X143847526Y-71457352D01*
X144047946Y-70973492D01*
X144049629Y-70962148D01*
X144038505Y-70959362D01*
X143341287Y-70959362D01*
X143328411Y-70962812D01*
X143324961Y-70975688D01*
X143324961Y-71902533D01*
X142824961Y-71902533D01*
X142824961Y-70443036D01*
X143324961Y-70443036D01*
X143328411Y-70455911D01*
X143341287Y-70459362D01*
X144175904Y-70459362D01*
X144188409Y-70456208D01*
X144192659Y-70444028D01*
X144194286Y-70425727D01*
X144194127Y-70413218D01*
X144172420Y-70223653D01*
X144169746Y-70211431D01*
X144110325Y-70030113D01*
X144105247Y-70018680D01*
X144010543Y-69853038D01*
X144003266Y-69842860D01*
X143877157Y-69699672D01*
X143867980Y-69691168D01*
X143715626Y-69576293D01*
X143704935Y-69569816D01*
X143532569Y-69487959D01*
X143520792Y-69483766D01*
X143336357Y-69438497D01*
X143328535Y-69440329D01*
X143324961Y-69453341D01*
X143324961Y-70443036D01*
X142824961Y-70443036D01*
X142824961Y-69516191D01*
X142822217Y-69505089D01*
X142810872Y-69506515D01*
X142741576Y-69533183D01*
X142730415Y-69538835D01*
X142682741Y-69569395D01*
X142623729Y-69588749D01*
X142562735Y-69577062D01*
X142515057Y-69537266D01*
X142492655Y-69479343D01*
X142501148Y-69417827D01*
X143264556Y-67562243D01*
X143295729Y-67517752D01*
X143342934Y-67490856D01*
X143397101Y-67486720D01*
X143492664Y-67500643D01*
G37*
G04 #@! TD.AperFunction*
G04 #@! TA.AperFunction,Conductor*
G36*
X143263000Y-84366613D02*
G01*
X143308387Y-84412000D01*
X143325000Y-84474000D01*
X143325000Y-84775000D01*
X144798638Y-84775000D01*
X144846091Y-84784439D01*
X144886319Y-84811319D01*
X145433818Y-85358818D01*
X145465114Y-85411564D01*
X145467303Y-85472856D01*
X145439851Y-85527700D01*
X145422925Y-85547233D01*
X145422919Y-85547241D01*
X145417118Y-85553937D01*
X145413438Y-85561994D01*
X145413434Y-85562001D01*
X145366988Y-85663704D01*
X145363303Y-85671774D01*
X145362041Y-85680547D01*
X145362040Y-85680553D01*
X145355186Y-85728226D01*
X145344867Y-85800000D01*
X145346129Y-85808777D01*
X145362040Y-85919446D01*
X145362041Y-85919450D01*
X145363303Y-85928226D01*
X145366987Y-85936294D01*
X145366988Y-85936295D01*
X145413434Y-86037998D01*
X145413436Y-86038002D01*
X145417118Y-86046063D01*
X145422920Y-86052759D01*
X145422922Y-86052762D01*
X145439396Y-86071774D01*
X145501951Y-86143967D01*
X145509411Y-86148761D01*
X145509412Y-86148762D01*
X145512403Y-86150684D01*
X145610931Y-86214004D01*
X145735228Y-86250500D01*
X145855901Y-86250500D01*
X145864772Y-86250500D01*
X145989069Y-86214004D01*
X146087597Y-86150683D01*
X146139916Y-86131876D01*
X146195193Y-86137819D01*
X146242318Y-86167318D01*
X150263681Y-90188681D01*
X150290561Y-90228909D01*
X150300000Y-90276362D01*
X150300000Y-104798638D01*
X150290561Y-104846091D01*
X150263681Y-104886319D01*
X148124177Y-107025821D01*
X148077749Y-107055077D01*
X148023240Y-107061429D01*
X147971328Y-107043635D01*
X147934481Y-107007440D01*
X147932882Y-107003937D01*
X147848049Y-106906033D01*
X147840589Y-106901238D01*
X147840587Y-106901237D01*
X147793559Y-106871014D01*
X147739069Y-106835996D01*
X147730555Y-106833496D01*
X147623284Y-106801999D01*
X147623282Y-106801998D01*
X147614772Y-106799500D01*
X147485228Y-106799500D01*
X147476718Y-106801998D01*
X147476715Y-106801999D01*
X147369444Y-106833496D01*
X147369441Y-106833497D01*
X147360931Y-106835996D01*
X147353468Y-106840791D01*
X147353468Y-106840792D01*
X147259412Y-106901237D01*
X147259406Y-106901241D01*
X147251951Y-106906033D01*
X147246146Y-106912732D01*
X147246143Y-106912735D01*
X147172922Y-106997237D01*
X147172917Y-106997243D01*
X147167118Y-107003937D01*
X147163438Y-107011994D01*
X147163434Y-107012001D01*
X147116988Y-107113704D01*
X147113303Y-107121774D01*
X147112041Y-107130547D01*
X147112040Y-107130553D01*
X147100834Y-107208496D01*
X147094867Y-107250000D01*
X147113303Y-107378226D01*
X147116986Y-107386291D01*
X147118388Y-107391065D01*
X147121441Y-107448017D01*
X147098678Y-107500311D01*
X147054915Y-107536884D01*
X146999411Y-107550000D01*
X129740694Y-107550000D01*
X129673655Y-107530316D01*
X129627900Y-107477512D01*
X129586565Y-107387001D01*
X129586564Y-107386999D01*
X129582882Y-107378937D01*
X129498049Y-107281033D01*
X129490589Y-107276238D01*
X129490587Y-107276237D01*
X129436103Y-107241223D01*
X129389069Y-107210996D01*
X129380555Y-107208496D01*
X129273284Y-107176999D01*
X129273282Y-107176998D01*
X129264772Y-107174500D01*
X129135228Y-107174500D01*
X129126718Y-107176998D01*
X129126715Y-107176999D01*
X129019444Y-107208496D01*
X129019441Y-107208497D01*
X129010931Y-107210996D01*
X129003468Y-107215791D01*
X129003468Y-107215792D01*
X128909412Y-107276237D01*
X128909406Y-107276241D01*
X128901951Y-107281033D01*
X128896146Y-107287732D01*
X128896143Y-107287735D01*
X128822922Y-107372237D01*
X128822917Y-107372243D01*
X128817118Y-107378937D01*
X128813438Y-107386994D01*
X128813434Y-107387001D01*
X128772100Y-107477512D01*
X128726345Y-107530316D01*
X128659306Y-107550000D01*
X124755252Y-107550000D01*
X124711373Y-107541977D01*
X124673173Y-107518946D01*
X124592853Y-107448017D01*
X124427417Y-107301922D01*
X124426134Y-107300771D01*
X124109941Y-107012878D01*
X124107650Y-107010737D01*
X123731921Y-106650226D01*
X123730624Y-106648961D01*
X123453798Y-106375000D01*
X136119867Y-106375000D01*
X136121129Y-106383777D01*
X136137040Y-106494446D01*
X136137041Y-106494450D01*
X136138303Y-106503226D01*
X136141987Y-106511294D01*
X136141988Y-106511295D01*
X136188434Y-106612998D01*
X136188436Y-106613002D01*
X136192118Y-106621063D01*
X136197920Y-106627759D01*
X136197922Y-106627762D01*
X136255289Y-106693967D01*
X136276951Y-106718967D01*
X136385931Y-106789004D01*
X136510228Y-106825500D01*
X136630901Y-106825500D01*
X136639772Y-106825500D01*
X136764069Y-106789004D01*
X136873049Y-106718967D01*
X136957882Y-106621063D01*
X136961567Y-106612993D01*
X136966216Y-106605760D01*
X137011106Y-106563965D01*
X137070536Y-106548797D01*
X137129965Y-106563967D01*
X137165728Y-106597267D01*
X137167118Y-106596063D01*
X137251951Y-106693967D01*
X137360931Y-106764004D01*
X137485228Y-106800500D01*
X137605901Y-106800500D01*
X137614772Y-106800500D01*
X137739069Y-106764004D01*
X137848049Y-106693967D01*
X137927948Y-106601756D01*
X137970150Y-106570164D01*
X138021662Y-106558958D01*
X138073174Y-106570164D01*
X138115376Y-106601757D01*
X138137911Y-106627764D01*
X138151951Y-106643967D01*
X138260931Y-106714004D01*
X138385228Y-106750500D01*
X138505901Y-106750500D01*
X138514772Y-106750500D01*
X138639069Y-106714004D01*
X138748049Y-106643967D01*
X138832882Y-106546063D01*
X138886697Y-106428226D01*
X138905133Y-106300000D01*
X138886697Y-106171774D01*
X138832882Y-106053937D01*
X138818843Y-106037735D01*
X138760418Y-105970308D01*
X138748049Y-105956033D01*
X138740589Y-105951238D01*
X138740587Y-105951237D01*
X138663970Y-105901999D01*
X138639069Y-105885996D01*
X138630555Y-105883496D01*
X138523284Y-105851999D01*
X138523282Y-105851998D01*
X138514772Y-105849500D01*
X138385228Y-105849500D01*
X138376718Y-105851998D01*
X138376715Y-105851999D01*
X138269444Y-105883496D01*
X138269441Y-105883497D01*
X138260931Y-105885996D01*
X138253468Y-105890791D01*
X138253468Y-105890792D01*
X138159412Y-105951237D01*
X138159406Y-105951241D01*
X138151951Y-105956033D01*
X138146147Y-105962730D01*
X138146138Y-105962739D01*
X138072050Y-106048243D01*
X138029848Y-106079835D01*
X137978336Y-106091041D01*
X137926824Y-106079835D01*
X137884623Y-106048242D01*
X137853859Y-106012738D01*
X137853856Y-106012735D01*
X137848049Y-106006033D01*
X137840589Y-106001238D01*
X137840587Y-106001237D01*
X137790252Y-105968889D01*
X137739069Y-105935996D01*
X137730555Y-105933496D01*
X137623284Y-105901999D01*
X137623282Y-105901998D01*
X137614772Y-105899500D01*
X137485228Y-105899500D01*
X137476718Y-105901998D01*
X137476715Y-105901999D01*
X137369444Y-105933496D01*
X137369441Y-105933497D01*
X137360931Y-105935996D01*
X137353468Y-105940791D01*
X137353468Y-105940792D01*
X137259412Y-106001237D01*
X137259406Y-106001241D01*
X137251951Y-106006033D01*
X137246146Y-106012732D01*
X137246143Y-106012735D01*
X137172921Y-106097239D01*
X137172918Y-106097242D01*
X137167118Y-106103937D01*
X137163438Y-106111994D01*
X137158780Y-106119243D01*
X137113888Y-106161037D01*
X137054457Y-106176202D01*
X136995029Y-106161029D01*
X136959272Y-106127731D01*
X136957882Y-106128937D01*
X136873049Y-106031033D01*
X136865589Y-106026238D01*
X136865587Y-106026237D01*
X136818558Y-105996014D01*
X136764069Y-105960996D01*
X136755555Y-105958496D01*
X136648284Y-105926999D01*
X136648282Y-105926998D01*
X136639772Y-105924500D01*
X136510228Y-105924500D01*
X136501718Y-105926998D01*
X136501715Y-105926999D01*
X136394444Y-105958496D01*
X136394441Y-105958497D01*
X136385931Y-105960996D01*
X136378468Y-105965791D01*
X136378468Y-105965792D01*
X136284412Y-106026237D01*
X136284406Y-106026241D01*
X136276951Y-106031033D01*
X136271146Y-106037732D01*
X136271143Y-106037735D01*
X136197922Y-106122237D01*
X136197917Y-106122243D01*
X136192118Y-106128937D01*
X136188438Y-106136994D01*
X136188434Y-106137001D01*
X136149720Y-106221774D01*
X136138303Y-106246774D01*
X136137041Y-106255547D01*
X136137040Y-106255553D01*
X136131912Y-106291223D01*
X136119867Y-106375000D01*
X123453798Y-106375000D01*
X123426485Y-106347970D01*
X123424319Y-106345770D01*
X123064064Y-105970308D01*
X123062724Y-105968889D01*
X122783029Y-105668048D01*
X122771202Y-105655327D01*
X122769084Y-105652989D01*
X122424884Y-105263220D01*
X122423581Y-105261721D01*
X122145185Y-104936103D01*
X122143176Y-104933692D01*
X121954822Y-104701750D01*
X121815515Y-104530203D01*
X121814337Y-104528729D01*
X121549518Y-104191546D01*
X121547645Y-104189100D01*
X121515554Y-104146063D01*
X121237084Y-103772610D01*
X121235934Y-103771040D01*
X120985190Y-103422884D01*
X120983481Y-103420447D01*
X120690531Y-102991675D01*
X120689429Y-102990033D01*
X120571518Y-102811058D01*
X120453300Y-102631617D01*
X120451660Y-102629060D01*
X120418812Y-102576439D01*
X120400000Y-102510777D01*
X120400000Y-99701362D01*
X120409439Y-99653909D01*
X120436319Y-99613681D01*
X122613681Y-97436319D01*
X122653909Y-97409439D01*
X122701362Y-97400000D01*
X125626000Y-97400000D01*
X125688000Y-97416613D01*
X125733387Y-97462000D01*
X125750000Y-97524000D01*
X125750000Y-98126000D01*
X125733387Y-98188000D01*
X125688000Y-98233387D01*
X125626000Y-98250000D01*
X123650000Y-98250000D01*
X123650000Y-102800000D01*
X123658638Y-102808638D01*
X124593735Y-103743735D01*
X124626815Y-103803258D01*
X124623474Y-103871273D01*
X124584721Y-103927267D01*
X124562610Y-103945413D01*
X124562601Y-103945421D01*
X124557901Y-103949279D01*
X124554043Y-103953979D01*
X124554038Y-103953985D01*
X124430489Y-104104531D01*
X124430485Y-104104535D01*
X124426626Y-104109239D01*
X124423758Y-104114604D01*
X124423755Y-104114609D01*
X124331951Y-104286360D01*
X124331947Y-104286368D01*
X124329079Y-104291735D01*
X124327310Y-104297564D01*
X124327310Y-104297566D01*
X124270779Y-104483924D01*
X124270777Y-104483931D01*
X124269011Y-104489755D01*
X124268414Y-104495811D01*
X124268413Y-104495819D01*
X124263870Y-104541948D01*
X124248728Y-104695689D01*
X124249325Y-104701750D01*
X124268413Y-104895558D01*
X124268414Y-104895564D01*
X124269011Y-104901623D01*
X124270778Y-104907448D01*
X124270779Y-104907453D01*
X124273558Y-104916613D01*
X124329079Y-105099643D01*
X124331949Y-105105012D01*
X124331951Y-105105017D01*
X124412672Y-105256033D01*
X124426626Y-105282139D01*
X124557901Y-105442099D01*
X124717861Y-105573374D01*
X124900357Y-105670921D01*
X125098377Y-105730989D01*
X125304311Y-105751272D01*
X125510245Y-105730989D01*
X125708265Y-105670921D01*
X125890761Y-105573374D01*
X126050721Y-105442099D01*
X126072730Y-105415280D01*
X126128723Y-105376526D01*
X126196740Y-105373184D01*
X126256264Y-105406264D01*
X127050000Y-106200000D01*
X127062211Y-106200000D01*
X132887789Y-106200000D01*
X132900000Y-106200000D01*
X133000000Y-106100000D01*
X133000000Y-105024000D01*
X133016613Y-104962000D01*
X133062000Y-104916613D01*
X133124000Y-104900000D01*
X143648638Y-104900000D01*
X143696091Y-104909439D01*
X143736319Y-104936318D01*
X144400000Y-105600000D01*
X144412211Y-105600000D01*
X147787789Y-105600000D01*
X147800000Y-105600000D01*
X149000000Y-104400000D01*
X149000000Y-90700000D01*
X145843202Y-87543202D01*
X145811906Y-87490456D01*
X145809717Y-87429163D01*
X145837170Y-87374319D01*
X145877074Y-87328266D01*
X145877074Y-87328265D01*
X145882882Y-87321563D01*
X145936697Y-87203726D01*
X145955133Y-87075500D01*
X145936697Y-86947274D01*
X145882882Y-86829437D01*
X145864395Y-86808102D01*
X145803856Y-86738235D01*
X145798049Y-86731533D01*
X145790589Y-86726738D01*
X145790587Y-86726737D01*
X145743559Y-86696514D01*
X145689069Y-86661496D01*
X145680555Y-86658996D01*
X145573284Y-86627499D01*
X145573282Y-86627498D01*
X145564772Y-86625000D01*
X145435228Y-86625000D01*
X145426718Y-86627498D01*
X145426715Y-86627499D01*
X145319444Y-86658996D01*
X145319441Y-86658997D01*
X145310931Y-86661496D01*
X145303468Y-86666291D01*
X145303468Y-86666292D01*
X145209408Y-86726740D01*
X145209404Y-86726742D01*
X145201951Y-86731533D01*
X145197627Y-86736523D01*
X145143946Y-86763393D01*
X145082654Y-86761204D01*
X145029908Y-86729908D01*
X144458638Y-86158638D01*
X144458638Y-86158637D01*
X144450000Y-86150000D01*
X144437789Y-86150000D01*
X143696024Y-86150000D01*
X143644512Y-86138794D01*
X143602310Y-86107202D01*
X143553178Y-86050500D01*
X143521235Y-86013635D01*
X143513775Y-86008840D01*
X143513773Y-86008839D01*
X143466744Y-85978616D01*
X143412255Y-85943598D01*
X143366802Y-85930252D01*
X143296470Y-85909601D01*
X143296468Y-85909600D01*
X143287958Y-85907102D01*
X143248885Y-85907102D01*
X143204818Y-85899008D01*
X143166504Y-85875781D01*
X142927917Y-85663704D01*
X142800000Y-85550000D01*
X142788707Y-85550000D01*
X142488245Y-85550000D01*
X142428815Y-85534830D01*
X142394092Y-85502499D01*
X142392433Y-85503937D01*
X142307600Y-85406033D01*
X142300140Y-85401238D01*
X142300138Y-85401237D01*
X142234132Y-85358818D01*
X142198620Y-85335996D01*
X142190106Y-85333496D01*
X142082830Y-85301997D01*
X142082824Y-85301996D01*
X142074323Y-85299500D01*
X142074461Y-85299027D01*
X142027071Y-85280054D01*
X141988784Y-85235867D01*
X141975000Y-85179048D01*
X141975000Y-84474000D01*
X141991613Y-84412000D01*
X142037000Y-84366613D01*
X142099000Y-84350000D01*
X143201000Y-84350000D01*
X143263000Y-84366613D01*
G37*
G04 #@! TD.AperFunction*
M02*
