G04 #@! TF.GenerationSoftware,KiCad,Pcbnew,(7.0.0)*
G04 #@! TF.CreationDate,2023-03-23T23:46:18+08:00*
G04 #@! TF.ProjectId,ServoLess,53657276-6f4c-4657-9373-2e6b69636164,rev?*
G04 #@! TF.SameCoordinates,Original*
G04 #@! TF.FileFunction,Legend,Bot*
G04 #@! TF.FilePolarity,Positive*
%FSLAX46Y46*%
G04 Gerber Fmt 4.6, Leading zero omitted, Abs format (unit mm)*
G04 Created by KiCad (PCBNEW (7.0.0)) date 2023-03-23 23:46:18*
%MOMM*%
%LPD*%
G01*
G04 APERTURE LIST*
G04 Aperture macros list*
%AMRoundRect*
0 Rectangle with rounded corners*
0 $1 Rounding radius*
0 $2 $3 $4 $5 $6 $7 $8 $9 X,Y pos of 4 corners*
0 Add a 4 corners polygon primitive as box body*
4,1,4,$2,$3,$4,$5,$6,$7,$8,$9,$2,$3,0*
0 Add four circle primitives for the rounded corners*
1,1,$1+$1,$2,$3*
1,1,$1+$1,$4,$5*
1,1,$1+$1,$6,$7*
1,1,$1+$1,$8,$9*
0 Add four rect primitives between the rounded corners*
20,1,$1+$1,$2,$3,$4,$5,0*
20,1,$1+$1,$4,$5,$6,$7,0*
20,1,$1+$1,$6,$7,$8,$9,0*
20,1,$1+$1,$8,$9,$2,$3,0*%
%AMHorizOval*
0 Thick line with rounded ends*
0 $1 width*
0 $2 $3 position (X,Y) of the first rounded end (center of the circle)*
0 $4 $5 position (X,Y) of the second rounded end (center of the circle)*
0 Add line between two ends*
20,1,$1,$2,$3,$4,$5,0*
0 Add two circle primitives to create the rounded ends*
1,1,$1,$2,$3*
1,1,$1,$4,$5*%
%AMFreePoly0*
4,1,9,3.862500,-0.866500,0.737500,-0.866500,0.737500,-0.450000,-0.737500,-0.450000,-0.737500,0.450000,0.737500,0.450000,0.737500,0.866500,3.862500,0.866500,3.862500,-0.866500,3.862500,-0.866500,$1*%
G04 Aperture macros list end*
%ADD10C,0.150000*%
%ADD11C,0.120000*%
%ADD12C,0.650000*%
%ADD13HorizOval,1.000000X0.210476X0.508134X-0.210476X-0.508134X0*%
%ADD14HorizOval,1.000000X0.114805X0.277164X-0.114805X-0.277164X0*%
%ADD15C,1.400000*%
%ADD16R,3.500000X3.500000*%
%ADD17C,3.500000*%
%ADD18C,0.500000*%
%ADD19RoundRect,0.100000X-0.100000X0.637500X-0.100000X-0.637500X0.100000X-0.637500X0.100000X0.637500X0*%
%ADD20RoundRect,0.218750X0.218750X0.256250X-0.218750X0.256250X-0.218750X-0.256250X0.218750X-0.256250X0*%
%ADD21RoundRect,0.140000X-0.170000X0.140000X-0.170000X-0.140000X0.170000X-0.140000X0.170000X0.140000X0*%
%ADD22RoundRect,0.250000X-0.650000X0.325000X-0.650000X-0.325000X0.650000X-0.325000X0.650000X0.325000X0*%
%ADD23RoundRect,0.135000X0.185000X-0.135000X0.185000X0.135000X-0.185000X0.135000X-0.185000X-0.135000X0*%
%ADD24RoundRect,0.140000X0.170000X-0.140000X0.170000X0.140000X-0.170000X0.140000X-0.170000X-0.140000X0*%
%ADD25RoundRect,0.225000X-0.250000X0.225000X-0.250000X-0.225000X0.250000X-0.225000X0.250000X0.225000X0*%
%ADD26RoundRect,0.225000X0.250000X-0.225000X0.250000X0.225000X-0.250000X0.225000X-0.250000X-0.225000X0*%
%ADD27RoundRect,0.250000X0.325000X0.650000X-0.325000X0.650000X-0.325000X-0.650000X0.325000X-0.650000X0*%
%ADD28RoundRect,0.150000X-0.150000X-0.625000X0.150000X-0.625000X0.150000X0.625000X-0.150000X0.625000X0*%
%ADD29RoundRect,0.250000X-0.350000X-0.650000X0.350000X-0.650000X0.350000X0.650000X-0.350000X0.650000X0*%
%ADD30RoundRect,0.140000X0.140000X0.170000X-0.140000X0.170000X-0.140000X-0.170000X0.140000X-0.170000X0*%
%ADD31RoundRect,0.250000X-0.900000X1.000000X-0.900000X-1.000000X0.900000X-1.000000X0.900000X1.000000X0*%
%ADD32RoundRect,0.250000X0.475000X-0.250000X0.475000X0.250000X-0.475000X0.250000X-0.475000X-0.250000X0*%
%ADD33RoundRect,0.135000X0.119255X-0.195520X0.222580X0.053927X-0.119255X0.195520X-0.222580X-0.053927X0*%
%ADD34RoundRect,0.140000X-0.140000X-0.170000X0.140000X-0.170000X0.140000X0.170000X-0.140000X0.170000X0*%
%ADD35RoundRect,0.135000X-0.135000X-0.185000X0.135000X-0.185000X0.135000X0.185000X-0.135000X0.185000X0*%
%ADD36R,1.690599X0.532600*%
%ADD37R,1.500000X2.200000*%
%ADD38RoundRect,0.135000X-0.185000X0.135000X-0.185000X-0.135000X0.185000X-0.135000X0.185000X0.135000X0*%
%ADD39RoundRect,0.140000X0.103484X-0.194399X0.210635X0.064287X-0.103484X0.194399X-0.210635X-0.064287X0*%
%ADD40R,0.900000X1.300000*%
%ADD41FreePoly0,90.000000*%
%ADD42RoundRect,0.250000X0.650000X-0.325000X0.650000X0.325000X-0.650000X0.325000X-0.650000X-0.325000X0*%
%ADD43RoundRect,0.150000X-0.150000X0.512500X-0.150000X-0.512500X0.150000X-0.512500X0.150000X0.512500X0*%
G04 APERTURE END LIST*
D10*
X143047142Y-84207142D02*
X143094761Y-84159523D01*
X143094761Y-84159523D02*
X143142380Y-84016666D01*
X143142380Y-84016666D02*
X143142380Y-83921428D01*
X143142380Y-83921428D02*
X143094761Y-83778571D01*
X143094761Y-83778571D02*
X142999523Y-83683333D01*
X142999523Y-83683333D02*
X142904285Y-83635714D01*
X142904285Y-83635714D02*
X142713809Y-83588095D01*
X142713809Y-83588095D02*
X142570952Y-83588095D01*
X142570952Y-83588095D02*
X142380476Y-83635714D01*
X142380476Y-83635714D02*
X142285238Y-83683333D01*
X142285238Y-83683333D02*
X142190000Y-83778571D01*
X142190000Y-83778571D02*
X142142380Y-83921428D01*
X142142380Y-83921428D02*
X142142380Y-84016666D01*
X142142380Y-84016666D02*
X142190000Y-84159523D01*
X142190000Y-84159523D02*
X142237619Y-84207142D01*
X143142380Y-85159523D02*
X143142380Y-84588095D01*
X143142380Y-84873809D02*
X142142380Y-84873809D01*
X142142380Y-84873809D02*
X142285238Y-84778571D01*
X142285238Y-84778571D02*
X142380476Y-84683333D01*
X142380476Y-84683333D02*
X142428095Y-84588095D01*
X142570952Y-85730952D02*
X142523333Y-85635714D01*
X142523333Y-85635714D02*
X142475714Y-85588095D01*
X142475714Y-85588095D02*
X142380476Y-85540476D01*
X142380476Y-85540476D02*
X142332857Y-85540476D01*
X142332857Y-85540476D02*
X142237619Y-85588095D01*
X142237619Y-85588095D02*
X142190000Y-85635714D01*
X142190000Y-85635714D02*
X142142380Y-85730952D01*
X142142380Y-85730952D02*
X142142380Y-85921428D01*
X142142380Y-85921428D02*
X142190000Y-86016666D01*
X142190000Y-86016666D02*
X142237619Y-86064285D01*
X142237619Y-86064285D02*
X142332857Y-86111904D01*
X142332857Y-86111904D02*
X142380476Y-86111904D01*
X142380476Y-86111904D02*
X142475714Y-86064285D01*
X142475714Y-86064285D02*
X142523333Y-86016666D01*
X142523333Y-86016666D02*
X142570952Y-85921428D01*
X142570952Y-85921428D02*
X142570952Y-85730952D01*
X142570952Y-85730952D02*
X142618571Y-85635714D01*
X142618571Y-85635714D02*
X142666190Y-85588095D01*
X142666190Y-85588095D02*
X142761428Y-85540476D01*
X142761428Y-85540476D02*
X142951904Y-85540476D01*
X142951904Y-85540476D02*
X143047142Y-85588095D01*
X143047142Y-85588095D02*
X143094761Y-85635714D01*
X143094761Y-85635714D02*
X143142380Y-85730952D01*
X143142380Y-85730952D02*
X143142380Y-85921428D01*
X143142380Y-85921428D02*
X143094761Y-86016666D01*
X143094761Y-86016666D02*
X143047142Y-86064285D01*
X143047142Y-86064285D02*
X142951904Y-86111904D01*
X142951904Y-86111904D02*
X142761428Y-86111904D01*
X142761428Y-86111904D02*
X142666190Y-86064285D01*
X142666190Y-86064285D02*
X142618571Y-86016666D01*
X142618571Y-86016666D02*
X142570952Y-85921428D01*
X144272142Y-84207142D02*
X144319761Y-84159523D01*
X144319761Y-84159523D02*
X144367380Y-84016666D01*
X144367380Y-84016666D02*
X144367380Y-83921428D01*
X144367380Y-83921428D02*
X144319761Y-83778571D01*
X144319761Y-83778571D02*
X144224523Y-83683333D01*
X144224523Y-83683333D02*
X144129285Y-83635714D01*
X144129285Y-83635714D02*
X143938809Y-83588095D01*
X143938809Y-83588095D02*
X143795952Y-83588095D01*
X143795952Y-83588095D02*
X143605476Y-83635714D01*
X143605476Y-83635714D02*
X143510238Y-83683333D01*
X143510238Y-83683333D02*
X143415000Y-83778571D01*
X143415000Y-83778571D02*
X143367380Y-83921428D01*
X143367380Y-83921428D02*
X143367380Y-84016666D01*
X143367380Y-84016666D02*
X143415000Y-84159523D01*
X143415000Y-84159523D02*
X143462619Y-84207142D01*
X144367380Y-85159523D02*
X144367380Y-84588095D01*
X144367380Y-84873809D02*
X143367380Y-84873809D01*
X143367380Y-84873809D02*
X143510238Y-84778571D01*
X143510238Y-84778571D02*
X143605476Y-84683333D01*
X143605476Y-84683333D02*
X143653095Y-84588095D01*
X143367380Y-85492857D02*
X143367380Y-86159523D01*
X143367380Y-86159523D02*
X144367380Y-85730952D01*
X140063094Y-85317380D02*
X140063094Y-86126904D01*
X140063094Y-86126904D02*
X140015475Y-86222142D01*
X140015475Y-86222142D02*
X139967856Y-86269761D01*
X139967856Y-86269761D02*
X139872618Y-86317380D01*
X139872618Y-86317380D02*
X139682142Y-86317380D01*
X139682142Y-86317380D02*
X139586904Y-86269761D01*
X139586904Y-86269761D02*
X139539285Y-86222142D01*
X139539285Y-86222142D02*
X139491666Y-86126904D01*
X139491666Y-86126904D02*
X139491666Y-85317380D01*
X138491666Y-86317380D02*
X139063094Y-86317380D01*
X138777380Y-86317380D02*
X138777380Y-85317380D01*
X138777380Y-85317380D02*
X138872618Y-85460238D01*
X138872618Y-85460238D02*
X138967856Y-85555476D01*
X138967856Y-85555476D02*
X139063094Y-85603095D01*
X138110713Y-85412619D02*
X138063094Y-85365000D01*
X138063094Y-85365000D02*
X137967856Y-85317380D01*
X137967856Y-85317380D02*
X137729761Y-85317380D01*
X137729761Y-85317380D02*
X137634523Y-85365000D01*
X137634523Y-85365000D02*
X137586904Y-85412619D01*
X137586904Y-85412619D02*
X137539285Y-85507857D01*
X137539285Y-85507857D02*
X137539285Y-85603095D01*
X137539285Y-85603095D02*
X137586904Y-85745952D01*
X137586904Y-85745952D02*
X138158332Y-86317380D01*
X138158332Y-86317380D02*
X137539285Y-86317380D01*
X144666666Y-95917380D02*
X145142856Y-95917380D01*
X145142856Y-95917380D02*
X145142856Y-94917380D01*
X143857142Y-94917380D02*
X144333332Y-94917380D01*
X144333332Y-94917380D02*
X144380951Y-95393571D01*
X144380951Y-95393571D02*
X144333332Y-95345952D01*
X144333332Y-95345952D02*
X144238094Y-95298333D01*
X144238094Y-95298333D02*
X143999999Y-95298333D01*
X143999999Y-95298333D02*
X143904761Y-95345952D01*
X143904761Y-95345952D02*
X143857142Y-95393571D01*
X143857142Y-95393571D02*
X143809523Y-95488809D01*
X143809523Y-95488809D02*
X143809523Y-95726904D01*
X143809523Y-95726904D02*
X143857142Y-95822142D01*
X143857142Y-95822142D02*
X143904761Y-95869761D01*
X143904761Y-95869761D02*
X143999999Y-95917380D01*
X143999999Y-95917380D02*
X144238094Y-95917380D01*
X144238094Y-95917380D02*
X144333332Y-95869761D01*
X144333332Y-95869761D02*
X144380951Y-95822142D01*
X144297142Y-100382142D02*
X144344761Y-100334523D01*
X144344761Y-100334523D02*
X144392380Y-100191666D01*
X144392380Y-100191666D02*
X144392380Y-100096428D01*
X144392380Y-100096428D02*
X144344761Y-99953571D01*
X144344761Y-99953571D02*
X144249523Y-99858333D01*
X144249523Y-99858333D02*
X144154285Y-99810714D01*
X144154285Y-99810714D02*
X143963809Y-99763095D01*
X143963809Y-99763095D02*
X143820952Y-99763095D01*
X143820952Y-99763095D02*
X143630476Y-99810714D01*
X143630476Y-99810714D02*
X143535238Y-99858333D01*
X143535238Y-99858333D02*
X143440000Y-99953571D01*
X143440000Y-99953571D02*
X143392380Y-100096428D01*
X143392380Y-100096428D02*
X143392380Y-100191666D01*
X143392380Y-100191666D02*
X143440000Y-100334523D01*
X143440000Y-100334523D02*
X143487619Y-100382142D01*
X144392380Y-101334523D02*
X144392380Y-100763095D01*
X144392380Y-101048809D02*
X143392380Y-101048809D01*
X143392380Y-101048809D02*
X143535238Y-100953571D01*
X143535238Y-100953571D02*
X143630476Y-100858333D01*
X143630476Y-100858333D02*
X143678095Y-100763095D01*
X143392380Y-101953571D02*
X143392380Y-102048809D01*
X143392380Y-102048809D02*
X143440000Y-102144047D01*
X143440000Y-102144047D02*
X143487619Y-102191666D01*
X143487619Y-102191666D02*
X143582857Y-102239285D01*
X143582857Y-102239285D02*
X143773333Y-102286904D01*
X143773333Y-102286904D02*
X144011428Y-102286904D01*
X144011428Y-102286904D02*
X144201904Y-102239285D01*
X144201904Y-102239285D02*
X144297142Y-102191666D01*
X144297142Y-102191666D02*
X144344761Y-102144047D01*
X144344761Y-102144047D02*
X144392380Y-102048809D01*
X144392380Y-102048809D02*
X144392380Y-101953571D01*
X144392380Y-101953571D02*
X144344761Y-101858333D01*
X144344761Y-101858333D02*
X144297142Y-101810714D01*
X144297142Y-101810714D02*
X144201904Y-101763095D01*
X144201904Y-101763095D02*
X144011428Y-101715476D01*
X144011428Y-101715476D02*
X143773333Y-101715476D01*
X143773333Y-101715476D02*
X143582857Y-101763095D01*
X143582857Y-101763095D02*
X143487619Y-101810714D01*
X143487619Y-101810714D02*
X143440000Y-101858333D01*
X143440000Y-101858333D02*
X143392380Y-101953571D01*
X125572142Y-98857142D02*
X125619761Y-98809523D01*
X125619761Y-98809523D02*
X125667380Y-98666666D01*
X125667380Y-98666666D02*
X125667380Y-98571428D01*
X125667380Y-98571428D02*
X125619761Y-98428571D01*
X125619761Y-98428571D02*
X125524523Y-98333333D01*
X125524523Y-98333333D02*
X125429285Y-98285714D01*
X125429285Y-98285714D02*
X125238809Y-98238095D01*
X125238809Y-98238095D02*
X125095952Y-98238095D01*
X125095952Y-98238095D02*
X124905476Y-98285714D01*
X124905476Y-98285714D02*
X124810238Y-98333333D01*
X124810238Y-98333333D02*
X124715000Y-98428571D01*
X124715000Y-98428571D02*
X124667380Y-98571428D01*
X124667380Y-98571428D02*
X124667380Y-98666666D01*
X124667380Y-98666666D02*
X124715000Y-98809523D01*
X124715000Y-98809523D02*
X124762619Y-98857142D01*
X124667380Y-99190476D02*
X124667380Y-99809523D01*
X124667380Y-99809523D02*
X125048333Y-99476190D01*
X125048333Y-99476190D02*
X125048333Y-99619047D01*
X125048333Y-99619047D02*
X125095952Y-99714285D01*
X125095952Y-99714285D02*
X125143571Y-99761904D01*
X125143571Y-99761904D02*
X125238809Y-99809523D01*
X125238809Y-99809523D02*
X125476904Y-99809523D01*
X125476904Y-99809523D02*
X125572142Y-99761904D01*
X125572142Y-99761904D02*
X125619761Y-99714285D01*
X125619761Y-99714285D02*
X125667380Y-99619047D01*
X125667380Y-99619047D02*
X125667380Y-99333333D01*
X125667380Y-99333333D02*
X125619761Y-99238095D01*
X125619761Y-99238095D02*
X125572142Y-99190476D01*
X124667380Y-100428571D02*
X124667380Y-100523809D01*
X124667380Y-100523809D02*
X124715000Y-100619047D01*
X124715000Y-100619047D02*
X124762619Y-100666666D01*
X124762619Y-100666666D02*
X124857857Y-100714285D01*
X124857857Y-100714285D02*
X125048333Y-100761904D01*
X125048333Y-100761904D02*
X125286428Y-100761904D01*
X125286428Y-100761904D02*
X125476904Y-100714285D01*
X125476904Y-100714285D02*
X125572142Y-100666666D01*
X125572142Y-100666666D02*
X125619761Y-100619047D01*
X125619761Y-100619047D02*
X125667380Y-100523809D01*
X125667380Y-100523809D02*
X125667380Y-100428571D01*
X125667380Y-100428571D02*
X125619761Y-100333333D01*
X125619761Y-100333333D02*
X125572142Y-100285714D01*
X125572142Y-100285714D02*
X125476904Y-100238095D01*
X125476904Y-100238095D02*
X125286428Y-100190476D01*
X125286428Y-100190476D02*
X125048333Y-100190476D01*
X125048333Y-100190476D02*
X124857857Y-100238095D01*
X124857857Y-100238095D02*
X124762619Y-100285714D01*
X124762619Y-100285714D02*
X124715000Y-100333333D01*
X124715000Y-100333333D02*
X124667380Y-100428571D01*
X144947142Y-91857142D02*
X144994761Y-91809523D01*
X144994761Y-91809523D02*
X145042380Y-91666666D01*
X145042380Y-91666666D02*
X145042380Y-91571428D01*
X145042380Y-91571428D02*
X144994761Y-91428571D01*
X144994761Y-91428571D02*
X144899523Y-91333333D01*
X144899523Y-91333333D02*
X144804285Y-91285714D01*
X144804285Y-91285714D02*
X144613809Y-91238095D01*
X144613809Y-91238095D02*
X144470952Y-91238095D01*
X144470952Y-91238095D02*
X144280476Y-91285714D01*
X144280476Y-91285714D02*
X144185238Y-91333333D01*
X144185238Y-91333333D02*
X144090000Y-91428571D01*
X144090000Y-91428571D02*
X144042380Y-91571428D01*
X144042380Y-91571428D02*
X144042380Y-91666666D01*
X144042380Y-91666666D02*
X144090000Y-91809523D01*
X144090000Y-91809523D02*
X144137619Y-91857142D01*
X144375714Y-92714285D02*
X145042380Y-92714285D01*
X143994761Y-92476190D02*
X144709047Y-92238095D01*
X144709047Y-92238095D02*
X144709047Y-92857142D01*
X144042380Y-93714285D02*
X144042380Y-93238095D01*
X144042380Y-93238095D02*
X144518571Y-93190476D01*
X144518571Y-93190476D02*
X144470952Y-93238095D01*
X144470952Y-93238095D02*
X144423333Y-93333333D01*
X144423333Y-93333333D02*
X144423333Y-93571428D01*
X144423333Y-93571428D02*
X144470952Y-93666666D01*
X144470952Y-93666666D02*
X144518571Y-93714285D01*
X144518571Y-93714285D02*
X144613809Y-93761904D01*
X144613809Y-93761904D02*
X144851904Y-93761904D01*
X144851904Y-93761904D02*
X144947142Y-93714285D01*
X144947142Y-93714285D02*
X144994761Y-93666666D01*
X144994761Y-93666666D02*
X145042380Y-93571428D01*
X145042380Y-93571428D02*
X145042380Y-93333333D01*
X145042380Y-93333333D02*
X144994761Y-93238095D01*
X144994761Y-93238095D02*
X144947142Y-93190476D01*
X143022142Y-100357142D02*
X143069761Y-100309523D01*
X143069761Y-100309523D02*
X143117380Y-100166666D01*
X143117380Y-100166666D02*
X143117380Y-100071428D01*
X143117380Y-100071428D02*
X143069761Y-99928571D01*
X143069761Y-99928571D02*
X142974523Y-99833333D01*
X142974523Y-99833333D02*
X142879285Y-99785714D01*
X142879285Y-99785714D02*
X142688809Y-99738095D01*
X142688809Y-99738095D02*
X142545952Y-99738095D01*
X142545952Y-99738095D02*
X142355476Y-99785714D01*
X142355476Y-99785714D02*
X142260238Y-99833333D01*
X142260238Y-99833333D02*
X142165000Y-99928571D01*
X142165000Y-99928571D02*
X142117380Y-100071428D01*
X142117380Y-100071428D02*
X142117380Y-100166666D01*
X142117380Y-100166666D02*
X142165000Y-100309523D01*
X142165000Y-100309523D02*
X142212619Y-100357142D01*
X143117380Y-101309523D02*
X143117380Y-100738095D01*
X143117380Y-101023809D02*
X142117380Y-101023809D01*
X142117380Y-101023809D02*
X142260238Y-100928571D01*
X142260238Y-100928571D02*
X142355476Y-100833333D01*
X142355476Y-100833333D02*
X142403095Y-100738095D01*
X142212619Y-101690476D02*
X142165000Y-101738095D01*
X142165000Y-101738095D02*
X142117380Y-101833333D01*
X142117380Y-101833333D02*
X142117380Y-102071428D01*
X142117380Y-102071428D02*
X142165000Y-102166666D01*
X142165000Y-102166666D02*
X142212619Y-102214285D01*
X142212619Y-102214285D02*
X142307857Y-102261904D01*
X142307857Y-102261904D02*
X142403095Y-102261904D01*
X142403095Y-102261904D02*
X142545952Y-102214285D01*
X142545952Y-102214285D02*
X143117380Y-101642857D01*
X143117380Y-101642857D02*
X143117380Y-102261904D01*
X160367857Y-87842380D02*
X160701190Y-87366190D01*
X160939285Y-87842380D02*
X160939285Y-86842380D01*
X160939285Y-86842380D02*
X160558333Y-86842380D01*
X160558333Y-86842380D02*
X160463095Y-86890000D01*
X160463095Y-86890000D02*
X160415476Y-86937619D01*
X160415476Y-86937619D02*
X160367857Y-87032857D01*
X160367857Y-87032857D02*
X160367857Y-87175714D01*
X160367857Y-87175714D02*
X160415476Y-87270952D01*
X160415476Y-87270952D02*
X160463095Y-87318571D01*
X160463095Y-87318571D02*
X160558333Y-87366190D01*
X160558333Y-87366190D02*
X160939285Y-87366190D01*
X159415476Y-87842380D02*
X159986904Y-87842380D01*
X159701190Y-87842380D02*
X159701190Y-86842380D01*
X159701190Y-86842380D02*
X159796428Y-86985238D01*
X159796428Y-86985238D02*
X159891666Y-87080476D01*
X159891666Y-87080476D02*
X159986904Y-87128095D01*
X158844047Y-87270952D02*
X158939285Y-87223333D01*
X158939285Y-87223333D02*
X158986904Y-87175714D01*
X158986904Y-87175714D02*
X159034523Y-87080476D01*
X159034523Y-87080476D02*
X159034523Y-87032857D01*
X159034523Y-87032857D02*
X158986904Y-86937619D01*
X158986904Y-86937619D02*
X158939285Y-86890000D01*
X158939285Y-86890000D02*
X158844047Y-86842380D01*
X158844047Y-86842380D02*
X158653571Y-86842380D01*
X158653571Y-86842380D02*
X158558333Y-86890000D01*
X158558333Y-86890000D02*
X158510714Y-86937619D01*
X158510714Y-86937619D02*
X158463095Y-87032857D01*
X158463095Y-87032857D02*
X158463095Y-87080476D01*
X158463095Y-87080476D02*
X158510714Y-87175714D01*
X158510714Y-87175714D02*
X158558333Y-87223333D01*
X158558333Y-87223333D02*
X158653571Y-87270952D01*
X158653571Y-87270952D02*
X158844047Y-87270952D01*
X158844047Y-87270952D02*
X158939285Y-87318571D01*
X158939285Y-87318571D02*
X158986904Y-87366190D01*
X158986904Y-87366190D02*
X159034523Y-87461428D01*
X159034523Y-87461428D02*
X159034523Y-87651904D01*
X159034523Y-87651904D02*
X158986904Y-87747142D01*
X158986904Y-87747142D02*
X158939285Y-87794761D01*
X158939285Y-87794761D02*
X158844047Y-87842380D01*
X158844047Y-87842380D02*
X158653571Y-87842380D01*
X158653571Y-87842380D02*
X158558333Y-87794761D01*
X158558333Y-87794761D02*
X158510714Y-87747142D01*
X158510714Y-87747142D02*
X158463095Y-87651904D01*
X158463095Y-87651904D02*
X158463095Y-87461428D01*
X158463095Y-87461428D02*
X158510714Y-87366190D01*
X158510714Y-87366190D02*
X158558333Y-87318571D01*
X158558333Y-87318571D02*
X158653571Y-87270952D01*
X122497142Y-81532142D02*
X122544761Y-81484523D01*
X122544761Y-81484523D02*
X122592380Y-81341666D01*
X122592380Y-81341666D02*
X122592380Y-81246428D01*
X122592380Y-81246428D02*
X122544761Y-81103571D01*
X122544761Y-81103571D02*
X122449523Y-81008333D01*
X122449523Y-81008333D02*
X122354285Y-80960714D01*
X122354285Y-80960714D02*
X122163809Y-80913095D01*
X122163809Y-80913095D02*
X122020952Y-80913095D01*
X122020952Y-80913095D02*
X121830476Y-80960714D01*
X121830476Y-80960714D02*
X121735238Y-81008333D01*
X121735238Y-81008333D02*
X121640000Y-81103571D01*
X121640000Y-81103571D02*
X121592380Y-81246428D01*
X121592380Y-81246428D02*
X121592380Y-81341666D01*
X121592380Y-81341666D02*
X121640000Y-81484523D01*
X121640000Y-81484523D02*
X121687619Y-81532142D01*
X121687619Y-81913095D02*
X121640000Y-81960714D01*
X121640000Y-81960714D02*
X121592380Y-82055952D01*
X121592380Y-82055952D02*
X121592380Y-82294047D01*
X121592380Y-82294047D02*
X121640000Y-82389285D01*
X121640000Y-82389285D02*
X121687619Y-82436904D01*
X121687619Y-82436904D02*
X121782857Y-82484523D01*
X121782857Y-82484523D02*
X121878095Y-82484523D01*
X121878095Y-82484523D02*
X122020952Y-82436904D01*
X122020952Y-82436904D02*
X122592380Y-81865476D01*
X122592380Y-81865476D02*
X122592380Y-82484523D01*
X121592380Y-83341666D02*
X121592380Y-83151190D01*
X121592380Y-83151190D02*
X121640000Y-83055952D01*
X121640000Y-83055952D02*
X121687619Y-83008333D01*
X121687619Y-83008333D02*
X121830476Y-82913095D01*
X121830476Y-82913095D02*
X122020952Y-82865476D01*
X122020952Y-82865476D02*
X122401904Y-82865476D01*
X122401904Y-82865476D02*
X122497142Y-82913095D01*
X122497142Y-82913095D02*
X122544761Y-82960714D01*
X122544761Y-82960714D02*
X122592380Y-83055952D01*
X122592380Y-83055952D02*
X122592380Y-83246428D01*
X122592380Y-83246428D02*
X122544761Y-83341666D01*
X122544761Y-83341666D02*
X122497142Y-83389285D01*
X122497142Y-83389285D02*
X122401904Y-83436904D01*
X122401904Y-83436904D02*
X122163809Y-83436904D01*
X122163809Y-83436904D02*
X122068571Y-83389285D01*
X122068571Y-83389285D02*
X122020952Y-83341666D01*
X122020952Y-83341666D02*
X121973333Y-83246428D01*
X121973333Y-83246428D02*
X121973333Y-83055952D01*
X121973333Y-83055952D02*
X122020952Y-82960714D01*
X122020952Y-82960714D02*
X122068571Y-82913095D01*
X122068571Y-82913095D02*
X122163809Y-82865476D01*
X145647142Y-101333333D02*
X145694761Y-101285714D01*
X145694761Y-101285714D02*
X145742380Y-101142857D01*
X145742380Y-101142857D02*
X145742380Y-101047619D01*
X145742380Y-101047619D02*
X145694761Y-100904762D01*
X145694761Y-100904762D02*
X145599523Y-100809524D01*
X145599523Y-100809524D02*
X145504285Y-100761905D01*
X145504285Y-100761905D02*
X145313809Y-100714286D01*
X145313809Y-100714286D02*
X145170952Y-100714286D01*
X145170952Y-100714286D02*
X144980476Y-100761905D01*
X144980476Y-100761905D02*
X144885238Y-100809524D01*
X144885238Y-100809524D02*
X144790000Y-100904762D01*
X144790000Y-100904762D02*
X144742380Y-101047619D01*
X144742380Y-101047619D02*
X144742380Y-101142857D01*
X144742380Y-101142857D02*
X144790000Y-101285714D01*
X144790000Y-101285714D02*
X144837619Y-101333333D01*
X145742380Y-101809524D02*
X145742380Y-102000000D01*
X145742380Y-102000000D02*
X145694761Y-102095238D01*
X145694761Y-102095238D02*
X145647142Y-102142857D01*
X145647142Y-102142857D02*
X145504285Y-102238095D01*
X145504285Y-102238095D02*
X145313809Y-102285714D01*
X145313809Y-102285714D02*
X144932857Y-102285714D01*
X144932857Y-102285714D02*
X144837619Y-102238095D01*
X144837619Y-102238095D02*
X144790000Y-102190476D01*
X144790000Y-102190476D02*
X144742380Y-102095238D01*
X144742380Y-102095238D02*
X144742380Y-101904762D01*
X144742380Y-101904762D02*
X144790000Y-101809524D01*
X144790000Y-101809524D02*
X144837619Y-101761905D01*
X144837619Y-101761905D02*
X144932857Y-101714286D01*
X144932857Y-101714286D02*
X145170952Y-101714286D01*
X145170952Y-101714286D02*
X145266190Y-101761905D01*
X145266190Y-101761905D02*
X145313809Y-101809524D01*
X145313809Y-101809524D02*
X145361428Y-101904762D01*
X145361428Y-101904762D02*
X145361428Y-102095238D01*
X145361428Y-102095238D02*
X145313809Y-102190476D01*
X145313809Y-102190476D02*
X145266190Y-102238095D01*
X145266190Y-102238095D02*
X145170952Y-102285714D01*
X138922142Y-77482142D02*
X138969761Y-77434523D01*
X138969761Y-77434523D02*
X139017380Y-77291666D01*
X139017380Y-77291666D02*
X139017380Y-77196428D01*
X139017380Y-77196428D02*
X138969761Y-77053571D01*
X138969761Y-77053571D02*
X138874523Y-76958333D01*
X138874523Y-76958333D02*
X138779285Y-76910714D01*
X138779285Y-76910714D02*
X138588809Y-76863095D01*
X138588809Y-76863095D02*
X138445952Y-76863095D01*
X138445952Y-76863095D02*
X138255476Y-76910714D01*
X138255476Y-76910714D02*
X138160238Y-76958333D01*
X138160238Y-76958333D02*
X138065000Y-77053571D01*
X138065000Y-77053571D02*
X138017380Y-77196428D01*
X138017380Y-77196428D02*
X138017380Y-77291666D01*
X138017380Y-77291666D02*
X138065000Y-77434523D01*
X138065000Y-77434523D02*
X138112619Y-77482142D01*
X138112619Y-77863095D02*
X138065000Y-77910714D01*
X138065000Y-77910714D02*
X138017380Y-78005952D01*
X138017380Y-78005952D02*
X138017380Y-78244047D01*
X138017380Y-78244047D02*
X138065000Y-78339285D01*
X138065000Y-78339285D02*
X138112619Y-78386904D01*
X138112619Y-78386904D02*
X138207857Y-78434523D01*
X138207857Y-78434523D02*
X138303095Y-78434523D01*
X138303095Y-78434523D02*
X138445952Y-78386904D01*
X138445952Y-78386904D02*
X139017380Y-77815476D01*
X139017380Y-77815476D02*
X139017380Y-78434523D01*
X138112619Y-78815476D02*
X138065000Y-78863095D01*
X138065000Y-78863095D02*
X138017380Y-78958333D01*
X138017380Y-78958333D02*
X138017380Y-79196428D01*
X138017380Y-79196428D02*
X138065000Y-79291666D01*
X138065000Y-79291666D02*
X138112619Y-79339285D01*
X138112619Y-79339285D02*
X138207857Y-79386904D01*
X138207857Y-79386904D02*
X138303095Y-79386904D01*
X138303095Y-79386904D02*
X138445952Y-79339285D01*
X138445952Y-79339285D02*
X139017380Y-78767857D01*
X139017380Y-78767857D02*
X139017380Y-79386904D01*
X128417857Y-94497142D02*
X128465476Y-94544761D01*
X128465476Y-94544761D02*
X128608333Y-94592380D01*
X128608333Y-94592380D02*
X128703571Y-94592380D01*
X128703571Y-94592380D02*
X128846428Y-94544761D01*
X128846428Y-94544761D02*
X128941666Y-94449523D01*
X128941666Y-94449523D02*
X128989285Y-94354285D01*
X128989285Y-94354285D02*
X129036904Y-94163809D01*
X129036904Y-94163809D02*
X129036904Y-94020952D01*
X129036904Y-94020952D02*
X128989285Y-93830476D01*
X128989285Y-93830476D02*
X128941666Y-93735238D01*
X128941666Y-93735238D02*
X128846428Y-93640000D01*
X128846428Y-93640000D02*
X128703571Y-93592380D01*
X128703571Y-93592380D02*
X128608333Y-93592380D01*
X128608333Y-93592380D02*
X128465476Y-93640000D01*
X128465476Y-93640000D02*
X128417857Y-93687619D01*
X128036904Y-93687619D02*
X127989285Y-93640000D01*
X127989285Y-93640000D02*
X127894047Y-93592380D01*
X127894047Y-93592380D02*
X127655952Y-93592380D01*
X127655952Y-93592380D02*
X127560714Y-93640000D01*
X127560714Y-93640000D02*
X127513095Y-93687619D01*
X127513095Y-93687619D02*
X127465476Y-93782857D01*
X127465476Y-93782857D02*
X127465476Y-93878095D01*
X127465476Y-93878095D02*
X127513095Y-94020952D01*
X127513095Y-94020952D02*
X128084523Y-94592380D01*
X128084523Y-94592380D02*
X127465476Y-94592380D01*
X126846428Y-93592380D02*
X126751190Y-93592380D01*
X126751190Y-93592380D02*
X126655952Y-93640000D01*
X126655952Y-93640000D02*
X126608333Y-93687619D01*
X126608333Y-93687619D02*
X126560714Y-93782857D01*
X126560714Y-93782857D02*
X126513095Y-93973333D01*
X126513095Y-93973333D02*
X126513095Y-94211428D01*
X126513095Y-94211428D02*
X126560714Y-94401904D01*
X126560714Y-94401904D02*
X126608333Y-94497142D01*
X126608333Y-94497142D02*
X126655952Y-94544761D01*
X126655952Y-94544761D02*
X126751190Y-94592380D01*
X126751190Y-94592380D02*
X126846428Y-94592380D01*
X126846428Y-94592380D02*
X126941666Y-94544761D01*
X126941666Y-94544761D02*
X126989285Y-94497142D01*
X126989285Y-94497142D02*
X127036904Y-94401904D01*
X127036904Y-94401904D02*
X127084523Y-94211428D01*
X127084523Y-94211428D02*
X127084523Y-93973333D01*
X127084523Y-93973333D02*
X127036904Y-93782857D01*
X127036904Y-93782857D02*
X126989285Y-93687619D01*
X126989285Y-93687619D02*
X126941666Y-93640000D01*
X126941666Y-93640000D02*
X126846428Y-93592380D01*
X147547142Y-101583333D02*
X147594761Y-101535714D01*
X147594761Y-101535714D02*
X147642380Y-101392857D01*
X147642380Y-101392857D02*
X147642380Y-101297619D01*
X147642380Y-101297619D02*
X147594761Y-101154762D01*
X147594761Y-101154762D02*
X147499523Y-101059524D01*
X147499523Y-101059524D02*
X147404285Y-101011905D01*
X147404285Y-101011905D02*
X147213809Y-100964286D01*
X147213809Y-100964286D02*
X147070952Y-100964286D01*
X147070952Y-100964286D02*
X146880476Y-101011905D01*
X146880476Y-101011905D02*
X146785238Y-101059524D01*
X146785238Y-101059524D02*
X146690000Y-101154762D01*
X146690000Y-101154762D02*
X146642380Y-101297619D01*
X146642380Y-101297619D02*
X146642380Y-101392857D01*
X146642380Y-101392857D02*
X146690000Y-101535714D01*
X146690000Y-101535714D02*
X146737619Y-101583333D01*
X146642380Y-101916667D02*
X146642380Y-102583333D01*
X146642380Y-102583333D02*
X147642380Y-102154762D01*
X137883333Y-108797380D02*
X137883333Y-109511666D01*
X137883333Y-109511666D02*
X137930952Y-109654523D01*
X137930952Y-109654523D02*
X138026190Y-109749761D01*
X138026190Y-109749761D02*
X138169047Y-109797380D01*
X138169047Y-109797380D02*
X138264285Y-109797380D01*
X136978571Y-109130714D02*
X136978571Y-109797380D01*
X137216666Y-108749761D02*
X137454761Y-109464047D01*
X137454761Y-109464047D02*
X136835714Y-109464047D01*
X123197142Y-98857142D02*
X123244761Y-98809523D01*
X123244761Y-98809523D02*
X123292380Y-98666666D01*
X123292380Y-98666666D02*
X123292380Y-98571428D01*
X123292380Y-98571428D02*
X123244761Y-98428571D01*
X123244761Y-98428571D02*
X123149523Y-98333333D01*
X123149523Y-98333333D02*
X123054285Y-98285714D01*
X123054285Y-98285714D02*
X122863809Y-98238095D01*
X122863809Y-98238095D02*
X122720952Y-98238095D01*
X122720952Y-98238095D02*
X122530476Y-98285714D01*
X122530476Y-98285714D02*
X122435238Y-98333333D01*
X122435238Y-98333333D02*
X122340000Y-98428571D01*
X122340000Y-98428571D02*
X122292380Y-98571428D01*
X122292380Y-98571428D02*
X122292380Y-98666666D01*
X122292380Y-98666666D02*
X122340000Y-98809523D01*
X122340000Y-98809523D02*
X122387619Y-98857142D01*
X122387619Y-99238095D02*
X122340000Y-99285714D01*
X122340000Y-99285714D02*
X122292380Y-99380952D01*
X122292380Y-99380952D02*
X122292380Y-99619047D01*
X122292380Y-99619047D02*
X122340000Y-99714285D01*
X122340000Y-99714285D02*
X122387619Y-99761904D01*
X122387619Y-99761904D02*
X122482857Y-99809523D01*
X122482857Y-99809523D02*
X122578095Y-99809523D01*
X122578095Y-99809523D02*
X122720952Y-99761904D01*
X122720952Y-99761904D02*
X123292380Y-99190476D01*
X123292380Y-99190476D02*
X123292380Y-99809523D01*
X122720952Y-100380952D02*
X122673333Y-100285714D01*
X122673333Y-100285714D02*
X122625714Y-100238095D01*
X122625714Y-100238095D02*
X122530476Y-100190476D01*
X122530476Y-100190476D02*
X122482857Y-100190476D01*
X122482857Y-100190476D02*
X122387619Y-100238095D01*
X122387619Y-100238095D02*
X122340000Y-100285714D01*
X122340000Y-100285714D02*
X122292380Y-100380952D01*
X122292380Y-100380952D02*
X122292380Y-100571428D01*
X122292380Y-100571428D02*
X122340000Y-100666666D01*
X122340000Y-100666666D02*
X122387619Y-100714285D01*
X122387619Y-100714285D02*
X122482857Y-100761904D01*
X122482857Y-100761904D02*
X122530476Y-100761904D01*
X122530476Y-100761904D02*
X122625714Y-100714285D01*
X122625714Y-100714285D02*
X122673333Y-100666666D01*
X122673333Y-100666666D02*
X122720952Y-100571428D01*
X122720952Y-100571428D02*
X122720952Y-100380952D01*
X122720952Y-100380952D02*
X122768571Y-100285714D01*
X122768571Y-100285714D02*
X122816190Y-100238095D01*
X122816190Y-100238095D02*
X122911428Y-100190476D01*
X122911428Y-100190476D02*
X123101904Y-100190476D01*
X123101904Y-100190476D02*
X123197142Y-100238095D01*
X123197142Y-100238095D02*
X123244761Y-100285714D01*
X123244761Y-100285714D02*
X123292380Y-100380952D01*
X123292380Y-100380952D02*
X123292380Y-100571428D01*
X123292380Y-100571428D02*
X123244761Y-100666666D01*
X123244761Y-100666666D02*
X123197142Y-100714285D01*
X123197142Y-100714285D02*
X123101904Y-100761904D01*
X123101904Y-100761904D02*
X122911428Y-100761904D01*
X122911428Y-100761904D02*
X122816190Y-100714285D01*
X122816190Y-100714285D02*
X122768571Y-100666666D01*
X122768571Y-100666666D02*
X122720952Y-100571428D01*
X139967857Y-76322142D02*
X140015476Y-76369761D01*
X140015476Y-76369761D02*
X140158333Y-76417380D01*
X140158333Y-76417380D02*
X140253571Y-76417380D01*
X140253571Y-76417380D02*
X140396428Y-76369761D01*
X140396428Y-76369761D02*
X140491666Y-76274523D01*
X140491666Y-76274523D02*
X140539285Y-76179285D01*
X140539285Y-76179285D02*
X140586904Y-75988809D01*
X140586904Y-75988809D02*
X140586904Y-75845952D01*
X140586904Y-75845952D02*
X140539285Y-75655476D01*
X140539285Y-75655476D02*
X140491666Y-75560238D01*
X140491666Y-75560238D02*
X140396428Y-75465000D01*
X140396428Y-75465000D02*
X140253571Y-75417380D01*
X140253571Y-75417380D02*
X140158333Y-75417380D01*
X140158333Y-75417380D02*
X140015476Y-75465000D01*
X140015476Y-75465000D02*
X139967857Y-75512619D01*
X139586904Y-75512619D02*
X139539285Y-75465000D01*
X139539285Y-75465000D02*
X139444047Y-75417380D01*
X139444047Y-75417380D02*
X139205952Y-75417380D01*
X139205952Y-75417380D02*
X139110714Y-75465000D01*
X139110714Y-75465000D02*
X139063095Y-75512619D01*
X139063095Y-75512619D02*
X139015476Y-75607857D01*
X139015476Y-75607857D02*
X139015476Y-75703095D01*
X139015476Y-75703095D02*
X139063095Y-75845952D01*
X139063095Y-75845952D02*
X139634523Y-76417380D01*
X139634523Y-76417380D02*
X139015476Y-76417380D01*
X138682142Y-75417380D02*
X138063095Y-75417380D01*
X138063095Y-75417380D02*
X138396428Y-75798333D01*
X138396428Y-75798333D02*
X138253571Y-75798333D01*
X138253571Y-75798333D02*
X138158333Y-75845952D01*
X138158333Y-75845952D02*
X138110714Y-75893571D01*
X138110714Y-75893571D02*
X138063095Y-75988809D01*
X138063095Y-75988809D02*
X138063095Y-76226904D01*
X138063095Y-76226904D02*
X138110714Y-76322142D01*
X138110714Y-76322142D02*
X138158333Y-76369761D01*
X138158333Y-76369761D02*
X138253571Y-76417380D01*
X138253571Y-76417380D02*
X138539285Y-76417380D01*
X138539285Y-76417380D02*
X138634523Y-76369761D01*
X138634523Y-76369761D02*
X138682142Y-76322142D01*
X135913094Y-86617380D02*
X135913094Y-85617380D01*
X135913094Y-85617380D02*
X135674999Y-85617380D01*
X135674999Y-85617380D02*
X135532142Y-85665000D01*
X135532142Y-85665000D02*
X135436904Y-85760238D01*
X135436904Y-85760238D02*
X135389285Y-85855476D01*
X135389285Y-85855476D02*
X135341666Y-86045952D01*
X135341666Y-86045952D02*
X135341666Y-86188809D01*
X135341666Y-86188809D02*
X135389285Y-86379285D01*
X135389285Y-86379285D02*
X135436904Y-86474523D01*
X135436904Y-86474523D02*
X135532142Y-86569761D01*
X135532142Y-86569761D02*
X135674999Y-86617380D01*
X135674999Y-86617380D02*
X135913094Y-86617380D01*
X134960713Y-85712619D02*
X134913094Y-85665000D01*
X134913094Y-85665000D02*
X134817856Y-85617380D01*
X134817856Y-85617380D02*
X134579761Y-85617380D01*
X134579761Y-85617380D02*
X134484523Y-85665000D01*
X134484523Y-85665000D02*
X134436904Y-85712619D01*
X134436904Y-85712619D02*
X134389285Y-85807857D01*
X134389285Y-85807857D02*
X134389285Y-85903095D01*
X134389285Y-85903095D02*
X134436904Y-86045952D01*
X134436904Y-86045952D02*
X135008332Y-86617380D01*
X135008332Y-86617380D02*
X134389285Y-86617380D01*
X136072142Y-99032142D02*
X136119761Y-98984523D01*
X136119761Y-98984523D02*
X136167380Y-98841666D01*
X136167380Y-98841666D02*
X136167380Y-98746428D01*
X136167380Y-98746428D02*
X136119761Y-98603571D01*
X136119761Y-98603571D02*
X136024523Y-98508333D01*
X136024523Y-98508333D02*
X135929285Y-98460714D01*
X135929285Y-98460714D02*
X135738809Y-98413095D01*
X135738809Y-98413095D02*
X135595952Y-98413095D01*
X135595952Y-98413095D02*
X135405476Y-98460714D01*
X135405476Y-98460714D02*
X135310238Y-98508333D01*
X135310238Y-98508333D02*
X135215000Y-98603571D01*
X135215000Y-98603571D02*
X135167380Y-98746428D01*
X135167380Y-98746428D02*
X135167380Y-98841666D01*
X135167380Y-98841666D02*
X135215000Y-98984523D01*
X135215000Y-98984523D02*
X135262619Y-99032142D01*
X135500714Y-99889285D02*
X136167380Y-99889285D01*
X135119761Y-99651190D02*
X135834047Y-99413095D01*
X135834047Y-99413095D02*
X135834047Y-100032142D01*
X135262619Y-100365476D02*
X135215000Y-100413095D01*
X135215000Y-100413095D02*
X135167380Y-100508333D01*
X135167380Y-100508333D02*
X135167380Y-100746428D01*
X135167380Y-100746428D02*
X135215000Y-100841666D01*
X135215000Y-100841666D02*
X135262619Y-100889285D01*
X135262619Y-100889285D02*
X135357857Y-100936904D01*
X135357857Y-100936904D02*
X135453095Y-100936904D01*
X135453095Y-100936904D02*
X135595952Y-100889285D01*
X135595952Y-100889285D02*
X136167380Y-100317857D01*
X136167380Y-100317857D02*
X136167380Y-100936904D01*
X131672142Y-78857142D02*
X131719761Y-78809523D01*
X131719761Y-78809523D02*
X131767380Y-78666666D01*
X131767380Y-78666666D02*
X131767380Y-78571428D01*
X131767380Y-78571428D02*
X131719761Y-78428571D01*
X131719761Y-78428571D02*
X131624523Y-78333333D01*
X131624523Y-78333333D02*
X131529285Y-78285714D01*
X131529285Y-78285714D02*
X131338809Y-78238095D01*
X131338809Y-78238095D02*
X131195952Y-78238095D01*
X131195952Y-78238095D02*
X131005476Y-78285714D01*
X131005476Y-78285714D02*
X130910238Y-78333333D01*
X130910238Y-78333333D02*
X130815000Y-78428571D01*
X130815000Y-78428571D02*
X130767380Y-78571428D01*
X130767380Y-78571428D02*
X130767380Y-78666666D01*
X130767380Y-78666666D02*
X130815000Y-78809523D01*
X130815000Y-78809523D02*
X130862619Y-78857142D01*
X130767380Y-79190476D02*
X130767380Y-79809523D01*
X130767380Y-79809523D02*
X131148333Y-79476190D01*
X131148333Y-79476190D02*
X131148333Y-79619047D01*
X131148333Y-79619047D02*
X131195952Y-79714285D01*
X131195952Y-79714285D02*
X131243571Y-79761904D01*
X131243571Y-79761904D02*
X131338809Y-79809523D01*
X131338809Y-79809523D02*
X131576904Y-79809523D01*
X131576904Y-79809523D02*
X131672142Y-79761904D01*
X131672142Y-79761904D02*
X131719761Y-79714285D01*
X131719761Y-79714285D02*
X131767380Y-79619047D01*
X131767380Y-79619047D02*
X131767380Y-79333333D01*
X131767380Y-79333333D02*
X131719761Y-79238095D01*
X131719761Y-79238095D02*
X131672142Y-79190476D01*
X131767380Y-80761904D02*
X131767380Y-80190476D01*
X131767380Y-80476190D02*
X130767380Y-80476190D01*
X130767380Y-80476190D02*
X130910238Y-80380952D01*
X130910238Y-80380952D02*
X131005476Y-80285714D01*
X131005476Y-80285714D02*
X131053095Y-80190476D01*
X149685427Y-71921668D02*
X149373046Y-71431477D01*
X149904103Y-71393736D02*
X148980224Y-71011053D01*
X148980224Y-71011053D02*
X148834440Y-71363007D01*
X148834440Y-71363007D02*
X148841988Y-71469219D01*
X148841988Y-71469219D02*
X148867759Y-71531436D01*
X148867759Y-71531436D02*
X148937525Y-71611876D01*
X148937525Y-71611876D02*
X149069507Y-71666545D01*
X149069507Y-71666545D02*
X149175719Y-71658997D01*
X149175719Y-71658997D02*
X149237936Y-71633226D01*
X149237936Y-71633226D02*
X149318376Y-71563460D01*
X149318376Y-71563460D02*
X149464161Y-71211506D01*
X149320967Y-72801553D02*
X149539643Y-72273622D01*
X149430305Y-72537587D02*
X148506425Y-72154904D01*
X148506425Y-72154904D02*
X148674854Y-72121584D01*
X148674854Y-72121584D02*
X148799289Y-72070042D01*
X148799289Y-72070042D02*
X148879729Y-72000276D01*
X148069073Y-73210766D02*
X148141965Y-73034789D01*
X148141965Y-73034789D02*
X148222405Y-72965024D01*
X148222405Y-72965024D02*
X148284622Y-72939252D01*
X148284622Y-72939252D02*
X148453051Y-72905933D01*
X148453051Y-72905933D02*
X148647251Y-72934831D01*
X148647251Y-72934831D02*
X148999205Y-73080615D01*
X148999205Y-73080615D02*
X149068971Y-73161055D01*
X149068971Y-73161055D02*
X149094742Y-73223272D01*
X149094742Y-73223272D02*
X149102290Y-73329484D01*
X149102290Y-73329484D02*
X149029398Y-73505461D01*
X149029398Y-73505461D02*
X148948958Y-73575227D01*
X148948958Y-73575227D02*
X148886741Y-73600998D01*
X148886741Y-73600998D02*
X148780529Y-73608546D01*
X148780529Y-73608546D02*
X148560558Y-73517431D01*
X148560558Y-73517431D02*
X148490792Y-73436991D01*
X148490792Y-73436991D02*
X148465021Y-73374773D01*
X148465021Y-73374773D02*
X148457473Y-73268562D01*
X148457473Y-73268562D02*
X148530365Y-73092585D01*
X148530365Y-73092585D02*
X148610805Y-73022819D01*
X148610805Y-73022819D02*
X148673023Y-72997048D01*
X148673023Y-72997048D02*
X148779234Y-72989500D01*
X130817857Y-107122142D02*
X130865476Y-107169761D01*
X130865476Y-107169761D02*
X131008333Y-107217380D01*
X131008333Y-107217380D02*
X131103571Y-107217380D01*
X131103571Y-107217380D02*
X131246428Y-107169761D01*
X131246428Y-107169761D02*
X131341666Y-107074523D01*
X131341666Y-107074523D02*
X131389285Y-106979285D01*
X131389285Y-106979285D02*
X131436904Y-106788809D01*
X131436904Y-106788809D02*
X131436904Y-106645952D01*
X131436904Y-106645952D02*
X131389285Y-106455476D01*
X131389285Y-106455476D02*
X131341666Y-106360238D01*
X131341666Y-106360238D02*
X131246428Y-106265000D01*
X131246428Y-106265000D02*
X131103571Y-106217380D01*
X131103571Y-106217380D02*
X131008333Y-106217380D01*
X131008333Y-106217380D02*
X130865476Y-106265000D01*
X130865476Y-106265000D02*
X130817857Y-106312619D01*
X130484523Y-106217380D02*
X129865476Y-106217380D01*
X129865476Y-106217380D02*
X130198809Y-106598333D01*
X130198809Y-106598333D02*
X130055952Y-106598333D01*
X130055952Y-106598333D02*
X129960714Y-106645952D01*
X129960714Y-106645952D02*
X129913095Y-106693571D01*
X129913095Y-106693571D02*
X129865476Y-106788809D01*
X129865476Y-106788809D02*
X129865476Y-107026904D01*
X129865476Y-107026904D02*
X129913095Y-107122142D01*
X129913095Y-107122142D02*
X129960714Y-107169761D01*
X129960714Y-107169761D02*
X130055952Y-107217380D01*
X130055952Y-107217380D02*
X130341666Y-107217380D01*
X130341666Y-107217380D02*
X130436904Y-107169761D01*
X130436904Y-107169761D02*
X130484523Y-107122142D01*
X129484523Y-106312619D02*
X129436904Y-106265000D01*
X129436904Y-106265000D02*
X129341666Y-106217380D01*
X129341666Y-106217380D02*
X129103571Y-106217380D01*
X129103571Y-106217380D02*
X129008333Y-106265000D01*
X129008333Y-106265000D02*
X128960714Y-106312619D01*
X128960714Y-106312619D02*
X128913095Y-106407857D01*
X128913095Y-106407857D02*
X128913095Y-106503095D01*
X128913095Y-106503095D02*
X128960714Y-106645952D01*
X128960714Y-106645952D02*
X129532142Y-107217380D01*
X129532142Y-107217380D02*
X128913095Y-107217380D01*
X128242380Y-104557142D02*
X127766190Y-104223809D01*
X128242380Y-103985714D02*
X127242380Y-103985714D01*
X127242380Y-103985714D02*
X127242380Y-104366666D01*
X127242380Y-104366666D02*
X127290000Y-104461904D01*
X127290000Y-104461904D02*
X127337619Y-104509523D01*
X127337619Y-104509523D02*
X127432857Y-104557142D01*
X127432857Y-104557142D02*
X127575714Y-104557142D01*
X127575714Y-104557142D02*
X127670952Y-104509523D01*
X127670952Y-104509523D02*
X127718571Y-104461904D01*
X127718571Y-104461904D02*
X127766190Y-104366666D01*
X127766190Y-104366666D02*
X127766190Y-103985714D01*
X128242380Y-105509523D02*
X128242380Y-104938095D01*
X128242380Y-105223809D02*
X127242380Y-105223809D01*
X127242380Y-105223809D02*
X127385238Y-105128571D01*
X127385238Y-105128571D02*
X127480476Y-105033333D01*
X127480476Y-105033333D02*
X127528095Y-104938095D01*
X128242380Y-106461904D02*
X128242380Y-105890476D01*
X128242380Y-106176190D02*
X127242380Y-106176190D01*
X127242380Y-106176190D02*
X127385238Y-106080952D01*
X127385238Y-106080952D02*
X127480476Y-105985714D01*
X127480476Y-105985714D02*
X127528095Y-105890476D01*
X155461904Y-87717380D02*
X155461904Y-88526904D01*
X155461904Y-88526904D02*
X155414285Y-88622142D01*
X155414285Y-88622142D02*
X155366666Y-88669761D01*
X155366666Y-88669761D02*
X155271428Y-88717380D01*
X155271428Y-88717380D02*
X155080952Y-88717380D01*
X155080952Y-88717380D02*
X154985714Y-88669761D01*
X154985714Y-88669761D02*
X154938095Y-88622142D01*
X154938095Y-88622142D02*
X154890476Y-88526904D01*
X154890476Y-88526904D02*
X154890476Y-87717380D01*
X154271428Y-88145952D02*
X154366666Y-88098333D01*
X154366666Y-88098333D02*
X154414285Y-88050714D01*
X154414285Y-88050714D02*
X154461904Y-87955476D01*
X154461904Y-87955476D02*
X154461904Y-87907857D01*
X154461904Y-87907857D02*
X154414285Y-87812619D01*
X154414285Y-87812619D02*
X154366666Y-87765000D01*
X154366666Y-87765000D02*
X154271428Y-87717380D01*
X154271428Y-87717380D02*
X154080952Y-87717380D01*
X154080952Y-87717380D02*
X153985714Y-87765000D01*
X153985714Y-87765000D02*
X153938095Y-87812619D01*
X153938095Y-87812619D02*
X153890476Y-87907857D01*
X153890476Y-87907857D02*
X153890476Y-87955476D01*
X153890476Y-87955476D02*
X153938095Y-88050714D01*
X153938095Y-88050714D02*
X153985714Y-88098333D01*
X153985714Y-88098333D02*
X154080952Y-88145952D01*
X154080952Y-88145952D02*
X154271428Y-88145952D01*
X154271428Y-88145952D02*
X154366666Y-88193571D01*
X154366666Y-88193571D02*
X154414285Y-88241190D01*
X154414285Y-88241190D02*
X154461904Y-88336428D01*
X154461904Y-88336428D02*
X154461904Y-88526904D01*
X154461904Y-88526904D02*
X154414285Y-88622142D01*
X154414285Y-88622142D02*
X154366666Y-88669761D01*
X154366666Y-88669761D02*
X154271428Y-88717380D01*
X154271428Y-88717380D02*
X154080952Y-88717380D01*
X154080952Y-88717380D02*
X153985714Y-88669761D01*
X153985714Y-88669761D02*
X153938095Y-88622142D01*
X153938095Y-88622142D02*
X153890476Y-88526904D01*
X153890476Y-88526904D02*
X153890476Y-88336428D01*
X153890476Y-88336428D02*
X153938095Y-88241190D01*
X153938095Y-88241190D02*
X153985714Y-88193571D01*
X153985714Y-88193571D02*
X154080952Y-88145952D01*
X151899999Y-86517380D02*
X151899999Y-86755476D01*
X152138094Y-86660238D02*
X151899999Y-86755476D01*
X151899999Y-86755476D02*
X151661904Y-86660238D01*
X152042856Y-86945952D02*
X151899999Y-86755476D01*
X151899999Y-86755476D02*
X151757142Y-86945952D01*
X146397142Y-88282142D02*
X146444761Y-88234523D01*
X146444761Y-88234523D02*
X146492380Y-88091666D01*
X146492380Y-88091666D02*
X146492380Y-87996428D01*
X146492380Y-87996428D02*
X146444761Y-87853571D01*
X146444761Y-87853571D02*
X146349523Y-87758333D01*
X146349523Y-87758333D02*
X146254285Y-87710714D01*
X146254285Y-87710714D02*
X146063809Y-87663095D01*
X146063809Y-87663095D02*
X145920952Y-87663095D01*
X145920952Y-87663095D02*
X145730476Y-87710714D01*
X145730476Y-87710714D02*
X145635238Y-87758333D01*
X145635238Y-87758333D02*
X145540000Y-87853571D01*
X145540000Y-87853571D02*
X145492380Y-87996428D01*
X145492380Y-87996428D02*
X145492380Y-88091666D01*
X145492380Y-88091666D02*
X145540000Y-88234523D01*
X145540000Y-88234523D02*
X145587619Y-88282142D01*
X145825714Y-89139285D02*
X146492380Y-89139285D01*
X145444761Y-88901190D02*
X146159047Y-88663095D01*
X146159047Y-88663095D02*
X146159047Y-89282142D01*
X145825714Y-90091666D02*
X146492380Y-90091666D01*
X145444761Y-89853571D02*
X146159047Y-89615476D01*
X146159047Y-89615476D02*
X146159047Y-90234523D01*
X161297142Y-84082142D02*
X161344761Y-84034523D01*
X161344761Y-84034523D02*
X161392380Y-83891666D01*
X161392380Y-83891666D02*
X161392380Y-83796428D01*
X161392380Y-83796428D02*
X161344761Y-83653571D01*
X161344761Y-83653571D02*
X161249523Y-83558333D01*
X161249523Y-83558333D02*
X161154285Y-83510714D01*
X161154285Y-83510714D02*
X160963809Y-83463095D01*
X160963809Y-83463095D02*
X160820952Y-83463095D01*
X160820952Y-83463095D02*
X160630476Y-83510714D01*
X160630476Y-83510714D02*
X160535238Y-83558333D01*
X160535238Y-83558333D02*
X160440000Y-83653571D01*
X160440000Y-83653571D02*
X160392380Y-83796428D01*
X160392380Y-83796428D02*
X160392380Y-83891666D01*
X160392380Y-83891666D02*
X160440000Y-84034523D01*
X160440000Y-84034523D02*
X160487619Y-84082142D01*
X160392380Y-84415476D02*
X160392380Y-85034523D01*
X160392380Y-85034523D02*
X160773333Y-84701190D01*
X160773333Y-84701190D02*
X160773333Y-84844047D01*
X160773333Y-84844047D02*
X160820952Y-84939285D01*
X160820952Y-84939285D02*
X160868571Y-84986904D01*
X160868571Y-84986904D02*
X160963809Y-85034523D01*
X160963809Y-85034523D02*
X161201904Y-85034523D01*
X161201904Y-85034523D02*
X161297142Y-84986904D01*
X161297142Y-84986904D02*
X161344761Y-84939285D01*
X161344761Y-84939285D02*
X161392380Y-84844047D01*
X161392380Y-84844047D02*
X161392380Y-84558333D01*
X161392380Y-84558333D02*
X161344761Y-84463095D01*
X161344761Y-84463095D02*
X161297142Y-84415476D01*
X160392380Y-85367857D02*
X160392380Y-86034523D01*
X160392380Y-86034523D02*
X161392380Y-85605952D01*
X157417857Y-81847142D02*
X157465476Y-81894761D01*
X157465476Y-81894761D02*
X157608333Y-81942380D01*
X157608333Y-81942380D02*
X157703571Y-81942380D01*
X157703571Y-81942380D02*
X157846428Y-81894761D01*
X157846428Y-81894761D02*
X157941666Y-81799523D01*
X157941666Y-81799523D02*
X157989285Y-81704285D01*
X157989285Y-81704285D02*
X158036904Y-81513809D01*
X158036904Y-81513809D02*
X158036904Y-81370952D01*
X158036904Y-81370952D02*
X157989285Y-81180476D01*
X157989285Y-81180476D02*
X157941666Y-81085238D01*
X157941666Y-81085238D02*
X157846428Y-80990000D01*
X157846428Y-80990000D02*
X157703571Y-80942380D01*
X157703571Y-80942380D02*
X157608333Y-80942380D01*
X157608333Y-80942380D02*
X157465476Y-80990000D01*
X157465476Y-80990000D02*
X157417857Y-81037619D01*
X157084523Y-80942380D02*
X156465476Y-80942380D01*
X156465476Y-80942380D02*
X156798809Y-81323333D01*
X156798809Y-81323333D02*
X156655952Y-81323333D01*
X156655952Y-81323333D02*
X156560714Y-81370952D01*
X156560714Y-81370952D02*
X156513095Y-81418571D01*
X156513095Y-81418571D02*
X156465476Y-81513809D01*
X156465476Y-81513809D02*
X156465476Y-81751904D01*
X156465476Y-81751904D02*
X156513095Y-81847142D01*
X156513095Y-81847142D02*
X156560714Y-81894761D01*
X156560714Y-81894761D02*
X156655952Y-81942380D01*
X156655952Y-81942380D02*
X156941666Y-81942380D01*
X156941666Y-81942380D02*
X157036904Y-81894761D01*
X157036904Y-81894761D02*
X157084523Y-81847142D01*
X155560714Y-80942380D02*
X156036904Y-80942380D01*
X156036904Y-80942380D02*
X156084523Y-81418571D01*
X156084523Y-81418571D02*
X156036904Y-81370952D01*
X156036904Y-81370952D02*
X155941666Y-81323333D01*
X155941666Y-81323333D02*
X155703571Y-81323333D01*
X155703571Y-81323333D02*
X155608333Y-81370952D01*
X155608333Y-81370952D02*
X155560714Y-81418571D01*
X155560714Y-81418571D02*
X155513095Y-81513809D01*
X155513095Y-81513809D02*
X155513095Y-81751904D01*
X155513095Y-81751904D02*
X155560714Y-81847142D01*
X155560714Y-81847142D02*
X155608333Y-81894761D01*
X155608333Y-81894761D02*
X155703571Y-81942380D01*
X155703571Y-81942380D02*
X155941666Y-81942380D01*
X155941666Y-81942380D02*
X156036904Y-81894761D01*
X156036904Y-81894761D02*
X156084523Y-81847142D01*
X122666666Y-87142380D02*
X123142856Y-87142380D01*
X123142856Y-87142380D02*
X123142856Y-86142380D01*
X121904761Y-86142380D02*
X122095237Y-86142380D01*
X122095237Y-86142380D02*
X122190475Y-86190000D01*
X122190475Y-86190000D02*
X122238094Y-86237619D01*
X122238094Y-86237619D02*
X122333332Y-86380476D01*
X122333332Y-86380476D02*
X122380951Y-86570952D01*
X122380951Y-86570952D02*
X122380951Y-86951904D01*
X122380951Y-86951904D02*
X122333332Y-87047142D01*
X122333332Y-87047142D02*
X122285713Y-87094761D01*
X122285713Y-87094761D02*
X122190475Y-87142380D01*
X122190475Y-87142380D02*
X121999999Y-87142380D01*
X121999999Y-87142380D02*
X121904761Y-87094761D01*
X121904761Y-87094761D02*
X121857142Y-87047142D01*
X121857142Y-87047142D02*
X121809523Y-86951904D01*
X121809523Y-86951904D02*
X121809523Y-86713809D01*
X121809523Y-86713809D02*
X121857142Y-86618571D01*
X121857142Y-86618571D02*
X121904761Y-86570952D01*
X121904761Y-86570952D02*
X121999999Y-86523333D01*
X121999999Y-86523333D02*
X122190475Y-86523333D01*
X122190475Y-86523333D02*
X122285713Y-86570952D01*
X122285713Y-86570952D02*
X122333332Y-86618571D01*
X122333332Y-86618571D02*
X122380951Y-86713809D01*
X159417380Y-80882142D02*
X158941190Y-80548809D01*
X159417380Y-80310714D02*
X158417380Y-80310714D01*
X158417380Y-80310714D02*
X158417380Y-80691666D01*
X158417380Y-80691666D02*
X158465000Y-80786904D01*
X158465000Y-80786904D02*
X158512619Y-80834523D01*
X158512619Y-80834523D02*
X158607857Y-80882142D01*
X158607857Y-80882142D02*
X158750714Y-80882142D01*
X158750714Y-80882142D02*
X158845952Y-80834523D01*
X158845952Y-80834523D02*
X158893571Y-80786904D01*
X158893571Y-80786904D02*
X158941190Y-80691666D01*
X158941190Y-80691666D02*
X158941190Y-80310714D01*
X159417380Y-81834523D02*
X159417380Y-81263095D01*
X159417380Y-81548809D02*
X158417380Y-81548809D01*
X158417380Y-81548809D02*
X158560238Y-81453571D01*
X158560238Y-81453571D02*
X158655476Y-81358333D01*
X158655476Y-81358333D02*
X158703095Y-81263095D01*
X159417380Y-82310714D02*
X159417380Y-82501190D01*
X159417380Y-82501190D02*
X159369761Y-82596428D01*
X159369761Y-82596428D02*
X159322142Y-82644047D01*
X159322142Y-82644047D02*
X159179285Y-82739285D01*
X159179285Y-82739285D02*
X158988809Y-82786904D01*
X158988809Y-82786904D02*
X158607857Y-82786904D01*
X158607857Y-82786904D02*
X158512619Y-82739285D01*
X158512619Y-82739285D02*
X158465000Y-82691666D01*
X158465000Y-82691666D02*
X158417380Y-82596428D01*
X158417380Y-82596428D02*
X158417380Y-82405952D01*
X158417380Y-82405952D02*
X158465000Y-82310714D01*
X158465000Y-82310714D02*
X158512619Y-82263095D01*
X158512619Y-82263095D02*
X158607857Y-82215476D01*
X158607857Y-82215476D02*
X158845952Y-82215476D01*
X158845952Y-82215476D02*
X158941190Y-82263095D01*
X158941190Y-82263095D02*
X158988809Y-82310714D01*
X158988809Y-82310714D02*
X159036428Y-82405952D01*
X159036428Y-82405952D02*
X159036428Y-82596428D01*
X159036428Y-82596428D02*
X158988809Y-82691666D01*
X158988809Y-82691666D02*
X158941190Y-82739285D01*
X158941190Y-82739285D02*
X158845952Y-82786904D01*
X133547142Y-80732142D02*
X133594761Y-80684523D01*
X133594761Y-80684523D02*
X133642380Y-80541666D01*
X133642380Y-80541666D02*
X133642380Y-80446428D01*
X133642380Y-80446428D02*
X133594761Y-80303571D01*
X133594761Y-80303571D02*
X133499523Y-80208333D01*
X133499523Y-80208333D02*
X133404285Y-80160714D01*
X133404285Y-80160714D02*
X133213809Y-80113095D01*
X133213809Y-80113095D02*
X133070952Y-80113095D01*
X133070952Y-80113095D02*
X132880476Y-80160714D01*
X132880476Y-80160714D02*
X132785238Y-80208333D01*
X132785238Y-80208333D02*
X132690000Y-80303571D01*
X132690000Y-80303571D02*
X132642380Y-80446428D01*
X132642380Y-80446428D02*
X132642380Y-80541666D01*
X132642380Y-80541666D02*
X132690000Y-80684523D01*
X132690000Y-80684523D02*
X132737619Y-80732142D01*
X132642380Y-81065476D02*
X132642380Y-81684523D01*
X132642380Y-81684523D02*
X133023333Y-81351190D01*
X133023333Y-81351190D02*
X133023333Y-81494047D01*
X133023333Y-81494047D02*
X133070952Y-81589285D01*
X133070952Y-81589285D02*
X133118571Y-81636904D01*
X133118571Y-81636904D02*
X133213809Y-81684523D01*
X133213809Y-81684523D02*
X133451904Y-81684523D01*
X133451904Y-81684523D02*
X133547142Y-81636904D01*
X133547142Y-81636904D02*
X133594761Y-81589285D01*
X133594761Y-81589285D02*
X133642380Y-81494047D01*
X133642380Y-81494047D02*
X133642380Y-81208333D01*
X133642380Y-81208333D02*
X133594761Y-81113095D01*
X133594761Y-81113095D02*
X133547142Y-81065476D01*
X132642380Y-82017857D02*
X132642380Y-82636904D01*
X132642380Y-82636904D02*
X133023333Y-82303571D01*
X133023333Y-82303571D02*
X133023333Y-82446428D01*
X133023333Y-82446428D02*
X133070952Y-82541666D01*
X133070952Y-82541666D02*
X133118571Y-82589285D01*
X133118571Y-82589285D02*
X133213809Y-82636904D01*
X133213809Y-82636904D02*
X133451904Y-82636904D01*
X133451904Y-82636904D02*
X133547142Y-82589285D01*
X133547142Y-82589285D02*
X133594761Y-82541666D01*
X133594761Y-82541666D02*
X133642380Y-82446428D01*
X133642380Y-82446428D02*
X133642380Y-82160714D01*
X133642380Y-82160714D02*
X133594761Y-82065476D01*
X133594761Y-82065476D02*
X133547142Y-82017857D01*
X133192380Y-101157142D02*
X132716190Y-100823809D01*
X133192380Y-100585714D02*
X132192380Y-100585714D01*
X132192380Y-100585714D02*
X132192380Y-100966666D01*
X132192380Y-100966666D02*
X132240000Y-101061904D01*
X132240000Y-101061904D02*
X132287619Y-101109523D01*
X132287619Y-101109523D02*
X132382857Y-101157142D01*
X132382857Y-101157142D02*
X132525714Y-101157142D01*
X132525714Y-101157142D02*
X132620952Y-101109523D01*
X132620952Y-101109523D02*
X132668571Y-101061904D01*
X132668571Y-101061904D02*
X132716190Y-100966666D01*
X132716190Y-100966666D02*
X132716190Y-100585714D01*
X133192380Y-102109523D02*
X133192380Y-101538095D01*
X133192380Y-101823809D02*
X132192380Y-101823809D01*
X132192380Y-101823809D02*
X132335238Y-101728571D01*
X132335238Y-101728571D02*
X132430476Y-101633333D01*
X132430476Y-101633333D02*
X132478095Y-101538095D01*
X132192380Y-102728571D02*
X132192380Y-102823809D01*
X132192380Y-102823809D02*
X132240000Y-102919047D01*
X132240000Y-102919047D02*
X132287619Y-102966666D01*
X132287619Y-102966666D02*
X132382857Y-103014285D01*
X132382857Y-103014285D02*
X132573333Y-103061904D01*
X132573333Y-103061904D02*
X132811428Y-103061904D01*
X132811428Y-103061904D02*
X133001904Y-103014285D01*
X133001904Y-103014285D02*
X133097142Y-102966666D01*
X133097142Y-102966666D02*
X133144761Y-102919047D01*
X133144761Y-102919047D02*
X133192380Y-102823809D01*
X133192380Y-102823809D02*
X133192380Y-102728571D01*
X133192380Y-102728571D02*
X133144761Y-102633333D01*
X133144761Y-102633333D02*
X133097142Y-102585714D01*
X133097142Y-102585714D02*
X133001904Y-102538095D01*
X133001904Y-102538095D02*
X132811428Y-102490476D01*
X132811428Y-102490476D02*
X132573333Y-102490476D01*
X132573333Y-102490476D02*
X132382857Y-102538095D01*
X132382857Y-102538095D02*
X132287619Y-102585714D01*
X132287619Y-102585714D02*
X132240000Y-102633333D01*
X132240000Y-102633333D02*
X132192380Y-102728571D01*
X148585426Y-71471668D02*
X148273045Y-70981477D01*
X148804102Y-70943736D02*
X147880223Y-70561053D01*
X147880223Y-70561053D02*
X147734439Y-70913007D01*
X147734439Y-70913007D02*
X147741987Y-71019219D01*
X147741987Y-71019219D02*
X147767758Y-71081436D01*
X147767758Y-71081436D02*
X147837524Y-71161876D01*
X147837524Y-71161876D02*
X147969506Y-71216545D01*
X147969506Y-71216545D02*
X148075718Y-71208997D01*
X148075718Y-71208997D02*
X148137935Y-71183226D01*
X148137935Y-71183226D02*
X148218375Y-71113460D01*
X148218375Y-71113460D02*
X148364160Y-70761506D01*
X148220966Y-72351553D02*
X148439642Y-71823622D01*
X148330304Y-72087587D02*
X147406424Y-71704904D01*
X147406424Y-71704904D02*
X147574853Y-71671584D01*
X147574853Y-71671584D02*
X147699288Y-71620042D01*
X147699288Y-71620042D02*
X147779728Y-71550276D01*
X146950849Y-72804760D02*
X147133079Y-72364818D01*
X147133079Y-72364818D02*
X147591245Y-72503054D01*
X147591245Y-72503054D02*
X147529027Y-72528825D01*
X147529027Y-72528825D02*
X147448587Y-72598590D01*
X147448587Y-72598590D02*
X147357472Y-72818562D01*
X147357472Y-72818562D02*
X147365020Y-72924773D01*
X147365020Y-72924773D02*
X147390791Y-72986991D01*
X147390791Y-72986991D02*
X147460557Y-73067431D01*
X147460557Y-73067431D02*
X147680528Y-73158546D01*
X147680528Y-73158546D02*
X147786740Y-73150998D01*
X147786740Y-73150998D02*
X147848957Y-73125227D01*
X147848957Y-73125227D02*
X147929397Y-73055461D01*
X147929397Y-73055461D02*
X148020512Y-72835490D01*
X148020512Y-72835490D02*
X148012964Y-72729278D01*
X148012964Y-72729278D02*
X147987193Y-72667061D01*
X132467857Y-98097142D02*
X132515476Y-98144761D01*
X132515476Y-98144761D02*
X132658333Y-98192380D01*
X132658333Y-98192380D02*
X132753571Y-98192380D01*
X132753571Y-98192380D02*
X132896428Y-98144761D01*
X132896428Y-98144761D02*
X132991666Y-98049523D01*
X132991666Y-98049523D02*
X133039285Y-97954285D01*
X133039285Y-97954285D02*
X133086904Y-97763809D01*
X133086904Y-97763809D02*
X133086904Y-97620952D01*
X133086904Y-97620952D02*
X133039285Y-97430476D01*
X133039285Y-97430476D02*
X132991666Y-97335238D01*
X132991666Y-97335238D02*
X132896428Y-97240000D01*
X132896428Y-97240000D02*
X132753571Y-97192380D01*
X132753571Y-97192380D02*
X132658333Y-97192380D01*
X132658333Y-97192380D02*
X132515476Y-97240000D01*
X132515476Y-97240000D02*
X132467857Y-97287619D01*
X132086904Y-97287619D02*
X132039285Y-97240000D01*
X132039285Y-97240000D02*
X131944047Y-97192380D01*
X131944047Y-97192380D02*
X131705952Y-97192380D01*
X131705952Y-97192380D02*
X131610714Y-97240000D01*
X131610714Y-97240000D02*
X131563095Y-97287619D01*
X131563095Y-97287619D02*
X131515476Y-97382857D01*
X131515476Y-97382857D02*
X131515476Y-97478095D01*
X131515476Y-97478095D02*
X131563095Y-97620952D01*
X131563095Y-97620952D02*
X132134523Y-98192380D01*
X132134523Y-98192380D02*
X131515476Y-98192380D01*
X130563095Y-98192380D02*
X131134523Y-98192380D01*
X130848809Y-98192380D02*
X130848809Y-97192380D01*
X130848809Y-97192380D02*
X130944047Y-97335238D01*
X130944047Y-97335238D02*
X131039285Y-97430476D01*
X131039285Y-97430476D02*
X131134523Y-97478095D01*
X147422438Y-70960221D02*
X147484655Y-70934450D01*
X147484655Y-70934450D02*
X147583318Y-70820690D01*
X147583318Y-70820690D02*
X147619764Y-70732702D01*
X147619764Y-70732702D02*
X147630439Y-70582496D01*
X147630439Y-70582496D02*
X147578896Y-70458062D01*
X147578896Y-70458062D02*
X147509131Y-70377621D01*
X147509131Y-70377621D02*
X147351377Y-70260735D01*
X147351377Y-70260735D02*
X147219394Y-70206066D01*
X147219394Y-70206066D02*
X147025194Y-70177168D01*
X147025194Y-70177168D02*
X146918983Y-70184716D01*
X146918983Y-70184716D02*
X146794548Y-70236259D01*
X146794548Y-70236259D02*
X146695885Y-70350018D01*
X146695885Y-70350018D02*
X146659439Y-70438007D01*
X146659439Y-70438007D02*
X146648764Y-70588213D01*
X146648764Y-70588213D02*
X146674535Y-70650430D01*
X146458985Y-70921944D02*
X146222086Y-71493869D01*
X146222086Y-71493869D02*
X146701601Y-71331694D01*
X146701601Y-71331694D02*
X146646932Y-71463676D01*
X146646932Y-71463676D02*
X146654481Y-71569888D01*
X146654481Y-71569888D02*
X146680252Y-71632105D01*
X146680252Y-71632105D02*
X146750017Y-71712546D01*
X146750017Y-71712546D02*
X146969989Y-71803661D01*
X146969989Y-71803661D02*
X147076200Y-71796112D01*
X147076200Y-71796112D02*
X147138417Y-71770341D01*
X147138417Y-71770341D02*
X147218858Y-71700576D01*
X147218858Y-71700576D02*
X147328196Y-71436610D01*
X147328196Y-71436610D02*
X147320648Y-71330399D01*
X147320648Y-71330399D02*
X147294876Y-71268181D01*
X145894072Y-72285766D02*
X145966964Y-72109789D01*
X145966964Y-72109789D02*
X146047404Y-72040024D01*
X146047404Y-72040024D02*
X146109621Y-72014252D01*
X146109621Y-72014252D02*
X146278050Y-71980933D01*
X146278050Y-71980933D02*
X146472250Y-72009831D01*
X146472250Y-72009831D02*
X146824204Y-72155615D01*
X146824204Y-72155615D02*
X146893970Y-72236055D01*
X146893970Y-72236055D02*
X146919741Y-72298272D01*
X146919741Y-72298272D02*
X146927289Y-72404484D01*
X146927289Y-72404484D02*
X146854397Y-72580461D01*
X146854397Y-72580461D02*
X146773957Y-72650227D01*
X146773957Y-72650227D02*
X146711740Y-72675998D01*
X146711740Y-72675998D02*
X146605528Y-72683546D01*
X146605528Y-72683546D02*
X146385557Y-72592431D01*
X146385557Y-72592431D02*
X146315791Y-72511991D01*
X146315791Y-72511991D02*
X146290020Y-72449773D01*
X146290020Y-72449773D02*
X146282472Y-72343562D01*
X146282472Y-72343562D02*
X146355364Y-72167585D01*
X146355364Y-72167585D02*
X146435804Y-72097819D01*
X146435804Y-72097819D02*
X146498022Y-72072048D01*
X146498022Y-72072048D02*
X146604233Y-72064500D01*
X146347438Y-70485221D02*
X146409655Y-70459450D01*
X146409655Y-70459450D02*
X146508318Y-70345690D01*
X146508318Y-70345690D02*
X146544764Y-70257702D01*
X146544764Y-70257702D02*
X146555439Y-70107496D01*
X146555439Y-70107496D02*
X146503896Y-69983062D01*
X146503896Y-69983062D02*
X146434131Y-69902621D01*
X146434131Y-69902621D02*
X146276377Y-69785735D01*
X146276377Y-69785735D02*
X146144394Y-69731066D01*
X146144394Y-69731066D02*
X145950194Y-69702168D01*
X145950194Y-69702168D02*
X145843983Y-69709716D01*
X145843983Y-69709716D02*
X145719548Y-69761259D01*
X145719548Y-69761259D02*
X145620885Y-69875018D01*
X145620885Y-69875018D02*
X145584439Y-69963007D01*
X145584439Y-69963007D02*
X145573764Y-70113213D01*
X145573764Y-70113213D02*
X145599535Y-70175430D01*
X145383985Y-70446944D02*
X145147086Y-71018869D01*
X145147086Y-71018869D02*
X145626601Y-70856694D01*
X145626601Y-70856694D02*
X145571932Y-70988676D01*
X145571932Y-70988676D02*
X145579481Y-71094888D01*
X145579481Y-71094888D02*
X145605252Y-71157105D01*
X145605252Y-71157105D02*
X145675017Y-71237546D01*
X145675017Y-71237546D02*
X145894989Y-71328661D01*
X145894989Y-71328661D02*
X146001200Y-71321112D01*
X146001200Y-71321112D02*
X146063417Y-71295341D01*
X146063417Y-71295341D02*
X146143858Y-71225576D01*
X146143858Y-71225576D02*
X146253196Y-70961610D01*
X146253196Y-70961610D02*
X146245648Y-70855399D01*
X146245648Y-70855399D02*
X146219876Y-70793181D01*
X145127032Y-71938327D02*
X145742951Y-72193450D01*
X144866193Y-71572572D02*
X145617222Y-71625946D01*
X145617222Y-71625946D02*
X145380322Y-72197871D01*
X130817857Y-105967380D02*
X131151190Y-105491190D01*
X131389285Y-105967380D02*
X131389285Y-104967380D01*
X131389285Y-104967380D02*
X131008333Y-104967380D01*
X131008333Y-104967380D02*
X130913095Y-105015000D01*
X130913095Y-105015000D02*
X130865476Y-105062619D01*
X130865476Y-105062619D02*
X130817857Y-105157857D01*
X130817857Y-105157857D02*
X130817857Y-105300714D01*
X130817857Y-105300714D02*
X130865476Y-105395952D01*
X130865476Y-105395952D02*
X130913095Y-105443571D01*
X130913095Y-105443571D02*
X131008333Y-105491190D01*
X131008333Y-105491190D02*
X131389285Y-105491190D01*
X129865476Y-105967380D02*
X130436904Y-105967380D01*
X130151190Y-105967380D02*
X130151190Y-104967380D01*
X130151190Y-104967380D02*
X130246428Y-105110238D01*
X130246428Y-105110238D02*
X130341666Y-105205476D01*
X130341666Y-105205476D02*
X130436904Y-105253095D01*
X129484523Y-105062619D02*
X129436904Y-105015000D01*
X129436904Y-105015000D02*
X129341666Y-104967380D01*
X129341666Y-104967380D02*
X129103571Y-104967380D01*
X129103571Y-104967380D02*
X129008333Y-105015000D01*
X129008333Y-105015000D02*
X128960714Y-105062619D01*
X128960714Y-105062619D02*
X128913095Y-105157857D01*
X128913095Y-105157857D02*
X128913095Y-105253095D01*
X128913095Y-105253095D02*
X128960714Y-105395952D01*
X128960714Y-105395952D02*
X129532142Y-105967380D01*
X129532142Y-105967380D02*
X128913095Y-105967380D01*
X133217380Y-103832142D02*
X132741190Y-103498809D01*
X133217380Y-103260714D02*
X132217380Y-103260714D01*
X132217380Y-103260714D02*
X132217380Y-103641666D01*
X132217380Y-103641666D02*
X132265000Y-103736904D01*
X132265000Y-103736904D02*
X132312619Y-103784523D01*
X132312619Y-103784523D02*
X132407857Y-103832142D01*
X132407857Y-103832142D02*
X132550714Y-103832142D01*
X132550714Y-103832142D02*
X132645952Y-103784523D01*
X132645952Y-103784523D02*
X132693571Y-103736904D01*
X132693571Y-103736904D02*
X132741190Y-103641666D01*
X132741190Y-103641666D02*
X132741190Y-103260714D01*
X133217380Y-104784523D02*
X133217380Y-104213095D01*
X133217380Y-104498809D02*
X132217380Y-104498809D01*
X132217380Y-104498809D02*
X132360238Y-104403571D01*
X132360238Y-104403571D02*
X132455476Y-104308333D01*
X132455476Y-104308333D02*
X132503095Y-104213095D01*
X132217380Y-105117857D02*
X132217380Y-105736904D01*
X132217380Y-105736904D02*
X132598333Y-105403571D01*
X132598333Y-105403571D02*
X132598333Y-105546428D01*
X132598333Y-105546428D02*
X132645952Y-105641666D01*
X132645952Y-105641666D02*
X132693571Y-105689285D01*
X132693571Y-105689285D02*
X132788809Y-105736904D01*
X132788809Y-105736904D02*
X133026904Y-105736904D01*
X133026904Y-105736904D02*
X133122142Y-105689285D01*
X133122142Y-105689285D02*
X133169761Y-105641666D01*
X133169761Y-105641666D02*
X133217380Y-105546428D01*
X133217380Y-105546428D02*
X133217380Y-105260714D01*
X133217380Y-105260714D02*
X133169761Y-105165476D01*
X133169761Y-105165476D02*
X133122142Y-105117857D01*
X130036904Y-79242380D02*
X130036904Y-80051904D01*
X130036904Y-80051904D02*
X129989285Y-80147142D01*
X129989285Y-80147142D02*
X129941666Y-80194761D01*
X129941666Y-80194761D02*
X129846428Y-80242380D01*
X129846428Y-80242380D02*
X129655952Y-80242380D01*
X129655952Y-80242380D02*
X129560714Y-80194761D01*
X129560714Y-80194761D02*
X129513095Y-80147142D01*
X129513095Y-80147142D02*
X129465476Y-80051904D01*
X129465476Y-80051904D02*
X129465476Y-79242380D01*
X129084523Y-79242380D02*
X128417857Y-79242380D01*
X128417857Y-79242380D02*
X128846428Y-80242380D01*
X126322142Y-101557142D02*
X126369761Y-101509523D01*
X126369761Y-101509523D02*
X126417380Y-101366666D01*
X126417380Y-101366666D02*
X126417380Y-101271428D01*
X126417380Y-101271428D02*
X126369761Y-101128571D01*
X126369761Y-101128571D02*
X126274523Y-101033333D01*
X126274523Y-101033333D02*
X126179285Y-100985714D01*
X126179285Y-100985714D02*
X125988809Y-100938095D01*
X125988809Y-100938095D02*
X125845952Y-100938095D01*
X125845952Y-100938095D02*
X125655476Y-100985714D01*
X125655476Y-100985714D02*
X125560238Y-101033333D01*
X125560238Y-101033333D02*
X125465000Y-101128571D01*
X125465000Y-101128571D02*
X125417380Y-101271428D01*
X125417380Y-101271428D02*
X125417380Y-101366666D01*
X125417380Y-101366666D02*
X125465000Y-101509523D01*
X125465000Y-101509523D02*
X125512619Y-101557142D01*
X125512619Y-101938095D02*
X125465000Y-101985714D01*
X125465000Y-101985714D02*
X125417380Y-102080952D01*
X125417380Y-102080952D02*
X125417380Y-102319047D01*
X125417380Y-102319047D02*
X125465000Y-102414285D01*
X125465000Y-102414285D02*
X125512619Y-102461904D01*
X125512619Y-102461904D02*
X125607857Y-102509523D01*
X125607857Y-102509523D02*
X125703095Y-102509523D01*
X125703095Y-102509523D02*
X125845952Y-102461904D01*
X125845952Y-102461904D02*
X126417380Y-101890476D01*
X126417380Y-101890476D02*
X126417380Y-102509523D01*
X125417380Y-103414285D02*
X125417380Y-102938095D01*
X125417380Y-102938095D02*
X125893571Y-102890476D01*
X125893571Y-102890476D02*
X125845952Y-102938095D01*
X125845952Y-102938095D02*
X125798333Y-103033333D01*
X125798333Y-103033333D02*
X125798333Y-103271428D01*
X125798333Y-103271428D02*
X125845952Y-103366666D01*
X125845952Y-103366666D02*
X125893571Y-103414285D01*
X125893571Y-103414285D02*
X125988809Y-103461904D01*
X125988809Y-103461904D02*
X126226904Y-103461904D01*
X126226904Y-103461904D02*
X126322142Y-103414285D01*
X126322142Y-103414285D02*
X126369761Y-103366666D01*
X126369761Y-103366666D02*
X126417380Y-103271428D01*
X126417380Y-103271428D02*
X126417380Y-103033333D01*
X126417380Y-103033333D02*
X126369761Y-102938095D01*
X126369761Y-102938095D02*
X126322142Y-102890476D01*
X133142380Y-99408333D02*
X132666190Y-99075000D01*
X133142380Y-98836905D02*
X132142380Y-98836905D01*
X132142380Y-98836905D02*
X132142380Y-99217857D01*
X132142380Y-99217857D02*
X132190000Y-99313095D01*
X132190000Y-99313095D02*
X132237619Y-99360714D01*
X132237619Y-99360714D02*
X132332857Y-99408333D01*
X132332857Y-99408333D02*
X132475714Y-99408333D01*
X132475714Y-99408333D02*
X132570952Y-99360714D01*
X132570952Y-99360714D02*
X132618571Y-99313095D01*
X132618571Y-99313095D02*
X132666190Y-99217857D01*
X132666190Y-99217857D02*
X132666190Y-98836905D01*
X133142380Y-99884524D02*
X133142380Y-100075000D01*
X133142380Y-100075000D02*
X133094761Y-100170238D01*
X133094761Y-100170238D02*
X133047142Y-100217857D01*
X133047142Y-100217857D02*
X132904285Y-100313095D01*
X132904285Y-100313095D02*
X132713809Y-100360714D01*
X132713809Y-100360714D02*
X132332857Y-100360714D01*
X132332857Y-100360714D02*
X132237619Y-100313095D01*
X132237619Y-100313095D02*
X132190000Y-100265476D01*
X132190000Y-100265476D02*
X132142380Y-100170238D01*
X132142380Y-100170238D02*
X132142380Y-99979762D01*
X132142380Y-99979762D02*
X132190000Y-99884524D01*
X132190000Y-99884524D02*
X132237619Y-99836905D01*
X132237619Y-99836905D02*
X132332857Y-99789286D01*
X132332857Y-99789286D02*
X132570952Y-99789286D01*
X132570952Y-99789286D02*
X132666190Y-99836905D01*
X132666190Y-99836905D02*
X132713809Y-99884524D01*
X132713809Y-99884524D02*
X132761428Y-99979762D01*
X132761428Y-99979762D02*
X132761428Y-100170238D01*
X132761428Y-100170238D02*
X132713809Y-100265476D01*
X132713809Y-100265476D02*
X132666190Y-100313095D01*
X132666190Y-100313095D02*
X132570952Y-100360714D01*
X124272142Y-78807142D02*
X124319761Y-78759523D01*
X124319761Y-78759523D02*
X124367380Y-78616666D01*
X124367380Y-78616666D02*
X124367380Y-78521428D01*
X124367380Y-78521428D02*
X124319761Y-78378571D01*
X124319761Y-78378571D02*
X124224523Y-78283333D01*
X124224523Y-78283333D02*
X124129285Y-78235714D01*
X124129285Y-78235714D02*
X123938809Y-78188095D01*
X123938809Y-78188095D02*
X123795952Y-78188095D01*
X123795952Y-78188095D02*
X123605476Y-78235714D01*
X123605476Y-78235714D02*
X123510238Y-78283333D01*
X123510238Y-78283333D02*
X123415000Y-78378571D01*
X123415000Y-78378571D02*
X123367380Y-78521428D01*
X123367380Y-78521428D02*
X123367380Y-78616666D01*
X123367380Y-78616666D02*
X123415000Y-78759523D01*
X123415000Y-78759523D02*
X123462619Y-78807142D01*
X123462619Y-79188095D02*
X123415000Y-79235714D01*
X123415000Y-79235714D02*
X123367380Y-79330952D01*
X123367380Y-79330952D02*
X123367380Y-79569047D01*
X123367380Y-79569047D02*
X123415000Y-79664285D01*
X123415000Y-79664285D02*
X123462619Y-79711904D01*
X123462619Y-79711904D02*
X123557857Y-79759523D01*
X123557857Y-79759523D02*
X123653095Y-79759523D01*
X123653095Y-79759523D02*
X123795952Y-79711904D01*
X123795952Y-79711904D02*
X124367380Y-79140476D01*
X124367380Y-79140476D02*
X124367380Y-79759523D01*
X123700714Y-80616666D02*
X124367380Y-80616666D01*
X123319761Y-80378571D02*
X124034047Y-80140476D01*
X124034047Y-80140476D02*
X124034047Y-80759523D01*
X126442380Y-98688095D02*
X127251904Y-98688095D01*
X127251904Y-98688095D02*
X127347142Y-98735714D01*
X127347142Y-98735714D02*
X127394761Y-98783333D01*
X127394761Y-98783333D02*
X127442380Y-98878571D01*
X127442380Y-98878571D02*
X127442380Y-99069047D01*
X127442380Y-99069047D02*
X127394761Y-99164285D01*
X127394761Y-99164285D02*
X127347142Y-99211904D01*
X127347142Y-99211904D02*
X127251904Y-99259523D01*
X127251904Y-99259523D02*
X126442380Y-99259523D01*
X126442380Y-100211904D02*
X126442380Y-99735714D01*
X126442380Y-99735714D02*
X126918571Y-99688095D01*
X126918571Y-99688095D02*
X126870952Y-99735714D01*
X126870952Y-99735714D02*
X126823333Y-99830952D01*
X126823333Y-99830952D02*
X126823333Y-100069047D01*
X126823333Y-100069047D02*
X126870952Y-100164285D01*
X126870952Y-100164285D02*
X126918571Y-100211904D01*
X126918571Y-100211904D02*
X127013809Y-100259523D01*
X127013809Y-100259523D02*
X127251904Y-100259523D01*
X127251904Y-100259523D02*
X127347142Y-100211904D01*
X127347142Y-100211904D02*
X127394761Y-100164285D01*
X127394761Y-100164285D02*
X127442380Y-100069047D01*
X127442380Y-100069047D02*
X127442380Y-99830952D01*
X127442380Y-99830952D02*
X127394761Y-99735714D01*
X127394761Y-99735714D02*
X127347142Y-99688095D01*
D11*
X142810000Y-90300000D02*
X142810000Y-88100000D01*
X142810000Y-90300000D02*
X142810000Y-92500000D01*
X137590000Y-90300000D02*
X137590000Y-86700000D01*
X137590000Y-90300000D02*
X137590000Y-92500000D01*
X144662779Y-97335000D02*
X144337221Y-97335000D01*
X144662779Y-96315000D02*
X144337221Y-96315000D01*
X144410000Y-98417164D02*
X144410000Y-98632836D01*
X143690000Y-98417164D02*
X143690000Y-98632836D01*
X126110000Y-95088748D02*
X126110000Y-96511252D01*
X124290000Y-95088748D02*
X124290000Y-96511252D01*
X143810000Y-91942164D02*
X143810000Y-92157836D01*
X143090000Y-91942164D02*
X143090000Y-92157836D01*
X143460000Y-98417164D02*
X143460000Y-98632836D01*
X142740000Y-98417164D02*
X142740000Y-98632836D01*
X158420000Y-85903641D02*
X158420000Y-85596359D01*
X159180000Y-85903641D02*
X159180000Y-85596359D01*
X121890000Y-84707836D02*
X121890000Y-84492164D01*
X122610000Y-84707836D02*
X122610000Y-84492164D01*
X145760000Y-98934420D02*
X145760000Y-99215580D01*
X144740000Y-98934420D02*
X144740000Y-99215580D01*
X136790000Y-78290580D02*
X136790000Y-78009420D01*
X137810000Y-78290580D02*
X137810000Y-78009420D01*
X129711252Y-96810000D02*
X128288748Y-96810000D01*
X129711252Y-94990000D02*
X128288748Y-94990000D01*
X148060000Y-97813748D02*
X148060000Y-99236252D01*
X146240000Y-97813748D02*
X146240000Y-99236252D01*
X134940000Y-104735000D02*
X134940000Y-107235000D01*
X134940000Y-107235000D02*
X135990000Y-107235000D01*
X135990000Y-107235000D02*
X135990000Y-108225000D01*
X136110000Y-102765000D02*
X138990000Y-102765000D01*
X140160000Y-104735000D02*
X140160000Y-107235000D01*
X140160000Y-107235000D02*
X139110000Y-107235000D01*
X123710000Y-95088748D02*
X123710000Y-96511252D01*
X121890000Y-95088748D02*
X121890000Y-96511252D01*
X139907836Y-77435000D02*
X139692164Y-77435000D01*
X139907836Y-76715000D02*
X139692164Y-76715000D01*
X137350000Y-86840000D02*
X137350000Y-92650000D01*
X133050000Y-86840000D02*
X137350000Y-86840000D01*
X133050000Y-86840000D02*
X133050000Y-92650000D01*
X133315000Y-99911252D02*
X133315000Y-99388748D01*
X134785000Y-99911252D02*
X134785000Y-99388748D01*
X132210000Y-82488748D02*
X132210000Y-83911252D01*
X130390000Y-82488748D02*
X130390000Y-83911252D01*
X147365130Y-74346526D02*
X147482722Y-74062635D01*
X148067278Y-74637365D02*
X148184870Y-74353474D01*
X129992164Y-103940000D02*
X130207836Y-103940000D01*
X129992164Y-104660000D02*
X130207836Y-104660000D01*
X128046359Y-102920000D02*
X128353641Y-102920000D01*
X128046359Y-103680000D02*
X128353641Y-103680000D01*
X152479100Y-82121100D02*
X156720900Y-82121100D01*
X156720900Y-87378900D02*
X152479100Y-87378900D01*
X145060000Y-88088748D02*
X145060000Y-89511252D01*
X143240000Y-88088748D02*
X143240000Y-89511252D01*
X159390000Y-84907836D02*
X159390000Y-84692164D01*
X160110000Y-84907836D02*
X160110000Y-84692164D01*
X154442164Y-81140000D02*
X154657836Y-81140000D01*
X154442164Y-81860000D02*
X154657836Y-81860000D01*
X126200000Y-93300000D02*
X126200000Y-91000000D01*
X126200000Y-88200000D02*
X126200000Y-85900000D01*
X126200000Y-85900000D02*
X118800000Y-85900000D01*
X118800000Y-93300000D02*
X126200000Y-93300000D01*
X118800000Y-91000000D02*
X118800000Y-93300000D01*
X118800000Y-85900000D02*
X118800000Y-88200000D01*
X158420000Y-84003641D02*
X158420000Y-83696359D01*
X159180000Y-84003641D02*
X159180000Y-83696359D01*
X133310000Y-84492164D02*
X133310000Y-84707836D01*
X132590000Y-84492164D02*
X132590000Y-84707836D01*
X131980000Y-101646359D02*
X131980000Y-101953641D01*
X131220000Y-101646359D02*
X131220000Y-101953641D01*
X146465130Y-73946526D02*
X146582722Y-73662635D01*
X147167278Y-74237365D02*
X147284870Y-73953474D01*
X129757836Y-97960000D02*
X129542164Y-97960000D01*
X129757836Y-97240000D02*
X129542164Y-97240000D01*
X145601136Y-73511861D02*
X145683670Y-73312606D01*
X146266330Y-73787394D02*
X146348864Y-73588139D01*
X144701136Y-73161861D02*
X144783670Y-72962606D01*
X145366330Y-73437394D02*
X145448864Y-73238139D01*
X129946359Y-102920000D02*
X130253641Y-102920000D01*
X129946359Y-103680000D02*
X130253641Y-103680000D01*
X131980000Y-103546359D02*
X131980000Y-103853641D01*
X131220000Y-103546359D02*
X131220000Y-103853641D01*
X129730000Y-85150000D02*
X129730000Y-84010000D01*
X125240000Y-84010000D02*
X125470000Y-84010000D01*
X129960000Y-84010000D02*
X129730000Y-84010000D01*
X129960000Y-84010000D02*
X129960000Y-81290000D01*
X125240000Y-81290000D02*
X125240000Y-84010000D01*
X126550000Y-81290000D02*
X125240000Y-81290000D01*
X129960000Y-81290000D02*
X128650000Y-81290000D01*
X126640000Y-101907836D02*
X126640000Y-101692164D01*
X127360000Y-101907836D02*
X127360000Y-101692164D01*
X131980000Y-99646359D02*
X131980000Y-99953641D01*
X131220000Y-99646359D02*
X131220000Y-99953641D01*
X122990000Y-83911252D02*
X122990000Y-82488748D01*
X124810000Y-83911252D02*
X124810000Y-82488748D01*
X130860000Y-100700000D02*
X130860000Y-99900000D01*
X130860000Y-100700000D02*
X130860000Y-101500000D01*
X127740000Y-100700000D02*
X127740000Y-98900000D01*
X127740000Y-100700000D02*
X127740000Y-101500000D01*
%LPC*%
D12*
X148339338Y-76840670D03*
X142999314Y-74628760D03*
D13*
X149457662Y-77877562D03*
D14*
X151057279Y-74015746D03*
D13*
X141475343Y-74571178D03*
D14*
X143074960Y-70709361D03*
D15*
X120800000Y-95700000D03*
X120800000Y-84700000D03*
D16*
X130799999Y-87699999D03*
D17*
X130800000Y-92700000D03*
D18*
X136150000Y-100550002D03*
X137150000Y-100550002D03*
X138150001Y-100550002D03*
X139150002Y-100550002D03*
X140150002Y-100550002D03*
X136150000Y-99550001D03*
X137150000Y-99550001D03*
X138150001Y-99550001D03*
X139150002Y-99550001D03*
X140150002Y-99550001D03*
X136150000Y-98550000D03*
X137150000Y-98550000D03*
X138150001Y-98550000D03*
X139150002Y-98550000D03*
X140150002Y-98550000D03*
D19*
X138250000Y-87437500D03*
X138900000Y-87437500D03*
X139550000Y-87437500D03*
X140200000Y-87437500D03*
X140850000Y-87437500D03*
X141500000Y-87437500D03*
X142150000Y-87437500D03*
X142150000Y-93162500D03*
X141500000Y-93162500D03*
X140850000Y-93162500D03*
X140200000Y-93162500D03*
X139550000Y-93162500D03*
X138900000Y-93162500D03*
X138250000Y-93162500D03*
D20*
X145287500Y-96825000D03*
X143712500Y-96825000D03*
D21*
X144050000Y-98045000D03*
X144050000Y-99005000D03*
D22*
X125200000Y-94325000D03*
X125200000Y-97275000D03*
D21*
X143450000Y-91570000D03*
X143450000Y-92530000D03*
X143100000Y-98045000D03*
X143100000Y-99005000D03*
D23*
X158800000Y-86260000D03*
X158800000Y-85240000D03*
D24*
X122250000Y-85080000D03*
X122250000Y-84120000D03*
D25*
X145250000Y-98300000D03*
X145250000Y-99850000D03*
D26*
X137300000Y-78925000D03*
X137300000Y-77375000D03*
D27*
X130475000Y-95900000D03*
X127525000Y-95900000D03*
D22*
X147150000Y-97050000D03*
X147150000Y-100000000D03*
D28*
X136550000Y-107450000D03*
X137550000Y-107450000D03*
X138550000Y-107450000D03*
D29*
X135250000Y-103575000D03*
X139850000Y-103575000D03*
D22*
X122800000Y-94325000D03*
X122800000Y-97275000D03*
D30*
X140280000Y-77075000D03*
X139320000Y-77075000D03*
D31*
X135200000Y-88350000D03*
X135200000Y-92650000D03*
D32*
X134050000Y-100600000D03*
X134050000Y-98700000D03*
D22*
X131300000Y-81725000D03*
X131300000Y-84675000D03*
D33*
X147579831Y-74821179D03*
X147970169Y-73878821D03*
D34*
X129620000Y-104300000D03*
X130580000Y-104300000D03*
D35*
X127690000Y-103300000D03*
X128710000Y-103300000D03*
D36*
X151996499Y-86654999D03*
X151996499Y-85384999D03*
X151996499Y-84114999D03*
X151996499Y-82844999D03*
X157203499Y-82844999D03*
X157203499Y-84114999D03*
X157203499Y-85384999D03*
X157203499Y-86654999D03*
D22*
X144150000Y-87325000D03*
X144150000Y-90275000D03*
D24*
X159750000Y-85280000D03*
X159750000Y-84320000D03*
D34*
X154070000Y-81500000D03*
X155030000Y-81500000D03*
D37*
X125699999Y-89599999D03*
X119299999Y-89599999D03*
D23*
X158800000Y-84360000D03*
X158800000Y-83340000D03*
D21*
X132950000Y-84120000D03*
X132950000Y-85080000D03*
D38*
X131600000Y-101290000D03*
X131600000Y-102310000D03*
D33*
X146679831Y-74421179D03*
X147070169Y-73478821D03*
D30*
X130130000Y-97600000D03*
X129170000Y-97600000D03*
D39*
X145791312Y-73993462D03*
X146158688Y-73106538D03*
X144891312Y-73643462D03*
X145258688Y-72756538D03*
D35*
X129590000Y-103300000D03*
X130610000Y-103300000D03*
D38*
X131600000Y-103190000D03*
X131600000Y-104210000D03*
D40*
X129099999Y-84599999D03*
D41*
X127600000Y-84512500D03*
D40*
X126099999Y-84599999D03*
D24*
X127000000Y-102280000D03*
X127000000Y-101320000D03*
D38*
X131600000Y-99290000D03*
X131600000Y-100310000D03*
D42*
X123900000Y-84675000D03*
X123900000Y-81725000D03*
D43*
X128350000Y-99562500D03*
X129300000Y-99562500D03*
X130250000Y-99562500D03*
X130250000Y-101837500D03*
X129300000Y-101837500D03*
X128350000Y-101837500D03*
M02*
