G04 #@! TF.GenerationSoftware,KiCad,Pcbnew,(7.0.0)*
G04 #@! TF.CreationDate,2023-03-23T23:46:18+08:00*
G04 #@! TF.ProjectId,ServoLess,53657276-6f4c-4657-9373-2e6b69636164,rev?*
G04 #@! TF.SameCoordinates,Original*
G04 #@! TF.FileFunction,Legend,Top*
G04 #@! TF.FilePolarity,Positive*
%FSLAX46Y46*%
G04 Gerber Fmt 4.6, Leading zero omitted, Abs format (unit mm)*
G04 Created by KiCad (PCBNEW (7.0.0)) date 2023-03-23 23:46:18*
%MOMM*%
%LPD*%
G01*
G04 APERTURE LIST*
G04 Aperture macros list*
%AMRoundRect*
0 Rectangle with rounded corners*
0 $1 Rounding radius*
0 $2 $3 $4 $5 $6 $7 $8 $9 X,Y pos of 4 corners*
0 Add a 4 corners polygon primitive as box body*
4,1,4,$2,$3,$4,$5,$6,$7,$8,$9,$2,$3,0*
0 Add four circle primitives for the rounded corners*
1,1,$1+$1,$2,$3*
1,1,$1+$1,$4,$5*
1,1,$1+$1,$6,$7*
1,1,$1+$1,$8,$9*
0 Add four rect primitives between the rounded corners*
20,1,$1+$1,$2,$3,$4,$5,0*
20,1,$1+$1,$4,$5,$6,$7,0*
20,1,$1+$1,$6,$7,$8,$9,0*
20,1,$1+$1,$8,$9,$2,$3,0*%
%AMHorizOval*
0 Thick line with rounded ends*
0 $1 width*
0 $2 $3 position (X,Y) of the first rounded end (center of the circle)*
0 $4 $5 position (X,Y) of the second rounded end (center of the circle)*
0 Add line between two ends*
20,1,$1,$2,$3,$4,$5,0*
0 Add two circle primitives to create the rounded ends*
1,1,$1,$2,$3*
1,1,$1,$4,$5*%
%AMRotRect*
0 Rectangle, with rotation*
0 The origin of the aperture is its center*
0 $1 length*
0 $2 width*
0 $3 Rotation angle, in degrees counterclockwise*
0 Add horizontal line*
21,1,$1,$2,0,0,$3*%
G04 Aperture macros list end*
%ADD10C,0.150000*%
%ADD11C,0.120000*%
%ADD12C,0.280000*%
%ADD13RoundRect,0.147500X-0.147500X-0.172500X0.147500X-0.172500X0.147500X0.172500X-0.147500X0.172500X0*%
%ADD14RoundRect,0.150000X-0.150000X0.512500X-0.150000X-0.512500X0.150000X-0.512500X0.150000X0.512500X0*%
%ADD15RoundRect,0.135000X-0.185000X0.135000X-0.185000X-0.135000X0.185000X-0.135000X0.185000X0.135000X0*%
%ADD16R,1.400000X1.200000*%
%ADD17RoundRect,0.135000X0.135000X0.185000X-0.135000X0.185000X-0.135000X-0.185000X0.135000X-0.185000X0*%
%ADD18RoundRect,0.150000X0.520022X-0.377759X0.634827X-0.100595X-0.520022X0.377759X-0.634827X0.100595X0*%
%ADD19RoundRect,0.250000X0.466582X-0.572102X0.734461X0.074614X-0.466582X0.572102X-0.734461X-0.074614X0*%
%ADD20RoundRect,0.218750X-0.218750X-0.256250X0.218750X-0.256250X0.218750X0.256250X-0.218750X0.256250X0*%
%ADD21RoundRect,0.140000X0.170000X-0.140000X0.170000X0.140000X-0.170000X0.140000X-0.170000X-0.140000X0*%
%ADD22RoundRect,0.225000X0.250000X-0.225000X0.250000X0.225000X-0.250000X0.225000X-0.250000X-0.225000X0*%
%ADD23R,0.650000X1.050000*%
%ADD24C,0.650000*%
%ADD25RotRect,0.600000X1.450000X157.500000*%
%ADD26RotRect,0.300000X1.450000X157.500000*%
%ADD27HorizOval,1.000000X0.210476X0.508134X-0.210476X-0.508134X0*%
%ADD28HorizOval,1.000000X0.114805X0.277164X-0.114805X-0.277164X0*%
%ADD29C,1.400000*%
%ADD30R,3.500000X3.500000*%
%ADD31C,3.500000*%
%ADD32RoundRect,0.140000X0.021213X-0.219203X0.219203X-0.021213X-0.021213X0.219203X-0.219203X0.021213X0*%
%ADD33RoundRect,0.135000X-0.135000X-0.185000X0.135000X-0.185000X0.135000X0.185000X-0.135000X0.185000X0*%
%ADD34RoundRect,0.140000X-0.140000X-0.170000X0.140000X-0.170000X0.140000X0.170000X-0.140000X0.170000X0*%
%ADD35RoundRect,0.147500X0.017678X-0.226274X0.226274X-0.017678X-0.017678X0.226274X-0.226274X0.017678X0*%
%ADD36R,0.650000X1.220000*%
%ADD37RoundRect,0.150000X0.704118X0.129296X0.589313X0.406460X-0.704118X-0.129296X-0.589313X-0.406460X0*%
%ADD38RoundRect,0.250000X1.111938X0.189982X0.920597X0.651922X-1.111938X-0.189982X-0.920597X-0.651922X0*%
%ADD39RoundRect,0.147500X-0.172500X0.147500X-0.172500X-0.147500X0.172500X-0.147500X0.172500X0.147500X0*%
%ADD40RoundRect,0.140000X-0.021213X0.219203X-0.219203X0.021213X0.021213X-0.219203X0.219203X-0.021213X0*%
%ADD41RoundRect,0.140000X0.140000X0.170000X-0.140000X0.170000X-0.140000X-0.170000X0.140000X-0.170000X0*%
%ADD42RoundRect,0.062500X0.325000X0.062500X-0.325000X0.062500X-0.325000X-0.062500X0.325000X-0.062500X0*%
%ADD43RoundRect,0.062500X0.062500X0.325000X-0.062500X0.325000X-0.062500X-0.325000X0.062500X-0.325000X0*%
%ADD44R,1.100000X1.100000*%
%ADD45RoundRect,0.250000X0.850000X0.250000X-0.850000X0.250000X-0.850000X-0.250000X0.850000X-0.250000X0*%
%ADD46RoundRect,0.225000X0.225000X0.250000X-0.225000X0.250000X-0.225000X-0.250000X0.225000X-0.250000X0*%
%ADD47RoundRect,0.100000X0.637500X0.100000X-0.637500X0.100000X-0.637500X-0.100000X0.637500X-0.100000X0*%
%ADD48RoundRect,0.250000X-0.625000X0.312500X-0.625000X-0.312500X0.625000X-0.312500X0.625000X0.312500X0*%
%ADD49RoundRect,0.135000X0.185000X-0.135000X0.185000X0.135000X-0.185000X0.135000X-0.185000X-0.135000X0*%
%ADD50RoundRect,0.140000X-0.170000X0.140000X-0.170000X-0.140000X0.170000X-0.140000X0.170000X0.140000X0*%
%ADD51RoundRect,0.225000X-0.225000X-0.250000X0.225000X-0.250000X0.225000X0.250000X-0.225000X0.250000X0*%
%ADD52R,0.449999X1.400000*%
%ADD53C,0.500000*%
%ADD54R,5.180000X3.099999*%
%ADD55RoundRect,0.250000X-0.650000X0.325000X-0.650000X-0.325000X0.650000X-0.325000X0.650000X0.325000X0*%
%ADD56RoundRect,0.050000X-0.387500X-0.050000X0.387500X-0.050000X0.387500X0.050000X-0.387500X0.050000X0*%
%ADD57RoundRect,0.050000X-0.050000X-0.387500X0.050000X-0.387500X0.050000X0.387500X-0.050000X0.387500X0*%
%ADD58R,5.600000X5.600000*%
%ADD59RoundRect,0.112500X0.187500X0.112500X-0.187500X0.112500X-0.187500X-0.112500X0.187500X-0.112500X0*%
%ADD60RoundRect,0.100000X-0.637500X-0.100000X0.637500X-0.100000X0.637500X0.100000X-0.637500X0.100000X0*%
%ADD61RoundRect,0.147500X-0.226274X-0.017678X-0.017678X-0.226274X0.226274X0.017678X0.017678X0.226274X0*%
G04 APERTURE END LIST*
D10*
X146333333Y-85267380D02*
X145857143Y-85267380D01*
X145857143Y-85267380D02*
X145857143Y-84267380D01*
X147095238Y-84600714D02*
X147095238Y-85267380D01*
X146857143Y-84219761D02*
X146619048Y-84934047D01*
X146619048Y-84934047D02*
X147238095Y-84934047D01*
X124917380Y-100211904D02*
X125726904Y-100211904D01*
X125726904Y-100211904D02*
X125822142Y-100164285D01*
X125822142Y-100164285D02*
X125869761Y-100116666D01*
X125869761Y-100116666D02*
X125917380Y-100021428D01*
X125917380Y-100021428D02*
X125917380Y-99830952D01*
X125917380Y-99830952D02*
X125869761Y-99735714D01*
X125869761Y-99735714D02*
X125822142Y-99688095D01*
X125822142Y-99688095D02*
X125726904Y-99640476D01*
X125726904Y-99640476D02*
X124917380Y-99640476D01*
X124917380Y-98735714D02*
X124917380Y-98926190D01*
X124917380Y-98926190D02*
X124965000Y-99021428D01*
X124965000Y-99021428D02*
X125012619Y-99069047D01*
X125012619Y-99069047D02*
X125155476Y-99164285D01*
X125155476Y-99164285D02*
X125345952Y-99211904D01*
X125345952Y-99211904D02*
X125726904Y-99211904D01*
X125726904Y-99211904D02*
X125822142Y-99164285D01*
X125822142Y-99164285D02*
X125869761Y-99116666D01*
X125869761Y-99116666D02*
X125917380Y-99021428D01*
X125917380Y-99021428D02*
X125917380Y-98830952D01*
X125917380Y-98830952D02*
X125869761Y-98735714D01*
X125869761Y-98735714D02*
X125822142Y-98688095D01*
X125822142Y-98688095D02*
X125726904Y-98640476D01*
X125726904Y-98640476D02*
X125488809Y-98640476D01*
X125488809Y-98640476D02*
X125393571Y-98688095D01*
X125393571Y-98688095D02*
X125345952Y-98735714D01*
X125345952Y-98735714D02*
X125298333Y-98830952D01*
X125298333Y-98830952D02*
X125298333Y-99021428D01*
X125298333Y-99021428D02*
X125345952Y-99116666D01*
X125345952Y-99116666D02*
X125393571Y-99164285D01*
X125393571Y-99164285D02*
X125488809Y-99211904D01*
X138842380Y-95067857D02*
X138366190Y-95401190D01*
X138842380Y-95639285D02*
X137842380Y-95639285D01*
X137842380Y-95639285D02*
X137842380Y-95258333D01*
X137842380Y-95258333D02*
X137890000Y-95163095D01*
X137890000Y-95163095D02*
X137937619Y-95115476D01*
X137937619Y-95115476D02*
X138032857Y-95067857D01*
X138032857Y-95067857D02*
X138175714Y-95067857D01*
X138175714Y-95067857D02*
X138270952Y-95115476D01*
X138270952Y-95115476D02*
X138318571Y-95163095D01*
X138318571Y-95163095D02*
X138366190Y-95258333D01*
X138366190Y-95258333D02*
X138366190Y-95639285D01*
X137937619Y-94686904D02*
X137890000Y-94639285D01*
X137890000Y-94639285D02*
X137842380Y-94544047D01*
X137842380Y-94544047D02*
X137842380Y-94305952D01*
X137842380Y-94305952D02*
X137890000Y-94210714D01*
X137890000Y-94210714D02*
X137937619Y-94163095D01*
X137937619Y-94163095D02*
X138032857Y-94115476D01*
X138032857Y-94115476D02*
X138128095Y-94115476D01*
X138128095Y-94115476D02*
X138270952Y-94163095D01*
X138270952Y-94163095D02*
X138842380Y-94734523D01*
X138842380Y-94734523D02*
X138842380Y-94115476D01*
X137842380Y-93496428D02*
X137842380Y-93401190D01*
X137842380Y-93401190D02*
X137890000Y-93305952D01*
X137890000Y-93305952D02*
X137937619Y-93258333D01*
X137937619Y-93258333D02*
X138032857Y-93210714D01*
X138032857Y-93210714D02*
X138223333Y-93163095D01*
X138223333Y-93163095D02*
X138461428Y-93163095D01*
X138461428Y-93163095D02*
X138651904Y-93210714D01*
X138651904Y-93210714D02*
X138747142Y-93258333D01*
X138747142Y-93258333D02*
X138794761Y-93305952D01*
X138794761Y-93305952D02*
X138842380Y-93401190D01*
X138842380Y-93401190D02*
X138842380Y-93496428D01*
X138842380Y-93496428D02*
X138794761Y-93591666D01*
X138794761Y-93591666D02*
X138747142Y-93639285D01*
X138747142Y-93639285D02*
X138651904Y-93686904D01*
X138651904Y-93686904D02*
X138461428Y-93734523D01*
X138461428Y-93734523D02*
X138223333Y-93734523D01*
X138223333Y-93734523D02*
X138032857Y-93686904D01*
X138032857Y-93686904D02*
X137937619Y-93639285D01*
X137937619Y-93639285D02*
X137890000Y-93591666D01*
X137890000Y-93591666D02*
X137842380Y-93496428D01*
X147048809Y-80041190D02*
X147048809Y-80517380D01*
X146715476Y-79517380D02*
X147048809Y-80041190D01*
X147048809Y-80041190D02*
X147382142Y-79517380D01*
X148239285Y-80517380D02*
X147667857Y-80517380D01*
X147953571Y-80517380D02*
X147953571Y-79517380D01*
X147953571Y-79517380D02*
X147858333Y-79660238D01*
X147858333Y-79660238D02*
X147763095Y-79755476D01*
X147763095Y-79755476D02*
X147667857Y-79803095D01*
X137558333Y-91817380D02*
X137225000Y-91341190D01*
X136986905Y-91817380D02*
X136986905Y-90817380D01*
X136986905Y-90817380D02*
X137367857Y-90817380D01*
X137367857Y-90817380D02*
X137463095Y-90865000D01*
X137463095Y-90865000D02*
X137510714Y-90912619D01*
X137510714Y-90912619D02*
X137558333Y-91007857D01*
X137558333Y-91007857D02*
X137558333Y-91150714D01*
X137558333Y-91150714D02*
X137510714Y-91245952D01*
X137510714Y-91245952D02*
X137463095Y-91293571D01*
X137463095Y-91293571D02*
X137367857Y-91341190D01*
X137367857Y-91341190D02*
X136986905Y-91341190D01*
X138129762Y-91245952D02*
X138034524Y-91198333D01*
X138034524Y-91198333D02*
X137986905Y-91150714D01*
X137986905Y-91150714D02*
X137939286Y-91055476D01*
X137939286Y-91055476D02*
X137939286Y-91007857D01*
X137939286Y-91007857D02*
X137986905Y-90912619D01*
X137986905Y-90912619D02*
X138034524Y-90865000D01*
X138034524Y-90865000D02*
X138129762Y-90817380D01*
X138129762Y-90817380D02*
X138320238Y-90817380D01*
X138320238Y-90817380D02*
X138415476Y-90865000D01*
X138415476Y-90865000D02*
X138463095Y-90912619D01*
X138463095Y-90912619D02*
X138510714Y-91007857D01*
X138510714Y-91007857D02*
X138510714Y-91055476D01*
X138510714Y-91055476D02*
X138463095Y-91150714D01*
X138463095Y-91150714D02*
X138415476Y-91198333D01*
X138415476Y-91198333D02*
X138320238Y-91245952D01*
X138320238Y-91245952D02*
X138129762Y-91245952D01*
X138129762Y-91245952D02*
X138034524Y-91293571D01*
X138034524Y-91293571D02*
X137986905Y-91341190D01*
X137986905Y-91341190D02*
X137939286Y-91436428D01*
X137939286Y-91436428D02*
X137939286Y-91626904D01*
X137939286Y-91626904D02*
X137986905Y-91722142D01*
X137986905Y-91722142D02*
X138034524Y-91769761D01*
X138034524Y-91769761D02*
X138129762Y-91817380D01*
X138129762Y-91817380D02*
X138320238Y-91817380D01*
X138320238Y-91817380D02*
X138415476Y-91769761D01*
X138415476Y-91769761D02*
X138463095Y-91722142D01*
X138463095Y-91722142D02*
X138510714Y-91626904D01*
X138510714Y-91626904D02*
X138510714Y-91436428D01*
X138510714Y-91436428D02*
X138463095Y-91341190D01*
X138463095Y-91341190D02*
X138415476Y-91293571D01*
X138415476Y-91293571D02*
X138320238Y-91245952D01*
X153835934Y-96417787D02*
X154495847Y-96691132D01*
X154495847Y-96691132D02*
X154609607Y-96789795D01*
X154609607Y-96789795D02*
X154661150Y-96914230D01*
X154661150Y-96914230D02*
X154650475Y-97064436D01*
X154650475Y-97064436D02*
X154614029Y-97152424D01*
X154182171Y-95581895D02*
X154109279Y-95757872D01*
X154109279Y-95757872D02*
X154116827Y-95864084D01*
X154116827Y-95864084D02*
X154142598Y-95926301D01*
X154142598Y-95926301D02*
X154238135Y-96068959D01*
X154238135Y-96068959D02*
X154395889Y-96185845D01*
X154395889Y-96185845D02*
X154747843Y-96331629D01*
X154747843Y-96331629D02*
X154854055Y-96324081D01*
X154854055Y-96324081D02*
X154916272Y-96298310D01*
X154916272Y-96298310D02*
X154996712Y-96228544D01*
X154996712Y-96228544D02*
X155069604Y-96052567D01*
X155069604Y-96052567D02*
X155062056Y-95946356D01*
X155062056Y-95946356D02*
X155036285Y-95884139D01*
X155036285Y-95884139D02*
X154966520Y-95803698D01*
X154966520Y-95803698D02*
X154746548Y-95712583D01*
X154746548Y-95712583D02*
X154640337Y-95720131D01*
X154640337Y-95720131D02*
X154578119Y-95745903D01*
X154578119Y-95745903D02*
X154497679Y-95815668D01*
X154497679Y-95815668D02*
X154424787Y-95991645D01*
X154424787Y-95991645D02*
X154432335Y-96097857D01*
X154432335Y-96097857D02*
X154458106Y-96160074D01*
X154458106Y-96160074D02*
X154527872Y-96240514D01*
X153811905Y-86017380D02*
X153811905Y-85017380D01*
X153811905Y-85017380D02*
X154050000Y-85017380D01*
X154050000Y-85017380D02*
X154192857Y-85065000D01*
X154192857Y-85065000D02*
X154288095Y-85160238D01*
X154288095Y-85160238D02*
X154335714Y-85255476D01*
X154335714Y-85255476D02*
X154383333Y-85445952D01*
X154383333Y-85445952D02*
X154383333Y-85588809D01*
X154383333Y-85588809D02*
X154335714Y-85779285D01*
X154335714Y-85779285D02*
X154288095Y-85874523D01*
X154288095Y-85874523D02*
X154192857Y-85969761D01*
X154192857Y-85969761D02*
X154050000Y-86017380D01*
X154050000Y-86017380D02*
X153811905Y-86017380D01*
X155335714Y-86017380D02*
X154764286Y-86017380D01*
X155050000Y-86017380D02*
X155050000Y-85017380D01*
X155050000Y-85017380D02*
X154954762Y-85160238D01*
X154954762Y-85160238D02*
X154859524Y-85255476D01*
X154859524Y-85255476D02*
X154764286Y-85303095D01*
X149972142Y-81741666D02*
X150019761Y-81789285D01*
X150019761Y-81789285D02*
X150067380Y-81932142D01*
X150067380Y-81932142D02*
X150067380Y-82027380D01*
X150067380Y-82027380D02*
X150019761Y-82170237D01*
X150019761Y-82170237D02*
X149924523Y-82265475D01*
X149924523Y-82265475D02*
X149829285Y-82313094D01*
X149829285Y-82313094D02*
X149638809Y-82360713D01*
X149638809Y-82360713D02*
X149495952Y-82360713D01*
X149495952Y-82360713D02*
X149305476Y-82313094D01*
X149305476Y-82313094D02*
X149210238Y-82265475D01*
X149210238Y-82265475D02*
X149115000Y-82170237D01*
X149115000Y-82170237D02*
X149067380Y-82027380D01*
X149067380Y-82027380D02*
X149067380Y-81932142D01*
X149067380Y-81932142D02*
X149115000Y-81789285D01*
X149115000Y-81789285D02*
X149162619Y-81741666D01*
X149400714Y-80884523D02*
X150067380Y-80884523D01*
X149019761Y-81122618D02*
X149734047Y-81360713D01*
X149734047Y-81360713D02*
X149734047Y-80741666D01*
X136159761Y-90183332D02*
X136207380Y-90040475D01*
X136207380Y-90040475D02*
X136207380Y-89802380D01*
X136207380Y-89802380D02*
X136159761Y-89707142D01*
X136159761Y-89707142D02*
X136112142Y-89659523D01*
X136112142Y-89659523D02*
X136016904Y-89611904D01*
X136016904Y-89611904D02*
X135921666Y-89611904D01*
X135921666Y-89611904D02*
X135826428Y-89659523D01*
X135826428Y-89659523D02*
X135778809Y-89707142D01*
X135778809Y-89707142D02*
X135731190Y-89802380D01*
X135731190Y-89802380D02*
X135683571Y-89992856D01*
X135683571Y-89992856D02*
X135635952Y-90088094D01*
X135635952Y-90088094D02*
X135588333Y-90135713D01*
X135588333Y-90135713D02*
X135493095Y-90183332D01*
X135493095Y-90183332D02*
X135397857Y-90183332D01*
X135397857Y-90183332D02*
X135302619Y-90135713D01*
X135302619Y-90135713D02*
X135255000Y-90088094D01*
X135255000Y-90088094D02*
X135207380Y-89992856D01*
X135207380Y-89992856D02*
X135207380Y-89754761D01*
X135207380Y-89754761D02*
X135255000Y-89611904D01*
X135207380Y-89278570D02*
X136207380Y-89040475D01*
X136207380Y-89040475D02*
X135493095Y-88849999D01*
X135493095Y-88849999D02*
X136207380Y-88659523D01*
X136207380Y-88659523D02*
X135207380Y-88421428D01*
X136207380Y-87516666D02*
X136207380Y-88088094D01*
X136207380Y-87802380D02*
X135207380Y-87802380D01*
X135207380Y-87802380D02*
X135350238Y-87897618D01*
X135350238Y-87897618D02*
X135445476Y-87992856D01*
X135445476Y-87992856D02*
X135493095Y-88088094D01*
X148534132Y-75012975D02*
X148260787Y-75672888D01*
X148260787Y-75672888D02*
X148162124Y-75786648D01*
X148162124Y-75786648D02*
X148037689Y-75838191D01*
X148037689Y-75838191D02*
X147887483Y-75827516D01*
X147887483Y-75827516D02*
X147799495Y-75791070D01*
X148893635Y-75264970D02*
X148955852Y-75239199D01*
X148955852Y-75239199D02*
X149062064Y-75231651D01*
X149062064Y-75231651D02*
X149282035Y-75322766D01*
X149282035Y-75322766D02*
X149351801Y-75403206D01*
X149351801Y-75403206D02*
X149377572Y-75465424D01*
X149377572Y-75465424D02*
X149385120Y-75571635D01*
X149385120Y-75571635D02*
X149348674Y-75659624D01*
X149348674Y-75659624D02*
X149250011Y-75773383D01*
X149250011Y-75773383D02*
X148503403Y-76082638D01*
X148503403Y-76082638D02*
X149075329Y-76319538D01*
X129348333Y-75642380D02*
X129015000Y-75166190D01*
X128776905Y-75642380D02*
X128776905Y-74642380D01*
X128776905Y-74642380D02*
X129157857Y-74642380D01*
X129157857Y-74642380D02*
X129253095Y-74690000D01*
X129253095Y-74690000D02*
X129300714Y-74737619D01*
X129300714Y-74737619D02*
X129348333Y-74832857D01*
X129348333Y-74832857D02*
X129348333Y-74975714D01*
X129348333Y-74975714D02*
X129300714Y-75070952D01*
X129300714Y-75070952D02*
X129253095Y-75118571D01*
X129253095Y-75118571D02*
X129157857Y-75166190D01*
X129157857Y-75166190D02*
X128776905Y-75166190D01*
X129729286Y-74737619D02*
X129776905Y-74690000D01*
X129776905Y-74690000D02*
X129872143Y-74642380D01*
X129872143Y-74642380D02*
X130110238Y-74642380D01*
X130110238Y-74642380D02*
X130205476Y-74690000D01*
X130205476Y-74690000D02*
X130253095Y-74737619D01*
X130253095Y-74737619D02*
X130300714Y-74832857D01*
X130300714Y-74832857D02*
X130300714Y-74928095D01*
X130300714Y-74928095D02*
X130253095Y-75070952D01*
X130253095Y-75070952D02*
X129681667Y-75642380D01*
X129681667Y-75642380D02*
X130300714Y-75642380D01*
X139817380Y-87916666D02*
X139341190Y-88249999D01*
X139817380Y-88488094D02*
X138817380Y-88488094D01*
X138817380Y-88488094D02*
X138817380Y-88107142D01*
X138817380Y-88107142D02*
X138865000Y-88011904D01*
X138865000Y-88011904D02*
X138912619Y-87964285D01*
X138912619Y-87964285D02*
X139007857Y-87916666D01*
X139007857Y-87916666D02*
X139150714Y-87916666D01*
X139150714Y-87916666D02*
X139245952Y-87964285D01*
X139245952Y-87964285D02*
X139293571Y-88011904D01*
X139293571Y-88011904D02*
X139341190Y-88107142D01*
X139341190Y-88107142D02*
X139341190Y-88488094D01*
X139150714Y-87059523D02*
X139817380Y-87059523D01*
X138769761Y-87297618D02*
X139484047Y-87535713D01*
X139484047Y-87535713D02*
X139484047Y-86916666D01*
X115667380Y-90533333D02*
X116381666Y-90533333D01*
X116381666Y-90533333D02*
X116524523Y-90580952D01*
X116524523Y-90580952D02*
X116619761Y-90676190D01*
X116619761Y-90676190D02*
X116667380Y-90819047D01*
X116667380Y-90819047D02*
X116667380Y-90914285D01*
X116667380Y-89533333D02*
X116667380Y-90104761D01*
X116667380Y-89819047D02*
X115667380Y-89819047D01*
X115667380Y-89819047D02*
X115810238Y-89914285D01*
X115810238Y-89914285D02*
X115905476Y-90009523D01*
X115905476Y-90009523D02*
X115953095Y-90104761D01*
X130779642Y-85271428D02*
X130779642Y-84128571D01*
X130779642Y-96271428D02*
X130779642Y-95128571D01*
X131351071Y-95699999D02*
X130208214Y-95699999D01*
X135249583Y-79260284D02*
X135249583Y-79327628D01*
X135249583Y-79327628D02*
X135182239Y-79462315D01*
X135182239Y-79462315D02*
X135114896Y-79529658D01*
X135114896Y-79529658D02*
X134980209Y-79597002D01*
X134980209Y-79597002D02*
X134845522Y-79597002D01*
X134845522Y-79597002D02*
X134744506Y-79563330D01*
X134744506Y-79563330D02*
X134576148Y-79462315D01*
X134576148Y-79462315D02*
X134475132Y-79361300D01*
X134475132Y-79361300D02*
X134374117Y-79192941D01*
X134374117Y-79192941D02*
X134340445Y-79091926D01*
X134340445Y-79091926D02*
X134340445Y-78957239D01*
X134340445Y-78957239D02*
X134407789Y-78822552D01*
X134407789Y-78822552D02*
X134475132Y-78755208D01*
X134475132Y-78755208D02*
X134609819Y-78687865D01*
X134609819Y-78687865D02*
X134677163Y-78687865D01*
X134946537Y-78418491D02*
X134946537Y-78351147D01*
X134946537Y-78351147D02*
X134980209Y-78250132D01*
X134980209Y-78250132D02*
X135148568Y-78081773D01*
X135148568Y-78081773D02*
X135249583Y-78048101D01*
X135249583Y-78048101D02*
X135316926Y-78048101D01*
X135316926Y-78048101D02*
X135417942Y-78081773D01*
X135417942Y-78081773D02*
X135485285Y-78149117D01*
X135485285Y-78149117D02*
X135552629Y-78283804D01*
X135552629Y-78283804D02*
X135552629Y-79091926D01*
X135552629Y-79091926D02*
X135990361Y-78654193D01*
X154358333Y-87242380D02*
X154025000Y-86766190D01*
X153786905Y-87242380D02*
X153786905Y-86242380D01*
X153786905Y-86242380D02*
X154167857Y-86242380D01*
X154167857Y-86242380D02*
X154263095Y-86290000D01*
X154263095Y-86290000D02*
X154310714Y-86337619D01*
X154310714Y-86337619D02*
X154358333Y-86432857D01*
X154358333Y-86432857D02*
X154358333Y-86575714D01*
X154358333Y-86575714D02*
X154310714Y-86670952D01*
X154310714Y-86670952D02*
X154263095Y-86718571D01*
X154263095Y-86718571D02*
X154167857Y-86766190D01*
X154167857Y-86766190D02*
X153786905Y-86766190D01*
X155215476Y-86242380D02*
X155025000Y-86242380D01*
X155025000Y-86242380D02*
X154929762Y-86290000D01*
X154929762Y-86290000D02*
X154882143Y-86337619D01*
X154882143Y-86337619D02*
X154786905Y-86480476D01*
X154786905Y-86480476D02*
X154739286Y-86670952D01*
X154739286Y-86670952D02*
X154739286Y-87051904D01*
X154739286Y-87051904D02*
X154786905Y-87147142D01*
X154786905Y-87147142D02*
X154834524Y-87194761D01*
X154834524Y-87194761D02*
X154929762Y-87242380D01*
X154929762Y-87242380D02*
X155120238Y-87242380D01*
X155120238Y-87242380D02*
X155215476Y-87194761D01*
X155215476Y-87194761D02*
X155263095Y-87147142D01*
X155263095Y-87147142D02*
X155310714Y-87051904D01*
X155310714Y-87051904D02*
X155310714Y-86813809D01*
X155310714Y-86813809D02*
X155263095Y-86718571D01*
X155263095Y-86718571D02*
X155215476Y-86670952D01*
X155215476Y-86670952D02*
X155120238Y-86623333D01*
X155120238Y-86623333D02*
X154929762Y-86623333D01*
X154929762Y-86623333D02*
X154834524Y-86670952D01*
X154834524Y-86670952D02*
X154786905Y-86718571D01*
X154786905Y-86718571D02*
X154739286Y-86813809D01*
X130082142Y-104522142D02*
X130034523Y-104569761D01*
X130034523Y-104569761D02*
X129891666Y-104617380D01*
X129891666Y-104617380D02*
X129796428Y-104617380D01*
X129796428Y-104617380D02*
X129653571Y-104569761D01*
X129653571Y-104569761D02*
X129558333Y-104474523D01*
X129558333Y-104474523D02*
X129510714Y-104379285D01*
X129510714Y-104379285D02*
X129463095Y-104188809D01*
X129463095Y-104188809D02*
X129463095Y-104045952D01*
X129463095Y-104045952D02*
X129510714Y-103855476D01*
X129510714Y-103855476D02*
X129558333Y-103760238D01*
X129558333Y-103760238D02*
X129653571Y-103665000D01*
X129653571Y-103665000D02*
X129796428Y-103617380D01*
X129796428Y-103617380D02*
X129891666Y-103617380D01*
X129891666Y-103617380D02*
X130034523Y-103665000D01*
X130034523Y-103665000D02*
X130082142Y-103712619D01*
X130939285Y-103950714D02*
X130939285Y-104617380D01*
X130701190Y-103569761D02*
X130463095Y-104284047D01*
X130463095Y-104284047D02*
X131082142Y-104284047D01*
X131653571Y-103617380D02*
X131748809Y-103617380D01*
X131748809Y-103617380D02*
X131844047Y-103665000D01*
X131844047Y-103665000D02*
X131891666Y-103712619D01*
X131891666Y-103712619D02*
X131939285Y-103807857D01*
X131939285Y-103807857D02*
X131986904Y-103998333D01*
X131986904Y-103998333D02*
X131986904Y-104236428D01*
X131986904Y-104236428D02*
X131939285Y-104426904D01*
X131939285Y-104426904D02*
X131891666Y-104522142D01*
X131891666Y-104522142D02*
X131844047Y-104569761D01*
X131844047Y-104569761D02*
X131748809Y-104617380D01*
X131748809Y-104617380D02*
X131653571Y-104617380D01*
X131653571Y-104617380D02*
X131558333Y-104569761D01*
X131558333Y-104569761D02*
X131510714Y-104522142D01*
X131510714Y-104522142D02*
X131463095Y-104426904D01*
X131463095Y-104426904D02*
X131415476Y-104236428D01*
X131415476Y-104236428D02*
X131415476Y-103998333D01*
X131415476Y-103998333D02*
X131463095Y-103807857D01*
X131463095Y-103807857D02*
X131510714Y-103712619D01*
X131510714Y-103712619D02*
X131558333Y-103665000D01*
X131558333Y-103665000D02*
X131653571Y-103617380D01*
X134491926Y-78477628D02*
X134155209Y-78814345D01*
X134155209Y-78814345D02*
X133448102Y-78107239D01*
X135098018Y-77871536D02*
X134693957Y-78275597D01*
X134895987Y-78073567D02*
X134188881Y-77366460D01*
X134188881Y-77366460D02*
X134222552Y-77534819D01*
X134222552Y-77534819D02*
X134222552Y-77669506D01*
X134222552Y-77669506D02*
X134188881Y-77770521D01*
X130488095Y-78402380D02*
X130488095Y-79211904D01*
X130488095Y-79211904D02*
X130535714Y-79307142D01*
X130535714Y-79307142D02*
X130583333Y-79354761D01*
X130583333Y-79354761D02*
X130678571Y-79402380D01*
X130678571Y-79402380D02*
X130869047Y-79402380D01*
X130869047Y-79402380D02*
X130964285Y-79354761D01*
X130964285Y-79354761D02*
X131011904Y-79307142D01*
X131011904Y-79307142D02*
X131059523Y-79211904D01*
X131059523Y-79211904D02*
X131059523Y-78402380D01*
X132059523Y-79402380D02*
X131488095Y-79402380D01*
X131773809Y-79402380D02*
X131773809Y-78402380D01*
X131773809Y-78402380D02*
X131678571Y-78545238D01*
X131678571Y-78545238D02*
X131583333Y-78640476D01*
X131583333Y-78640476D02*
X131488095Y-78688095D01*
X155203772Y-83517412D02*
X154543858Y-83790757D01*
X154543858Y-83790757D02*
X154393652Y-83801432D01*
X154393652Y-83801432D02*
X154269218Y-83749889D01*
X154269218Y-83749889D02*
X154170554Y-83636130D01*
X154170554Y-83636130D02*
X154134108Y-83548141D01*
X155349556Y-83869366D02*
X155586456Y-84441291D01*
X155586456Y-84441291D02*
X155106940Y-84279116D01*
X155106940Y-84279116D02*
X155161609Y-84411099D01*
X155161609Y-84411099D02*
X155154061Y-84517310D01*
X155154061Y-84517310D02*
X155128290Y-84579527D01*
X155128290Y-84579527D02*
X155058524Y-84659968D01*
X155058524Y-84659968D02*
X154838553Y-84751083D01*
X154838553Y-84751083D02*
X154732342Y-84743535D01*
X154732342Y-84743535D02*
X154670124Y-84717763D01*
X154670124Y-84717763D02*
X154589684Y-84647998D01*
X154589684Y-84647998D02*
X154480346Y-84384032D01*
X154480346Y-84384032D02*
X154487894Y-84277821D01*
X154487894Y-84277821D02*
X154513665Y-84215603D01*
X136592380Y-80141666D02*
X136592380Y-80617856D01*
X136592380Y-80617856D02*
X135592380Y-80617856D01*
X135592380Y-79903570D02*
X135592380Y-79284523D01*
X135592380Y-79284523D02*
X135973333Y-79617856D01*
X135973333Y-79617856D02*
X135973333Y-79474999D01*
X135973333Y-79474999D02*
X136020952Y-79379761D01*
X136020952Y-79379761D02*
X136068571Y-79332142D01*
X136068571Y-79332142D02*
X136163809Y-79284523D01*
X136163809Y-79284523D02*
X136401904Y-79284523D01*
X136401904Y-79284523D02*
X136497142Y-79332142D01*
X136497142Y-79332142D02*
X136544761Y-79379761D01*
X136544761Y-79379761D02*
X136592380Y-79474999D01*
X136592380Y-79474999D02*
X136592380Y-79760713D01*
X136592380Y-79760713D02*
X136544761Y-79855951D01*
X136544761Y-79855951D02*
X136497142Y-79903570D01*
X144482142Y-80372142D02*
X144434523Y-80419761D01*
X144434523Y-80419761D02*
X144291666Y-80467380D01*
X144291666Y-80467380D02*
X144196428Y-80467380D01*
X144196428Y-80467380D02*
X144053571Y-80419761D01*
X144053571Y-80419761D02*
X143958333Y-80324523D01*
X143958333Y-80324523D02*
X143910714Y-80229285D01*
X143910714Y-80229285D02*
X143863095Y-80038809D01*
X143863095Y-80038809D02*
X143863095Y-79895952D01*
X143863095Y-79895952D02*
X143910714Y-79705476D01*
X143910714Y-79705476D02*
X143958333Y-79610238D01*
X143958333Y-79610238D02*
X144053571Y-79515000D01*
X144053571Y-79515000D02*
X144196428Y-79467380D01*
X144196428Y-79467380D02*
X144291666Y-79467380D01*
X144291666Y-79467380D02*
X144434523Y-79515000D01*
X144434523Y-79515000D02*
X144482142Y-79562619D01*
X145434523Y-80467380D02*
X144863095Y-80467380D01*
X145148809Y-80467380D02*
X145148809Y-79467380D01*
X145148809Y-79467380D02*
X145053571Y-79610238D01*
X145053571Y-79610238D02*
X144958333Y-79705476D01*
X144958333Y-79705476D02*
X144863095Y-79753095D01*
X145910714Y-80467380D02*
X146101190Y-80467380D01*
X146101190Y-80467380D02*
X146196428Y-80419761D01*
X146196428Y-80419761D02*
X146244047Y-80372142D01*
X146244047Y-80372142D02*
X146339285Y-80229285D01*
X146339285Y-80229285D02*
X146386904Y-80038809D01*
X146386904Y-80038809D02*
X146386904Y-79657857D01*
X146386904Y-79657857D02*
X146339285Y-79562619D01*
X146339285Y-79562619D02*
X146291666Y-79515000D01*
X146291666Y-79515000D02*
X146196428Y-79467380D01*
X146196428Y-79467380D02*
X146005952Y-79467380D01*
X146005952Y-79467380D02*
X145910714Y-79515000D01*
X145910714Y-79515000D02*
X145863095Y-79562619D01*
X145863095Y-79562619D02*
X145815476Y-79657857D01*
X145815476Y-79657857D02*
X145815476Y-79895952D01*
X145815476Y-79895952D02*
X145863095Y-79991190D01*
X145863095Y-79991190D02*
X145910714Y-80038809D01*
X145910714Y-80038809D02*
X146005952Y-80086428D01*
X146005952Y-80086428D02*
X146196428Y-80086428D01*
X146196428Y-80086428D02*
X146291666Y-80038809D01*
X146291666Y-80038809D02*
X146339285Y-79991190D01*
X146339285Y-79991190D02*
X146386904Y-79895952D01*
X134099583Y-80410284D02*
X134099583Y-80477628D01*
X134099583Y-80477628D02*
X134032239Y-80612315D01*
X134032239Y-80612315D02*
X133964896Y-80679658D01*
X133964896Y-80679658D02*
X133830209Y-80747002D01*
X133830209Y-80747002D02*
X133695522Y-80747002D01*
X133695522Y-80747002D02*
X133594506Y-80713330D01*
X133594506Y-80713330D02*
X133426148Y-80612315D01*
X133426148Y-80612315D02*
X133325132Y-80511300D01*
X133325132Y-80511300D02*
X133224117Y-80342941D01*
X133224117Y-80342941D02*
X133190445Y-80241926D01*
X133190445Y-80241926D02*
X133190445Y-80107239D01*
X133190445Y-80107239D02*
X133257789Y-79972552D01*
X133257789Y-79972552D02*
X133325132Y-79905208D01*
X133325132Y-79905208D02*
X133459819Y-79837865D01*
X133459819Y-79837865D02*
X133527163Y-79837865D01*
X134840361Y-79804193D02*
X134436300Y-80208254D01*
X134638331Y-80006223D02*
X133931224Y-79299117D01*
X133931224Y-79299117D02*
X133964896Y-79467475D01*
X133964896Y-79467475D02*
X133964896Y-79602162D01*
X133964896Y-79602162D02*
X133931224Y-79703178D01*
X139408333Y-91272142D02*
X139360714Y-91319761D01*
X139360714Y-91319761D02*
X139217857Y-91367380D01*
X139217857Y-91367380D02*
X139122619Y-91367380D01*
X139122619Y-91367380D02*
X138979762Y-91319761D01*
X138979762Y-91319761D02*
X138884524Y-91224523D01*
X138884524Y-91224523D02*
X138836905Y-91129285D01*
X138836905Y-91129285D02*
X138789286Y-90938809D01*
X138789286Y-90938809D02*
X138789286Y-90795952D01*
X138789286Y-90795952D02*
X138836905Y-90605476D01*
X138836905Y-90605476D02*
X138884524Y-90510238D01*
X138884524Y-90510238D02*
X138979762Y-90415000D01*
X138979762Y-90415000D02*
X139122619Y-90367380D01*
X139122619Y-90367380D02*
X139217857Y-90367380D01*
X139217857Y-90367380D02*
X139360714Y-90415000D01*
X139360714Y-90415000D02*
X139408333Y-90462619D01*
X140265476Y-90367380D02*
X140075000Y-90367380D01*
X140075000Y-90367380D02*
X139979762Y-90415000D01*
X139979762Y-90415000D02*
X139932143Y-90462619D01*
X139932143Y-90462619D02*
X139836905Y-90605476D01*
X139836905Y-90605476D02*
X139789286Y-90795952D01*
X139789286Y-90795952D02*
X139789286Y-91176904D01*
X139789286Y-91176904D02*
X139836905Y-91272142D01*
X139836905Y-91272142D02*
X139884524Y-91319761D01*
X139884524Y-91319761D02*
X139979762Y-91367380D01*
X139979762Y-91367380D02*
X140170238Y-91367380D01*
X140170238Y-91367380D02*
X140265476Y-91319761D01*
X140265476Y-91319761D02*
X140313095Y-91272142D01*
X140313095Y-91272142D02*
X140360714Y-91176904D01*
X140360714Y-91176904D02*
X140360714Y-90938809D01*
X140360714Y-90938809D02*
X140313095Y-90843571D01*
X140313095Y-90843571D02*
X140265476Y-90795952D01*
X140265476Y-90795952D02*
X140170238Y-90748333D01*
X140170238Y-90748333D02*
X139979762Y-90748333D01*
X139979762Y-90748333D02*
X139884524Y-90795952D01*
X139884524Y-90795952D02*
X139836905Y-90843571D01*
X139836905Y-90843571D02*
X139789286Y-90938809D01*
X119482142Y-99347142D02*
X119434523Y-99394761D01*
X119434523Y-99394761D02*
X119291666Y-99442380D01*
X119291666Y-99442380D02*
X119196428Y-99442380D01*
X119196428Y-99442380D02*
X119053571Y-99394761D01*
X119053571Y-99394761D02*
X118958333Y-99299523D01*
X118958333Y-99299523D02*
X118910714Y-99204285D01*
X118910714Y-99204285D02*
X118863095Y-99013809D01*
X118863095Y-99013809D02*
X118863095Y-98870952D01*
X118863095Y-98870952D02*
X118910714Y-98680476D01*
X118910714Y-98680476D02*
X118958333Y-98585238D01*
X118958333Y-98585238D02*
X119053571Y-98490000D01*
X119053571Y-98490000D02*
X119196428Y-98442380D01*
X119196428Y-98442380D02*
X119291666Y-98442380D01*
X119291666Y-98442380D02*
X119434523Y-98490000D01*
X119434523Y-98490000D02*
X119482142Y-98537619D01*
X119863095Y-98537619D02*
X119910714Y-98490000D01*
X119910714Y-98490000D02*
X120005952Y-98442380D01*
X120005952Y-98442380D02*
X120244047Y-98442380D01*
X120244047Y-98442380D02*
X120339285Y-98490000D01*
X120339285Y-98490000D02*
X120386904Y-98537619D01*
X120386904Y-98537619D02*
X120434523Y-98632857D01*
X120434523Y-98632857D02*
X120434523Y-98728095D01*
X120434523Y-98728095D02*
X120386904Y-98870952D01*
X120386904Y-98870952D02*
X119815476Y-99442380D01*
X119815476Y-99442380D02*
X120434523Y-99442380D01*
X120767857Y-98442380D02*
X121434523Y-98442380D01*
X121434523Y-98442380D02*
X121005952Y-99442380D01*
X137642380Y-95067857D02*
X137166190Y-95401190D01*
X137642380Y-95639285D02*
X136642380Y-95639285D01*
X136642380Y-95639285D02*
X136642380Y-95258333D01*
X136642380Y-95258333D02*
X136690000Y-95163095D01*
X136690000Y-95163095D02*
X136737619Y-95115476D01*
X136737619Y-95115476D02*
X136832857Y-95067857D01*
X136832857Y-95067857D02*
X136975714Y-95067857D01*
X136975714Y-95067857D02*
X137070952Y-95115476D01*
X137070952Y-95115476D02*
X137118571Y-95163095D01*
X137118571Y-95163095D02*
X137166190Y-95258333D01*
X137166190Y-95258333D02*
X137166190Y-95639285D01*
X136737619Y-94686904D02*
X136690000Y-94639285D01*
X136690000Y-94639285D02*
X136642380Y-94544047D01*
X136642380Y-94544047D02*
X136642380Y-94305952D01*
X136642380Y-94305952D02*
X136690000Y-94210714D01*
X136690000Y-94210714D02*
X136737619Y-94163095D01*
X136737619Y-94163095D02*
X136832857Y-94115476D01*
X136832857Y-94115476D02*
X136928095Y-94115476D01*
X136928095Y-94115476D02*
X137070952Y-94163095D01*
X137070952Y-94163095D02*
X137642380Y-94734523D01*
X137642380Y-94734523D02*
X137642380Y-94115476D01*
X137642380Y-93163095D02*
X137642380Y-93734523D01*
X137642380Y-93448809D02*
X136642380Y-93448809D01*
X136642380Y-93448809D02*
X136785238Y-93544047D01*
X136785238Y-93544047D02*
X136880476Y-93639285D01*
X136880476Y-93639285D02*
X136928095Y-93734523D01*
X127498333Y-75667380D02*
X127165000Y-75191190D01*
X126926905Y-75667380D02*
X126926905Y-74667380D01*
X126926905Y-74667380D02*
X127307857Y-74667380D01*
X127307857Y-74667380D02*
X127403095Y-74715000D01*
X127403095Y-74715000D02*
X127450714Y-74762619D01*
X127450714Y-74762619D02*
X127498333Y-74857857D01*
X127498333Y-74857857D02*
X127498333Y-75000714D01*
X127498333Y-75000714D02*
X127450714Y-75095952D01*
X127450714Y-75095952D02*
X127403095Y-75143571D01*
X127403095Y-75143571D02*
X127307857Y-75191190D01*
X127307857Y-75191190D02*
X126926905Y-75191190D01*
X128450714Y-75667380D02*
X127879286Y-75667380D01*
X128165000Y-75667380D02*
X128165000Y-74667380D01*
X128165000Y-74667380D02*
X128069762Y-74810238D01*
X128069762Y-74810238D02*
X127974524Y-74905476D01*
X127974524Y-74905476D02*
X127879286Y-74953095D01*
X138138095Y-76417380D02*
X138138095Y-77226904D01*
X138138095Y-77226904D02*
X138185714Y-77322142D01*
X138185714Y-77322142D02*
X138233333Y-77369761D01*
X138233333Y-77369761D02*
X138328571Y-77417380D01*
X138328571Y-77417380D02*
X138519047Y-77417380D01*
X138519047Y-77417380D02*
X138614285Y-77369761D01*
X138614285Y-77369761D02*
X138661904Y-77322142D01*
X138661904Y-77322142D02*
X138709523Y-77226904D01*
X138709523Y-77226904D02*
X138709523Y-76417380D01*
X139614285Y-76750714D02*
X139614285Y-77417380D01*
X139376190Y-76369761D02*
X139138095Y-77084047D01*
X139138095Y-77084047D02*
X139757142Y-77084047D01*
X136258333Y-74081666D02*
X136734523Y-74081666D01*
X136163095Y-74367380D02*
X136496428Y-73367380D01*
X136496428Y-73367380D02*
X136829761Y-74367380D01*
X137163095Y-73843571D02*
X137496428Y-73843571D01*
X137639285Y-74367380D02*
X137163095Y-74367380D01*
X137163095Y-74367380D02*
X137163095Y-73367380D01*
X137163095Y-73367380D02*
X137639285Y-73367380D01*
X138591666Y-74367380D02*
X138020238Y-74367380D01*
X138305952Y-74367380D02*
X138305952Y-73367380D01*
X138305952Y-73367380D02*
X138210714Y-73510238D01*
X138210714Y-73510238D02*
X138115476Y-73605476D01*
X138115476Y-73605476D02*
X138020238Y-73653095D01*
X136483333Y-85772142D02*
X136435714Y-85819761D01*
X136435714Y-85819761D02*
X136292857Y-85867380D01*
X136292857Y-85867380D02*
X136197619Y-85867380D01*
X136197619Y-85867380D02*
X136054762Y-85819761D01*
X136054762Y-85819761D02*
X135959524Y-85724523D01*
X135959524Y-85724523D02*
X135911905Y-85629285D01*
X135911905Y-85629285D02*
X135864286Y-85438809D01*
X135864286Y-85438809D02*
X135864286Y-85295952D01*
X135864286Y-85295952D02*
X135911905Y-85105476D01*
X135911905Y-85105476D02*
X135959524Y-85010238D01*
X135959524Y-85010238D02*
X136054762Y-84915000D01*
X136054762Y-84915000D02*
X136197619Y-84867380D01*
X136197619Y-84867380D02*
X136292857Y-84867380D01*
X136292857Y-84867380D02*
X136435714Y-84915000D01*
X136435714Y-84915000D02*
X136483333Y-84962619D01*
X137054762Y-85295952D02*
X136959524Y-85248333D01*
X136959524Y-85248333D02*
X136911905Y-85200714D01*
X136911905Y-85200714D02*
X136864286Y-85105476D01*
X136864286Y-85105476D02*
X136864286Y-85057857D01*
X136864286Y-85057857D02*
X136911905Y-84962619D01*
X136911905Y-84962619D02*
X136959524Y-84915000D01*
X136959524Y-84915000D02*
X137054762Y-84867380D01*
X137054762Y-84867380D02*
X137245238Y-84867380D01*
X137245238Y-84867380D02*
X137340476Y-84915000D01*
X137340476Y-84915000D02*
X137388095Y-84962619D01*
X137388095Y-84962619D02*
X137435714Y-85057857D01*
X137435714Y-85057857D02*
X137435714Y-85105476D01*
X137435714Y-85105476D02*
X137388095Y-85200714D01*
X137388095Y-85200714D02*
X137340476Y-85248333D01*
X137340476Y-85248333D02*
X137245238Y-85295952D01*
X137245238Y-85295952D02*
X137054762Y-85295952D01*
X137054762Y-85295952D02*
X136959524Y-85343571D01*
X136959524Y-85343571D02*
X136911905Y-85391190D01*
X136911905Y-85391190D02*
X136864286Y-85486428D01*
X136864286Y-85486428D02*
X136864286Y-85676904D01*
X136864286Y-85676904D02*
X136911905Y-85772142D01*
X136911905Y-85772142D02*
X136959524Y-85819761D01*
X136959524Y-85819761D02*
X137054762Y-85867380D01*
X137054762Y-85867380D02*
X137245238Y-85867380D01*
X137245238Y-85867380D02*
X137340476Y-85819761D01*
X137340476Y-85819761D02*
X137388095Y-85772142D01*
X137388095Y-85772142D02*
X137435714Y-85676904D01*
X137435714Y-85676904D02*
X137435714Y-85486428D01*
X137435714Y-85486428D02*
X137388095Y-85391190D01*
X137388095Y-85391190D02*
X137340476Y-85343571D01*
X137340476Y-85343571D02*
X137245238Y-85295952D01*
X122432142Y-104022142D02*
X122384523Y-104069761D01*
X122384523Y-104069761D02*
X122241666Y-104117380D01*
X122241666Y-104117380D02*
X122146428Y-104117380D01*
X122146428Y-104117380D02*
X122003571Y-104069761D01*
X122003571Y-104069761D02*
X121908333Y-103974523D01*
X121908333Y-103974523D02*
X121860714Y-103879285D01*
X121860714Y-103879285D02*
X121813095Y-103688809D01*
X121813095Y-103688809D02*
X121813095Y-103545952D01*
X121813095Y-103545952D02*
X121860714Y-103355476D01*
X121860714Y-103355476D02*
X121908333Y-103260238D01*
X121908333Y-103260238D02*
X122003571Y-103165000D01*
X122003571Y-103165000D02*
X122146428Y-103117380D01*
X122146428Y-103117380D02*
X122241666Y-103117380D01*
X122241666Y-103117380D02*
X122384523Y-103165000D01*
X122384523Y-103165000D02*
X122432142Y-103212619D01*
X122813095Y-103212619D02*
X122860714Y-103165000D01*
X122860714Y-103165000D02*
X122955952Y-103117380D01*
X122955952Y-103117380D02*
X123194047Y-103117380D01*
X123194047Y-103117380D02*
X123289285Y-103165000D01*
X123289285Y-103165000D02*
X123336904Y-103212619D01*
X123336904Y-103212619D02*
X123384523Y-103307857D01*
X123384523Y-103307857D02*
X123384523Y-103403095D01*
X123384523Y-103403095D02*
X123336904Y-103545952D01*
X123336904Y-103545952D02*
X122765476Y-104117380D01*
X122765476Y-104117380D02*
X123384523Y-104117380D01*
X123860714Y-104117380D02*
X124051190Y-104117380D01*
X124051190Y-104117380D02*
X124146428Y-104069761D01*
X124146428Y-104069761D02*
X124194047Y-104022142D01*
X124194047Y-104022142D02*
X124289285Y-103879285D01*
X124289285Y-103879285D02*
X124336904Y-103688809D01*
X124336904Y-103688809D02*
X124336904Y-103307857D01*
X124336904Y-103307857D02*
X124289285Y-103212619D01*
X124289285Y-103212619D02*
X124241666Y-103165000D01*
X124241666Y-103165000D02*
X124146428Y-103117380D01*
X124146428Y-103117380D02*
X123955952Y-103117380D01*
X123955952Y-103117380D02*
X123860714Y-103165000D01*
X123860714Y-103165000D02*
X123813095Y-103212619D01*
X123813095Y-103212619D02*
X123765476Y-103307857D01*
X123765476Y-103307857D02*
X123765476Y-103545952D01*
X123765476Y-103545952D02*
X123813095Y-103641190D01*
X123813095Y-103641190D02*
X123860714Y-103688809D01*
X123860714Y-103688809D02*
X123955952Y-103736428D01*
X123955952Y-103736428D02*
X124146428Y-103736428D01*
X124146428Y-103736428D02*
X124241666Y-103688809D01*
X124241666Y-103688809D02*
X124289285Y-103641190D01*
X124289285Y-103641190D02*
X124336904Y-103545952D01*
X139817380Y-89616666D02*
X139341190Y-89949999D01*
X139817380Y-90188094D02*
X138817380Y-90188094D01*
X138817380Y-90188094D02*
X138817380Y-89807142D01*
X138817380Y-89807142D02*
X138865000Y-89711904D01*
X138865000Y-89711904D02*
X138912619Y-89664285D01*
X138912619Y-89664285D02*
X139007857Y-89616666D01*
X139007857Y-89616666D02*
X139150714Y-89616666D01*
X139150714Y-89616666D02*
X139245952Y-89664285D01*
X139245952Y-89664285D02*
X139293571Y-89711904D01*
X139293571Y-89711904D02*
X139341190Y-89807142D01*
X139341190Y-89807142D02*
X139341190Y-90188094D01*
X138817380Y-89283332D02*
X138817380Y-88664285D01*
X138817380Y-88664285D02*
X139198333Y-88997618D01*
X139198333Y-88997618D02*
X139198333Y-88854761D01*
X139198333Y-88854761D02*
X139245952Y-88759523D01*
X139245952Y-88759523D02*
X139293571Y-88711904D01*
X139293571Y-88711904D02*
X139388809Y-88664285D01*
X139388809Y-88664285D02*
X139626904Y-88664285D01*
X139626904Y-88664285D02*
X139722142Y-88711904D01*
X139722142Y-88711904D02*
X139769761Y-88759523D01*
X139769761Y-88759523D02*
X139817380Y-88854761D01*
X139817380Y-88854761D02*
X139817380Y-89140475D01*
X139817380Y-89140475D02*
X139769761Y-89235713D01*
X139769761Y-89235713D02*
X139722142Y-89283332D01*
X129786905Y-108392380D02*
X129786905Y-109201904D01*
X129786905Y-109201904D02*
X129834524Y-109297142D01*
X129834524Y-109297142D02*
X129882143Y-109344761D01*
X129882143Y-109344761D02*
X129977381Y-109392380D01*
X129977381Y-109392380D02*
X130167857Y-109392380D01*
X130167857Y-109392380D02*
X130263095Y-109344761D01*
X130263095Y-109344761D02*
X130310714Y-109297142D01*
X130310714Y-109297142D02*
X130358333Y-109201904D01*
X130358333Y-109201904D02*
X130358333Y-108392380D01*
X131358333Y-109392380D02*
X130786905Y-109392380D01*
X131072619Y-109392380D02*
X131072619Y-108392380D01*
X131072619Y-108392380D02*
X130977381Y-108535238D01*
X130977381Y-108535238D02*
X130882143Y-108630476D01*
X130882143Y-108630476D02*
X130786905Y-108678095D01*
X131977381Y-108392380D02*
X132072619Y-108392380D01*
X132072619Y-108392380D02*
X132167857Y-108440000D01*
X132167857Y-108440000D02*
X132215476Y-108487619D01*
X132215476Y-108487619D02*
X132263095Y-108582857D01*
X132263095Y-108582857D02*
X132310714Y-108773333D01*
X132310714Y-108773333D02*
X132310714Y-109011428D01*
X132310714Y-109011428D02*
X132263095Y-109201904D01*
X132263095Y-109201904D02*
X132215476Y-109297142D01*
X132215476Y-109297142D02*
X132167857Y-109344761D01*
X132167857Y-109344761D02*
X132072619Y-109392380D01*
X132072619Y-109392380D02*
X131977381Y-109392380D01*
X131977381Y-109392380D02*
X131882143Y-109344761D01*
X131882143Y-109344761D02*
X131834524Y-109297142D01*
X131834524Y-109297142D02*
X131786905Y-109201904D01*
X131786905Y-109201904D02*
X131739286Y-109011428D01*
X131739286Y-109011428D02*
X131739286Y-108773333D01*
X131739286Y-108773333D02*
X131786905Y-108582857D01*
X131786905Y-108582857D02*
X131834524Y-108487619D01*
X131834524Y-108487619D02*
X131882143Y-108440000D01*
X131882143Y-108440000D02*
X131977381Y-108392380D01*
X135582142Y-109167380D02*
X135248809Y-108691190D01*
X135010714Y-109167380D02*
X135010714Y-108167380D01*
X135010714Y-108167380D02*
X135391666Y-108167380D01*
X135391666Y-108167380D02*
X135486904Y-108215000D01*
X135486904Y-108215000D02*
X135534523Y-108262619D01*
X135534523Y-108262619D02*
X135582142Y-108357857D01*
X135582142Y-108357857D02*
X135582142Y-108500714D01*
X135582142Y-108500714D02*
X135534523Y-108595952D01*
X135534523Y-108595952D02*
X135486904Y-108643571D01*
X135486904Y-108643571D02*
X135391666Y-108691190D01*
X135391666Y-108691190D02*
X135010714Y-108691190D01*
X135963095Y-108262619D02*
X136010714Y-108215000D01*
X136010714Y-108215000D02*
X136105952Y-108167380D01*
X136105952Y-108167380D02*
X136344047Y-108167380D01*
X136344047Y-108167380D02*
X136439285Y-108215000D01*
X136439285Y-108215000D02*
X136486904Y-108262619D01*
X136486904Y-108262619D02*
X136534523Y-108357857D01*
X136534523Y-108357857D02*
X136534523Y-108453095D01*
X136534523Y-108453095D02*
X136486904Y-108595952D01*
X136486904Y-108595952D02*
X135915476Y-109167380D01*
X135915476Y-109167380D02*
X136534523Y-109167380D01*
X136867857Y-108167380D02*
X137486904Y-108167380D01*
X137486904Y-108167380D02*
X137153571Y-108548333D01*
X137153571Y-108548333D02*
X137296428Y-108548333D01*
X137296428Y-108548333D02*
X137391666Y-108595952D01*
X137391666Y-108595952D02*
X137439285Y-108643571D01*
X137439285Y-108643571D02*
X137486904Y-108738809D01*
X137486904Y-108738809D02*
X137486904Y-108976904D01*
X137486904Y-108976904D02*
X137439285Y-109072142D01*
X137439285Y-109072142D02*
X137391666Y-109119761D01*
X137391666Y-109119761D02*
X137296428Y-109167380D01*
X137296428Y-109167380D02*
X137010714Y-109167380D01*
X137010714Y-109167380D02*
X136915476Y-109119761D01*
X136915476Y-109119761D02*
X136867857Y-109072142D01*
X145482142Y-98372142D02*
X145434523Y-98419761D01*
X145434523Y-98419761D02*
X145291666Y-98467380D01*
X145291666Y-98467380D02*
X145196428Y-98467380D01*
X145196428Y-98467380D02*
X145053571Y-98419761D01*
X145053571Y-98419761D02*
X144958333Y-98324523D01*
X144958333Y-98324523D02*
X144910714Y-98229285D01*
X144910714Y-98229285D02*
X144863095Y-98038809D01*
X144863095Y-98038809D02*
X144863095Y-97895952D01*
X144863095Y-97895952D02*
X144910714Y-97705476D01*
X144910714Y-97705476D02*
X144958333Y-97610238D01*
X144958333Y-97610238D02*
X145053571Y-97515000D01*
X145053571Y-97515000D02*
X145196428Y-97467380D01*
X145196428Y-97467380D02*
X145291666Y-97467380D01*
X145291666Y-97467380D02*
X145434523Y-97515000D01*
X145434523Y-97515000D02*
X145482142Y-97562619D01*
X146434523Y-98467380D02*
X145863095Y-98467380D01*
X146148809Y-98467380D02*
X146148809Y-97467380D01*
X146148809Y-97467380D02*
X146053571Y-97610238D01*
X146053571Y-97610238D02*
X145958333Y-97705476D01*
X145958333Y-97705476D02*
X145863095Y-97753095D01*
X147291666Y-97800714D02*
X147291666Y-98467380D01*
X147053571Y-97419761D02*
X146815476Y-98134047D01*
X146815476Y-98134047D02*
X147434523Y-98134047D01*
X145992380Y-86516666D02*
X145516190Y-86849999D01*
X145992380Y-87088094D02*
X144992380Y-87088094D01*
X144992380Y-87088094D02*
X144992380Y-86707142D01*
X144992380Y-86707142D02*
X145040000Y-86611904D01*
X145040000Y-86611904D02*
X145087619Y-86564285D01*
X145087619Y-86564285D02*
X145182857Y-86516666D01*
X145182857Y-86516666D02*
X145325714Y-86516666D01*
X145325714Y-86516666D02*
X145420952Y-86564285D01*
X145420952Y-86564285D02*
X145468571Y-86611904D01*
X145468571Y-86611904D02*
X145516190Y-86707142D01*
X145516190Y-86707142D02*
X145516190Y-87088094D01*
X144992380Y-86183332D02*
X144992380Y-85516666D01*
X144992380Y-85516666D02*
X145992380Y-85945237D01*
X125207142Y-97047380D02*
X124873809Y-96571190D01*
X124635714Y-97047380D02*
X124635714Y-96047380D01*
X124635714Y-96047380D02*
X125016666Y-96047380D01*
X125016666Y-96047380D02*
X125111904Y-96095000D01*
X125111904Y-96095000D02*
X125159523Y-96142619D01*
X125159523Y-96142619D02*
X125207142Y-96237857D01*
X125207142Y-96237857D02*
X125207142Y-96380714D01*
X125207142Y-96380714D02*
X125159523Y-96475952D01*
X125159523Y-96475952D02*
X125111904Y-96523571D01*
X125111904Y-96523571D02*
X125016666Y-96571190D01*
X125016666Y-96571190D02*
X124635714Y-96571190D01*
X126159523Y-97047380D02*
X125588095Y-97047380D01*
X125873809Y-97047380D02*
X125873809Y-96047380D01*
X125873809Y-96047380D02*
X125778571Y-96190238D01*
X125778571Y-96190238D02*
X125683333Y-96285476D01*
X125683333Y-96285476D02*
X125588095Y-96333095D01*
X127016666Y-96380714D02*
X127016666Y-97047380D01*
X126778571Y-95999761D02*
X126540476Y-96714047D01*
X126540476Y-96714047D02*
X127159523Y-96714047D01*
X130032142Y-103272142D02*
X129984523Y-103319761D01*
X129984523Y-103319761D02*
X129841666Y-103367380D01*
X129841666Y-103367380D02*
X129746428Y-103367380D01*
X129746428Y-103367380D02*
X129603571Y-103319761D01*
X129603571Y-103319761D02*
X129508333Y-103224523D01*
X129508333Y-103224523D02*
X129460714Y-103129285D01*
X129460714Y-103129285D02*
X129413095Y-102938809D01*
X129413095Y-102938809D02*
X129413095Y-102795952D01*
X129413095Y-102795952D02*
X129460714Y-102605476D01*
X129460714Y-102605476D02*
X129508333Y-102510238D01*
X129508333Y-102510238D02*
X129603571Y-102415000D01*
X129603571Y-102415000D02*
X129746428Y-102367380D01*
X129746428Y-102367380D02*
X129841666Y-102367380D01*
X129841666Y-102367380D02*
X129984523Y-102415000D01*
X129984523Y-102415000D02*
X130032142Y-102462619D01*
X130889285Y-102700714D02*
X130889285Y-103367380D01*
X130651190Y-102319761D02*
X130413095Y-103034047D01*
X130413095Y-103034047D02*
X131032142Y-103034047D01*
X131317857Y-102367380D02*
X131936904Y-102367380D01*
X131936904Y-102367380D02*
X131603571Y-102748333D01*
X131603571Y-102748333D02*
X131746428Y-102748333D01*
X131746428Y-102748333D02*
X131841666Y-102795952D01*
X131841666Y-102795952D02*
X131889285Y-102843571D01*
X131889285Y-102843571D02*
X131936904Y-102938809D01*
X131936904Y-102938809D02*
X131936904Y-103176904D01*
X131936904Y-103176904D02*
X131889285Y-103272142D01*
X131889285Y-103272142D02*
X131841666Y-103319761D01*
X131841666Y-103319761D02*
X131746428Y-103367380D01*
X131746428Y-103367380D02*
X131460714Y-103367380D01*
X131460714Y-103367380D02*
X131365476Y-103319761D01*
X131365476Y-103319761D02*
X131317857Y-103272142D01*
X135708333Y-81697142D02*
X135660714Y-81744761D01*
X135660714Y-81744761D02*
X135517857Y-81792380D01*
X135517857Y-81792380D02*
X135422619Y-81792380D01*
X135422619Y-81792380D02*
X135279762Y-81744761D01*
X135279762Y-81744761D02*
X135184524Y-81649523D01*
X135184524Y-81649523D02*
X135136905Y-81554285D01*
X135136905Y-81554285D02*
X135089286Y-81363809D01*
X135089286Y-81363809D02*
X135089286Y-81220952D01*
X135089286Y-81220952D02*
X135136905Y-81030476D01*
X135136905Y-81030476D02*
X135184524Y-80935238D01*
X135184524Y-80935238D02*
X135279762Y-80840000D01*
X135279762Y-80840000D02*
X135422619Y-80792380D01*
X135422619Y-80792380D02*
X135517857Y-80792380D01*
X135517857Y-80792380D02*
X135660714Y-80840000D01*
X135660714Y-80840000D02*
X135708333Y-80887619D01*
X136041667Y-80792380D02*
X136660714Y-80792380D01*
X136660714Y-80792380D02*
X136327381Y-81173333D01*
X136327381Y-81173333D02*
X136470238Y-81173333D01*
X136470238Y-81173333D02*
X136565476Y-81220952D01*
X136565476Y-81220952D02*
X136613095Y-81268571D01*
X136613095Y-81268571D02*
X136660714Y-81363809D01*
X136660714Y-81363809D02*
X136660714Y-81601904D01*
X136660714Y-81601904D02*
X136613095Y-81697142D01*
X136613095Y-81697142D02*
X136565476Y-81744761D01*
X136565476Y-81744761D02*
X136470238Y-81792380D01*
X136470238Y-81792380D02*
X136184524Y-81792380D01*
X136184524Y-81792380D02*
X136089286Y-81744761D01*
X136089286Y-81744761D02*
X136041667Y-81697142D01*
X153932142Y-94272142D02*
X153884523Y-94319761D01*
X153884523Y-94319761D02*
X153741666Y-94367380D01*
X153741666Y-94367380D02*
X153646428Y-94367380D01*
X153646428Y-94367380D02*
X153503571Y-94319761D01*
X153503571Y-94319761D02*
X153408333Y-94224523D01*
X153408333Y-94224523D02*
X153360714Y-94129285D01*
X153360714Y-94129285D02*
X153313095Y-93938809D01*
X153313095Y-93938809D02*
X153313095Y-93795952D01*
X153313095Y-93795952D02*
X153360714Y-93605476D01*
X153360714Y-93605476D02*
X153408333Y-93510238D01*
X153408333Y-93510238D02*
X153503571Y-93415000D01*
X153503571Y-93415000D02*
X153646428Y-93367380D01*
X153646428Y-93367380D02*
X153741666Y-93367380D01*
X153741666Y-93367380D02*
X153884523Y-93415000D01*
X153884523Y-93415000D02*
X153932142Y-93462619D01*
X154884523Y-94367380D02*
X154313095Y-94367380D01*
X154598809Y-94367380D02*
X154598809Y-93367380D01*
X154598809Y-93367380D02*
X154503571Y-93510238D01*
X154503571Y-93510238D02*
X154408333Y-93605476D01*
X154408333Y-93605476D02*
X154313095Y-93653095D01*
X155836904Y-94367380D02*
X155265476Y-94367380D01*
X155551190Y-94367380D02*
X155551190Y-93367380D01*
X155551190Y-93367380D02*
X155455952Y-93510238D01*
X155455952Y-93510238D02*
X155360714Y-93605476D01*
X155360714Y-93605476D02*
X155265476Y-93653095D01*
X149807142Y-99197142D02*
X149759523Y-99244761D01*
X149759523Y-99244761D02*
X149616666Y-99292380D01*
X149616666Y-99292380D02*
X149521428Y-99292380D01*
X149521428Y-99292380D02*
X149378571Y-99244761D01*
X149378571Y-99244761D02*
X149283333Y-99149523D01*
X149283333Y-99149523D02*
X149235714Y-99054285D01*
X149235714Y-99054285D02*
X149188095Y-98863809D01*
X149188095Y-98863809D02*
X149188095Y-98720952D01*
X149188095Y-98720952D02*
X149235714Y-98530476D01*
X149235714Y-98530476D02*
X149283333Y-98435238D01*
X149283333Y-98435238D02*
X149378571Y-98340000D01*
X149378571Y-98340000D02*
X149521428Y-98292380D01*
X149521428Y-98292380D02*
X149616666Y-98292380D01*
X149616666Y-98292380D02*
X149759523Y-98340000D01*
X149759523Y-98340000D02*
X149807142Y-98387619D01*
X150759523Y-99292380D02*
X150188095Y-99292380D01*
X150473809Y-99292380D02*
X150473809Y-98292380D01*
X150473809Y-98292380D02*
X150378571Y-98435238D01*
X150378571Y-98435238D02*
X150283333Y-98530476D01*
X150283333Y-98530476D02*
X150188095Y-98578095D01*
X151664285Y-98292380D02*
X151188095Y-98292380D01*
X151188095Y-98292380D02*
X151140476Y-98768571D01*
X151140476Y-98768571D02*
X151188095Y-98720952D01*
X151188095Y-98720952D02*
X151283333Y-98673333D01*
X151283333Y-98673333D02*
X151521428Y-98673333D01*
X151521428Y-98673333D02*
X151616666Y-98720952D01*
X151616666Y-98720952D02*
X151664285Y-98768571D01*
X151664285Y-98768571D02*
X151711904Y-98863809D01*
X151711904Y-98863809D02*
X151711904Y-99101904D01*
X151711904Y-99101904D02*
X151664285Y-99197142D01*
X151664285Y-99197142D02*
X151616666Y-99244761D01*
X151616666Y-99244761D02*
X151521428Y-99292380D01*
X151521428Y-99292380D02*
X151283333Y-99292380D01*
X151283333Y-99292380D02*
X151188095Y-99244761D01*
X151188095Y-99244761D02*
X151140476Y-99197142D01*
X151286905Y-81742380D02*
X151286905Y-80742380D01*
X151286905Y-80742380D02*
X151525000Y-80742380D01*
X151525000Y-80742380D02*
X151667857Y-80790000D01*
X151667857Y-80790000D02*
X151763095Y-80885238D01*
X151763095Y-80885238D02*
X151810714Y-80980476D01*
X151810714Y-80980476D02*
X151858333Y-81170952D01*
X151858333Y-81170952D02*
X151858333Y-81313809D01*
X151858333Y-81313809D02*
X151810714Y-81504285D01*
X151810714Y-81504285D02*
X151763095Y-81599523D01*
X151763095Y-81599523D02*
X151667857Y-81694761D01*
X151667857Y-81694761D02*
X151525000Y-81742380D01*
X151525000Y-81742380D02*
X151286905Y-81742380D01*
X152191667Y-80742380D02*
X152810714Y-80742380D01*
X152810714Y-80742380D02*
X152477381Y-81123333D01*
X152477381Y-81123333D02*
X152620238Y-81123333D01*
X152620238Y-81123333D02*
X152715476Y-81170952D01*
X152715476Y-81170952D02*
X152763095Y-81218571D01*
X152763095Y-81218571D02*
X152810714Y-81313809D01*
X152810714Y-81313809D02*
X152810714Y-81551904D01*
X152810714Y-81551904D02*
X152763095Y-81647142D01*
X152763095Y-81647142D02*
X152715476Y-81694761D01*
X152715476Y-81694761D02*
X152620238Y-81742380D01*
X152620238Y-81742380D02*
X152334524Y-81742380D01*
X152334524Y-81742380D02*
X152239286Y-81694761D01*
X152239286Y-81694761D02*
X152191667Y-81647142D01*
X153257142Y-92922142D02*
X153209523Y-92969761D01*
X153209523Y-92969761D02*
X153066666Y-93017380D01*
X153066666Y-93017380D02*
X152971428Y-93017380D01*
X152971428Y-93017380D02*
X152828571Y-92969761D01*
X152828571Y-92969761D02*
X152733333Y-92874523D01*
X152733333Y-92874523D02*
X152685714Y-92779285D01*
X152685714Y-92779285D02*
X152638095Y-92588809D01*
X152638095Y-92588809D02*
X152638095Y-92445952D01*
X152638095Y-92445952D02*
X152685714Y-92255476D01*
X152685714Y-92255476D02*
X152733333Y-92160238D01*
X152733333Y-92160238D02*
X152828571Y-92065000D01*
X152828571Y-92065000D02*
X152971428Y-92017380D01*
X152971428Y-92017380D02*
X153066666Y-92017380D01*
X153066666Y-92017380D02*
X153209523Y-92065000D01*
X153209523Y-92065000D02*
X153257142Y-92112619D01*
X154209523Y-93017380D02*
X153638095Y-93017380D01*
X153923809Y-93017380D02*
X153923809Y-92017380D01*
X153923809Y-92017380D02*
X153828571Y-92160238D01*
X153828571Y-92160238D02*
X153733333Y-92255476D01*
X153733333Y-92255476D02*
X153638095Y-92303095D01*
X154542857Y-92017380D02*
X155161904Y-92017380D01*
X155161904Y-92017380D02*
X154828571Y-92398333D01*
X154828571Y-92398333D02*
X154971428Y-92398333D01*
X154971428Y-92398333D02*
X155066666Y-92445952D01*
X155066666Y-92445952D02*
X155114285Y-92493571D01*
X155114285Y-92493571D02*
X155161904Y-92588809D01*
X155161904Y-92588809D02*
X155161904Y-92826904D01*
X155161904Y-92826904D02*
X155114285Y-92922142D01*
X155114285Y-92922142D02*
X155066666Y-92969761D01*
X155066666Y-92969761D02*
X154971428Y-93017380D01*
X154971428Y-93017380D02*
X154685714Y-93017380D01*
X154685714Y-93017380D02*
X154590476Y-92969761D01*
X154590476Y-92969761D02*
X154542857Y-92922142D01*
X127013095Y-78427380D02*
X127013095Y-79236904D01*
X127013095Y-79236904D02*
X127060714Y-79332142D01*
X127060714Y-79332142D02*
X127108333Y-79379761D01*
X127108333Y-79379761D02*
X127203571Y-79427380D01*
X127203571Y-79427380D02*
X127394047Y-79427380D01*
X127394047Y-79427380D02*
X127489285Y-79379761D01*
X127489285Y-79379761D02*
X127536904Y-79332142D01*
X127536904Y-79332142D02*
X127584523Y-79236904D01*
X127584523Y-79236904D02*
X127584523Y-78427380D01*
X128013095Y-78522619D02*
X128060714Y-78475000D01*
X128060714Y-78475000D02*
X128155952Y-78427380D01*
X128155952Y-78427380D02*
X128394047Y-78427380D01*
X128394047Y-78427380D02*
X128489285Y-78475000D01*
X128489285Y-78475000D02*
X128536904Y-78522619D01*
X128536904Y-78522619D02*
X128584523Y-78617857D01*
X128584523Y-78617857D02*
X128584523Y-78713095D01*
X128584523Y-78713095D02*
X128536904Y-78855952D01*
X128536904Y-78855952D02*
X127965476Y-79427380D01*
X127965476Y-79427380D02*
X128584523Y-79427380D01*
X149783333Y-98092380D02*
X149450000Y-97616190D01*
X149211905Y-98092380D02*
X149211905Y-97092380D01*
X149211905Y-97092380D02*
X149592857Y-97092380D01*
X149592857Y-97092380D02*
X149688095Y-97140000D01*
X149688095Y-97140000D02*
X149735714Y-97187619D01*
X149735714Y-97187619D02*
X149783333Y-97282857D01*
X149783333Y-97282857D02*
X149783333Y-97425714D01*
X149783333Y-97425714D02*
X149735714Y-97520952D01*
X149735714Y-97520952D02*
X149688095Y-97568571D01*
X149688095Y-97568571D02*
X149592857Y-97616190D01*
X149592857Y-97616190D02*
X149211905Y-97616190D01*
X150688095Y-97092380D02*
X150211905Y-97092380D01*
X150211905Y-97092380D02*
X150164286Y-97568571D01*
X150164286Y-97568571D02*
X150211905Y-97520952D01*
X150211905Y-97520952D02*
X150307143Y-97473333D01*
X150307143Y-97473333D02*
X150545238Y-97473333D01*
X150545238Y-97473333D02*
X150640476Y-97520952D01*
X150640476Y-97520952D02*
X150688095Y-97568571D01*
X150688095Y-97568571D02*
X150735714Y-97663809D01*
X150735714Y-97663809D02*
X150735714Y-97901904D01*
X150735714Y-97901904D02*
X150688095Y-97997142D01*
X150688095Y-97997142D02*
X150640476Y-98044761D01*
X150640476Y-98044761D02*
X150545238Y-98092380D01*
X150545238Y-98092380D02*
X150307143Y-98092380D01*
X150307143Y-98092380D02*
X150211905Y-98044761D01*
X150211905Y-98044761D02*
X150164286Y-97997142D01*
X153669761Y-99658332D02*
X153717380Y-99515475D01*
X153717380Y-99515475D02*
X153717380Y-99277380D01*
X153717380Y-99277380D02*
X153669761Y-99182142D01*
X153669761Y-99182142D02*
X153622142Y-99134523D01*
X153622142Y-99134523D02*
X153526904Y-99086904D01*
X153526904Y-99086904D02*
X153431666Y-99086904D01*
X153431666Y-99086904D02*
X153336428Y-99134523D01*
X153336428Y-99134523D02*
X153288809Y-99182142D01*
X153288809Y-99182142D02*
X153241190Y-99277380D01*
X153241190Y-99277380D02*
X153193571Y-99467856D01*
X153193571Y-99467856D02*
X153145952Y-99563094D01*
X153145952Y-99563094D02*
X153098333Y-99610713D01*
X153098333Y-99610713D02*
X153003095Y-99658332D01*
X153003095Y-99658332D02*
X152907857Y-99658332D01*
X152907857Y-99658332D02*
X152812619Y-99610713D01*
X152812619Y-99610713D02*
X152765000Y-99563094D01*
X152765000Y-99563094D02*
X152717380Y-99467856D01*
X152717380Y-99467856D02*
X152717380Y-99229761D01*
X152717380Y-99229761D02*
X152765000Y-99086904D01*
X152717380Y-98753570D02*
X153717380Y-98515475D01*
X153717380Y-98515475D02*
X153003095Y-98324999D01*
X153003095Y-98324999D02*
X153717380Y-98134523D01*
X153717380Y-98134523D02*
X152717380Y-97896428D01*
X152812619Y-97563094D02*
X152765000Y-97515475D01*
X152765000Y-97515475D02*
X152717380Y-97420237D01*
X152717380Y-97420237D02*
X152717380Y-97182142D01*
X152717380Y-97182142D02*
X152765000Y-97086904D01*
X152765000Y-97086904D02*
X152812619Y-97039285D01*
X152812619Y-97039285D02*
X152907857Y-96991666D01*
X152907857Y-96991666D02*
X153003095Y-96991666D01*
X153003095Y-96991666D02*
X153145952Y-97039285D01*
X153145952Y-97039285D02*
X153717380Y-97610713D01*
X153717380Y-97610713D02*
X153717380Y-96991666D01*
X156442380Y-79252857D02*
X155966190Y-79586190D01*
X156442380Y-79824285D02*
X155442380Y-79824285D01*
X155442380Y-79824285D02*
X155442380Y-79443333D01*
X155442380Y-79443333D02*
X155490000Y-79348095D01*
X155490000Y-79348095D02*
X155537619Y-79300476D01*
X155537619Y-79300476D02*
X155632857Y-79252857D01*
X155632857Y-79252857D02*
X155775714Y-79252857D01*
X155775714Y-79252857D02*
X155870952Y-79300476D01*
X155870952Y-79300476D02*
X155918571Y-79348095D01*
X155918571Y-79348095D02*
X155966190Y-79443333D01*
X155966190Y-79443333D02*
X155966190Y-79824285D01*
X156442380Y-78300476D02*
X156442380Y-78871904D01*
X156442380Y-78586190D02*
X155442380Y-78586190D01*
X155442380Y-78586190D02*
X155585238Y-78681428D01*
X155585238Y-78681428D02*
X155680476Y-78776666D01*
X155680476Y-78776666D02*
X155728095Y-78871904D01*
X155442380Y-77967142D02*
X155442380Y-77300476D01*
X155442380Y-77300476D02*
X156442380Y-77729047D01*
X133492380Y-100311904D02*
X134301904Y-100311904D01*
X134301904Y-100311904D02*
X134397142Y-100264285D01*
X134397142Y-100264285D02*
X134444761Y-100216666D01*
X134444761Y-100216666D02*
X134492380Y-100121428D01*
X134492380Y-100121428D02*
X134492380Y-99930952D01*
X134492380Y-99930952D02*
X134444761Y-99835714D01*
X134444761Y-99835714D02*
X134397142Y-99788095D01*
X134397142Y-99788095D02*
X134301904Y-99740476D01*
X134301904Y-99740476D02*
X133492380Y-99740476D01*
X134492380Y-99216666D02*
X134492380Y-99026190D01*
X134492380Y-99026190D02*
X134444761Y-98930952D01*
X134444761Y-98930952D02*
X134397142Y-98883333D01*
X134397142Y-98883333D02*
X134254285Y-98788095D01*
X134254285Y-98788095D02*
X134063809Y-98740476D01*
X134063809Y-98740476D02*
X133682857Y-98740476D01*
X133682857Y-98740476D02*
X133587619Y-98788095D01*
X133587619Y-98788095D02*
X133540000Y-98835714D01*
X133540000Y-98835714D02*
X133492380Y-98930952D01*
X133492380Y-98930952D02*
X133492380Y-99121428D01*
X133492380Y-99121428D02*
X133540000Y-99216666D01*
X133540000Y-99216666D02*
X133587619Y-99264285D01*
X133587619Y-99264285D02*
X133682857Y-99311904D01*
X133682857Y-99311904D02*
X133920952Y-99311904D01*
X133920952Y-99311904D02*
X134016190Y-99264285D01*
X134016190Y-99264285D02*
X134063809Y-99216666D01*
X134063809Y-99216666D02*
X134111428Y-99121428D01*
X134111428Y-99121428D02*
X134111428Y-98930952D01*
X134111428Y-98930952D02*
X134063809Y-98835714D01*
X134063809Y-98835714D02*
X134016190Y-98788095D01*
X134016190Y-98788095D02*
X133920952Y-98740476D01*
X137517381Y-99550000D02*
X137755477Y-99550000D01*
X137660239Y-99788095D02*
X137755477Y-99550000D01*
X137755477Y-99550000D02*
X137660239Y-99311905D01*
X137945953Y-99692857D02*
X137755477Y-99550000D01*
X137755477Y-99550000D02*
X137945953Y-99407143D01*
X146622142Y-102042857D02*
X146669761Y-102090476D01*
X146669761Y-102090476D02*
X146717380Y-102233333D01*
X146717380Y-102233333D02*
X146717380Y-102328571D01*
X146717380Y-102328571D02*
X146669761Y-102471428D01*
X146669761Y-102471428D02*
X146574523Y-102566666D01*
X146574523Y-102566666D02*
X146479285Y-102614285D01*
X146479285Y-102614285D02*
X146288809Y-102661904D01*
X146288809Y-102661904D02*
X146145952Y-102661904D01*
X146145952Y-102661904D02*
X145955476Y-102614285D01*
X145955476Y-102614285D02*
X145860238Y-102566666D01*
X145860238Y-102566666D02*
X145765000Y-102471428D01*
X145765000Y-102471428D02*
X145717380Y-102328571D01*
X145717380Y-102328571D02*
X145717380Y-102233333D01*
X145717380Y-102233333D02*
X145765000Y-102090476D01*
X145765000Y-102090476D02*
X145812619Y-102042857D01*
X145717380Y-101709523D02*
X145717380Y-101090476D01*
X145717380Y-101090476D02*
X146098333Y-101423809D01*
X146098333Y-101423809D02*
X146098333Y-101280952D01*
X146098333Y-101280952D02*
X146145952Y-101185714D01*
X146145952Y-101185714D02*
X146193571Y-101138095D01*
X146193571Y-101138095D02*
X146288809Y-101090476D01*
X146288809Y-101090476D02*
X146526904Y-101090476D01*
X146526904Y-101090476D02*
X146622142Y-101138095D01*
X146622142Y-101138095D02*
X146669761Y-101185714D01*
X146669761Y-101185714D02*
X146717380Y-101280952D01*
X146717380Y-101280952D02*
X146717380Y-101566666D01*
X146717380Y-101566666D02*
X146669761Y-101661904D01*
X146669761Y-101661904D02*
X146622142Y-101709523D01*
X146145952Y-100519047D02*
X146098333Y-100614285D01*
X146098333Y-100614285D02*
X146050714Y-100661904D01*
X146050714Y-100661904D02*
X145955476Y-100709523D01*
X145955476Y-100709523D02*
X145907857Y-100709523D01*
X145907857Y-100709523D02*
X145812619Y-100661904D01*
X145812619Y-100661904D02*
X145765000Y-100614285D01*
X145765000Y-100614285D02*
X145717380Y-100519047D01*
X145717380Y-100519047D02*
X145717380Y-100328571D01*
X145717380Y-100328571D02*
X145765000Y-100233333D01*
X145765000Y-100233333D02*
X145812619Y-100185714D01*
X145812619Y-100185714D02*
X145907857Y-100138095D01*
X145907857Y-100138095D02*
X145955476Y-100138095D01*
X145955476Y-100138095D02*
X146050714Y-100185714D01*
X146050714Y-100185714D02*
X146098333Y-100233333D01*
X146098333Y-100233333D02*
X146145952Y-100328571D01*
X146145952Y-100328571D02*
X146145952Y-100519047D01*
X146145952Y-100519047D02*
X146193571Y-100614285D01*
X146193571Y-100614285D02*
X146241190Y-100661904D01*
X146241190Y-100661904D02*
X146336428Y-100709523D01*
X146336428Y-100709523D02*
X146526904Y-100709523D01*
X146526904Y-100709523D02*
X146622142Y-100661904D01*
X146622142Y-100661904D02*
X146669761Y-100614285D01*
X146669761Y-100614285D02*
X146717380Y-100519047D01*
X146717380Y-100519047D02*
X146717380Y-100328571D01*
X146717380Y-100328571D02*
X146669761Y-100233333D01*
X146669761Y-100233333D02*
X146622142Y-100185714D01*
X146622142Y-100185714D02*
X146526904Y-100138095D01*
X146526904Y-100138095D02*
X146336428Y-100138095D01*
X146336428Y-100138095D02*
X146241190Y-100185714D01*
X146241190Y-100185714D02*
X146193571Y-100233333D01*
X146193571Y-100233333D02*
X146145952Y-100328571D01*
X139282142Y-109167380D02*
X138948809Y-108691190D01*
X138710714Y-109167380D02*
X138710714Y-108167380D01*
X138710714Y-108167380D02*
X139091666Y-108167380D01*
X139091666Y-108167380D02*
X139186904Y-108215000D01*
X139186904Y-108215000D02*
X139234523Y-108262619D01*
X139234523Y-108262619D02*
X139282142Y-108357857D01*
X139282142Y-108357857D02*
X139282142Y-108500714D01*
X139282142Y-108500714D02*
X139234523Y-108595952D01*
X139234523Y-108595952D02*
X139186904Y-108643571D01*
X139186904Y-108643571D02*
X139091666Y-108691190D01*
X139091666Y-108691190D02*
X138710714Y-108691190D01*
X139663095Y-108262619D02*
X139710714Y-108215000D01*
X139710714Y-108215000D02*
X139805952Y-108167380D01*
X139805952Y-108167380D02*
X140044047Y-108167380D01*
X140044047Y-108167380D02*
X140139285Y-108215000D01*
X140139285Y-108215000D02*
X140186904Y-108262619D01*
X140186904Y-108262619D02*
X140234523Y-108357857D01*
X140234523Y-108357857D02*
X140234523Y-108453095D01*
X140234523Y-108453095D02*
X140186904Y-108595952D01*
X140186904Y-108595952D02*
X139615476Y-109167380D01*
X139615476Y-109167380D02*
X140234523Y-109167380D01*
X141091666Y-108500714D02*
X141091666Y-109167380D01*
X140853571Y-108119761D02*
X140615476Y-108834047D01*
X140615476Y-108834047D02*
X141234523Y-108834047D01*
X151607142Y-87172142D02*
X151559523Y-87219761D01*
X151559523Y-87219761D02*
X151416666Y-87267380D01*
X151416666Y-87267380D02*
X151321428Y-87267380D01*
X151321428Y-87267380D02*
X151178571Y-87219761D01*
X151178571Y-87219761D02*
X151083333Y-87124523D01*
X151083333Y-87124523D02*
X151035714Y-87029285D01*
X151035714Y-87029285D02*
X150988095Y-86838809D01*
X150988095Y-86838809D02*
X150988095Y-86695952D01*
X150988095Y-86695952D02*
X151035714Y-86505476D01*
X151035714Y-86505476D02*
X151083333Y-86410238D01*
X151083333Y-86410238D02*
X151178571Y-86315000D01*
X151178571Y-86315000D02*
X151321428Y-86267380D01*
X151321428Y-86267380D02*
X151416666Y-86267380D01*
X151416666Y-86267380D02*
X151559523Y-86315000D01*
X151559523Y-86315000D02*
X151607142Y-86362619D01*
X152559523Y-87267380D02*
X151988095Y-87267380D01*
X152273809Y-87267380D02*
X152273809Y-86267380D01*
X152273809Y-86267380D02*
X152178571Y-86410238D01*
X152178571Y-86410238D02*
X152083333Y-86505476D01*
X152083333Y-86505476D02*
X151988095Y-86553095D01*
X153416666Y-86267380D02*
X153226190Y-86267380D01*
X153226190Y-86267380D02*
X153130952Y-86315000D01*
X153130952Y-86315000D02*
X153083333Y-86362619D01*
X153083333Y-86362619D02*
X152988095Y-86505476D01*
X152988095Y-86505476D02*
X152940476Y-86695952D01*
X152940476Y-86695952D02*
X152940476Y-87076904D01*
X152940476Y-87076904D02*
X152988095Y-87172142D01*
X152988095Y-87172142D02*
X153035714Y-87219761D01*
X153035714Y-87219761D02*
X153130952Y-87267380D01*
X153130952Y-87267380D02*
X153321428Y-87267380D01*
X153321428Y-87267380D02*
X153416666Y-87219761D01*
X153416666Y-87219761D02*
X153464285Y-87172142D01*
X153464285Y-87172142D02*
X153511904Y-87076904D01*
X153511904Y-87076904D02*
X153511904Y-86838809D01*
X153511904Y-86838809D02*
X153464285Y-86743571D01*
X153464285Y-86743571D02*
X153416666Y-86695952D01*
X153416666Y-86695952D02*
X153321428Y-86648333D01*
X153321428Y-86648333D02*
X153130952Y-86648333D01*
X153130952Y-86648333D02*
X153035714Y-86695952D01*
X153035714Y-86695952D02*
X152988095Y-86743571D01*
X152988095Y-86743571D02*
X152940476Y-86838809D01*
X142758333Y-82097142D02*
X142710714Y-82144761D01*
X142710714Y-82144761D02*
X142567857Y-82192380D01*
X142567857Y-82192380D02*
X142472619Y-82192380D01*
X142472619Y-82192380D02*
X142329762Y-82144761D01*
X142329762Y-82144761D02*
X142234524Y-82049523D01*
X142234524Y-82049523D02*
X142186905Y-81954285D01*
X142186905Y-81954285D02*
X142139286Y-81763809D01*
X142139286Y-81763809D02*
X142139286Y-81620952D01*
X142139286Y-81620952D02*
X142186905Y-81430476D01*
X142186905Y-81430476D02*
X142234524Y-81335238D01*
X142234524Y-81335238D02*
X142329762Y-81240000D01*
X142329762Y-81240000D02*
X142472619Y-81192380D01*
X142472619Y-81192380D02*
X142567857Y-81192380D01*
X142567857Y-81192380D02*
X142710714Y-81240000D01*
X142710714Y-81240000D02*
X142758333Y-81287619D01*
X143663095Y-81192380D02*
X143186905Y-81192380D01*
X143186905Y-81192380D02*
X143139286Y-81668571D01*
X143139286Y-81668571D02*
X143186905Y-81620952D01*
X143186905Y-81620952D02*
X143282143Y-81573333D01*
X143282143Y-81573333D02*
X143520238Y-81573333D01*
X143520238Y-81573333D02*
X143615476Y-81620952D01*
X143615476Y-81620952D02*
X143663095Y-81668571D01*
X143663095Y-81668571D02*
X143710714Y-81763809D01*
X143710714Y-81763809D02*
X143710714Y-82001904D01*
X143710714Y-82001904D02*
X143663095Y-82097142D01*
X143663095Y-82097142D02*
X143615476Y-82144761D01*
X143615476Y-82144761D02*
X143520238Y-82192380D01*
X143520238Y-82192380D02*
X143282143Y-82192380D01*
X143282143Y-82192380D02*
X143186905Y-82144761D01*
X143186905Y-82144761D02*
X143139286Y-82097142D01*
X150413095Y-87492380D02*
X150413095Y-88301904D01*
X150413095Y-88301904D02*
X150460714Y-88397142D01*
X150460714Y-88397142D02*
X150508333Y-88444761D01*
X150508333Y-88444761D02*
X150603571Y-88492380D01*
X150603571Y-88492380D02*
X150794047Y-88492380D01*
X150794047Y-88492380D02*
X150889285Y-88444761D01*
X150889285Y-88444761D02*
X150936904Y-88397142D01*
X150936904Y-88397142D02*
X150984523Y-88301904D01*
X150984523Y-88301904D02*
X150984523Y-87492380D01*
X151365476Y-87492380D02*
X151984523Y-87492380D01*
X151984523Y-87492380D02*
X151651190Y-87873333D01*
X151651190Y-87873333D02*
X151794047Y-87873333D01*
X151794047Y-87873333D02*
X151889285Y-87920952D01*
X151889285Y-87920952D02*
X151936904Y-87968571D01*
X151936904Y-87968571D02*
X151984523Y-88063809D01*
X151984523Y-88063809D02*
X151984523Y-88301904D01*
X151984523Y-88301904D02*
X151936904Y-88397142D01*
X151936904Y-88397142D02*
X151889285Y-88444761D01*
X151889285Y-88444761D02*
X151794047Y-88492380D01*
X151794047Y-88492380D02*
X151508333Y-88492380D01*
X151508333Y-88492380D02*
X151413095Y-88444761D01*
X151413095Y-88444761D02*
X151365476Y-88397142D01*
X151611905Y-76992380D02*
X151611905Y-75992380D01*
X151611905Y-75992380D02*
X151850000Y-75992380D01*
X151850000Y-75992380D02*
X151992857Y-76040000D01*
X151992857Y-76040000D02*
X152088095Y-76135238D01*
X152088095Y-76135238D02*
X152135714Y-76230476D01*
X152135714Y-76230476D02*
X152183333Y-76420952D01*
X152183333Y-76420952D02*
X152183333Y-76563809D01*
X152183333Y-76563809D02*
X152135714Y-76754285D01*
X152135714Y-76754285D02*
X152088095Y-76849523D01*
X152088095Y-76849523D02*
X151992857Y-76944761D01*
X151992857Y-76944761D02*
X151850000Y-76992380D01*
X151850000Y-76992380D02*
X151611905Y-76992380D01*
X153040476Y-76325714D02*
X153040476Y-76992380D01*
X152802381Y-75944761D02*
X152564286Y-76659047D01*
X152564286Y-76659047D02*
X153183333Y-76659047D01*
X143386905Y-107667380D02*
X143386905Y-108476904D01*
X143386905Y-108476904D02*
X143434524Y-108572142D01*
X143434524Y-108572142D02*
X143482143Y-108619761D01*
X143482143Y-108619761D02*
X143577381Y-108667380D01*
X143577381Y-108667380D02*
X143767857Y-108667380D01*
X143767857Y-108667380D02*
X143863095Y-108619761D01*
X143863095Y-108619761D02*
X143910714Y-108572142D01*
X143910714Y-108572142D02*
X143958333Y-108476904D01*
X143958333Y-108476904D02*
X143958333Y-107667380D01*
X144958333Y-108667380D02*
X144386905Y-108667380D01*
X144672619Y-108667380D02*
X144672619Y-107667380D01*
X144672619Y-107667380D02*
X144577381Y-107810238D01*
X144577381Y-107810238D02*
X144482143Y-107905476D01*
X144482143Y-107905476D02*
X144386905Y-107953095D01*
X145910714Y-108667380D02*
X145339286Y-108667380D01*
X145625000Y-108667380D02*
X145625000Y-107667380D01*
X145625000Y-107667380D02*
X145529762Y-107810238D01*
X145529762Y-107810238D02*
X145434524Y-107905476D01*
X145434524Y-107905476D02*
X145339286Y-107953095D01*
X136372371Y-82866926D02*
X136035654Y-82530209D01*
X136035654Y-82530209D02*
X136742760Y-81823102D01*
X137214165Y-82429194D02*
X137281509Y-82429194D01*
X137281509Y-82429194D02*
X137382524Y-82462865D01*
X137382524Y-82462865D02*
X137550883Y-82631224D01*
X137550883Y-82631224D02*
X137584554Y-82732239D01*
X137584554Y-82732239D02*
X137584554Y-82799583D01*
X137584554Y-82799583D02*
X137550883Y-82900598D01*
X137550883Y-82900598D02*
X137483539Y-82967942D01*
X137483539Y-82967942D02*
X137348852Y-83035285D01*
X137348852Y-83035285D02*
X136540730Y-83035285D01*
X136540730Y-83035285D02*
X136978463Y-83473018D01*
X136442380Y-95092857D02*
X135966190Y-95426190D01*
X136442380Y-95664285D02*
X135442380Y-95664285D01*
X135442380Y-95664285D02*
X135442380Y-95283333D01*
X135442380Y-95283333D02*
X135490000Y-95188095D01*
X135490000Y-95188095D02*
X135537619Y-95140476D01*
X135537619Y-95140476D02*
X135632857Y-95092857D01*
X135632857Y-95092857D02*
X135775714Y-95092857D01*
X135775714Y-95092857D02*
X135870952Y-95140476D01*
X135870952Y-95140476D02*
X135918571Y-95188095D01*
X135918571Y-95188095D02*
X135966190Y-95283333D01*
X135966190Y-95283333D02*
X135966190Y-95664285D01*
X135537619Y-94711904D02*
X135490000Y-94664285D01*
X135490000Y-94664285D02*
X135442380Y-94569047D01*
X135442380Y-94569047D02*
X135442380Y-94330952D01*
X135442380Y-94330952D02*
X135490000Y-94235714D01*
X135490000Y-94235714D02*
X135537619Y-94188095D01*
X135537619Y-94188095D02*
X135632857Y-94140476D01*
X135632857Y-94140476D02*
X135728095Y-94140476D01*
X135728095Y-94140476D02*
X135870952Y-94188095D01*
X135870952Y-94188095D02*
X136442380Y-94759523D01*
X136442380Y-94759523D02*
X136442380Y-94140476D01*
X135537619Y-93759523D02*
X135490000Y-93711904D01*
X135490000Y-93711904D02*
X135442380Y-93616666D01*
X135442380Y-93616666D02*
X135442380Y-93378571D01*
X135442380Y-93378571D02*
X135490000Y-93283333D01*
X135490000Y-93283333D02*
X135537619Y-93235714D01*
X135537619Y-93235714D02*
X135632857Y-93188095D01*
X135632857Y-93188095D02*
X135728095Y-93188095D01*
X135728095Y-93188095D02*
X135870952Y-93235714D01*
X135870952Y-93235714D02*
X136442380Y-93807142D01*
X136442380Y-93807142D02*
X136442380Y-93188095D01*
D11*
X124710000Y-99450000D02*
X124710000Y-97650000D01*
X124710000Y-99450000D02*
X124710000Y-100250000D01*
X121590000Y-99450000D02*
X121590000Y-98650000D01*
X121590000Y-99450000D02*
X121590000Y-100250000D01*
X141780000Y-94371359D02*
X141780000Y-94678641D01*
X141020000Y-94371359D02*
X141020000Y-94678641D01*
X143900000Y-80750000D02*
X143900000Y-84050000D01*
X143900000Y-84050000D02*
X147900000Y-84050000D01*
X137878641Y-90605000D02*
X137571359Y-90605000D01*
X137878641Y-89845000D02*
X137571359Y-89845000D01*
X155385730Y-100065175D02*
X155787547Y-99095102D01*
X157695428Y-101021884D02*
X155385730Y-100065175D01*
X155787547Y-99095102D02*
X154872906Y-98716245D01*
X159963211Y-100694831D02*
X161448022Y-97110179D01*
X157766021Y-94318645D02*
X157364203Y-95288718D01*
X160075719Y-95275353D02*
X157766021Y-94318645D01*
X147865000Y-84777500D02*
X147865000Y-86247500D01*
X147865000Y-86247500D02*
X150150000Y-86247500D01*
X150150000Y-84777500D02*
X147865000Y-84777500D01*
X148140000Y-81707836D02*
X148140000Y-81492164D01*
X148860000Y-81707836D02*
X148860000Y-81492164D01*
X142140000Y-85890580D02*
X142140000Y-85609420D01*
X143160000Y-85890580D02*
X143160000Y-85609420D01*
X134875000Y-86600000D02*
X134975000Y-86600000D01*
X133175000Y-86600000D02*
X133175000Y-91000000D01*
X136675000Y-91000000D02*
X136675000Y-86600000D01*
X134875000Y-91000000D02*
X134975000Y-91000000D01*
X150279438Y-76886611D02*
X151044805Y-75038852D01*
X151771904Y-73283481D02*
X152499002Y-71528110D01*
X152499002Y-71528110D02*
X143814535Y-67930886D01*
X141594971Y-73289387D02*
X142360338Y-71441628D01*
X143087436Y-69686257D02*
X143814535Y-67930886D01*
X129728641Y-76630000D02*
X129421359Y-76630000D01*
X129728641Y-75870000D02*
X129421359Y-75870000D01*
X137878641Y-87730000D02*
X137571359Y-87730000D01*
X137878641Y-86970000D02*
X137571359Y-86970000D01*
X119690000Y-95850000D02*
X119690000Y-95260000D01*
X121910000Y-95850000D02*
X121910000Y-95260000D01*
X117590000Y-95260000D02*
X119690000Y-95260000D01*
X117590000Y-95260000D02*
X117590000Y-85140000D01*
X121910000Y-95260000D02*
X126810000Y-95260000D01*
X126810000Y-95260000D02*
X126810000Y-85140000D01*
X117590000Y-85140000D02*
X119690000Y-85140000D01*
X119690000Y-85140000D02*
X119690000Y-84550000D01*
X121910000Y-85140000D02*
X126810000Y-85140000D01*
X121910000Y-85140000D02*
X121910000Y-84550000D01*
X119690000Y-95850000D02*
G75*
G03*
X121910000Y-95850000I1110000J0D01*
G01*
X121910000Y-84550000D02*
G75*
G03*
X119690000Y-84550000I-1110000J0D01*
G01*
X140694190Y-82871693D02*
X140846693Y-82719190D01*
X141203307Y-83380810D02*
X141355810Y-83228307D01*
X149746359Y-86382500D02*
X150053641Y-86382500D01*
X149746359Y-87142500D02*
X150053641Y-87142500D01*
X133792164Y-103940000D02*
X134007836Y-103940000D01*
X133792164Y-104660000D02*
X134007836Y-104660000D01*
X143490000Y-86432836D02*
X143490000Y-86217164D01*
X144210000Y-86432836D02*
X144210000Y-86217164D01*
X132760000Y-79855000D02*
X132760000Y-77425000D01*
X132750000Y-79875000D02*
X131750000Y-79875000D01*
X130750000Y-79875000D02*
X129700000Y-79875000D01*
X129700000Y-79875000D02*
X129700000Y-78025000D01*
X157912476Y-85987169D02*
X157223646Y-84324186D01*
X159252101Y-85432278D02*
X157912476Y-85987169D01*
X161371434Y-83179784D02*
X160058830Y-80010877D01*
X157223646Y-84324186D02*
X156309005Y-84703043D01*
X155627856Y-80471608D02*
X156316686Y-82134591D01*
X156967481Y-79916717D02*
X155627856Y-80471608D01*
X142477500Y-79753080D02*
X142477500Y-79471920D01*
X143497500Y-79753080D02*
X143497500Y-79471920D01*
X138630810Y-84578307D02*
X138478307Y-84730810D01*
X138121693Y-84069190D02*
X137969190Y-84221693D01*
X137832836Y-88660000D02*
X137617164Y-88660000D01*
X137832836Y-87940000D02*
X137617164Y-87940000D01*
X120590000Y-100707836D02*
X120590000Y-100492164D01*
X121310000Y-100707836D02*
X121310000Y-100492164D01*
X140830000Y-94371359D02*
X140830000Y-94678641D01*
X140070000Y-94371359D02*
X140070000Y-94678641D01*
X127546359Y-75870000D02*
X127853641Y-75870000D01*
X127546359Y-76630000D02*
X127853641Y-76630000D01*
X141760000Y-78052500D02*
X141760000Y-78527500D01*
X141285000Y-81272500D02*
X141760000Y-81272500D01*
X141285000Y-78052500D02*
X141760000Y-78052500D01*
X139015000Y-81272500D02*
X138540000Y-81272500D01*
X139015000Y-78052500D02*
X138540000Y-78052500D01*
X138540000Y-81272500D02*
X138540000Y-80797500D01*
X138540000Y-78052500D02*
X138540000Y-78527500D01*
X135900000Y-74425000D02*
X133500000Y-74425000D01*
X133500000Y-74425000D02*
X133500000Y-68225000D01*
X133500000Y-68225000D02*
X135900000Y-68225000D01*
X135900000Y-68225000D02*
X135900000Y-74425000D01*
D12*
X134841421Y-72825000D02*
G75*
G03*
X134841421Y-72825000I-141421J0D01*
G01*
D11*
X137617164Y-86040000D02*
X137832836Y-86040000D01*
X137617164Y-86760000D02*
X137832836Y-86760000D01*
X123490580Y-102760000D02*
X123209420Y-102760000D01*
X123490580Y-101740000D02*
X123209420Y-101740000D01*
X137571359Y-88870000D02*
X137878641Y-88870000D01*
X137571359Y-89630000D02*
X137878641Y-89630000D01*
X131025000Y-108185000D02*
X134625000Y-108185000D01*
X131025000Y-108185000D02*
X128825000Y-108185000D01*
X131025000Y-104965000D02*
X133225000Y-104965000D01*
X131025000Y-104965000D02*
X128825000Y-104965000D01*
X136910000Y-105022936D02*
X136910000Y-106477064D01*
X135090000Y-105022936D02*
X135090000Y-106477064D01*
X145867164Y-96465000D02*
X146082836Y-96465000D01*
X145867164Y-97185000D02*
X146082836Y-97185000D01*
X146220000Y-86466141D02*
X146220000Y-86158859D01*
X146980000Y-86466141D02*
X146980000Y-86158859D01*
X125696359Y-97470000D02*
X126003641Y-97470000D01*
X125696359Y-98230000D02*
X126003641Y-98230000D01*
X132885000Y-103117164D02*
X132885000Y-103332836D01*
X132165000Y-103117164D02*
X132165000Y-103332836D01*
X140307836Y-86735000D02*
X140092164Y-86735000D01*
X140307836Y-86015000D02*
X140092164Y-86015000D01*
X151659420Y-93452500D02*
X151940580Y-93452500D01*
X151659420Y-94472500D02*
X151940580Y-94472500D01*
X148735000Y-98267164D02*
X148735000Y-98482836D01*
X148015000Y-98267164D02*
X148015000Y-98482836D01*
X151190000Y-79065000D02*
X151190000Y-80535000D01*
X151190000Y-80535000D02*
X153475000Y-80535000D01*
X153475000Y-79065000D02*
X151190000Y-79065000D01*
X151092164Y-92402500D02*
X151307836Y-92402500D01*
X151092164Y-93122500D02*
X151307836Y-93122500D01*
X129310000Y-79855000D02*
X129310000Y-77425000D01*
X129300000Y-79875000D02*
X128300000Y-79875000D01*
X127300000Y-79875000D02*
X126250000Y-79875000D01*
X126250000Y-79875000D02*
X126250000Y-78025000D01*
X148755000Y-96333859D02*
X148755000Y-96641141D01*
X147995000Y-96333859D02*
X147995000Y-96641141D01*
X150775000Y-100575000D02*
X150675000Y-100575000D01*
X152475000Y-100575000D02*
X152475000Y-96175000D01*
X148975000Y-96175000D02*
X148975000Y-100575000D01*
X150775000Y-96175000D02*
X150675000Y-96175000D01*
X155080000Y-78481359D02*
X155080000Y-78788641D01*
X154320000Y-78481359D02*
X154320000Y-78788641D01*
X133250001Y-103100002D02*
X133250001Y-97950002D01*
X143050001Y-101150000D02*
X143050001Y-97949999D01*
X145410000Y-100688748D02*
X145410000Y-102111252D01*
X143590000Y-100688748D02*
X143590000Y-102111252D01*
X140635000Y-105022936D02*
X140635000Y-106477064D01*
X138815000Y-105022936D02*
X138815000Y-106477064D01*
X147892164Y-86452500D02*
X148107836Y-86452500D01*
X147892164Y-87172500D02*
X148107836Y-87172500D01*
X143660000Y-83092164D02*
X143660000Y-83307836D01*
X142940000Y-83092164D02*
X142940000Y-83307836D01*
X142540000Y-95010000D02*
X142540000Y-94360000D01*
X143190000Y-87790000D02*
X142540000Y-87790000D01*
X143190000Y-95010000D02*
X142540000Y-95010000D01*
X149110000Y-87790000D02*
X149760000Y-87790000D01*
X149110000Y-95010000D02*
X149760000Y-95010000D01*
X149760000Y-87790000D02*
X149760000Y-88440000D01*
X149760000Y-95010000D02*
X149760000Y-94360000D01*
X154160000Y-78925000D02*
X154160000Y-77225000D01*
X154160000Y-78925000D02*
X151500000Y-78925000D01*
X154160000Y-77225000D02*
X151500000Y-77225000D01*
X144725000Y-104240000D02*
X141125000Y-104240000D01*
X144725000Y-104240000D02*
X146925000Y-104240000D01*
X144725000Y-107460000D02*
X142525000Y-107460000D01*
X144725000Y-107460000D02*
X146925000Y-107460000D01*
X139120000Y-94678641D02*
X139120000Y-94371359D01*
X139880000Y-94678641D02*
X139880000Y-94371359D01*
%LPC*%
D13*
X144265000Y-84600000D03*
X145235000Y-84600000D03*
D14*
X124100000Y-98312500D03*
X123150000Y-98312500D03*
X122200000Y-98312500D03*
X122200000Y-100587500D03*
X124100000Y-100587500D03*
D15*
X141400000Y-94015000D03*
X141400000Y-95035000D03*
D16*
X144799999Y-83249999D03*
X146999999Y-83249999D03*
X146999999Y-81549999D03*
X144799999Y-81549999D03*
D17*
X138235000Y-90225000D03*
X137215000Y-90225000D03*
D18*
X155803216Y-98495452D03*
X156185899Y-97571573D03*
X156568583Y-96647693D03*
X156951266Y-95723814D03*
D19*
X158885761Y-101179394D03*
X161028788Y-96005669D03*
D20*
X148562500Y-85512500D03*
X150137500Y-85512500D03*
D21*
X148500000Y-82080000D03*
X148500000Y-81120000D03*
D22*
X142650000Y-86525000D03*
X142650000Y-84975000D03*
D23*
X135999999Y-86724999D03*
X135999999Y-90874999D03*
X133849999Y-86724999D03*
X133849999Y-90849999D03*
D24*
X148339338Y-76840670D03*
X142999314Y-74628760D03*
D25*
X148118956Y-78313441D03*
X147379852Y-78007294D03*
D26*
X146271197Y-77548074D03*
X145347317Y-77165391D03*
X144885378Y-76974049D03*
X143961498Y-76591365D03*
D25*
X142852843Y-76132145D03*
X142113739Y-75825999D03*
X142113739Y-75825999D03*
X142852843Y-76132145D03*
D26*
X143499558Y-76400024D03*
X144423438Y-76782707D03*
X145809257Y-77356732D03*
X146733137Y-77739416D03*
D25*
X147379852Y-78007294D03*
X148118956Y-78313441D03*
D27*
X149457662Y-77877562D03*
D28*
X151057279Y-74015746D03*
D27*
X141475343Y-74571178D03*
D28*
X143074960Y-70709361D03*
D17*
X130085000Y-76250000D03*
X129065000Y-76250000D03*
X138235000Y-87350000D03*
X137215000Y-87350000D03*
D29*
X120800000Y-95700000D03*
X120800000Y-84700000D03*
D30*
X130799999Y-87699999D03*
D31*
X130800000Y-92700000D03*
D32*
X140685589Y-83389411D03*
X141364411Y-82710589D03*
D33*
X149390000Y-86762500D03*
X150410000Y-86762500D03*
D34*
X133420000Y-104300000D03*
X134380000Y-104300000D03*
D35*
X139302053Y-83417947D03*
X139987947Y-82732053D03*
D21*
X143850000Y-86805000D03*
X143850000Y-85845000D03*
D36*
X132199999Y-77614999D03*
X130299999Y-77614999D03*
X131249999Y-80234999D03*
D37*
X156880000Y-83860389D03*
X156401646Y-82705540D03*
D38*
X160544379Y-84344979D03*
X158650096Y-79771776D03*
D39*
X140675000Y-84490000D03*
X140675000Y-85460000D03*
D22*
X142987500Y-80387500D03*
X142987500Y-78837500D03*
D40*
X138639411Y-84060589D03*
X137960589Y-84739411D03*
D41*
X138205000Y-88300000D03*
X137245000Y-88300000D03*
D21*
X120950000Y-101080000D03*
X120950000Y-100120000D03*
D15*
X140450000Y-94015000D03*
X140450000Y-95035000D03*
D33*
X127190000Y-76250000D03*
X128210000Y-76250000D03*
D42*
X141612500Y-80412500D03*
X141612500Y-79912500D03*
X141612500Y-79412500D03*
X141612500Y-78912500D03*
D43*
X140900000Y-78200000D03*
X140400000Y-78200000D03*
X139900000Y-78200000D03*
X139400000Y-78200000D03*
D42*
X138687500Y-78912500D03*
X138687500Y-79412500D03*
X138687500Y-79912500D03*
X138687500Y-80412500D03*
D43*
X139400000Y-81125000D03*
X139900000Y-81125000D03*
X140400000Y-81125000D03*
X140900000Y-81125000D03*
D44*
X140149999Y-79662499D03*
D45*
X134700000Y-73825000D03*
X134700000Y-68825000D03*
D34*
X137245000Y-86400000D03*
X138205000Y-86400000D03*
D46*
X124125000Y-102250000D03*
X122575000Y-102250000D03*
D33*
X137215000Y-89250000D03*
X138235000Y-89250000D03*
D47*
X133887500Y-107550000D03*
X133887500Y-106900000D03*
X133887500Y-106250000D03*
X133887500Y-105600000D03*
X128162500Y-105600000D03*
X128162500Y-106250000D03*
X128162500Y-106900000D03*
X128162500Y-107550000D03*
D48*
X136000000Y-104287500D03*
X136000000Y-107212500D03*
D34*
X145495000Y-96825000D03*
X146455000Y-96825000D03*
D49*
X146600000Y-86822500D03*
X146600000Y-85802500D03*
D33*
X125340000Y-97850000D03*
X126360000Y-97850000D03*
D50*
X132525000Y-102745000D03*
X132525000Y-103705000D03*
D41*
X140680000Y-86375000D03*
X139720000Y-86375000D03*
D51*
X151025000Y-93962500D03*
X152575000Y-93962500D03*
D50*
X148375000Y-97895000D03*
X148375000Y-98855000D03*
D20*
X151887500Y-79800000D03*
X153462500Y-79800000D03*
D34*
X150720000Y-92762500D03*
X151680000Y-92762500D03*
D36*
X128749999Y-77614999D03*
X126849999Y-77614999D03*
X127799999Y-80234999D03*
D15*
X148375000Y-95977500D03*
X148375000Y-96997500D03*
D23*
X149649999Y-100449999D03*
X149649999Y-96299999D03*
X151799999Y-100449999D03*
X151799999Y-96324999D03*
D15*
X154700000Y-78125000D03*
X154700000Y-79145000D03*
D52*
X133925000Y-102499999D03*
X134575001Y-102499999D03*
X135225000Y-102499999D03*
X135875001Y-102499999D03*
X136524999Y-102499999D03*
X137175001Y-102499999D03*
X137824999Y-102499999D03*
X138475001Y-102499999D03*
X139124999Y-102499999D03*
X139775001Y-102499999D03*
X140424999Y-102499999D03*
X141075000Y-102499999D03*
X141724999Y-102499999D03*
X142375000Y-102499999D03*
X142375000Y-96599998D03*
X141724999Y-96599998D03*
X141075000Y-96599998D03*
X140424999Y-96599998D03*
X139775001Y-96599998D03*
X139124999Y-96599998D03*
X138475001Y-96599998D03*
X137824999Y-96599998D03*
X137175001Y-96599998D03*
X136524999Y-96599998D03*
X135875001Y-96599998D03*
X135225000Y-96599998D03*
X134575001Y-96599998D03*
X133925000Y-96599998D03*
D53*
X136150000Y-100550002D03*
X137150000Y-100550002D03*
X138150001Y-100550002D03*
X139150002Y-100550002D03*
X140150002Y-100550002D03*
X136150000Y-99550001D03*
X137150000Y-99550001D03*
X138150001Y-99550001D03*
D54*
X138150000Y-99550000D03*
D53*
X139150002Y-99550001D03*
X140150002Y-99550001D03*
X136150000Y-98550000D03*
X137150000Y-98550000D03*
X138150001Y-98550000D03*
X139150002Y-98550000D03*
X140150002Y-98550000D03*
D55*
X144500000Y-99925000D03*
X144500000Y-102875000D03*
D48*
X139725000Y-104287500D03*
X139725000Y-107212500D03*
D34*
X147520000Y-86812500D03*
X148480000Y-86812500D03*
D50*
X143300000Y-82720000D03*
X143300000Y-83680000D03*
D56*
X142712500Y-88800000D03*
X142712500Y-89200000D03*
X142712500Y-89600000D03*
X142712500Y-90000000D03*
X142712500Y-90400000D03*
X142712500Y-90800000D03*
X142712500Y-91200000D03*
X142712500Y-91600000D03*
X142712500Y-92000000D03*
X142712500Y-92400000D03*
X142712500Y-92800000D03*
X142712500Y-93200000D03*
X142712500Y-93600000D03*
X142712500Y-94000000D03*
D57*
X143550000Y-94837500D03*
X143950000Y-94837500D03*
X144350000Y-94837500D03*
X144750000Y-94837500D03*
X145150000Y-94837500D03*
X145550000Y-94837500D03*
X145950000Y-94837500D03*
X146350000Y-94837500D03*
X146750000Y-94837500D03*
X147150000Y-94837500D03*
X147550000Y-94837500D03*
X147950000Y-94837500D03*
X148350000Y-94837500D03*
X148750000Y-94837500D03*
D56*
X149587500Y-94000000D03*
X149587500Y-93600000D03*
X149587500Y-93200000D03*
X149587500Y-92800000D03*
X149587500Y-92400000D03*
X149587500Y-92000000D03*
X149587500Y-91600000D03*
X149587500Y-91200000D03*
X149587500Y-90800000D03*
X149587500Y-90400000D03*
X149587500Y-90000000D03*
X149587500Y-89600000D03*
X149587500Y-89200000D03*
X149587500Y-88800000D03*
D57*
X148750000Y-87962500D03*
X148350000Y-87962500D03*
X147950000Y-87962500D03*
X147550000Y-87962500D03*
X147150000Y-87962500D03*
X146750000Y-87962500D03*
X146350000Y-87962500D03*
X145950000Y-87962500D03*
X145550000Y-87962500D03*
X145150000Y-87962500D03*
X144750000Y-87962500D03*
X144350000Y-87962500D03*
X143950000Y-87962500D03*
X143550000Y-87962500D03*
D58*
X146149999Y-91399999D03*
D59*
X153600000Y-78075000D03*
X151500000Y-78075000D03*
D60*
X141862500Y-104875000D03*
X141862500Y-105525000D03*
X141862500Y-106175000D03*
X141862500Y-106825000D03*
X147587500Y-106825000D03*
X147587500Y-106175000D03*
X147587500Y-105525000D03*
X147587500Y-104875000D03*
D61*
X140682053Y-87482053D03*
X141367947Y-88167947D03*
D49*
X139500000Y-95035000D03*
X139500000Y-94015000D03*
M02*
