G04 #@! TF.GenerationSoftware,KiCad,Pcbnew,(7.0.0)*
G04 #@! TF.CreationDate,2023-03-23T23:46:18+08:00*
G04 #@! TF.ProjectId,ServoLess,53657276-6f4c-4657-9373-2e6b69636164,rev?*
G04 #@! TF.SameCoordinates,Original*
G04 #@! TF.FileFunction,Soldermask,Top*
G04 #@! TF.FilePolarity,Negative*
%FSLAX46Y46*%
G04 Gerber Fmt 4.6, Leading zero omitted, Abs format (unit mm)*
G04 Created by KiCad (PCBNEW (7.0.0)) date 2023-03-23 23:46:18*
%MOMM*%
%LPD*%
G01*
G04 APERTURE LIST*
G04 Aperture macros list*
%AMRoundRect*
0 Rectangle with rounded corners*
0 $1 Rounding radius*
0 $2 $3 $4 $5 $6 $7 $8 $9 X,Y pos of 4 corners*
0 Add a 4 corners polygon primitive as box body*
4,1,4,$2,$3,$4,$5,$6,$7,$8,$9,$2,$3,0*
0 Add four circle primitives for the rounded corners*
1,1,$1+$1,$2,$3*
1,1,$1+$1,$4,$5*
1,1,$1+$1,$6,$7*
1,1,$1+$1,$8,$9*
0 Add four rect primitives between the rounded corners*
20,1,$1+$1,$2,$3,$4,$5,0*
20,1,$1+$1,$4,$5,$6,$7,0*
20,1,$1+$1,$6,$7,$8,$9,0*
20,1,$1+$1,$8,$9,$2,$3,0*%
%AMHorizOval*
0 Thick line with rounded ends*
0 $1 width*
0 $2 $3 position (X,Y) of the first rounded end (center of the circle)*
0 $4 $5 position (X,Y) of the second rounded end (center of the circle)*
0 Add line between two ends*
20,1,$1,$2,$3,$4,$5,0*
0 Add two circle primitives to create the rounded ends*
1,1,$1,$2,$3*
1,1,$1,$4,$5*%
%AMRotRect*
0 Rectangle, with rotation*
0 The origin of the aperture is its center*
0 $1 length*
0 $2 width*
0 $3 Rotation angle, in degrees counterclockwise*
0 Add horizontal line*
21,1,$1,$2,0,0,$3*%
G04 Aperture macros list end*
%ADD10RoundRect,0.147500X-0.147500X-0.172500X0.147500X-0.172500X0.147500X0.172500X-0.147500X0.172500X0*%
%ADD11RoundRect,0.150000X-0.150000X0.512500X-0.150000X-0.512500X0.150000X-0.512500X0.150000X0.512500X0*%
%ADD12RoundRect,0.135000X-0.185000X0.135000X-0.185000X-0.135000X0.185000X-0.135000X0.185000X0.135000X0*%
%ADD13R,1.400000X1.200000*%
%ADD14RoundRect,0.135000X0.135000X0.185000X-0.135000X0.185000X-0.135000X-0.185000X0.135000X-0.185000X0*%
%ADD15RoundRect,0.150000X0.520022X-0.377759X0.634827X-0.100595X-0.520022X0.377759X-0.634827X0.100595X0*%
%ADD16RoundRect,0.250000X0.466582X-0.572102X0.734461X0.074614X-0.466582X0.572102X-0.734461X-0.074614X0*%
%ADD17RoundRect,0.218750X-0.218750X-0.256250X0.218750X-0.256250X0.218750X0.256250X-0.218750X0.256250X0*%
%ADD18RoundRect,0.140000X0.170000X-0.140000X0.170000X0.140000X-0.170000X0.140000X-0.170000X-0.140000X0*%
%ADD19RoundRect,0.225000X0.250000X-0.225000X0.250000X0.225000X-0.250000X0.225000X-0.250000X-0.225000X0*%
%ADD20R,0.650000X1.050000*%
%ADD21C,0.650000*%
%ADD22RotRect,0.600000X1.450000X157.500000*%
%ADD23RotRect,0.300000X1.450000X157.500000*%
%ADD24HorizOval,1.000000X0.210476X0.508134X-0.210476X-0.508134X0*%
%ADD25HorizOval,1.000000X0.114805X0.277164X-0.114805X-0.277164X0*%
%ADD26C,1.400000*%
%ADD27R,3.500000X3.500000*%
%ADD28C,3.500000*%
%ADD29RoundRect,0.140000X0.021213X-0.219203X0.219203X-0.021213X-0.021213X0.219203X-0.219203X0.021213X0*%
%ADD30RoundRect,0.135000X-0.135000X-0.185000X0.135000X-0.185000X0.135000X0.185000X-0.135000X0.185000X0*%
%ADD31RoundRect,0.140000X-0.140000X-0.170000X0.140000X-0.170000X0.140000X0.170000X-0.140000X0.170000X0*%
%ADD32RoundRect,0.147500X0.017678X-0.226274X0.226274X-0.017678X-0.017678X0.226274X-0.226274X0.017678X0*%
%ADD33R,0.650000X1.220000*%
%ADD34RoundRect,0.150000X0.704118X0.129296X0.589313X0.406460X-0.704118X-0.129296X-0.589313X-0.406460X0*%
%ADD35RoundRect,0.250000X1.111938X0.189982X0.920597X0.651922X-1.111938X-0.189982X-0.920597X-0.651922X0*%
%ADD36RoundRect,0.147500X-0.172500X0.147500X-0.172500X-0.147500X0.172500X-0.147500X0.172500X0.147500X0*%
%ADD37RoundRect,0.140000X-0.021213X0.219203X-0.219203X0.021213X0.021213X-0.219203X0.219203X-0.021213X0*%
%ADD38RoundRect,0.140000X0.140000X0.170000X-0.140000X0.170000X-0.140000X-0.170000X0.140000X-0.170000X0*%
%ADD39RoundRect,0.062500X0.325000X0.062500X-0.325000X0.062500X-0.325000X-0.062500X0.325000X-0.062500X0*%
%ADD40RoundRect,0.062500X0.062500X0.325000X-0.062500X0.325000X-0.062500X-0.325000X0.062500X-0.325000X0*%
%ADD41R,1.100000X1.100000*%
%ADD42RoundRect,0.250000X0.850000X0.250000X-0.850000X0.250000X-0.850000X-0.250000X0.850000X-0.250000X0*%
%ADD43RoundRect,0.225000X0.225000X0.250000X-0.225000X0.250000X-0.225000X-0.250000X0.225000X-0.250000X0*%
%ADD44RoundRect,0.100000X0.637500X0.100000X-0.637500X0.100000X-0.637500X-0.100000X0.637500X-0.100000X0*%
%ADD45RoundRect,0.250000X-0.625000X0.312500X-0.625000X-0.312500X0.625000X-0.312500X0.625000X0.312500X0*%
%ADD46RoundRect,0.135000X0.185000X-0.135000X0.185000X0.135000X-0.185000X0.135000X-0.185000X-0.135000X0*%
%ADD47RoundRect,0.140000X-0.170000X0.140000X-0.170000X-0.140000X0.170000X-0.140000X0.170000X0.140000X0*%
%ADD48RoundRect,0.225000X-0.225000X-0.250000X0.225000X-0.250000X0.225000X0.250000X-0.225000X0.250000X0*%
%ADD49R,0.449999X1.400000*%
%ADD50C,0.500000*%
%ADD51R,5.180000X3.099999*%
%ADD52RoundRect,0.250000X-0.650000X0.325000X-0.650000X-0.325000X0.650000X-0.325000X0.650000X0.325000X0*%
%ADD53RoundRect,0.050000X-0.387500X-0.050000X0.387500X-0.050000X0.387500X0.050000X-0.387500X0.050000X0*%
%ADD54RoundRect,0.050000X-0.050000X-0.387500X0.050000X-0.387500X0.050000X0.387500X-0.050000X0.387500X0*%
%ADD55R,5.600000X5.600000*%
%ADD56RoundRect,0.112500X0.187500X0.112500X-0.187500X0.112500X-0.187500X-0.112500X0.187500X-0.112500X0*%
%ADD57RoundRect,0.100000X-0.637500X-0.100000X0.637500X-0.100000X0.637500X0.100000X-0.637500X0.100000X0*%
%ADD58RoundRect,0.147500X-0.226274X-0.017678X-0.017678X-0.226274X0.226274X0.017678X0.017678X0.226274X0*%
G04 APERTURE END LIST*
D10*
X144265000Y-84600000D03*
X145235000Y-84600000D03*
D11*
X124100000Y-98312500D03*
X123150000Y-98312500D03*
X122200000Y-98312500D03*
X122200000Y-100587500D03*
X124100000Y-100587500D03*
D12*
X141400000Y-94015000D03*
X141400000Y-95035000D03*
D13*
X144799999Y-83249999D03*
X146999999Y-83249999D03*
X146999999Y-81549999D03*
X144799999Y-81549999D03*
D14*
X138235000Y-90225000D03*
X137215000Y-90225000D03*
D15*
X155803216Y-98495452D03*
X156185899Y-97571573D03*
X156568583Y-96647693D03*
X156951266Y-95723814D03*
D16*
X158885761Y-101179394D03*
X161028788Y-96005669D03*
D17*
X148562500Y-85512500D03*
X150137500Y-85512500D03*
D18*
X148500000Y-82080000D03*
X148500000Y-81120000D03*
D19*
X142650000Y-86525000D03*
X142650000Y-84975000D03*
D20*
X135999999Y-86724999D03*
X135999999Y-90874999D03*
X133849999Y-86724999D03*
X133849999Y-90849999D03*
D21*
X148339338Y-76840670D03*
X142999314Y-74628760D03*
D22*
X148118956Y-78313441D03*
X147379852Y-78007294D03*
D23*
X146271197Y-77548074D03*
X145347317Y-77165391D03*
X144885378Y-76974049D03*
X143961498Y-76591365D03*
D22*
X142852843Y-76132145D03*
X142113739Y-75825999D03*
X142113739Y-75825999D03*
X142852843Y-76132145D03*
D23*
X143499558Y-76400024D03*
X144423438Y-76782707D03*
X145809257Y-77356732D03*
X146733137Y-77739416D03*
D22*
X147379852Y-78007294D03*
X148118956Y-78313441D03*
D24*
X149457662Y-77877562D03*
D25*
X151057279Y-74015746D03*
D24*
X141475343Y-74571178D03*
D25*
X143074960Y-70709361D03*
D14*
X130085000Y-76250000D03*
X129065000Y-76250000D03*
X138235000Y-87350000D03*
X137215000Y-87350000D03*
D26*
X120800000Y-95700000D03*
X120800000Y-84700000D03*
D27*
X130799999Y-87699999D03*
D28*
X130800000Y-92700000D03*
D29*
X140685589Y-83389411D03*
X141364411Y-82710589D03*
D30*
X149390000Y-86762500D03*
X150410000Y-86762500D03*
D31*
X133420000Y-104300000D03*
X134380000Y-104300000D03*
D32*
X139302053Y-83417947D03*
X139987947Y-82732053D03*
D18*
X143850000Y-86805000D03*
X143850000Y-85845000D03*
D33*
X132199999Y-77614999D03*
X130299999Y-77614999D03*
X131249999Y-80234999D03*
D34*
X156880000Y-83860389D03*
X156401646Y-82705540D03*
D35*
X160544379Y-84344979D03*
X158650096Y-79771776D03*
D36*
X140675000Y-84490000D03*
X140675000Y-85460000D03*
D19*
X142987500Y-80387500D03*
X142987500Y-78837500D03*
D37*
X138639411Y-84060589D03*
X137960589Y-84739411D03*
D38*
X138205000Y-88300000D03*
X137245000Y-88300000D03*
D18*
X120950000Y-101080000D03*
X120950000Y-100120000D03*
D12*
X140450000Y-94015000D03*
X140450000Y-95035000D03*
D30*
X127190000Y-76250000D03*
X128210000Y-76250000D03*
D39*
X141612500Y-80412500D03*
X141612500Y-79912500D03*
X141612500Y-79412500D03*
X141612500Y-78912500D03*
D40*
X140900000Y-78200000D03*
X140400000Y-78200000D03*
X139900000Y-78200000D03*
X139400000Y-78200000D03*
D39*
X138687500Y-78912500D03*
X138687500Y-79412500D03*
X138687500Y-79912500D03*
X138687500Y-80412500D03*
D40*
X139400000Y-81125000D03*
X139900000Y-81125000D03*
X140400000Y-81125000D03*
X140900000Y-81125000D03*
D41*
X140149999Y-79662499D03*
D42*
X134700000Y-73825000D03*
X134700000Y-68825000D03*
D31*
X137245000Y-86400000D03*
X138205000Y-86400000D03*
D43*
X124125000Y-102250000D03*
X122575000Y-102250000D03*
D30*
X137215000Y-89250000D03*
X138235000Y-89250000D03*
D44*
X133887500Y-107550000D03*
X133887500Y-106900000D03*
X133887500Y-106250000D03*
X133887500Y-105600000D03*
X128162500Y-105600000D03*
X128162500Y-106250000D03*
X128162500Y-106900000D03*
X128162500Y-107550000D03*
D45*
X136000000Y-104287500D03*
X136000000Y-107212500D03*
D31*
X145495000Y-96825000D03*
X146455000Y-96825000D03*
D46*
X146600000Y-86822500D03*
X146600000Y-85802500D03*
D30*
X125340000Y-97850000D03*
X126360000Y-97850000D03*
D47*
X132525000Y-102745000D03*
X132525000Y-103705000D03*
D38*
X140680000Y-86375000D03*
X139720000Y-86375000D03*
D48*
X151025000Y-93962500D03*
X152575000Y-93962500D03*
D47*
X148375000Y-97895000D03*
X148375000Y-98855000D03*
D17*
X151887500Y-79800000D03*
X153462500Y-79800000D03*
D31*
X150720000Y-92762500D03*
X151680000Y-92762500D03*
D33*
X128749999Y-77614999D03*
X126849999Y-77614999D03*
X127799999Y-80234999D03*
D12*
X148375000Y-95977500D03*
X148375000Y-96997500D03*
D20*
X149649999Y-100449999D03*
X149649999Y-96299999D03*
X151799999Y-100449999D03*
X151799999Y-96324999D03*
D12*
X154700000Y-78125000D03*
X154700000Y-79145000D03*
D49*
X133925000Y-102499999D03*
X134575001Y-102499999D03*
X135225000Y-102499999D03*
X135875001Y-102499999D03*
X136524999Y-102499999D03*
X137175001Y-102499999D03*
X137824999Y-102499999D03*
X138475001Y-102499999D03*
X139124999Y-102499999D03*
X139775001Y-102499999D03*
X140424999Y-102499999D03*
X141075000Y-102499999D03*
X141724999Y-102499999D03*
X142375000Y-102499999D03*
X142375000Y-96599998D03*
X141724999Y-96599998D03*
X141075000Y-96599998D03*
X140424999Y-96599998D03*
X139775001Y-96599998D03*
X139124999Y-96599998D03*
X138475001Y-96599998D03*
X137824999Y-96599998D03*
X137175001Y-96599998D03*
X136524999Y-96599998D03*
X135875001Y-96599998D03*
X135225000Y-96599998D03*
X134575001Y-96599998D03*
X133925000Y-96599998D03*
D50*
X136150000Y-100550002D03*
X137150000Y-100550002D03*
X138150001Y-100550002D03*
X139150002Y-100550002D03*
X140150002Y-100550002D03*
X136150000Y-99550001D03*
X137150000Y-99550001D03*
X138150001Y-99550001D03*
D51*
X138150000Y-99550000D03*
D50*
X139150002Y-99550001D03*
X140150002Y-99550001D03*
X136150000Y-98550000D03*
X137150000Y-98550000D03*
X138150001Y-98550000D03*
X139150002Y-98550000D03*
X140150002Y-98550000D03*
D52*
X144500000Y-99925000D03*
X144500000Y-102875000D03*
D45*
X139725000Y-104287500D03*
X139725000Y-107212500D03*
D31*
X147520000Y-86812500D03*
X148480000Y-86812500D03*
D47*
X143300000Y-82720000D03*
X143300000Y-83680000D03*
D53*
X142712500Y-88800000D03*
X142712500Y-89200000D03*
X142712500Y-89600000D03*
X142712500Y-90000000D03*
X142712500Y-90400000D03*
X142712500Y-90800000D03*
X142712500Y-91200000D03*
X142712500Y-91600000D03*
X142712500Y-92000000D03*
X142712500Y-92400000D03*
X142712500Y-92800000D03*
X142712500Y-93200000D03*
X142712500Y-93600000D03*
X142712500Y-94000000D03*
D54*
X143550000Y-94837500D03*
X143950000Y-94837500D03*
X144350000Y-94837500D03*
X144750000Y-94837500D03*
X145150000Y-94837500D03*
X145550000Y-94837500D03*
X145950000Y-94837500D03*
X146350000Y-94837500D03*
X146750000Y-94837500D03*
X147150000Y-94837500D03*
X147550000Y-94837500D03*
X147950000Y-94837500D03*
X148350000Y-94837500D03*
X148750000Y-94837500D03*
D53*
X149587500Y-94000000D03*
X149587500Y-93600000D03*
X149587500Y-93200000D03*
X149587500Y-92800000D03*
X149587500Y-92400000D03*
X149587500Y-92000000D03*
X149587500Y-91600000D03*
X149587500Y-91200000D03*
X149587500Y-90800000D03*
X149587500Y-90400000D03*
X149587500Y-90000000D03*
X149587500Y-89600000D03*
X149587500Y-89200000D03*
X149587500Y-88800000D03*
D54*
X148750000Y-87962500D03*
X148350000Y-87962500D03*
X147950000Y-87962500D03*
X147550000Y-87962500D03*
X147150000Y-87962500D03*
X146750000Y-87962500D03*
X146350000Y-87962500D03*
X145950000Y-87962500D03*
X145550000Y-87962500D03*
X145150000Y-87962500D03*
X144750000Y-87962500D03*
X144350000Y-87962500D03*
X143950000Y-87962500D03*
X143550000Y-87962500D03*
D55*
X146149999Y-91399999D03*
D56*
X153600000Y-78075000D03*
X151500000Y-78075000D03*
D57*
X141862500Y-104875000D03*
X141862500Y-105525000D03*
X141862500Y-106175000D03*
X141862500Y-106825000D03*
X147587500Y-106825000D03*
X147587500Y-106175000D03*
X147587500Y-105525000D03*
X147587500Y-104875000D03*
D58*
X140682053Y-87482053D03*
X141367947Y-88167947D03*
D46*
X139500000Y-95035000D03*
X139500000Y-94015000D03*
M02*
