M48
; DRILL file {KiCad (7.0.0)} date Thu Mar 23 23:47:57 2023
; FORMAT={-:-/ absolute / metric / decimal}
; #@! TF.CreationDate,2023-03-23T23:47:57+08:00
; #@! TF.GenerationSoftware,Kicad,Pcbnew,(7.0.0)
; #@! TF.FileFunction,MixedPlating,1,4
FMAT,2
METRIC
; #@! TA.AperFunction,Plated,PTH,ViaDrill
T1C0.300
; #@! TA.AperFunction,Plated,PTH,ComponentDrill
T2C0.300
; #@! TA.AperFunction,Plated,PTH,ViaDrill
T3C0.400
; #@! TA.AperFunction,Plated,PTH,ViaDrill
T4C0.600
; #@! TA.AperFunction,Plated,PTH,ComponentDrill
T5C0.600
; #@! TA.AperFunction,Plated,PTH,ComponentDrill
T6C1.000
; #@! TA.AperFunction,Plated,PTH,ComponentDrill
T7C1.900
; #@! TA.AperFunction,NonPlated,NPTH,ComponentDrill
T8C0.650
%
G90
G05
T1
X120.625Y-88.95
X120.625Y-89.675
X120.625Y-90.4
X120.95Y-99.475
X121.025Y-97.775
X121.625Y-102.25
X121.85Y-93.1
X122.25Y-96.35
X122.625Y-93.1
X123.15Y-99.275
X123.35Y-93.1
X123.35Y-96.35
X124.625Y-93.125
X124.65Y-96.35
X124.85Y-102.275
X125.35Y-93.125
X125.8Y-96.35
X126.05Y-93.125
X126.55Y-95.8
X126.85Y-75.0
X126.975Y-103.025
X127.025Y-97.85
X127.25Y-89.0
X127.25Y-89.65
X127.25Y-90.35
X127.85Y-75.0
X128.925Y-75.0
X129.025Y-81.625
X129.025Y-82.3
X129.025Y-82.975
X129.125Y-106.9
X129.15Y-105.6
X129.2Y-107.625
X129.3Y-98.4
X129.925Y-75.0
X130.4Y-78.7
X130.525Y-83.075
X130.925Y-75.0
X131.125Y-101.975
X131.175Y-83.075
X131.25Y-78.175
X131.6Y-104.75
X131.825Y-83.075
X131.975Y-75.0
X132.75Y-107.375
X132.925Y-75.025
X133.925Y-95.45
X133.925Y-101.55
X133.975Y-75.025
X134.075Y-77.5
X134.1Y-76.1
X134.15Y-79.525
X134.175Y-81.125
X134.38Y-104.3
X134.575Y-99.575
X134.875Y-105.649
X135.25Y-82.225
X135.275Y-77.525
X135.275Y-79.55
X135.3Y-76.1
X135.375Y-75.025
X135.875Y-101.6
X136.075Y-81.425
X136.325Y-75.025
X136.325Y-83.25
X136.375Y-88.325
X136.575Y-106.375
X136.9Y-82.15
X137.175Y-101.625
X137.3Y-76.575
X137.35Y-75.025
X137.55Y-106.35
X137.8Y-80.425
X137.825Y-101.65
X138.025Y-78.925
X138.025Y-83.275
X138.075Y-82.175
X138.205Y-86.251
X138.225Y-91.125
X138.4Y-75.025
X138.45Y-106.3
X138.7Y-94.6
X138.8Y-77.075
X138.825Y-81.15
X139.121Y-97.458
X139.2Y-82.2
X139.5Y-75.05
X139.775Y-101.625
X140.4Y-77.575
X141.1Y-103.9
X141.189Y-77.859
X141.6Y-78.425
X141.675Y-98.25
X141.725Y-89.501
X141.75Y-72.325
X142.01Y-85.75
X142.163Y-94.812
X142.375Y-101.6
X142.928Y-94.753
X143.05Y-106.175
X143.075Y-105.175
X143.1Y-99.925
X143.223Y-86.358
X143.256Y-95.421
X143.3Y-82.125
X143.325Y-85.5
X143.375Y-68.65
X143.7Y-80.65
X143.725Y-74.9
X143.75Y-78.85
X143.925Y-95.625
X144.175Y-93.7
X145.175Y-93.725
X145.287Y-96.825
X145.325Y-75.875
X145.5Y-87.075
X145.8Y-85.8
X145.999Y-105.912
X146.3Y-76.3
X146.324Y-95.898
X146.35Y-75.05
X146.35Y-84.4
X146.45Y-98.175
X147.05Y-78.875
X147.05Y-90.4
X147.234Y-95.675
X147.275Y-75.425
X147.425Y-98.925
X147.525Y-86.2
X147.55Y-107.25
X147.95Y-83.25
X148.125Y-91.525
X149.25Y-85.6
X150.125Y-88.134
X150.625Y-87.6
X151.025Y-79.775
X151.8Y-97.075
X151.8Y-99.625
X152.2Y-92.8
X152.95Y-78.075
X153.025Y-84.05
X153.1Y-85.425
X153.225Y-93.95
X154.05Y-82.075
X154.8Y-98.075
X155.15Y-83.225
X155.2Y-97.15
X155.35Y-96.2
X155.575Y-81.525
X155.575Y-84.4
X155.7Y-95.225
X156.125Y-86.65
X159.761Y-83.616
T2
X136.15Y-98.55
X136.15Y-99.55
X136.15Y-100.55
X137.15Y-98.55
X137.15Y-99.55
X137.15Y-100.55
X138.15Y-98.55
X138.15Y-99.55
X138.15Y-100.55
X139.15Y-98.55
X139.15Y-99.55
X139.15Y-100.55
X140.15Y-98.55
X140.15Y-99.55
X140.15Y-100.55
T3
X132.55Y-104.3
T4
X123.9Y-80.475
T6
X120.8Y-84.7
X120.8Y-95.7
T7
X130.8Y-87.7
X130.8Y-92.7
T8
X142.999Y-74.629
X148.339Y-76.841
T5
G00X141.265Y-75.079
M15
G01X141.686Y-74.063
M16
G05
G00X142.96Y-70.987
M15
G01X143.19Y-70.432
M16
G05
G00X149.247Y-78.386
M15
G01X149.668Y-77.369
M16
G05
G00X150.942Y-74.293
M15
G01X151.172Y-73.739
M16
G05
T0
M30
