G04 #@! TF.GenerationSoftware,KiCad,Pcbnew,(7.0.0)*
G04 #@! TF.CreationDate,2023-03-23T23:46:18+08:00*
G04 #@! TF.ProjectId,ServoLess,53657276-6f4c-4657-9373-2e6b69636164,rev?*
G04 #@! TF.SameCoordinates,Original*
G04 #@! TF.FileFunction,Soldermask,Bot*
G04 #@! TF.FilePolarity,Negative*
%FSLAX46Y46*%
G04 Gerber Fmt 4.6, Leading zero omitted, Abs format (unit mm)*
G04 Created by KiCad (PCBNEW (7.0.0)) date 2023-03-23 23:46:18*
%MOMM*%
%LPD*%
G01*
G04 APERTURE LIST*
G04 Aperture macros list*
%AMRoundRect*
0 Rectangle with rounded corners*
0 $1 Rounding radius*
0 $2 $3 $4 $5 $6 $7 $8 $9 X,Y pos of 4 corners*
0 Add a 4 corners polygon primitive as box body*
4,1,4,$2,$3,$4,$5,$6,$7,$8,$9,$2,$3,0*
0 Add four circle primitives for the rounded corners*
1,1,$1+$1,$2,$3*
1,1,$1+$1,$4,$5*
1,1,$1+$1,$6,$7*
1,1,$1+$1,$8,$9*
0 Add four rect primitives between the rounded corners*
20,1,$1+$1,$2,$3,$4,$5,0*
20,1,$1+$1,$4,$5,$6,$7,0*
20,1,$1+$1,$6,$7,$8,$9,0*
20,1,$1+$1,$8,$9,$2,$3,0*%
%AMHorizOval*
0 Thick line with rounded ends*
0 $1 width*
0 $2 $3 position (X,Y) of the first rounded end (center of the circle)*
0 $4 $5 position (X,Y) of the second rounded end (center of the circle)*
0 Add line between two ends*
20,1,$1,$2,$3,$4,$5,0*
0 Add two circle primitives to create the rounded ends*
1,1,$1,$2,$3*
1,1,$1,$4,$5*%
%AMFreePoly0*
4,1,9,3.862500,-0.866500,0.737500,-0.866500,0.737500,-0.450000,-0.737500,-0.450000,-0.737500,0.450000,0.737500,0.450000,0.737500,0.866500,3.862500,0.866500,3.862500,-0.866500,3.862500,-0.866500,$1*%
G04 Aperture macros list end*
%ADD10C,0.650000*%
%ADD11HorizOval,1.000000X0.210476X0.508134X-0.210476X-0.508134X0*%
%ADD12HorizOval,1.000000X0.114805X0.277164X-0.114805X-0.277164X0*%
%ADD13C,1.400000*%
%ADD14R,3.500000X3.500000*%
%ADD15C,3.500000*%
%ADD16C,0.500000*%
%ADD17RoundRect,0.100000X-0.100000X0.637500X-0.100000X-0.637500X0.100000X-0.637500X0.100000X0.637500X0*%
%ADD18RoundRect,0.218750X0.218750X0.256250X-0.218750X0.256250X-0.218750X-0.256250X0.218750X-0.256250X0*%
%ADD19RoundRect,0.140000X-0.170000X0.140000X-0.170000X-0.140000X0.170000X-0.140000X0.170000X0.140000X0*%
%ADD20RoundRect,0.250000X-0.650000X0.325000X-0.650000X-0.325000X0.650000X-0.325000X0.650000X0.325000X0*%
%ADD21RoundRect,0.135000X0.185000X-0.135000X0.185000X0.135000X-0.185000X0.135000X-0.185000X-0.135000X0*%
%ADD22RoundRect,0.140000X0.170000X-0.140000X0.170000X0.140000X-0.170000X0.140000X-0.170000X-0.140000X0*%
%ADD23RoundRect,0.225000X-0.250000X0.225000X-0.250000X-0.225000X0.250000X-0.225000X0.250000X0.225000X0*%
%ADD24RoundRect,0.225000X0.250000X-0.225000X0.250000X0.225000X-0.250000X0.225000X-0.250000X-0.225000X0*%
%ADD25RoundRect,0.250000X0.325000X0.650000X-0.325000X0.650000X-0.325000X-0.650000X0.325000X-0.650000X0*%
%ADD26RoundRect,0.150000X-0.150000X-0.625000X0.150000X-0.625000X0.150000X0.625000X-0.150000X0.625000X0*%
%ADD27RoundRect,0.250000X-0.350000X-0.650000X0.350000X-0.650000X0.350000X0.650000X-0.350000X0.650000X0*%
%ADD28RoundRect,0.140000X0.140000X0.170000X-0.140000X0.170000X-0.140000X-0.170000X0.140000X-0.170000X0*%
%ADD29RoundRect,0.250000X-0.900000X1.000000X-0.900000X-1.000000X0.900000X-1.000000X0.900000X1.000000X0*%
%ADD30RoundRect,0.250000X0.475000X-0.250000X0.475000X0.250000X-0.475000X0.250000X-0.475000X-0.250000X0*%
%ADD31RoundRect,0.135000X0.119255X-0.195520X0.222580X0.053927X-0.119255X0.195520X-0.222580X-0.053927X0*%
%ADD32RoundRect,0.140000X-0.140000X-0.170000X0.140000X-0.170000X0.140000X0.170000X-0.140000X0.170000X0*%
%ADD33RoundRect,0.135000X-0.135000X-0.185000X0.135000X-0.185000X0.135000X0.185000X-0.135000X0.185000X0*%
%ADD34R,1.690599X0.532600*%
%ADD35R,1.500000X2.200000*%
%ADD36RoundRect,0.135000X-0.185000X0.135000X-0.185000X-0.135000X0.185000X-0.135000X0.185000X0.135000X0*%
%ADD37RoundRect,0.140000X0.103484X-0.194399X0.210635X0.064287X-0.103484X0.194399X-0.210635X-0.064287X0*%
%ADD38R,0.900000X1.300000*%
%ADD39FreePoly0,90.000000*%
%ADD40RoundRect,0.250000X0.650000X-0.325000X0.650000X0.325000X-0.650000X0.325000X-0.650000X-0.325000X0*%
%ADD41RoundRect,0.150000X-0.150000X0.512500X-0.150000X-0.512500X0.150000X-0.512500X0.150000X0.512500X0*%
G04 APERTURE END LIST*
D10*
X148339338Y-76840670D03*
X142999314Y-74628760D03*
D11*
X149457662Y-77877562D03*
D12*
X151057279Y-74015746D03*
D11*
X141475343Y-74571178D03*
D12*
X143074960Y-70709361D03*
D13*
X120800000Y-95700000D03*
X120800000Y-84700000D03*
D14*
X130799999Y-87699999D03*
D15*
X130800000Y-92700000D03*
D16*
X136150000Y-100550002D03*
X137150000Y-100550002D03*
X138150001Y-100550002D03*
X139150002Y-100550002D03*
X140150002Y-100550002D03*
X136150000Y-99550001D03*
X137150000Y-99550001D03*
X138150001Y-99550001D03*
X139150002Y-99550001D03*
X140150002Y-99550001D03*
X136150000Y-98550000D03*
X137150000Y-98550000D03*
X138150001Y-98550000D03*
X139150002Y-98550000D03*
X140150002Y-98550000D03*
D17*
X138250000Y-87437500D03*
X138900000Y-87437500D03*
X139550000Y-87437500D03*
X140200000Y-87437500D03*
X140850000Y-87437500D03*
X141500000Y-87437500D03*
X142150000Y-87437500D03*
X142150000Y-93162500D03*
X141500000Y-93162500D03*
X140850000Y-93162500D03*
X140200000Y-93162500D03*
X139550000Y-93162500D03*
X138900000Y-93162500D03*
X138250000Y-93162500D03*
D18*
X145287500Y-96825000D03*
X143712500Y-96825000D03*
D19*
X144050000Y-98045000D03*
X144050000Y-99005000D03*
D20*
X125200000Y-94325000D03*
X125200000Y-97275000D03*
D19*
X143450000Y-91570000D03*
X143450000Y-92530000D03*
X143100000Y-98045000D03*
X143100000Y-99005000D03*
D21*
X158800000Y-86260000D03*
X158800000Y-85240000D03*
D22*
X122250000Y-85080000D03*
X122250000Y-84120000D03*
D23*
X145250000Y-98300000D03*
X145250000Y-99850000D03*
D24*
X137300000Y-78925000D03*
X137300000Y-77375000D03*
D25*
X130475000Y-95900000D03*
X127525000Y-95900000D03*
D20*
X147150000Y-97050000D03*
X147150000Y-100000000D03*
D26*
X136550000Y-107450000D03*
X137550000Y-107450000D03*
X138550000Y-107450000D03*
D27*
X135250000Y-103575000D03*
X139850000Y-103575000D03*
D20*
X122800000Y-94325000D03*
X122800000Y-97275000D03*
D28*
X140280000Y-77075000D03*
X139320000Y-77075000D03*
D29*
X135200000Y-88350000D03*
X135200000Y-92650000D03*
D30*
X134050000Y-100600000D03*
X134050000Y-98700000D03*
D20*
X131300000Y-81725000D03*
X131300000Y-84675000D03*
D31*
X147579831Y-74821179D03*
X147970169Y-73878821D03*
D32*
X129620000Y-104300000D03*
X130580000Y-104300000D03*
D33*
X127690000Y-103300000D03*
X128710000Y-103300000D03*
D34*
X151996499Y-86654999D03*
X151996499Y-85384999D03*
X151996499Y-84114999D03*
X151996499Y-82844999D03*
X157203499Y-82844999D03*
X157203499Y-84114999D03*
X157203499Y-85384999D03*
X157203499Y-86654999D03*
D20*
X144150000Y-87325000D03*
X144150000Y-90275000D03*
D22*
X159750000Y-85280000D03*
X159750000Y-84320000D03*
D32*
X154070000Y-81500000D03*
X155030000Y-81500000D03*
D35*
X125699999Y-89599999D03*
X119299999Y-89599999D03*
D21*
X158800000Y-84360000D03*
X158800000Y-83340000D03*
D19*
X132950000Y-84120000D03*
X132950000Y-85080000D03*
D36*
X131600000Y-101290000D03*
X131600000Y-102310000D03*
D31*
X146679831Y-74421179D03*
X147070169Y-73478821D03*
D28*
X130130000Y-97600000D03*
X129170000Y-97600000D03*
D37*
X145791312Y-73993462D03*
X146158688Y-73106538D03*
X144891312Y-73643462D03*
X145258688Y-72756538D03*
D33*
X129590000Y-103300000D03*
X130610000Y-103300000D03*
D36*
X131600000Y-103190000D03*
X131600000Y-104210000D03*
D38*
X129099999Y-84599999D03*
D39*
X127600000Y-84512500D03*
D38*
X126099999Y-84599999D03*
D22*
X127000000Y-102280000D03*
X127000000Y-101320000D03*
D36*
X131600000Y-99290000D03*
X131600000Y-100310000D03*
D40*
X123900000Y-84675000D03*
X123900000Y-81725000D03*
D41*
X128350000Y-99562500D03*
X129300000Y-99562500D03*
X130250000Y-99562500D03*
X130250000Y-101837500D03*
X129300000Y-101837500D03*
X128350000Y-101837500D03*
M02*
