G04 #@! TF.GenerationSoftware,KiCad,Pcbnew,(7.0.0)*
G04 #@! TF.CreationDate,2023-05-14T21:45:47+08:00*
G04 #@! TF.ProjectId,ServoLess,53657276-6f4c-4657-9373-2e6b69636164,V2.0*
G04 #@! TF.SameCoordinates,Original*
G04 #@! TF.FileFunction,Soldermask,Bot*
G04 #@! TF.FilePolarity,Negative*
%FSLAX46Y46*%
G04 Gerber Fmt 4.6, Leading zero omitted, Abs format (unit mm)*
G04 Created by KiCad (PCBNEW (7.0.0)) date 2023-05-14 21:45:47*
%MOMM*%
%LPD*%
G01*
G04 APERTURE LIST*
G04 Aperture macros list*
%AMRoundRect*
0 Rectangle with rounded corners*
0 $1 Rounding radius*
0 $2 $3 $4 $5 $6 $7 $8 $9 X,Y pos of 4 corners*
0 Add a 4 corners polygon primitive as box body*
4,1,4,$2,$3,$4,$5,$6,$7,$8,$9,$2,$3,0*
0 Add four circle primitives for the rounded corners*
1,1,$1+$1,$2,$3*
1,1,$1+$1,$4,$5*
1,1,$1+$1,$6,$7*
1,1,$1+$1,$8,$9*
0 Add four rect primitives between the rounded corners*
20,1,$1+$1,$2,$3,$4,$5,0*
20,1,$1+$1,$4,$5,$6,$7,0*
20,1,$1+$1,$6,$7,$8,$9,0*
20,1,$1+$1,$8,$9,$2,$3,0*%
%AMHorizOval*
0 Thick line with rounded ends*
0 $1 width*
0 $2 $3 position (X,Y) of the first rounded end (center of the circle)*
0 $4 $5 position (X,Y) of the second rounded end (center of the circle)*
0 Add line between two ends*
20,1,$1,$2,$3,$4,$5,0*
0 Add two circle primitives to create the rounded ends*
1,1,$1,$2,$3*
1,1,$1,$4,$5*%
%AMFreePoly0*
4,1,9,3.862500,-0.866500,0.737500,-0.866500,0.737500,-0.450000,-0.737500,-0.450000,-0.737500,0.450000,0.737500,0.450000,0.737500,0.866500,3.862500,0.866500,3.862500,-0.866500,3.862500,-0.866500,$1*%
G04 Aperture macros list end*
%ADD10RoundRect,0.050000X-0.387500X-0.050000X0.387500X-0.050000X0.387500X0.050000X-0.387500X0.050000X0*%
%ADD11RoundRect,0.050000X-0.050000X-0.387500X0.050000X-0.387500X0.050000X0.387500X-0.050000X0.387500X0*%
%ADD12R,5.600000X5.600000*%
%ADD13C,0.650000*%
%ADD14HorizOval,1.000000X0.508134X0.210476X-0.508134X-0.210476X0*%
%ADD15HorizOval,1.000000X0.277164X0.114805X-0.277164X-0.114805X0*%
%ADD16C,1.400000*%
%ADD17R,3.500000X3.500000*%
%ADD18C,3.500000*%
%ADD19RoundRect,0.147500X0.172500X-0.147500X0.172500X0.147500X-0.172500X0.147500X-0.172500X-0.147500X0*%
%ADD20RoundRect,0.100000X-0.100000X0.637500X-0.100000X-0.637500X0.100000X-0.637500X0.100000X0.637500X0*%
%ADD21RoundRect,0.218750X-0.218750X-0.256250X0.218750X-0.256250X0.218750X0.256250X-0.218750X0.256250X0*%
%ADD22RoundRect,0.140000X0.140000X0.170000X-0.140000X0.170000X-0.140000X-0.170000X0.140000X-0.170000X0*%
%ADD23RoundRect,0.250000X-0.325000X-0.650000X0.325000X-0.650000X0.325000X0.650000X-0.325000X0.650000X0*%
%ADD24RoundRect,0.140000X-0.170000X0.140000X-0.170000X-0.140000X0.170000X-0.140000X0.170000X0.140000X0*%
%ADD25R,1.400000X1.200000*%
%ADD26RoundRect,0.135000X0.135000X0.185000X-0.135000X0.185000X-0.135000X-0.185000X0.135000X-0.185000X0*%
%ADD27RoundRect,0.140000X0.170000X-0.140000X0.170000X0.140000X-0.170000X0.140000X-0.170000X-0.140000X0*%
%ADD28RoundRect,0.225000X-0.225000X-0.250000X0.225000X-0.250000X0.225000X0.250000X-0.225000X0.250000X0*%
%ADD29RoundRect,0.250000X0.325000X0.650000X-0.325000X0.650000X-0.325000X-0.650000X0.325000X-0.650000X0*%
%ADD30RoundRect,0.225000X-0.250000X0.225000X-0.250000X-0.225000X0.250000X-0.225000X0.250000X0.225000X0*%
%ADD31RoundRect,0.140000X-0.140000X-0.170000X0.140000X-0.170000X0.140000X0.170000X-0.140000X0.170000X0*%
%ADD32RoundRect,0.150000X-0.150000X-0.625000X0.150000X-0.625000X0.150000X0.625000X-0.150000X0.625000X0*%
%ADD33RoundRect,0.250000X-0.350000X-0.650000X0.350000X-0.650000X0.350000X0.650000X-0.350000X0.650000X0*%
%ADD34RoundRect,0.147500X0.147500X0.172500X-0.147500X0.172500X-0.147500X-0.172500X0.147500X-0.172500X0*%
%ADD35RoundRect,0.250000X-0.650000X0.325000X-0.650000X-0.325000X0.650000X-0.325000X0.650000X0.325000X0*%
%ADD36RoundRect,0.135000X-0.053927X-0.222580X0.195520X-0.119255X0.053927X0.222580X-0.195520X0.119255X0*%
%ADD37RoundRect,0.135000X-0.135000X-0.185000X0.135000X-0.185000X0.135000X0.185000X-0.135000X0.185000X0*%
%ADD38RoundRect,0.250000X-0.250000X0.850000X-0.250000X-0.850000X0.250000X-0.850000X0.250000X0.850000X0*%
%ADD39R,1.500000X2.200000*%
%ADD40RoundRect,0.140000X-0.064287X-0.210635X0.194399X-0.103484X0.064287X0.210635X-0.194399X0.103484X0*%
%ADD41R,0.900000X1.300000*%
%ADD42FreePoly0,90.000000*%
%ADD43RoundRect,0.135000X-0.185000X0.135000X-0.185000X-0.135000X0.185000X-0.135000X0.185000X0.135000X0*%
%ADD44RoundRect,0.250000X0.650000X-0.325000X0.650000X0.325000X-0.650000X0.325000X-0.650000X-0.325000X0*%
%ADD45RoundRect,0.150000X-0.150000X0.512500X-0.150000X-0.512500X0.150000X-0.512500X0.150000X0.512500X0*%
%ADD46RoundRect,0.147500X0.017678X-0.226274X0.226274X-0.017678X-0.017678X0.226274X-0.226274X0.017678X0*%
G04 APERTURE END LIST*
D10*
X147050000Y-95925000D03*
X147050000Y-95525000D03*
X147050000Y-95125000D03*
X147050000Y-94725000D03*
X147050000Y-94325000D03*
X147050000Y-93925000D03*
X147050000Y-93525000D03*
X147050000Y-93125000D03*
X147050000Y-92725000D03*
X147050000Y-92325000D03*
X147050000Y-91925000D03*
X147050000Y-91525000D03*
X147050000Y-91125000D03*
X147050000Y-90725000D03*
D11*
X147887500Y-89887500D03*
X148287500Y-89887500D03*
X148687500Y-89887500D03*
X149087500Y-89887500D03*
X149487500Y-89887500D03*
X149887500Y-89887500D03*
X150287500Y-89887500D03*
X150687500Y-89887500D03*
X151087500Y-89887500D03*
X151487500Y-89887500D03*
X151887500Y-89887500D03*
X152287500Y-89887500D03*
X152687500Y-89887500D03*
X153087500Y-89887500D03*
D10*
X153925000Y-90725000D03*
X153925000Y-91125000D03*
X153925000Y-91525000D03*
X153925000Y-91925000D03*
X153925000Y-92325000D03*
X153925000Y-92725000D03*
X153925000Y-93125000D03*
X153925000Y-93525000D03*
X153925000Y-93925000D03*
X153925000Y-94325000D03*
X153925000Y-94725000D03*
X153925000Y-95125000D03*
X153925000Y-95525000D03*
X153925000Y-95925000D03*
D11*
X153087500Y-96762500D03*
X152687500Y-96762500D03*
X152287500Y-96762500D03*
X151887500Y-96762500D03*
X151487500Y-96762500D03*
X151087500Y-96762500D03*
X150687500Y-96762500D03*
X150287500Y-96762500D03*
X149887500Y-96762500D03*
X149487500Y-96762500D03*
X149087500Y-96762500D03*
X148687500Y-96762500D03*
X148287500Y-96762500D03*
X147887500Y-96762500D03*
D12*
X150487499Y-93324999D03*
D13*
X155943868Y-86629989D03*
X153731958Y-81289965D03*
D14*
X156001448Y-88153958D03*
D15*
X159863265Y-86554341D03*
D14*
X152695064Y-80171639D03*
D15*
X156556880Y-78572022D03*
D16*
X120715000Y-95695000D03*
X120715000Y-84695000D03*
D17*
X130714999Y-87694999D03*
D18*
X130715000Y-92695000D03*
D19*
X149070000Y-99650000D03*
X149070000Y-98680000D03*
D20*
X138250000Y-87437500D03*
X138900000Y-87437500D03*
X139550000Y-87437500D03*
X140200000Y-87437500D03*
X140850000Y-87437500D03*
X141500000Y-87437500D03*
X142150000Y-87437500D03*
X142150000Y-93162500D03*
X141500000Y-93162500D03*
X140850000Y-93162500D03*
X140200000Y-93162500D03*
X139550000Y-93162500D03*
X138900000Y-93162500D03*
X138250000Y-93162500D03*
D21*
X141587500Y-95700000D03*
X143162500Y-95700000D03*
D22*
X140430000Y-97475000D03*
X139470000Y-97475000D03*
D23*
X121575000Y-97875000D03*
X124525000Y-97875000D03*
D24*
X143425000Y-93105000D03*
X143425000Y-92145000D03*
X144320000Y-95555000D03*
X144320000Y-96515000D03*
D25*
X150579999Y-99084999D03*
X152779999Y-99084999D03*
X152779999Y-100784999D03*
X150579999Y-100784999D03*
D26*
X145335000Y-93825000D03*
X144315000Y-93825000D03*
D27*
X139525000Y-83930000D03*
X139525000Y-82970000D03*
D28*
X141575000Y-97200000D03*
X143125000Y-97200000D03*
D29*
X129300000Y-95750000D03*
X126350000Y-95750000D03*
D24*
X154270000Y-100245000D03*
X154270000Y-101205000D03*
D30*
X147830000Y-98950000D03*
X147830000Y-100500000D03*
D27*
X147050000Y-86120000D03*
X147050000Y-87080000D03*
D29*
X140025000Y-95825000D03*
X137075000Y-95825000D03*
D31*
X144700000Y-101730000D03*
X145660000Y-101730000D03*
D32*
X139350000Y-106875000D03*
X140350000Y-106875000D03*
X141350000Y-106875000D03*
D33*
X138050000Y-103000000D03*
X142650000Y-103000000D03*
D34*
X145665000Y-102700000D03*
X144695000Y-102700000D03*
D23*
X121575000Y-100200000D03*
X124525000Y-100200000D03*
D24*
X146630000Y-98665000D03*
X146630000Y-99625000D03*
D19*
X144700000Y-100785000D03*
X144700000Y-99815000D03*
D27*
X148300000Y-86120000D03*
X148300000Y-87080000D03*
D35*
X148525000Y-81450000D03*
X148525000Y-84400000D03*
D36*
X155888821Y-85080169D03*
X156831179Y-84689831D03*
D31*
X146580000Y-102700000D03*
X147540000Y-102700000D03*
X128495000Y-102475000D03*
X129455000Y-102475000D03*
D37*
X126590000Y-101550000D03*
X127610000Y-101550000D03*
D38*
X144870000Y-109185000D03*
X149870000Y-109185000D03*
D27*
X149875000Y-88755000D03*
X149875000Y-87795000D03*
D35*
X136240000Y-88690000D03*
X136240000Y-91640000D03*
D39*
X127599999Y-90674999D03*
X121199999Y-90674999D03*
D22*
X144700000Y-98880000D03*
X143740000Y-98880000D03*
D28*
X156025000Y-91435000D03*
X157575000Y-91435000D03*
D24*
X150150000Y-83070000D03*
X150150000Y-84030000D03*
D31*
X155750000Y-90205000D03*
X156710000Y-90205000D03*
D37*
X130340000Y-100550000D03*
X131360000Y-100550000D03*
D36*
X155508821Y-84160169D03*
X156451179Y-83769831D03*
D31*
X130595000Y-96450000D03*
X131555000Y-96450000D03*
D40*
X155166538Y-83268688D03*
X156053462Y-82901312D03*
X154796538Y-82378688D03*
X155683462Y-82011312D03*
D37*
X128465000Y-101525000D03*
X129485000Y-101525000D03*
D31*
X155070000Y-96975000D03*
X156030000Y-96975000D03*
D27*
X149080000Y-101525000D03*
X149080000Y-100565000D03*
D37*
X130340000Y-101500000D03*
X131360000Y-101500000D03*
D41*
X146349999Y-84314999D03*
D42*
X144850000Y-84227500D03*
D41*
X143349999Y-84314999D03*
D27*
X125975000Y-100255000D03*
X125975000Y-99295000D03*
D43*
X130400000Y-98215000D03*
X130400000Y-99235000D03*
D44*
X141150000Y-84250000D03*
X141150000Y-81300000D03*
D45*
X127225000Y-97837500D03*
X128175000Y-97837500D03*
X129125000Y-97837500D03*
X129125000Y-100112500D03*
X128175000Y-100112500D03*
X127225000Y-100112500D03*
D46*
X144707053Y-97742947D03*
X145392947Y-97057053D03*
M02*
