G04 #@! TF.GenerationSoftware,KiCad,Pcbnew,(7.0.0)*
G04 #@! TF.CreationDate,2023-05-14T21:45:47+08:00*
G04 #@! TF.ProjectId,ServoLess,53657276-6f4c-4657-9373-2e6b69636164,V2.0*
G04 #@! TF.SameCoordinates,Original*
G04 #@! TF.FileFunction,Legend,Bot*
G04 #@! TF.FilePolarity,Positive*
%FSLAX46Y46*%
G04 Gerber Fmt 4.6, Leading zero omitted, Abs format (unit mm)*
G04 Created by KiCad (PCBNEW (7.0.0)) date 2023-05-14 21:45:47*
%MOMM*%
%LPD*%
G01*
G04 APERTURE LIST*
G04 Aperture macros list*
%AMRoundRect*
0 Rectangle with rounded corners*
0 $1 Rounding radius*
0 $2 $3 $4 $5 $6 $7 $8 $9 X,Y pos of 4 corners*
0 Add a 4 corners polygon primitive as box body*
4,1,4,$2,$3,$4,$5,$6,$7,$8,$9,$2,$3,0*
0 Add four circle primitives for the rounded corners*
1,1,$1+$1,$2,$3*
1,1,$1+$1,$4,$5*
1,1,$1+$1,$6,$7*
1,1,$1+$1,$8,$9*
0 Add four rect primitives between the rounded corners*
20,1,$1+$1,$2,$3,$4,$5,0*
20,1,$1+$1,$4,$5,$6,$7,0*
20,1,$1+$1,$6,$7,$8,$9,0*
20,1,$1+$1,$8,$9,$2,$3,0*%
%AMHorizOval*
0 Thick line with rounded ends*
0 $1 width*
0 $2 $3 position (X,Y) of the first rounded end (center of the circle)*
0 $4 $5 position (X,Y) of the second rounded end (center of the circle)*
0 Add line between two ends*
20,1,$1,$2,$3,$4,$5,0*
0 Add two circle primitives to create the rounded ends*
1,1,$1,$2,$3*
1,1,$1,$4,$5*%
%AMFreePoly0*
4,1,9,3.862500,-0.866500,0.737500,-0.866500,0.737500,-0.450000,-0.737500,-0.450000,-0.737500,0.450000,0.737500,0.450000,0.737500,0.866500,3.862500,0.866500,3.862500,-0.866500,3.862500,-0.866500,$1*%
G04 Aperture macros list end*
%ADD10C,0.160000*%
%ADD11C,0.120000*%
%ADD12C,0.280000*%
%ADD13RoundRect,0.050000X-0.387500X-0.050000X0.387500X-0.050000X0.387500X0.050000X-0.387500X0.050000X0*%
%ADD14RoundRect,0.050000X-0.050000X-0.387500X0.050000X-0.387500X0.050000X0.387500X-0.050000X0.387500X0*%
%ADD15R,5.600000X5.600000*%
%ADD16C,0.650000*%
%ADD17HorizOval,1.000000X0.508134X0.210476X-0.508134X-0.210476X0*%
%ADD18HorizOval,1.000000X0.277164X0.114805X-0.277164X-0.114805X0*%
%ADD19C,1.400000*%
%ADD20R,3.500000X3.500000*%
%ADD21C,3.500000*%
%ADD22RoundRect,0.147500X0.172500X-0.147500X0.172500X0.147500X-0.172500X0.147500X-0.172500X-0.147500X0*%
%ADD23RoundRect,0.100000X-0.100000X0.637500X-0.100000X-0.637500X0.100000X-0.637500X0.100000X0.637500X0*%
%ADD24RoundRect,0.218750X-0.218750X-0.256250X0.218750X-0.256250X0.218750X0.256250X-0.218750X0.256250X0*%
%ADD25RoundRect,0.140000X0.140000X0.170000X-0.140000X0.170000X-0.140000X-0.170000X0.140000X-0.170000X0*%
%ADD26RoundRect,0.250000X-0.325000X-0.650000X0.325000X-0.650000X0.325000X0.650000X-0.325000X0.650000X0*%
%ADD27RoundRect,0.140000X-0.170000X0.140000X-0.170000X-0.140000X0.170000X-0.140000X0.170000X0.140000X0*%
%ADD28R,1.400000X1.200000*%
%ADD29RoundRect,0.135000X0.135000X0.185000X-0.135000X0.185000X-0.135000X-0.185000X0.135000X-0.185000X0*%
%ADD30RoundRect,0.140000X0.170000X-0.140000X0.170000X0.140000X-0.170000X0.140000X-0.170000X-0.140000X0*%
%ADD31RoundRect,0.225000X-0.225000X-0.250000X0.225000X-0.250000X0.225000X0.250000X-0.225000X0.250000X0*%
%ADD32RoundRect,0.250000X0.325000X0.650000X-0.325000X0.650000X-0.325000X-0.650000X0.325000X-0.650000X0*%
%ADD33RoundRect,0.225000X-0.250000X0.225000X-0.250000X-0.225000X0.250000X-0.225000X0.250000X0.225000X0*%
%ADD34RoundRect,0.140000X-0.140000X-0.170000X0.140000X-0.170000X0.140000X0.170000X-0.140000X0.170000X0*%
%ADD35RoundRect,0.150000X-0.150000X-0.625000X0.150000X-0.625000X0.150000X0.625000X-0.150000X0.625000X0*%
%ADD36RoundRect,0.250000X-0.350000X-0.650000X0.350000X-0.650000X0.350000X0.650000X-0.350000X0.650000X0*%
%ADD37RoundRect,0.147500X0.147500X0.172500X-0.147500X0.172500X-0.147500X-0.172500X0.147500X-0.172500X0*%
%ADD38RoundRect,0.250000X-0.650000X0.325000X-0.650000X-0.325000X0.650000X-0.325000X0.650000X0.325000X0*%
%ADD39RoundRect,0.135000X-0.053927X-0.222580X0.195520X-0.119255X0.053927X0.222580X-0.195520X0.119255X0*%
%ADD40RoundRect,0.135000X-0.135000X-0.185000X0.135000X-0.185000X0.135000X0.185000X-0.135000X0.185000X0*%
%ADD41RoundRect,0.250000X-0.250000X0.850000X-0.250000X-0.850000X0.250000X-0.850000X0.250000X0.850000X0*%
%ADD42R,1.500000X2.200000*%
%ADD43RoundRect,0.140000X-0.064287X-0.210635X0.194399X-0.103484X0.064287X0.210635X-0.194399X0.103484X0*%
%ADD44R,0.900000X1.300000*%
%ADD45FreePoly0,90.000000*%
%ADD46RoundRect,0.135000X-0.185000X0.135000X-0.185000X-0.135000X0.185000X-0.135000X0.185000X0.135000X0*%
%ADD47RoundRect,0.250000X0.650000X-0.325000X0.650000X0.325000X-0.650000X0.325000X-0.650000X-0.325000X0*%
%ADD48RoundRect,0.150000X-0.150000X0.512500X-0.150000X-0.512500X0.150000X-0.512500X0.150000X0.512500X0*%
%ADD49RoundRect,0.147500X0.017678X-0.226274X0.226274X-0.017678X-0.017678X0.226274X-0.226274X0.017678X0*%
G04 APERTURE END LIST*
D10*
G36*
X156223148Y-95589244D02*
G01*
X154639209Y-95589244D01*
X154639209Y-94259549D01*
X155006000Y-94259549D01*
X155006000Y-94447128D01*
X155521840Y-94447128D01*
X155530922Y-94447111D01*
X155540290Y-94447061D01*
X155549943Y-94446977D01*
X155559881Y-94446859D01*
X155570105Y-94446708D01*
X155580614Y-94446523D01*
X155591409Y-94446305D01*
X155602489Y-94446053D01*
X155613855Y-94445768D01*
X155625506Y-94445449D01*
X155637443Y-94445096D01*
X155649665Y-94444710D01*
X155662172Y-94444290D01*
X155674965Y-94443837D01*
X155688044Y-94443350D01*
X155701408Y-94442829D01*
X155701408Y-94447128D01*
X155691387Y-94449178D01*
X155681792Y-94451176D01*
X155672623Y-94453123D01*
X155663880Y-94455017D01*
X155655563Y-94456859D01*
X155647671Y-94458650D01*
X155636633Y-94461239D01*
X155626553Y-94463710D01*
X155617431Y-94466066D01*
X155609267Y-94468304D01*
X155599873Y-94471106D01*
X155592182Y-94473702D01*
X155006000Y-94684727D01*
X155006000Y-94834790D01*
X155586711Y-95045621D01*
X155595024Y-95048283D01*
X155604237Y-95050819D01*
X155612641Y-95052957D01*
X155622326Y-95055298D01*
X155633292Y-95057841D01*
X155641315Y-95059649D01*
X155649907Y-95061547D01*
X155659068Y-95063536D01*
X155668799Y-95065614D01*
X155679099Y-95067783D01*
X155689969Y-95070041D01*
X155701408Y-95072390D01*
X155701408Y-95077274D01*
X155688022Y-95076683D01*
X155674633Y-95076130D01*
X155661240Y-95075614D01*
X155647845Y-95075137D01*
X155634447Y-95074698D01*
X155621046Y-95074298D01*
X155607641Y-95073935D01*
X155594234Y-95073611D01*
X155580824Y-95073325D01*
X155567410Y-95073077D01*
X155553993Y-95072867D01*
X155540574Y-95072695D01*
X155527151Y-95072561D01*
X155513725Y-95072466D01*
X155500297Y-95072409D01*
X155486865Y-95072390D01*
X155006000Y-95072390D01*
X155006000Y-95234958D01*
X155856355Y-95234958D01*
X155856355Y-94972348D01*
X155342468Y-94786137D01*
X155334560Y-94783265D01*
X155326709Y-94780510D01*
X155318916Y-94777873D01*
X155311181Y-94775354D01*
X155303504Y-94772952D01*
X155295885Y-94770667D01*
X155288324Y-94768500D01*
X155277092Y-94765470D01*
X155265990Y-94762705D01*
X155255018Y-94760204D01*
X155244177Y-94757967D01*
X155233467Y-94755995D01*
X155222887Y-94754288D01*
X155222887Y-94750380D01*
X155231533Y-94748153D01*
X155240033Y-94745919D01*
X155248386Y-94743678D01*
X155256593Y-94741428D01*
X155264653Y-94739171D01*
X155272566Y-94736907D01*
X155280333Y-94734635D01*
X155287953Y-94732355D01*
X155295427Y-94730067D01*
X155306363Y-94726622D01*
X155316969Y-94723159D01*
X155327246Y-94719679D01*
X155337193Y-94716182D01*
X155343641Y-94713841D01*
X155856355Y-94522159D01*
X155856355Y-94259549D01*
X155006000Y-94259549D01*
X154639209Y-94259549D01*
X154639209Y-93714009D01*
X154993494Y-93714009D01*
X154993606Y-93725996D01*
X154993942Y-93737828D01*
X154994501Y-93749505D01*
X154995283Y-93761025D01*
X154996290Y-93772390D01*
X154997520Y-93783599D01*
X154998973Y-93794653D01*
X155000651Y-93805551D01*
X155002551Y-93816293D01*
X155004676Y-93826879D01*
X155007024Y-93837310D01*
X155009596Y-93847585D01*
X155012391Y-93857704D01*
X155015410Y-93867668D01*
X155018653Y-93877476D01*
X155022120Y-93887128D01*
X155025810Y-93896624D01*
X155029723Y-93905965D01*
X155033860Y-93915150D01*
X155038221Y-93924180D01*
X155042806Y-93933053D01*
X155047614Y-93941771D01*
X155052646Y-93950333D01*
X155057901Y-93958740D01*
X155063380Y-93966991D01*
X155069083Y-93975086D01*
X155075009Y-93983025D01*
X155081159Y-93990809D01*
X155087533Y-93998437D01*
X155094130Y-94005909D01*
X155100951Y-94013226D01*
X155107995Y-94020387D01*
X155115226Y-94027359D01*
X155122606Y-94034110D01*
X155130134Y-94040640D01*
X155137811Y-94046948D01*
X155145637Y-94053035D01*
X155153612Y-94058901D01*
X155161736Y-94064545D01*
X155170009Y-94069968D01*
X155178430Y-94075170D01*
X155187000Y-94080150D01*
X155195719Y-94084909D01*
X155204587Y-94089446D01*
X155213604Y-94093763D01*
X155222770Y-94097858D01*
X155232084Y-94101731D01*
X155241547Y-94105383D01*
X155251159Y-94108814D01*
X155260920Y-94112024D01*
X155270830Y-94115012D01*
X155280889Y-94117779D01*
X155291096Y-94120324D01*
X155301452Y-94122648D01*
X155311958Y-94124751D01*
X155322612Y-94126632D01*
X155333414Y-94128293D01*
X155344366Y-94129731D01*
X155355466Y-94130949D01*
X155366716Y-94131945D01*
X155378114Y-94132719D01*
X155389661Y-94133273D01*
X155401357Y-94133605D01*
X155413201Y-94133715D01*
X155425660Y-94133592D01*
X155437976Y-94133222D01*
X155450150Y-94132604D01*
X155462181Y-94131740D01*
X155474070Y-94130629D01*
X155485817Y-94129271D01*
X155497421Y-94127666D01*
X155508883Y-94125814D01*
X155520203Y-94123715D01*
X155531380Y-94121370D01*
X155542415Y-94118777D01*
X155553308Y-94115938D01*
X155564058Y-94112851D01*
X155574666Y-94109518D01*
X155585132Y-94105938D01*
X155595455Y-94102110D01*
X155605636Y-94098036D01*
X155615675Y-94093715D01*
X155625571Y-94089147D01*
X155635325Y-94084333D01*
X155644936Y-94079271D01*
X155654405Y-94073962D01*
X155663732Y-94068407D01*
X155672917Y-94062604D01*
X155681959Y-94056555D01*
X155690859Y-94050258D01*
X155699616Y-94043715D01*
X155708231Y-94036925D01*
X155716704Y-94029888D01*
X155725034Y-94022604D01*
X155733222Y-94015073D01*
X155741268Y-94007295D01*
X155749118Y-93999310D01*
X155756719Y-93991181D01*
X155764070Y-93982908D01*
X155771173Y-93974491D01*
X155778026Y-93965930D01*
X155784630Y-93957225D01*
X155790984Y-93948376D01*
X155797090Y-93939384D01*
X155802946Y-93930247D01*
X155808553Y-93920967D01*
X155813911Y-93911543D01*
X155819020Y-93901975D01*
X155823879Y-93892263D01*
X155828490Y-93882407D01*
X155832851Y-93872408D01*
X155836963Y-93862264D01*
X155840825Y-93851977D01*
X155844439Y-93841545D01*
X155847803Y-93830970D01*
X155850918Y-93820251D01*
X155853784Y-93809388D01*
X155856400Y-93798382D01*
X155858768Y-93787231D01*
X155860886Y-93775936D01*
X155862755Y-93764498D01*
X155864375Y-93752916D01*
X155865746Y-93741190D01*
X155866867Y-93729320D01*
X155867739Y-93717306D01*
X155868362Y-93705148D01*
X155868736Y-93692846D01*
X155868861Y-93680401D01*
X155868735Y-93664928D01*
X155868357Y-93649773D01*
X155867727Y-93634935D01*
X155866846Y-93620415D01*
X155865712Y-93606212D01*
X155864327Y-93592327D01*
X155862690Y-93578759D01*
X155860801Y-93565509D01*
X155858660Y-93552576D01*
X155856267Y-93539961D01*
X155853622Y-93527663D01*
X155850726Y-93515683D01*
X155847577Y-93504021D01*
X155844177Y-93492676D01*
X155840525Y-93481648D01*
X155836621Y-93470938D01*
X155661743Y-93470938D01*
X155667800Y-93481947D01*
X155673466Y-93493137D01*
X155678742Y-93504509D01*
X155683627Y-93516062D01*
X155688121Y-93527797D01*
X155692224Y-93539714D01*
X155695937Y-93551812D01*
X155699258Y-93564092D01*
X155702189Y-93576554D01*
X155704729Y-93589197D01*
X155706879Y-93602022D01*
X155708637Y-93615029D01*
X155710005Y-93628218D01*
X155710982Y-93641588D01*
X155711568Y-93655139D01*
X155711764Y-93668872D01*
X155711686Y-93676700D01*
X155711068Y-93692060D01*
X155709832Y-93707026D01*
X155707977Y-93721598D01*
X155705504Y-93735776D01*
X155702413Y-93749561D01*
X155698703Y-93762951D01*
X155694376Y-93775948D01*
X155689430Y-93788551D01*
X155683866Y-93800760D01*
X155677683Y-93812575D01*
X155670883Y-93823997D01*
X155663464Y-93835024D01*
X155655427Y-93845658D01*
X155646771Y-93855898D01*
X155637498Y-93865744D01*
X155632629Y-93870519D01*
X155622572Y-93879676D01*
X155612137Y-93888242D01*
X155601323Y-93896218D01*
X155590131Y-93903602D01*
X155578560Y-93910396D01*
X155566610Y-93916599D01*
X155554282Y-93922211D01*
X155541575Y-93927233D01*
X155528490Y-93931663D01*
X155515026Y-93935503D01*
X155501184Y-93938752D01*
X155486963Y-93941411D01*
X155472363Y-93943479D01*
X155457385Y-93944955D01*
X155442028Y-93945842D01*
X155434208Y-93946063D01*
X155426293Y-93946137D01*
X155410948Y-93945857D01*
X155395982Y-93945017D01*
X155381395Y-93943616D01*
X155367186Y-93941655D01*
X155353356Y-93939134D01*
X155339904Y-93936053D01*
X155326831Y-93932411D01*
X155314136Y-93928210D01*
X155301820Y-93923448D01*
X155289883Y-93918125D01*
X155278324Y-93912243D01*
X155267144Y-93905800D01*
X155256342Y-93898797D01*
X155245919Y-93891234D01*
X155235875Y-93883111D01*
X155226209Y-93874427D01*
X155217052Y-93865266D01*
X155208486Y-93855709D01*
X155200511Y-93845757D01*
X155193126Y-93835409D01*
X155186332Y-93824667D01*
X155180129Y-93813528D01*
X155174517Y-93801995D01*
X155169496Y-93790066D01*
X155165065Y-93777741D01*
X155161225Y-93765022D01*
X155157976Y-93751907D01*
X155155317Y-93738396D01*
X155153250Y-93724490D01*
X155151773Y-93710189D01*
X155150887Y-93695493D01*
X155150591Y-93680401D01*
X155150787Y-93666119D01*
X155151373Y-93651995D01*
X155152350Y-93638031D01*
X155153718Y-93624225D01*
X155155476Y-93610578D01*
X155157625Y-93597090D01*
X155160166Y-93583760D01*
X155163096Y-93570589D01*
X155166418Y-93557577D01*
X155170131Y-93544724D01*
X155174234Y-93532029D01*
X155178728Y-93519494D01*
X155183613Y-93507117D01*
X155188889Y-93494898D01*
X155194555Y-93482839D01*
X155200612Y-93470938D01*
X155038044Y-93470938D01*
X155032649Y-93482810D01*
X155027603Y-93495124D01*
X155022904Y-93507881D01*
X155018554Y-93521081D01*
X155014551Y-93534724D01*
X155010897Y-93548809D01*
X155007590Y-93563337D01*
X155004632Y-93578307D01*
X155002021Y-93593720D01*
X155000847Y-93601593D01*
X154999759Y-93609576D01*
X154998758Y-93617670D01*
X154997845Y-93625875D01*
X154997018Y-93634190D01*
X154996279Y-93642616D01*
X154995626Y-93651153D01*
X154995060Y-93659800D01*
X154994582Y-93668558D01*
X154994190Y-93677427D01*
X154993886Y-93686406D01*
X154993668Y-93695496D01*
X154993538Y-93704697D01*
X154993494Y-93714009D01*
X154639209Y-93714009D01*
X154639209Y-92997889D01*
X154993494Y-92997889D01*
X154993855Y-93019058D01*
X154994938Y-93039556D01*
X154996742Y-93059381D01*
X154999268Y-93078534D01*
X155002515Y-93097016D01*
X155006484Y-93114825D01*
X155011175Y-93131962D01*
X155016587Y-93148428D01*
X155022722Y-93164221D01*
X155029577Y-93179342D01*
X155037155Y-93193791D01*
X155045454Y-93207568D01*
X155054475Y-93220673D01*
X155064217Y-93233106D01*
X155074681Y-93244867D01*
X155085867Y-93255956D01*
X155097774Y-93266372D01*
X155110403Y-93276117D01*
X155123754Y-93285190D01*
X155137827Y-93293590D01*
X155152621Y-93301319D01*
X155168136Y-93308375D01*
X155184374Y-93314760D01*
X155201333Y-93320472D01*
X155219013Y-93325513D01*
X155237416Y-93329881D01*
X155256540Y-93333577D01*
X155276385Y-93336601D01*
X155296953Y-93338954D01*
X155318242Y-93340634D01*
X155340253Y-93341642D01*
X155362985Y-93341978D01*
X155856355Y-93341978D01*
X155856355Y-93154399D01*
X155362399Y-93154399D01*
X155349368Y-93154239D01*
X155336750Y-93153759D01*
X155324546Y-93152959D01*
X155312756Y-93151838D01*
X155301380Y-93150397D01*
X155290417Y-93148636D01*
X155279868Y-93146555D01*
X155269733Y-93144153D01*
X155260011Y-93141432D01*
X155250703Y-93138390D01*
X155241809Y-93135028D01*
X155233329Y-93131346D01*
X155225262Y-93127344D01*
X155217608Y-93123021D01*
X155210369Y-93118378D01*
X155203543Y-93113415D01*
X155197131Y-93108132D01*
X155191133Y-93102529D01*
X155185548Y-93096606D01*
X155180377Y-93090362D01*
X155175619Y-93083798D01*
X155171276Y-93076914D01*
X155167346Y-93069710D01*
X155163829Y-93062185D01*
X155160727Y-93054341D01*
X155158038Y-93046176D01*
X155155762Y-93037691D01*
X155153901Y-93028886D01*
X155152453Y-93019761D01*
X155151419Y-93010315D01*
X155150798Y-93000549D01*
X155150591Y-92990464D01*
X155150790Y-92980546D01*
X155151388Y-92970943D01*
X155152384Y-92961655D01*
X155153779Y-92952682D01*
X155155572Y-92944024D01*
X155157763Y-92935681D01*
X155160353Y-92927652D01*
X155163341Y-92919938D01*
X155166727Y-92912540D01*
X155170512Y-92905456D01*
X155174696Y-92898686D01*
X155179278Y-92892232D01*
X155184258Y-92886093D01*
X155189637Y-92880268D01*
X155195414Y-92874758D01*
X155201589Y-92869563D01*
X155208163Y-92864683D01*
X155215135Y-92860118D01*
X155222506Y-92855868D01*
X155230275Y-92851932D01*
X155238443Y-92848311D01*
X155247009Y-92845005D01*
X155255974Y-92842014D01*
X155265337Y-92839338D01*
X155275098Y-92836977D01*
X155285258Y-92834930D01*
X155295816Y-92833199D01*
X155306772Y-92831782D01*
X155318127Y-92830680D01*
X155329881Y-92829893D01*
X155342033Y-92829421D01*
X155354583Y-92829263D01*
X155856355Y-92829263D01*
X155856355Y-92641685D01*
X155372950Y-92641685D01*
X155349605Y-92642033D01*
X155327000Y-92643076D01*
X155305137Y-92644815D01*
X155284015Y-92647250D01*
X155263634Y-92650381D01*
X155243994Y-92654208D01*
X155225096Y-92658730D01*
X155206938Y-92663948D01*
X155189522Y-92669861D01*
X155172846Y-92676470D01*
X155156912Y-92683775D01*
X155141719Y-92691776D01*
X155127267Y-92700472D01*
X155113556Y-92709864D01*
X155100587Y-92719952D01*
X155088358Y-92730736D01*
X155076871Y-92742215D01*
X155066124Y-92754390D01*
X155056119Y-92767261D01*
X155046855Y-92780827D01*
X155038332Y-92795089D01*
X155030550Y-92810047D01*
X155023510Y-92825700D01*
X155017210Y-92842049D01*
X155011652Y-92859094D01*
X155006835Y-92876835D01*
X155002758Y-92895271D01*
X154999423Y-92914403D01*
X154996829Y-92934231D01*
X154994977Y-92954754D01*
X154993865Y-92975974D01*
X154993494Y-92997889D01*
X154639209Y-92997889D01*
X154639209Y-92287399D01*
X156223148Y-92287399D01*
X156223148Y-95589244D01*
G37*
G36*
X143727823Y-88848641D02*
G01*
X143738427Y-88849057D01*
X143748683Y-88849749D01*
X143758592Y-88850719D01*
X143768152Y-88851966D01*
X143777365Y-88853490D01*
X143786231Y-88855291D01*
X143794749Y-88857369D01*
X143802919Y-88859724D01*
X143810741Y-88862356D01*
X143818216Y-88865265D01*
X143832123Y-88871914D01*
X143844638Y-88879672D01*
X143855764Y-88888538D01*
X143865498Y-88898513D01*
X143873842Y-88909595D01*
X143880796Y-88921786D01*
X143886358Y-88935085D01*
X143890530Y-88949492D01*
X143893311Y-88965008D01*
X143894181Y-88973181D01*
X143894702Y-88981631D01*
X143894876Y-88990359D01*
X143894689Y-88998884D01*
X143894128Y-89007169D01*
X143893193Y-89015212D01*
X143891884Y-89023014D01*
X143889219Y-89034265D01*
X143885713Y-89044973D01*
X143881365Y-89055139D01*
X143876176Y-89064761D01*
X143870145Y-89073841D01*
X143863273Y-89082379D01*
X143855560Y-89090374D01*
X143847004Y-89097826D01*
X143837682Y-89104670D01*
X143831081Y-89108859D01*
X143824172Y-89112748D01*
X143816955Y-89116339D01*
X143809429Y-89119630D01*
X143801595Y-89122622D01*
X143793452Y-89125315D01*
X143785001Y-89127708D01*
X143776242Y-89129802D01*
X143767175Y-89131598D01*
X143757799Y-89133094D01*
X143748115Y-89134290D01*
X143738122Y-89135188D01*
X143727821Y-89135786D01*
X143717212Y-89136086D01*
X143711792Y-89136123D01*
X143700600Y-89135980D01*
X143689763Y-89135550D01*
X143679282Y-89134833D01*
X143669156Y-89133830D01*
X143659385Y-89132540D01*
X143649970Y-89130964D01*
X143640910Y-89129101D01*
X143632205Y-89126952D01*
X143623856Y-89124516D01*
X143615861Y-89121793D01*
X143608222Y-89118783D01*
X143600939Y-89115488D01*
X143587438Y-89108036D01*
X143575357Y-89099438D01*
X143564699Y-89089693D01*
X143555461Y-89078802D01*
X143547644Y-89066765D01*
X143541249Y-89053581D01*
X143536275Y-89039251D01*
X143534321Y-89031656D01*
X143532722Y-89023774D01*
X143531478Y-89015606D01*
X143530590Y-89007151D01*
X143530057Y-88998410D01*
X143529879Y-88989382D01*
X143530062Y-88980715D01*
X143530610Y-88972322D01*
X143531523Y-88964205D01*
X143532801Y-88956363D01*
X143536453Y-88941505D01*
X143541566Y-88927747D01*
X143548140Y-88915090D01*
X143556175Y-88903534D01*
X143565671Y-88893078D01*
X143576628Y-88883722D01*
X143589045Y-88875468D01*
X143602923Y-88868314D01*
X143610410Y-88865150D01*
X143618263Y-88862260D01*
X143626480Y-88859646D01*
X143635063Y-88857308D01*
X143644011Y-88855244D01*
X143653324Y-88853455D01*
X143663002Y-88851942D01*
X143673045Y-88850704D01*
X143683454Y-88849741D01*
X143694228Y-88849053D01*
X143705367Y-88848640D01*
X143716872Y-88848503D01*
X143727823Y-88848641D01*
G37*
G36*
X143763789Y-88125879D02*
G01*
X143774773Y-88126883D01*
X143785386Y-88128558D01*
X143795628Y-88130902D01*
X143805499Y-88133916D01*
X143814999Y-88137599D01*
X143824129Y-88141953D01*
X143832887Y-88146976D01*
X143841275Y-88152669D01*
X143849291Y-88159032D01*
X143854429Y-88163646D01*
X143861658Y-88170920D01*
X143868175Y-88178527D01*
X143873981Y-88186467D01*
X143879077Y-88194741D01*
X143883461Y-88203348D01*
X143887134Y-88212287D01*
X143890097Y-88221560D01*
X143892348Y-88231167D01*
X143893889Y-88241106D01*
X143894718Y-88251378D01*
X143894876Y-88258412D01*
X143894675Y-88266582D01*
X143894073Y-88274532D01*
X143892417Y-88286045D01*
X143889858Y-88297063D01*
X143886395Y-88307587D01*
X143882029Y-88317616D01*
X143876759Y-88327151D01*
X143870587Y-88336191D01*
X143863511Y-88344737D01*
X143855532Y-88352787D01*
X143846649Y-88360344D01*
X143843487Y-88362752D01*
X143836921Y-88367343D01*
X143830069Y-88371637D01*
X143822932Y-88375635D01*
X143815509Y-88379337D01*
X143807801Y-88382742D01*
X143799808Y-88385852D01*
X143791528Y-88388665D01*
X143782964Y-88391182D01*
X143774114Y-88393403D01*
X143764978Y-88395328D01*
X143755558Y-88396957D01*
X143745851Y-88398290D01*
X143735859Y-88399326D01*
X143725582Y-88400067D01*
X143715019Y-88400511D01*
X143704171Y-88400659D01*
X143693867Y-88400516D01*
X143683862Y-88400088D01*
X143674157Y-88399374D01*
X143664750Y-88398375D01*
X143655643Y-88397091D01*
X143646835Y-88395521D01*
X143638326Y-88393665D01*
X143630117Y-88391524D01*
X143622206Y-88389098D01*
X143614595Y-88386386D01*
X143607283Y-88383389D01*
X143596876Y-88378357D01*
X143587142Y-88372684D01*
X143578082Y-88366368D01*
X143575211Y-88364120D01*
X143567110Y-88357025D01*
X143559805Y-88349443D01*
X143553298Y-88341372D01*
X143547587Y-88332814D01*
X143542673Y-88323769D01*
X143538556Y-88314235D01*
X143535236Y-88304214D01*
X143532713Y-88293705D01*
X143530986Y-88282708D01*
X143530057Y-88271224D01*
X143529879Y-88263297D01*
X143530300Y-88252202D01*
X143531562Y-88241484D01*
X143533666Y-88231145D01*
X143536611Y-88221183D01*
X143540398Y-88211599D01*
X143545026Y-88202393D01*
X143550496Y-88193565D01*
X143556807Y-88185115D01*
X143563960Y-88177042D01*
X143571954Y-88169347D01*
X143577751Y-88164427D01*
X143586978Y-88157478D01*
X143596706Y-88151213D01*
X143606935Y-88145631D01*
X143614034Y-88142290D01*
X143621355Y-88139252D01*
X143628899Y-88136518D01*
X143636666Y-88134088D01*
X143644656Y-88131961D01*
X143652868Y-88130138D01*
X143661304Y-88128620D01*
X143669962Y-88127404D01*
X143678844Y-88126493D01*
X143687948Y-88125886D01*
X143697275Y-88125582D01*
X143702022Y-88125544D01*
X143752434Y-88125544D01*
X143763789Y-88125879D01*
G37*
G36*
X143777331Y-87431607D02*
G01*
X143785735Y-87431917D01*
X143793863Y-87432434D01*
X143801716Y-87433158D01*
X143816595Y-87435227D01*
X143830371Y-87438122D01*
X143843046Y-87441845D01*
X143854619Y-87446396D01*
X143865089Y-87451774D01*
X143874457Y-87457979D01*
X143882723Y-87465012D01*
X143889887Y-87472872D01*
X143895949Y-87481559D01*
X143900909Y-87491074D01*
X143904766Y-87501416D01*
X143907522Y-87512586D01*
X143909175Y-87524583D01*
X143909726Y-87537407D01*
X143909386Y-87545526D01*
X143908366Y-87553470D01*
X143906666Y-87561238D01*
X143904285Y-87568832D01*
X143901225Y-87576250D01*
X143897485Y-87583493D01*
X143893064Y-87590561D01*
X143887964Y-87597454D01*
X143882183Y-87604172D01*
X143875723Y-87610714D01*
X143871038Y-87614979D01*
X143863564Y-87621093D01*
X143855651Y-87626762D01*
X143847297Y-87631984D01*
X143838505Y-87636759D01*
X143829272Y-87641088D01*
X143819600Y-87644970D01*
X143809489Y-87648406D01*
X143798937Y-87651395D01*
X143787946Y-87653938D01*
X143776516Y-87656034D01*
X143768651Y-87657184D01*
X143768651Y-87431503D01*
X143777331Y-87431607D01*
G37*
G36*
X144660663Y-91559244D02*
G01*
X143039209Y-91559244D01*
X143039209Y-90704748D01*
X143406000Y-90704748D01*
X143406000Y-91204958D01*
X144256355Y-91204958D01*
X144256355Y-90729759D01*
X144108051Y-90729759D01*
X144108051Y-91025000D01*
X143906209Y-91025000D01*
X143906209Y-90742264D01*
X143758295Y-90742264D01*
X143758295Y-91029884D01*
X143554304Y-91029884D01*
X143554304Y-90704748D01*
X143406000Y-90704748D01*
X143039209Y-90704748D01*
X143039209Y-90014616D01*
X143406000Y-90014616D01*
X143406000Y-90189689D01*
X143746767Y-90189689D01*
X143755879Y-90189793D01*
X143764702Y-90190106D01*
X143773236Y-90190627D01*
X143781480Y-90191356D01*
X143789435Y-90192294D01*
X143804478Y-90194794D01*
X143818363Y-90198128D01*
X143831091Y-90202295D01*
X143842662Y-90207296D01*
X143853076Y-90213131D01*
X143862333Y-90219798D01*
X143870432Y-90227300D01*
X143877375Y-90235634D01*
X143883160Y-90244803D01*
X143887789Y-90254804D01*
X143891260Y-90265640D01*
X143893574Y-90277308D01*
X143894731Y-90289811D01*
X143894876Y-90296374D01*
X143894529Y-90305785D01*
X143893488Y-90314894D01*
X143891754Y-90323700D01*
X143889326Y-90332205D01*
X143886203Y-90340407D01*
X143882388Y-90348306D01*
X143877878Y-90355904D01*
X143872674Y-90363199D01*
X143866777Y-90370192D01*
X143860186Y-90376883D01*
X143855406Y-90381175D01*
X143847813Y-90387181D01*
X143839836Y-90392597D01*
X143831474Y-90397421D01*
X143822727Y-90401655D01*
X143813595Y-90405298D01*
X143804079Y-90408350D01*
X143794178Y-90410812D01*
X143783892Y-90412683D01*
X143773222Y-90413963D01*
X143762167Y-90414652D01*
X143754583Y-90414783D01*
X143406000Y-90414783D01*
X143406000Y-90589856D01*
X144018756Y-90589856D01*
X144018756Y-90414783D01*
X143919691Y-90414783D01*
X143919691Y-90412634D01*
X143926555Y-90408408D01*
X143933202Y-90404061D01*
X143939630Y-90399591D01*
X143951833Y-90390286D01*
X143963164Y-90380491D01*
X143973624Y-90370209D01*
X143983212Y-90359438D01*
X143991928Y-90348178D01*
X143999773Y-90336430D01*
X144006746Y-90324193D01*
X144012848Y-90311468D01*
X144018078Y-90298255D01*
X144022436Y-90284553D01*
X144025922Y-90270362D01*
X144028537Y-90255683D01*
X144030281Y-90240516D01*
X144031152Y-90224860D01*
X144031261Y-90216849D01*
X144031015Y-90204407D01*
X144030278Y-90192360D01*
X144029049Y-90180708D01*
X144027329Y-90169450D01*
X144025117Y-90158588D01*
X144022413Y-90148121D01*
X144019218Y-90138049D01*
X144015532Y-90128372D01*
X144011354Y-90119090D01*
X144006684Y-90110202D01*
X144001523Y-90101710D01*
X143995870Y-90093613D01*
X143989726Y-90085911D01*
X143983090Y-90078603D01*
X143975963Y-90071691D01*
X143968344Y-90065174D01*
X143960234Y-90059052D01*
X143951632Y-90053324D01*
X143942538Y-90047992D01*
X143932953Y-90043055D01*
X143922877Y-90038512D01*
X143912309Y-90034365D01*
X143901249Y-90030613D01*
X143889698Y-90027255D01*
X143877655Y-90024293D01*
X143865121Y-90021725D01*
X143852095Y-90019553D01*
X143838578Y-90017776D01*
X143824569Y-90016393D01*
X143810069Y-90015406D01*
X143795077Y-90014813D01*
X143779593Y-90014616D01*
X143406000Y-90014616D01*
X143039209Y-90014616D01*
X143039209Y-89581622D01*
X143393494Y-89581622D01*
X143393577Y-89590192D01*
X143393825Y-89598659D01*
X143394238Y-89607022D01*
X143394816Y-89615282D01*
X143395560Y-89623438D01*
X143396469Y-89631491D01*
X143397543Y-89639441D01*
X143398782Y-89647287D01*
X143400187Y-89655029D01*
X143403492Y-89670204D01*
X143407458Y-89684966D01*
X143412084Y-89699314D01*
X143417372Y-89713248D01*
X143423321Y-89726768D01*
X143429931Y-89739875D01*
X143437202Y-89752568D01*
X143445134Y-89764847D01*
X143453726Y-89776713D01*
X143462980Y-89788165D01*
X143472895Y-89799203D01*
X143478100Y-89804567D01*
X143488895Y-89814859D01*
X143500079Y-89824488D01*
X143511652Y-89833452D01*
X143523615Y-89841753D01*
X143535966Y-89849389D01*
X143548708Y-89856362D01*
X143561838Y-89862670D01*
X143575357Y-89868314D01*
X143589266Y-89873294D01*
X143603564Y-89877611D01*
X143618252Y-89881263D01*
X143633329Y-89884251D01*
X143648794Y-89886575D01*
X143656673Y-89887488D01*
X143664650Y-89888235D01*
X143672723Y-89888816D01*
X143680894Y-89889231D01*
X143689162Y-89889480D01*
X143697528Y-89889563D01*
X143707160Y-89889474D01*
X143716663Y-89889206D01*
X143726038Y-89888760D01*
X143735285Y-89888135D01*
X143744402Y-89887331D01*
X143753391Y-89886349D01*
X143762252Y-89885188D01*
X143770984Y-89883848D01*
X143779587Y-89882330D01*
X143788062Y-89880633D01*
X143796408Y-89878758D01*
X143804625Y-89876704D01*
X143812714Y-89874471D01*
X143820674Y-89872060D01*
X143828506Y-89869471D01*
X143836209Y-89866702D01*
X143843783Y-89863755D01*
X143851229Y-89860630D01*
X143858546Y-89857326D01*
X143865735Y-89853843D01*
X143872795Y-89850181D01*
X143879726Y-89846342D01*
X143886529Y-89842323D01*
X143893203Y-89838126D01*
X143899748Y-89833750D01*
X143906165Y-89829196D01*
X143912454Y-89824463D01*
X143918613Y-89819551D01*
X143924644Y-89814461D01*
X143930547Y-89809192D01*
X143936321Y-89803745D01*
X143941966Y-89798119D01*
X143947460Y-89792332D01*
X143952779Y-89786426D01*
X143957924Y-89780401D01*
X143962895Y-89774256D01*
X143967691Y-89767993D01*
X143972312Y-89761611D01*
X143976760Y-89755109D01*
X143981033Y-89748489D01*
X143985131Y-89741749D01*
X143989055Y-89734890D01*
X143992805Y-89727913D01*
X143996380Y-89720816D01*
X143999781Y-89713600D01*
X144003008Y-89706265D01*
X144006060Y-89698811D01*
X144008937Y-89691238D01*
X144011641Y-89683546D01*
X144014170Y-89675735D01*
X144016524Y-89667805D01*
X144018704Y-89659755D01*
X144020710Y-89651587D01*
X144022541Y-89643299D01*
X144024198Y-89634893D01*
X144025680Y-89626367D01*
X144026988Y-89617723D01*
X144028122Y-89608959D01*
X144029081Y-89600076D01*
X144029866Y-89591074D01*
X144030476Y-89581953D01*
X144030912Y-89572713D01*
X144031174Y-89563354D01*
X144031261Y-89553876D01*
X144031146Y-89541213D01*
X144030800Y-89528966D01*
X144030224Y-89517137D01*
X144029417Y-89505724D01*
X144028380Y-89494727D01*
X144027112Y-89484148D01*
X144025614Y-89473985D01*
X144023885Y-89464239D01*
X144021926Y-89454910D01*
X144019736Y-89445997D01*
X144017316Y-89437501D01*
X144014665Y-89429422D01*
X144011784Y-89421760D01*
X144008672Y-89414514D01*
X144003572Y-89404427D01*
X144001757Y-89401273D01*
X143844855Y-89401273D01*
X143850912Y-89408961D01*
X143856579Y-89416734D01*
X143861854Y-89424592D01*
X143866739Y-89432536D01*
X143871233Y-89440566D01*
X143875337Y-89448681D01*
X143879049Y-89456881D01*
X143882371Y-89465167D01*
X143885302Y-89473538D01*
X143887842Y-89481995D01*
X143889991Y-89490538D01*
X143891750Y-89499166D01*
X143893117Y-89507879D01*
X143894094Y-89516678D01*
X143894681Y-89525562D01*
X143894876Y-89534532D01*
X143894683Y-89544591D01*
X143894104Y-89554398D01*
X143893138Y-89563953D01*
X143891786Y-89573257D01*
X143890048Y-89582308D01*
X143887924Y-89591108D01*
X143885414Y-89599655D01*
X143882517Y-89607951D01*
X143879235Y-89615995D01*
X143875566Y-89623787D01*
X143871510Y-89631328D01*
X143867069Y-89638616D01*
X143862241Y-89645653D01*
X143857028Y-89652437D01*
X143851427Y-89658970D01*
X143845441Y-89665251D01*
X143839118Y-89671213D01*
X143832506Y-89676791D01*
X143825605Y-89681984D01*
X143818416Y-89686793D01*
X143810938Y-89691217D01*
X143803172Y-89695256D01*
X143795117Y-89698910D01*
X143786774Y-89702180D01*
X143778142Y-89705065D01*
X143769222Y-89707566D01*
X143760013Y-89709682D01*
X143750516Y-89711413D01*
X143740731Y-89712759D01*
X143730656Y-89713721D01*
X143720293Y-89714298D01*
X143709642Y-89714490D01*
X143699328Y-89714308D01*
X143689291Y-89713760D01*
X143679532Y-89712848D01*
X143670050Y-89711571D01*
X143660847Y-89709930D01*
X143651922Y-89707923D01*
X143643274Y-89705552D01*
X143634904Y-89702815D01*
X143626812Y-89699714D01*
X143618998Y-89696248D01*
X143611461Y-89692417D01*
X143604203Y-89688222D01*
X143597222Y-89683661D01*
X143590519Y-89678736D01*
X143584094Y-89673446D01*
X143577946Y-89667791D01*
X143572126Y-89661799D01*
X143566681Y-89655545D01*
X143561611Y-89649031D01*
X143556917Y-89642255D01*
X143552599Y-89635219D01*
X143548656Y-89627921D01*
X143545088Y-89620363D01*
X143541896Y-89612543D01*
X143539080Y-89604462D01*
X143536639Y-89596121D01*
X143534574Y-89587518D01*
X143532884Y-89578654D01*
X143531569Y-89569530D01*
X143530631Y-89560144D01*
X143530067Y-89550497D01*
X143529879Y-89540589D01*
X143530075Y-89531712D01*
X143530661Y-89522863D01*
X143531638Y-89514042D01*
X143533006Y-89505247D01*
X143534764Y-89496480D01*
X143536914Y-89487741D01*
X143539454Y-89479029D01*
X143542385Y-89470345D01*
X143545706Y-89461688D01*
X143549419Y-89453059D01*
X143553522Y-89444457D01*
X143558016Y-89435882D01*
X143562901Y-89427335D01*
X143568177Y-89418816D01*
X143573843Y-89410324D01*
X143579900Y-89401859D01*
X143431987Y-89401859D01*
X143427326Y-89409957D01*
X143422965Y-89418474D01*
X143418905Y-89427409D01*
X143415146Y-89436762D01*
X143411688Y-89446533D01*
X143408530Y-89456722D01*
X143405674Y-89467330D01*
X143403117Y-89478356D01*
X143400862Y-89489800D01*
X143398907Y-89501663D01*
X143397253Y-89513944D01*
X143395900Y-89526643D01*
X143394848Y-89539760D01*
X143394096Y-89553296D01*
X143393645Y-89567250D01*
X143393494Y-89581622D01*
X143039209Y-89581622D01*
X143039209Y-88995048D01*
X143393494Y-88995048D01*
X143393577Y-89004076D01*
X143393826Y-89012986D01*
X143394240Y-89021779D01*
X143394819Y-89030454D01*
X143395565Y-89039013D01*
X143396476Y-89047454D01*
X143397552Y-89055779D01*
X143398794Y-89063986D01*
X143400202Y-89072076D01*
X143401776Y-89080049D01*
X143403515Y-89087904D01*
X143405419Y-89095643D01*
X143407490Y-89103264D01*
X143409726Y-89110768D01*
X143414695Y-89125425D01*
X143420326Y-89139613D01*
X143426620Y-89153333D01*
X143433576Y-89166584D01*
X143441195Y-89179366D01*
X143449476Y-89191680D01*
X143458420Y-89203525D01*
X143468026Y-89214901D01*
X143478295Y-89225809D01*
X143489160Y-89236149D01*
X143500503Y-89245822D01*
X143512326Y-89254827D01*
X143524628Y-89263166D01*
X143537410Y-89270837D01*
X143550671Y-89277842D01*
X143564411Y-89284179D01*
X143578630Y-89289849D01*
X143593329Y-89294853D01*
X143600858Y-89297104D01*
X143608507Y-89299189D01*
X143616276Y-89301107D01*
X143624165Y-89302858D01*
X143632173Y-89304442D01*
X143640302Y-89305860D01*
X143648550Y-89307110D01*
X143656918Y-89308194D01*
X143665406Y-89309112D01*
X143674013Y-89309862D01*
X143682741Y-89310446D01*
X143691588Y-89310863D01*
X143700555Y-89311113D01*
X143709642Y-89311196D01*
X143718958Y-89311110D01*
X143728149Y-89310853D01*
X143737214Y-89310423D01*
X143746153Y-89309822D01*
X143754967Y-89309050D01*
X143763656Y-89308105D01*
X143772219Y-89306989D01*
X143780656Y-89305701D01*
X143788968Y-89304241D01*
X143797154Y-89302610D01*
X143805214Y-89300806D01*
X143813149Y-89298831D01*
X143820959Y-89296685D01*
X143828643Y-89294366D01*
X143836201Y-89291876D01*
X143843634Y-89289214D01*
X143850941Y-89286381D01*
X143865179Y-89280198D01*
X143878915Y-89273329D01*
X143892148Y-89265773D01*
X143904879Y-89257530D01*
X143917108Y-89248600D01*
X143928835Y-89238982D01*
X143940059Y-89228678D01*
X143945483Y-89223269D01*
X143955870Y-89212017D01*
X143965587Y-89200292D01*
X143974634Y-89188093D01*
X143983011Y-89175422D01*
X143990718Y-89162277D01*
X143997754Y-89148659D01*
X144004120Y-89134567D01*
X144009817Y-89120003D01*
X144012413Y-89112543D01*
X144014843Y-89104965D01*
X144017104Y-89097269D01*
X144019199Y-89089454D01*
X144021125Y-89081521D01*
X144022884Y-89073470D01*
X144024476Y-89065301D01*
X144025900Y-89057013D01*
X144027157Y-89048607D01*
X144028246Y-89040082D01*
X144029167Y-89031439D01*
X144029921Y-89022678D01*
X144030507Y-89013799D01*
X144030926Y-89004801D01*
X144031177Y-88995685D01*
X144031261Y-88986451D01*
X144031179Y-88977521D01*
X144030931Y-88968706D01*
X144030519Y-88960007D01*
X144029942Y-88951424D01*
X144029200Y-88942956D01*
X144028294Y-88934604D01*
X144027222Y-88926367D01*
X144025986Y-88918246D01*
X144024584Y-88910241D01*
X144023018Y-88902351D01*
X144021287Y-88894577D01*
X144019391Y-88886919D01*
X144017330Y-88879376D01*
X144012714Y-88864638D01*
X144007438Y-88850362D01*
X144001503Y-88836548D01*
X143994909Y-88823197D01*
X143987655Y-88810309D01*
X143979741Y-88797883D01*
X143971168Y-88785920D01*
X143961936Y-88774419D01*
X143952044Y-88763381D01*
X143946851Y-88758035D01*
X143936073Y-88747790D01*
X143924842Y-88738206D01*
X143913157Y-88729282D01*
X143901019Y-88721020D01*
X143888427Y-88713419D01*
X143875382Y-88706478D01*
X143861884Y-88700199D01*
X143847933Y-88694581D01*
X143833528Y-88689623D01*
X143818669Y-88685327D01*
X143811070Y-88683427D01*
X143803357Y-88681692D01*
X143795532Y-88680122D01*
X143787592Y-88678717D01*
X143779540Y-88677478D01*
X143771374Y-88676404D01*
X143763095Y-88675495D01*
X143754702Y-88674751D01*
X143746196Y-88674173D01*
X143737577Y-88673760D01*
X143728844Y-88673512D01*
X143719998Y-88673429D01*
X143710715Y-88673514D01*
X143701552Y-88673768D01*
X143692507Y-88674192D01*
X143683581Y-88674785D01*
X143674775Y-88675547D01*
X143666088Y-88676479D01*
X143657519Y-88677581D01*
X143649070Y-88678852D01*
X143640740Y-88680292D01*
X143632529Y-88681902D01*
X143624437Y-88683681D01*
X143616464Y-88685629D01*
X143608610Y-88687747D01*
X143600875Y-88690035D01*
X143593259Y-88692492D01*
X143585762Y-88695118D01*
X143578385Y-88697914D01*
X143571126Y-88700879D01*
X143556966Y-88707318D01*
X143543282Y-88714435D01*
X143530075Y-88722229D01*
X143517344Y-88730701D01*
X143505089Y-88739851D01*
X143493310Y-88749679D01*
X143482008Y-88760184D01*
X143471289Y-88771268D01*
X143461262Y-88782832D01*
X143451927Y-88794875D01*
X143443283Y-88807397D01*
X143435331Y-88820398D01*
X143428070Y-88833879D01*
X143421501Y-88847839D01*
X143415623Y-88862278D01*
X143412943Y-88869677D01*
X143410436Y-88877197D01*
X143408102Y-88884836D01*
X143405941Y-88892595D01*
X143403953Y-88900473D01*
X143402138Y-88908472D01*
X143400496Y-88916590D01*
X143399026Y-88924829D01*
X143397730Y-88933187D01*
X143396606Y-88941664D01*
X143395655Y-88950262D01*
X143394877Y-88958980D01*
X143394272Y-88967817D01*
X143393840Y-88976774D01*
X143393581Y-88985851D01*
X143393548Y-88989382D01*
X143393494Y-88995048D01*
X143039209Y-88995048D01*
X143039209Y-88320352D01*
X143393494Y-88320352D01*
X143393814Y-88334819D01*
X143394773Y-88348910D01*
X143396373Y-88362626D01*
X143398611Y-88375966D01*
X143401489Y-88388931D01*
X143405007Y-88401520D01*
X143409165Y-88413734D01*
X143413962Y-88425572D01*
X143419399Y-88437034D01*
X143425475Y-88448121D01*
X143432191Y-88458833D01*
X143439546Y-88469169D01*
X143447541Y-88479130D01*
X143456176Y-88488715D01*
X143465450Y-88497924D01*
X143475364Y-88506758D01*
X143485854Y-88515110D01*
X143496806Y-88522924D01*
X143508220Y-88530198D01*
X143520098Y-88536934D01*
X143532437Y-88543131D01*
X143545239Y-88548789D01*
X143558504Y-88553908D01*
X143572231Y-88558489D01*
X143586421Y-88562530D01*
X143601073Y-88566033D01*
X143616188Y-88568996D01*
X143623919Y-88570276D01*
X143631765Y-88571421D01*
X143639728Y-88572432D01*
X143647805Y-88573307D01*
X143655999Y-88574048D01*
X143664308Y-88574655D01*
X143672732Y-88575126D01*
X143681273Y-88575463D01*
X143689929Y-88575665D01*
X143698700Y-88575732D01*
X143707986Y-88575656D01*
X143717158Y-88575428D01*
X143726217Y-88575047D01*
X143735163Y-88574514D01*
X143743995Y-88573829D01*
X143752714Y-88572991D01*
X143761319Y-88572002D01*
X143769811Y-88570860D01*
X143778190Y-88569565D01*
X143786456Y-88568119D01*
X143794608Y-88566520D01*
X143802647Y-88564769D01*
X143810572Y-88562865D01*
X143818384Y-88560810D01*
X143826083Y-88558602D01*
X143833669Y-88556242D01*
X143841141Y-88553729D01*
X143848500Y-88551064D01*
X143862877Y-88545278D01*
X143876801Y-88538883D01*
X143890272Y-88531878D01*
X143903289Y-88524265D01*
X143915853Y-88516042D01*
X143927964Y-88507211D01*
X143939621Y-88497770D01*
X143950718Y-88487838D01*
X143961099Y-88477534D01*
X143970765Y-88466858D01*
X143979714Y-88455809D01*
X143987947Y-88444388D01*
X143995464Y-88432594D01*
X144002266Y-88420427D01*
X144008351Y-88407889D01*
X144013721Y-88394977D01*
X144018374Y-88381693D01*
X144022312Y-88368037D01*
X144025534Y-88354009D01*
X144028039Y-88339607D01*
X144029829Y-88324834D01*
X144030903Y-88309688D01*
X144031261Y-88294169D01*
X144030926Y-88279382D01*
X144029921Y-88265162D01*
X144028246Y-88251508D01*
X144025900Y-88238421D01*
X144022884Y-88225899D01*
X144019199Y-88213944D01*
X144014843Y-88202556D01*
X144009817Y-88191734D01*
X144004120Y-88181478D01*
X143997754Y-88171788D01*
X143990718Y-88162665D01*
X143983011Y-88154108D01*
X143974634Y-88146117D01*
X143965587Y-88138693D01*
X143955870Y-88131835D01*
X143945483Y-88125544D01*
X143945483Y-88122808D01*
X144306376Y-88122808D01*
X144306376Y-87950471D01*
X143406000Y-87950471D01*
X143406000Y-88125544D01*
X143494122Y-88125544D01*
X143494122Y-88128279D01*
X143481937Y-88136655D01*
X143470538Y-88145514D01*
X143459925Y-88154857D01*
X143450098Y-88164684D01*
X143441057Y-88174995D01*
X143432802Y-88185789D01*
X143425334Y-88197068D01*
X143418651Y-88208831D01*
X143412755Y-88221077D01*
X143407645Y-88233808D01*
X143403321Y-88247022D01*
X143399784Y-88260720D01*
X143399284Y-88263297D01*
X143397032Y-88274902D01*
X143395067Y-88289568D01*
X143393887Y-88304718D01*
X143393494Y-88320352D01*
X143039209Y-88320352D01*
X143039209Y-87531936D01*
X143393494Y-87531936D01*
X143393574Y-87540753D01*
X143393814Y-87549446D01*
X143394214Y-87558016D01*
X143394773Y-87566463D01*
X143395493Y-87574786D01*
X143396373Y-87582987D01*
X143397412Y-87591064D01*
X143398611Y-87599017D01*
X143399970Y-87606848D01*
X143401489Y-87614555D01*
X143405007Y-87629600D01*
X143409165Y-87644151D01*
X143413962Y-87658210D01*
X143419399Y-87671775D01*
X143425475Y-87684847D01*
X143432191Y-87697427D01*
X143439546Y-87709513D01*
X143447541Y-87721106D01*
X143456176Y-87732206D01*
X143465450Y-87742813D01*
X143475364Y-87752927D01*
X143485873Y-87762462D01*
X143496882Y-87771383D01*
X143508392Y-87779688D01*
X143520403Y-87787377D01*
X143532914Y-87794452D01*
X143545926Y-87800911D01*
X143559439Y-87806756D01*
X143573452Y-87811985D01*
X143587967Y-87816599D01*
X143602981Y-87820597D01*
X143610677Y-87822366D01*
X143618497Y-87823981D01*
X143626442Y-87825442D01*
X143634513Y-87826749D01*
X143642709Y-87827903D01*
X143651030Y-87828902D01*
X143659476Y-87829748D01*
X143668048Y-87830440D01*
X143676744Y-87830979D01*
X143685566Y-87831363D01*
X143694513Y-87831594D01*
X143703585Y-87831671D01*
X143712642Y-87831589D01*
X143721591Y-87831344D01*
X143730433Y-87830936D01*
X143739168Y-87830364D01*
X143747796Y-87829629D01*
X143756316Y-87828731D01*
X143764729Y-87827669D01*
X143773035Y-87826444D01*
X143781234Y-87825056D01*
X143789326Y-87823504D01*
X143797310Y-87821789D01*
X143805187Y-87819911D01*
X143812957Y-87817869D01*
X143820619Y-87815664D01*
X143828175Y-87813295D01*
X143835623Y-87810764D01*
X143842964Y-87808069D01*
X143857323Y-87802188D01*
X143871254Y-87795655D01*
X143884757Y-87788468D01*
X143897830Y-87780628D01*
X143910474Y-87772134D01*
X143922689Y-87762987D01*
X143934475Y-87753187D01*
X143940207Y-87748042D01*
X143951233Y-87737396D01*
X143961548Y-87726414D01*
X143971151Y-87715097D01*
X143980043Y-87703443D01*
X143988224Y-87691454D01*
X143995693Y-87679129D01*
X144002451Y-87666468D01*
X144008498Y-87653471D01*
X144013833Y-87640139D01*
X144018457Y-87626470D01*
X144022369Y-87612466D01*
X144025570Y-87598126D01*
X144028060Y-87583450D01*
X144029838Y-87568438D01*
X144030906Y-87553090D01*
X144031261Y-87537407D01*
X144031184Y-87529572D01*
X144030564Y-87514224D01*
X144029324Y-87499307D01*
X144027465Y-87484820D01*
X144024986Y-87470764D01*
X144021887Y-87457139D01*
X144018169Y-87443943D01*
X144013830Y-87431179D01*
X144008872Y-87418844D01*
X144003294Y-87406941D01*
X143997097Y-87395467D01*
X143990279Y-87384424D01*
X143982842Y-87373812D01*
X143974785Y-87363630D01*
X143966108Y-87353879D01*
X143956812Y-87344558D01*
X143951931Y-87340059D01*
X143941783Y-87331446D01*
X143931170Y-87323389D01*
X143920094Y-87315888D01*
X143908554Y-87308942D01*
X143896549Y-87302552D01*
X143884080Y-87296718D01*
X143871148Y-87291439D01*
X143857751Y-87286716D01*
X143843890Y-87282549D01*
X143829565Y-87278937D01*
X143814777Y-87275881D01*
X143799524Y-87273381D01*
X143791723Y-87272339D01*
X143783807Y-87271436D01*
X143775774Y-87270672D01*
X143767625Y-87270047D01*
X143759361Y-87269560D01*
X143750980Y-87269213D01*
X143742484Y-87269005D01*
X143733871Y-87268935D01*
X143657667Y-87268935D01*
X143657667Y-87431503D01*
X143657667Y-87656598D01*
X143649264Y-87655892D01*
X143641128Y-87654899D01*
X143633259Y-87653617D01*
X143618320Y-87650192D01*
X143604449Y-87645615D01*
X143591644Y-87639888D01*
X143579907Y-87633009D01*
X143569237Y-87624980D01*
X143559633Y-87615799D01*
X143551097Y-87605468D01*
X143543628Y-87593986D01*
X143537226Y-87581352D01*
X143531890Y-87567568D01*
X143527622Y-87552632D01*
X143525888Y-87544733D01*
X143524421Y-87536546D01*
X143523221Y-87528071D01*
X143522287Y-87519308D01*
X143521620Y-87510258D01*
X143521220Y-87500920D01*
X143521087Y-87491294D01*
X143521282Y-87479172D01*
X143521868Y-87467230D01*
X143522845Y-87455468D01*
X143524213Y-87443886D01*
X143525972Y-87432485D01*
X143528121Y-87421263D01*
X143530661Y-87410222D01*
X143533592Y-87399361D01*
X143536914Y-87388680D01*
X143540626Y-87378179D01*
X143544729Y-87367858D01*
X143549224Y-87357718D01*
X143554108Y-87347757D01*
X143559384Y-87337977D01*
X143565050Y-87328376D01*
X143571108Y-87318956D01*
X143440389Y-87318956D01*
X143434710Y-87329314D01*
X143429398Y-87340065D01*
X143424452Y-87351210D01*
X143419872Y-87362749D01*
X143415659Y-87374682D01*
X143411812Y-87387008D01*
X143408332Y-87399729D01*
X143405218Y-87412843D01*
X143402470Y-87426351D01*
X143400089Y-87440253D01*
X143398074Y-87454549D01*
X143396425Y-87469239D01*
X143395143Y-87484322D01*
X143394227Y-87499800D01*
X143393906Y-87507686D01*
X143393677Y-87515671D01*
X143393540Y-87523754D01*
X143393494Y-87531936D01*
X143039209Y-87531936D01*
X143039209Y-87154825D01*
X143406000Y-87154825D01*
X144018756Y-87154825D01*
X144018756Y-86979752D01*
X143909335Y-86979752D01*
X143909335Y-86977602D01*
X143916836Y-86974747D01*
X143924100Y-86971749D01*
X143937912Y-86965326D01*
X143950771Y-86958334D01*
X143962678Y-86950772D01*
X143973632Y-86942641D01*
X143983634Y-86933941D01*
X143992683Y-86924671D01*
X144000780Y-86914832D01*
X144007924Y-86904423D01*
X144014115Y-86893446D01*
X144019354Y-86881898D01*
X144023641Y-86869781D01*
X144026975Y-86857095D01*
X144029356Y-86843840D01*
X144030785Y-86830015D01*
X144031261Y-86815621D01*
X144031085Y-86806040D01*
X144030555Y-86797203D01*
X144029673Y-86789111D01*
X144028148Y-86780382D01*
X144026114Y-86772725D01*
X144024032Y-86767163D01*
X143856188Y-86767163D01*
X143862050Y-86775586D01*
X143867130Y-86784443D01*
X143871429Y-86793733D01*
X143874946Y-86803457D01*
X143877071Y-86811035D01*
X143878756Y-86818856D01*
X143880002Y-86826921D01*
X143880808Y-86835230D01*
X143881174Y-86843783D01*
X143881198Y-86846688D01*
X143880785Y-86857969D01*
X143879543Y-86868803D01*
X143877473Y-86879191D01*
X143874576Y-86889132D01*
X143870851Y-86898626D01*
X143866299Y-86907674D01*
X143860918Y-86916276D01*
X143854710Y-86924431D01*
X143847674Y-86932139D01*
X143839811Y-86939401D01*
X143834108Y-86943995D01*
X143824968Y-86950385D01*
X143815206Y-86956146D01*
X143804823Y-86961280D01*
X143797555Y-86964352D01*
X143790011Y-86967146D01*
X143782191Y-86969660D01*
X143774094Y-86971895D01*
X143765721Y-86973850D01*
X143757072Y-86975527D01*
X143748146Y-86976923D01*
X143738944Y-86978041D01*
X143729466Y-86978879D01*
X143719712Y-86979437D01*
X143709681Y-86979717D01*
X143704562Y-86979752D01*
X143406000Y-86979752D01*
X143406000Y-87154825D01*
X143039209Y-87154825D01*
X143039209Y-86412877D01*
X144660663Y-86412877D01*
X144660663Y-91559244D01*
G37*
G36*
X148317711Y-78923542D02*
G01*
X148330537Y-78924463D01*
X148343008Y-78925997D01*
X148355123Y-78928145D01*
X148366883Y-78930906D01*
X148378287Y-78934281D01*
X148389335Y-78938270D01*
X148400027Y-78942872D01*
X148410364Y-78948089D01*
X148420345Y-78953918D01*
X148429971Y-78960362D01*
X148439241Y-78967419D01*
X148448155Y-78975090D01*
X148456713Y-78983374D01*
X148464916Y-78992272D01*
X148472763Y-79001784D01*
X148480192Y-79011760D01*
X148487143Y-79022099D01*
X148493614Y-79032801D01*
X148499605Y-79043867D01*
X148505117Y-79055296D01*
X148510150Y-79067088D01*
X148514704Y-79079244D01*
X148518778Y-79091763D01*
X148522373Y-79104645D01*
X148525489Y-79117891D01*
X148528125Y-79131500D01*
X148530282Y-79145472D01*
X148531960Y-79159807D01*
X148533158Y-79174506D01*
X148533877Y-79189568D01*
X148534117Y-79204994D01*
X148533882Y-79220206D01*
X148533179Y-79235066D01*
X148532008Y-79249576D01*
X148530368Y-79263734D01*
X148528259Y-79277542D01*
X148525681Y-79290998D01*
X148522635Y-79304103D01*
X148519120Y-79316857D01*
X148515137Y-79329260D01*
X148510685Y-79341312D01*
X148505764Y-79353013D01*
X148500375Y-79364362D01*
X148494517Y-79375361D01*
X148488190Y-79386008D01*
X148481395Y-79396305D01*
X148474131Y-79406250D01*
X148466458Y-79415714D01*
X148458438Y-79424568D01*
X148450070Y-79432811D01*
X148441353Y-79440444D01*
X148432289Y-79447466D01*
X148422876Y-79453877D01*
X148413116Y-79459678D01*
X148403007Y-79464868D01*
X148392551Y-79469448D01*
X148381746Y-79473417D01*
X148370593Y-79476775D01*
X148359092Y-79479523D01*
X148347243Y-79481660D01*
X148335047Y-79483187D01*
X148322502Y-79484102D01*
X148309609Y-79484408D01*
X148296434Y-79484115D01*
X148283630Y-79483238D01*
X148271198Y-79481777D01*
X148259136Y-79479730D01*
X148247445Y-79477100D01*
X148236125Y-79473884D01*
X148225176Y-79470084D01*
X148214598Y-79465699D01*
X148204391Y-79460729D01*
X148194555Y-79455175D01*
X148185090Y-79449036D01*
X148175996Y-79442312D01*
X148167272Y-79435004D01*
X148158920Y-79427111D01*
X148150939Y-79418634D01*
X148143328Y-79409572D01*
X148136135Y-79399992D01*
X148129406Y-79390011D01*
X148123142Y-79379628D01*
X148117341Y-79368844D01*
X148112004Y-79357659D01*
X148107131Y-79346072D01*
X148102723Y-79334083D01*
X148098778Y-79321693D01*
X148095298Y-79308902D01*
X148092281Y-79295709D01*
X148089729Y-79282114D01*
X148087641Y-79268118D01*
X148086017Y-79253721D01*
X148084856Y-79238922D01*
X148084160Y-79223722D01*
X148083928Y-79208120D01*
X148083985Y-79199943D01*
X148084154Y-79191873D01*
X148084437Y-79183912D01*
X148084832Y-79176057D01*
X148085962Y-79160671D01*
X148087543Y-79145716D01*
X148089576Y-79131191D01*
X148092062Y-79117097D01*
X148094999Y-79103433D01*
X148098387Y-79090200D01*
X148102228Y-79077397D01*
X148106521Y-79065024D01*
X148111265Y-79053082D01*
X148116461Y-79041571D01*
X148122110Y-79030490D01*
X148128210Y-79019840D01*
X148134761Y-79009619D01*
X148141765Y-78999830D01*
X148149156Y-78990555D01*
X148156917Y-78981878D01*
X148165050Y-78973800D01*
X148173553Y-78966320D01*
X148182428Y-78959438D01*
X148191673Y-78953155D01*
X148201289Y-78947470D01*
X148211277Y-78942384D01*
X148221635Y-78937896D01*
X148232364Y-78934006D01*
X148243464Y-78930715D01*
X148254935Y-78928023D01*
X148266777Y-78925928D01*
X148278990Y-78924432D01*
X148291574Y-78923535D01*
X148304528Y-78923235D01*
X148317711Y-78923542D01*
G37*
G36*
X149382909Y-79480695D02*
G01*
X149284040Y-79480695D01*
X149276022Y-79480620D01*
X149268113Y-79480395D01*
X149252621Y-79479495D01*
X149237564Y-79477996D01*
X149222943Y-79475896D01*
X149208756Y-79473196D01*
X149195004Y-79469897D01*
X149181688Y-79465997D01*
X149168806Y-79461498D01*
X149156360Y-79456398D01*
X149144348Y-79450699D01*
X149132772Y-79444400D01*
X149121631Y-79437501D01*
X149110924Y-79430002D01*
X149100653Y-79421903D01*
X149090817Y-79413204D01*
X149081416Y-79403905D01*
X149072496Y-79394094D01*
X149064151Y-79383856D01*
X149056382Y-79373193D01*
X149049188Y-79362103D01*
X149042570Y-79350588D01*
X149036527Y-79338647D01*
X149031060Y-79326280D01*
X149026168Y-79313487D01*
X149021852Y-79300268D01*
X149018111Y-79286623D01*
X149014946Y-79272552D01*
X149012356Y-79258056D01*
X149010342Y-79243133D01*
X149008903Y-79227785D01*
X149008400Y-79219951D01*
X149008040Y-79212011D01*
X149007824Y-79203964D01*
X149007752Y-79195810D01*
X149007828Y-79187939D01*
X149008429Y-79172525D01*
X149009632Y-79157546D01*
X149011436Y-79143005D01*
X149013842Y-79128900D01*
X149016849Y-79115231D01*
X149020458Y-79101999D01*
X149024668Y-79089204D01*
X149029480Y-79076845D01*
X149034893Y-79064923D01*
X149040907Y-79053438D01*
X149047523Y-79042389D01*
X149054741Y-79031777D01*
X149062559Y-79021601D01*
X149070980Y-79011862D01*
X149080001Y-79002559D01*
X149084738Y-78998071D01*
X149094517Y-78989459D01*
X149104659Y-78981402D01*
X149115162Y-78973900D01*
X149126027Y-78966955D01*
X149137254Y-78960565D01*
X149148842Y-78954730D01*
X149160793Y-78949452D01*
X149173105Y-78944729D01*
X149185779Y-78940561D01*
X149198814Y-78936950D01*
X149212212Y-78933894D01*
X149225971Y-78931393D01*
X149240092Y-78929448D01*
X149254575Y-78928059D01*
X149269420Y-78927226D01*
X149284626Y-78926948D01*
X149382909Y-78926948D01*
X149382909Y-79480695D01*
G37*
G36*
X150524244Y-79995791D02*
G01*
X147542064Y-79995791D01*
X147542064Y-79197178D01*
X147896350Y-79197178D01*
X147896450Y-79208120D01*
X147896462Y-79209476D01*
X147896799Y-79221628D01*
X147897361Y-79233635D01*
X147898148Y-79245495D01*
X147899160Y-79257210D01*
X147900396Y-79268779D01*
X147901857Y-79280203D01*
X147903543Y-79291480D01*
X147905453Y-79302612D01*
X147907589Y-79313598D01*
X147909949Y-79324438D01*
X147912534Y-79335133D01*
X147915344Y-79345681D01*
X147918378Y-79356084D01*
X147921638Y-79366341D01*
X147925122Y-79376452D01*
X147928830Y-79386418D01*
X147932764Y-79396238D01*
X147936923Y-79405912D01*
X147941306Y-79415440D01*
X147945914Y-79424822D01*
X147950747Y-79434059D01*
X147955804Y-79443149D01*
X147961086Y-79452094D01*
X147966593Y-79460894D01*
X147972325Y-79469547D01*
X147978282Y-79478055D01*
X147984463Y-79486417D01*
X147990870Y-79494633D01*
X147997501Y-79502703D01*
X148004356Y-79510628D01*
X148011437Y-79518406D01*
X148018687Y-79525980D01*
X148026077Y-79533313D01*
X148033606Y-79540405D01*
X148041274Y-79547258D01*
X148049082Y-79553869D01*
X148057029Y-79560241D01*
X148065115Y-79566371D01*
X148073340Y-79572262D01*
X148081705Y-79577912D01*
X148090209Y-79583322D01*
X148098853Y-79588491D01*
X148107635Y-79593419D01*
X148116557Y-79598108D01*
X148125618Y-79602556D01*
X148134819Y-79606763D01*
X148144159Y-79610730D01*
X148153638Y-79614457D01*
X148163256Y-79617943D01*
X148173014Y-79621189D01*
X148182911Y-79624194D01*
X148192947Y-79626959D01*
X148203123Y-79629483D01*
X148213438Y-79631767D01*
X148223892Y-79633811D01*
X148234485Y-79635614D01*
X148245218Y-79637177D01*
X148256090Y-79638499D01*
X148267101Y-79639581D01*
X148278252Y-79640423D01*
X148289542Y-79641024D01*
X148300971Y-79641385D01*
X148312540Y-79641505D01*
X148323843Y-79641388D01*
X148335012Y-79641038D01*
X148346049Y-79640455D01*
X148356952Y-79639639D01*
X148367722Y-79638590D01*
X148378359Y-79637308D01*
X148388863Y-79635792D01*
X148399234Y-79634043D01*
X148409471Y-79632061D01*
X148419575Y-79629846D01*
X148429546Y-79627398D01*
X148439384Y-79624716D01*
X148449089Y-79621801D01*
X148458660Y-79618654D01*
X148468098Y-79615272D01*
X148477404Y-79611658D01*
X148486575Y-79607811D01*
X148495614Y-79603730D01*
X148504520Y-79599417D01*
X148513292Y-79594870D01*
X148521931Y-79590090D01*
X148530437Y-79585076D01*
X148538810Y-79579830D01*
X148547049Y-79574350D01*
X148555156Y-79568637D01*
X148563129Y-79562691D01*
X148570969Y-79556512D01*
X148578676Y-79550100D01*
X148586249Y-79543454D01*
X148593690Y-79536576D01*
X148600997Y-79529464D01*
X148608171Y-79522119D01*
X148615156Y-79514590D01*
X148621918Y-79506928D01*
X148628459Y-79499131D01*
X148634778Y-79491201D01*
X148640876Y-79483136D01*
X148646752Y-79474938D01*
X148652406Y-79466606D01*
X148657838Y-79458139D01*
X148663049Y-79449539D01*
X148668037Y-79440805D01*
X148672805Y-79431937D01*
X148677350Y-79422935D01*
X148681674Y-79413799D01*
X148685776Y-79404529D01*
X148689656Y-79395125D01*
X148693314Y-79385587D01*
X148696751Y-79375915D01*
X148699966Y-79366109D01*
X148702959Y-79356170D01*
X148705731Y-79346096D01*
X148708281Y-79335888D01*
X148710609Y-79325547D01*
X148712715Y-79315071D01*
X148714600Y-79304462D01*
X148716263Y-79293718D01*
X148717704Y-79282841D01*
X148718924Y-79271830D01*
X148719921Y-79260684D01*
X148720697Y-79249405D01*
X148721252Y-79237992D01*
X148721584Y-79226445D01*
X148721695Y-79214764D01*
X148721582Y-79202404D01*
X148721322Y-79193075D01*
X148820174Y-79193075D01*
X148820201Y-79195810D01*
X148820296Y-79205321D01*
X148820664Y-79217415D01*
X148821276Y-79229358D01*
X148822134Y-79241148D01*
X148823237Y-79252787D01*
X148824584Y-79264273D01*
X148826177Y-79275608D01*
X148828014Y-79286791D01*
X148830097Y-79297822D01*
X148832424Y-79308701D01*
X148834997Y-79319428D01*
X148837814Y-79330004D01*
X148840877Y-79340427D01*
X148844185Y-79350699D01*
X148847737Y-79360818D01*
X148851535Y-79370786D01*
X148855577Y-79380602D01*
X148859865Y-79390266D01*
X148864398Y-79399778D01*
X148869175Y-79409138D01*
X148874198Y-79418347D01*
X148879465Y-79427403D01*
X148884978Y-79436308D01*
X148890736Y-79445060D01*
X148896738Y-79453661D01*
X148902986Y-79462110D01*
X148909479Y-79470407D01*
X148916216Y-79478552D01*
X148923199Y-79486545D01*
X148930427Y-79494387D01*
X148937899Y-79502076D01*
X148945617Y-79509614D01*
X148953516Y-79516959D01*
X148961557Y-79524070D01*
X148969740Y-79530949D01*
X148978065Y-79537595D01*
X148986532Y-79544007D01*
X148995140Y-79550186D01*
X149003891Y-79556132D01*
X149012784Y-79561845D01*
X149021819Y-79567325D01*
X149030995Y-79572571D01*
X149040314Y-79577584D01*
X149049774Y-79582364D01*
X149059377Y-79586911D01*
X149069122Y-79591225D01*
X149079008Y-79595306D01*
X149089036Y-79599153D01*
X149099207Y-79602767D01*
X149109519Y-79606148D01*
X149119974Y-79609296D01*
X149130570Y-79612211D01*
X149141308Y-79614892D01*
X149152189Y-79617341D01*
X149163211Y-79619556D01*
X149174375Y-79621538D01*
X149185681Y-79623287D01*
X149197129Y-79624802D01*
X149208719Y-79626085D01*
X149220451Y-79627134D01*
X149232325Y-79627950D01*
X149244341Y-79628533D01*
X149256499Y-79628883D01*
X149268799Y-79629000D01*
X149557983Y-79629000D01*
X149669748Y-79629000D01*
X150169958Y-79629000D01*
X150169958Y-78778644D01*
X149982379Y-78778644D01*
X149982379Y-79480695D01*
X149669748Y-79480695D01*
X149669748Y-79629000D01*
X149557983Y-79629000D01*
X149557983Y-78778644D01*
X149267822Y-78778644D01*
X149240281Y-78779048D01*
X149213615Y-78780262D01*
X149187823Y-78782286D01*
X149162905Y-78785119D01*
X149138861Y-78788762D01*
X149115692Y-78793213D01*
X149093397Y-78798475D01*
X149071976Y-78804546D01*
X149051430Y-78811426D01*
X149031758Y-78819115D01*
X149012960Y-78827614D01*
X148995037Y-78836923D01*
X148977987Y-78847041D01*
X148961813Y-78857968D01*
X148946512Y-78869705D01*
X148932086Y-78882251D01*
X148918534Y-78895607D01*
X148905857Y-78909772D01*
X148894053Y-78924747D01*
X148883125Y-78940531D01*
X148873070Y-78957124D01*
X148863890Y-78974527D01*
X148855584Y-78992739D01*
X148848152Y-79011761D01*
X148841595Y-79031592D01*
X148835912Y-79052233D01*
X148831103Y-79073683D01*
X148827168Y-79095943D01*
X148824108Y-79119011D01*
X148821923Y-79142890D01*
X148820611Y-79167578D01*
X148820174Y-79193075D01*
X148721322Y-79193075D01*
X148721242Y-79190189D01*
X148720675Y-79178119D01*
X148719882Y-79166193D01*
X148718862Y-79154412D01*
X148717615Y-79142775D01*
X148716141Y-79131284D01*
X148714441Y-79119936D01*
X148712514Y-79108734D01*
X148710361Y-79097676D01*
X148707981Y-79086763D01*
X148705374Y-79075994D01*
X148702540Y-79065370D01*
X148699480Y-79054891D01*
X148696193Y-79044556D01*
X148692679Y-79034366D01*
X148688939Y-79024320D01*
X148684972Y-79014420D01*
X148680778Y-79004663D01*
X148676358Y-78995052D01*
X148671711Y-78985585D01*
X148666837Y-78976263D01*
X148661736Y-78967085D01*
X148656409Y-78958052D01*
X148650855Y-78949164D01*
X148645075Y-78940420D01*
X148639068Y-78931821D01*
X148632834Y-78923367D01*
X148626373Y-78915057D01*
X148619686Y-78906892D01*
X148612772Y-78898871D01*
X148605631Y-78890995D01*
X148598304Y-78883314D01*
X148590831Y-78875876D01*
X148583213Y-78868682D01*
X148575449Y-78861732D01*
X148567539Y-78855026D01*
X148559483Y-78848563D01*
X148551281Y-78842345D01*
X148542934Y-78836370D01*
X148534441Y-78830640D01*
X148525802Y-78825153D01*
X148517017Y-78819910D01*
X148508087Y-78814911D01*
X148499010Y-78810155D01*
X148489788Y-78805644D01*
X148480420Y-78801376D01*
X148470907Y-78797353D01*
X148461247Y-78793573D01*
X148451442Y-78790037D01*
X148441491Y-78786745D01*
X148431394Y-78783696D01*
X148421152Y-78780892D01*
X148410763Y-78778331D01*
X148400229Y-78776015D01*
X148389549Y-78773942D01*
X148378724Y-78772113D01*
X148367752Y-78770528D01*
X148356635Y-78769187D01*
X148345372Y-78768089D01*
X148333963Y-78767236D01*
X148322409Y-78766626D01*
X148310708Y-78766260D01*
X148298862Y-78766138D01*
X148287598Y-78766256D01*
X148276473Y-78766610D01*
X148265485Y-78767200D01*
X148254636Y-78768025D01*
X148243925Y-78769086D01*
X148233352Y-78770384D01*
X148222917Y-78771917D01*
X148212620Y-78773685D01*
X148202461Y-78775690D01*
X148192441Y-78777931D01*
X148182559Y-78780407D01*
X148172814Y-78783119D01*
X148163208Y-78786067D01*
X148153741Y-78789251D01*
X148144411Y-78792671D01*
X148135219Y-78796327D01*
X148126166Y-78800218D01*
X148117251Y-78804346D01*
X148108474Y-78808709D01*
X148099835Y-78813308D01*
X148091334Y-78818143D01*
X148082971Y-78823213D01*
X148074747Y-78828520D01*
X148066660Y-78834062D01*
X148058712Y-78839841D01*
X148050902Y-78845855D01*
X148043230Y-78852105D01*
X148035696Y-78858590D01*
X148028301Y-78865312D01*
X148021043Y-78872270D01*
X148013924Y-78879463D01*
X148006943Y-78886892D01*
X148000139Y-78894506D01*
X147993551Y-78902255D01*
X147987179Y-78910138D01*
X147981023Y-78918155D01*
X147975083Y-78926307D01*
X147969359Y-78934593D01*
X147963851Y-78943013D01*
X147958558Y-78951568D01*
X147953482Y-78960256D01*
X147948622Y-78969080D01*
X147943978Y-78978037D01*
X147939550Y-78987129D01*
X147935338Y-78996356D01*
X147931342Y-79005716D01*
X147927562Y-79015211D01*
X147923998Y-79024840D01*
X147920650Y-79034604D01*
X147917518Y-79044502D01*
X147914602Y-79054534D01*
X147911902Y-79064701D01*
X147909418Y-79075002D01*
X147907150Y-79085437D01*
X147905098Y-79096007D01*
X147903262Y-79106711D01*
X147901642Y-79117549D01*
X147900238Y-79128521D01*
X147899050Y-79139628D01*
X147898078Y-79150870D01*
X147897322Y-79162245D01*
X147896782Y-79173755D01*
X147896458Y-79185400D01*
X147896350Y-79197178D01*
X147542064Y-79197178D01*
X147542064Y-78411852D01*
X150524244Y-78411852D01*
X150524244Y-79995791D01*
G37*
G36*
X128094884Y-86230695D02*
G01*
X127996015Y-86230695D01*
X127987997Y-86230620D01*
X127980088Y-86230395D01*
X127964596Y-86229495D01*
X127949539Y-86227996D01*
X127934918Y-86225896D01*
X127920731Y-86223196D01*
X127906979Y-86219897D01*
X127893663Y-86215997D01*
X127880781Y-86211498D01*
X127868335Y-86206398D01*
X127856323Y-86200699D01*
X127844747Y-86194400D01*
X127833606Y-86187501D01*
X127822899Y-86180002D01*
X127812628Y-86171903D01*
X127802792Y-86163204D01*
X127793391Y-86153905D01*
X127784471Y-86144094D01*
X127776126Y-86133856D01*
X127768357Y-86123193D01*
X127761163Y-86112103D01*
X127754545Y-86100588D01*
X127748502Y-86088647D01*
X127743035Y-86076280D01*
X127738143Y-86063487D01*
X127733827Y-86050268D01*
X127730086Y-86036623D01*
X127726921Y-86022552D01*
X127724331Y-86008056D01*
X127722317Y-85993133D01*
X127720878Y-85977785D01*
X127720375Y-85969951D01*
X127720015Y-85962011D01*
X127719799Y-85953964D01*
X127719727Y-85945810D01*
X127719803Y-85937939D01*
X127720404Y-85922525D01*
X127721607Y-85907546D01*
X127723411Y-85893005D01*
X127725817Y-85878900D01*
X127728824Y-85865231D01*
X127732433Y-85851999D01*
X127736643Y-85839204D01*
X127741455Y-85826845D01*
X127746868Y-85814923D01*
X127752882Y-85803438D01*
X127759498Y-85792389D01*
X127766715Y-85781777D01*
X127774534Y-85771601D01*
X127782955Y-85761862D01*
X127791976Y-85752559D01*
X127796713Y-85748071D01*
X127806492Y-85739459D01*
X127816634Y-85731402D01*
X127827137Y-85723900D01*
X127838002Y-85716955D01*
X127849229Y-85710565D01*
X127860817Y-85704730D01*
X127872768Y-85699452D01*
X127885080Y-85694729D01*
X127897754Y-85690561D01*
X127910789Y-85686950D01*
X127924187Y-85683894D01*
X127937946Y-85681393D01*
X127952067Y-85679448D01*
X127966550Y-85678059D01*
X127981395Y-85677226D01*
X127996601Y-85676948D01*
X128094884Y-85676948D01*
X128094884Y-86230695D01*
G37*
G36*
X125965868Y-86230695D02*
G01*
X125866999Y-86230695D01*
X125858981Y-86230620D01*
X125851072Y-86230395D01*
X125835580Y-86229495D01*
X125820523Y-86227996D01*
X125805901Y-86225896D01*
X125791715Y-86223196D01*
X125777963Y-86219897D01*
X125764647Y-86215997D01*
X125751765Y-86211498D01*
X125739319Y-86206398D01*
X125727307Y-86200699D01*
X125715731Y-86194400D01*
X125704590Y-86187501D01*
X125693883Y-86180002D01*
X125683612Y-86171903D01*
X125673776Y-86163204D01*
X125664375Y-86153905D01*
X125655455Y-86144094D01*
X125647110Y-86133856D01*
X125639341Y-86123193D01*
X125632147Y-86112103D01*
X125625529Y-86100588D01*
X125619486Y-86088647D01*
X125614019Y-86076280D01*
X125609127Y-86063487D01*
X125604811Y-86050268D01*
X125601070Y-86036623D01*
X125597905Y-86022552D01*
X125595315Y-86008056D01*
X125593301Y-85993133D01*
X125591862Y-85977785D01*
X125591359Y-85969951D01*
X125590999Y-85962011D01*
X125590783Y-85953964D01*
X125590711Y-85945810D01*
X125590786Y-85937939D01*
X125591388Y-85922525D01*
X125592591Y-85907546D01*
X125594395Y-85893005D01*
X125596801Y-85878900D01*
X125599808Y-85865231D01*
X125603417Y-85851999D01*
X125607627Y-85839204D01*
X125612439Y-85826845D01*
X125617852Y-85814923D01*
X125623866Y-85803438D01*
X125630482Y-85792389D01*
X125637699Y-85781777D01*
X125645518Y-85771601D01*
X125653939Y-85761862D01*
X125662960Y-85752559D01*
X125667697Y-85748071D01*
X125677476Y-85739459D01*
X125687618Y-85731402D01*
X125698121Y-85723900D01*
X125708986Y-85716955D01*
X125720213Y-85710565D01*
X125731801Y-85704730D01*
X125743752Y-85699452D01*
X125756064Y-85694729D01*
X125768738Y-85690561D01*
X125781773Y-85686950D01*
X125795171Y-85683894D01*
X125808930Y-85681393D01*
X125823051Y-85679448D01*
X125837534Y-85678059D01*
X125852379Y-85677226D01*
X125867585Y-85676948D01*
X125965868Y-85676948D01*
X125965868Y-86230695D01*
G37*
G36*
X128624244Y-86745791D02*
G01*
X124287591Y-86745791D01*
X124287591Y-86346955D01*
X124641877Y-86346955D01*
X124653748Y-86352350D01*
X124666063Y-86357396D01*
X124678820Y-86362095D01*
X124692020Y-86366445D01*
X124705662Y-86370448D01*
X124719747Y-86374102D01*
X124734275Y-86377409D01*
X124749246Y-86380367D01*
X124764659Y-86382978D01*
X124772532Y-86384152D01*
X124780515Y-86385240D01*
X124788609Y-86386241D01*
X124796814Y-86387154D01*
X124805129Y-86387981D01*
X124813555Y-86388720D01*
X124822092Y-86389373D01*
X124830739Y-86389939D01*
X124839497Y-86390417D01*
X124848366Y-86390809D01*
X124857345Y-86391113D01*
X124866435Y-86391331D01*
X124875636Y-86391461D01*
X124884947Y-86391505D01*
X124896935Y-86391393D01*
X124908767Y-86391057D01*
X124920443Y-86390498D01*
X124931964Y-86389716D01*
X124943329Y-86388709D01*
X124954538Y-86387479D01*
X124965592Y-86386026D01*
X124976489Y-86384348D01*
X124987231Y-86382448D01*
X124997818Y-86380323D01*
X125008249Y-86377975D01*
X125018524Y-86375403D01*
X125028643Y-86372608D01*
X125038606Y-86369589D01*
X125048414Y-86366346D01*
X125058066Y-86362879D01*
X125067563Y-86359189D01*
X125076904Y-86355276D01*
X125086089Y-86351139D01*
X125095118Y-86346778D01*
X125103992Y-86342193D01*
X125112710Y-86337385D01*
X125121272Y-86332353D01*
X125129678Y-86327098D01*
X125137929Y-86321619D01*
X125146024Y-86315916D01*
X125153964Y-86309990D01*
X125161748Y-86303840D01*
X125169376Y-86297466D01*
X125176848Y-86290869D01*
X125184164Y-86284048D01*
X125191325Y-86277004D01*
X125198298Y-86269773D01*
X125205049Y-86262393D01*
X125211578Y-86254865D01*
X125217887Y-86247188D01*
X125223974Y-86239362D01*
X125229839Y-86231387D01*
X125235484Y-86223263D01*
X125240907Y-86214990D01*
X125246108Y-86206569D01*
X125251089Y-86197999D01*
X125255847Y-86189280D01*
X125260385Y-86180412D01*
X125264701Y-86171395D01*
X125268796Y-86162229D01*
X125272670Y-86152915D01*
X125276322Y-86143452D01*
X125279753Y-86133840D01*
X125282962Y-86124079D01*
X125285950Y-86114169D01*
X125288717Y-86104110D01*
X125291263Y-86093903D01*
X125293587Y-86083547D01*
X125295690Y-86073041D01*
X125297571Y-86062387D01*
X125299231Y-86051585D01*
X125300670Y-86040633D01*
X125301887Y-86029533D01*
X125302883Y-86018283D01*
X125303658Y-86006885D01*
X125304211Y-85995338D01*
X125304543Y-85983642D01*
X125304654Y-85971798D01*
X125304531Y-85959339D01*
X125304160Y-85947023D01*
X125303960Y-85943075D01*
X125403133Y-85943075D01*
X125403160Y-85945810D01*
X125403255Y-85955321D01*
X125403623Y-85967415D01*
X125404235Y-85979358D01*
X125405093Y-85991148D01*
X125406195Y-86002787D01*
X125407543Y-86014273D01*
X125409135Y-86025608D01*
X125410973Y-86036791D01*
X125413056Y-86047822D01*
X125415383Y-86058701D01*
X125417956Y-86069428D01*
X125420773Y-86080004D01*
X125423836Y-86090427D01*
X125427143Y-86100699D01*
X125430696Y-86110818D01*
X125434494Y-86120786D01*
X125438536Y-86130602D01*
X125442824Y-86140266D01*
X125447356Y-86149778D01*
X125452134Y-86159138D01*
X125457157Y-86168347D01*
X125462424Y-86177403D01*
X125467937Y-86186308D01*
X125473695Y-86195060D01*
X125479697Y-86203661D01*
X125485945Y-86212110D01*
X125492438Y-86220407D01*
X125499175Y-86228552D01*
X125506158Y-86236545D01*
X125513386Y-86244387D01*
X125520858Y-86252076D01*
X125528576Y-86259614D01*
X125536475Y-86266959D01*
X125544516Y-86274070D01*
X125552699Y-86280949D01*
X125561024Y-86287595D01*
X125569490Y-86294007D01*
X125578099Y-86300186D01*
X125586850Y-86306132D01*
X125595743Y-86311845D01*
X125604777Y-86317325D01*
X125613954Y-86322571D01*
X125623273Y-86327584D01*
X125632733Y-86332364D01*
X125642336Y-86336911D01*
X125652080Y-86341225D01*
X125661967Y-86345306D01*
X125671995Y-86349153D01*
X125682166Y-86352767D01*
X125692478Y-86356148D01*
X125702932Y-86359296D01*
X125713529Y-86362211D01*
X125724267Y-86364892D01*
X125735147Y-86367341D01*
X125746170Y-86369556D01*
X125757334Y-86371538D01*
X125768640Y-86373287D01*
X125780088Y-86374802D01*
X125791678Y-86376085D01*
X125803410Y-86377134D01*
X125815284Y-86377950D01*
X125827300Y-86378533D01*
X125839458Y-86378883D01*
X125851758Y-86379000D01*
X126140942Y-86379000D01*
X126140942Y-86346955D01*
X126770893Y-86346955D01*
X126782764Y-86352350D01*
X126795079Y-86357396D01*
X126807836Y-86362095D01*
X126821036Y-86366445D01*
X126834678Y-86370448D01*
X126848763Y-86374102D01*
X126863291Y-86377409D01*
X126878262Y-86380367D01*
X126893675Y-86382978D01*
X126901548Y-86384152D01*
X126909531Y-86385240D01*
X126917625Y-86386241D01*
X126925830Y-86387154D01*
X126934145Y-86387981D01*
X126942571Y-86388720D01*
X126951108Y-86389373D01*
X126959755Y-86389939D01*
X126968513Y-86390417D01*
X126977382Y-86390809D01*
X126986361Y-86391113D01*
X126995451Y-86391331D01*
X127004652Y-86391461D01*
X127013963Y-86391505D01*
X127025951Y-86391393D01*
X127037783Y-86391057D01*
X127049459Y-86390498D01*
X127060980Y-86389716D01*
X127072345Y-86388709D01*
X127083554Y-86387479D01*
X127094608Y-86386026D01*
X127105505Y-86384348D01*
X127116248Y-86382448D01*
X127126834Y-86380323D01*
X127137265Y-86377975D01*
X127147540Y-86375403D01*
X127157659Y-86372608D01*
X127167622Y-86369589D01*
X127177430Y-86366346D01*
X127187083Y-86362879D01*
X127196579Y-86359189D01*
X127205920Y-86355276D01*
X127215105Y-86351139D01*
X127224134Y-86346778D01*
X127233008Y-86342193D01*
X127241726Y-86337385D01*
X127250288Y-86332353D01*
X127258695Y-86327098D01*
X127266945Y-86321619D01*
X127275040Y-86315916D01*
X127282980Y-86309990D01*
X127290764Y-86303840D01*
X127298392Y-86297466D01*
X127305864Y-86290869D01*
X127313181Y-86284048D01*
X127320341Y-86277004D01*
X127327314Y-86269773D01*
X127334065Y-86262393D01*
X127340595Y-86254865D01*
X127346903Y-86247188D01*
X127352990Y-86239362D01*
X127358855Y-86231387D01*
X127364500Y-86223263D01*
X127369923Y-86214990D01*
X127375124Y-86206569D01*
X127380105Y-86197999D01*
X127384864Y-86189280D01*
X127389401Y-86180412D01*
X127393717Y-86171395D01*
X127397812Y-86162229D01*
X127401686Y-86152915D01*
X127405338Y-86143452D01*
X127408769Y-86133840D01*
X127411978Y-86124079D01*
X127414966Y-86114169D01*
X127417733Y-86104110D01*
X127420279Y-86093903D01*
X127422603Y-86083547D01*
X127424706Y-86073041D01*
X127426587Y-86062387D01*
X127428247Y-86051585D01*
X127429686Y-86040633D01*
X127430903Y-86029533D01*
X127431899Y-86018283D01*
X127432674Y-86006885D01*
X127433227Y-85995338D01*
X127433559Y-85983642D01*
X127433670Y-85971798D01*
X127433547Y-85959339D01*
X127433176Y-85947023D01*
X127432976Y-85943075D01*
X127532149Y-85943075D01*
X127532176Y-85945810D01*
X127532271Y-85955321D01*
X127532639Y-85967415D01*
X127533251Y-85979358D01*
X127534109Y-85991148D01*
X127535211Y-86002787D01*
X127536559Y-86014273D01*
X127538151Y-86025608D01*
X127539989Y-86036791D01*
X127542072Y-86047822D01*
X127544399Y-86058701D01*
X127546972Y-86069428D01*
X127549789Y-86080004D01*
X127552852Y-86090427D01*
X127556159Y-86100699D01*
X127559712Y-86110818D01*
X127563510Y-86120786D01*
X127567552Y-86130602D01*
X127571840Y-86140266D01*
X127576372Y-86149778D01*
X127581150Y-86159138D01*
X127586173Y-86168347D01*
X127591440Y-86177403D01*
X127596953Y-86186308D01*
X127602711Y-86195060D01*
X127608713Y-86203661D01*
X127614961Y-86212110D01*
X127621454Y-86220407D01*
X127628191Y-86228552D01*
X127635174Y-86236545D01*
X127642402Y-86244387D01*
X127649874Y-86252076D01*
X127657592Y-86259614D01*
X127665491Y-86266959D01*
X127673532Y-86274070D01*
X127681715Y-86280949D01*
X127690040Y-86287595D01*
X127698506Y-86294007D01*
X127707115Y-86300186D01*
X127715866Y-86306132D01*
X127724759Y-86311845D01*
X127733793Y-86317325D01*
X127742970Y-86322571D01*
X127752289Y-86327584D01*
X127761749Y-86332364D01*
X127771352Y-86336911D01*
X127781096Y-86341225D01*
X127790983Y-86345306D01*
X127801011Y-86349153D01*
X127811182Y-86352767D01*
X127821494Y-86356148D01*
X127831949Y-86359296D01*
X127842545Y-86362211D01*
X127853283Y-86364892D01*
X127864163Y-86367341D01*
X127875186Y-86369556D01*
X127886350Y-86371538D01*
X127897656Y-86373287D01*
X127909104Y-86374802D01*
X127920694Y-86376085D01*
X127932426Y-86377134D01*
X127944300Y-86377950D01*
X127956316Y-86378533D01*
X127968474Y-86378883D01*
X127980774Y-86379000D01*
X128269958Y-86379000D01*
X128269958Y-85528644D01*
X127979797Y-85528644D01*
X127952256Y-85529048D01*
X127925590Y-85530262D01*
X127899797Y-85532286D01*
X127874880Y-85535119D01*
X127850836Y-85538762D01*
X127827667Y-85543213D01*
X127805372Y-85548475D01*
X127783951Y-85554546D01*
X127763405Y-85561426D01*
X127743733Y-85569115D01*
X127724935Y-85577614D01*
X127707011Y-85586923D01*
X127689962Y-85597041D01*
X127673788Y-85607968D01*
X127658487Y-85619705D01*
X127644061Y-85632251D01*
X127630509Y-85645607D01*
X127617832Y-85659772D01*
X127606028Y-85674747D01*
X127595099Y-85690531D01*
X127585045Y-85707124D01*
X127575864Y-85724527D01*
X127567559Y-85742739D01*
X127560127Y-85761761D01*
X127553570Y-85781592D01*
X127547886Y-85802233D01*
X127543078Y-85823683D01*
X127539143Y-85845943D01*
X127536083Y-85869011D01*
X127533897Y-85892890D01*
X127532586Y-85917578D01*
X127532149Y-85943075D01*
X127432976Y-85943075D01*
X127432559Y-85934849D01*
X127431695Y-85922818D01*
X127430584Y-85910929D01*
X127429226Y-85899182D01*
X127427621Y-85887578D01*
X127425769Y-85876116D01*
X127423670Y-85864796D01*
X127421324Y-85853619D01*
X127418732Y-85842584D01*
X127415892Y-85831691D01*
X127412806Y-85820941D01*
X127409473Y-85810333D01*
X127405892Y-85799867D01*
X127402065Y-85789544D01*
X127397991Y-85779363D01*
X127393670Y-85769324D01*
X127389102Y-85759428D01*
X127384287Y-85749674D01*
X127379226Y-85740063D01*
X127373917Y-85730594D01*
X127368361Y-85721267D01*
X127362559Y-85712082D01*
X127356509Y-85703040D01*
X127350213Y-85694140D01*
X127343670Y-85685383D01*
X127336880Y-85676768D01*
X127329843Y-85668295D01*
X127322559Y-85659965D01*
X127315028Y-85651777D01*
X127307250Y-85643731D01*
X127299265Y-85635881D01*
X127291135Y-85628280D01*
X127282862Y-85620929D01*
X127274445Y-85613826D01*
X127265884Y-85606973D01*
X127257179Y-85600369D01*
X127248331Y-85594015D01*
X127239338Y-85587909D01*
X127230202Y-85582053D01*
X127220922Y-85576446D01*
X127211497Y-85571088D01*
X127201929Y-85565979D01*
X127192218Y-85561120D01*
X127182362Y-85556509D01*
X127172362Y-85552148D01*
X127162219Y-85548036D01*
X127151931Y-85544174D01*
X127141500Y-85540560D01*
X127130925Y-85537196D01*
X127120206Y-85534081D01*
X127109343Y-85531215D01*
X127098336Y-85528599D01*
X127087186Y-85526231D01*
X127075891Y-85524113D01*
X127064453Y-85522244D01*
X127052870Y-85520624D01*
X127041144Y-85519253D01*
X127029274Y-85518132D01*
X127017260Y-85517260D01*
X127005103Y-85516637D01*
X126992801Y-85516263D01*
X126980355Y-85516138D01*
X126964883Y-85516264D01*
X126949727Y-85516642D01*
X126934890Y-85517272D01*
X126920369Y-85518153D01*
X126906167Y-85519287D01*
X126892281Y-85520672D01*
X126878714Y-85522309D01*
X126865464Y-85524198D01*
X126852531Y-85526339D01*
X126839916Y-85528732D01*
X126827618Y-85531377D01*
X126815638Y-85534273D01*
X126803975Y-85537422D01*
X126792630Y-85540822D01*
X126781603Y-85544474D01*
X126770893Y-85548378D01*
X126770893Y-85723256D01*
X126781901Y-85717199D01*
X126793091Y-85711533D01*
X126804463Y-85706257D01*
X126816017Y-85701372D01*
X126827752Y-85696878D01*
X126839668Y-85692775D01*
X126851767Y-85689062D01*
X126864047Y-85685741D01*
X126876509Y-85682810D01*
X126889152Y-85680270D01*
X126901977Y-85678120D01*
X126914984Y-85676362D01*
X126928172Y-85674994D01*
X126941542Y-85674017D01*
X126955094Y-85673431D01*
X126968827Y-85673235D01*
X126976655Y-85673313D01*
X126992015Y-85673931D01*
X127006981Y-85675167D01*
X127021553Y-85677022D01*
X127035731Y-85679495D01*
X127049515Y-85682586D01*
X127062906Y-85686296D01*
X127075903Y-85690623D01*
X127088506Y-85695569D01*
X127100715Y-85701133D01*
X127112530Y-85707316D01*
X127123951Y-85714116D01*
X127134979Y-85721535D01*
X127145613Y-85729572D01*
X127155853Y-85738228D01*
X127165699Y-85747501D01*
X127170474Y-85752370D01*
X127179631Y-85762427D01*
X127188197Y-85772862D01*
X127196172Y-85783676D01*
X127203557Y-85794868D01*
X127210350Y-85806439D01*
X127216553Y-85818389D01*
X127222166Y-85830717D01*
X127227187Y-85843424D01*
X127231618Y-85856509D01*
X127235458Y-85869973D01*
X127238707Y-85883815D01*
X127241366Y-85898036D01*
X127243433Y-85912636D01*
X127244910Y-85927614D01*
X127245796Y-85942971D01*
X127246018Y-85950791D01*
X127246092Y-85958706D01*
X127245811Y-85974051D01*
X127244971Y-85989017D01*
X127243571Y-86003604D01*
X127241610Y-86017813D01*
X127239089Y-86031643D01*
X127236007Y-86045095D01*
X127232366Y-86058168D01*
X127228164Y-86070863D01*
X127223402Y-86083179D01*
X127218080Y-86095116D01*
X127212198Y-86106675D01*
X127205755Y-86117855D01*
X127198752Y-86128657D01*
X127191189Y-86139080D01*
X127183066Y-86149124D01*
X127174382Y-86158790D01*
X127165221Y-86167947D01*
X127155664Y-86176513D01*
X127145712Y-86184488D01*
X127135364Y-86191873D01*
X127124621Y-86198667D01*
X127113483Y-86204870D01*
X127101949Y-86210482D01*
X127090020Y-86215503D01*
X127077696Y-86219934D01*
X127064976Y-86223774D01*
X127051861Y-86227023D01*
X127038351Y-86229682D01*
X127024445Y-86231749D01*
X127010144Y-86233226D01*
X126995447Y-86234112D01*
X126980355Y-86234408D01*
X126966073Y-86234212D01*
X126951950Y-86233626D01*
X126937985Y-86232649D01*
X126924180Y-86231281D01*
X126910532Y-86229523D01*
X126897044Y-86227374D01*
X126883715Y-86224833D01*
X126870544Y-86221903D01*
X126857532Y-86218581D01*
X126844678Y-86214868D01*
X126831984Y-86210765D01*
X126819448Y-86206271D01*
X126807071Y-86201386D01*
X126794853Y-86196110D01*
X126782793Y-86190444D01*
X126770893Y-86184387D01*
X126770893Y-86346955D01*
X126140942Y-86346955D01*
X126140942Y-85991337D01*
X126316796Y-85991337D01*
X126316796Y-86116585D01*
X126641933Y-86116585D01*
X126641933Y-85991337D01*
X126316796Y-85991337D01*
X126140942Y-85991337D01*
X126140942Y-85528644D01*
X125850781Y-85528644D01*
X125823240Y-85529048D01*
X125796574Y-85530262D01*
X125770781Y-85532286D01*
X125745864Y-85535119D01*
X125721820Y-85538762D01*
X125698651Y-85543213D01*
X125676356Y-85548475D01*
X125654935Y-85554546D01*
X125634389Y-85561426D01*
X125614717Y-85569115D01*
X125595919Y-85577614D01*
X125577995Y-85586923D01*
X125560946Y-85597041D01*
X125544772Y-85607968D01*
X125529471Y-85619705D01*
X125515045Y-85632251D01*
X125501493Y-85645607D01*
X125488815Y-85659772D01*
X125477012Y-85674747D01*
X125466083Y-85690531D01*
X125456029Y-85707124D01*
X125446848Y-85724527D01*
X125438542Y-85742739D01*
X125431111Y-85761761D01*
X125424553Y-85781592D01*
X125418870Y-85802233D01*
X125414062Y-85823683D01*
X125410127Y-85845943D01*
X125407067Y-85869011D01*
X125404881Y-85892890D01*
X125403570Y-85917578D01*
X125403133Y-85943075D01*
X125303960Y-85943075D01*
X125303543Y-85934849D01*
X125302679Y-85922818D01*
X125301568Y-85910929D01*
X125300210Y-85899182D01*
X125298605Y-85887578D01*
X125296753Y-85876116D01*
X125294654Y-85864796D01*
X125292308Y-85853619D01*
X125289716Y-85842584D01*
X125286876Y-85831691D01*
X125283790Y-85820941D01*
X125280456Y-85810333D01*
X125276876Y-85799867D01*
X125273049Y-85789544D01*
X125268975Y-85779363D01*
X125264654Y-85769324D01*
X125260086Y-85759428D01*
X125255271Y-85749674D01*
X125250209Y-85740063D01*
X125244901Y-85730594D01*
X125239345Y-85721267D01*
X125233543Y-85712082D01*
X125227493Y-85703040D01*
X125221197Y-85694140D01*
X125214654Y-85685383D01*
X125207864Y-85676768D01*
X125200827Y-85668295D01*
X125193543Y-85659965D01*
X125186012Y-85651777D01*
X125178234Y-85643731D01*
X125170249Y-85635881D01*
X125162119Y-85628280D01*
X125153846Y-85620929D01*
X125145429Y-85613826D01*
X125136868Y-85606973D01*
X125128163Y-85600369D01*
X125119315Y-85594015D01*
X125110322Y-85587909D01*
X125101186Y-85582053D01*
X125091906Y-85576446D01*
X125082481Y-85571088D01*
X125072913Y-85565979D01*
X125063202Y-85561120D01*
X125053346Y-85556509D01*
X125043346Y-85552148D01*
X125033203Y-85548036D01*
X125022915Y-85544174D01*
X125012484Y-85540560D01*
X125001909Y-85537196D01*
X124991190Y-85534081D01*
X124980327Y-85531215D01*
X124969320Y-85528599D01*
X124958169Y-85526231D01*
X124946875Y-85524113D01*
X124935437Y-85522244D01*
X124923854Y-85520624D01*
X124912128Y-85519253D01*
X124900258Y-85518132D01*
X124888244Y-85517260D01*
X124876086Y-85516637D01*
X124863785Y-85516263D01*
X124851339Y-85516138D01*
X124835867Y-85516264D01*
X124820711Y-85516642D01*
X124805874Y-85517272D01*
X124791353Y-85518153D01*
X124777151Y-85519287D01*
X124763265Y-85520672D01*
X124749698Y-85522309D01*
X124736448Y-85524198D01*
X124723515Y-85526339D01*
X124710900Y-85528732D01*
X124698602Y-85531377D01*
X124686622Y-85534273D01*
X124674959Y-85537422D01*
X124663614Y-85540822D01*
X124652587Y-85544474D01*
X124641877Y-85548378D01*
X124641877Y-85723256D01*
X124652885Y-85717199D01*
X124664075Y-85711533D01*
X124675447Y-85706257D01*
X124687001Y-85701372D01*
X124698736Y-85696878D01*
X124710652Y-85692775D01*
X124722751Y-85689062D01*
X124735031Y-85685741D01*
X124747493Y-85682810D01*
X124760136Y-85680270D01*
X124772961Y-85678120D01*
X124785968Y-85676362D01*
X124799156Y-85674994D01*
X124812526Y-85674017D01*
X124826078Y-85673431D01*
X124839811Y-85673235D01*
X124847639Y-85673313D01*
X124862999Y-85673931D01*
X124877964Y-85675167D01*
X124892537Y-85677022D01*
X124906715Y-85679495D01*
X124920499Y-85682586D01*
X124933890Y-85686296D01*
X124946887Y-85690623D01*
X124959490Y-85695569D01*
X124971699Y-85701133D01*
X124983514Y-85707316D01*
X124994935Y-85714116D01*
X125005963Y-85721535D01*
X125016597Y-85729572D01*
X125026837Y-85738228D01*
X125036683Y-85747501D01*
X125041458Y-85752370D01*
X125050615Y-85762427D01*
X125059181Y-85772862D01*
X125067156Y-85783676D01*
X125074541Y-85794868D01*
X125081334Y-85806439D01*
X125087537Y-85818389D01*
X125093150Y-85830717D01*
X125098171Y-85843424D01*
X125102602Y-85856509D01*
X125106442Y-85869973D01*
X125109691Y-85883815D01*
X125112349Y-85898036D01*
X125114417Y-85912636D01*
X125115894Y-85927614D01*
X125116780Y-85942971D01*
X125117002Y-85950791D01*
X125117076Y-85958706D01*
X125116795Y-85974051D01*
X125115955Y-85989017D01*
X125114555Y-86003604D01*
X125112594Y-86017813D01*
X125110073Y-86031643D01*
X125106991Y-86045095D01*
X125103350Y-86058168D01*
X125099148Y-86070863D01*
X125094386Y-86083179D01*
X125089064Y-86095116D01*
X125083182Y-86106675D01*
X125076739Y-86117855D01*
X125069736Y-86128657D01*
X125062173Y-86139080D01*
X125054049Y-86149124D01*
X125045366Y-86158790D01*
X125036204Y-86167947D01*
X125026648Y-86176513D01*
X125016696Y-86184488D01*
X125006348Y-86191873D01*
X124995605Y-86198667D01*
X124984467Y-86204870D01*
X124972933Y-86210482D01*
X124961004Y-86215503D01*
X124948680Y-86219934D01*
X124935960Y-86223774D01*
X124922845Y-86227023D01*
X124909335Y-86229682D01*
X124895429Y-86231749D01*
X124881128Y-86233226D01*
X124866431Y-86234112D01*
X124851339Y-86234408D01*
X124837057Y-86234212D01*
X124822934Y-86233626D01*
X124808969Y-86232649D01*
X124795163Y-86231281D01*
X124781516Y-86229523D01*
X124768028Y-86227374D01*
X124754699Y-86224833D01*
X124741528Y-86221903D01*
X124728516Y-86218581D01*
X124715662Y-86214868D01*
X124702968Y-86210765D01*
X124690432Y-86206271D01*
X124678055Y-86201386D01*
X124665837Y-86196110D01*
X124653777Y-86190444D01*
X124641877Y-86184387D01*
X124641877Y-86346955D01*
X124287591Y-86346955D01*
X124287591Y-85161852D01*
X128624244Y-85161852D01*
X128624244Y-86745791D01*
G37*
G36*
X136303387Y-107425362D02*
G01*
X136314698Y-107427077D01*
X136325228Y-107429935D01*
X136334979Y-107433937D01*
X136343949Y-107439082D01*
X136352140Y-107445371D01*
X136359551Y-107452803D01*
X136366181Y-107461378D01*
X136372031Y-107471096D01*
X136377102Y-107481958D01*
X136381392Y-107493964D01*
X136384902Y-107507112D01*
X136387632Y-107521404D01*
X136389582Y-107536840D01*
X136390265Y-107544986D01*
X136390753Y-107553418D01*
X136391045Y-107562136D01*
X136391143Y-107571140D01*
X136391143Y-107649884D01*
X136176209Y-107649884D01*
X136176209Y-107561566D01*
X136176327Y-107553710D01*
X136176948Y-107542323D01*
X136178102Y-107531414D01*
X136179788Y-107520983D01*
X136182006Y-107511028D01*
X136184756Y-107501552D01*
X136188039Y-107492552D01*
X136191855Y-107484030D01*
X136196202Y-107475986D01*
X136201083Y-107468419D01*
X136206495Y-107461329D01*
X136212387Y-107454799D01*
X136218704Y-107448911D01*
X136225447Y-107443666D01*
X136232617Y-107439063D01*
X136240212Y-107435102D01*
X136248233Y-107431784D01*
X136256680Y-107429108D01*
X136265553Y-107427074D01*
X136274852Y-107425682D01*
X136284576Y-107424933D01*
X136291296Y-107424790D01*
X136303387Y-107425362D01*
G37*
G36*
X135938487Y-107387625D02*
G01*
X135947719Y-107388676D01*
X135956535Y-107390427D01*
X135964936Y-107392880D01*
X135972921Y-107396033D01*
X135980490Y-107399887D01*
X135987644Y-107404441D01*
X135994382Y-107409696D01*
X136000705Y-107415652D01*
X136006612Y-107422308D01*
X136010319Y-107427135D01*
X136015522Y-107434869D01*
X136020213Y-107443198D01*
X136024393Y-107452120D01*
X136028060Y-107461637D01*
X136031216Y-107471748D01*
X136033860Y-107482454D01*
X136035993Y-107493753D01*
X136037130Y-107501616D01*
X136038040Y-107509743D01*
X136038722Y-107518135D01*
X136039177Y-107526790D01*
X136039404Y-107535709D01*
X136039433Y-107540268D01*
X136039433Y-107649884D01*
X135811212Y-107649884D01*
X135811212Y-107538510D01*
X135811334Y-107529741D01*
X135811698Y-107521214D01*
X135812305Y-107512931D01*
X135813154Y-107504890D01*
X135814246Y-107497091D01*
X135816340Y-107485849D01*
X135818979Y-107475153D01*
X135822165Y-107465003D01*
X135825897Y-107455399D01*
X135830175Y-107446341D01*
X135834999Y-107437830D01*
X135840369Y-107429864D01*
X135842280Y-107427330D01*
X135848353Y-107420172D01*
X135854849Y-107413718D01*
X135861767Y-107407967D01*
X135869107Y-107402921D01*
X135876870Y-107398579D01*
X135885055Y-107394941D01*
X135893663Y-107392008D01*
X135902693Y-107389778D01*
X135912146Y-107388252D01*
X135922022Y-107387431D01*
X135928840Y-107387274D01*
X135938487Y-107387625D01*
G37*
G36*
X136117060Y-105897664D02*
G01*
X136132474Y-105898265D01*
X136147453Y-105899468D01*
X136161994Y-105901272D01*
X136176099Y-105903678D01*
X136189768Y-105906685D01*
X136203000Y-105910294D01*
X136215795Y-105914504D01*
X136228154Y-105919316D01*
X136240076Y-105924729D01*
X136251561Y-105930743D01*
X136262610Y-105937359D01*
X136273222Y-105944577D01*
X136283398Y-105952395D01*
X136293137Y-105960816D01*
X136302440Y-105969837D01*
X136306928Y-105974574D01*
X136315540Y-105984353D01*
X136323597Y-105994495D01*
X136331099Y-106004998D01*
X136338044Y-106015863D01*
X136344434Y-106027090D01*
X136350269Y-106038678D01*
X136355547Y-106050629D01*
X136360270Y-106062941D01*
X136364438Y-106075615D01*
X136368049Y-106088650D01*
X136371105Y-106102048D01*
X136373606Y-106115807D01*
X136375551Y-106129928D01*
X136376940Y-106144411D01*
X136377773Y-106159256D01*
X136378051Y-106174462D01*
X136378051Y-106272745D01*
X135824304Y-106272745D01*
X135824304Y-106173876D01*
X135824379Y-106165858D01*
X135824604Y-106157949D01*
X135825504Y-106142457D01*
X135827003Y-106127400D01*
X135829103Y-106112779D01*
X135831803Y-106098592D01*
X135835102Y-106084840D01*
X135839002Y-106071524D01*
X135843501Y-106058642D01*
X135848601Y-106046196D01*
X135854300Y-106034184D01*
X135860599Y-106022608D01*
X135867498Y-106011467D01*
X135874997Y-106000760D01*
X135883096Y-105990489D01*
X135891795Y-105980653D01*
X135901094Y-105971252D01*
X135910905Y-105962332D01*
X135921143Y-105953987D01*
X135931806Y-105946218D01*
X135942896Y-105939024D01*
X135954411Y-105932406D01*
X135966352Y-105926363D01*
X135978719Y-105920896D01*
X135991512Y-105916004D01*
X136004731Y-105911688D01*
X136018376Y-105907947D01*
X136032447Y-105904782D01*
X136046943Y-105902192D01*
X136061866Y-105900178D01*
X136077214Y-105898739D01*
X136085048Y-105898236D01*
X136092988Y-105897876D01*
X136101035Y-105897660D01*
X136109189Y-105897588D01*
X136117060Y-105897664D01*
G37*
G36*
X136893148Y-108179244D02*
G01*
X135309209Y-108179244D01*
X135309209Y-107824958D01*
X135676000Y-107824958D01*
X136526355Y-107824958D01*
X136526355Y-107524832D01*
X136526303Y-107516260D01*
X136526147Y-107507812D01*
X136525887Y-107499488D01*
X136525522Y-107491288D01*
X136525053Y-107483212D01*
X136524480Y-107475261D01*
X136523803Y-107467433D01*
X136522136Y-107452149D01*
X136520052Y-107437362D01*
X136517552Y-107423071D01*
X136514635Y-107409276D01*
X136511301Y-107395977D01*
X136507550Y-107383174D01*
X136503383Y-107370867D01*
X136498799Y-107359056D01*
X136493798Y-107347742D01*
X136488380Y-107336923D01*
X136482546Y-107326601D01*
X136476295Y-107316775D01*
X136473013Y-107312048D01*
X136466184Y-107302985D01*
X136459033Y-107294508D01*
X136451560Y-107286615D01*
X136443765Y-107279307D01*
X136435647Y-107272583D01*
X136427208Y-107266444D01*
X136418447Y-107260890D01*
X136409363Y-107255921D01*
X136399957Y-107251536D01*
X136390230Y-107247735D01*
X136380180Y-107244520D01*
X136369808Y-107241889D01*
X136359114Y-107239843D01*
X136348098Y-107238381D01*
X136336760Y-107237504D01*
X136325099Y-107237212D01*
X136316422Y-107237391D01*
X136307877Y-107237929D01*
X136299465Y-107238826D01*
X136291186Y-107240081D01*
X136283040Y-107241696D01*
X136275026Y-107243669D01*
X136267146Y-107246001D01*
X136259398Y-107248691D01*
X136251783Y-107251740D01*
X136244301Y-107255148D01*
X136236951Y-107258915D01*
X136229735Y-107263040D01*
X136222651Y-107267524D01*
X136215700Y-107272367D01*
X136208882Y-107277569D01*
X136202196Y-107283129D01*
X136195730Y-107288938D01*
X136189520Y-107294932D01*
X136183567Y-107301113D01*
X136177870Y-107307480D01*
X136172429Y-107314034D01*
X136167245Y-107320773D01*
X136162318Y-107327699D01*
X136157646Y-107334811D01*
X136153232Y-107342109D01*
X136149073Y-107349594D01*
X136145172Y-107357265D01*
X136141526Y-107365122D01*
X136138137Y-107373165D01*
X136135005Y-107381394D01*
X136132129Y-107389810D01*
X136129510Y-107398412D01*
X136127360Y-107398412D01*
X136125823Y-107387409D01*
X136123947Y-107376674D01*
X136121732Y-107366209D01*
X136119178Y-107356011D01*
X136116285Y-107346083D01*
X136113054Y-107336423D01*
X136109483Y-107327032D01*
X136105574Y-107317909D01*
X136101326Y-107309056D01*
X136096738Y-107300471D01*
X136091812Y-107292154D01*
X136086547Y-107284106D01*
X136080943Y-107276327D01*
X136075001Y-107268817D01*
X136068719Y-107261575D01*
X136062099Y-107254602D01*
X136055201Y-107247953D01*
X136048088Y-107241733D01*
X136040760Y-107235942D01*
X136033217Y-107230580D01*
X136025458Y-107225648D01*
X136017485Y-107221144D01*
X136009296Y-107217068D01*
X136000891Y-107213422D01*
X135992272Y-107210205D01*
X135983437Y-107207417D01*
X135974387Y-107205058D01*
X135965122Y-107203128D01*
X135955642Y-107201626D01*
X135945946Y-107200554D01*
X135936035Y-107199910D01*
X135925909Y-107199696D01*
X135911756Y-107200018D01*
X135897970Y-107200984D01*
X135884553Y-107202595D01*
X135871504Y-107204849D01*
X135858822Y-107207748D01*
X135846508Y-107211291D01*
X135834563Y-107215479D01*
X135822985Y-107220310D01*
X135811775Y-107225786D01*
X135800933Y-107231905D01*
X135790459Y-107238669D01*
X135780352Y-107246078D01*
X135770614Y-107254130D01*
X135761243Y-107262827D01*
X135752241Y-107272167D01*
X135743606Y-107282152D01*
X135735419Y-107292671D01*
X135727761Y-107303661D01*
X135720630Y-107315123D01*
X135714028Y-107327056D01*
X135707954Y-107339462D01*
X135702408Y-107352339D01*
X135697391Y-107365687D01*
X135692901Y-107379508D01*
X135688940Y-107393800D01*
X135685507Y-107408563D01*
X135682602Y-107423799D01*
X135681347Y-107431593D01*
X135680225Y-107439506D01*
X135679235Y-107447536D01*
X135678376Y-107455685D01*
X135677650Y-107463951D01*
X135677056Y-107472335D01*
X135676594Y-107480837D01*
X135676264Y-107489457D01*
X135676066Y-107498195D01*
X135676000Y-107507051D01*
X135676000Y-107649884D01*
X135676000Y-107824958D01*
X135309209Y-107824958D01*
X135309209Y-106559584D01*
X135676000Y-106559584D01*
X135676000Y-107059794D01*
X136526355Y-107059794D01*
X136526355Y-106872215D01*
X135824304Y-106872215D01*
X135824304Y-106559584D01*
X135676000Y-106559584D01*
X135309209Y-106559584D01*
X135309209Y-106447819D01*
X135676000Y-106447819D01*
X136526355Y-106447819D01*
X136526355Y-106157658D01*
X136525951Y-106130117D01*
X136524737Y-106103451D01*
X136522713Y-106077659D01*
X136519880Y-106052741D01*
X136516237Y-106028697D01*
X136511786Y-106005528D01*
X136506524Y-105983233D01*
X136500453Y-105961812D01*
X136493573Y-105941266D01*
X136485884Y-105921594D01*
X136477385Y-105902796D01*
X136468076Y-105884873D01*
X136457958Y-105867823D01*
X136447031Y-105851649D01*
X136435294Y-105836348D01*
X136422748Y-105821922D01*
X136409392Y-105808370D01*
X136395227Y-105795693D01*
X136380252Y-105783889D01*
X136364468Y-105772961D01*
X136347875Y-105762906D01*
X136330472Y-105753726D01*
X136312260Y-105745420D01*
X136293238Y-105737988D01*
X136273407Y-105731431D01*
X136252766Y-105725748D01*
X136231316Y-105720939D01*
X136209056Y-105717004D01*
X136185988Y-105713944D01*
X136162109Y-105711759D01*
X136137421Y-105710447D01*
X136111924Y-105710010D01*
X136099678Y-105710132D01*
X136087584Y-105710500D01*
X136075641Y-105711112D01*
X136063851Y-105711970D01*
X136052212Y-105713073D01*
X136040726Y-105714420D01*
X136029391Y-105716013D01*
X136018208Y-105717850D01*
X136007177Y-105719933D01*
X135996298Y-105722260D01*
X135985571Y-105724833D01*
X135974995Y-105727650D01*
X135964572Y-105730713D01*
X135954300Y-105734021D01*
X135944181Y-105737573D01*
X135934213Y-105741371D01*
X135924397Y-105745413D01*
X135914733Y-105749701D01*
X135905221Y-105754234D01*
X135895861Y-105759011D01*
X135886652Y-105764034D01*
X135877596Y-105769301D01*
X135868691Y-105774814D01*
X135859939Y-105780572D01*
X135851338Y-105786574D01*
X135842889Y-105792822D01*
X135834592Y-105799315D01*
X135826447Y-105806052D01*
X135818454Y-105813035D01*
X135810612Y-105820263D01*
X135802923Y-105827735D01*
X135795385Y-105835453D01*
X135788040Y-105843352D01*
X135780929Y-105851393D01*
X135774050Y-105859576D01*
X135767404Y-105867901D01*
X135760992Y-105876368D01*
X135754813Y-105884976D01*
X135748867Y-105893727D01*
X135743154Y-105902620D01*
X135737674Y-105911655D01*
X135732428Y-105920831D01*
X135727415Y-105930150D01*
X135722635Y-105939610D01*
X135718088Y-105949213D01*
X135713774Y-105958958D01*
X135709693Y-105968844D01*
X135705846Y-105978872D01*
X135702232Y-105989043D01*
X135698851Y-105999355D01*
X135695703Y-106009810D01*
X135692788Y-106020406D01*
X135690107Y-106031144D01*
X135687658Y-106042025D01*
X135685443Y-106053047D01*
X135683461Y-106064211D01*
X135681712Y-106075517D01*
X135680197Y-106086965D01*
X135678914Y-106098555D01*
X135677865Y-106110287D01*
X135677049Y-106122161D01*
X135676466Y-106134177D01*
X135676116Y-106146335D01*
X135676000Y-106158635D01*
X135676000Y-106272745D01*
X135676000Y-106447819D01*
X135309209Y-106447819D01*
X135309209Y-105191824D01*
X135663494Y-105191824D01*
X135663606Y-105203812D01*
X135663942Y-105215644D01*
X135664501Y-105227320D01*
X135665283Y-105238841D01*
X135666290Y-105250206D01*
X135667520Y-105261415D01*
X135668973Y-105272469D01*
X135670651Y-105283367D01*
X135672551Y-105294109D01*
X135674676Y-105304695D01*
X135677024Y-105315126D01*
X135679596Y-105325401D01*
X135682391Y-105335520D01*
X135685410Y-105345484D01*
X135688653Y-105355292D01*
X135692120Y-105364944D01*
X135695810Y-105374440D01*
X135699723Y-105383781D01*
X135703860Y-105392966D01*
X135708221Y-105401995D01*
X135712806Y-105410869D01*
X135717614Y-105419587D01*
X135722646Y-105428149D01*
X135727901Y-105436556D01*
X135733380Y-105444807D01*
X135739083Y-105452902D01*
X135745009Y-105460841D01*
X135751159Y-105468625D01*
X135757533Y-105476253D01*
X135764130Y-105483725D01*
X135770951Y-105491042D01*
X135777995Y-105498203D01*
X135785226Y-105505175D01*
X135792606Y-105511926D01*
X135800134Y-105518456D01*
X135807811Y-105524764D01*
X135815637Y-105530851D01*
X135823612Y-105536717D01*
X135831736Y-105542361D01*
X135840009Y-105547784D01*
X135848430Y-105552985D01*
X135857000Y-105557966D01*
X135865719Y-105562725D01*
X135874587Y-105567262D01*
X135883604Y-105571578D01*
X135892770Y-105575673D01*
X135902084Y-105579547D01*
X135911547Y-105583199D01*
X135921159Y-105586630D01*
X135930920Y-105589839D01*
X135940830Y-105592828D01*
X135950889Y-105595594D01*
X135961096Y-105598140D01*
X135971452Y-105600464D01*
X135981958Y-105602567D01*
X135992612Y-105604448D01*
X136003414Y-105606108D01*
X136014366Y-105607547D01*
X136025466Y-105608764D01*
X136036716Y-105609760D01*
X136048114Y-105610535D01*
X136059661Y-105611089D01*
X136071357Y-105611421D01*
X136083201Y-105611531D01*
X136095660Y-105611408D01*
X136107976Y-105611037D01*
X136120150Y-105610420D01*
X136132181Y-105609556D01*
X136144070Y-105608445D01*
X136155817Y-105607087D01*
X136167421Y-105605482D01*
X136178883Y-105603630D01*
X136190203Y-105601531D01*
X136201380Y-105599186D01*
X136212415Y-105596593D01*
X136223308Y-105593753D01*
X136234058Y-105590667D01*
X136244666Y-105587334D01*
X136255132Y-105583753D01*
X136265455Y-105579926D01*
X136275636Y-105575852D01*
X136285675Y-105571531D01*
X136295571Y-105566963D01*
X136305325Y-105562148D01*
X136314936Y-105557087D01*
X136324405Y-105551778D01*
X136333732Y-105546222D01*
X136342917Y-105540420D01*
X136351959Y-105534371D01*
X136360859Y-105528074D01*
X136369616Y-105521531D01*
X136378231Y-105514741D01*
X136386704Y-105507704D01*
X136395034Y-105500420D01*
X136403222Y-105492889D01*
X136411268Y-105485111D01*
X136419118Y-105477126D01*
X136426719Y-105468996D01*
X136434070Y-105460723D01*
X136441173Y-105452306D01*
X136448026Y-105443745D01*
X136454630Y-105435041D01*
X136460984Y-105426192D01*
X136467090Y-105417199D01*
X136472946Y-105408063D01*
X136478553Y-105398783D01*
X136483911Y-105389359D01*
X136489020Y-105379791D01*
X136493879Y-105370079D01*
X136498490Y-105360223D01*
X136502851Y-105350223D01*
X136506963Y-105340080D01*
X136510825Y-105329792D01*
X136514439Y-105319361D01*
X136517803Y-105308786D01*
X136520918Y-105298067D01*
X136523784Y-105287204D01*
X136526400Y-105276197D01*
X136528768Y-105265047D01*
X136530886Y-105253752D01*
X136532755Y-105242314D01*
X136534375Y-105230731D01*
X136535746Y-105219005D01*
X136536867Y-105207135D01*
X136537739Y-105195121D01*
X136538362Y-105182964D01*
X136538736Y-105170662D01*
X136538861Y-105158217D01*
X136538735Y-105142744D01*
X136538357Y-105127588D01*
X136537727Y-105112751D01*
X136536846Y-105098230D01*
X136535712Y-105084028D01*
X136534327Y-105070143D01*
X136532690Y-105056575D01*
X136530801Y-105043325D01*
X136528660Y-105030392D01*
X136526267Y-105017777D01*
X136523622Y-105005479D01*
X136520726Y-104993499D01*
X136517577Y-104981837D01*
X136514177Y-104970491D01*
X136510525Y-104959464D01*
X136506621Y-104948754D01*
X136331743Y-104948754D01*
X136337800Y-104959762D01*
X136343466Y-104970952D01*
X136348742Y-104982324D01*
X136353627Y-104993878D01*
X136358121Y-105005613D01*
X136362224Y-105017530D01*
X136365937Y-105029628D01*
X136369258Y-105041908D01*
X136372189Y-105054370D01*
X136374729Y-105067013D01*
X136376879Y-105079838D01*
X136378637Y-105092845D01*
X136380005Y-105106033D01*
X136380982Y-105119403D01*
X136381568Y-105132955D01*
X136381764Y-105146688D01*
X136381686Y-105154516D01*
X136381068Y-105169876D01*
X136379832Y-105184842D01*
X136377977Y-105199414D01*
X136375504Y-105213592D01*
X136372413Y-105227377D01*
X136368703Y-105240767D01*
X136364376Y-105253764D01*
X136359430Y-105266367D01*
X136353866Y-105278576D01*
X136347683Y-105290391D01*
X136340883Y-105301813D01*
X136333464Y-105312840D01*
X136325427Y-105323474D01*
X136316771Y-105333714D01*
X136307498Y-105343560D01*
X136302629Y-105348335D01*
X136292572Y-105357492D01*
X136282137Y-105366058D01*
X136271323Y-105374033D01*
X136260131Y-105381418D01*
X136248560Y-105388212D01*
X136236610Y-105394415D01*
X136224282Y-105400027D01*
X136211575Y-105405048D01*
X136198490Y-105409479D01*
X136185026Y-105413319D01*
X136171184Y-105416568D01*
X136156963Y-105419227D01*
X136142363Y-105421294D01*
X136127385Y-105422771D01*
X136112028Y-105423657D01*
X136104208Y-105423879D01*
X136096293Y-105423953D01*
X136080948Y-105423673D01*
X136065982Y-105422832D01*
X136051395Y-105421432D01*
X136037186Y-105419471D01*
X136023356Y-105416950D01*
X136009904Y-105413869D01*
X135996831Y-105410227D01*
X135984136Y-105406025D01*
X135971820Y-105401263D01*
X135959883Y-105395941D01*
X135948324Y-105390059D01*
X135937144Y-105383616D01*
X135926342Y-105376613D01*
X135915919Y-105369050D01*
X135905875Y-105360927D01*
X135896209Y-105352243D01*
X135887052Y-105343082D01*
X135878486Y-105333525D01*
X135870511Y-105323573D01*
X135863126Y-105313225D01*
X135856332Y-105302482D01*
X135850129Y-105291344D01*
X135844517Y-105279811D01*
X135839496Y-105267882D01*
X135835065Y-105255557D01*
X135831225Y-105242838D01*
X135827976Y-105229722D01*
X135825317Y-105216212D01*
X135823250Y-105202306D01*
X135821773Y-105188005D01*
X135820887Y-105173308D01*
X135820591Y-105158217D01*
X135820787Y-105143934D01*
X135821373Y-105129811D01*
X135822350Y-105115846D01*
X135823718Y-105102041D01*
X135825476Y-105088394D01*
X135827625Y-105074905D01*
X135830166Y-105061576D01*
X135833096Y-105048405D01*
X135836418Y-105035393D01*
X135840131Y-105022540D01*
X135844234Y-105009845D01*
X135848728Y-104997309D01*
X135853613Y-104984932D01*
X135858889Y-104972714D01*
X135864555Y-104960655D01*
X135870612Y-104948754D01*
X135708044Y-104948754D01*
X135702649Y-104960626D01*
X135697603Y-104972940D01*
X135692904Y-104985697D01*
X135688554Y-104998897D01*
X135684551Y-105012539D01*
X135680897Y-105026625D01*
X135677590Y-105041152D01*
X135674632Y-105056123D01*
X135672021Y-105071536D01*
X135670847Y-105079409D01*
X135669759Y-105087392D01*
X135668758Y-105095486D01*
X135667845Y-105103691D01*
X135667018Y-105112006D01*
X135666279Y-105120432D01*
X135665626Y-105128969D01*
X135665060Y-105137616D01*
X135664582Y-105146374D01*
X135664190Y-105155243D01*
X135663886Y-105164222D01*
X135663668Y-105173312D01*
X135663538Y-105182513D01*
X135663494Y-105191824D01*
X135309209Y-105191824D01*
X135309209Y-104594468D01*
X136893148Y-104594468D01*
X136893148Y-108179244D01*
G37*
G36*
X147348282Y-105754620D02*
G01*
X147349488Y-105763764D01*
X147350945Y-105772816D01*
X147352651Y-105781777D01*
X147354608Y-105790646D01*
X147356816Y-105799423D01*
X147359273Y-105808109D01*
X147361981Y-105816704D01*
X147458311Y-106111358D01*
X147229309Y-106111358D01*
X147321730Y-105818853D01*
X147324471Y-105809743D01*
X147326479Y-105801824D01*
X147328321Y-105793343D01*
X147329999Y-105784299D01*
X147331511Y-105774695D01*
X147332859Y-105764528D01*
X147333762Y-105756534D01*
X147334572Y-105748225D01*
X147334822Y-105745385D01*
X147347327Y-105745385D01*
X147348282Y-105754620D01*
G37*
G36*
X148114286Y-106803286D02*
G01*
X144926551Y-106803286D01*
X144926551Y-105598644D01*
X145280837Y-105598644D01*
X145280837Y-105746948D01*
X145518436Y-105746948D01*
X145518436Y-106449000D01*
X145706015Y-106449000D01*
X145706015Y-105746948D01*
X145943614Y-105746948D01*
X145943614Y-105598644D01*
X146067885Y-105598644D01*
X146067885Y-106449000D01*
X146252142Y-106449000D01*
X146609518Y-105898965D01*
X146614586Y-105891085D01*
X146619387Y-105883495D01*
X146623920Y-105876193D01*
X146628184Y-105869179D01*
X146632181Y-105862454D01*
X146637093Y-105853936D01*
X146641529Y-105845931D01*
X146645489Y-105838439D01*
X146649769Y-105829795D01*
X146652505Y-105829795D01*
X146650829Y-105838457D01*
X146649317Y-105847958D01*
X146647971Y-105858296D01*
X146646789Y-105869472D01*
X146646093Y-105877389D01*
X146645471Y-105885678D01*
X146644921Y-105894339D01*
X146644445Y-105903373D01*
X146644042Y-105912780D01*
X146643712Y-105922558D01*
X146643456Y-105932710D01*
X146643272Y-105943234D01*
X146643162Y-105954130D01*
X146643126Y-105965399D01*
X146643126Y-106449000D01*
X146818199Y-106449000D01*
X146922149Y-106449000D01*
X147122037Y-106449000D01*
X147186322Y-106251456D01*
X147497976Y-106251456D01*
X147561284Y-106449000D01*
X147760000Y-106449000D01*
X147447369Y-105598644D01*
X147222274Y-105598644D01*
X147041317Y-106111358D01*
X146922149Y-106449000D01*
X146818199Y-106449000D01*
X146818199Y-105598644D01*
X146622023Y-105598644D01*
X146277739Y-106133242D01*
X146271526Y-106142901D01*
X146265784Y-106151872D01*
X146260512Y-106160156D01*
X146255711Y-106167754D01*
X146251380Y-106174664D01*
X146246338Y-106182810D01*
X146242133Y-106189734D01*
X146238052Y-106196672D01*
X146235729Y-106200849D01*
X146232993Y-106200849D01*
X146235329Y-106192303D01*
X146237353Y-106182005D01*
X146238667Y-106173132D01*
X146239805Y-106163273D01*
X146240769Y-106152428D01*
X146241557Y-106140597D01*
X146241985Y-106132162D01*
X146242336Y-106123289D01*
X146242608Y-106113978D01*
X146242803Y-106104229D01*
X146242919Y-106094042D01*
X146242958Y-106083417D01*
X146242958Y-105598644D01*
X146067885Y-105598644D01*
X145943614Y-105598644D01*
X145280837Y-105598644D01*
X144926551Y-105598644D01*
X144926551Y-105244358D01*
X148114286Y-105244358D01*
X148114286Y-106803286D01*
G37*
D11*
X146877500Y-89715000D02*
X146877500Y-90365000D01*
X147527500Y-89715000D02*
X146877500Y-89715000D01*
X147527500Y-96935000D02*
X146877500Y-96935000D01*
X153447500Y-89715000D02*
X154097500Y-89715000D01*
X153447500Y-96935000D02*
X154097500Y-96935000D01*
X154097500Y-89715000D02*
X154097500Y-90365000D01*
X154097500Y-96935000D02*
X154097500Y-96285000D01*
X142810000Y-90300000D02*
X142810000Y-88100000D01*
X142810000Y-90300000D02*
X142810000Y-92500000D01*
X137590000Y-90300000D02*
X137590000Y-86700000D01*
X137590000Y-90300000D02*
X137590000Y-92500000D01*
X142212221Y-95190000D02*
X142537779Y-95190000D01*
X142212221Y-96210000D02*
X142537779Y-96210000D01*
X140057836Y-97835000D02*
X139842164Y-97835000D01*
X140057836Y-97115000D02*
X139842164Y-97115000D01*
X122338748Y-96965000D02*
X123761252Y-96965000D01*
X122338748Y-98785000D02*
X123761252Y-98785000D01*
X143065000Y-92517164D02*
X143065000Y-92732836D01*
X143785000Y-92517164D02*
X143785000Y-92732836D01*
X144680000Y-95927164D02*
X144680000Y-96142836D01*
X143960000Y-95927164D02*
X143960000Y-96142836D01*
X149680000Y-98285000D02*
X153680000Y-98285000D01*
X149680000Y-101585000D02*
X149680000Y-98285000D01*
X144978641Y-94205000D02*
X144671359Y-94205000D01*
X144978641Y-93445000D02*
X144671359Y-93445000D01*
X139165000Y-83557836D02*
X139165000Y-83342164D01*
X139885000Y-83557836D02*
X139885000Y-83342164D01*
X142209420Y-96690000D02*
X142490580Y-96690000D01*
X142209420Y-97710000D02*
X142490580Y-97710000D01*
X128536252Y-96660000D02*
X127113748Y-96660000D01*
X128536252Y-94840000D02*
X127113748Y-94840000D01*
X154630000Y-100617164D02*
X154630000Y-100832836D01*
X153910000Y-100617164D02*
X153910000Y-100832836D01*
X148340000Y-99584420D02*
X148340000Y-99865580D01*
X147320000Y-99584420D02*
X147320000Y-99865580D01*
X147410000Y-86707836D02*
X147410000Y-86492164D01*
X146690000Y-86707836D02*
X146690000Y-86492164D01*
X139261252Y-96735000D02*
X137838748Y-96735000D01*
X139261252Y-94915000D02*
X137838748Y-94915000D01*
X145072164Y-101370000D02*
X145287836Y-101370000D01*
X145072164Y-102090000D02*
X145287836Y-102090000D01*
X137740000Y-104160000D02*
X137740000Y-106660000D01*
X137740000Y-106660000D02*
X138790000Y-106660000D01*
X138790000Y-106660000D02*
X138790000Y-107650000D01*
X138910000Y-102190000D02*
X141790000Y-102190000D01*
X142960000Y-104160000D02*
X142960000Y-106660000D01*
X142960000Y-106660000D02*
X141910000Y-106660000D01*
X122338748Y-99290000D02*
X123761252Y-99290000D01*
X122338748Y-101110000D02*
X123761252Y-101110000D01*
X146990000Y-99037164D02*
X146990000Y-99252836D01*
X146270000Y-99037164D02*
X146270000Y-99252836D01*
X148660000Y-86707836D02*
X148660000Y-86492164D01*
X147940000Y-86707836D02*
X147940000Y-86492164D01*
X149435000Y-82213748D02*
X149435000Y-83636252D01*
X147615000Y-82213748D02*
X147615000Y-83636252D01*
X156072635Y-84592722D02*
X156356526Y-84475130D01*
X156363474Y-85294870D02*
X156647365Y-85177278D01*
X146952164Y-102340000D02*
X147167836Y-102340000D01*
X146952164Y-103060000D02*
X147167836Y-103060000D01*
X128867164Y-102115000D02*
X129082836Y-102115000D01*
X128867164Y-102835000D02*
X129082836Y-102835000D01*
X126946359Y-101170000D02*
X127253641Y-101170000D01*
X126946359Y-101930000D02*
X127253641Y-101930000D01*
X144270000Y-107985000D02*
X150470000Y-107985000D01*
X150470000Y-107985000D02*
X150470000Y-110385000D01*
X150470000Y-110385000D02*
X144270000Y-110385000D01*
X144270000Y-110385000D02*
X144270000Y-107985000D01*
D12*
X146011421Y-109185000D02*
G75*
G03*
X146011421Y-109185000I-141421J0D01*
G01*
D11*
X149515000Y-88382836D02*
X149515000Y-88167164D01*
X150235000Y-88382836D02*
X150235000Y-88167164D01*
X137150000Y-89453748D02*
X137150000Y-90876252D01*
X135330000Y-89453748D02*
X135330000Y-90876252D01*
X128100000Y-94375000D02*
X128100000Y-92075000D01*
X128100000Y-89275000D02*
X128100000Y-86975000D01*
X128100000Y-86975000D02*
X120700000Y-86975000D01*
X120700000Y-94375000D02*
X128100000Y-94375000D01*
X120700000Y-92075000D02*
X120700000Y-94375000D01*
X120700000Y-86975000D02*
X120700000Y-89275000D01*
X144327836Y-99240000D02*
X144112164Y-99240000D01*
X144327836Y-98520000D02*
X144112164Y-98520000D01*
X156659420Y-90925000D02*
X156940580Y-90925000D01*
X156659420Y-91945000D02*
X156940580Y-91945000D01*
X150510000Y-83442164D02*
X150510000Y-83657836D01*
X149790000Y-83442164D02*
X149790000Y-83657836D01*
X156122164Y-89845000D02*
X156337836Y-89845000D01*
X156122164Y-90565000D02*
X156337836Y-90565000D01*
X130696359Y-100170000D02*
X131003641Y-100170000D01*
X130696359Y-100930000D02*
X131003641Y-100930000D01*
X155692635Y-83672722D02*
X155976526Y-83555130D01*
X155983474Y-84374870D02*
X156267365Y-84257278D01*
X130967164Y-96090000D02*
X131182836Y-96090000D01*
X130967164Y-96810000D02*
X131182836Y-96810000D01*
X155372606Y-82793670D02*
X155571861Y-82711136D01*
X155648139Y-83458864D02*
X155847394Y-83376330D01*
X155002606Y-81903670D02*
X155201861Y-81821136D01*
X155278139Y-82568864D02*
X155477394Y-82486330D01*
X128821359Y-101145000D02*
X129128641Y-101145000D01*
X128821359Y-101905000D02*
X129128641Y-101905000D01*
X155442164Y-96615000D02*
X155657836Y-96615000D01*
X155442164Y-97335000D02*
X155657836Y-97335000D01*
X148720000Y-101152836D02*
X148720000Y-100937164D01*
X149440000Y-101152836D02*
X149440000Y-100937164D01*
X130696359Y-101120000D02*
X131003641Y-101120000D01*
X130696359Y-101880000D02*
X131003641Y-101880000D01*
X146980000Y-84865000D02*
X146980000Y-83725000D01*
X142490000Y-83725000D02*
X142720000Y-83725000D01*
X147210000Y-83725000D02*
X146980000Y-83725000D01*
X147210000Y-83725000D02*
X147210000Y-81005000D01*
X142490000Y-81005000D02*
X142490000Y-83725000D01*
X143800000Y-81005000D02*
X142490000Y-81005000D01*
X147210000Y-81005000D02*
X145900000Y-81005000D01*
X125615000Y-99882836D02*
X125615000Y-99667164D01*
X126335000Y-99882836D02*
X126335000Y-99667164D01*
X130780000Y-98571359D02*
X130780000Y-98878641D01*
X130020000Y-98571359D02*
X130020000Y-98878641D01*
X140240000Y-83486252D02*
X140240000Y-82063748D01*
X142060000Y-83486252D02*
X142060000Y-82063748D01*
X129735000Y-98975000D02*
X129735000Y-98175000D01*
X129735000Y-98975000D02*
X129735000Y-99775000D01*
X126615000Y-98975000D02*
X126615000Y-97175000D01*
X126615000Y-98975000D02*
X126615000Y-99775000D01*
%LPC*%
D13*
X147050000Y-95925000D03*
X147050000Y-95525000D03*
X147050000Y-95125000D03*
X147050000Y-94725000D03*
X147050000Y-94325000D03*
X147050000Y-93925000D03*
X147050000Y-93525000D03*
X147050000Y-93125000D03*
X147050000Y-92725000D03*
X147050000Y-92325000D03*
X147050000Y-91925000D03*
X147050000Y-91525000D03*
X147050000Y-91125000D03*
X147050000Y-90725000D03*
D14*
X147887500Y-89887500D03*
X148287500Y-89887500D03*
X148687500Y-89887500D03*
X149087500Y-89887500D03*
X149487500Y-89887500D03*
X149887500Y-89887500D03*
X150287500Y-89887500D03*
X150687500Y-89887500D03*
X151087500Y-89887500D03*
X151487500Y-89887500D03*
X151887500Y-89887500D03*
X152287500Y-89887500D03*
X152687500Y-89887500D03*
X153087500Y-89887500D03*
D13*
X153925000Y-90725000D03*
X153925000Y-91125000D03*
X153925000Y-91525000D03*
X153925000Y-91925000D03*
X153925000Y-92325000D03*
X153925000Y-92725000D03*
X153925000Y-93125000D03*
X153925000Y-93525000D03*
X153925000Y-93925000D03*
X153925000Y-94325000D03*
X153925000Y-94725000D03*
X153925000Y-95125000D03*
X153925000Y-95525000D03*
X153925000Y-95925000D03*
D14*
X153087500Y-96762500D03*
X152687500Y-96762500D03*
X152287500Y-96762500D03*
X151887500Y-96762500D03*
X151487500Y-96762500D03*
X151087500Y-96762500D03*
X150687500Y-96762500D03*
X150287500Y-96762500D03*
X149887500Y-96762500D03*
X149487500Y-96762500D03*
X149087500Y-96762500D03*
X148687500Y-96762500D03*
X148287500Y-96762500D03*
X147887500Y-96762500D03*
D15*
X150487499Y-93324999D03*
D16*
X155943868Y-86629989D03*
X153731958Y-81289965D03*
D17*
X156001448Y-88153958D03*
D18*
X159863265Y-86554341D03*
D17*
X152695064Y-80171639D03*
D18*
X156556880Y-78572022D03*
D19*
X120715000Y-95695000D03*
X120715000Y-84695000D03*
D20*
X130714999Y-87694999D03*
D21*
X130715000Y-92695000D03*
D22*
X149070000Y-99650000D03*
X149070000Y-98680000D03*
D23*
X138250000Y-87437500D03*
X138900000Y-87437500D03*
X139550000Y-87437500D03*
X140200000Y-87437500D03*
X140850000Y-87437500D03*
X141500000Y-87437500D03*
X142150000Y-87437500D03*
X142150000Y-93162500D03*
X141500000Y-93162500D03*
X140850000Y-93162500D03*
X140200000Y-93162500D03*
X139550000Y-93162500D03*
X138900000Y-93162500D03*
X138250000Y-93162500D03*
D24*
X141587500Y-95700000D03*
X143162500Y-95700000D03*
D25*
X140430000Y-97475000D03*
X139470000Y-97475000D03*
D26*
X121575000Y-97875000D03*
X124525000Y-97875000D03*
D27*
X143425000Y-93105000D03*
X143425000Y-92145000D03*
X144320000Y-95555000D03*
X144320000Y-96515000D03*
D28*
X150579999Y-99084999D03*
X152779999Y-99084999D03*
X152779999Y-100784999D03*
X150579999Y-100784999D03*
D29*
X145335000Y-93825000D03*
X144315000Y-93825000D03*
D30*
X139525000Y-83930000D03*
X139525000Y-82970000D03*
D31*
X141575000Y-97200000D03*
X143125000Y-97200000D03*
D32*
X129300000Y-95750000D03*
X126350000Y-95750000D03*
D27*
X154270000Y-100245000D03*
X154270000Y-101205000D03*
D33*
X147830000Y-98950000D03*
X147830000Y-100500000D03*
D30*
X147050000Y-86120000D03*
X147050000Y-87080000D03*
D32*
X140025000Y-95825000D03*
X137075000Y-95825000D03*
D34*
X144700000Y-101730000D03*
X145660000Y-101730000D03*
D35*
X139350000Y-106875000D03*
X140350000Y-106875000D03*
X141350000Y-106875000D03*
D36*
X138050000Y-103000000D03*
X142650000Y-103000000D03*
D37*
X145665000Y-102700000D03*
X144695000Y-102700000D03*
D26*
X121575000Y-100200000D03*
X124525000Y-100200000D03*
D27*
X146630000Y-98665000D03*
X146630000Y-99625000D03*
D22*
X144700000Y-100785000D03*
X144700000Y-99815000D03*
D30*
X148300000Y-86120000D03*
X148300000Y-87080000D03*
D38*
X148525000Y-81450000D03*
X148525000Y-84400000D03*
D39*
X155888821Y-85080169D03*
X156831179Y-84689831D03*
D34*
X146580000Y-102700000D03*
X147540000Y-102700000D03*
X128495000Y-102475000D03*
X129455000Y-102475000D03*
D40*
X126590000Y-101550000D03*
X127610000Y-101550000D03*
D41*
X144870000Y-109185000D03*
X149870000Y-109185000D03*
D30*
X149875000Y-88755000D03*
X149875000Y-87795000D03*
D38*
X136240000Y-88690000D03*
X136240000Y-91640000D03*
D42*
X127599999Y-90674999D03*
X121199999Y-90674999D03*
D25*
X144700000Y-98880000D03*
X143740000Y-98880000D03*
D31*
X156025000Y-91435000D03*
X157575000Y-91435000D03*
D27*
X150150000Y-83070000D03*
X150150000Y-84030000D03*
D34*
X155750000Y-90205000D03*
X156710000Y-90205000D03*
D40*
X130340000Y-100550000D03*
X131360000Y-100550000D03*
D39*
X155508821Y-84160169D03*
X156451179Y-83769831D03*
D34*
X130595000Y-96450000D03*
X131555000Y-96450000D03*
D43*
X155166538Y-83268688D03*
X156053462Y-82901312D03*
X154796538Y-82378688D03*
X155683462Y-82011312D03*
D40*
X128465000Y-101525000D03*
X129485000Y-101525000D03*
D34*
X155070000Y-96975000D03*
X156030000Y-96975000D03*
D30*
X149080000Y-101525000D03*
X149080000Y-100565000D03*
D40*
X130340000Y-101500000D03*
X131360000Y-101500000D03*
D44*
X146349999Y-84314999D03*
D45*
X144850000Y-84227500D03*
D44*
X143349999Y-84314999D03*
D30*
X125975000Y-100255000D03*
X125975000Y-99295000D03*
D46*
X130400000Y-98215000D03*
X130400000Y-99235000D03*
D47*
X141150000Y-84250000D03*
X141150000Y-81300000D03*
D48*
X127225000Y-97837500D03*
X128175000Y-97837500D03*
X129125000Y-97837500D03*
X129125000Y-100112500D03*
X128175000Y-100112500D03*
X127225000Y-100112500D03*
D49*
X144707053Y-97742947D03*
X145392947Y-97057053D03*
M02*
