G04 #@! TF.GenerationSoftware,KiCad,Pcbnew,(7.0.0)*
G04 #@! TF.CreationDate,2023-05-14T21:45:47+08:00*
G04 #@! TF.ProjectId,ServoLess,53657276-6f4c-4657-9373-2e6b69636164,V2.0*
G04 #@! TF.SameCoordinates,Original*
G04 #@! TF.FileFunction,Copper,L4,Bot*
G04 #@! TF.FilePolarity,Positive*
%FSLAX46Y46*%
G04 Gerber Fmt 4.6, Leading zero omitted, Abs format (unit mm)*
G04 Created by KiCad (PCBNEW (7.0.0)) date 2023-05-14 21:45:47*
%MOMM*%
%LPD*%
G01*
G04 APERTURE LIST*
G04 Aperture macros list*
%AMRoundRect*
0 Rectangle with rounded corners*
0 $1 Rounding radius*
0 $2 $3 $4 $5 $6 $7 $8 $9 X,Y pos of 4 corners*
0 Add a 4 corners polygon primitive as box body*
4,1,4,$2,$3,$4,$5,$6,$7,$8,$9,$2,$3,0*
0 Add four circle primitives for the rounded corners*
1,1,$1+$1,$2,$3*
1,1,$1+$1,$4,$5*
1,1,$1+$1,$6,$7*
1,1,$1+$1,$8,$9*
0 Add four rect primitives between the rounded corners*
20,1,$1+$1,$2,$3,$4,$5,0*
20,1,$1+$1,$4,$5,$6,$7,0*
20,1,$1+$1,$6,$7,$8,$9,0*
20,1,$1+$1,$8,$9,$2,$3,0*%
%AMHorizOval*
0 Thick line with rounded ends*
0 $1 width*
0 $2 $3 position (X,Y) of the first rounded end (center of the circle)*
0 $4 $5 position (X,Y) of the second rounded end (center of the circle)*
0 Add line between two ends*
20,1,$1,$2,$3,$4,$5,0*
0 Add two circle primitives to create the rounded ends*
1,1,$1,$2,$3*
1,1,$1,$4,$5*%
%AMFreePoly0*
4,1,9,3.862500,-0.866500,0.737500,-0.866500,0.737500,-0.450000,-0.737500,-0.450000,-0.737500,0.450000,0.737500,0.450000,0.737500,0.866500,3.862500,0.866500,3.862500,-0.866500,3.862500,-0.866500,$1*%
G04 Aperture macros list end*
G04 #@! TA.AperFunction,SMDPad,CuDef*
%ADD10RoundRect,0.050000X-0.387500X-0.050000X0.387500X-0.050000X0.387500X0.050000X-0.387500X0.050000X0*%
G04 #@! TD*
G04 #@! TA.AperFunction,SMDPad,CuDef*
%ADD11RoundRect,0.050000X-0.050000X-0.387500X0.050000X-0.387500X0.050000X0.387500X-0.050000X0.387500X0*%
G04 #@! TD*
G04 #@! TA.AperFunction,SMDPad,CuDef*
%ADD12R,5.600000X5.600000*%
G04 #@! TD*
G04 #@! TA.AperFunction,ComponentPad*
%ADD13HorizOval,1.000000X0.508134X0.210476X-0.508134X-0.210476X0*%
G04 #@! TD*
G04 #@! TA.AperFunction,ComponentPad*
%ADD14HorizOval,1.000000X0.277164X0.114805X-0.277164X-0.114805X0*%
G04 #@! TD*
G04 #@! TA.AperFunction,ComponentPad*
%ADD15C,1.400000*%
G04 #@! TD*
G04 #@! TA.AperFunction,ComponentPad*
%ADD16R,3.500000X3.500000*%
G04 #@! TD*
G04 #@! TA.AperFunction,ComponentPad*
%ADD17C,3.500000*%
G04 #@! TD*
G04 #@! TA.AperFunction,SMDPad,CuDef*
%ADD18RoundRect,0.147500X0.172500X-0.147500X0.172500X0.147500X-0.172500X0.147500X-0.172500X-0.147500X0*%
G04 #@! TD*
G04 #@! TA.AperFunction,SMDPad,CuDef*
%ADD19RoundRect,0.100000X-0.100000X0.637500X-0.100000X-0.637500X0.100000X-0.637500X0.100000X0.637500X0*%
G04 #@! TD*
G04 #@! TA.AperFunction,SMDPad,CuDef*
%ADD20RoundRect,0.218750X-0.218750X-0.256250X0.218750X-0.256250X0.218750X0.256250X-0.218750X0.256250X0*%
G04 #@! TD*
G04 #@! TA.AperFunction,SMDPad,CuDef*
%ADD21RoundRect,0.140000X0.140000X0.170000X-0.140000X0.170000X-0.140000X-0.170000X0.140000X-0.170000X0*%
G04 #@! TD*
G04 #@! TA.AperFunction,SMDPad,CuDef*
%ADD22RoundRect,0.250000X-0.325000X-0.650000X0.325000X-0.650000X0.325000X0.650000X-0.325000X0.650000X0*%
G04 #@! TD*
G04 #@! TA.AperFunction,SMDPad,CuDef*
%ADD23RoundRect,0.140000X-0.170000X0.140000X-0.170000X-0.140000X0.170000X-0.140000X0.170000X0.140000X0*%
G04 #@! TD*
G04 #@! TA.AperFunction,SMDPad,CuDef*
%ADD24R,1.400000X1.200000*%
G04 #@! TD*
G04 #@! TA.AperFunction,SMDPad,CuDef*
%ADD25RoundRect,0.135000X0.135000X0.185000X-0.135000X0.185000X-0.135000X-0.185000X0.135000X-0.185000X0*%
G04 #@! TD*
G04 #@! TA.AperFunction,SMDPad,CuDef*
%ADD26RoundRect,0.140000X0.170000X-0.140000X0.170000X0.140000X-0.170000X0.140000X-0.170000X-0.140000X0*%
G04 #@! TD*
G04 #@! TA.AperFunction,SMDPad,CuDef*
%ADD27RoundRect,0.225000X-0.225000X-0.250000X0.225000X-0.250000X0.225000X0.250000X-0.225000X0.250000X0*%
G04 #@! TD*
G04 #@! TA.AperFunction,SMDPad,CuDef*
%ADD28RoundRect,0.250000X0.325000X0.650000X-0.325000X0.650000X-0.325000X-0.650000X0.325000X-0.650000X0*%
G04 #@! TD*
G04 #@! TA.AperFunction,SMDPad,CuDef*
%ADD29RoundRect,0.225000X-0.250000X0.225000X-0.250000X-0.225000X0.250000X-0.225000X0.250000X0.225000X0*%
G04 #@! TD*
G04 #@! TA.AperFunction,SMDPad,CuDef*
%ADD30RoundRect,0.140000X-0.140000X-0.170000X0.140000X-0.170000X0.140000X0.170000X-0.140000X0.170000X0*%
G04 #@! TD*
G04 #@! TA.AperFunction,SMDPad,CuDef*
%ADD31RoundRect,0.150000X-0.150000X-0.625000X0.150000X-0.625000X0.150000X0.625000X-0.150000X0.625000X0*%
G04 #@! TD*
G04 #@! TA.AperFunction,SMDPad,CuDef*
%ADD32RoundRect,0.250000X-0.350000X-0.650000X0.350000X-0.650000X0.350000X0.650000X-0.350000X0.650000X0*%
G04 #@! TD*
G04 #@! TA.AperFunction,SMDPad,CuDef*
%ADD33RoundRect,0.147500X0.147500X0.172500X-0.147500X0.172500X-0.147500X-0.172500X0.147500X-0.172500X0*%
G04 #@! TD*
G04 #@! TA.AperFunction,SMDPad,CuDef*
%ADD34RoundRect,0.250000X-0.650000X0.325000X-0.650000X-0.325000X0.650000X-0.325000X0.650000X0.325000X0*%
G04 #@! TD*
G04 #@! TA.AperFunction,SMDPad,CuDef*
%ADD35RoundRect,0.135000X-0.053927X-0.222580X0.195520X-0.119255X0.053927X0.222580X-0.195520X0.119255X0*%
G04 #@! TD*
G04 #@! TA.AperFunction,SMDPad,CuDef*
%ADD36RoundRect,0.135000X-0.135000X-0.185000X0.135000X-0.185000X0.135000X0.185000X-0.135000X0.185000X0*%
G04 #@! TD*
G04 #@! TA.AperFunction,SMDPad,CuDef*
%ADD37RoundRect,0.250000X-0.250000X0.850000X-0.250000X-0.850000X0.250000X-0.850000X0.250000X0.850000X0*%
G04 #@! TD*
G04 #@! TA.AperFunction,SMDPad,CuDef*
%ADD38R,1.500000X2.200000*%
G04 #@! TD*
G04 #@! TA.AperFunction,SMDPad,CuDef*
%ADD39RoundRect,0.140000X-0.064287X-0.210635X0.194399X-0.103484X0.064287X0.210635X-0.194399X0.103484X0*%
G04 #@! TD*
G04 #@! TA.AperFunction,SMDPad,CuDef*
%ADD40R,0.900000X1.300000*%
G04 #@! TD*
G04 #@! TA.AperFunction,SMDPad,CuDef*
%ADD41FreePoly0,90.000000*%
G04 #@! TD*
G04 #@! TA.AperFunction,SMDPad,CuDef*
%ADD42RoundRect,0.135000X-0.185000X0.135000X-0.185000X-0.135000X0.185000X-0.135000X0.185000X0.135000X0*%
G04 #@! TD*
G04 #@! TA.AperFunction,SMDPad,CuDef*
%ADD43RoundRect,0.250000X0.650000X-0.325000X0.650000X0.325000X-0.650000X0.325000X-0.650000X-0.325000X0*%
G04 #@! TD*
G04 #@! TA.AperFunction,SMDPad,CuDef*
%ADD44RoundRect,0.150000X-0.150000X0.512500X-0.150000X-0.512500X0.150000X-0.512500X0.150000X0.512500X0*%
G04 #@! TD*
G04 #@! TA.AperFunction,SMDPad,CuDef*
%ADD45RoundRect,0.147500X0.017678X-0.226274X0.226274X-0.017678X-0.017678X0.226274X-0.226274X0.017678X0*%
G04 #@! TD*
G04 #@! TA.AperFunction,ViaPad*
%ADD46C,0.500000*%
G04 #@! TD*
G04 #@! TA.AperFunction,Conductor*
%ADD47C,0.100000*%
G04 #@! TD*
G04 #@! TA.AperFunction,Conductor*
%ADD48C,0.200000*%
G04 #@! TD*
G04 #@! TA.AperFunction,Conductor*
%ADD49C,0.250000*%
G04 #@! TD*
G04 #@! TA.AperFunction,Conductor*
%ADD50C,0.150000*%
G04 #@! TD*
G04 APERTURE END LIST*
D10*
X147050000Y-95925000D03*
X147050000Y-95525000D03*
X147050000Y-95125000D03*
X147050000Y-94725000D03*
X147050000Y-94325000D03*
X147050000Y-93925000D03*
X147050000Y-93525000D03*
X147050000Y-93125000D03*
X147050000Y-92725000D03*
X147050000Y-92325000D03*
X147050000Y-91925000D03*
X147050000Y-91525000D03*
X147050000Y-91125000D03*
X147050000Y-90725000D03*
D11*
X147887500Y-89887500D03*
X148287500Y-89887500D03*
X148687500Y-89887500D03*
X149087500Y-89887500D03*
X149487500Y-89887500D03*
X149887500Y-89887500D03*
X150287500Y-89887500D03*
X150687500Y-89887500D03*
X151087500Y-89887500D03*
X151487500Y-89887500D03*
X151887500Y-89887500D03*
X152287500Y-89887500D03*
X152687500Y-89887500D03*
X153087500Y-89887500D03*
D10*
X153925000Y-90725000D03*
X153925000Y-91125000D03*
X153925000Y-91525000D03*
X153925000Y-91925000D03*
X153925000Y-92325000D03*
X153925000Y-92725000D03*
X153925000Y-93125000D03*
X153925000Y-93525000D03*
X153925000Y-93925000D03*
X153925000Y-94325000D03*
X153925000Y-94725000D03*
X153925000Y-95125000D03*
X153925000Y-95525000D03*
X153925000Y-95925000D03*
D11*
X153087500Y-96762500D03*
X152687500Y-96762500D03*
X152287500Y-96762500D03*
X151887500Y-96762500D03*
X151487500Y-96762500D03*
X151087500Y-96762500D03*
X150687500Y-96762500D03*
X150287500Y-96762500D03*
X149887500Y-96762500D03*
X149487500Y-96762500D03*
X149087500Y-96762500D03*
X148687500Y-96762500D03*
X148287500Y-96762500D03*
X147887500Y-96762500D03*
D12*
X150487499Y-93324999D03*
D13*
X156001448Y-88153958D03*
D14*
X159863265Y-86554341D03*
D13*
X152695064Y-80171639D03*
D14*
X156556880Y-78572022D03*
D15*
X120715000Y-95695000D03*
X120715000Y-84695000D03*
D16*
X130714999Y-87694999D03*
D17*
X130715000Y-92695000D03*
D18*
X149070000Y-99650000D03*
X149070000Y-98680000D03*
D19*
X138250000Y-87437500D03*
X138900000Y-87437500D03*
X139550000Y-87437500D03*
X140200000Y-87437500D03*
X140850000Y-87437500D03*
X141500000Y-87437500D03*
X142150000Y-87437500D03*
X142150000Y-93162500D03*
X141500000Y-93162500D03*
X140850000Y-93162500D03*
X140200000Y-93162500D03*
X139550000Y-93162500D03*
X138900000Y-93162500D03*
X138250000Y-93162500D03*
D20*
X141587500Y-95700000D03*
X143162500Y-95700000D03*
D21*
X140430000Y-97475000D03*
X139470000Y-97475000D03*
D22*
X121575000Y-97875000D03*
X124525000Y-97875000D03*
D23*
X143425000Y-93105000D03*
X143425000Y-92145000D03*
X144320000Y-95555000D03*
X144320000Y-96515000D03*
D24*
X150579999Y-99084999D03*
X152779999Y-99084999D03*
X152779999Y-100784999D03*
X150579999Y-100784999D03*
D25*
X145335000Y-93825000D03*
X144315000Y-93825000D03*
D26*
X139525000Y-83930000D03*
X139525000Y-82970000D03*
D27*
X141575000Y-97200000D03*
X143125000Y-97200000D03*
D28*
X129300000Y-95750000D03*
X126350000Y-95750000D03*
D23*
X154270000Y-100245000D03*
X154270000Y-101205000D03*
D29*
X147830000Y-98950000D03*
X147830000Y-100500000D03*
D26*
X147050000Y-86120000D03*
X147050000Y-87080000D03*
D28*
X140025000Y-95825000D03*
X137075000Y-95825000D03*
D30*
X144700000Y-101730000D03*
X145660000Y-101730000D03*
D31*
X139350000Y-106875000D03*
X140350000Y-106875000D03*
X141350000Y-106875000D03*
D32*
X138050000Y-103000000D03*
X142650000Y-103000000D03*
D33*
X145665000Y-102700000D03*
X144695000Y-102700000D03*
D22*
X121575000Y-100200000D03*
X124525000Y-100200000D03*
D23*
X146630000Y-98665000D03*
X146630000Y-99625000D03*
D18*
X144700000Y-100785000D03*
X144700000Y-99815000D03*
D26*
X148300000Y-86120000D03*
X148300000Y-87080000D03*
D34*
X148525000Y-81450000D03*
X148525000Y-84400000D03*
D35*
X155888821Y-85080169D03*
X156831179Y-84689831D03*
D30*
X146580000Y-102700000D03*
X147540000Y-102700000D03*
X128495000Y-102475000D03*
X129455000Y-102475000D03*
D36*
X126590000Y-101550000D03*
X127610000Y-101550000D03*
D37*
X144870000Y-109185000D03*
X149870000Y-109185000D03*
D26*
X149875000Y-88755000D03*
X149875000Y-87795000D03*
D34*
X136240000Y-88690000D03*
X136240000Y-91640000D03*
D38*
X127599999Y-90674999D03*
X121199999Y-90674999D03*
D21*
X144700000Y-98880000D03*
X143740000Y-98880000D03*
D27*
X156025000Y-91435000D03*
X157575000Y-91435000D03*
D23*
X150150000Y-83070000D03*
X150150000Y-84030000D03*
D30*
X155750000Y-90205000D03*
X156710000Y-90205000D03*
D36*
X130340000Y-100550000D03*
X131360000Y-100550000D03*
D35*
X155508821Y-84160169D03*
X156451179Y-83769831D03*
D30*
X130595000Y-96450000D03*
X131555000Y-96450000D03*
D39*
X155166538Y-83268688D03*
X156053462Y-82901312D03*
X154796538Y-82378688D03*
X155683462Y-82011312D03*
D36*
X128465000Y-101525000D03*
X129485000Y-101525000D03*
D30*
X155070000Y-96975000D03*
X156030000Y-96975000D03*
D26*
X149080000Y-101525000D03*
X149080000Y-100565000D03*
D36*
X130340000Y-101500000D03*
X131360000Y-101500000D03*
D40*
X146349999Y-84314999D03*
D41*
X144850000Y-84227500D03*
D40*
X143349999Y-84314999D03*
D26*
X125975000Y-100255000D03*
X125975000Y-99295000D03*
D42*
X130400000Y-98215000D03*
X130400000Y-99235000D03*
D43*
X141150000Y-84250000D03*
X141150000Y-81300000D03*
D44*
X127225000Y-97837500D03*
X128175000Y-97837500D03*
X129125000Y-97837500D03*
X129125000Y-100112500D03*
X128175000Y-100112500D03*
X127225000Y-100112500D03*
D45*
X144707053Y-97742947D03*
X145392947Y-97057053D03*
D46*
X142455000Y-106450000D03*
X150140000Y-84685000D03*
X123300000Y-93495000D03*
X121780000Y-102545000D03*
X123570000Y-102615000D03*
X125540000Y-102565000D03*
X155660000Y-80435000D03*
X129570000Y-106575000D03*
X128600000Y-107695000D03*
X129460000Y-108725000D03*
X133190000Y-101945000D03*
X130880000Y-103875000D03*
X126150000Y-93675000D03*
X124650000Y-94555000D03*
X124680000Y-95905000D03*
X123330000Y-96325000D03*
X123260000Y-98065000D03*
X123270000Y-100045000D03*
X143100000Y-79065000D03*
X142990000Y-82575000D03*
X142950000Y-81515000D03*
X142940000Y-80485000D03*
X133260000Y-89785000D03*
X134650000Y-89775000D03*
X135950000Y-89815000D03*
X135820000Y-85805000D03*
X134890000Y-87195000D03*
X133550000Y-87165000D03*
X150240000Y-72835000D03*
X144870000Y-70575000D03*
X158050000Y-84525000D03*
X157300000Y-82845000D03*
X156760000Y-81585000D03*
X161070000Y-91535000D03*
X159260000Y-97365000D03*
X159340000Y-99655000D03*
X158090000Y-102145000D03*
X156280000Y-103535000D03*
X151740000Y-105205000D03*
X151730000Y-104275000D03*
X147580000Y-101495000D03*
X148280000Y-102155000D03*
X149420000Y-102395000D03*
X150500000Y-102165000D03*
X151320000Y-102165000D03*
X153980000Y-98335000D03*
X153990000Y-99285000D03*
X156610000Y-97735000D03*
X156610000Y-98595000D03*
X156610000Y-99455000D03*
X147440000Y-72765000D03*
X144060000Y-78065000D03*
X145340000Y-79365000D03*
X140610000Y-82595000D03*
X149240000Y-87605000D03*
X138900000Y-96665000D03*
X147040000Y-86125000D03*
X130670000Y-106655000D03*
X131170000Y-109405000D03*
X137160000Y-89955000D03*
X148310000Y-73405000D03*
X142300000Y-108575000D03*
X147200000Y-96425000D03*
X144800000Y-96575000D03*
X145800000Y-97825000D03*
X145800000Y-100075000D03*
X146550000Y-101075000D03*
X145800000Y-100825000D03*
X146550000Y-101825000D03*
X146050000Y-103575000D03*
X143800000Y-102075000D03*
X143800000Y-102825000D03*
X145800000Y-106325000D03*
X144050000Y-103575000D03*
X145300000Y-103575000D03*
X145300000Y-104325000D03*
X144050000Y-104325000D03*
X142300000Y-109575000D03*
X142300000Y-110575000D03*
X142300000Y-111575000D03*
X142300000Y-112575000D03*
X154800000Y-106325000D03*
X153800000Y-106325000D03*
X152800000Y-106325000D03*
X151800000Y-106325000D03*
X150800000Y-106325000D03*
X149800000Y-106325000D03*
X148800000Y-106325000D03*
X147775000Y-106325000D03*
X146750000Y-106325000D03*
X159825000Y-90750000D03*
X158875000Y-95250000D03*
X144700000Y-74425000D03*
X148000000Y-75800000D03*
X150525000Y-87150000D03*
X151082119Y-87636587D03*
X151390124Y-88264629D03*
X147975000Y-88750000D03*
X152500000Y-85200000D03*
X152050000Y-84225000D03*
X151884864Y-88759136D03*
X152584300Y-88749500D03*
X161800000Y-89450000D03*
X154550000Y-81825000D03*
X153900000Y-82450000D03*
X155050000Y-85200000D03*
X155716636Y-96241568D03*
X154051433Y-89332834D03*
X154750889Y-89340883D03*
X145725000Y-98675000D03*
X146525000Y-97475000D03*
X130600000Y-108300000D03*
X132400000Y-109875000D03*
X132925000Y-104425000D03*
X127765500Y-102500000D03*
X145140000Y-95115000D03*
X146674500Y-88325000D03*
X138960000Y-86024500D03*
X145650000Y-86125000D03*
X144825000Y-86115495D03*
X144050000Y-86115495D03*
X146550000Y-80800000D03*
X146550000Y-81750000D03*
X146550000Y-82700000D03*
X147950000Y-82700000D03*
X148975000Y-82700000D03*
X150000000Y-81950000D03*
X150000000Y-80975000D03*
X139225000Y-84625000D03*
X138550000Y-84625000D03*
X138550000Y-84000000D03*
X119325000Y-94575000D03*
X119025000Y-92700000D03*
X120275000Y-100875000D03*
X120625000Y-93725000D03*
X121650000Y-93775000D03*
X121675000Y-92525000D03*
X120625000Y-92500000D03*
X119775000Y-91375000D03*
X119775000Y-90375000D03*
X118725000Y-90400000D03*
X117525000Y-90425000D03*
X117650000Y-92300000D03*
X118075000Y-94350000D03*
X118525000Y-96450000D03*
X119225000Y-98225000D03*
X120275000Y-99725000D03*
X120275000Y-98400000D03*
X120300000Y-97150000D03*
X139605002Y-94349500D03*
X142325000Y-94400000D03*
X134250000Y-93950000D03*
X136000000Y-107225000D03*
X136650000Y-107225000D03*
X136000000Y-101450000D03*
X136809732Y-102408776D03*
X137300000Y-105000000D03*
X138850000Y-98825000D03*
X137700000Y-98825000D03*
X138850000Y-98275000D03*
X137700000Y-98275000D03*
X138275000Y-98825000D03*
X138275000Y-98275000D03*
X140875000Y-98875000D03*
X139675000Y-98275000D03*
X139675000Y-98875000D03*
X140275000Y-98275000D03*
X140875000Y-98275000D03*
X140275000Y-98875000D03*
X141700000Y-98850000D03*
X141700000Y-98300000D03*
X142850000Y-98850000D03*
X142275000Y-98850000D03*
X142850000Y-98300000D03*
X142275000Y-98300000D03*
D47*
X145530000Y-94725000D02*
X147050000Y-94725000D01*
X145140000Y-95115000D02*
X145530000Y-94725000D01*
D48*
X126540000Y-101600000D02*
X126590000Y-101550000D01*
D49*
X141838173Y-95700000D02*
X141587500Y-95700000D01*
D48*
X130340000Y-99295000D02*
X130400000Y-99235000D01*
D49*
X156025000Y-91435000D02*
X155750000Y-91160000D01*
D48*
X125975000Y-99295000D02*
X126120000Y-99150000D01*
X130400000Y-99235000D02*
X130315000Y-99150000D01*
X127082500Y-100255000D02*
X127225000Y-100112500D01*
X128440000Y-101550000D02*
X128465000Y-101525000D01*
D49*
X143380000Y-92100000D02*
X143425000Y-92145000D01*
D50*
X143167500Y-95705000D02*
X143162500Y-95700000D01*
D49*
X141462500Y-95825000D02*
X141587500Y-95700000D01*
D48*
X128465000Y-102445000D02*
X128495000Y-102475000D01*
D50*
X147830000Y-98950000D02*
X147887500Y-98892500D01*
D48*
X144700000Y-102695000D02*
X144695000Y-102700000D01*
D50*
X152780000Y-100785000D02*
X153200000Y-101205000D01*
D48*
X144707053Y-98872947D02*
X144700000Y-98880000D01*
D49*
X147545000Y-98665000D02*
X147830000Y-98950000D01*
D50*
X149080000Y-99660000D02*
X149070000Y-99650000D01*
D47*
X147050000Y-87080000D02*
X147175000Y-87205000D01*
D49*
X155070000Y-96888204D02*
X155070000Y-96975000D01*
D47*
X148300000Y-87080000D02*
X148120000Y-87080000D01*
D48*
X129485000Y-102445000D02*
X129455000Y-102475000D01*
D50*
X149887500Y-88767500D02*
X149875000Y-88755000D01*
D48*
X151282500Y-93415000D02*
X150682500Y-92815000D01*
X144695000Y-109010000D02*
X144870000Y-109185000D01*
D49*
X140025000Y-95825000D02*
X140430000Y-96230000D01*
X141575000Y-95712500D02*
X141587500Y-95700000D01*
D48*
X130315000Y-101525000D02*
X130340000Y-101500000D01*
D47*
X153100000Y-96750000D02*
X153087500Y-96762500D01*
X138250000Y-88019975D02*
X138250000Y-87437500D01*
D48*
X149430000Y-87795000D02*
X149240000Y-87605000D01*
X149875000Y-87795000D02*
X149430000Y-87795000D01*
D47*
X146588236Y-91125000D02*
X147050000Y-91125000D01*
X145847602Y-85615495D02*
X146175000Y-85942893D01*
X139369005Y-85615495D02*
X145847602Y-85615495D01*
X138960000Y-86024500D02*
X139369005Y-85615495D01*
X146175000Y-85942893D02*
X146175000Y-90711764D01*
X146175000Y-90711764D02*
X146588236Y-91125000D01*
D49*
X139185000Y-96665000D02*
X140025000Y-95825000D01*
X138900000Y-96665000D02*
X139185000Y-96665000D01*
D47*
X146490000Y-86520000D02*
X147050000Y-87080000D01*
X146650000Y-85525000D02*
X146490000Y-85685000D01*
X154051433Y-88051433D02*
X151525000Y-85525000D01*
X151525000Y-85525000D02*
X146650000Y-85525000D01*
X146490000Y-85685000D02*
X146490000Y-86520000D01*
X154051433Y-89332834D02*
X154051433Y-88051433D01*
D49*
X138428959Y-89955000D02*
X137160000Y-89955000D01*
X140573959Y-92100000D02*
X138428959Y-89955000D01*
D48*
X144695000Y-102700000D02*
X144695000Y-109010000D01*
X145665000Y-102700000D02*
X146580000Y-102700000D01*
X144700000Y-101730000D02*
X144700000Y-102695000D01*
X144700000Y-100785000D02*
X144700000Y-101730000D01*
X144700000Y-98880000D02*
X144700000Y-99815000D01*
X144707053Y-97742947D02*
X144707053Y-98872947D01*
X147050000Y-95925000D02*
X146525000Y-95925000D01*
X146525000Y-95925000D02*
X145392947Y-97057053D01*
D47*
X154175000Y-96750000D02*
X153100000Y-96750000D01*
X155200000Y-95725000D02*
X154175000Y-96750000D01*
X158400000Y-95725000D02*
X155200000Y-95725000D01*
X158875000Y-95250000D02*
X158400000Y-95725000D01*
D49*
X155716636Y-96241568D02*
X155070000Y-96888204D01*
D47*
X148000000Y-75800000D02*
X146075000Y-75800000D01*
X146075000Y-75800000D02*
X144700000Y-74425000D01*
X150890124Y-88895767D02*
X151087500Y-89093143D01*
X150890124Y-87828582D02*
X150890124Y-88895767D01*
X151082119Y-87636587D02*
X150890124Y-87828582D01*
X151087500Y-89093143D02*
X151087500Y-89887500D01*
X150525000Y-88954907D02*
X150525000Y-87150000D01*
X150687500Y-89117407D02*
X150525000Y-88954907D01*
X150687500Y-89887500D02*
X150687500Y-89117407D01*
X153550000Y-87974264D02*
X152050736Y-86475000D01*
X153550000Y-89562500D02*
X153550000Y-87974264D01*
X154258938Y-89832834D02*
X153820334Y-89832834D01*
X153820334Y-89832834D02*
X153550000Y-89562500D01*
X148905000Y-86475000D02*
X148300000Y-87080000D01*
X154750889Y-89340883D02*
X154258938Y-89832834D01*
X152050736Y-86475000D02*
X148905000Y-86475000D01*
X151384864Y-88269889D02*
X151390124Y-88264629D01*
X151384864Y-88966243D02*
X151384864Y-88269889D01*
X151487500Y-89068879D02*
X151384864Y-88966243D01*
X151487500Y-89887500D02*
X151487500Y-89068879D01*
D50*
X149875000Y-88755000D02*
X147975000Y-88750000D01*
D47*
X147475000Y-87725000D02*
X147475000Y-89475000D01*
X147475000Y-89475000D02*
X147887500Y-89887500D01*
X148120000Y-87080000D02*
X147475000Y-87725000D01*
X147175000Y-90600000D02*
X147050000Y-90725000D01*
X147175000Y-87205000D02*
X147175000Y-90600000D01*
X151884864Y-88759136D02*
X151887500Y-88761772D01*
X151887500Y-88761772D02*
X151887500Y-89887500D01*
X152584300Y-88749500D02*
X152584300Y-88897807D01*
X152584300Y-88897807D02*
X152287500Y-89194607D01*
X152287500Y-89194607D02*
X152287500Y-89887500D01*
D50*
X149887500Y-89887500D02*
X149887500Y-88767500D01*
D47*
X152500000Y-85200000D02*
X152050000Y-84225000D01*
D50*
X155683462Y-82011312D02*
X156831179Y-84689831D01*
X154796538Y-82378688D02*
X154550000Y-81825000D01*
X155166538Y-83268688D02*
X154796538Y-82378688D01*
X154725000Y-84500000D02*
X153900000Y-82450000D01*
X155508821Y-84160169D02*
X154725000Y-84500000D01*
X155450000Y-85300000D02*
X155888821Y-85080169D01*
X155050000Y-85200000D02*
X155450000Y-85300000D01*
X155230000Y-90725000D02*
X155750000Y-90205000D01*
X153925000Y-90725000D02*
X155230000Y-90725000D01*
D49*
X155750000Y-91160000D02*
X155750000Y-90205000D01*
D50*
X155070000Y-96975000D02*
X154570000Y-97475000D01*
X154570000Y-97475000D02*
X152102881Y-97475000D01*
X152102881Y-97475000D02*
X151887500Y-97259619D01*
X151887500Y-97259619D02*
X151887500Y-96762500D01*
X149087500Y-97737500D02*
X149087500Y-96762500D01*
X151425000Y-98050000D02*
X149400000Y-98050000D01*
X149400000Y-98050000D02*
X149087500Y-97737500D01*
X151555000Y-98180000D02*
X151425000Y-98050000D01*
X152780000Y-100785000D02*
X151555000Y-99560000D01*
X151555000Y-99560000D02*
X151555000Y-98180000D01*
X153200000Y-101205000D02*
X154270000Y-101205000D01*
X149080000Y-100565000D02*
X149080000Y-99660000D01*
X149070000Y-99650000D02*
X149635000Y-99085000D01*
X149635000Y-99085000D02*
X150580000Y-99085000D01*
X148687500Y-98297500D02*
X148687500Y-96762500D01*
X149070000Y-98680000D02*
X148687500Y-98297500D01*
X148287500Y-96762500D02*
X147887500Y-96762500D01*
X147887500Y-98892500D02*
X147887500Y-96762500D01*
D49*
X146630000Y-98665000D02*
X147545000Y-98665000D01*
X145735000Y-98665000D02*
X145725000Y-98675000D01*
X146630000Y-98665000D02*
X145735000Y-98665000D01*
D47*
X127765500Y-102500000D02*
X127100000Y-102500000D01*
X127100000Y-102500000D02*
X126590000Y-101990000D01*
X126590000Y-101990000D02*
X126590000Y-101550000D01*
D50*
X145593750Y-95525000D02*
X145143750Y-95975000D01*
X147050000Y-95525000D02*
X145593750Y-95525000D01*
X145143750Y-95975000D02*
X144620000Y-95975000D01*
X144620000Y-95975000D02*
X144350000Y-95705000D01*
X147050000Y-95525000D02*
X147050000Y-95125000D01*
D47*
X146445584Y-91525000D02*
X147050000Y-91525000D01*
X145650000Y-90729416D02*
X146445584Y-91525000D01*
X145650000Y-86125000D02*
X145650000Y-90729416D01*
X146421320Y-91925000D02*
X147050000Y-91925000D01*
X144825000Y-90328680D02*
X146421320Y-91925000D01*
X144825000Y-86115495D02*
X144825000Y-90328680D01*
X146397056Y-92325000D02*
X144050000Y-89977944D01*
X147050000Y-92325000D02*
X146397056Y-92325000D01*
X144050000Y-89977944D02*
X144050000Y-86115495D01*
X140200000Y-88673591D02*
X140200000Y-87437500D01*
X144220647Y-90572855D02*
X142099264Y-90572855D01*
X146372792Y-92725000D02*
X144220647Y-90572855D01*
X147050000Y-92725000D02*
X146372792Y-92725000D01*
X142099264Y-90572855D02*
X140200000Y-88673591D01*
X139550000Y-88447855D02*
X139550000Y-87437500D01*
X141975000Y-90872855D02*
X139550000Y-88447855D01*
X144096383Y-90872855D02*
X141975000Y-90872855D01*
X146348528Y-93125000D02*
X144096383Y-90872855D01*
X147050000Y-93125000D02*
X146348528Y-93125000D01*
X138900000Y-88245711D02*
X138900000Y-87437500D01*
X141827144Y-91172855D02*
X138900000Y-88245711D01*
X146324264Y-93525000D02*
X143972119Y-91172855D01*
X143972119Y-91172855D02*
X141827144Y-91172855D01*
X147050000Y-93525000D02*
X146324264Y-93525000D01*
X143875000Y-91500000D02*
X141730025Y-91500000D01*
X141730025Y-91500000D02*
X138250000Y-88019975D01*
X146300000Y-93925000D02*
X143875000Y-91500000D01*
X147050000Y-93925000D02*
X146300000Y-93925000D01*
D50*
X144350000Y-95705000D02*
X143167500Y-95705000D01*
D49*
X140430000Y-96230000D02*
X140430000Y-97475000D01*
X140025000Y-95825000D02*
X141462500Y-95825000D01*
X141575000Y-97200000D02*
X141575000Y-95712500D01*
X144315000Y-93825000D02*
X143713173Y-93825000D01*
X143713173Y-93825000D02*
X141838173Y-95700000D01*
X138716041Y-91640000D02*
X136240000Y-91640000D01*
X139550000Y-92473959D02*
X138716041Y-91640000D01*
X139550000Y-93162500D02*
X139550000Y-92473959D01*
X140573959Y-92100000D02*
X143380000Y-92100000D01*
X140200000Y-92473959D02*
X140573959Y-92100000D01*
X140200000Y-93162500D02*
X140200000Y-92473959D01*
D47*
X145835000Y-94325000D02*
X145335000Y-93825000D01*
X147050000Y-94325000D02*
X145835000Y-94325000D01*
D48*
X125975000Y-100255000D02*
X127082500Y-100255000D01*
X128175000Y-98500000D02*
X128175000Y-97837500D01*
X127525000Y-99150000D02*
X128175000Y-98500000D01*
X126120000Y-99150000D02*
X127525000Y-99150000D01*
X128175000Y-99425000D02*
X128175000Y-100112500D01*
X130315000Y-99150000D02*
X128450000Y-99150000D01*
X128450000Y-99150000D02*
X128175000Y-99425000D01*
X130340000Y-100550000D02*
X130340000Y-99295000D01*
X129485000Y-101525000D02*
X130315000Y-101525000D01*
X129125000Y-101165000D02*
X129125000Y-100112500D01*
X129485000Y-101525000D02*
X129125000Y-101165000D01*
X129485000Y-101525000D02*
X129485000Y-102445000D01*
X128465000Y-101525000D02*
X128465000Y-102445000D01*
X127610000Y-101550000D02*
X128440000Y-101550000D01*
X121575000Y-101600000D02*
X126540000Y-101600000D01*
X121575000Y-100200000D02*
X121575000Y-101600000D01*
G04 #@! TA.AperFunction,Conductor*
G36*
X138921091Y-97984439D02*
G01*
X138961319Y-98011319D01*
X139088681Y-98138681D01*
X139115561Y-98178909D01*
X139125000Y-98226362D01*
X139125000Y-101125000D01*
X139133638Y-101133637D01*
X139133638Y-101133638D01*
X139613681Y-101613681D01*
X139640561Y-101653909D01*
X139650000Y-101701362D01*
X139650000Y-107498638D01*
X139640561Y-107546091D01*
X139613681Y-107586319D01*
X139586319Y-107613681D01*
X139546091Y-107640561D01*
X139498638Y-107650000D01*
X139201362Y-107650000D01*
X139153909Y-107640561D01*
X139113681Y-107613681D01*
X139086319Y-107586319D01*
X139059439Y-107546091D01*
X139050000Y-107498638D01*
X139050000Y-102212211D01*
X139050000Y-102200000D01*
X138725000Y-101875000D01*
X138712789Y-101875000D01*
X138581041Y-101875000D01*
X138537709Y-101867182D01*
X138514755Y-101858621D01*
X138514752Y-101858620D01*
X138507483Y-101855909D01*
X138499770Y-101855079D01*
X138499767Y-101855079D01*
X138451180Y-101849855D01*
X138451169Y-101849854D01*
X138447873Y-101849500D01*
X138444551Y-101849500D01*
X138025862Y-101849500D01*
X137978409Y-101840061D01*
X137938181Y-101813181D01*
X137411319Y-101286319D01*
X137384439Y-101246091D01*
X137375000Y-101198638D01*
X137375000Y-98226362D01*
X137384439Y-98178909D01*
X137411319Y-98138681D01*
X137538681Y-98011319D01*
X137578909Y-97984439D01*
X137626362Y-97975000D01*
X138873638Y-97975000D01*
X138921091Y-97984439D01*
G37*
G04 #@! TD.AperFunction*
G04 #@! TA.AperFunction,Conductor*
G36*
X140153103Y-98013516D02*
G01*
X140159126Y-98016585D01*
X140159128Y-98016585D01*
X140167825Y-98021017D01*
X140259265Y-98035500D01*
X140600734Y-98035499D01*
X140692175Y-98021017D01*
X140706896Y-98013516D01*
X140763193Y-98000000D01*
X140923638Y-98000000D01*
X140971091Y-98009439D01*
X141011319Y-98036319D01*
X141088681Y-98113681D01*
X141115561Y-98153909D01*
X141125000Y-98201362D01*
X141125000Y-101123638D01*
X141115561Y-101171091D01*
X141088681Y-101211319D01*
X140658638Y-101641361D01*
X140658635Y-101641364D01*
X140650000Y-101650000D01*
X140650000Y-101662211D01*
X140650000Y-107498638D01*
X140640561Y-107546091D01*
X140613681Y-107586319D01*
X140586319Y-107613681D01*
X140546091Y-107640561D01*
X140498638Y-107650000D01*
X140201362Y-107650000D01*
X140153909Y-107640561D01*
X140113681Y-107613681D01*
X140086319Y-107586319D01*
X140059439Y-107546091D01*
X140050000Y-107498638D01*
X140050000Y-101687211D01*
X140050000Y-101675000D01*
X139411319Y-101036318D01*
X139384439Y-100996091D01*
X139375000Y-100948638D01*
X139375000Y-98226363D01*
X139384439Y-98178911D01*
X139411318Y-98138682D01*
X139436319Y-98113681D01*
X139478184Y-98071815D01*
X139518410Y-98044938D01*
X139565861Y-98035499D01*
X139640734Y-98035499D01*
X139732175Y-98021017D01*
X139746896Y-98013516D01*
X139803193Y-98000000D01*
X140096807Y-98000000D01*
X140153103Y-98013516D01*
G37*
G04 #@! TD.AperFunction*
G04 #@! TA.AperFunction,Conductor*
G36*
X142996091Y-98009439D02*
G01*
X143036319Y-98036319D01*
X143138681Y-98138681D01*
X143165561Y-98178909D01*
X143175000Y-98226362D01*
X143175000Y-101273638D01*
X143165561Y-101321091D01*
X143138681Y-101361319D01*
X142711319Y-101788681D01*
X142671091Y-101815561D01*
X142623638Y-101825000D01*
X142025000Y-101825000D01*
X142016364Y-101833635D01*
X142016361Y-101833638D01*
X141658638Y-102191361D01*
X141658635Y-102191364D01*
X141650000Y-102200000D01*
X141650000Y-102212211D01*
X141650000Y-107498638D01*
X141640561Y-107546091D01*
X141613681Y-107586319D01*
X141586319Y-107613681D01*
X141546091Y-107640561D01*
X141498638Y-107650000D01*
X141201362Y-107650000D01*
X141153909Y-107640561D01*
X141113681Y-107613681D01*
X141086319Y-107586319D01*
X141059439Y-107546091D01*
X141050000Y-107498638D01*
X141050000Y-101751362D01*
X141059439Y-101703909D01*
X141086319Y-101663681D01*
X141086318Y-101663681D01*
X141375000Y-101375000D01*
X141375000Y-98923146D01*
X141376262Y-98905499D01*
X141379385Y-98883778D01*
X141379385Y-98883777D01*
X141380647Y-98875000D01*
X141376262Y-98844501D01*
X141375000Y-98826854D01*
X141375000Y-98323146D01*
X141376262Y-98305499D01*
X141379385Y-98283778D01*
X141379385Y-98283777D01*
X141380647Y-98275000D01*
X141376262Y-98244501D01*
X141375000Y-98226854D01*
X141375000Y-98226362D01*
X141384439Y-98178909D01*
X141411319Y-98138681D01*
X141513681Y-98036319D01*
X141553909Y-98009439D01*
X141601362Y-98000000D01*
X142948638Y-98000000D01*
X142996091Y-98009439D01*
G37*
G04 #@! TD.AperFunction*
G04 #@! TA.AperFunction,Conductor*
G36*
X132388000Y-92691613D02*
G01*
X132433387Y-92737000D01*
X132450000Y-92799000D01*
X132450000Y-94223638D01*
X132440561Y-94271091D01*
X132413681Y-94311319D01*
X130983638Y-95741361D01*
X130983635Y-95741364D01*
X130975000Y-95750000D01*
X130975000Y-95762211D01*
X130975000Y-98451000D01*
X130958387Y-98513000D01*
X130913000Y-98558387D01*
X130851000Y-98575000D01*
X128926362Y-98575000D01*
X128878909Y-98565561D01*
X128838681Y-98538681D01*
X128811319Y-98511319D01*
X128784439Y-98471091D01*
X128775000Y-98423638D01*
X128775000Y-92926362D01*
X128784439Y-92878909D01*
X128811319Y-92838681D01*
X128938681Y-92711319D01*
X128978909Y-92684439D01*
X129026362Y-92675000D01*
X132326000Y-92675000D01*
X132388000Y-92691613D01*
G37*
G04 #@! TD.AperFunction*
G04 #@! TA.AperFunction,Conductor*
G36*
X128263000Y-89591613D02*
G01*
X128308387Y-89637000D01*
X128325000Y-89699000D01*
X128325000Y-98376000D01*
X128308387Y-98438000D01*
X128263000Y-98483387D01*
X128201000Y-98500000D01*
X127999000Y-98500000D01*
X127937000Y-98483387D01*
X127891613Y-98438000D01*
X127875000Y-98376000D01*
X127875000Y-97212211D01*
X127875000Y-97200000D01*
X127211754Y-96536754D01*
X127183632Y-96493409D01*
X127176482Y-96447873D01*
X127175500Y-96447873D01*
X127175499Y-95055439D01*
X127175499Y-95052128D01*
X127175167Y-95049040D01*
X127175000Y-95042814D01*
X127175000Y-89699000D01*
X127191613Y-89637000D01*
X127237000Y-89591613D01*
X127299000Y-89575000D01*
X128201000Y-89575000D01*
X128263000Y-89591613D01*
G37*
G04 #@! TD.AperFunction*
G04 #@! TA.AperFunction,Conductor*
G36*
X122313000Y-89341613D02*
G01*
X122358387Y-89387000D01*
X122375000Y-89449000D01*
X122375000Y-101201000D01*
X122358387Y-101263000D01*
X122313000Y-101308387D01*
X122251000Y-101325000D01*
X119748445Y-101325000D01*
X119685146Y-101307627D01*
X119639585Y-101260376D01*
X119607200Y-101201000D01*
X119490031Y-100986180D01*
X119488671Y-100983613D01*
X119251330Y-100522526D01*
X119250345Y-100520571D01*
X119060418Y-100135016D01*
X119059184Y-100132434D01*
X118841088Y-99661909D01*
X118840281Y-99660127D01*
X118666439Y-99266737D01*
X118665302Y-99264080D01*
X118466917Y-98785136D01*
X118466181Y-98783313D01*
X118308762Y-98382800D01*
X118307822Y-98380324D01*
X118129428Y-97893669D01*
X118128709Y-97891652D01*
X117988073Y-97484898D01*
X117987228Y-97482357D01*
X117829134Y-96988863D01*
X117828511Y-96986853D01*
X117704895Y-96574525D01*
X117704158Y-96571963D01*
X117566622Y-96072459D01*
X117566018Y-96070179D01*
X117470353Y-95695000D01*
X119759901Y-95695000D01*
X119760498Y-95701061D01*
X119777655Y-95875268D01*
X119777656Y-95875276D01*
X119778253Y-95881331D01*
X119780018Y-95887152D01*
X119780020Y-95887158D01*
X119830837Y-96054678D01*
X119830839Y-96054683D01*
X119832604Y-96060501D01*
X119835472Y-96065868D01*
X119835474Y-96065871D01*
X119907108Y-96199889D01*
X119920864Y-96225625D01*
X120039643Y-96370357D01*
X120184375Y-96489136D01*
X120349499Y-96577396D01*
X120528669Y-96631747D01*
X120715000Y-96650099D01*
X120901331Y-96631747D01*
X121080501Y-96577396D01*
X121245625Y-96489136D01*
X121390357Y-96370357D01*
X121509136Y-96225625D01*
X121597396Y-96060501D01*
X121651747Y-95881331D01*
X121670099Y-95695000D01*
X121651747Y-95508669D01*
X121597396Y-95329499D01*
X121509136Y-95164375D01*
X121390357Y-95019643D01*
X121245625Y-94900864D01*
X121219889Y-94887108D01*
X121085871Y-94815474D01*
X121085868Y-94815472D01*
X121080501Y-94812604D01*
X121074683Y-94810839D01*
X121074678Y-94810837D01*
X120907158Y-94760020D01*
X120907152Y-94760018D01*
X120901331Y-94758253D01*
X120895276Y-94757656D01*
X120895268Y-94757655D01*
X120721061Y-94740498D01*
X120715000Y-94739901D01*
X120708939Y-94740498D01*
X120534731Y-94757655D01*
X120534721Y-94757656D01*
X120528669Y-94758253D01*
X120522849Y-94760018D01*
X120522841Y-94760020D01*
X120355321Y-94810837D01*
X120355312Y-94810840D01*
X120349499Y-94812604D01*
X120344134Y-94815471D01*
X120344128Y-94815474D01*
X120189751Y-94897990D01*
X120189747Y-94897992D01*
X120184375Y-94900864D01*
X120179667Y-94904727D01*
X120179662Y-94904731D01*
X120044349Y-95015780D01*
X120044344Y-95015784D01*
X120039643Y-95019643D01*
X120035784Y-95024344D01*
X120035780Y-95024349D01*
X119924731Y-95159662D01*
X119924727Y-95159667D01*
X119920864Y-95164375D01*
X119917992Y-95169747D01*
X119917990Y-95169751D01*
X119835474Y-95324128D01*
X119835471Y-95324134D01*
X119832604Y-95329499D01*
X119830840Y-95335312D01*
X119830837Y-95335321D01*
X119780020Y-95502841D01*
X119780018Y-95502849D01*
X119778253Y-95508669D01*
X119777656Y-95514721D01*
X119777655Y-95514731D01*
X119764015Y-95653231D01*
X119759901Y-95695000D01*
X117470353Y-95695000D01*
X117459703Y-95653231D01*
X117459061Y-95650593D01*
X117342292Y-95145872D01*
X117341816Y-95143720D01*
X117252874Y-94722406D01*
X117252356Y-94719813D01*
X117156578Y-94210871D01*
X117156161Y-94208525D01*
X117084822Y-93783880D01*
X117084418Y-93781299D01*
X117009770Y-93268944D01*
X117009449Y-93266580D01*
X116955825Y-92839244D01*
X116955524Y-92836610D01*
X116902115Y-92321632D01*
X116901904Y-92319391D01*
X116866087Y-91890005D01*
X116865911Y-91887579D01*
X116833819Y-91370683D01*
X116833702Y-91368425D01*
X116815779Y-90937932D01*
X116815703Y-90935480D01*
X116805004Y-90417887D01*
X116804978Y-90415325D01*
X116804978Y-89984675D01*
X116805004Y-89982113D01*
X116805209Y-89972158D01*
X116815703Y-89464485D01*
X116815783Y-89461978D01*
X116816539Y-89443837D01*
X116834807Y-89384043D01*
X116879928Y-89340762D01*
X116940431Y-89325000D01*
X122251000Y-89325000D01*
X122313000Y-89341613D01*
G37*
G04 #@! TD.AperFunction*
G04 #@! TA.AperFunction,Conductor*
G36*
X143638000Y-83691613D02*
G01*
X143683387Y-83737000D01*
X143700000Y-83799000D01*
X143700000Y-84851000D01*
X143683387Y-84913000D01*
X143638000Y-84958387D01*
X143576000Y-84975000D01*
X138149000Y-84975000D01*
X138087000Y-84958387D01*
X138041613Y-84913000D01*
X138025000Y-84851000D01*
X138025000Y-83799000D01*
X138041613Y-83737000D01*
X138087000Y-83691613D01*
X138149000Y-83675000D01*
X143576000Y-83675000D01*
X143638000Y-83691613D01*
G37*
G04 #@! TD.AperFunction*
G04 #@! TA.AperFunction,Conductor*
G36*
X150413000Y-80341613D02*
G01*
X150458387Y-80387000D01*
X150475000Y-80449000D01*
X150475000Y-83251000D01*
X150458387Y-83313000D01*
X150413000Y-83358387D01*
X150351000Y-83375000D01*
X144099000Y-83375000D01*
X144037000Y-83358387D01*
X143991613Y-83313000D01*
X143975000Y-83251000D01*
X143975000Y-80449000D01*
X143991613Y-80387000D01*
X144037000Y-80341613D01*
X144099000Y-80325000D01*
X150351000Y-80325000D01*
X150413000Y-80341613D01*
G37*
G04 #@! TD.AperFunction*
G04 #@! TA.AperFunction,Conductor*
G36*
X140114364Y-67207002D02*
G01*
X140115071Y-67207012D01*
X140647595Y-67218020D01*
X140651351Y-67218158D01*
X141066316Y-67239761D01*
X141067091Y-67239805D01*
X141599545Y-67272862D01*
X141603410Y-67273164D01*
X142016083Y-67311913D01*
X142016641Y-67311968D01*
X142548485Y-67367126D01*
X142552363Y-67367591D01*
X142961799Y-67423302D01*
X142962652Y-67423422D01*
X143492624Y-67500637D01*
X143496543Y-67501273D01*
X143687335Y-67535369D01*
X143901974Y-67573727D01*
X143902782Y-67573875D01*
X144430566Y-67673199D01*
X144434384Y-67673982D01*
X144835177Y-67762957D01*
X144835975Y-67763138D01*
X145360430Y-67884472D01*
X145364341Y-67885445D01*
X145555381Y-67936279D01*
X145759690Y-67990644D01*
X145760458Y-67990852D01*
X146280821Y-68134132D01*
X146284617Y-68135245D01*
X146673981Y-68256404D01*
X146674349Y-68256520D01*
X147189964Y-68421701D01*
X147193837Y-68423012D01*
X147576220Y-68559691D01*
X147576841Y-68559916D01*
X148086518Y-68746750D01*
X148090331Y-68748220D01*
X148464916Y-68899966D01*
X148465595Y-68900244D01*
X148769505Y-69026128D01*
X148968723Y-69108647D01*
X148972568Y-69110316D01*
X149338851Y-69276755D01*
X149339645Y-69277120D01*
X149835309Y-69506868D01*
X149839019Y-69508664D01*
X150196150Y-69689230D01*
X150196746Y-69689534D01*
X150684503Y-69940604D01*
X150688236Y-69942607D01*
X151035689Y-70136833D01*
X151036125Y-70137079D01*
X151515102Y-70409234D01*
X151518757Y-70411396D01*
X151793835Y-70580555D01*
X151855601Y-70618538D01*
X151856270Y-70618952D01*
X152325514Y-70911869D01*
X152329110Y-70914202D01*
X152655034Y-71133820D01*
X153114373Y-71447654D01*
X153117930Y-71450178D01*
X153431942Y-71681328D01*
X153432443Y-71681699D01*
X153703682Y-71883952D01*
X153880379Y-72015709D01*
X153883855Y-72018398D01*
X154185691Y-72260575D01*
X154622194Y-72615044D01*
X154625555Y-72617875D01*
X154914199Y-72869904D01*
X154914546Y-72870209D01*
X155250631Y-73167001D01*
X155338500Y-73244597D01*
X155341771Y-73247592D01*
X155617000Y-73508865D01*
X156028146Y-73903358D01*
X156031263Y-73906460D01*
X156206968Y-74087735D01*
X156292115Y-74175582D01*
X156292550Y-74176033D01*
X156689803Y-74590055D01*
X156692881Y-74593382D01*
X156939377Y-74869832D01*
X156939771Y-74870277D01*
X157322459Y-75303629D01*
X157325417Y-75307106D01*
X157556597Y-75589173D01*
X157556952Y-75589607D01*
X157925007Y-76042840D01*
X157927839Y-76046463D01*
X158143401Y-76333004D01*
X158143716Y-76333425D01*
X158496387Y-76806387D01*
X158499087Y-76810153D01*
X158698628Y-77099733D01*
X158698895Y-77100121D01*
X158707591Y-77112850D01*
X159035635Y-77592986D01*
X159038185Y-77596874D01*
X159221187Y-77887639D01*
X159221430Y-77888027D01*
X159541800Y-78401252D01*
X159544214Y-78405287D01*
X159710341Y-78695346D01*
X159710551Y-78695714D01*
X160014015Y-79229792D01*
X160016275Y-79233953D01*
X160105355Y-79405679D01*
X160119714Y-79433360D01*
X160165284Y-79521208D01*
X160348709Y-79877550D01*
X160451487Y-80077220D01*
X160453588Y-80081501D01*
X160584931Y-80362741D01*
X160585081Y-80363065D01*
X160853452Y-80942056D01*
X160855387Y-80946452D01*
X160968775Y-81218194D01*
X160968717Y-81218218D01*
X160968900Y-81218492D01*
X161219220Y-81822822D01*
X161220984Y-81827325D01*
X161316281Y-82085432D01*
X161316380Y-82085703D01*
X161548162Y-82717995D01*
X161549748Y-82722600D01*
X161626629Y-82960900D01*
X161626707Y-82961143D01*
X161729330Y-83281483D01*
X161825847Y-83582766D01*
X161839710Y-83626038D01*
X161841109Y-83630721D01*
X161897056Y-83832503D01*
X161899241Y-83840384D01*
X161899271Y-83840605D01*
X161899300Y-83840598D01*
X162093365Y-84545401D01*
X162094581Y-84550187D01*
X162129193Y-84698776D01*
X162133857Y-84718796D01*
X162133899Y-84718979D01*
X162308687Y-85474489D01*
X162309710Y-85479354D01*
X162330026Y-85586576D01*
X162330040Y-85586730D01*
X162330055Y-85586728D01*
X162485305Y-86411690D01*
X162486132Y-86416629D01*
X162487409Y-86425336D01*
X162487425Y-86425452D01*
X162622507Y-87352593D01*
X162623141Y-87357679D01*
X162720678Y-88298148D01*
X162721102Y-88303256D01*
X162779693Y-89246983D01*
X162779905Y-89252104D01*
X162799447Y-90197436D01*
X162799447Y-90202562D01*
X162779905Y-91147895D01*
X162779693Y-91153016D01*
X162721102Y-92096743D01*
X162720678Y-92101851D01*
X162623141Y-93042320D01*
X162622507Y-93047406D01*
X162487431Y-93974509D01*
X162487412Y-93974641D01*
X162486129Y-93983381D01*
X162485305Y-93988304D01*
X162330083Y-94813123D01*
X162330054Y-94813274D01*
X162309709Y-94920649D01*
X162308686Y-94925514D01*
X162133951Y-95680793D01*
X162133909Y-95680976D01*
X162094579Y-95849816D01*
X162093363Y-95854602D01*
X161899398Y-96559044D01*
X161899339Y-96559257D01*
X161841109Y-96769274D01*
X161839705Y-96773973D01*
X161626753Y-97438714D01*
X161626675Y-97438957D01*
X161549746Y-97677405D01*
X161548160Y-97682010D01*
X161316432Y-98314156D01*
X161316332Y-98314427D01*
X161220980Y-98572681D01*
X161219217Y-98577185D01*
X160968971Y-99181335D01*
X160968847Y-99181633D01*
X160855391Y-99453537D01*
X160853456Y-99457932D01*
X160585143Y-100036800D01*
X160584993Y-100037124D01*
X160453583Y-100318507D01*
X160451482Y-100322788D01*
X160165587Y-100878202D01*
X160165408Y-100878549D01*
X160016269Y-101166055D01*
X160014009Y-101170216D01*
X159710623Y-101704157D01*
X159710413Y-101704525D01*
X159544207Y-101994722D01*
X159541793Y-101998757D01*
X159221506Y-102511849D01*
X159221263Y-102512237D01*
X159038187Y-102803121D01*
X159035627Y-102807023D01*
X158698907Y-103299859D01*
X158698628Y-103300266D01*
X158499087Y-103589845D01*
X158496388Y-103593610D01*
X158143802Y-104066459D01*
X158143486Y-104066880D01*
X157927829Y-104353547D01*
X157924997Y-104357170D01*
X157557041Y-104810282D01*
X157556686Y-104810716D01*
X157325418Y-105092891D01*
X157322460Y-105096369D01*
X156939771Y-105529721D01*
X156939377Y-105530165D01*
X156692855Y-105806643D01*
X156689778Y-105809969D01*
X156292742Y-106223767D01*
X156292306Y-106224220D01*
X156031284Y-106493517D01*
X156028096Y-106496688D01*
X155669799Y-106840474D01*
X155630214Y-106866045D01*
X155583948Y-106875000D01*
X145021100Y-106875000D01*
X144959100Y-106858387D01*
X144913713Y-106813000D01*
X144897100Y-106751000D01*
X144897100Y-104342136D01*
X152886553Y-104342136D01*
X152887150Y-104348197D01*
X152906238Y-104542005D01*
X152906239Y-104542011D01*
X152906836Y-104548070D01*
X152908603Y-104553895D01*
X152908604Y-104553900D01*
X152944145Y-104671063D01*
X152966904Y-104746090D01*
X152969774Y-104751459D01*
X152969776Y-104751464D01*
X153061580Y-104923215D01*
X153064451Y-104928586D01*
X153195726Y-105088546D01*
X153355686Y-105219821D01*
X153538182Y-105317368D01*
X153736202Y-105377436D01*
X153942136Y-105397719D01*
X154148070Y-105377436D01*
X154346090Y-105317368D01*
X154528586Y-105219821D01*
X154688546Y-105088546D01*
X154819821Y-104928586D01*
X154917368Y-104746090D01*
X154977436Y-104548070D01*
X154997719Y-104342136D01*
X154977436Y-104136202D01*
X154917368Y-103938182D01*
X154819821Y-103755686D01*
X154688546Y-103595726D01*
X154528586Y-103464451D01*
X154446207Y-103420418D01*
X154351464Y-103369776D01*
X154351459Y-103369774D01*
X154346090Y-103366904D01*
X154309492Y-103355802D01*
X154153900Y-103308604D01*
X154153895Y-103308603D01*
X154148070Y-103306836D01*
X154142011Y-103306239D01*
X154142005Y-103306238D01*
X153948197Y-103287150D01*
X153942136Y-103286553D01*
X153936075Y-103287150D01*
X153742266Y-103306238D01*
X153742258Y-103306239D01*
X153736202Y-103306836D01*
X153730378Y-103308602D01*
X153730371Y-103308604D01*
X153544013Y-103365135D01*
X153544011Y-103365135D01*
X153538182Y-103366904D01*
X153532815Y-103369772D01*
X153532807Y-103369776D01*
X153361056Y-103461580D01*
X153361051Y-103461583D01*
X153355686Y-103464451D01*
X153350982Y-103468310D01*
X153350978Y-103468314D01*
X153200432Y-103591863D01*
X153200426Y-103591868D01*
X153195726Y-103595726D01*
X153191868Y-103600426D01*
X153191863Y-103600432D01*
X153068314Y-103750978D01*
X153068310Y-103750982D01*
X153064451Y-103755686D01*
X153061583Y-103761051D01*
X153061580Y-103761056D01*
X152969776Y-103932807D01*
X152969772Y-103932815D01*
X152966904Y-103938182D01*
X152965135Y-103944011D01*
X152965135Y-103944013D01*
X152908604Y-104130371D01*
X152908602Y-104130378D01*
X152906836Y-104136202D01*
X152906239Y-104142258D01*
X152906238Y-104142266D01*
X152901629Y-104189067D01*
X152886553Y-104342136D01*
X144897100Y-104342136D01*
X144897100Y-103202488D01*
X144911742Y-103144034D01*
X144952211Y-103099385D01*
X145012293Y-103059240D01*
X145012293Y-103059239D01*
X145022452Y-103052452D01*
X145029239Y-103042293D01*
X145029954Y-103041579D01*
X145079803Y-103011172D01*
X145138042Y-103006949D01*
X145191756Y-103029849D01*
X145217878Y-103061344D01*
X145219879Y-103059916D01*
X145225852Y-103068281D01*
X145230364Y-103077511D01*
X145312489Y-103159636D01*
X145416830Y-103210645D01*
X145484472Y-103220500D01*
X145841042Y-103220500D01*
X145845528Y-103220500D01*
X145913170Y-103210645D01*
X146017511Y-103159636D01*
X146045124Y-103132022D01*
X146100708Y-103099931D01*
X146164896Y-103099930D01*
X146220484Y-103132024D01*
X146241684Y-103153224D01*
X146350513Y-103203972D01*
X146400099Y-103210500D01*
X146759900Y-103210499D01*
X146809487Y-103203972D01*
X146918316Y-103153224D01*
X147003224Y-103068316D01*
X147053972Y-102959487D01*
X147060500Y-102909901D01*
X147060499Y-102490100D01*
X147053972Y-102440513D01*
X147003224Y-102331684D01*
X146918316Y-102246776D01*
X146851273Y-102215513D01*
X146818083Y-102200036D01*
X146818080Y-102200035D01*
X146809487Y-102196028D01*
X146800087Y-102194790D01*
X146800082Y-102194789D01*
X146763921Y-102190029D01*
X146763917Y-102190028D01*
X146759901Y-102189500D01*
X146755847Y-102189500D01*
X146404159Y-102189500D01*
X146404143Y-102189500D01*
X146400100Y-102189501D01*
X146396084Y-102190029D01*
X146396078Y-102190030D01*
X146359917Y-102194790D01*
X146359915Y-102194790D01*
X146350513Y-102196028D01*
X146341916Y-102200036D01*
X146341915Y-102200037D01*
X146251514Y-102242192D01*
X146241684Y-102246776D01*
X146234015Y-102254444D01*
X146234012Y-102254447D01*
X146220482Y-102267977D01*
X146164895Y-102300069D01*
X146100708Y-102300069D01*
X146045122Y-102267975D01*
X146024776Y-102247629D01*
X146017511Y-102240364D01*
X146008284Y-102235853D01*
X146008281Y-102235851D01*
X145921819Y-102193583D01*
X145921817Y-102193582D01*
X145913170Y-102189355D01*
X145903647Y-102187967D01*
X145903642Y-102187966D01*
X145849964Y-102180146D01*
X145849959Y-102180145D01*
X145845528Y-102179500D01*
X145484472Y-102179500D01*
X145480041Y-102180145D01*
X145480035Y-102180146D01*
X145426357Y-102187966D01*
X145426351Y-102187967D01*
X145416830Y-102189355D01*
X145408183Y-102193581D01*
X145408180Y-102193583D01*
X145321718Y-102235851D01*
X145321712Y-102235854D01*
X145312489Y-102240364D01*
X145305226Y-102247626D01*
X145305223Y-102247629D01*
X145237629Y-102315223D01*
X145237626Y-102315226D01*
X145230364Y-102322489D01*
X145225852Y-102331717D01*
X145219879Y-102340084D01*
X145217880Y-102338657D01*
X145191746Y-102370158D01*
X145138034Y-102393051D01*
X145079801Y-102388827D01*
X145029956Y-102358421D01*
X145029235Y-102357700D01*
X145022452Y-102347548D01*
X145009145Y-102338657D01*
X144968512Y-102311507D01*
X144928044Y-102266858D01*
X144913402Y-102208404D01*
X144928044Y-102149951D01*
X144968509Y-102105303D01*
X145014544Y-102074544D01*
X145068053Y-101994463D01*
X145082100Y-101923844D01*
X145082100Y-101536156D01*
X145068053Y-101465537D01*
X145014544Y-101385456D01*
X144983508Y-101364718D01*
X144943043Y-101320070D01*
X144928402Y-101261617D01*
X144943044Y-101203164D01*
X144983513Y-101158515D01*
X145042297Y-101119237D01*
X145042296Y-101119237D01*
X145052452Y-101112452D01*
X145107618Y-101029889D01*
X145122100Y-100957084D01*
X145122100Y-100612916D01*
X145107618Y-100540111D01*
X145052452Y-100457548D01*
X145042297Y-100450763D01*
X144970968Y-100403103D01*
X144930500Y-100358454D01*
X144915858Y-100300000D01*
X144930500Y-100241546D01*
X144970968Y-100196897D01*
X145052452Y-100142452D01*
X145107618Y-100059889D01*
X145122100Y-99987084D01*
X145122100Y-99642916D01*
X145107618Y-99570111D01*
X145052452Y-99487548D01*
X145042299Y-99480764D01*
X145042296Y-99480761D01*
X144990995Y-99446483D01*
X144950527Y-99401834D01*
X144935885Y-99343380D01*
X144950528Y-99284926D01*
X144990994Y-99240279D01*
X145014544Y-99224544D01*
X145068053Y-99144463D01*
X145082100Y-99073844D01*
X145082100Y-98921722D01*
X145099913Y-98857689D01*
X145148233Y-98812052D01*
X145213179Y-98797924D01*
X145276091Y-98819363D01*
X145318894Y-98870210D01*
X145338434Y-98912998D01*
X145338436Y-98913002D01*
X145342118Y-98921063D01*
X145347920Y-98927759D01*
X145347922Y-98927762D01*
X145409059Y-98998318D01*
X145426951Y-99018967D01*
X145535931Y-99089004D01*
X145660228Y-99125500D01*
X145780901Y-99125500D01*
X145789772Y-99125500D01*
X145914069Y-99089004D01*
X146023049Y-99018967D01*
X146024063Y-99017795D01*
X146056890Y-98998318D01*
X146100224Y-98990500D01*
X146112598Y-98990500D01*
X146160051Y-98999939D01*
X146200279Y-99026819D01*
X146261684Y-99088224D01*
X146370513Y-99138972D01*
X146420099Y-99145500D01*
X146839900Y-99145499D01*
X146889487Y-99138972D01*
X146978215Y-99097597D01*
X147036294Y-99086110D01*
X147093082Y-99102863D01*
X147135629Y-99144037D01*
X147154234Y-99200246D01*
X147154500Y-99203626D01*
X147154500Y-99208488D01*
X147155260Y-99213288D01*
X147155261Y-99213297D01*
X147168753Y-99298484D01*
X147168754Y-99298489D01*
X147170281Y-99308126D01*
X147231472Y-99428220D01*
X147326780Y-99523528D01*
X147446874Y-99584719D01*
X147546512Y-99600500D01*
X148108610Y-99600500D01*
X148113488Y-99600500D01*
X148213126Y-99584719D01*
X148333220Y-99523528D01*
X148340123Y-99516624D01*
X148348014Y-99510892D01*
X148348913Y-99512130D01*
X148387182Y-99488679D01*
X148444898Y-99484137D01*
X148498385Y-99506292D01*
X148535985Y-99550315D01*
X148549500Y-99606610D01*
X148549500Y-99830528D01*
X148550145Y-99834959D01*
X148550146Y-99834964D01*
X148557966Y-99888642D01*
X148557967Y-99888647D01*
X148559355Y-99898170D01*
X148563582Y-99906817D01*
X148563583Y-99906819D01*
X148605851Y-99993281D01*
X148605853Y-99993284D01*
X148610364Y-100002511D01*
X148617628Y-100009775D01*
X148617629Y-100009776D01*
X148642975Y-100035122D01*
X148675068Y-100090708D01*
X148675069Y-100154894D01*
X148642978Y-100210482D01*
X148626776Y-100226684D01*
X148622192Y-100236513D01*
X148622192Y-100236514D01*
X148580036Y-100326916D01*
X148580034Y-100326920D01*
X148576028Y-100335513D01*
X148574790Y-100344910D01*
X148574789Y-100344917D01*
X148570029Y-100381078D01*
X148569500Y-100385099D01*
X148569500Y-100389151D01*
X148569500Y-100389152D01*
X148569500Y-100740840D01*
X148569500Y-100740855D01*
X148569501Y-100744900D01*
X148570029Y-100748916D01*
X148570030Y-100748921D01*
X148573902Y-100778336D01*
X148576028Y-100794487D01*
X148626776Y-100903316D01*
X148711684Y-100988224D01*
X148820513Y-101038972D01*
X148870099Y-101045500D01*
X149289900Y-101045499D01*
X149339487Y-101038972D01*
X149448316Y-100988224D01*
X149533224Y-100903316D01*
X149583972Y-100794487D01*
X149590500Y-100744901D01*
X149590499Y-100385100D01*
X149583972Y-100335513D01*
X149533224Y-100226684D01*
X149507024Y-100200483D01*
X149474930Y-100144896D01*
X149474931Y-100080708D01*
X149507024Y-100025122D01*
X149529636Y-100002511D01*
X149580645Y-99898170D01*
X149582787Y-99899217D01*
X149603319Y-99864345D01*
X149651322Y-99833332D01*
X149708136Y-99827141D01*
X149761692Y-99847088D01*
X149791614Y-99867082D01*
X149791615Y-99867082D01*
X149801769Y-99873867D01*
X149860252Y-99885500D01*
X151293652Y-99885500D01*
X151299748Y-99885500D01*
X151358231Y-99873867D01*
X151367032Y-99867986D01*
X151412887Y-99858865D01*
X151460340Y-99868304D01*
X151500568Y-99895184D01*
X151843181Y-100237797D01*
X151870061Y-100278025D01*
X151879500Y-100325478D01*
X151879500Y-101404748D01*
X151880688Y-101410723D01*
X151880689Y-101410728D01*
X151884647Y-101430624D01*
X151891133Y-101463231D01*
X151897916Y-101473383D01*
X151897917Y-101473384D01*
X151919459Y-101505624D01*
X151935448Y-101529552D01*
X152001769Y-101573867D01*
X152060252Y-101585500D01*
X153493652Y-101585500D01*
X153499748Y-101585500D01*
X153558231Y-101573867D01*
X153624552Y-101529552D01*
X153629680Y-101521877D01*
X153672681Y-101494481D01*
X153725899Y-101487474D01*
X153777092Y-101503614D01*
X153814056Y-101537484D01*
X153816776Y-101543316D01*
X153901684Y-101628224D01*
X154010513Y-101678972D01*
X154060099Y-101685500D01*
X154479900Y-101685499D01*
X154529487Y-101678972D01*
X154638316Y-101628224D01*
X154723224Y-101543316D01*
X154773972Y-101434487D01*
X154780500Y-101384901D01*
X154780499Y-101025100D01*
X154773972Y-100975513D01*
X154723224Y-100866684D01*
X154638316Y-100781776D01*
X154559238Y-100744901D01*
X154538083Y-100735036D01*
X154538080Y-100735035D01*
X154529487Y-100731028D01*
X154520087Y-100729790D01*
X154520082Y-100729789D01*
X154483921Y-100725029D01*
X154483917Y-100725028D01*
X154479901Y-100724500D01*
X154475847Y-100724500D01*
X154064159Y-100724500D01*
X154064143Y-100724500D01*
X154060100Y-100724501D01*
X154056084Y-100725029D01*
X154056078Y-100725030D01*
X154019917Y-100729790D01*
X154019915Y-100729790D01*
X154010513Y-100731028D01*
X154001916Y-100735036D01*
X154001915Y-100735037D01*
X153917682Y-100774316D01*
X153901684Y-100781776D01*
X153894016Y-100789443D01*
X153894013Y-100789446D01*
X153892181Y-100791279D01*
X153885896Y-100795130D01*
X153885127Y-100795669D01*
X153885094Y-100795621D01*
X153842818Y-100821529D01*
X153785102Y-100826071D01*
X153731615Y-100803916D01*
X153694015Y-100759893D01*
X153680500Y-100703598D01*
X153680500Y-100171348D01*
X153680500Y-100165252D01*
X153668867Y-100106769D01*
X153624552Y-100040448D01*
X153601612Y-100025120D01*
X153568384Y-100002917D01*
X153568383Y-100002916D01*
X153558231Y-99996133D01*
X153546253Y-99993750D01*
X153546252Y-99993750D01*
X153505728Y-99985689D01*
X153505723Y-99985688D01*
X153499748Y-99984500D01*
X153493652Y-99984500D01*
X152420478Y-99984500D01*
X152373025Y-99975061D01*
X152332797Y-99948181D01*
X151866819Y-99482203D01*
X151839939Y-99441975D01*
X151830500Y-99394522D01*
X151830500Y-98219344D01*
X151832881Y-98195161D01*
X151835897Y-98180000D01*
X151820792Y-98104063D01*
X151814515Y-98072505D01*
X151753624Y-97981376D01*
X151743470Y-97974591D01*
X151743469Y-97974590D01*
X151740775Y-97972790D01*
X151721986Y-97957370D01*
X151647627Y-97883011D01*
X151632210Y-97864226D01*
X151623624Y-97851376D01*
X151600623Y-97836007D01*
X151600622Y-97836006D01*
X151565442Y-97812500D01*
X151532495Y-97790485D01*
X151520517Y-97788102D01*
X151520514Y-97788101D01*
X151452133Y-97774500D01*
X151452130Y-97774499D01*
X151436981Y-97771486D01*
X151436980Y-97771486D01*
X151425000Y-97769103D01*
X151413020Y-97771486D01*
X151409848Y-97772117D01*
X151385656Y-97774500D01*
X149565478Y-97774500D01*
X149518025Y-97765061D01*
X149477797Y-97738181D01*
X149399319Y-97659703D01*
X149372439Y-97619475D01*
X149363000Y-97572022D01*
X149363000Y-97291446D01*
X149370942Y-97251516D01*
X149373466Y-97247740D01*
X149388000Y-97174674D01*
X149388000Y-96350326D01*
X149373466Y-96277260D01*
X149318101Y-96194399D01*
X149287008Y-96173624D01*
X149245396Y-96145820D01*
X149235240Y-96139034D01*
X149223262Y-96136651D01*
X149223259Y-96136650D01*
X149168153Y-96125689D01*
X149168149Y-96125688D01*
X149162174Y-96124500D01*
X149012826Y-96124500D01*
X149006851Y-96125688D01*
X149006846Y-96125689D01*
X148951736Y-96136651D01*
X148951732Y-96136652D01*
X148939760Y-96139034D01*
X148932059Y-96144179D01*
X148887500Y-96153043D01*
X148842940Y-96144179D01*
X148835240Y-96139034D01*
X148823265Y-96136652D01*
X148823263Y-96136651D01*
X148768153Y-96125689D01*
X148768149Y-96125688D01*
X148762174Y-96124500D01*
X148612826Y-96124500D01*
X148606851Y-96125688D01*
X148606846Y-96125689D01*
X148551736Y-96136651D01*
X148551732Y-96136652D01*
X148539760Y-96139034D01*
X148532059Y-96144179D01*
X148487500Y-96153043D01*
X148442940Y-96144179D01*
X148435240Y-96139034D01*
X148423265Y-96136652D01*
X148423263Y-96136651D01*
X148368153Y-96125689D01*
X148368149Y-96125688D01*
X148362174Y-96124500D01*
X148212826Y-96124500D01*
X148206851Y-96125688D01*
X148206846Y-96125689D01*
X148151736Y-96136651D01*
X148151732Y-96136652D01*
X148139760Y-96139034D01*
X148132059Y-96144179D01*
X148087500Y-96153043D01*
X148042940Y-96144179D01*
X148035240Y-96139034D01*
X148023265Y-96136652D01*
X148023263Y-96136651D01*
X147968153Y-96125689D01*
X147968149Y-96125688D01*
X147962174Y-96124500D01*
X147812826Y-96124500D01*
X147806851Y-96125688D01*
X147806846Y-96125689D01*
X147739760Y-96139034D01*
X147739254Y-96136494D01*
X147691911Y-96142327D01*
X147631443Y-96115514D01*
X147593364Y-96061428D01*
X147589000Y-96002132D01*
X147587814Y-96002016D01*
X147588409Y-95995964D01*
X147589600Y-95989981D01*
X147589599Y-95860020D01*
X147588410Y-95854046D01*
X147587814Y-95847985D01*
X147589924Y-95847777D01*
X147592329Y-95798715D01*
X147618149Y-95755633D01*
X147618101Y-95755601D01*
X147618101Y-95755600D01*
X147673466Y-95672740D01*
X147688000Y-95599674D01*
X147688000Y-95450326D01*
X147673466Y-95377260D01*
X147668320Y-95369558D01*
X147659456Y-95324997D01*
X147668320Y-95280441D01*
X147673466Y-95272740D01*
X147688000Y-95199674D01*
X147688000Y-95050326D01*
X147673466Y-94977260D01*
X147668319Y-94969557D01*
X147659456Y-94925000D01*
X147668319Y-94880442D01*
X147673466Y-94872740D01*
X147688000Y-94799674D01*
X147688000Y-94650326D01*
X147673466Y-94577260D01*
X147668319Y-94569558D01*
X147659457Y-94524997D01*
X147668319Y-94480441D01*
X147673466Y-94472740D01*
X147688000Y-94399674D01*
X147688000Y-94250326D01*
X147673466Y-94177260D01*
X147668319Y-94169557D01*
X147659456Y-94125000D01*
X147668319Y-94080442D01*
X147673466Y-94072740D01*
X147688000Y-93999674D01*
X147688000Y-93850326D01*
X147673466Y-93777260D01*
X147668320Y-93769558D01*
X147659456Y-93724997D01*
X147668320Y-93680441D01*
X147673466Y-93672740D01*
X147688000Y-93599674D01*
X147688000Y-93450326D01*
X147673466Y-93377260D01*
X147668320Y-93369558D01*
X147659456Y-93324997D01*
X147668320Y-93280441D01*
X147673466Y-93272740D01*
X147688000Y-93199674D01*
X147688000Y-93050326D01*
X147673466Y-92977260D01*
X147668319Y-92969557D01*
X147659456Y-92925000D01*
X147668319Y-92880442D01*
X147673466Y-92872740D01*
X147688000Y-92799674D01*
X147688000Y-92650326D01*
X147673466Y-92577260D01*
X147668319Y-92569558D01*
X147659457Y-92524997D01*
X147668319Y-92480441D01*
X147673466Y-92472740D01*
X147688000Y-92399674D01*
X147688000Y-92250326D01*
X147673466Y-92177260D01*
X147668319Y-92169557D01*
X147659456Y-92125000D01*
X147668319Y-92080442D01*
X147673466Y-92072740D01*
X147688000Y-91999674D01*
X147688000Y-91850326D01*
X147673466Y-91777260D01*
X147668319Y-91769557D01*
X147659456Y-91725000D01*
X147668319Y-91680442D01*
X147673466Y-91672740D01*
X147688000Y-91599674D01*
X147688000Y-91450326D01*
X147673466Y-91377260D01*
X147668320Y-91369558D01*
X147659456Y-91324997D01*
X147668320Y-91280441D01*
X147673466Y-91272740D01*
X147688000Y-91199674D01*
X147688000Y-91050326D01*
X147673466Y-90977260D01*
X147668319Y-90969557D01*
X147659456Y-90925000D01*
X147668319Y-90880442D01*
X147673466Y-90872740D01*
X147688000Y-90799674D01*
X147688000Y-90650326D01*
X147689906Y-90650326D01*
X147695142Y-90607678D01*
X147724228Y-90561728D01*
X147770178Y-90532642D01*
X147812826Y-90527406D01*
X147812826Y-90525500D01*
X147956079Y-90525500D01*
X147962174Y-90525500D01*
X148035240Y-90510966D01*
X148042942Y-90505819D01*
X148087500Y-90496956D01*
X148132057Y-90505819D01*
X148139760Y-90510966D01*
X148212826Y-90525500D01*
X148356079Y-90525500D01*
X148362174Y-90525500D01*
X148435240Y-90510966D01*
X148442942Y-90505819D01*
X148487500Y-90496956D01*
X148532057Y-90505819D01*
X148539760Y-90510966D01*
X148612826Y-90525500D01*
X148756079Y-90525500D01*
X148762174Y-90525500D01*
X148835240Y-90510966D01*
X148842942Y-90505819D01*
X148887500Y-90496956D01*
X148932057Y-90505819D01*
X148939760Y-90510966D01*
X149012826Y-90525500D01*
X149156079Y-90525500D01*
X149162174Y-90525500D01*
X149235240Y-90510966D01*
X149242942Y-90505819D01*
X149287500Y-90496956D01*
X149332057Y-90505819D01*
X149339760Y-90510966D01*
X149412826Y-90525500D01*
X149556079Y-90525500D01*
X149562174Y-90525500D01*
X149635240Y-90510966D01*
X149642942Y-90505819D01*
X149687500Y-90496956D01*
X149732057Y-90505819D01*
X149739760Y-90510966D01*
X149812826Y-90525500D01*
X149956079Y-90525500D01*
X149962174Y-90525500D01*
X150035240Y-90510966D01*
X150042942Y-90505819D01*
X150087500Y-90496956D01*
X150132057Y-90505819D01*
X150139760Y-90510966D01*
X150212826Y-90525500D01*
X150356079Y-90525500D01*
X150362174Y-90525500D01*
X150435240Y-90510966D01*
X150442942Y-90505819D01*
X150487500Y-90496956D01*
X150532057Y-90505819D01*
X150539760Y-90510966D01*
X150612826Y-90525500D01*
X150756079Y-90525500D01*
X150762174Y-90525500D01*
X150835240Y-90510966D01*
X150842942Y-90505819D01*
X150887500Y-90496956D01*
X150932057Y-90505819D01*
X150939760Y-90510966D01*
X151012826Y-90525500D01*
X151156079Y-90525500D01*
X151162174Y-90525500D01*
X151235240Y-90510966D01*
X151242942Y-90505819D01*
X151287500Y-90496956D01*
X151332057Y-90505819D01*
X151339760Y-90510966D01*
X151412826Y-90525500D01*
X151556079Y-90525500D01*
X151562174Y-90525500D01*
X151635240Y-90510966D01*
X151642942Y-90505819D01*
X151687500Y-90496956D01*
X151732057Y-90505819D01*
X151739760Y-90510966D01*
X151812826Y-90525500D01*
X151956079Y-90525500D01*
X151962174Y-90525500D01*
X152035240Y-90510966D01*
X152042942Y-90505819D01*
X152087500Y-90496956D01*
X152132057Y-90505819D01*
X152139760Y-90510966D01*
X152212826Y-90525500D01*
X152356079Y-90525500D01*
X152362174Y-90525500D01*
X152435240Y-90510966D01*
X152442942Y-90505819D01*
X152487500Y-90496956D01*
X152532057Y-90505819D01*
X152539760Y-90510966D01*
X152612826Y-90525500D01*
X152756079Y-90525500D01*
X152762174Y-90525500D01*
X152835240Y-90510966D01*
X152842942Y-90505819D01*
X152887500Y-90496956D01*
X152932057Y-90505819D01*
X152939760Y-90510966D01*
X153012826Y-90525500D01*
X153018921Y-90525500D01*
X153162174Y-90525500D01*
X153162174Y-90527406D01*
X153204780Y-90532628D01*
X153250719Y-90561676D01*
X153279822Y-90607580D01*
X153285112Y-90650326D01*
X153287000Y-90650326D01*
X153287000Y-90799674D01*
X153288188Y-90805649D01*
X153288189Y-90805653D01*
X153299150Y-90860758D01*
X153299151Y-90860760D01*
X153301534Y-90872740D01*
X153306680Y-90880442D01*
X153315543Y-90924997D01*
X153306680Y-90969557D01*
X153301534Y-90977260D01*
X153299151Y-90989236D01*
X153299151Y-90989238D01*
X153288189Y-91044346D01*
X153288188Y-91044351D01*
X153287000Y-91050326D01*
X153287000Y-91199674D01*
X153288188Y-91205649D01*
X153288189Y-91205653D01*
X153299151Y-91260763D01*
X153299152Y-91260765D01*
X153301534Y-91272740D01*
X153306679Y-91280440D01*
X153315543Y-91325000D01*
X153306679Y-91369559D01*
X153301534Y-91377260D01*
X153299152Y-91389232D01*
X153299151Y-91389236D01*
X153288189Y-91444346D01*
X153288188Y-91444351D01*
X153287000Y-91450326D01*
X153287000Y-91599674D01*
X153288188Y-91605649D01*
X153288189Y-91605653D01*
X153299151Y-91660763D01*
X153299152Y-91660765D01*
X153301534Y-91672740D01*
X153306679Y-91680440D01*
X153315543Y-91725000D01*
X153306679Y-91769559D01*
X153301534Y-91777260D01*
X153299152Y-91789232D01*
X153299151Y-91789236D01*
X153288189Y-91844346D01*
X153288188Y-91844351D01*
X153287000Y-91850326D01*
X153287000Y-91999674D01*
X153288188Y-92005649D01*
X153288189Y-92005653D01*
X153299150Y-92060758D01*
X153299151Y-92060760D01*
X153301534Y-92072740D01*
X153306680Y-92080442D01*
X153315543Y-92124997D01*
X153306680Y-92169557D01*
X153301534Y-92177260D01*
X153299151Y-92189236D01*
X153299151Y-92189238D01*
X153288189Y-92244346D01*
X153288188Y-92244351D01*
X153287000Y-92250326D01*
X153287000Y-92399674D01*
X153288188Y-92405649D01*
X153288189Y-92405653D01*
X153299150Y-92460758D01*
X153299151Y-92460760D01*
X153301534Y-92472740D01*
X153306680Y-92480442D01*
X153315543Y-92524997D01*
X153306680Y-92569557D01*
X153301534Y-92577260D01*
X153299151Y-92589236D01*
X153299151Y-92589238D01*
X153288189Y-92644346D01*
X153288188Y-92644351D01*
X153287000Y-92650326D01*
X153287000Y-92799674D01*
X153288188Y-92805649D01*
X153288189Y-92805653D01*
X153299151Y-92860763D01*
X153299152Y-92860765D01*
X153301534Y-92872740D01*
X153306679Y-92880440D01*
X153315542Y-92924997D01*
X153306679Y-92969559D01*
X153301534Y-92977260D01*
X153299152Y-92989231D01*
X153299152Y-92989233D01*
X153288189Y-93044346D01*
X153288188Y-93044351D01*
X153287000Y-93050326D01*
X153287000Y-93199674D01*
X153288188Y-93205649D01*
X153288189Y-93205653D01*
X153299151Y-93260763D01*
X153299152Y-93260765D01*
X153301534Y-93272740D01*
X153306679Y-93280440D01*
X153315543Y-93325000D01*
X153306679Y-93369559D01*
X153301534Y-93377260D01*
X153299152Y-93389232D01*
X153299151Y-93389236D01*
X153288189Y-93444346D01*
X153288188Y-93444351D01*
X153287000Y-93450326D01*
X153287000Y-93599674D01*
X153288188Y-93605649D01*
X153288189Y-93605653D01*
X153299151Y-93660763D01*
X153299152Y-93660765D01*
X153301534Y-93672740D01*
X153306679Y-93680440D01*
X153315543Y-93725000D01*
X153306679Y-93769559D01*
X153301534Y-93777260D01*
X153299152Y-93789232D01*
X153299151Y-93789236D01*
X153288189Y-93844346D01*
X153288188Y-93844351D01*
X153287000Y-93850326D01*
X153287000Y-93999674D01*
X153288188Y-94005649D01*
X153288189Y-94005653D01*
X153299150Y-94060758D01*
X153299151Y-94060760D01*
X153301534Y-94072740D01*
X153306680Y-94080442D01*
X153315543Y-94124997D01*
X153306680Y-94169557D01*
X153301534Y-94177260D01*
X153299151Y-94189236D01*
X153299151Y-94189238D01*
X153288189Y-94244346D01*
X153288188Y-94244351D01*
X153287000Y-94250326D01*
X153287000Y-94399674D01*
X153288188Y-94405649D01*
X153288189Y-94405653D01*
X153299150Y-94460758D01*
X153299151Y-94460760D01*
X153301534Y-94472740D01*
X153306680Y-94480442D01*
X153315543Y-94524997D01*
X153306680Y-94569557D01*
X153301534Y-94577260D01*
X153299151Y-94589236D01*
X153299151Y-94589238D01*
X153288189Y-94644346D01*
X153288188Y-94644351D01*
X153287000Y-94650326D01*
X153287000Y-94799674D01*
X153288188Y-94805649D01*
X153288189Y-94805653D01*
X153299150Y-94860758D01*
X153299151Y-94860760D01*
X153301534Y-94872740D01*
X153306680Y-94880442D01*
X153315543Y-94924997D01*
X153306680Y-94969557D01*
X153301534Y-94977260D01*
X153299151Y-94989236D01*
X153299151Y-94989238D01*
X153288189Y-95044346D01*
X153288188Y-95044351D01*
X153287000Y-95050326D01*
X153287000Y-95199674D01*
X153288188Y-95205649D01*
X153288189Y-95205653D01*
X153299151Y-95260763D01*
X153299152Y-95260765D01*
X153301534Y-95272740D01*
X153306679Y-95280440D01*
X153315543Y-95325000D01*
X153306679Y-95369559D01*
X153301534Y-95377260D01*
X153299152Y-95389232D01*
X153299151Y-95389236D01*
X153288189Y-95444346D01*
X153288188Y-95444351D01*
X153287000Y-95450326D01*
X153287000Y-95599674D01*
X153288188Y-95605649D01*
X153288189Y-95605653D01*
X153299151Y-95660763D01*
X153299152Y-95660765D01*
X153301534Y-95672740D01*
X153306679Y-95680440D01*
X153315543Y-95725000D01*
X153306679Y-95769559D01*
X153301534Y-95777260D01*
X153299152Y-95789232D01*
X153299151Y-95789236D01*
X153288189Y-95844346D01*
X153288188Y-95844351D01*
X153287000Y-95850326D01*
X153287000Y-95856421D01*
X153287000Y-95999674D01*
X153285112Y-95999674D01*
X153279837Y-96042378D01*
X153250771Y-96088271D01*
X153204878Y-96117337D01*
X153162174Y-96122612D01*
X153162174Y-96124500D01*
X153012826Y-96124500D01*
X153006851Y-96125688D01*
X153006846Y-96125689D01*
X152951736Y-96136651D01*
X152951732Y-96136652D01*
X152939760Y-96139034D01*
X152932059Y-96144179D01*
X152887500Y-96153043D01*
X152842940Y-96144179D01*
X152835240Y-96139034D01*
X152823265Y-96136652D01*
X152823263Y-96136651D01*
X152768153Y-96125689D01*
X152768149Y-96125688D01*
X152762174Y-96124500D01*
X152612826Y-96124500D01*
X152606851Y-96125688D01*
X152606846Y-96125689D01*
X152551736Y-96136651D01*
X152551732Y-96136652D01*
X152539760Y-96139034D01*
X152532059Y-96144179D01*
X152487500Y-96153043D01*
X152442940Y-96144179D01*
X152435240Y-96139034D01*
X152423265Y-96136652D01*
X152423263Y-96136651D01*
X152368153Y-96125689D01*
X152368149Y-96125688D01*
X152362174Y-96124500D01*
X152212826Y-96124500D01*
X152206851Y-96125688D01*
X152206846Y-96125689D01*
X152151736Y-96136651D01*
X152151732Y-96136652D01*
X152139760Y-96139034D01*
X152132059Y-96144179D01*
X152087500Y-96153043D01*
X152042940Y-96144179D01*
X152035240Y-96139034D01*
X152023265Y-96136652D01*
X152023263Y-96136651D01*
X151968153Y-96125689D01*
X151968149Y-96125688D01*
X151962174Y-96124500D01*
X151812826Y-96124500D01*
X151806851Y-96125688D01*
X151806846Y-96125689D01*
X151751736Y-96136651D01*
X151751732Y-96136652D01*
X151739760Y-96139034D01*
X151732059Y-96144179D01*
X151687500Y-96153043D01*
X151642940Y-96144179D01*
X151635240Y-96139034D01*
X151623265Y-96136652D01*
X151623263Y-96136651D01*
X151568153Y-96125689D01*
X151568149Y-96125688D01*
X151562174Y-96124500D01*
X151412826Y-96124500D01*
X151406851Y-96125688D01*
X151406846Y-96125689D01*
X151351736Y-96136651D01*
X151351732Y-96136652D01*
X151339760Y-96139034D01*
X151332059Y-96144179D01*
X151287500Y-96153043D01*
X151242940Y-96144179D01*
X151235240Y-96139034D01*
X151223265Y-96136652D01*
X151223263Y-96136651D01*
X151168153Y-96125689D01*
X151168149Y-96125688D01*
X151162174Y-96124500D01*
X151012826Y-96124500D01*
X151006851Y-96125688D01*
X151006846Y-96125689D01*
X150951736Y-96136651D01*
X150951732Y-96136652D01*
X150939760Y-96139034D01*
X150932059Y-96144179D01*
X150887500Y-96153043D01*
X150842940Y-96144179D01*
X150835240Y-96139034D01*
X150823265Y-96136652D01*
X150823263Y-96136651D01*
X150768153Y-96125689D01*
X150768149Y-96125688D01*
X150762174Y-96124500D01*
X150612826Y-96124500D01*
X150606851Y-96125688D01*
X150606846Y-96125689D01*
X150551736Y-96136651D01*
X150551732Y-96136652D01*
X150539760Y-96139034D01*
X150532059Y-96144179D01*
X150487500Y-96153043D01*
X150442940Y-96144179D01*
X150435240Y-96139034D01*
X150423265Y-96136652D01*
X150423263Y-96136651D01*
X150368153Y-96125689D01*
X150368149Y-96125688D01*
X150362174Y-96124500D01*
X150212826Y-96124500D01*
X150206851Y-96125688D01*
X150206846Y-96125689D01*
X150151740Y-96136650D01*
X150151735Y-96136651D01*
X150139760Y-96139034D01*
X150129605Y-96145819D01*
X150129603Y-96145820D01*
X150067051Y-96187615D01*
X150067048Y-96187617D01*
X150056899Y-96194399D01*
X150050117Y-96204548D01*
X150050115Y-96204551D01*
X150008320Y-96267103D01*
X150008319Y-96267105D01*
X150001534Y-96277260D01*
X149999151Y-96289235D01*
X149999150Y-96289240D01*
X149988189Y-96344346D01*
X149988188Y-96344351D01*
X149987000Y-96350326D01*
X149987000Y-97174674D01*
X149988188Y-97180649D01*
X149988189Y-97180653D01*
X149999150Y-97235759D01*
X149999151Y-97235761D01*
X150001534Y-97247740D01*
X150056899Y-97330601D01*
X150139760Y-97385966D01*
X150212826Y-97400500D01*
X150356079Y-97400500D01*
X150362174Y-97400500D01*
X150435240Y-97385966D01*
X150442941Y-97380819D01*
X150487497Y-97371957D01*
X150532058Y-97380819D01*
X150539760Y-97385966D01*
X150612826Y-97400500D01*
X150756079Y-97400500D01*
X150762174Y-97400500D01*
X150835240Y-97385966D01*
X150842941Y-97380819D01*
X150887497Y-97371957D01*
X150932058Y-97380819D01*
X150939760Y-97385966D01*
X151012826Y-97400500D01*
X151156079Y-97400500D01*
X151162174Y-97400500D01*
X151235240Y-97385966D01*
X151242941Y-97380819D01*
X151287497Y-97371957D01*
X151332058Y-97380819D01*
X151339760Y-97385966D01*
X151412826Y-97400500D01*
X151556083Y-97400500D01*
X151562174Y-97400500D01*
X151568153Y-97399310D01*
X151570504Y-97399079D01*
X151635673Y-97410383D01*
X151671566Y-97441339D01*
X151673454Y-97439452D01*
X151682089Y-97448086D01*
X151688876Y-97458243D01*
X151701726Y-97466829D01*
X151720511Y-97482246D01*
X151880251Y-97641986D01*
X151895671Y-97660775D01*
X151897468Y-97663465D01*
X151897470Y-97663467D01*
X151904257Y-97673624D01*
X151926710Y-97688627D01*
X151927248Y-97688986D01*
X151927259Y-97688994D01*
X151948550Y-97703220D01*
X151948550Y-97703221D01*
X151985229Y-97727729D01*
X151985231Y-97727730D01*
X151995386Y-97734515D01*
X152075748Y-97750500D01*
X152075749Y-97750500D01*
X152102881Y-97755897D01*
X152118042Y-97752881D01*
X152142225Y-97750500D01*
X154530656Y-97750500D01*
X154554847Y-97752882D01*
X154570000Y-97755897D01*
X154597132Y-97750500D01*
X154597133Y-97750500D01*
X154677495Y-97734515D01*
X154693066Y-97724111D01*
X154724331Y-97703221D01*
X154724331Y-97703220D01*
X154745622Y-97688994D01*
X154745626Y-97688989D01*
X154768624Y-97673624D01*
X154777210Y-97660772D01*
X154792619Y-97641995D01*
X154912800Y-97521814D01*
X154953025Y-97494938D01*
X155000478Y-97485499D01*
X155245841Y-97485499D01*
X155249900Y-97485499D01*
X155299487Y-97478972D01*
X155408316Y-97428224D01*
X155493224Y-97343316D01*
X155543972Y-97234487D01*
X155550500Y-97184901D01*
X155550499Y-96919392D01*
X155559938Y-96871940D01*
X155586815Y-96831714D01*
X155690146Y-96728384D01*
X155730373Y-96701507D01*
X155763974Y-96694823D01*
X155763760Y-96693330D01*
X155772536Y-96692068D01*
X155781408Y-96692068D01*
X155905705Y-96655572D01*
X156014685Y-96585535D01*
X156099518Y-96487631D01*
X156153333Y-96369794D01*
X156171769Y-96241568D01*
X156153880Y-96117146D01*
X156163824Y-96047989D01*
X156209579Y-95995185D01*
X156276618Y-95975500D01*
X158363115Y-95975500D01*
X158387306Y-95977883D01*
X158400000Y-95980408D01*
X158497741Y-95960966D01*
X158529867Y-95939500D01*
X158580601Y-95905601D01*
X158587795Y-95894832D01*
X158603205Y-95876053D01*
X158742443Y-95736815D01*
X158782668Y-95709939D01*
X158830121Y-95700500D01*
X158930901Y-95700500D01*
X158939772Y-95700500D01*
X159064069Y-95664004D01*
X159173049Y-95593967D01*
X159257882Y-95496063D01*
X159311697Y-95378226D01*
X159330133Y-95250000D01*
X159311697Y-95121774D01*
X159268327Y-95026807D01*
X159261565Y-95012001D01*
X159261564Y-95011999D01*
X159257882Y-95003937D01*
X159247127Y-94991525D01*
X159186073Y-94921064D01*
X159173049Y-94906033D01*
X159165589Y-94901238D01*
X159165587Y-94901237D01*
X159104815Y-94862182D01*
X159064069Y-94835996D01*
X159055555Y-94833496D01*
X158948284Y-94801999D01*
X158948282Y-94801998D01*
X158939772Y-94799500D01*
X158810228Y-94799500D01*
X158801718Y-94801998D01*
X158801715Y-94801999D01*
X158694444Y-94833496D01*
X158694441Y-94833497D01*
X158685931Y-94835996D01*
X158678468Y-94840791D01*
X158678468Y-94840792D01*
X158584412Y-94901237D01*
X158584406Y-94901241D01*
X158576951Y-94906033D01*
X158571146Y-94912732D01*
X158571143Y-94912735D01*
X158497922Y-94997237D01*
X158497917Y-94997243D01*
X158492118Y-95003937D01*
X158488438Y-95011994D01*
X158488434Y-95012001D01*
X158444939Y-95107243D01*
X158438303Y-95121774D01*
X158437041Y-95130547D01*
X158437040Y-95130553D01*
X158426558Y-95203462D01*
X158419867Y-95250000D01*
X158421129Y-95258777D01*
X158421129Y-95258781D01*
X158423713Y-95276755D01*
X158418629Y-95333559D01*
X158388658Y-95382080D01*
X158332560Y-95438180D01*
X158292331Y-95465061D01*
X158244877Y-95474500D01*
X155236885Y-95474500D01*
X155212694Y-95472117D01*
X155211980Y-95471975D01*
X155200000Y-95469592D01*
X155188020Y-95471975D01*
X155175326Y-95474499D01*
X155175326Y-95474500D01*
X155114240Y-95486650D01*
X155114235Y-95486651D01*
X155102260Y-95489034D01*
X155092105Y-95495819D01*
X155092103Y-95495820D01*
X155029553Y-95537613D01*
X155029548Y-95537617D01*
X155019399Y-95544399D01*
X155012615Y-95554550D01*
X155012612Y-95554554D01*
X155012200Y-95555172D01*
X154996783Y-95573955D01*
X154749629Y-95821109D01*
X154697946Y-95852088D01*
X154637763Y-95855047D01*
X154583291Y-95829287D01*
X154549846Y-95784201D01*
X154548466Y-95777260D01*
X154543322Y-95769562D01*
X154534456Y-95725005D01*
X154543319Y-95680442D01*
X154548466Y-95672740D01*
X154563000Y-95599674D01*
X154563000Y-95450326D01*
X154548466Y-95377260D01*
X154543320Y-95369558D01*
X154534456Y-95324997D01*
X154543320Y-95280441D01*
X154548466Y-95272740D01*
X154563000Y-95199674D01*
X154563000Y-95050326D01*
X154548466Y-94977260D01*
X154543319Y-94969557D01*
X154534456Y-94925000D01*
X154543319Y-94880442D01*
X154548466Y-94872740D01*
X154563000Y-94799674D01*
X154563000Y-94650326D01*
X154548466Y-94577260D01*
X154543319Y-94569558D01*
X154534457Y-94524997D01*
X154543319Y-94480441D01*
X154548466Y-94472740D01*
X154563000Y-94399674D01*
X154563000Y-94250326D01*
X154548466Y-94177260D01*
X154543319Y-94169557D01*
X154534456Y-94125000D01*
X154543319Y-94080442D01*
X154548466Y-94072740D01*
X154563000Y-93999674D01*
X154563000Y-93850326D01*
X154548466Y-93777260D01*
X154543320Y-93769558D01*
X154534456Y-93724997D01*
X154543320Y-93680441D01*
X154548466Y-93672740D01*
X154563000Y-93599674D01*
X154563000Y-93450326D01*
X154548466Y-93377260D01*
X154543320Y-93369558D01*
X154534456Y-93324997D01*
X154543320Y-93280441D01*
X154548466Y-93272740D01*
X154563000Y-93199674D01*
X154563000Y-93050326D01*
X154548466Y-92977260D01*
X154543319Y-92969557D01*
X154534456Y-92925000D01*
X154543319Y-92880442D01*
X154548466Y-92872740D01*
X154563000Y-92799674D01*
X154563000Y-92650326D01*
X154548466Y-92577260D01*
X154543319Y-92569558D01*
X154534457Y-92524997D01*
X154543319Y-92480441D01*
X154548466Y-92472740D01*
X154563000Y-92399674D01*
X154563000Y-92250326D01*
X154548466Y-92177260D01*
X154543319Y-92169557D01*
X154534456Y-92125000D01*
X154543319Y-92080442D01*
X154548466Y-92072740D01*
X154563000Y-91999674D01*
X154563000Y-91850326D01*
X154548466Y-91777260D01*
X154543319Y-91769557D01*
X154534456Y-91725000D01*
X154543319Y-91680442D01*
X154548466Y-91672740D01*
X154563000Y-91599674D01*
X154563000Y-91450326D01*
X154548466Y-91377260D01*
X154543320Y-91369558D01*
X154534456Y-91324997D01*
X154543320Y-91280441D01*
X154548466Y-91272740D01*
X154563000Y-91199674D01*
X154563000Y-91124500D01*
X154579613Y-91062500D01*
X154625000Y-91017113D01*
X154687000Y-91000500D01*
X155190656Y-91000500D01*
X155214847Y-91002882D01*
X155230000Y-91005897D01*
X155241980Y-91003514D01*
X155252756Y-91003514D01*
X155304672Y-91014905D01*
X155347050Y-91046987D01*
X155372103Y-91093864D01*
X155374925Y-91141788D01*
X155375645Y-91141845D01*
X155375263Y-91146691D01*
X155374500Y-91151512D01*
X155374500Y-91718488D01*
X155375262Y-91723302D01*
X155375263Y-91723308D01*
X155388753Y-91808484D01*
X155388754Y-91808489D01*
X155390281Y-91818126D01*
X155451472Y-91938220D01*
X155546780Y-92033528D01*
X155666874Y-92094719D01*
X155766512Y-92110500D01*
X156278610Y-92110500D01*
X156283488Y-92110500D01*
X156383126Y-92094719D01*
X156503220Y-92033528D01*
X156598528Y-91938220D01*
X156659719Y-91818126D01*
X156675500Y-91718488D01*
X156675500Y-91151512D01*
X156659719Y-91051874D01*
X156598528Y-90931780D01*
X156503220Y-90836472D01*
X156468397Y-90818729D01*
X156391822Y-90779712D01*
X156383126Y-90775281D01*
X156373489Y-90773754D01*
X156373484Y-90773753D01*
X156288308Y-90760263D01*
X156288302Y-90760262D01*
X156283488Y-90759500D01*
X156278612Y-90759500D01*
X156273757Y-90759118D01*
X156273835Y-90758122D01*
X156214432Y-90741509D01*
X156168770Y-90692758D01*
X156155024Y-90627392D01*
X156173925Y-90573642D01*
X156173224Y-90573316D01*
X156173224Y-90573315D01*
X156223972Y-90464487D01*
X156230500Y-90414901D01*
X156230499Y-89995100D01*
X156223972Y-89945513D01*
X156173224Y-89836684D01*
X156088316Y-89751776D01*
X156040385Y-89729425D01*
X155988083Y-89705036D01*
X155988080Y-89705035D01*
X155979487Y-89701028D01*
X155970087Y-89699790D01*
X155970082Y-89699789D01*
X155933921Y-89695029D01*
X155933917Y-89695028D01*
X155929901Y-89694500D01*
X155925847Y-89694500D01*
X155574159Y-89694500D01*
X155574143Y-89694500D01*
X155570100Y-89694501D01*
X155566084Y-89695029D01*
X155566078Y-89695030D01*
X155529917Y-89699790D01*
X155529915Y-89699790D01*
X155520513Y-89701028D01*
X155511916Y-89705036D01*
X155511915Y-89705037D01*
X155447902Y-89734887D01*
X155411684Y-89751776D01*
X155404016Y-89759443D01*
X155404013Y-89759446D01*
X155334446Y-89829013D01*
X155334443Y-89829016D01*
X155326776Y-89836684D01*
X155322192Y-89846513D01*
X155322192Y-89846514D01*
X155280036Y-89936916D01*
X155280034Y-89936920D01*
X155276028Y-89945513D01*
X155274790Y-89954910D01*
X155274789Y-89954917D01*
X155270977Y-89983877D01*
X155269500Y-89995099D01*
X155269500Y-89999152D01*
X155269500Y-90244520D01*
X155260061Y-90291972D01*
X155233182Y-90332201D01*
X155152203Y-90413181D01*
X155111974Y-90440061D01*
X155064521Y-90449500D01*
X154453946Y-90449500D01*
X154414016Y-90441557D01*
X154410240Y-90439034D01*
X154398261Y-90436651D01*
X154343153Y-90425689D01*
X154343149Y-90425688D01*
X154337174Y-90424500D01*
X153512826Y-90424500D01*
X153512826Y-90422612D01*
X153470080Y-90417322D01*
X153424176Y-90388219D01*
X153395128Y-90342280D01*
X153389906Y-90299674D01*
X153388000Y-90299674D01*
X153388000Y-90054122D01*
X153401515Y-89997827D01*
X153439115Y-89953804D01*
X153492602Y-89931649D01*
X153550318Y-89936191D01*
X153599681Y-89966441D01*
X153617117Y-89983877D01*
X153632538Y-90002667D01*
X153639733Y-90013435D01*
X153687170Y-90045131D01*
X153722593Y-90068800D01*
X153820334Y-90088242D01*
X153832314Y-90085859D01*
X153833028Y-90085717D01*
X153857219Y-90083334D01*
X154222053Y-90083334D01*
X154246244Y-90085717D01*
X154258938Y-90088242D01*
X154356679Y-90068800D01*
X154392102Y-90045131D01*
X154439539Y-90013435D01*
X154446730Y-90002673D01*
X154462150Y-89983881D01*
X154618329Y-89827701D01*
X154658557Y-89800822D01*
X154706010Y-89791383D01*
X154806790Y-89791383D01*
X154815661Y-89791383D01*
X154939958Y-89754887D01*
X155048938Y-89684850D01*
X155133771Y-89586946D01*
X155187586Y-89469109D01*
X155190333Y-89450000D01*
X161344867Y-89450000D01*
X161346352Y-89460329D01*
X161362040Y-89569446D01*
X161362041Y-89569450D01*
X161363303Y-89578226D01*
X161366987Y-89586294D01*
X161366988Y-89586295D01*
X161413434Y-89687998D01*
X161413436Y-89688002D01*
X161417118Y-89696063D01*
X161422920Y-89702759D01*
X161422922Y-89702762D01*
X161469988Y-89757079D01*
X161501951Y-89793967D01*
X161509411Y-89798761D01*
X161509412Y-89798762D01*
X161521211Y-89806344D01*
X161610931Y-89864004D01*
X161735228Y-89900500D01*
X161855901Y-89900500D01*
X161864772Y-89900500D01*
X161989069Y-89864004D01*
X162098049Y-89793967D01*
X162182882Y-89696063D01*
X162236697Y-89578226D01*
X162255133Y-89450000D01*
X162236697Y-89321774D01*
X162188243Y-89215676D01*
X162186565Y-89212001D01*
X162186564Y-89211999D01*
X162182882Y-89203937D01*
X162172794Y-89192295D01*
X162103856Y-89112735D01*
X162098049Y-89106033D01*
X162090589Y-89101238D01*
X162090587Y-89101237D01*
X162014801Y-89052533D01*
X161989069Y-89035996D01*
X161980555Y-89033496D01*
X161873284Y-89001999D01*
X161873282Y-89001998D01*
X161864772Y-88999500D01*
X161735228Y-88999500D01*
X161726718Y-89001998D01*
X161726715Y-89001999D01*
X161619444Y-89033496D01*
X161619441Y-89033497D01*
X161610931Y-89035996D01*
X161603468Y-89040791D01*
X161603468Y-89040792D01*
X161509412Y-89101237D01*
X161509406Y-89101241D01*
X161501951Y-89106033D01*
X161496146Y-89112732D01*
X161496143Y-89112735D01*
X161422922Y-89197237D01*
X161422917Y-89197243D01*
X161417118Y-89203937D01*
X161413438Y-89211994D01*
X161413434Y-89212001D01*
X161366988Y-89313704D01*
X161363303Y-89321774D01*
X161362041Y-89330547D01*
X161362040Y-89330553D01*
X161353940Y-89386896D01*
X161344867Y-89450000D01*
X155190333Y-89450000D01*
X155206022Y-89340883D01*
X155187586Y-89212657D01*
X155141953Y-89112735D01*
X155137454Y-89102884D01*
X155137453Y-89102882D01*
X155133771Y-89094820D01*
X155119375Y-89078206D01*
X155054745Y-89003618D01*
X155048938Y-88996916D01*
X155041478Y-88992121D01*
X155041476Y-88992120D01*
X154956976Y-88937816D01*
X154939958Y-88926879D01*
X154931444Y-88924379D01*
X154824173Y-88892882D01*
X154824171Y-88892881D01*
X154815661Y-88890383D01*
X154686117Y-88890383D01*
X154677607Y-88892881D01*
X154677604Y-88892882D01*
X154570333Y-88924379D01*
X154570330Y-88924380D01*
X154561820Y-88926879D01*
X154554362Y-88931671D01*
X154554355Y-88931675D01*
X154492973Y-88971124D01*
X154430359Y-88990730D01*
X154366506Y-88975641D01*
X154319291Y-88930083D01*
X154301933Y-88866809D01*
X154301933Y-88088323D01*
X154304316Y-88064130D01*
X154304459Y-88063411D01*
X154306842Y-88051433D01*
X154287399Y-87953693D01*
X154246011Y-87891750D01*
X154246010Y-87891748D01*
X154238819Y-87880986D01*
X154238817Y-87880984D01*
X154232034Y-87870832D01*
X154221269Y-87863639D01*
X154202479Y-87848218D01*
X153196176Y-86841915D01*
X152984250Y-86629989D01*
X155513064Y-86629989D01*
X155514591Y-86639630D01*
X155532621Y-86753473D01*
X155532622Y-86753478D01*
X155534149Y-86763115D01*
X155538580Y-86771811D01*
X155578680Y-86850513D01*
X155595340Y-86883209D01*
X155690648Y-86978517D01*
X155810742Y-87039708D01*
X155910380Y-87055489D01*
X155972478Y-87055489D01*
X155977356Y-87055489D01*
X156076994Y-87039708D01*
X156197088Y-86978517D01*
X156292396Y-86883209D01*
X156353587Y-86763115D01*
X156374672Y-86629989D01*
X156353587Y-86496863D01*
X156292396Y-86376769D01*
X156197088Y-86281461D01*
X156175699Y-86270563D01*
X156113820Y-86239034D01*
X156076994Y-86220270D01*
X156067357Y-86218743D01*
X156067352Y-86218742D01*
X155982176Y-86205252D01*
X155982170Y-86205251D01*
X155977356Y-86204489D01*
X155910380Y-86204489D01*
X155905566Y-86205251D01*
X155905559Y-86205252D01*
X155820383Y-86218742D01*
X155820376Y-86218744D01*
X155810742Y-86220270D01*
X155802046Y-86224700D01*
X155802045Y-86224701D01*
X155699343Y-86277030D01*
X155699339Y-86277032D01*
X155690648Y-86281461D01*
X155683749Y-86288359D01*
X155683746Y-86288362D01*
X155602241Y-86369867D01*
X155602238Y-86369870D01*
X155595340Y-86376769D01*
X155590911Y-86385460D01*
X155590909Y-86385464D01*
X155539288Y-86486777D01*
X155534149Y-86496863D01*
X155532622Y-86506497D01*
X155532621Y-86506504D01*
X155523645Y-86563181D01*
X155513064Y-86629989D01*
X152984250Y-86629989D01*
X152163664Y-85809404D01*
X152130569Y-85749810D01*
X152133974Y-85681727D01*
X152172851Y-85625732D01*
X152235451Y-85598747D01*
X152302855Y-85608928D01*
X152303468Y-85609208D01*
X152310931Y-85614004D01*
X152435228Y-85650500D01*
X152555901Y-85650500D01*
X152564772Y-85650500D01*
X152689069Y-85614004D01*
X152798049Y-85543967D01*
X152882882Y-85446063D01*
X152936697Y-85328226D01*
X152955133Y-85200000D01*
X152936697Y-85071774D01*
X152891204Y-84972159D01*
X152886565Y-84962001D01*
X152886564Y-84961999D01*
X152882882Y-84953937D01*
X152870742Y-84939927D01*
X152826913Y-84889345D01*
X152798049Y-84856033D01*
X152790589Y-84851238D01*
X152790587Y-84851237D01*
X152743558Y-84821014D01*
X152689069Y-84785996D01*
X152680558Y-84783497D01*
X152680556Y-84783496D01*
X152622517Y-84766455D01*
X152576437Y-84741353D01*
X152544866Y-84699443D01*
X152460009Y-84515585D01*
X152448597Y-84463871D01*
X152459802Y-84412114D01*
X152486697Y-84353226D01*
X152505133Y-84225000D01*
X152486697Y-84096774D01*
X152432882Y-83978937D01*
X152422692Y-83967177D01*
X152353856Y-83887735D01*
X152348049Y-83881033D01*
X152340589Y-83876238D01*
X152340587Y-83876237D01*
X152293559Y-83846014D01*
X152239069Y-83810996D01*
X152212017Y-83803053D01*
X152123284Y-83776999D01*
X152123282Y-83776998D01*
X152114772Y-83774500D01*
X151985228Y-83774500D01*
X151976718Y-83776998D01*
X151976715Y-83776999D01*
X151869444Y-83808496D01*
X151869441Y-83808497D01*
X151860931Y-83810996D01*
X151853468Y-83815791D01*
X151853468Y-83815792D01*
X151759412Y-83876237D01*
X151759406Y-83876241D01*
X151751951Y-83881033D01*
X151746146Y-83887732D01*
X151746143Y-83887735D01*
X151672922Y-83972237D01*
X151672917Y-83972243D01*
X151667118Y-83978937D01*
X151663438Y-83986994D01*
X151663434Y-83987001D01*
X151618506Y-84085381D01*
X151613303Y-84096774D01*
X151612041Y-84105547D01*
X151612040Y-84105553D01*
X151604506Y-84157956D01*
X151594867Y-84225000D01*
X151596129Y-84233777D01*
X151612040Y-84344446D01*
X151612041Y-84344450D01*
X151613303Y-84353226D01*
X151616987Y-84361294D01*
X151616988Y-84361295D01*
X151663434Y-84462998D01*
X151663436Y-84463002D01*
X151667118Y-84471063D01*
X151672920Y-84477759D01*
X151672922Y-84477762D01*
X151710857Y-84521541D01*
X151751951Y-84568967D01*
X151860931Y-84639004D01*
X151927480Y-84658543D01*
X151973560Y-84683645D01*
X152005133Y-84725558D01*
X152089988Y-84909411D01*
X152101401Y-84961125D01*
X152090196Y-85012884D01*
X152066985Y-85063708D01*
X152066982Y-85063717D01*
X152063303Y-85071774D01*
X152062041Y-85080544D01*
X152062041Y-85080548D01*
X152053630Y-85139053D01*
X152044867Y-85200000D01*
X152046129Y-85208777D01*
X152062040Y-85319446D01*
X152062041Y-85319450D01*
X152063303Y-85328226D01*
X152066987Y-85336294D01*
X152066988Y-85336295D01*
X152097891Y-85403963D01*
X152108074Y-85471368D01*
X152081091Y-85533968D01*
X152025095Y-85572847D01*
X151957011Y-85576252D01*
X151897416Y-85543156D01*
X151728217Y-85373957D01*
X151712795Y-85355165D01*
X151712386Y-85354553D01*
X151712384Y-85354551D01*
X151705601Y-85344399D01*
X151681396Y-85328226D01*
X151652536Y-85308942D01*
X151632896Y-85295819D01*
X151632895Y-85295818D01*
X151622741Y-85289034D01*
X151610763Y-85286651D01*
X151610760Y-85286650D01*
X151536980Y-85271975D01*
X151525000Y-85269592D01*
X151513020Y-85271975D01*
X151512306Y-85272117D01*
X151488115Y-85274500D01*
X146686885Y-85274500D01*
X146662694Y-85272117D01*
X146661980Y-85271975D01*
X146650000Y-85269592D01*
X146638020Y-85271975D01*
X146564237Y-85286651D01*
X146564235Y-85286651D01*
X146552259Y-85289034D01*
X146542106Y-85295817D01*
X146542105Y-85295818D01*
X146522463Y-85308942D01*
X146479549Y-85337616D01*
X146479546Y-85337618D01*
X146469399Y-85344399D01*
X146462617Y-85354547D01*
X146462614Y-85354551D01*
X146462200Y-85355172D01*
X146446783Y-85373955D01*
X146338955Y-85481783D01*
X146320172Y-85497200D01*
X146319554Y-85497612D01*
X146319550Y-85497615D01*
X146309399Y-85504399D01*
X146302614Y-85514552D01*
X146293979Y-85523189D01*
X146292886Y-85522096D01*
X146266412Y-85547299D01*
X146214819Y-85564341D01*
X146160893Y-85557689D01*
X146114987Y-85528620D01*
X146083567Y-85497200D01*
X146050814Y-85464447D01*
X146035395Y-85445658D01*
X146034986Y-85445046D01*
X146028203Y-85434894D01*
X145969245Y-85395500D01*
X145945343Y-85379529D01*
X145933365Y-85377146D01*
X145933364Y-85377146D01*
X145859582Y-85362470D01*
X145847602Y-85360087D01*
X145835622Y-85362470D01*
X145834908Y-85362612D01*
X145810717Y-85364995D01*
X145471028Y-85364995D01*
X145410439Y-85349185D01*
X145365301Y-85305785D01*
X145347124Y-85245863D01*
X145360543Y-85184700D01*
X145402137Y-85137893D01*
X145444552Y-85109552D01*
X145488867Y-85043231D01*
X145504428Y-84965000D01*
X145504428Y-83818428D01*
X145521041Y-83756428D01*
X145566428Y-83711041D01*
X145628428Y-83694428D01*
X145710404Y-83694428D01*
X145716500Y-83694428D01*
X145794731Y-83678867D01*
X145835839Y-83651398D01*
X145868737Y-83635839D01*
X145904732Y-83630500D01*
X150346947Y-83630500D01*
X150351000Y-83630500D01*
X150417129Y-83621794D01*
X150479129Y-83605181D01*
X150540750Y-83579656D01*
X150593666Y-83539053D01*
X150639053Y-83493666D01*
X150679656Y-83440750D01*
X150705181Y-83379129D01*
X150721794Y-83317129D01*
X150730500Y-83251000D01*
X150730500Y-81289965D01*
X153301154Y-81289965D01*
X153302681Y-81299606D01*
X153320711Y-81413449D01*
X153320712Y-81413454D01*
X153322239Y-81423091D01*
X153383430Y-81543185D01*
X153478738Y-81638493D01*
X153598832Y-81699684D01*
X153698470Y-81715465D01*
X153760568Y-81715465D01*
X153765446Y-81715465D01*
X153865084Y-81699684D01*
X153919407Y-81672004D01*
X153984989Y-81658837D01*
X154047868Y-81681651D01*
X154089748Y-81733809D01*
X154098441Y-81800132D01*
X154096129Y-81816216D01*
X154096129Y-81816223D01*
X154094867Y-81825000D01*
X154096129Y-81833777D01*
X154096129Y-81833780D01*
X154099845Y-81859628D01*
X154094761Y-81916432D01*
X154064789Y-81964953D01*
X154016269Y-81994926D01*
X153964868Y-81999528D01*
X153964772Y-81999500D01*
X153835228Y-81999500D01*
X153826718Y-82001998D01*
X153826715Y-82001999D01*
X153719444Y-82033496D01*
X153719441Y-82033497D01*
X153710931Y-82035996D01*
X153703468Y-82040791D01*
X153703468Y-82040792D01*
X153609412Y-82101237D01*
X153609406Y-82101241D01*
X153601951Y-82106033D01*
X153596146Y-82112732D01*
X153596143Y-82112735D01*
X153522922Y-82197237D01*
X153522917Y-82197243D01*
X153517118Y-82203937D01*
X153513438Y-82211994D01*
X153513434Y-82212001D01*
X153466988Y-82313704D01*
X153463303Y-82321774D01*
X153462041Y-82330547D01*
X153462040Y-82330553D01*
X153454214Y-82384988D01*
X153444867Y-82450000D01*
X153446129Y-82458777D01*
X153462040Y-82569446D01*
X153462041Y-82569450D01*
X153463303Y-82578226D01*
X153466987Y-82586294D01*
X153466988Y-82586295D01*
X153513434Y-82687998D01*
X153513436Y-82688002D01*
X153517118Y-82696063D01*
X153522920Y-82702759D01*
X153522922Y-82702762D01*
X153574509Y-82762297D01*
X153601951Y-82793967D01*
X153609411Y-82798761D01*
X153609412Y-82798762D01*
X153628277Y-82810885D01*
X153710931Y-82864004D01*
X153719441Y-82866502D01*
X153719442Y-82866503D01*
X153719840Y-82866620D01*
X153720460Y-82866968D01*
X153727509Y-82870187D01*
X153727241Y-82870772D01*
X153768234Y-82893768D01*
X153799942Y-82939304D01*
X154456721Y-84571302D01*
X154462890Y-84591409D01*
X154464702Y-84599797D01*
X154464704Y-84599801D01*
X154467282Y-84611735D01*
X154474229Y-84621772D01*
X154474230Y-84621774D01*
X154495462Y-84652450D01*
X154497292Y-84655171D01*
X154518724Y-84687957D01*
X154518725Y-84687958D01*
X154524381Y-84696610D01*
X154527505Y-84698743D01*
X154529659Y-84701855D01*
X154571298Y-84728699D01*
X154574017Y-84730504D01*
X154614892Y-84758416D01*
X154618594Y-84759191D01*
X154621775Y-84761242D01*
X154626513Y-84762104D01*
X154665436Y-84789900D01*
X154691822Y-84836431D01*
X154696152Y-84889748D01*
X154677621Y-84939927D01*
X154672923Y-84947237D01*
X154667118Y-84953937D01*
X154663436Y-84961999D01*
X154663433Y-84962004D01*
X154620002Y-85057105D01*
X154613303Y-85071774D01*
X154612041Y-85080547D01*
X154612040Y-85080553D01*
X154598503Y-85174708D01*
X154594867Y-85200000D01*
X154596129Y-85208777D01*
X154612040Y-85319446D01*
X154612041Y-85319450D01*
X154613303Y-85328226D01*
X154616987Y-85336294D01*
X154616988Y-85336295D01*
X154663434Y-85437998D01*
X154663436Y-85438002D01*
X154667118Y-85446063D01*
X154672920Y-85452759D01*
X154672922Y-85452762D01*
X154733000Y-85522096D01*
X154751951Y-85543967D01*
X154759411Y-85548761D01*
X154759412Y-85548762D01*
X154767178Y-85553753D01*
X154860931Y-85614004D01*
X154985228Y-85650500D01*
X155105901Y-85650500D01*
X155114772Y-85650500D01*
X155239069Y-85614004D01*
X155282984Y-85585780D01*
X155322565Y-85569174D01*
X155365433Y-85567058D01*
X155391859Y-85570368D01*
X155398866Y-85571678D01*
X155403595Y-85572377D01*
X155409505Y-85573855D01*
X155421435Y-85574434D01*
X155430832Y-85575251D01*
X155458003Y-85578656D01*
X155458004Y-85578655D01*
X155470127Y-85580175D01*
X155480548Y-85577312D01*
X155491344Y-85577838D01*
X155512190Y-85570368D01*
X155526817Y-85565127D01*
X155582453Y-85558629D01*
X155635273Y-85577278D01*
X155643849Y-85582742D01*
X155651849Y-85590072D01*
X155761157Y-85635349D01*
X155860142Y-85639671D01*
X155869880Y-85640097D01*
X155869880Y-85640096D01*
X155879361Y-85640511D01*
X155926961Y-85627756D01*
X156249055Y-85494340D01*
X156291731Y-85469701D01*
X156371664Y-85382469D01*
X156416941Y-85273161D01*
X156422103Y-85154957D01*
X156409348Y-85107357D01*
X156237664Y-84692875D01*
X156235161Y-84688540D01*
X156217768Y-84658414D01*
X156217767Y-84658413D01*
X156213025Y-84650199D01*
X156182004Y-84621774D01*
X156133789Y-84577593D01*
X156125793Y-84570266D01*
X156087755Y-84554510D01*
X156036832Y-84515435D01*
X156012269Y-84456132D01*
X156020647Y-84392496D01*
X156036941Y-84353161D01*
X156042103Y-84234957D01*
X156029348Y-84187357D01*
X155857664Y-83772875D01*
X155848168Y-83756428D01*
X155837768Y-83738414D01*
X155837767Y-83738413D01*
X155833025Y-83730199D01*
X155745793Y-83650266D01*
X155735771Y-83646115D01*
X155728777Y-83641659D01*
X155688927Y-83600634D01*
X155671729Y-83546087D01*
X155680840Y-83489626D01*
X155698494Y-83447007D01*
X155703732Y-83327041D01*
X155690788Y-83278732D01*
X155530136Y-82890887D01*
X155505130Y-82847572D01*
X155416598Y-82766448D01*
X155381907Y-82752078D01*
X155330985Y-82713004D01*
X155306422Y-82653702D01*
X155314800Y-82590065D01*
X155328494Y-82557007D01*
X155333732Y-82437041D01*
X155320788Y-82388732D01*
X155160136Y-82000887D01*
X155135130Y-81957572D01*
X155046598Y-81876448D01*
X155046598Y-81876447D01*
X155047386Y-81875587D01*
X155019902Y-81848267D01*
X155001347Y-81798669D01*
X154986697Y-81696774D01*
X154932882Y-81578937D01*
X154848049Y-81481033D01*
X154840589Y-81476238D01*
X154840587Y-81476237D01*
X154777668Y-81435802D01*
X154739069Y-81410996D01*
X154730555Y-81408496D01*
X154623284Y-81376999D01*
X154623282Y-81376998D01*
X154614772Y-81374500D01*
X154485228Y-81374500D01*
X154476718Y-81376998D01*
X154476715Y-81376999D01*
X154369444Y-81408496D01*
X154369441Y-81408497D01*
X154360931Y-81410996D01*
X154353473Y-81415788D01*
X154353466Y-81415792D01*
X154351759Y-81416890D01*
X154348633Y-81417999D01*
X154345401Y-81419476D01*
X154345272Y-81419193D01*
X154298501Y-81435802D01*
X154242382Y-81429115D01*
X154195059Y-81398218D01*
X154166363Y-81349529D01*
X154163436Y-81309363D01*
X154161235Y-81309363D01*
X154161235Y-81299606D01*
X154162762Y-81289965D01*
X154141677Y-81156839D01*
X154080486Y-81036745D01*
X153985178Y-80941437D01*
X153865084Y-80880246D01*
X153855447Y-80878719D01*
X153855442Y-80878718D01*
X153770266Y-80865228D01*
X153770260Y-80865227D01*
X153765446Y-80864465D01*
X153698470Y-80864465D01*
X153693656Y-80865227D01*
X153693649Y-80865228D01*
X153608473Y-80878718D01*
X153608466Y-80878720D01*
X153598832Y-80880246D01*
X153590136Y-80884676D01*
X153590135Y-80884677D01*
X153487433Y-80937006D01*
X153487429Y-80937008D01*
X153478738Y-80941437D01*
X153471839Y-80948335D01*
X153471836Y-80948338D01*
X153390331Y-81029843D01*
X153390328Y-81029846D01*
X153383430Y-81036745D01*
X153379001Y-81045436D01*
X153378999Y-81045440D01*
X153326670Y-81148142D01*
X153322239Y-81156839D01*
X153320712Y-81166473D01*
X153320711Y-81166480D01*
X153312474Y-81218492D01*
X153301154Y-81289965D01*
X150730500Y-81289965D01*
X150730500Y-80449000D01*
X150721794Y-80382871D01*
X150705181Y-80320871D01*
X150679656Y-80259250D01*
X150639053Y-80206334D01*
X150593666Y-80160947D01*
X150568344Y-80141517D01*
X150547198Y-80125291D01*
X150547194Y-80125289D01*
X150540750Y-80120344D01*
X150533244Y-80117235D01*
X150533241Y-80117233D01*
X150482867Y-80096367D01*
X150482861Y-80096365D01*
X150479129Y-80094819D01*
X150475223Y-80093772D01*
X150475219Y-80093771D01*
X150421047Y-80079255D01*
X150421034Y-80079252D01*
X150417129Y-80078206D01*
X150406646Y-80076825D01*
X150355020Y-80070029D01*
X150355016Y-80070028D01*
X150351000Y-80069500D01*
X144099000Y-80069500D01*
X144094984Y-80070028D01*
X144094979Y-80070029D01*
X144036896Y-80077676D01*
X144036894Y-80077676D01*
X144032871Y-80078206D01*
X144028967Y-80079251D01*
X144028952Y-80079255D01*
X143974780Y-80093771D01*
X143974771Y-80093773D01*
X143970871Y-80094819D01*
X143967142Y-80096363D01*
X143967132Y-80096367D01*
X143916758Y-80117233D01*
X143916751Y-80117236D01*
X143909250Y-80120344D01*
X143902808Y-80125286D01*
X143902801Y-80125291D01*
X143859562Y-80158470D01*
X143856334Y-80160947D01*
X143853462Y-80163818D01*
X143853454Y-80163826D01*
X143813826Y-80203454D01*
X143813818Y-80203462D01*
X143810947Y-80206334D01*
X143808470Y-80209560D01*
X143808470Y-80209562D01*
X143775291Y-80252801D01*
X143775286Y-80252808D01*
X143770344Y-80259250D01*
X143767236Y-80266751D01*
X143767233Y-80266758D01*
X143746367Y-80317132D01*
X143746363Y-80317142D01*
X143744819Y-80320871D01*
X143743773Y-80324771D01*
X143743771Y-80324780D01*
X143729255Y-80378952D01*
X143729251Y-80378967D01*
X143728206Y-80382871D01*
X143719500Y-80449000D01*
X143719500Y-83251000D01*
X143720027Y-83255009D01*
X143720028Y-83255012D01*
X143723513Y-83281483D01*
X143717992Y-83337525D01*
X143688255Y-83385346D01*
X143640434Y-83415084D01*
X143584392Y-83420604D01*
X143583365Y-83420469D01*
X143580015Y-83420028D01*
X143580006Y-83420027D01*
X143576000Y-83419500D01*
X138149000Y-83419500D01*
X138144984Y-83420028D01*
X138144979Y-83420029D01*
X138086896Y-83427676D01*
X138086894Y-83427676D01*
X138082871Y-83428206D01*
X138078967Y-83429251D01*
X138078952Y-83429255D01*
X138024780Y-83443771D01*
X138024771Y-83443773D01*
X138020871Y-83444819D01*
X138017142Y-83446363D01*
X138017132Y-83446367D01*
X137966758Y-83467233D01*
X137966751Y-83467236D01*
X137959250Y-83470344D01*
X137952808Y-83475286D01*
X137952801Y-83475291D01*
X137925103Y-83496545D01*
X137906334Y-83510947D01*
X137903462Y-83513818D01*
X137903454Y-83513826D01*
X137863826Y-83553454D01*
X137863818Y-83553462D01*
X137860947Y-83556334D01*
X137858470Y-83559560D01*
X137858470Y-83559562D01*
X137825291Y-83602801D01*
X137825286Y-83602808D01*
X137820344Y-83609250D01*
X137817236Y-83616751D01*
X137817233Y-83616758D01*
X137796367Y-83667132D01*
X137796363Y-83667142D01*
X137794819Y-83670871D01*
X137793773Y-83674771D01*
X137793771Y-83674780D01*
X137779255Y-83728952D01*
X137779251Y-83728967D01*
X137778206Y-83732871D01*
X137777676Y-83736894D01*
X137777676Y-83736896D01*
X137773196Y-83770928D01*
X137769500Y-83799000D01*
X137769500Y-84851000D01*
X137770028Y-84855016D01*
X137770029Y-84855020D01*
X137774560Y-84889435D01*
X137778206Y-84917129D01*
X137779252Y-84921034D01*
X137779255Y-84921047D01*
X137790230Y-84962004D01*
X137794819Y-84979129D01*
X137796365Y-84982861D01*
X137796367Y-84982867D01*
X137817233Y-85033241D01*
X137817235Y-85033244D01*
X137820344Y-85040750D01*
X137825289Y-85047194D01*
X137825291Y-85047198D01*
X137837957Y-85063704D01*
X137860947Y-85093666D01*
X137906334Y-85139053D01*
X137927061Y-85154957D01*
X137952801Y-85174708D01*
X137952803Y-85174709D01*
X137959250Y-85179656D01*
X138020871Y-85205181D01*
X138082871Y-85221794D01*
X138149000Y-85230500D01*
X138153053Y-85230500D01*
X139096804Y-85230500D01*
X139153099Y-85244015D01*
X139197122Y-85281615D01*
X139219277Y-85335102D01*
X139214735Y-85392818D01*
X139189329Y-85434275D01*
X139188404Y-85434894D01*
X139181622Y-85445042D01*
X139181619Y-85445046D01*
X139181205Y-85445667D01*
X139165788Y-85464450D01*
X139092555Y-85537683D01*
X139052330Y-85564561D01*
X139004877Y-85574000D01*
X138895228Y-85574000D01*
X138886718Y-85576498D01*
X138886715Y-85576499D01*
X138779444Y-85607996D01*
X138779441Y-85607997D01*
X138770931Y-85610496D01*
X138763468Y-85615291D01*
X138763468Y-85615292D01*
X138669412Y-85675737D01*
X138669406Y-85675741D01*
X138661951Y-85680533D01*
X138656146Y-85687232D01*
X138656143Y-85687235D01*
X138582922Y-85771737D01*
X138582917Y-85771743D01*
X138577118Y-85778437D01*
X138573438Y-85786494D01*
X138573434Y-85786501D01*
X138526988Y-85888204D01*
X138523303Y-85896274D01*
X138522041Y-85905047D01*
X138522040Y-85905053D01*
X138510220Y-85987269D01*
X138504867Y-86024500D01*
X138506129Y-86033277D01*
X138522040Y-86143946D01*
X138522041Y-86143950D01*
X138523303Y-86152726D01*
X138526987Y-86160794D01*
X138526988Y-86160795D01*
X138573434Y-86262498D01*
X138573436Y-86262502D01*
X138577118Y-86270563D01*
X138582920Y-86277259D01*
X138582922Y-86277262D01*
X138637605Y-86340370D01*
X138666021Y-86400120D01*
X138659667Y-86465978D01*
X138620351Y-86519193D01*
X138559267Y-86544615D01*
X138493805Y-86535006D01*
X138428528Y-86506183D01*
X138428519Y-86506180D01*
X138419991Y-86502415D01*
X138410726Y-86501340D01*
X138398414Y-86499911D01*
X138398401Y-86499910D01*
X138394865Y-86499500D01*
X138391290Y-86499500D01*
X138108714Y-86499500D01*
X138108696Y-86499500D01*
X138105136Y-86499501D01*
X138101589Y-86499912D01*
X138101577Y-86499913D01*
X138089277Y-86501340D01*
X138089275Y-86501340D01*
X138080009Y-86502415D01*
X138071479Y-86506180D01*
X138071476Y-86506182D01*
X137987745Y-86543153D01*
X137987743Y-86543154D01*
X137977235Y-86547794D01*
X137969112Y-86555916D01*
X137969109Y-86555919D01*
X137905919Y-86619109D01*
X137905916Y-86619112D01*
X137897794Y-86627235D01*
X137893154Y-86637743D01*
X137893153Y-86637745D01*
X137856181Y-86721477D01*
X137856179Y-86721484D01*
X137852415Y-86730009D01*
X137851340Y-86739271D01*
X137851340Y-86739273D01*
X137849911Y-86751585D01*
X137849910Y-86751599D01*
X137849500Y-86755135D01*
X137849500Y-86758708D01*
X137849500Y-86758709D01*
X137849500Y-88116285D01*
X137849500Y-88116302D01*
X137849501Y-88119864D01*
X137849912Y-88123411D01*
X137849913Y-88123422D01*
X137850483Y-88128333D01*
X137852415Y-88144991D01*
X137897794Y-88247765D01*
X137977235Y-88327206D01*
X138028696Y-88349928D01*
X138071477Y-88368818D01*
X138071478Y-88368818D01*
X138080009Y-88372585D01*
X138105135Y-88375500D01*
X138199902Y-88375499D01*
X138247354Y-88384938D01*
X138287583Y-88411818D01*
X141438583Y-91562819D01*
X141468833Y-91612182D01*
X141473375Y-91669898D01*
X141451220Y-91723385D01*
X141407197Y-91760985D01*
X141350902Y-91774500D01*
X140760147Y-91774500D01*
X140712694Y-91765061D01*
X140672466Y-91738181D01*
X138673002Y-89738717D01*
X138665693Y-89730741D01*
X138648385Y-89710114D01*
X138641414Y-89701806D01*
X138632021Y-89696383D01*
X138632019Y-89696381D01*
X138608694Y-89682914D01*
X138599586Y-89677112D01*
X138568643Y-89655446D01*
X138558165Y-89652638D01*
X138554832Y-89651084D01*
X138551391Y-89649831D01*
X138542004Y-89644412D01*
X138531325Y-89642528D01*
X138531320Y-89642527D01*
X138504811Y-89637852D01*
X138494256Y-89635513D01*
X138468242Y-89628543D01*
X138457766Y-89625736D01*
X138446962Y-89626681D01*
X138446959Y-89626681D01*
X138420140Y-89629028D01*
X138409332Y-89629500D01*
X137523194Y-89629500D01*
X137488259Y-89624477D01*
X137456155Y-89609815D01*
X137356537Y-89545794D01*
X137356529Y-89545790D01*
X137349069Y-89540996D01*
X137340555Y-89538496D01*
X137233284Y-89506999D01*
X137233282Y-89506998D01*
X137224772Y-89504500D01*
X137095228Y-89504500D01*
X137086718Y-89506998D01*
X137086715Y-89506999D01*
X136979444Y-89538496D01*
X136979441Y-89538497D01*
X136970931Y-89540996D01*
X136963468Y-89545791D01*
X136963468Y-89545792D01*
X136869412Y-89606237D01*
X136869406Y-89606241D01*
X136861951Y-89611033D01*
X136856146Y-89617732D01*
X136856143Y-89617735D01*
X136782922Y-89702237D01*
X136782917Y-89702243D01*
X136777118Y-89708937D01*
X136773438Y-89716994D01*
X136773434Y-89717001D01*
X136726988Y-89818704D01*
X136723303Y-89826774D01*
X136722041Y-89835547D01*
X136722040Y-89835553D01*
X136708224Y-89931649D01*
X136704867Y-89955000D01*
X136706129Y-89963777D01*
X136722040Y-90074446D01*
X136722041Y-90074450D01*
X136723303Y-90083226D01*
X136726987Y-90091294D01*
X136726988Y-90091295D01*
X136773434Y-90192998D01*
X136773436Y-90193002D01*
X136777118Y-90201063D01*
X136782920Y-90207759D01*
X136782922Y-90207762D01*
X136829260Y-90261239D01*
X136861951Y-90298967D01*
X136970931Y-90369004D01*
X137095228Y-90405500D01*
X137215901Y-90405500D01*
X137224772Y-90405500D01*
X137349069Y-90369004D01*
X137356534Y-90364205D01*
X137356537Y-90364205D01*
X137456155Y-90300185D01*
X137488259Y-90285523D01*
X137523194Y-90280500D01*
X138242771Y-90280500D01*
X138290224Y-90289939D01*
X138330452Y-90316819D01*
X140025951Y-92012318D01*
X140058045Y-92067906D01*
X140058045Y-92132094D01*
X140025950Y-92187681D01*
X139983707Y-92229923D01*
X139975736Y-92237228D01*
X139954707Y-92254873D01*
X139903599Y-92280543D01*
X139846405Y-92280544D01*
X139795294Y-92254875D01*
X139774255Y-92237221D01*
X139766280Y-92229913D01*
X138960084Y-91423717D01*
X138952775Y-91415741D01*
X138935467Y-91395114D01*
X138928496Y-91386806D01*
X138919103Y-91381383D01*
X138919101Y-91381381D01*
X138895776Y-91367914D01*
X138886668Y-91362112D01*
X138855725Y-91340446D01*
X138845247Y-91337638D01*
X138841914Y-91336084D01*
X138838473Y-91334831D01*
X138829086Y-91329412D01*
X138818407Y-91327528D01*
X138818402Y-91327527D01*
X138791893Y-91322852D01*
X138781338Y-91320513D01*
X138755324Y-91313543D01*
X138744848Y-91310736D01*
X138734044Y-91311681D01*
X138734041Y-91311681D01*
X138707222Y-91314028D01*
X138696414Y-91314500D01*
X137454940Y-91314500D01*
X137400795Y-91302054D01*
X137357519Y-91267215D01*
X137339744Y-91229566D01*
X137337646Y-91230301D01*
X137292793Y-91102118D01*
X137286701Y-91093864D01*
X137220020Y-91003514D01*
X137212150Y-90992850D01*
X137152139Y-90948560D01*
X137110358Y-90917724D01*
X137110355Y-90917722D01*
X137102882Y-90912207D01*
X137094116Y-90909139D01*
X137094113Y-90909138D01*
X136981817Y-90869844D01*
X136981811Y-90869842D01*
X136974699Y-90867354D01*
X136967191Y-90866649D01*
X136967187Y-90866649D01*
X136947149Y-90864770D01*
X136947141Y-90864769D01*
X136944266Y-90864500D01*
X135535734Y-90864500D01*
X135532859Y-90864769D01*
X135532850Y-90864770D01*
X135512812Y-90866649D01*
X135512807Y-90866650D01*
X135505301Y-90867354D01*
X135498189Y-90869842D01*
X135498182Y-90869844D01*
X135385886Y-90909138D01*
X135385880Y-90909140D01*
X135377118Y-90912207D01*
X135369646Y-90917720D01*
X135369641Y-90917724D01*
X135275327Y-90987331D01*
X135275324Y-90987333D01*
X135267850Y-90992850D01*
X135262333Y-91000324D01*
X135262331Y-91000327D01*
X135192724Y-91094641D01*
X135192720Y-91094646D01*
X135187207Y-91102118D01*
X135184140Y-91110880D01*
X135184138Y-91110886D01*
X135144844Y-91223182D01*
X135144842Y-91223189D01*
X135142354Y-91230301D01*
X135141650Y-91237807D01*
X135141649Y-91237812D01*
X135139770Y-91257850D01*
X135139500Y-91260734D01*
X135139500Y-92019266D01*
X135139769Y-92022141D01*
X135139770Y-92022149D01*
X135141649Y-92042187D01*
X135141649Y-92042191D01*
X135142354Y-92049699D01*
X135144842Y-92056811D01*
X135144844Y-92056817D01*
X135184138Y-92169113D01*
X135184139Y-92169116D01*
X135187207Y-92177882D01*
X135192722Y-92185355D01*
X135192724Y-92185358D01*
X135244030Y-92254875D01*
X135267850Y-92287150D01*
X135275327Y-92292668D01*
X135356037Y-92352235D01*
X135377118Y-92367793D01*
X135505301Y-92412646D01*
X135535734Y-92415500D01*
X136941373Y-92415500D01*
X136944266Y-92415500D01*
X136974699Y-92412646D01*
X137102882Y-92367793D01*
X137212150Y-92287150D01*
X137292793Y-92177882D01*
X137337646Y-92049699D01*
X137339744Y-92050433D01*
X137357519Y-92012785D01*
X137400795Y-91977946D01*
X137454940Y-91965500D01*
X138529853Y-91965500D01*
X138577306Y-91974939D01*
X138617534Y-92001819D01*
X139113181Y-92497466D01*
X139140061Y-92537694D01*
X139149500Y-92585147D01*
X139149500Y-93841285D01*
X139149500Y-93841302D01*
X139149501Y-93844864D01*
X139149912Y-93848411D01*
X139149913Y-93848422D01*
X139150134Y-93850326D01*
X139152415Y-93869991D01*
X139197794Y-93972765D01*
X139277235Y-94052206D01*
X139334623Y-94077545D01*
X139371477Y-94093818D01*
X139371478Y-94093818D01*
X139380009Y-94097585D01*
X139405135Y-94100500D01*
X139694864Y-94100499D01*
X139719991Y-94097585D01*
X139822765Y-94052206D01*
X139823551Y-94053986D01*
X139850329Y-94042647D01*
X139899671Y-94042647D01*
X139926448Y-94053986D01*
X139927235Y-94052206D01*
X140021477Y-94093818D01*
X140021478Y-94093818D01*
X140030009Y-94097585D01*
X140055135Y-94100500D01*
X140344864Y-94100499D01*
X140369991Y-94097585D01*
X140472765Y-94052206D01*
X140473551Y-94053986D01*
X140500329Y-94042647D01*
X140549671Y-94042647D01*
X140576448Y-94053986D01*
X140577235Y-94052206D01*
X140671477Y-94093818D01*
X140671478Y-94093818D01*
X140680009Y-94097585D01*
X140705135Y-94100500D01*
X140994864Y-94100499D01*
X141019991Y-94097585D01*
X141122765Y-94052206D01*
X141123551Y-94053986D01*
X141150329Y-94042647D01*
X141199671Y-94042647D01*
X141226448Y-94053986D01*
X141227235Y-94052206D01*
X141321477Y-94093818D01*
X141321478Y-94093818D01*
X141330009Y-94097585D01*
X141355135Y-94100500D01*
X141644864Y-94100499D01*
X141669991Y-94097585D01*
X141772765Y-94052206D01*
X141773551Y-94053986D01*
X141800329Y-94042647D01*
X141849671Y-94042647D01*
X141876448Y-94053986D01*
X141877235Y-94052206D01*
X141971477Y-94093818D01*
X141971478Y-94093818D01*
X141980009Y-94097585D01*
X142005135Y-94100500D01*
X142294864Y-94100499D01*
X142319991Y-94097585D01*
X142422765Y-94052206D01*
X142502206Y-93972765D01*
X142547585Y-93869991D01*
X142550500Y-93844865D01*
X142550499Y-92549499D01*
X142567112Y-92487500D01*
X142612499Y-92442113D01*
X142674499Y-92425500D01*
X142869042Y-92425500D01*
X142926298Y-92439510D01*
X142968680Y-92476677D01*
X142971776Y-92483316D01*
X143056684Y-92568224D01*
X143165513Y-92618972D01*
X143215099Y-92625500D01*
X143634900Y-92625499D01*
X143684487Y-92618972D01*
X143793316Y-92568224D01*
X143878224Y-92483316D01*
X143928972Y-92374487D01*
X143935500Y-92324901D01*
X143935499Y-92214119D01*
X143949014Y-92157827D01*
X143986613Y-92113803D01*
X144040101Y-92091648D01*
X144097817Y-92096190D01*
X144147180Y-92126440D01*
X145136536Y-93115796D01*
X145167116Y-93166189D01*
X145170971Y-93225009D01*
X145147231Y-93278963D01*
X145101260Y-93315859D01*
X145014426Y-93356350D01*
X145014421Y-93356353D01*
X145004596Y-93360935D01*
X144996928Y-93368602D01*
X144996925Y-93368605D01*
X144928604Y-93436926D01*
X144928601Y-93436929D01*
X144920935Y-93444596D01*
X144920795Y-93444894D01*
X144882255Y-93478692D01*
X144825000Y-93492702D01*
X144767745Y-93478692D01*
X144729204Y-93444894D01*
X144729065Y-93444596D01*
X144645404Y-93360935D01*
X144635575Y-93356352D01*
X144635573Y-93356350D01*
X144546769Y-93314940D01*
X144546766Y-93314939D01*
X144538173Y-93310932D01*
X144528773Y-93309694D01*
X144528768Y-93309693D01*
X144493336Y-93305029D01*
X144493332Y-93305028D01*
X144489316Y-93304500D01*
X144140684Y-93304500D01*
X144136668Y-93305028D01*
X144136663Y-93305029D01*
X144101231Y-93309693D01*
X144101224Y-93309694D01*
X144091827Y-93310932D01*
X144083235Y-93314938D01*
X144083230Y-93314940D01*
X143994426Y-93356350D01*
X143994421Y-93356353D01*
X143984596Y-93360935D01*
X143976928Y-93368602D01*
X143976925Y-93368605D01*
X143908608Y-93436922D01*
X143908605Y-93436925D01*
X143900935Y-93444596D01*
X143898726Y-93449332D01*
X143857499Y-93485489D01*
X143800241Y-93499500D01*
X143732788Y-93499500D01*
X143721980Y-93499028D01*
X143695172Y-93496682D01*
X143695169Y-93496682D01*
X143684366Y-93495737D01*
X143673891Y-93498543D01*
X143673886Y-93498544D01*
X143647888Y-93505510D01*
X143637336Y-93507849D01*
X143610811Y-93512527D01*
X143610805Y-93512529D01*
X143600128Y-93514412D01*
X143590742Y-93519829D01*
X143587301Y-93521082D01*
X143583958Y-93522640D01*
X143573489Y-93525447D01*
X143564607Y-93531665D01*
X143564598Y-93531670D01*
X143542549Y-93547108D01*
X143533435Y-93552915D01*
X143510112Y-93566381D01*
X143510107Y-93566384D01*
X143500718Y-93571806D01*
X143493750Y-93580109D01*
X143493745Y-93580114D01*
X143476435Y-93600743D01*
X143469129Y-93608715D01*
X142065700Y-95012145D01*
X142006968Y-95045037D01*
X141942220Y-95042494D01*
X141937420Y-95040049D01*
X141927783Y-95038522D01*
X141927781Y-95038522D01*
X141844066Y-95025263D01*
X141844060Y-95025262D01*
X141839246Y-95024500D01*
X141335754Y-95024500D01*
X141330940Y-95025262D01*
X141330933Y-95025263D01*
X141247221Y-95038521D01*
X141247214Y-95038523D01*
X141237580Y-95040049D01*
X141228884Y-95044479D01*
X141228883Y-95044480D01*
X141127944Y-95095911D01*
X141127941Y-95095913D01*
X141119249Y-95100342D01*
X141112350Y-95107240D01*
X141112347Y-95107243D01*
X141032243Y-95187347D01*
X141032240Y-95187350D01*
X141025342Y-95194249D01*
X141022800Y-95199237D01*
X140977295Y-95236881D01*
X140916713Y-95248437D01*
X140858057Y-95229378D01*
X140815838Y-95184419D01*
X140800970Y-95126516D01*
X140800636Y-95126532D01*
X140800560Y-95124917D01*
X140800500Y-95124682D01*
X140800500Y-95123627D01*
X140800500Y-95120734D01*
X140797646Y-95090301D01*
X140752793Y-94962118D01*
X140672150Y-94852850D01*
X140599863Y-94799500D01*
X140570358Y-94777724D01*
X140570355Y-94777722D01*
X140562882Y-94772207D01*
X140554116Y-94769139D01*
X140554113Y-94769138D01*
X140441817Y-94729844D01*
X140441811Y-94729842D01*
X140434699Y-94727354D01*
X140427191Y-94726649D01*
X140427187Y-94726649D01*
X140407149Y-94724770D01*
X140407141Y-94724769D01*
X140404266Y-94724500D01*
X139645734Y-94724500D01*
X139642859Y-94724769D01*
X139642850Y-94724770D01*
X139622812Y-94726649D01*
X139622807Y-94726650D01*
X139615301Y-94727354D01*
X139608189Y-94729842D01*
X139608182Y-94729844D01*
X139495886Y-94769138D01*
X139495880Y-94769140D01*
X139487118Y-94772207D01*
X139479646Y-94777720D01*
X139479641Y-94777724D01*
X139385327Y-94847331D01*
X139385324Y-94847333D01*
X139377850Y-94852850D01*
X139372333Y-94860324D01*
X139372331Y-94860327D01*
X139302724Y-94954641D01*
X139302720Y-94954646D01*
X139297207Y-94962118D01*
X139294140Y-94970880D01*
X139294138Y-94970886D01*
X139254844Y-95083182D01*
X139254842Y-95083189D01*
X139252354Y-95090301D01*
X139251650Y-95097807D01*
X139251649Y-95097812D01*
X139249770Y-95117850D01*
X139249500Y-95120734D01*
X139249500Y-95123627D01*
X139249500Y-96088811D01*
X139240060Y-96136265D01*
X139213179Y-96176495D01*
X139179437Y-96210235D01*
X139122423Y-96242700D01*
X139056824Y-96241528D01*
X138973285Y-96216999D01*
X138973281Y-96216998D01*
X138964772Y-96214500D01*
X138835228Y-96214500D01*
X138826718Y-96216998D01*
X138826715Y-96216999D01*
X138719444Y-96248496D01*
X138719441Y-96248497D01*
X138710931Y-96250996D01*
X138703468Y-96255791D01*
X138703468Y-96255792D01*
X138609412Y-96316237D01*
X138609406Y-96316241D01*
X138601951Y-96321033D01*
X138596146Y-96327732D01*
X138596143Y-96327735D01*
X138522922Y-96412237D01*
X138522917Y-96412243D01*
X138517118Y-96418937D01*
X138513438Y-96426994D01*
X138513434Y-96427001D01*
X138472791Y-96515998D01*
X138463303Y-96536774D01*
X138462041Y-96545547D01*
X138462040Y-96545553D01*
X138449960Y-96629575D01*
X138444867Y-96665000D01*
X138446129Y-96673777D01*
X138462040Y-96784446D01*
X138462041Y-96784450D01*
X138463303Y-96793226D01*
X138466987Y-96801294D01*
X138466988Y-96801295D01*
X138513434Y-96902998D01*
X138513436Y-96903002D01*
X138517118Y-96911063D01*
X138522920Y-96917759D01*
X138522922Y-96917762D01*
X138566728Y-96968317D01*
X138601951Y-97008967D01*
X138710931Y-97079004D01*
X138835228Y-97115500D01*
X138955901Y-97115500D01*
X138964772Y-97115500D01*
X139089069Y-97079004D01*
X139198049Y-97008967D01*
X139198349Y-97009434D01*
X139240314Y-96987160D01*
X139250307Y-96984483D01*
X139260830Y-96982149D01*
X139298045Y-96975588D01*
X139307451Y-96970156D01*
X139310900Y-96968901D01*
X139314199Y-96967362D01*
X139324684Y-96964554D01*
X139355635Y-96942880D01*
X139364733Y-96937085D01*
X139397455Y-96918194D01*
X139403031Y-96911548D01*
X139459106Y-96885186D01*
X139522355Y-96890123D01*
X139583993Y-96911691D01*
X139615301Y-96922646D01*
X139645734Y-96925500D01*
X139897740Y-96925500D01*
X139962067Y-96943490D01*
X140007728Y-96992241D01*
X140021475Y-97057606D01*
X140004578Y-97105659D01*
X140006776Y-97106684D01*
X139960036Y-97206916D01*
X139960034Y-97206920D01*
X139956028Y-97215513D01*
X139954790Y-97224910D01*
X139954789Y-97224917D01*
X139951785Y-97247740D01*
X139949500Y-97265099D01*
X139949500Y-97474962D01*
X139949501Y-97620500D01*
X139932888Y-97682500D01*
X139887501Y-97727887D01*
X139825501Y-97744500D01*
X139803193Y-97744500D01*
X139799564Y-97744929D01*
X139799556Y-97744930D01*
X139747184Y-97751129D01*
X139747175Y-97751130D01*
X139743547Y-97751560D01*
X139740005Y-97752410D01*
X139739990Y-97752413D01*
X139690796Y-97764224D01*
X139690785Y-97764227D01*
X139687250Y-97765076D01*
X139683842Y-97766332D01*
X139683813Y-97766342D01*
X139677932Y-97768512D01*
X139654428Y-97774645D01*
X139648606Y-97775567D01*
X139630261Y-97778472D01*
X139610869Y-97779999D01*
X139565861Y-97779999D01*
X139562843Y-97780296D01*
X139562828Y-97780297D01*
X139519036Y-97784611D01*
X139519031Y-97784611D01*
X139516013Y-97784909D01*
X139513040Y-97785500D01*
X139513029Y-97785502D01*
X139474535Y-97793159D01*
X139474526Y-97793161D01*
X139468562Y-97794348D01*
X139462941Y-97796675D01*
X139462935Y-97796678D01*
X139382094Y-97830163D01*
X139382087Y-97830166D01*
X139376466Y-97832495D01*
X139371409Y-97835873D01*
X139371403Y-97835877D01*
X139338771Y-97857680D01*
X139338758Y-97857689D01*
X139336240Y-97859372D01*
X139333892Y-97861298D01*
X139333877Y-97861310D01*
X139332184Y-97862700D01*
X139331687Y-97862934D01*
X139331446Y-97863114D01*
X139331410Y-97863065D01*
X139277712Y-97888456D01*
X139217531Y-97885496D01*
X139165850Y-97854518D01*
X139144146Y-97832814D01*
X139144145Y-97832813D01*
X139141985Y-97830653D01*
X139136087Y-97825813D01*
X139119578Y-97812264D01*
X139103269Y-97798880D01*
X139100745Y-97797193D01*
X139100739Y-97797189D01*
X139065563Y-97773685D01*
X139065560Y-97773683D01*
X139063041Y-97772000D01*
X139018868Y-97748388D01*
X138985221Y-97738181D01*
X138973862Y-97734735D01*
X138973856Y-97734733D01*
X138970937Y-97733848D01*
X138967946Y-97733253D01*
X138967938Y-97733251D01*
X138926468Y-97725002D01*
X138926457Y-97725000D01*
X138923484Y-97724409D01*
X138920460Y-97724111D01*
X138920459Y-97724111D01*
X138876674Y-97719799D01*
X138873638Y-97719500D01*
X137626362Y-97719500D01*
X137623326Y-97719798D01*
X137623325Y-97719799D01*
X137579540Y-97724111D01*
X137579536Y-97724111D01*
X137576516Y-97724409D01*
X137573545Y-97724999D01*
X137573531Y-97725002D01*
X137532061Y-97733251D01*
X137532048Y-97733254D01*
X137529063Y-97733848D01*
X137526148Y-97734732D01*
X137526137Y-97734735D01*
X137486969Y-97746617D01*
X137486966Y-97746618D01*
X137481132Y-97748388D01*
X137475755Y-97751262D01*
X137475753Y-97751263D01*
X137439641Y-97770566D01*
X137439635Y-97770569D01*
X137436959Y-97772000D01*
X137434448Y-97773677D01*
X137434436Y-97773685D01*
X137399260Y-97797189D01*
X137399244Y-97797200D01*
X137396731Y-97798880D01*
X137394381Y-97800808D01*
X137394375Y-97800813D01*
X137360374Y-97828716D01*
X137360361Y-97828727D01*
X137358015Y-97830653D01*
X137355863Y-97832804D01*
X137355853Y-97832814D01*
X137232814Y-97955853D01*
X137232804Y-97955863D01*
X137230653Y-97958015D01*
X137228727Y-97960361D01*
X137228716Y-97960374D01*
X137203149Y-97991529D01*
X137198880Y-97996731D01*
X137197200Y-97999244D01*
X137197189Y-97999260D01*
X137173685Y-98034436D01*
X137173677Y-98034448D01*
X137172000Y-98036959D01*
X137170569Y-98039635D01*
X137170566Y-98039641D01*
X137156416Y-98066113D01*
X137148388Y-98081132D01*
X137146618Y-98086966D01*
X137146617Y-98086969D01*
X137134735Y-98126137D01*
X137134732Y-98126148D01*
X137133848Y-98129063D01*
X137133254Y-98132048D01*
X137133251Y-98132061D01*
X137125002Y-98173531D01*
X137124999Y-98173545D01*
X137124409Y-98176516D01*
X137124111Y-98179536D01*
X137124111Y-98179540D01*
X137123165Y-98189149D01*
X137119500Y-98226362D01*
X137119500Y-101198638D01*
X137124409Y-101248484D01*
X137125000Y-101251457D01*
X137125002Y-101251468D01*
X137130694Y-101280081D01*
X137133848Y-101295937D01*
X137134733Y-101298856D01*
X137134735Y-101298862D01*
X137141169Y-101320070D01*
X137148388Y-101343868D01*
X137172000Y-101388041D01*
X137173683Y-101390560D01*
X137173685Y-101390563D01*
X137196191Y-101424246D01*
X137198880Y-101428269D01*
X137230653Y-101466985D01*
X137757515Y-101993847D01*
X137759873Y-101995782D01*
X137759874Y-101995783D01*
X137760846Y-101996581D01*
X137796231Y-102025620D01*
X137836459Y-102052500D01*
X137880632Y-102076112D01*
X137928563Y-102090652D01*
X137976016Y-102100091D01*
X138025862Y-102105000D01*
X138425985Y-102105000D01*
X138458785Y-102109416D01*
X138492344Y-102118622D01*
X138535676Y-102126440D01*
X138578108Y-102130237D01*
X138619563Y-102141412D01*
X138654729Y-102166061D01*
X138758181Y-102269513D01*
X138785061Y-102309741D01*
X138794500Y-102357194D01*
X138794500Y-107498638D01*
X138799409Y-107548484D01*
X138800000Y-107551457D01*
X138800002Y-107551468D01*
X138803483Y-107568967D01*
X138808848Y-107595937D01*
X138823388Y-107643868D01*
X138847000Y-107688041D01*
X138848683Y-107690560D01*
X138848685Y-107690563D01*
X138849999Y-107692530D01*
X138873880Y-107728269D01*
X138905653Y-107766985D01*
X138933015Y-107794347D01*
X138971731Y-107826120D01*
X139011959Y-107853000D01*
X139056132Y-107876612D01*
X139104063Y-107891152D01*
X139151516Y-107900591D01*
X139201362Y-107905500D01*
X139495587Y-107905500D01*
X139498638Y-107905500D01*
X139548484Y-107900591D01*
X139595937Y-107891152D01*
X139643868Y-107876612D01*
X139688041Y-107853000D01*
X139728269Y-107826120D01*
X139766985Y-107794347D01*
X139767208Y-107794123D01*
X139819868Y-107765974D01*
X139880132Y-107765974D01*
X139932791Y-107794123D01*
X139933015Y-107794347D01*
X139971731Y-107826120D01*
X140011959Y-107853000D01*
X140056132Y-107876612D01*
X140104063Y-107891152D01*
X140151516Y-107900591D01*
X140201362Y-107905500D01*
X140495587Y-107905500D01*
X140498638Y-107905500D01*
X140548484Y-107900591D01*
X140595937Y-107891152D01*
X140643868Y-107876612D01*
X140688041Y-107853000D01*
X140728269Y-107826120D01*
X140766985Y-107794347D01*
X140767208Y-107794123D01*
X140819868Y-107765974D01*
X140880132Y-107765974D01*
X140932791Y-107794123D01*
X140933015Y-107794347D01*
X140971731Y-107826120D01*
X141011959Y-107853000D01*
X141056132Y-107876612D01*
X141104063Y-107891152D01*
X141151516Y-107900591D01*
X141201362Y-107905500D01*
X141495587Y-107905500D01*
X141498638Y-107905500D01*
X141548484Y-107900591D01*
X141595937Y-107891152D01*
X141643868Y-107876612D01*
X141688041Y-107853000D01*
X141728269Y-107826120D01*
X141766985Y-107794347D01*
X141794347Y-107766985D01*
X141826120Y-107728269D01*
X141853000Y-107688041D01*
X141876612Y-107643868D01*
X141891152Y-107595937D01*
X141900591Y-107548484D01*
X141905500Y-107498638D01*
X141905500Y-106836234D01*
X141919830Y-106778367D01*
X141959509Y-106733875D01*
X142015365Y-106713042D01*
X142074489Y-106720683D01*
X142123213Y-106755032D01*
X142150674Y-106786723D01*
X142156951Y-106793967D01*
X142265931Y-106864004D01*
X142390228Y-106900500D01*
X142510901Y-106900500D01*
X142519772Y-106900500D01*
X142644069Y-106864004D01*
X142753049Y-106793967D01*
X142759112Y-106786968D01*
X142759481Y-106786723D01*
X142765560Y-106781456D01*
X142766227Y-106782226D01*
X142813943Y-106750421D01*
X142819728Y-106750131D01*
X142819464Y-106748381D01*
X142837140Y-106696918D01*
X142837882Y-106696063D01*
X142891697Y-106578226D01*
X142910133Y-106450000D01*
X142891697Y-106321774D01*
X142856855Y-106245482D01*
X142841565Y-106212001D01*
X142841564Y-106211999D01*
X142837882Y-106203937D01*
X142753049Y-106106033D01*
X142745589Y-106101238D01*
X142745587Y-106101237D01*
X142687280Y-106063766D01*
X142644069Y-106035996D01*
X142635555Y-106033496D01*
X142528284Y-106001999D01*
X142528282Y-106001998D01*
X142519772Y-105999500D01*
X142390228Y-105999500D01*
X142381718Y-106001998D01*
X142381715Y-106001999D01*
X142274444Y-106033496D01*
X142274441Y-106033497D01*
X142265931Y-106035996D01*
X142258468Y-106040791D01*
X142258468Y-106040792D01*
X142164412Y-106101237D01*
X142164406Y-106101241D01*
X142156951Y-106106033D01*
X142151144Y-106112734D01*
X142151139Y-106112739D01*
X142123213Y-106144968D01*
X142074489Y-106179317D01*
X142015365Y-106186958D01*
X141959509Y-106166125D01*
X141919830Y-106121633D01*
X141905500Y-106063766D01*
X141905500Y-102357194D01*
X141914939Y-102309741D01*
X141941819Y-102269513D01*
X142094513Y-102116819D01*
X142134741Y-102089939D01*
X142182194Y-102080500D01*
X142620587Y-102080500D01*
X142623638Y-102080500D01*
X142673484Y-102075591D01*
X142720937Y-102066152D01*
X142768868Y-102051612D01*
X142813041Y-102028000D01*
X142853269Y-102001120D01*
X142891985Y-101969347D01*
X143319347Y-101541985D01*
X143351120Y-101503269D01*
X143378000Y-101463041D01*
X143401612Y-101418868D01*
X143416152Y-101370937D01*
X143425591Y-101323484D01*
X143430500Y-101273638D01*
X143430500Y-98226362D01*
X143425591Y-98176516D01*
X143416152Y-98129063D01*
X143401612Y-98081132D01*
X143378000Y-98036959D01*
X143351120Y-97996731D01*
X143319347Y-97958015D01*
X143216985Y-97855653D01*
X143211773Y-97851376D01*
X143193045Y-97836006D01*
X143178269Y-97823880D01*
X143175745Y-97822193D01*
X143175739Y-97822189D01*
X143140563Y-97798685D01*
X143140560Y-97798683D01*
X143138041Y-97797000D01*
X143093868Y-97773388D01*
X143079743Y-97769103D01*
X143048862Y-97759735D01*
X143048856Y-97759733D01*
X143045937Y-97758848D01*
X143042946Y-97758253D01*
X143042938Y-97758251D01*
X143001468Y-97750002D01*
X143001457Y-97750000D01*
X142998484Y-97749409D01*
X142995460Y-97749111D01*
X142995459Y-97749111D01*
X142951674Y-97744799D01*
X142948638Y-97744500D01*
X142945587Y-97744500D01*
X142326352Y-97744500D01*
X142270058Y-97730985D01*
X142226035Y-97693387D01*
X142203879Y-97639901D01*
X142208095Y-97586312D01*
X142209719Y-97583126D01*
X142225500Y-97483488D01*
X142225500Y-96916512D01*
X142209719Y-96816874D01*
X142148528Y-96696780D01*
X142053220Y-96601472D01*
X142044527Y-96597042D01*
X142044522Y-96597039D01*
X141975152Y-96561693D01*
X141925720Y-96515998D01*
X141907448Y-96451208D01*
X141925721Y-96386418D01*
X141975152Y-96340725D01*
X142055751Y-96299658D01*
X142149658Y-96205751D01*
X142209951Y-96087420D01*
X142225500Y-95989246D01*
X142225500Y-95824361D01*
X142234939Y-95776908D01*
X142261819Y-95736680D01*
X142312819Y-95685680D01*
X142362182Y-95655430D01*
X142419898Y-95650888D01*
X142473385Y-95673043D01*
X142510985Y-95717066D01*
X142524500Y-95773361D01*
X142524500Y-95989246D01*
X142525262Y-95994060D01*
X142525263Y-95994066D01*
X142538521Y-96077778D01*
X142538522Y-96077783D01*
X142540049Y-96087420D01*
X142557980Y-96122612D01*
X142584139Y-96173952D01*
X142600342Y-96205751D01*
X142694249Y-96299658D01*
X142812580Y-96359951D01*
X142822220Y-96361477D01*
X142822221Y-96361478D01*
X142828970Y-96362546D01*
X142910754Y-96375500D01*
X143409368Y-96375500D01*
X143414246Y-96375500D01*
X143512420Y-96359951D01*
X143630751Y-96299658D01*
X143724658Y-96205751D01*
X143784951Y-96087420D01*
X143786478Y-96077776D01*
X143789492Y-96068502D01*
X143791874Y-96069275D01*
X143807470Y-96031618D01*
X143851494Y-95994016D01*
X143907791Y-95980500D01*
X143929075Y-95980500D01*
X143981479Y-95992117D01*
X144060513Y-96028972D01*
X144110099Y-96035500D01*
X144239521Y-96035499D01*
X144286973Y-96044938D01*
X144327202Y-96071818D01*
X144397370Y-96141986D01*
X144412790Y-96160775D01*
X144414587Y-96163465D01*
X144414589Y-96163467D01*
X144421376Y-96173624D01*
X144444376Y-96188992D01*
X144444378Y-96188994D01*
X144463132Y-96201525D01*
X144512505Y-96234515D01*
X144592867Y-96250500D01*
X144592868Y-96250500D01*
X144595361Y-96250996D01*
X144620000Y-96255897D01*
X144635161Y-96252881D01*
X144659344Y-96250500D01*
X145104406Y-96250500D01*
X145128597Y-96252882D01*
X145143750Y-96255897D01*
X145168389Y-96250996D01*
X145170882Y-96250500D01*
X145170883Y-96250500D01*
X145251245Y-96234515D01*
X145300618Y-96201525D01*
X145319372Y-96188994D01*
X145319376Y-96188989D01*
X145342374Y-96173624D01*
X145350960Y-96160772D01*
X145366369Y-96141995D01*
X145671549Y-95836816D01*
X145711775Y-95809939D01*
X145759228Y-95800500D01*
X146064324Y-95800500D01*
X146120619Y-95814015D01*
X146164642Y-95851615D01*
X146186797Y-95905102D01*
X146182255Y-95962818D01*
X146152005Y-96012181D01*
X145597209Y-96566976D01*
X145556981Y-96593856D01*
X145509528Y-96603295D01*
X145473297Y-96596088D01*
X145472658Y-96595661D01*
X145460681Y-96593278D01*
X145460680Y-96593278D01*
X145404746Y-96582151D01*
X145375269Y-96576288D01*
X145351803Y-96580955D01*
X145289857Y-96593278D01*
X145289854Y-96593278D01*
X145277880Y-96595661D01*
X145267728Y-96602444D01*
X145267726Y-96602445D01*
X145221227Y-96633514D01*
X145221222Y-96633517D01*
X145216159Y-96636901D01*
X145211851Y-96641208D01*
X145211846Y-96641213D01*
X144977107Y-96875952D01*
X144977102Y-96875957D01*
X144972795Y-96880265D01*
X144969411Y-96885328D01*
X144969408Y-96885333D01*
X144938339Y-96931832D01*
X144938338Y-96931834D01*
X144931555Y-96941986D01*
X144929172Y-96953960D01*
X144929172Y-96953963D01*
X144919915Y-97000500D01*
X144912182Y-97039375D01*
X144914565Y-97051354D01*
X144914565Y-97051356D01*
X144931301Y-97135492D01*
X144928345Y-97195679D01*
X144897365Y-97247365D01*
X144845679Y-97278345D01*
X144785492Y-97281301D01*
X144701356Y-97264565D01*
X144701354Y-97264565D01*
X144689375Y-97262182D01*
X144677396Y-97264565D01*
X144603963Y-97279172D01*
X144603960Y-97279172D01*
X144591986Y-97281555D01*
X144581834Y-97288338D01*
X144581832Y-97288339D01*
X144535333Y-97319408D01*
X144535328Y-97319411D01*
X144530265Y-97322795D01*
X144525957Y-97327102D01*
X144525952Y-97327107D01*
X144291213Y-97561846D01*
X144291208Y-97561851D01*
X144286901Y-97566159D01*
X144283517Y-97571222D01*
X144283514Y-97571227D01*
X144252445Y-97617726D01*
X144252444Y-97617728D01*
X144245661Y-97627880D01*
X144243278Y-97639854D01*
X144243278Y-97639857D01*
X144233504Y-97688992D01*
X144226288Y-97725269D01*
X144228671Y-97737248D01*
X144241315Y-97800813D01*
X144245661Y-97822658D01*
X144252445Y-97832812D01*
X144252446Y-97832813D01*
X144271634Y-97861531D01*
X144286901Y-97884380D01*
X144291211Y-97888690D01*
X144468634Y-98066113D01*
X144495514Y-98106341D01*
X144504953Y-98153794D01*
X144504953Y-98389331D01*
X144490311Y-98447784D01*
X144449844Y-98492433D01*
X144395609Y-98528671D01*
X144395606Y-98528673D01*
X144385456Y-98535456D01*
X144378673Y-98545606D01*
X144378671Y-98545609D01*
X144338731Y-98605383D01*
X144338729Y-98605385D01*
X144331947Y-98615537D01*
X144329564Y-98627513D01*
X144329564Y-98627515D01*
X144319089Y-98680175D01*
X144319088Y-98680181D01*
X144317900Y-98686156D01*
X144317900Y-99073844D01*
X144319088Y-99079819D01*
X144319089Y-99079824D01*
X144328175Y-99125500D01*
X144331947Y-99144463D01*
X144338730Y-99154615D01*
X144338731Y-99154616D01*
X144374727Y-99208488D01*
X144385456Y-99224544D01*
X144409003Y-99240278D01*
X144409005Y-99240279D01*
X144449472Y-99284928D01*
X144464114Y-99343381D01*
X144449472Y-99401834D01*
X144409005Y-99446483D01*
X144357702Y-99480762D01*
X144357697Y-99480766D01*
X144347548Y-99487548D01*
X144340766Y-99497697D01*
X144340764Y-99497700D01*
X144302096Y-99555573D01*
X144292382Y-99570111D01*
X144289999Y-99582086D01*
X144289998Y-99582091D01*
X144279089Y-99636935D01*
X144279088Y-99636942D01*
X144277900Y-99642916D01*
X144277900Y-99987084D01*
X144279088Y-99993058D01*
X144279089Y-99993064D01*
X144289998Y-100047908D01*
X144289999Y-100047911D01*
X144292382Y-100059889D01*
X144347548Y-100142452D01*
X144357700Y-100149235D01*
X144357701Y-100149236D01*
X144429032Y-100196898D01*
X144469499Y-100241547D01*
X144484141Y-100300000D01*
X144469499Y-100358453D01*
X144429032Y-100403102D01*
X144357701Y-100450763D01*
X144357697Y-100450766D01*
X144347548Y-100457548D01*
X144340766Y-100467697D01*
X144340764Y-100467700D01*
X144299167Y-100529956D01*
X144292382Y-100540111D01*
X144289999Y-100552086D01*
X144289998Y-100552091D01*
X144279089Y-100606935D01*
X144279088Y-100606942D01*
X144277900Y-100612916D01*
X144277900Y-100957084D01*
X144279088Y-100963058D01*
X144279089Y-100963064D01*
X144289998Y-101017908D01*
X144289999Y-101017911D01*
X144292382Y-101029889D01*
X144347548Y-101112452D01*
X144357700Y-101119235D01*
X144416487Y-101158515D01*
X144456955Y-101203164D01*
X144471597Y-101261616D01*
X144456956Y-101320069D01*
X144416490Y-101364719D01*
X144395609Y-101378671D01*
X144395606Y-101378673D01*
X144385456Y-101385456D01*
X144378673Y-101395606D01*
X144378671Y-101395609D01*
X144338731Y-101455383D01*
X144338729Y-101455385D01*
X144331947Y-101465537D01*
X144329564Y-101477513D01*
X144329564Y-101477515D01*
X144319089Y-101530175D01*
X144319088Y-101530181D01*
X144317900Y-101536156D01*
X144317900Y-101923844D01*
X144319088Y-101929819D01*
X144319089Y-101929824D01*
X144328809Y-101978688D01*
X144331947Y-101994463D01*
X144338730Y-102004615D01*
X144338731Y-102004616D01*
X144375746Y-102060013D01*
X144385456Y-102074544D01*
X144408234Y-102089764D01*
X144426488Y-102101961D01*
X144466955Y-102146610D01*
X144481597Y-102205063D01*
X144466955Y-102263516D01*
X144426488Y-102308165D01*
X144377702Y-102340762D01*
X144377697Y-102340766D01*
X144367548Y-102347548D01*
X144360766Y-102357697D01*
X144360764Y-102357700D01*
X144326637Y-102408776D01*
X144312382Y-102430111D01*
X144309999Y-102442086D01*
X144309998Y-102442091D01*
X144299089Y-102496935D01*
X144299088Y-102496942D01*
X144297900Y-102502916D01*
X144297900Y-102897084D01*
X144299088Y-102903058D01*
X144299089Y-102903064D01*
X144309998Y-102957908D01*
X144309999Y-102957911D01*
X144312382Y-102969889D01*
X144367548Y-103052452D01*
X144377700Y-103059235D01*
X144377702Y-103059237D01*
X144437789Y-103099385D01*
X144478258Y-103144034D01*
X144492900Y-103202488D01*
X144492900Y-106751000D01*
X144476287Y-106813000D01*
X144430900Y-106858387D01*
X144368900Y-106875000D01*
X143825000Y-106875000D01*
X142975000Y-106875000D01*
X142975000Y-106879362D01*
X142975000Y-112866629D01*
X142961072Y-112923727D01*
X142922417Y-112967998D01*
X142867718Y-112989497D01*
X142552331Y-113032410D01*
X142548405Y-113032880D01*
X142017109Y-113087982D01*
X142015909Y-113088101D01*
X141603400Y-113126834D01*
X141599492Y-113127139D01*
X141067429Y-113160173D01*
X141066192Y-113160243D01*
X140651371Y-113181838D01*
X140647487Y-113181980D01*
X140115436Y-113192979D01*
X140114162Y-113192998D01*
X139697886Y-113197327D01*
X139694035Y-113197308D01*
X139163094Y-113186334D01*
X139161787Y-113186300D01*
X138744521Y-113173273D01*
X138740706Y-113173095D01*
X138211608Y-113140246D01*
X138210271Y-113140155D01*
X137793051Y-113109720D01*
X137789280Y-113109387D01*
X137262885Y-113054793D01*
X137261519Y-113054644D01*
X136845022Y-113006776D01*
X136841302Y-113006291D01*
X136318309Y-112930093D01*
X136316917Y-112929882D01*
X135902090Y-112864622D01*
X135898427Y-112863990D01*
X135379822Y-112766393D01*
X135378405Y-112766118D01*
X134965826Y-112683492D01*
X134962227Y-112682715D01*
X134448830Y-112563940D01*
X134447393Y-112563599D01*
X134037905Y-112463710D01*
X134034373Y-112462793D01*
X133527027Y-112323097D01*
X133525573Y-112322687D01*
X133119901Y-112205653D01*
X133116443Y-112204600D01*
X132615952Y-112044265D01*
X132614484Y-112043785D01*
X132213374Y-111909755D01*
X132209994Y-111908571D01*
X131717142Y-111727905D01*
X131715664Y-111727353D01*
X131319937Y-111576550D01*
X131316640Y-111575239D01*
X130832071Y-111374524D01*
X130830585Y-111373897D01*
X130441048Y-111206578D01*
X130437841Y-111205146D01*
X130071485Y-111035335D01*
X129962438Y-110984791D01*
X129961046Y-110984135D01*
X129732914Y-110874689D01*
X129578272Y-110800500D01*
X129575157Y-110798951D01*
X129382923Y-110700000D01*
X138744417Y-110700000D01*
X138745014Y-110706061D01*
X138764102Y-110899869D01*
X138764103Y-110899875D01*
X138764700Y-110905934D01*
X138766467Y-110911759D01*
X138766468Y-110911764D01*
X138813666Y-111067356D01*
X138824768Y-111103954D01*
X138827638Y-111109323D01*
X138827640Y-111109328D01*
X138879622Y-111206578D01*
X138922315Y-111286450D01*
X139053590Y-111446410D01*
X139213550Y-111577685D01*
X139396046Y-111675232D01*
X139594066Y-111735300D01*
X139800000Y-111755583D01*
X140005934Y-111735300D01*
X140203954Y-111675232D01*
X140386450Y-111577685D01*
X140546410Y-111446410D01*
X140677685Y-111286450D01*
X140775232Y-111103954D01*
X140835300Y-110905934D01*
X140855583Y-110700000D01*
X140835300Y-110494066D01*
X140775232Y-110296046D01*
X140677685Y-110113550D01*
X140546410Y-109953590D01*
X140386450Y-109822315D01*
X140371281Y-109814207D01*
X140209328Y-109727640D01*
X140209323Y-109727638D01*
X140203954Y-109724768D01*
X140167356Y-109713666D01*
X140011764Y-109666468D01*
X140011759Y-109666467D01*
X140005934Y-109664700D01*
X139999875Y-109664103D01*
X139999869Y-109664102D01*
X139806061Y-109645014D01*
X139800000Y-109644417D01*
X139793939Y-109645014D01*
X139600130Y-109664102D01*
X139600122Y-109664103D01*
X139594066Y-109664700D01*
X139588242Y-109666466D01*
X139588235Y-109666468D01*
X139401877Y-109722999D01*
X139401875Y-109722999D01*
X139396046Y-109724768D01*
X139390679Y-109727636D01*
X139390671Y-109727640D01*
X139218920Y-109819444D01*
X139218915Y-109819447D01*
X139213550Y-109822315D01*
X139208846Y-109826174D01*
X139208842Y-109826178D01*
X139058296Y-109949727D01*
X139058290Y-109949732D01*
X139053590Y-109953590D01*
X139049732Y-109958290D01*
X139049727Y-109958296D01*
X138926178Y-110108842D01*
X138926174Y-110108846D01*
X138922315Y-110113550D01*
X138919447Y-110118915D01*
X138919444Y-110118920D01*
X138827640Y-110290671D01*
X138827636Y-110290679D01*
X138824768Y-110296046D01*
X138822999Y-110301875D01*
X138822999Y-110301877D01*
X138766468Y-110488235D01*
X138766466Y-110488242D01*
X138764700Y-110494066D01*
X138764103Y-110500122D01*
X138764102Y-110500130D01*
X138758341Y-110558629D01*
X138744417Y-110700000D01*
X129382923Y-110700000D01*
X129109792Y-110559408D01*
X129108303Y-110558629D01*
X128733074Y-110359004D01*
X128730055Y-110357344D01*
X128275375Y-110098995D01*
X128273891Y-110098138D01*
X128020904Y-109949727D01*
X127906883Y-109882838D01*
X127903974Y-109881077D01*
X127894239Y-109875000D01*
X131944867Y-109875000D01*
X131946129Y-109883777D01*
X131962040Y-109994446D01*
X131962041Y-109994450D01*
X131963303Y-110003226D01*
X131966987Y-110011294D01*
X131966988Y-110011295D01*
X132013434Y-110112998D01*
X132013436Y-110113002D01*
X132017118Y-110121063D01*
X132022920Y-110127759D01*
X132022922Y-110127762D01*
X132086638Y-110201294D01*
X132101951Y-110218967D01*
X132210931Y-110289004D01*
X132335228Y-110325500D01*
X132455901Y-110325500D01*
X132464772Y-110325500D01*
X132589069Y-110289004D01*
X132698049Y-110218967D01*
X132782882Y-110121063D01*
X132836697Y-110003226D01*
X132855133Y-109875000D01*
X132836697Y-109746774D01*
X132782882Y-109628937D01*
X132761624Y-109604404D01*
X132703856Y-109537735D01*
X132698049Y-109531033D01*
X132690589Y-109526238D01*
X132690587Y-109526237D01*
X132643558Y-109496014D01*
X132589069Y-109460996D01*
X132566639Y-109454410D01*
X132473284Y-109426999D01*
X132473282Y-109426998D01*
X132464772Y-109424500D01*
X132335228Y-109424500D01*
X132326718Y-109426998D01*
X132326715Y-109426999D01*
X132219444Y-109458496D01*
X132219441Y-109458497D01*
X132210931Y-109460996D01*
X132203468Y-109465791D01*
X132203468Y-109465792D01*
X132109412Y-109526237D01*
X132109406Y-109526241D01*
X132101951Y-109531033D01*
X132096146Y-109537732D01*
X132096143Y-109537735D01*
X132022922Y-109622237D01*
X132022917Y-109622243D01*
X132017118Y-109628937D01*
X132013438Y-109636994D01*
X132013434Y-109637001D01*
X131972041Y-109727640D01*
X131963303Y-109746774D01*
X131962041Y-109755547D01*
X131962040Y-109755553D01*
X131948030Y-109853000D01*
X131944867Y-109875000D01*
X127894239Y-109875000D01*
X127880178Y-109866223D01*
X127460745Y-109604400D01*
X127459276Y-109603468D01*
X127151096Y-109405000D01*
X130714867Y-109405000D01*
X130716129Y-109413777D01*
X130732040Y-109524446D01*
X130732041Y-109524450D01*
X130733303Y-109533226D01*
X130736987Y-109541294D01*
X130736988Y-109541295D01*
X130783434Y-109642998D01*
X130783436Y-109643002D01*
X130787118Y-109651063D01*
X130792920Y-109657759D01*
X130792922Y-109657762D01*
X130849450Y-109722999D01*
X130871951Y-109748967D01*
X130980931Y-109819004D01*
X131105228Y-109855500D01*
X131225901Y-109855500D01*
X131234772Y-109855500D01*
X131359069Y-109819004D01*
X131468049Y-109748967D01*
X131552882Y-109651063D01*
X131606697Y-109533226D01*
X131625133Y-109405000D01*
X131606697Y-109276774D01*
X131552882Y-109158937D01*
X131468049Y-109061033D01*
X131460589Y-109056238D01*
X131460587Y-109056237D01*
X131413558Y-109026014D01*
X131359069Y-108990996D01*
X131350555Y-108988496D01*
X131243284Y-108956999D01*
X131243282Y-108956998D01*
X131234772Y-108954500D01*
X131105228Y-108954500D01*
X131096718Y-108956998D01*
X131096715Y-108956999D01*
X130989444Y-108988496D01*
X130989441Y-108988497D01*
X130980931Y-108990996D01*
X130973468Y-108995791D01*
X130973468Y-108995792D01*
X130879412Y-109056237D01*
X130879406Y-109056241D01*
X130871951Y-109061033D01*
X130866146Y-109067732D01*
X130866143Y-109067735D01*
X130792922Y-109152237D01*
X130792917Y-109152243D01*
X130787118Y-109158937D01*
X130783438Y-109166994D01*
X130783434Y-109167001D01*
X130736988Y-109268704D01*
X130733303Y-109276774D01*
X130732041Y-109285547D01*
X130732040Y-109285553D01*
X130719488Y-109372859D01*
X130714867Y-109405000D01*
X127151096Y-109405000D01*
X127101188Y-109372859D01*
X127098374Y-109370992D01*
X126667350Y-109076504D01*
X126665885Y-109075488D01*
X126317318Y-108829915D01*
X126314611Y-108827953D01*
X125896360Y-108516079D01*
X125894912Y-108514982D01*
X125615245Y-108300000D01*
X130144867Y-108300000D01*
X130146129Y-108308777D01*
X130162040Y-108419446D01*
X130162041Y-108419450D01*
X130163303Y-108428226D01*
X130166987Y-108436294D01*
X130166988Y-108436295D01*
X130213434Y-108537998D01*
X130213436Y-108538002D01*
X130217118Y-108546063D01*
X130222920Y-108552759D01*
X130222922Y-108552762D01*
X130286638Y-108626294D01*
X130301951Y-108643967D01*
X130410931Y-108714004D01*
X130535228Y-108750500D01*
X130655901Y-108750500D01*
X130664772Y-108750500D01*
X130789069Y-108714004D01*
X130898049Y-108643967D01*
X130982882Y-108546063D01*
X131036697Y-108428226D01*
X131055133Y-108300000D01*
X131036697Y-108171774D01*
X130982882Y-108053937D01*
X130898049Y-107956033D01*
X130890589Y-107951238D01*
X130890587Y-107951237D01*
X130798019Y-107891748D01*
X130789069Y-107885996D01*
X130780555Y-107883496D01*
X130673284Y-107851999D01*
X130673282Y-107851998D01*
X130664772Y-107849500D01*
X130535228Y-107849500D01*
X130526718Y-107851998D01*
X130526715Y-107851999D01*
X130419444Y-107883496D01*
X130419441Y-107883497D01*
X130410931Y-107885996D01*
X130403468Y-107890791D01*
X130403468Y-107890792D01*
X130309412Y-107951237D01*
X130309406Y-107951241D01*
X130301951Y-107956033D01*
X130296146Y-107962732D01*
X130296143Y-107962735D01*
X130222922Y-108047237D01*
X130222917Y-108047243D01*
X130217118Y-108053937D01*
X130213438Y-108061994D01*
X130213434Y-108062001D01*
X130166988Y-108163704D01*
X130163303Y-108171774D01*
X130162041Y-108180547D01*
X130162040Y-108180553D01*
X130151641Y-108252887D01*
X130144867Y-108300000D01*
X125615245Y-108300000D01*
X125556625Y-108254938D01*
X125554029Y-108252887D01*
X125149342Y-107924254D01*
X125147982Y-107923133D01*
X124820386Y-107648892D01*
X124817931Y-107646780D01*
X124427484Y-107301981D01*
X124426081Y-107300723D01*
X124342915Y-107225000D01*
X135544867Y-107225000D01*
X135546129Y-107233777D01*
X135562040Y-107344446D01*
X135562041Y-107344450D01*
X135563303Y-107353226D01*
X135566987Y-107361294D01*
X135566988Y-107361295D01*
X135613434Y-107462998D01*
X135613436Y-107463002D01*
X135617118Y-107471063D01*
X135622920Y-107477759D01*
X135622922Y-107477762D01*
X135684203Y-107548484D01*
X135701951Y-107568967D01*
X135810931Y-107639004D01*
X135935228Y-107675500D01*
X136055901Y-107675500D01*
X136064772Y-107675500D01*
X136189069Y-107639004D01*
X136257962Y-107594729D01*
X136301533Y-107577286D01*
X136348467Y-107577286D01*
X136392037Y-107594729D01*
X136398469Y-107598862D01*
X136453466Y-107634207D01*
X136453468Y-107634208D01*
X136460931Y-107639004D01*
X136585228Y-107675500D01*
X136705901Y-107675500D01*
X136714772Y-107675500D01*
X136839069Y-107639004D01*
X136948049Y-107568967D01*
X137032882Y-107471063D01*
X137086697Y-107353226D01*
X137105133Y-107225000D01*
X137086697Y-107096774D01*
X137042030Y-106998967D01*
X137036565Y-106987001D01*
X137036564Y-106986999D01*
X137032882Y-106978937D01*
X136948049Y-106881033D01*
X136940589Y-106876238D01*
X136940587Y-106876237D01*
X136878340Y-106836234D01*
X136839069Y-106810996D01*
X136797403Y-106798762D01*
X136723284Y-106776999D01*
X136723282Y-106776998D01*
X136714772Y-106774500D01*
X136585228Y-106774500D01*
X136576718Y-106776998D01*
X136576715Y-106776999D01*
X136469444Y-106808496D01*
X136469441Y-106808497D01*
X136460931Y-106810996D01*
X136453468Y-106815791D01*
X136453468Y-106815792D01*
X136392039Y-106855270D01*
X136325000Y-106874954D01*
X136257961Y-106855270D01*
X136228340Y-106836234D01*
X136189069Y-106810996D01*
X136147403Y-106798762D01*
X136073284Y-106776999D01*
X136073282Y-106776998D01*
X136064772Y-106774500D01*
X135935228Y-106774500D01*
X135926718Y-106776998D01*
X135926715Y-106776999D01*
X135819444Y-106808496D01*
X135819441Y-106808497D01*
X135810931Y-106810996D01*
X135803468Y-106815791D01*
X135803468Y-106815792D01*
X135709412Y-106876237D01*
X135709406Y-106876241D01*
X135701951Y-106881033D01*
X135696146Y-106887732D01*
X135696143Y-106887735D01*
X135622922Y-106972237D01*
X135622917Y-106972243D01*
X135617118Y-106978937D01*
X135613438Y-106986994D01*
X135613434Y-106987001D01*
X135566988Y-107088704D01*
X135563303Y-107096774D01*
X135562041Y-107105547D01*
X135562040Y-107105553D01*
X135547369Y-107207593D01*
X135544867Y-107225000D01*
X124342915Y-107225000D01*
X124109999Y-107012930D01*
X124107630Y-107010717D01*
X123736897Y-106655000D01*
X130214867Y-106655000D01*
X130216129Y-106663777D01*
X130232040Y-106774446D01*
X130232041Y-106774450D01*
X130233303Y-106783226D01*
X130236987Y-106791294D01*
X130236988Y-106791295D01*
X130283434Y-106892998D01*
X130283436Y-106893002D01*
X130287118Y-106901063D01*
X130292920Y-106907759D01*
X130292922Y-106907762D01*
X130307859Y-106925000D01*
X130371951Y-106998967D01*
X130480931Y-107069004D01*
X130605228Y-107105500D01*
X130725901Y-107105500D01*
X130734772Y-107105500D01*
X130859069Y-107069004D01*
X130968049Y-106998967D01*
X131052882Y-106901063D01*
X131106697Y-106783226D01*
X131125133Y-106655000D01*
X131106697Y-106526774D01*
X131052882Y-106408937D01*
X130968049Y-106311033D01*
X130960589Y-106306238D01*
X130960587Y-106306237D01*
X130913558Y-106276014D01*
X130859069Y-106240996D01*
X130801934Y-106224220D01*
X130743284Y-106206999D01*
X130743282Y-106206998D01*
X130734772Y-106204500D01*
X130605228Y-106204500D01*
X130596718Y-106206998D01*
X130596715Y-106206999D01*
X130489444Y-106238496D01*
X130489441Y-106238497D01*
X130480931Y-106240996D01*
X130473468Y-106245791D01*
X130473468Y-106245792D01*
X130379412Y-106306237D01*
X130379406Y-106306241D01*
X130371951Y-106311033D01*
X130366146Y-106317732D01*
X130366143Y-106317735D01*
X130292922Y-106402237D01*
X130292917Y-106402243D01*
X130287118Y-106408937D01*
X130283438Y-106416994D01*
X130283434Y-106417001D01*
X130236988Y-106518704D01*
X130233303Y-106526774D01*
X130232041Y-106535547D01*
X130232040Y-106535553D01*
X130225905Y-106578226D01*
X130214867Y-106655000D01*
X123736897Y-106655000D01*
X123731906Y-106650211D01*
X123730533Y-106648872D01*
X123426546Y-106348031D01*
X123424295Y-106345746D01*
X123064020Y-105970263D01*
X123062744Y-105968910D01*
X122771198Y-105655322D01*
X122769067Y-105652970D01*
X122424904Y-105263243D01*
X122423602Y-105261745D01*
X122207319Y-105008777D01*
X122145160Y-104936075D01*
X122143211Y-104933736D01*
X121815544Y-104530239D01*
X121814327Y-104528715D01*
X121750304Y-104447198D01*
X121667789Y-104342136D01*
X124602281Y-104342136D01*
X124602878Y-104348197D01*
X124621966Y-104542005D01*
X124621967Y-104542011D01*
X124622564Y-104548070D01*
X124624331Y-104553895D01*
X124624332Y-104553900D01*
X124659873Y-104671063D01*
X124682632Y-104746090D01*
X124685502Y-104751459D01*
X124685504Y-104751464D01*
X124777308Y-104923215D01*
X124780179Y-104928586D01*
X124911454Y-105088546D01*
X125071414Y-105219821D01*
X125253910Y-105317368D01*
X125451930Y-105377436D01*
X125657864Y-105397719D01*
X125863798Y-105377436D01*
X126061818Y-105317368D01*
X126244314Y-105219821D01*
X126404274Y-105088546D01*
X126476941Y-105000000D01*
X136844867Y-105000000D01*
X136846129Y-105008777D01*
X136862040Y-105119446D01*
X136862041Y-105119450D01*
X136863303Y-105128226D01*
X136866987Y-105136294D01*
X136866988Y-105136295D01*
X136913434Y-105237998D01*
X136913436Y-105238002D01*
X136917118Y-105246063D01*
X136922920Y-105252759D01*
X136922922Y-105252762D01*
X136976414Y-105314495D01*
X137001951Y-105343967D01*
X137110931Y-105414004D01*
X137235228Y-105450500D01*
X137355901Y-105450500D01*
X137364772Y-105450500D01*
X137489069Y-105414004D01*
X137598049Y-105343967D01*
X137682882Y-105246063D01*
X137736697Y-105128226D01*
X137755133Y-105000000D01*
X137736697Y-104871774D01*
X137682882Y-104753937D01*
X137674065Y-104743762D01*
X137603856Y-104662735D01*
X137598049Y-104656033D01*
X137590589Y-104651238D01*
X137590587Y-104651237D01*
X137543559Y-104621014D01*
X137489069Y-104585996D01*
X137480555Y-104583496D01*
X137373284Y-104551999D01*
X137373282Y-104551998D01*
X137364772Y-104549500D01*
X137235228Y-104549500D01*
X137226718Y-104551998D01*
X137226715Y-104551999D01*
X137119444Y-104583496D01*
X137119441Y-104583497D01*
X137110931Y-104585996D01*
X137103468Y-104590791D01*
X137103468Y-104590792D01*
X137009412Y-104651237D01*
X137009406Y-104651241D01*
X137001951Y-104656033D01*
X136996146Y-104662732D01*
X136996143Y-104662735D01*
X136922922Y-104747237D01*
X136922917Y-104747243D01*
X136917118Y-104753937D01*
X136913438Y-104761994D01*
X136913434Y-104762001D01*
X136877127Y-104841503D01*
X136863303Y-104871774D01*
X136862041Y-104880547D01*
X136862040Y-104880553D01*
X136854458Y-104933293D01*
X136844867Y-105000000D01*
X126476941Y-105000000D01*
X126535549Y-104928586D01*
X126633096Y-104746090D01*
X126693164Y-104548070D01*
X126705285Y-104425000D01*
X132469867Y-104425000D01*
X132471129Y-104433777D01*
X132487040Y-104544446D01*
X132487041Y-104544450D01*
X132488303Y-104553226D01*
X132491987Y-104561294D01*
X132491988Y-104561295D01*
X132538434Y-104662998D01*
X132538436Y-104663002D01*
X132542118Y-104671063D01*
X132547920Y-104677759D01*
X132547922Y-104677762D01*
X132602075Y-104740258D01*
X132626951Y-104768967D01*
X132735931Y-104839004D01*
X132860228Y-104875500D01*
X132980901Y-104875500D01*
X132989772Y-104875500D01*
X133114069Y-104839004D01*
X133223049Y-104768967D01*
X133307882Y-104671063D01*
X133361697Y-104553226D01*
X133380133Y-104425000D01*
X133361697Y-104296774D01*
X133313616Y-104191493D01*
X133311565Y-104187001D01*
X133311564Y-104186999D01*
X133307882Y-104178937D01*
X133270852Y-104136202D01*
X133228856Y-104087735D01*
X133223049Y-104081033D01*
X133215589Y-104076238D01*
X133215587Y-104076237D01*
X133168558Y-104046014D01*
X133114069Y-104010996D01*
X133105555Y-104008496D01*
X132998284Y-103976999D01*
X132998282Y-103976998D01*
X132989772Y-103974500D01*
X132860228Y-103974500D01*
X132851718Y-103976998D01*
X132851715Y-103976999D01*
X132744444Y-104008496D01*
X132744441Y-104008497D01*
X132735931Y-104010996D01*
X132728468Y-104015791D01*
X132728468Y-104015792D01*
X132634412Y-104076237D01*
X132634406Y-104076241D01*
X132626951Y-104081033D01*
X132621146Y-104087732D01*
X132621143Y-104087735D01*
X132547922Y-104172237D01*
X132547917Y-104172243D01*
X132542118Y-104178937D01*
X132538438Y-104186994D01*
X132538434Y-104187001D01*
X132491988Y-104288704D01*
X132488303Y-104296774D01*
X132487041Y-104305547D01*
X132487040Y-104305553D01*
X132480140Y-104353547D01*
X132469867Y-104425000D01*
X126705285Y-104425000D01*
X126713447Y-104342136D01*
X126693164Y-104136202D01*
X126633096Y-103938182D01*
X126535549Y-103755686D01*
X126404274Y-103595726D01*
X126244314Y-103464451D01*
X126161935Y-103420418D01*
X126067192Y-103369776D01*
X126067187Y-103369774D01*
X126061818Y-103366904D01*
X126025220Y-103355802D01*
X125869628Y-103308604D01*
X125869623Y-103308603D01*
X125863798Y-103306836D01*
X125857739Y-103306239D01*
X125857733Y-103306238D01*
X125663925Y-103287150D01*
X125657864Y-103286553D01*
X125651803Y-103287150D01*
X125457994Y-103306238D01*
X125457986Y-103306239D01*
X125451930Y-103306836D01*
X125446106Y-103308602D01*
X125446099Y-103308604D01*
X125259741Y-103365135D01*
X125259739Y-103365135D01*
X125253910Y-103366904D01*
X125248543Y-103369772D01*
X125248535Y-103369776D01*
X125076784Y-103461580D01*
X125076779Y-103461583D01*
X125071414Y-103464451D01*
X125066710Y-103468310D01*
X125066706Y-103468314D01*
X124916160Y-103591863D01*
X124916154Y-103591868D01*
X124911454Y-103595726D01*
X124907596Y-103600426D01*
X124907591Y-103600432D01*
X124784042Y-103750978D01*
X124784038Y-103750982D01*
X124780179Y-103755686D01*
X124777311Y-103761051D01*
X124777308Y-103761056D01*
X124685504Y-103932807D01*
X124685500Y-103932815D01*
X124682632Y-103938182D01*
X124680863Y-103944011D01*
X124680863Y-103944013D01*
X124624332Y-104130371D01*
X124624330Y-104130378D01*
X124622564Y-104136202D01*
X124621967Y-104142258D01*
X124621966Y-104142266D01*
X124617357Y-104189067D01*
X124602281Y-104342136D01*
X121667789Y-104342136D01*
X121549476Y-104191493D01*
X121547689Y-104189159D01*
X121237046Y-103772559D01*
X121235912Y-103771010D01*
X120985225Y-103422933D01*
X120983506Y-103420484D01*
X120690535Y-102991681D01*
X120689389Y-102989973D01*
X120453310Y-102631634D01*
X120451670Y-102629077D01*
X120376722Y-102509012D01*
X120176791Y-102188728D01*
X120175736Y-102187006D01*
X119954599Y-101818877D01*
X119953118Y-101816341D01*
X119924377Y-101765758D01*
X119908191Y-101703859D01*
X119925016Y-101642130D01*
X119970374Y-101597006D01*
X120032189Y-101580500D01*
X121160167Y-101580500D01*
X121211994Y-101591850D01*
X121254333Y-101623823D01*
X121279433Y-101670566D01*
X121279905Y-101672225D01*
X121280965Y-101683660D01*
X121286083Y-101693940D01*
X121286766Y-101696339D01*
X121286824Y-101696585D01*
X121286935Y-101696837D01*
X121287827Y-101699140D01*
X121289939Y-101710433D01*
X121295985Y-101720198D01*
X121295986Y-101720200D01*
X121309179Y-101741507D01*
X121314745Y-101751500D01*
X121331042Y-101784228D01*
X121339533Y-101791968D01*
X121341015Y-101793931D01*
X121341171Y-101794159D01*
X121341364Y-101794352D01*
X121343030Y-101796179D01*
X121349081Y-101805952D01*
X121358253Y-101812878D01*
X121358254Y-101812879D01*
X121378248Y-101827978D01*
X121387049Y-101835285D01*
X121414067Y-101859916D01*
X121424786Y-101864068D01*
X121426880Y-101865365D01*
X121427112Y-101865524D01*
X121427361Y-101865634D01*
X121429568Y-101866733D01*
X121438736Y-101873656D01*
X121467048Y-101881711D01*
X121473887Y-101883657D01*
X121484750Y-101887298D01*
X121508109Y-101896348D01*
X121508110Y-101896348D01*
X121518827Y-101900500D01*
X121530321Y-101900500D01*
X121532739Y-101900952D01*
X121533014Y-101901016D01*
X121533280Y-101901029D01*
X121535743Y-101901257D01*
X121546793Y-101904401D01*
X121583183Y-101901028D01*
X121594624Y-101900500D01*
X126094669Y-101900500D01*
X126142122Y-101909939D01*
X126182350Y-101936819D01*
X126259596Y-102014065D01*
X126269427Y-102018649D01*
X126269428Y-102018650D01*
X126298310Y-102032118D01*
X126335478Y-102058751D01*
X126353875Y-102086944D01*
X126354034Y-102087741D01*
X126366577Y-102106513D01*
X126366578Y-102106514D01*
X126366578Y-102106516D01*
X126402612Y-102160445D01*
X126402615Y-102160448D01*
X126409399Y-102170601D01*
X126419551Y-102177384D01*
X126419553Y-102177386D01*
X126420165Y-102177795D01*
X126438957Y-102193217D01*
X126896783Y-102651043D01*
X126912204Y-102669833D01*
X126919399Y-102680601D01*
X127002259Y-102735965D01*
X127002260Y-102735966D01*
X127100000Y-102755408D01*
X127111980Y-102753025D01*
X127112694Y-102752883D01*
X127136885Y-102750500D01*
X127329833Y-102750500D01*
X127381345Y-102761706D01*
X127423546Y-102793297D01*
X127467451Y-102843967D01*
X127576431Y-102914004D01*
X127700728Y-102950500D01*
X127821401Y-102950500D01*
X127830272Y-102950500D01*
X127954569Y-102914004D01*
X127984892Y-102894516D01*
X128037206Y-102875709D01*
X128092485Y-102881652D01*
X128139611Y-102911151D01*
X128156684Y-102928224D01*
X128265513Y-102978972D01*
X128315099Y-102985500D01*
X128674900Y-102985499D01*
X128724487Y-102978972D01*
X128833316Y-102928224D01*
X128887319Y-102874220D01*
X128942906Y-102842127D01*
X129007094Y-102842127D01*
X129062681Y-102874221D01*
X129116684Y-102928224D01*
X129225513Y-102978972D01*
X129275099Y-102985500D01*
X129634900Y-102985499D01*
X129684487Y-102978972D01*
X129793316Y-102928224D01*
X129878224Y-102843316D01*
X129928972Y-102734487D01*
X129935500Y-102684901D01*
X129935499Y-102408776D01*
X136354599Y-102408776D01*
X136355861Y-102417553D01*
X136371772Y-102528222D01*
X136371773Y-102528226D01*
X136373035Y-102537002D01*
X136376719Y-102545070D01*
X136376720Y-102545071D01*
X136423166Y-102646774D01*
X136423168Y-102646778D01*
X136426850Y-102654839D01*
X136432652Y-102661535D01*
X136432654Y-102661538D01*
X136487715Y-102725082D01*
X136511683Y-102752743D01*
X136620663Y-102822780D01*
X136744960Y-102859276D01*
X136865633Y-102859276D01*
X136874504Y-102859276D01*
X136998801Y-102822780D01*
X137107781Y-102752743D01*
X137192614Y-102654839D01*
X137246429Y-102537002D01*
X137264865Y-102408776D01*
X137246429Y-102280550D01*
X137206545Y-102193217D01*
X137196297Y-102170777D01*
X137196296Y-102170775D01*
X137192614Y-102162713D01*
X137185864Y-102154923D01*
X137126139Y-102085996D01*
X137107781Y-102064809D01*
X137100321Y-102060014D01*
X137100319Y-102060013D01*
X137047881Y-102026314D01*
X136998801Y-101994772D01*
X136990287Y-101992272D01*
X136883016Y-101960775D01*
X136883014Y-101960774D01*
X136874504Y-101958276D01*
X136744960Y-101958276D01*
X136736450Y-101960774D01*
X136736447Y-101960775D01*
X136629176Y-101992272D01*
X136629173Y-101992273D01*
X136620663Y-101994772D01*
X136613200Y-101999567D01*
X136613200Y-101999568D01*
X136519144Y-102060013D01*
X136519138Y-102060017D01*
X136511683Y-102064809D01*
X136505878Y-102071508D01*
X136505875Y-102071511D01*
X136432654Y-102156013D01*
X136432649Y-102156019D01*
X136426850Y-102162713D01*
X136423170Y-102170770D01*
X136423166Y-102170777D01*
X136378237Y-102269159D01*
X136373035Y-102280550D01*
X136371773Y-102289323D01*
X136371772Y-102289329D01*
X136361839Y-102358421D01*
X136354599Y-102408776D01*
X129935499Y-102408776D01*
X129935499Y-102265100D01*
X129928972Y-102215513D01*
X129900717Y-102154921D01*
X129889270Y-102096029D01*
X129906811Y-102038654D01*
X129949235Y-101996229D01*
X130006610Y-101978688D01*
X130065505Y-101990136D01*
X130116827Y-102014068D01*
X130165684Y-102020500D01*
X130510263Y-102020500D01*
X130514316Y-102020500D01*
X130563173Y-102014068D01*
X130670404Y-101964065D01*
X130754065Y-101880404D01*
X130804068Y-101773173D01*
X130810500Y-101724316D01*
X130810500Y-101450000D01*
X135544867Y-101450000D01*
X135546129Y-101458777D01*
X135562040Y-101569446D01*
X135562041Y-101569450D01*
X135563303Y-101578226D01*
X135566987Y-101586294D01*
X135566988Y-101586295D01*
X135613434Y-101687998D01*
X135613436Y-101688002D01*
X135617118Y-101696063D01*
X135622920Y-101702759D01*
X135622922Y-101702762D01*
X135663261Y-101749316D01*
X135701951Y-101793967D01*
X135810931Y-101864004D01*
X135935228Y-101900500D01*
X136055901Y-101900500D01*
X136064772Y-101900500D01*
X136189069Y-101864004D01*
X136298049Y-101793967D01*
X136382882Y-101696063D01*
X136436697Y-101578226D01*
X136455133Y-101450000D01*
X136436697Y-101321774D01*
X136393336Y-101226827D01*
X136386565Y-101212001D01*
X136386564Y-101211999D01*
X136382882Y-101203937D01*
X136367259Y-101185907D01*
X136303856Y-101112735D01*
X136298049Y-101106033D01*
X136290589Y-101101238D01*
X136290587Y-101101237D01*
X136221898Y-101057094D01*
X136189069Y-101035996D01*
X136168270Y-101029889D01*
X136073284Y-101001999D01*
X136073282Y-101001998D01*
X136064772Y-100999500D01*
X135935228Y-100999500D01*
X135926718Y-101001998D01*
X135926715Y-101001999D01*
X135819444Y-101033496D01*
X135819441Y-101033497D01*
X135810931Y-101035996D01*
X135803468Y-101040791D01*
X135803468Y-101040792D01*
X135709412Y-101101237D01*
X135709406Y-101101241D01*
X135701951Y-101106033D01*
X135696146Y-101112732D01*
X135696143Y-101112735D01*
X135622922Y-101197237D01*
X135622917Y-101197243D01*
X135617118Y-101203937D01*
X135613438Y-101211994D01*
X135613434Y-101212001D01*
X135573475Y-101299500D01*
X135563303Y-101321774D01*
X135562041Y-101330547D01*
X135562040Y-101330553D01*
X135551988Y-101400471D01*
X135544867Y-101450000D01*
X130810500Y-101450000D01*
X130810500Y-101275684D01*
X130804068Y-101226827D01*
X130775729Y-101166055D01*
X130758649Y-101129426D01*
X130758648Y-101129425D01*
X130754065Y-101119596D01*
X130746394Y-101111925D01*
X130740172Y-101103039D01*
X130741176Y-101102335D01*
X130715056Y-101057094D01*
X130715056Y-100992906D01*
X130741176Y-100947664D01*
X130740172Y-100946961D01*
X130746394Y-100938074D01*
X130754065Y-100930404D01*
X130804068Y-100823173D01*
X130810500Y-100774316D01*
X130810500Y-100325684D01*
X130804068Y-100276827D01*
X130773131Y-100210482D01*
X130758649Y-100179426D01*
X130758648Y-100179425D01*
X130754065Y-100169596D01*
X130676819Y-100092350D01*
X130649939Y-100052122D01*
X130640500Y-100004669D01*
X130640500Y-99793300D01*
X130659919Y-99726675D01*
X130712094Y-99680918D01*
X130780404Y-99649065D01*
X130864065Y-99565404D01*
X130914068Y-99458173D01*
X130920500Y-99409316D01*
X130920500Y-99060684D01*
X130914068Y-99011827D01*
X130898089Y-98977560D01*
X130886471Y-98925140D01*
X130898104Y-98872719D01*
X130930809Y-98830131D01*
X130971800Y-98808819D01*
X130971365Y-98807537D01*
X130975216Y-98806229D01*
X130979129Y-98805181D01*
X131040750Y-98779656D01*
X131093666Y-98739053D01*
X131139053Y-98693666D01*
X131179656Y-98640750D01*
X131205181Y-98579129D01*
X131221794Y-98517129D01*
X131230500Y-98451000D01*
X131230500Y-95907194D01*
X131239939Y-95859741D01*
X131266819Y-95819513D01*
X131901913Y-95184419D01*
X132594347Y-94491985D01*
X132626120Y-94453269D01*
X132653000Y-94413041D01*
X132676612Y-94368868D01*
X132691152Y-94320937D01*
X132700591Y-94273484D01*
X132705500Y-94223638D01*
X132705500Y-93841302D01*
X137849500Y-93841302D01*
X137849501Y-93844864D01*
X137849912Y-93848411D01*
X137849913Y-93848422D01*
X137850134Y-93850326D01*
X137852415Y-93869991D01*
X137897794Y-93972765D01*
X137977235Y-94052206D01*
X138034623Y-94077545D01*
X138071477Y-94093818D01*
X138071478Y-94093818D01*
X138080009Y-94097585D01*
X138105135Y-94100500D01*
X138394864Y-94100499D01*
X138419991Y-94097585D01*
X138522765Y-94052206D01*
X138602206Y-93972765D01*
X138647585Y-93869991D01*
X138650500Y-93844865D01*
X138650499Y-92480136D01*
X138647585Y-92455009D01*
X138602206Y-92352235D01*
X138522765Y-92272794D01*
X138505245Y-92265058D01*
X138428522Y-92231181D01*
X138428517Y-92231179D01*
X138419991Y-92227415D01*
X138410726Y-92226340D01*
X138398414Y-92224911D01*
X138398401Y-92224910D01*
X138394865Y-92224500D01*
X138391290Y-92224500D01*
X138108714Y-92224500D01*
X138108696Y-92224500D01*
X138105136Y-92224501D01*
X138101589Y-92224912D01*
X138101577Y-92224913D01*
X138089277Y-92226340D01*
X138089275Y-92226340D01*
X138080009Y-92227415D01*
X138071479Y-92231180D01*
X138071476Y-92231182D01*
X137987745Y-92268153D01*
X137987743Y-92268154D01*
X137977235Y-92272794D01*
X137969112Y-92280916D01*
X137969109Y-92280919D01*
X137905919Y-92344109D01*
X137905916Y-92344112D01*
X137897794Y-92352235D01*
X137893154Y-92362743D01*
X137893153Y-92362745D01*
X137856181Y-92446477D01*
X137856179Y-92446484D01*
X137852415Y-92455009D01*
X137851340Y-92464271D01*
X137851340Y-92464273D01*
X137849911Y-92476585D01*
X137849910Y-92476599D01*
X137849500Y-92480135D01*
X137849500Y-92483708D01*
X137849500Y-92483709D01*
X137849500Y-93841285D01*
X137849500Y-93841302D01*
X132705500Y-93841302D01*
X132705500Y-92799000D01*
X132696794Y-92732871D01*
X132680181Y-92670871D01*
X132674061Y-92656098D01*
X132664937Y-92617487D01*
X132664756Y-92614963D01*
X132650578Y-92416706D01*
X132591271Y-92144077D01*
X132493769Y-91882663D01*
X132360056Y-91637787D01*
X132192855Y-91414432D01*
X131995568Y-91217145D01*
X131772213Y-91049944D01*
X131681663Y-91000500D01*
X131531223Y-90918353D01*
X131527337Y-90916231D01*
X131523194Y-90914685D01*
X131523188Y-90914683D01*
X131270076Y-90820278D01*
X131265923Y-90818729D01*
X131261591Y-90817786D01*
X131261589Y-90817786D01*
X130997627Y-90760364D01*
X130997619Y-90760362D01*
X130993294Y-90759422D01*
X130988880Y-90759106D01*
X130988871Y-90759105D01*
X130719418Y-90739834D01*
X130715000Y-90739518D01*
X130710582Y-90739834D01*
X130441128Y-90759105D01*
X130441117Y-90759106D01*
X130436706Y-90759422D01*
X130432382Y-90760362D01*
X130432372Y-90760364D01*
X130168410Y-90817786D01*
X130168404Y-90817787D01*
X130164077Y-90818729D01*
X130159927Y-90820276D01*
X130159923Y-90820278D01*
X129906811Y-90914683D01*
X129906800Y-90914687D01*
X129902663Y-90916231D01*
X129898781Y-90918350D01*
X129898776Y-90918353D01*
X129661681Y-91047817D01*
X129661673Y-91047821D01*
X129657787Y-91049944D01*
X129654237Y-91052601D01*
X129654233Y-91052604D01*
X129437983Y-91214486D01*
X129437976Y-91214491D01*
X129434432Y-91217145D01*
X129431301Y-91220275D01*
X129431294Y-91220282D01*
X129240282Y-91411294D01*
X129240275Y-91411301D01*
X129237145Y-91414432D01*
X129234491Y-91417976D01*
X129234486Y-91417983D01*
X129072604Y-91634233D01*
X129069944Y-91637787D01*
X129067821Y-91641673D01*
X129067817Y-91641681D01*
X128953888Y-91850326D01*
X128936231Y-91882663D01*
X128934687Y-91886800D01*
X128934683Y-91886811D01*
X128845845Y-92124997D01*
X128838729Y-92144077D01*
X128837786Y-92148408D01*
X128837786Y-92148411D01*
X128825666Y-92204126D01*
X128799172Y-92257850D01*
X128750586Y-92292886D01*
X128691245Y-92301058D01*
X128634997Y-92280458D01*
X128594968Y-92235896D01*
X128580500Y-92177768D01*
X128580500Y-89703053D01*
X128580500Y-89699000D01*
X128571794Y-89632871D01*
X128555181Y-89570871D01*
X128554079Y-89568212D01*
X128550189Y-89553689D01*
X128547167Y-89538496D01*
X128538867Y-89496769D01*
X128494552Y-89430448D01*
X128428231Y-89386133D01*
X128416258Y-89383751D01*
X128408167Y-89380399D01*
X128396096Y-89374446D01*
X128390750Y-89370344D01*
X128377996Y-89365061D01*
X128332867Y-89346367D01*
X128332861Y-89346365D01*
X128329129Y-89344819D01*
X128325223Y-89343772D01*
X128325219Y-89343771D01*
X128271047Y-89329255D01*
X128271034Y-89329252D01*
X128267129Y-89328206D01*
X128241106Y-89324780D01*
X128205020Y-89320029D01*
X128205016Y-89320028D01*
X128201000Y-89319500D01*
X127299000Y-89319500D01*
X127294984Y-89320028D01*
X127294979Y-89320029D01*
X127236896Y-89327676D01*
X127236894Y-89327676D01*
X127232871Y-89328206D01*
X127228967Y-89329251D01*
X127228952Y-89329255D01*
X127174780Y-89343771D01*
X127174771Y-89343773D01*
X127170871Y-89344819D01*
X127167142Y-89346363D01*
X127167132Y-89346367D01*
X127122004Y-89365061D01*
X127074550Y-89374500D01*
X126830252Y-89374500D01*
X126824277Y-89375688D01*
X126824271Y-89375689D01*
X126783747Y-89383750D01*
X126783745Y-89383750D01*
X126771769Y-89386133D01*
X126761618Y-89392915D01*
X126761615Y-89392917D01*
X126715601Y-89423663D01*
X126715598Y-89423665D01*
X126705448Y-89430448D01*
X126698665Y-89440598D01*
X126698663Y-89440601D01*
X126667917Y-89486615D01*
X126667915Y-89486618D01*
X126661133Y-89496769D01*
X126658750Y-89508745D01*
X126658750Y-89508747D01*
X126650689Y-89549271D01*
X126650688Y-89549277D01*
X126649500Y-89555252D01*
X126649500Y-91794748D01*
X126661133Y-91853231D01*
X126705448Y-91919552D01*
X126771769Y-91963867D01*
X126819696Y-91973400D01*
X126870986Y-91996640D01*
X126906712Y-92040172D01*
X126919500Y-92095016D01*
X126919500Y-95042814D01*
X126919503Y-95043077D01*
X126919504Y-95043167D01*
X126919586Y-95049253D01*
X126919592Y-95049665D01*
X126919603Y-95050079D01*
X126919604Y-95050122D01*
X126919725Y-95054632D01*
X126919759Y-95055891D01*
X126919842Y-95057138D01*
X126919863Y-95057572D01*
X126919999Y-95063377D01*
X126919999Y-96441777D01*
X126919999Y-96441787D01*
X126920000Y-96447873D01*
X126924485Y-96470421D01*
X126925248Y-96487321D01*
X126924075Y-96487506D01*
X126925733Y-96498069D01*
X126925734Y-96498077D01*
X126930720Y-96529830D01*
X126930722Y-96529842D01*
X126931225Y-96533042D01*
X126932062Y-96536180D01*
X126932063Y-96536184D01*
X126932220Y-96536774D01*
X126945022Y-96584762D01*
X126947973Y-96590564D01*
X126947975Y-96590568D01*
X126967818Y-96629575D01*
X126969292Y-96632472D01*
X126971061Y-96635199D01*
X126971063Y-96635202D01*
X126985900Y-96658071D01*
X126997414Y-96675817D01*
X127031088Y-96717420D01*
X127033395Y-96719727D01*
X127033396Y-96719728D01*
X127583181Y-97269513D01*
X127610061Y-97309741D01*
X127619500Y-97357194D01*
X127619500Y-98376000D01*
X127628206Y-98442129D01*
X127629252Y-98446034D01*
X127629255Y-98446047D01*
X127637352Y-98476263D01*
X127644819Y-98504129D01*
X127645874Y-98506678D01*
X127649199Y-98574386D01*
X127616120Y-98633907D01*
X127436845Y-98813183D01*
X127396620Y-98840061D01*
X127349167Y-98849500D01*
X126323035Y-98849500D01*
X126270630Y-98837882D01*
X126254799Y-98830500D01*
X126234487Y-98821028D01*
X126225087Y-98819790D01*
X126225082Y-98819789D01*
X126188921Y-98815029D01*
X126188917Y-98815028D01*
X126184901Y-98814500D01*
X126180847Y-98814500D01*
X125769159Y-98814500D01*
X125769143Y-98814500D01*
X125765100Y-98814501D01*
X125761084Y-98815029D01*
X125761078Y-98815030D01*
X125724917Y-98819790D01*
X125724915Y-98819790D01*
X125715513Y-98821028D01*
X125706916Y-98825036D01*
X125706915Y-98825037D01*
X125621346Y-98864939D01*
X125606684Y-98871776D01*
X125599016Y-98879443D01*
X125599013Y-98879446D01*
X125529446Y-98949013D01*
X125529443Y-98949016D01*
X125521776Y-98956684D01*
X125517192Y-98966513D01*
X125517192Y-98966514D01*
X125475036Y-99056916D01*
X125475034Y-99056920D01*
X125471028Y-99065513D01*
X125469790Y-99074910D01*
X125469789Y-99074917D01*
X125465029Y-99111078D01*
X125464500Y-99115099D01*
X125464500Y-99119151D01*
X125464500Y-99119152D01*
X125464500Y-99470840D01*
X125464500Y-99470855D01*
X125464501Y-99474900D01*
X125465029Y-99478916D01*
X125465030Y-99478921D01*
X125469401Y-99512130D01*
X125471028Y-99524487D01*
X125521776Y-99633316D01*
X125529445Y-99640985D01*
X125529446Y-99640986D01*
X125575779Y-99687319D01*
X125607873Y-99742906D01*
X125607873Y-99807094D01*
X125575779Y-99862681D01*
X125529446Y-99909013D01*
X125529443Y-99909016D01*
X125521776Y-99916684D01*
X125517192Y-99926513D01*
X125517192Y-99926514D01*
X125475036Y-100016916D01*
X125475034Y-100016920D01*
X125471028Y-100025513D01*
X125469790Y-100034910D01*
X125469789Y-100034917D01*
X125465029Y-100071078D01*
X125464500Y-100075099D01*
X125464500Y-100079151D01*
X125464500Y-100079152D01*
X125464500Y-100430840D01*
X125464500Y-100430855D01*
X125464501Y-100434900D01*
X125471028Y-100484487D01*
X125521776Y-100593316D01*
X125606684Y-100678224D01*
X125715513Y-100728972D01*
X125765099Y-100735500D01*
X126184900Y-100735499D01*
X126234487Y-100728972D01*
X126343316Y-100678224D01*
X126428224Y-100593316D01*
X126430246Y-100595338D01*
X126459691Y-100569513D01*
X126516953Y-100555500D01*
X126602286Y-100555500D01*
X126659037Y-100569249D01*
X126703203Y-100607446D01*
X126724989Y-100661621D01*
X126734427Y-100726393D01*
X126738654Y-100735041D01*
X126738656Y-100735045D01*
X126781289Y-100822253D01*
X126781291Y-100822256D01*
X126785802Y-100831483D01*
X126790137Y-100835818D01*
X126812041Y-100896536D01*
X126798617Y-100962250D01*
X126752937Y-101011361D01*
X126688365Y-101029500D01*
X126415684Y-101029500D01*
X126411668Y-101030028D01*
X126411663Y-101030029D01*
X126376231Y-101034693D01*
X126376224Y-101034694D01*
X126366827Y-101035932D01*
X126358235Y-101039938D01*
X126358230Y-101039940D01*
X126269426Y-101081350D01*
X126269421Y-101081353D01*
X126259596Y-101085935D01*
X126251928Y-101093602D01*
X126251925Y-101093605D01*
X126183605Y-101161925D01*
X126183602Y-101161928D01*
X126175935Y-101169596D01*
X126171351Y-101179425D01*
X126171351Y-101179426D01*
X126168329Y-101185907D01*
X126153257Y-101218230D01*
X126148745Y-101227905D01*
X126102988Y-101280081D01*
X126036363Y-101299500D01*
X122754500Y-101299500D01*
X122692500Y-101282887D01*
X122647113Y-101237500D01*
X122630500Y-101175500D01*
X122630500Y-89453053D01*
X122630500Y-89449000D01*
X122621794Y-89382871D01*
X122605181Y-89320871D01*
X122579656Y-89259250D01*
X122572723Y-89250215D01*
X122557071Y-89229816D01*
X122539053Y-89206334D01*
X122493666Y-89160947D01*
X122449181Y-89126813D01*
X122447198Y-89125291D01*
X122447194Y-89125289D01*
X122440750Y-89120344D01*
X122433244Y-89117235D01*
X122433241Y-89117233D01*
X122382867Y-89096367D01*
X122382861Y-89096365D01*
X122379129Y-89094819D01*
X122375223Y-89093772D01*
X122375219Y-89093771D01*
X122321047Y-89079255D01*
X122321034Y-89079252D01*
X122317129Y-89078206D01*
X122306646Y-89076825D01*
X122255020Y-89070029D01*
X122255016Y-89070028D01*
X122251000Y-89069500D01*
X116963262Y-89069500D01*
X116899056Y-89051583D01*
X116853404Y-89003009D01*
X116839500Y-88937816D01*
X116843776Y-88868946D01*
X116865911Y-88512412D01*
X116866090Y-88509960D01*
X116901892Y-88080735D01*
X116902110Y-88078410D01*
X116955535Y-87563280D01*
X116955823Y-87560763D01*
X117009445Y-87133434D01*
X117009745Y-87131222D01*
X117084438Y-86618562D01*
X117084826Y-86616089D01*
X117153845Y-86205252D01*
X117156154Y-86191510D01*
X117156564Y-86189204D01*
X117252373Y-85680098D01*
X117252877Y-85677574D01*
X117341806Y-85256322D01*
X117342281Y-85254176D01*
X117459077Y-84749338D01*
X117459709Y-84746740D01*
X117471770Y-84699441D01*
X117472902Y-84695000D01*
X119809540Y-84695000D01*
X119810849Y-84707456D01*
X119828646Y-84876795D01*
X119828647Y-84876803D01*
X119829326Y-84883256D01*
X119831331Y-84889428D01*
X119831333Y-84889435D01*
X119871445Y-85012884D01*
X119887821Y-85063284D01*
X119891068Y-85068908D01*
X119891069Y-85068910D01*
X119970349Y-85206228D01*
X119982467Y-85227216D01*
X119986811Y-85232041D01*
X119986813Y-85232043D01*
X120104378Y-85362612D01*
X120109129Y-85367888D01*
X120114387Y-85371708D01*
X120114388Y-85371709D01*
X120129198Y-85382469D01*
X120262270Y-85479151D01*
X120435197Y-85556144D01*
X120620354Y-85595500D01*
X120803143Y-85595500D01*
X120809646Y-85595500D01*
X120994803Y-85556144D01*
X121167730Y-85479151D01*
X121320871Y-85367888D01*
X121447533Y-85227216D01*
X121542179Y-85063284D01*
X121600674Y-84883256D01*
X121620460Y-84695000D01*
X121600674Y-84506744D01*
X121542179Y-84326716D01*
X121447533Y-84162784D01*
X121320871Y-84022112D01*
X121315613Y-84018292D01*
X121315611Y-84018290D01*
X121172988Y-83914669D01*
X121172987Y-83914668D01*
X121167730Y-83910849D01*
X121115816Y-83887735D01*
X121000745Y-83836501D01*
X121000740Y-83836499D01*
X120994803Y-83833856D01*
X120988444Y-83832504D01*
X120988440Y-83832503D01*
X120816008Y-83795852D01*
X120816005Y-83795851D01*
X120809646Y-83794500D01*
X120620354Y-83794500D01*
X120613995Y-83795851D01*
X120613991Y-83795852D01*
X120441559Y-83832503D01*
X120441552Y-83832505D01*
X120435197Y-83833856D01*
X120429262Y-83836498D01*
X120429254Y-83836501D01*
X120268207Y-83908205D01*
X120268202Y-83908207D01*
X120262270Y-83910849D01*
X120257016Y-83914665D01*
X120257011Y-83914669D01*
X120114388Y-84018290D01*
X120114381Y-84018295D01*
X120109129Y-84022112D01*
X120104784Y-84026937D01*
X120104779Y-84026942D01*
X119986813Y-84157956D01*
X119986808Y-84157962D01*
X119982467Y-84162784D01*
X119979222Y-84168404D01*
X119979218Y-84168410D01*
X119891069Y-84321089D01*
X119891066Y-84321094D01*
X119887821Y-84326716D01*
X119885815Y-84332888D01*
X119885813Y-84332894D01*
X119831333Y-84500564D01*
X119831331Y-84500573D01*
X119829326Y-84506744D01*
X119828648Y-84513194D01*
X119828646Y-84513204D01*
X119814012Y-84652450D01*
X119809540Y-84695000D01*
X117472902Y-84695000D01*
X117566009Y-84329849D01*
X117566590Y-84327653D01*
X117704162Y-83828022D01*
X117704924Y-83825375D01*
X117707797Y-83815792D01*
X117828495Y-83413191D01*
X117829088Y-83411280D01*
X117987262Y-82917534D01*
X117988062Y-82915132D01*
X118128699Y-82508371D01*
X118129387Y-82506441D01*
X118307831Y-82019652D01*
X118308811Y-82017071D01*
X118466167Y-81616720D01*
X118466908Y-81614885D01*
X118665355Y-81135790D01*
X118666403Y-81133342D01*
X118840239Y-80739965D01*
X118841054Y-80738164D01*
X119059231Y-80267464D01*
X119060409Y-80265000D01*
X119250339Y-79879437D01*
X119251231Y-79877665D01*
X119488728Y-79416276D01*
X119490075Y-79413736D01*
X119588134Y-79233953D01*
X119695774Y-79036603D01*
X119696695Y-79034947D01*
X119953193Y-78583527D01*
X119954602Y-78581116D01*
X120175759Y-78212953D01*
X120176718Y-78211387D01*
X120451727Y-77770831D01*
X120453322Y-77768345D01*
X120566281Y-77596888D01*
X120689400Y-77410007D01*
X120690462Y-77408425D01*
X120983536Y-76979472D01*
X120985200Y-76977099D01*
X121235962Y-76628917D01*
X121236925Y-76627602D01*
X121547761Y-76210744D01*
X121549487Y-76208489D01*
X121667787Y-76057864D01*
X124602281Y-76057864D01*
X124602878Y-76063925D01*
X124621966Y-76257733D01*
X124621967Y-76257739D01*
X124622564Y-76263798D01*
X124682632Y-76461818D01*
X124780179Y-76644314D01*
X124911454Y-76804274D01*
X125071414Y-76935549D01*
X125253910Y-77033096D01*
X125451930Y-77093164D01*
X125657864Y-77113447D01*
X125863798Y-77093164D01*
X126061818Y-77033096D01*
X126244314Y-76935549D01*
X126404274Y-76804274D01*
X126535549Y-76644314D01*
X126633096Y-76461818D01*
X126693164Y-76263798D01*
X126713447Y-76057864D01*
X126693164Y-75851930D01*
X126633096Y-75653910D01*
X126535549Y-75471414D01*
X126404274Y-75311454D01*
X126244314Y-75180179D01*
X126238943Y-75177308D01*
X126067192Y-75085504D01*
X126067187Y-75085502D01*
X126061818Y-75082632D01*
X126025220Y-75071530D01*
X125869628Y-75024332D01*
X125869623Y-75024331D01*
X125863798Y-75022564D01*
X125857739Y-75021967D01*
X125857733Y-75021966D01*
X125663925Y-75002878D01*
X125657864Y-75002281D01*
X125651803Y-75002878D01*
X125457994Y-75021966D01*
X125457986Y-75021967D01*
X125451930Y-75022564D01*
X125446106Y-75024330D01*
X125446099Y-75024332D01*
X125259741Y-75080863D01*
X125259739Y-75080863D01*
X125253910Y-75082632D01*
X125248543Y-75085500D01*
X125248535Y-75085504D01*
X125076784Y-75177308D01*
X125076779Y-75177311D01*
X125071414Y-75180179D01*
X125066710Y-75184038D01*
X125066706Y-75184042D01*
X124916160Y-75307591D01*
X124916154Y-75307596D01*
X124911454Y-75311454D01*
X124907596Y-75316154D01*
X124907591Y-75316160D01*
X124784042Y-75466706D01*
X124784038Y-75466710D01*
X124780179Y-75471414D01*
X124777311Y-75476779D01*
X124777308Y-75476784D01*
X124685504Y-75648535D01*
X124685500Y-75648543D01*
X124682632Y-75653910D01*
X124680863Y-75659739D01*
X124680863Y-75659741D01*
X124624332Y-75846099D01*
X124624330Y-75846106D01*
X124622564Y-75851930D01*
X124621967Y-75857986D01*
X124621966Y-75857994D01*
X124611951Y-75959683D01*
X124602281Y-76057864D01*
X121667787Y-76057864D01*
X121814339Y-75871266D01*
X121815472Y-75869849D01*
X122143232Y-75466237D01*
X122145113Y-75463977D01*
X122423696Y-75138142D01*
X122424704Y-75136981D01*
X122769138Y-74746949D01*
X122771233Y-74744638D01*
X123062853Y-74430970D01*
X123063847Y-74429918D01*
X123068566Y-74425000D01*
X144244867Y-74425000D01*
X144246129Y-74433776D01*
X144246129Y-74433777D01*
X144262040Y-74544446D01*
X144262041Y-74544450D01*
X144263303Y-74553226D01*
X144266987Y-74561294D01*
X144266988Y-74561295D01*
X144313434Y-74662998D01*
X144313436Y-74663002D01*
X144317118Y-74671063D01*
X144322920Y-74677759D01*
X144322922Y-74677762D01*
X144380870Y-74744638D01*
X144401951Y-74768967D01*
X144510931Y-74839004D01*
X144635228Y-74875500D01*
X144644099Y-74875500D01*
X144744878Y-74875500D01*
X144792331Y-74884939D01*
X144832559Y-74911819D01*
X145871785Y-75951046D01*
X145887206Y-75969836D01*
X145894399Y-75980601D01*
X145915316Y-75994577D01*
X145915317Y-75994578D01*
X145977260Y-76035966D01*
X146075000Y-76055409D01*
X146087699Y-76052882D01*
X146111890Y-76050500D01*
X147564333Y-76050500D01*
X147615845Y-76061706D01*
X147658046Y-76093297D01*
X147701951Y-76143967D01*
X147810931Y-76214004D01*
X147935228Y-76250500D01*
X148055901Y-76250500D01*
X148064772Y-76250500D01*
X148189069Y-76214004D01*
X148298049Y-76143967D01*
X148372657Y-76057864D01*
X152886553Y-76057864D01*
X152887150Y-76063925D01*
X152906238Y-76257733D01*
X152906239Y-76257739D01*
X152906836Y-76263798D01*
X152966904Y-76461818D01*
X153064451Y-76644314D01*
X153195726Y-76804274D01*
X153355686Y-76935549D01*
X153538182Y-77033096D01*
X153736202Y-77093164D01*
X153942136Y-77113447D01*
X154148070Y-77093164D01*
X154346090Y-77033096D01*
X154528586Y-76935549D01*
X154688546Y-76804274D01*
X154819821Y-76644314D01*
X154917368Y-76461818D01*
X154977436Y-76263798D01*
X154997719Y-76057864D01*
X154977436Y-75851930D01*
X154917368Y-75653910D01*
X154819821Y-75471414D01*
X154688546Y-75311454D01*
X154528586Y-75180179D01*
X154523215Y-75177308D01*
X154351464Y-75085504D01*
X154351459Y-75085502D01*
X154346090Y-75082632D01*
X154309492Y-75071530D01*
X154153900Y-75024332D01*
X154153895Y-75024331D01*
X154148070Y-75022564D01*
X154142011Y-75021967D01*
X154142005Y-75021966D01*
X153948197Y-75002878D01*
X153942136Y-75002281D01*
X153936075Y-75002878D01*
X153742266Y-75021966D01*
X153742258Y-75021967D01*
X153736202Y-75022564D01*
X153730378Y-75024330D01*
X153730371Y-75024332D01*
X153544013Y-75080863D01*
X153544011Y-75080863D01*
X153538182Y-75082632D01*
X153532815Y-75085500D01*
X153532807Y-75085504D01*
X153361056Y-75177308D01*
X153361051Y-75177311D01*
X153355686Y-75180179D01*
X153350982Y-75184038D01*
X153350978Y-75184042D01*
X153200432Y-75307591D01*
X153200426Y-75307596D01*
X153195726Y-75311454D01*
X153191868Y-75316154D01*
X153191863Y-75316160D01*
X153068314Y-75466706D01*
X153068310Y-75466710D01*
X153064451Y-75471414D01*
X153061583Y-75476779D01*
X153061580Y-75476784D01*
X152969776Y-75648535D01*
X152969772Y-75648543D01*
X152966904Y-75653910D01*
X152965135Y-75659739D01*
X152965135Y-75659741D01*
X152908604Y-75846099D01*
X152908602Y-75846106D01*
X152906836Y-75851930D01*
X152906239Y-75857986D01*
X152906238Y-75857994D01*
X152896223Y-75959683D01*
X152886553Y-76057864D01*
X148372657Y-76057864D01*
X148382882Y-76046063D01*
X148436697Y-75928226D01*
X148455133Y-75800000D01*
X148436697Y-75671774D01*
X148382882Y-75553937D01*
X148369327Y-75538294D01*
X148326913Y-75489345D01*
X148298049Y-75456033D01*
X148290589Y-75451238D01*
X148290587Y-75451237D01*
X148243559Y-75421014D01*
X148189069Y-75385996D01*
X148180555Y-75383496D01*
X148073284Y-75351999D01*
X148073282Y-75351998D01*
X148064772Y-75349500D01*
X147935228Y-75349500D01*
X147926718Y-75351998D01*
X147926715Y-75351999D01*
X147819444Y-75383496D01*
X147819441Y-75383497D01*
X147810931Y-75385996D01*
X147803468Y-75390791D01*
X147803468Y-75390792D01*
X147709412Y-75451237D01*
X147709406Y-75451241D01*
X147701951Y-75456033D01*
X147696146Y-75462732D01*
X147696143Y-75462735D01*
X147658047Y-75506702D01*
X147615845Y-75538294D01*
X147564333Y-75549500D01*
X146230123Y-75549500D01*
X146182670Y-75540061D01*
X146142442Y-75513181D01*
X145186343Y-74557083D01*
X145156369Y-74508560D01*
X145151286Y-74451753D01*
X145153871Y-74433776D01*
X145155133Y-74425000D01*
X145136697Y-74296774D01*
X145082882Y-74178937D01*
X144998049Y-74081033D01*
X144990589Y-74076238D01*
X144990587Y-74076237D01*
X144943558Y-74046014D01*
X144889069Y-74010996D01*
X144880555Y-74008496D01*
X144773284Y-73976999D01*
X144773282Y-73976998D01*
X144764772Y-73974500D01*
X144635228Y-73974500D01*
X144626718Y-73976998D01*
X144626715Y-73976999D01*
X144519444Y-74008496D01*
X144519441Y-74008497D01*
X144510931Y-74010996D01*
X144503468Y-74015791D01*
X144503468Y-74015792D01*
X144409412Y-74076237D01*
X144409406Y-74076241D01*
X144401951Y-74081033D01*
X144396146Y-74087732D01*
X144396143Y-74087735D01*
X144322922Y-74172237D01*
X144322917Y-74172243D01*
X144317118Y-74178937D01*
X144313438Y-74186994D01*
X144313434Y-74187001D01*
X144266988Y-74288704D01*
X144263303Y-74296774D01*
X144262041Y-74305547D01*
X144262040Y-74305553D01*
X144247369Y-74407593D01*
X144244867Y-74425000D01*
X123068566Y-74425000D01*
X123424409Y-74054135D01*
X123426514Y-74051998D01*
X123730663Y-73750996D01*
X123731726Y-73749960D01*
X124091249Y-73405000D01*
X147854867Y-73405000D01*
X147856129Y-73413777D01*
X147872040Y-73524446D01*
X147872041Y-73524450D01*
X147873303Y-73533226D01*
X147876987Y-73541294D01*
X147876988Y-73541295D01*
X147923434Y-73642998D01*
X147923436Y-73643002D01*
X147927118Y-73651063D01*
X147932920Y-73657759D01*
X147932922Y-73657762D01*
X147996638Y-73731294D01*
X148011951Y-73748967D01*
X148120931Y-73819004D01*
X148245228Y-73855500D01*
X148365901Y-73855500D01*
X148374772Y-73855500D01*
X148499069Y-73819004D01*
X148608049Y-73748967D01*
X148692882Y-73651063D01*
X148746697Y-73533226D01*
X148765133Y-73405000D01*
X148746697Y-73276774D01*
X148692882Y-73158937D01*
X148608049Y-73061033D01*
X148600589Y-73056238D01*
X148600587Y-73056237D01*
X148553559Y-73026014D01*
X148499069Y-72990996D01*
X148490555Y-72988496D01*
X148383284Y-72956999D01*
X148383282Y-72956998D01*
X148374772Y-72954500D01*
X148245228Y-72954500D01*
X148236718Y-72956998D01*
X148236715Y-72956999D01*
X148129444Y-72988496D01*
X148129441Y-72988497D01*
X148120931Y-72990996D01*
X148113468Y-72995791D01*
X148113468Y-72995792D01*
X148019412Y-73056237D01*
X148019406Y-73056241D01*
X148011951Y-73061033D01*
X148006146Y-73067732D01*
X148006143Y-73067735D01*
X147932922Y-73152237D01*
X147932917Y-73152243D01*
X147927118Y-73158937D01*
X147923438Y-73166994D01*
X147923434Y-73167001D01*
X147876988Y-73268704D01*
X147873303Y-73276774D01*
X147872041Y-73285547D01*
X147872040Y-73285553D01*
X147857440Y-73387102D01*
X147854867Y-73405000D01*
X124091249Y-73405000D01*
X124107703Y-73389212D01*
X124109961Y-73387102D01*
X124426097Y-73099260D01*
X124427291Y-73098188D01*
X124818071Y-72753095D01*
X124820377Y-72751112D01*
X125147946Y-72476893D01*
X125149258Y-72475814D01*
X125554093Y-72147060D01*
X125556594Y-72145082D01*
X125894875Y-71885044D01*
X125896224Y-71884022D01*
X126314673Y-71571999D01*
X126317343Y-71570065D01*
X126501283Y-71440475D01*
X126665892Y-71324504D01*
X126667140Y-71323638D01*
X127098441Y-71028960D01*
X127101213Y-71027122D01*
X127290856Y-70904992D01*
X127459317Y-70796503D01*
X127460500Y-70795753D01*
X127904073Y-70518860D01*
X127906882Y-70517160D01*
X128273933Y-70301835D01*
X128275181Y-70301115D01*
X128730179Y-70042584D01*
X128733040Y-70041011D01*
X129108348Y-69841345D01*
X129109526Y-69840728D01*
X129382921Y-69700000D01*
X138744417Y-69700000D01*
X138745014Y-69706061D01*
X138764102Y-69899869D01*
X138764103Y-69899875D01*
X138764700Y-69905934D01*
X138766467Y-69911759D01*
X138766468Y-69911764D01*
X138784905Y-69972543D01*
X138824768Y-70103954D01*
X138922315Y-70286450D01*
X139053590Y-70446410D01*
X139213550Y-70577685D01*
X139396046Y-70675232D01*
X139594066Y-70735300D01*
X139800000Y-70755583D01*
X140005934Y-70735300D01*
X140203954Y-70675232D01*
X140386450Y-70577685D01*
X140546410Y-70446410D01*
X140677685Y-70286450D01*
X140775232Y-70103954D01*
X140835300Y-69905934D01*
X140855583Y-69700000D01*
X140835300Y-69494066D01*
X140775232Y-69296046D01*
X140677685Y-69113550D01*
X140546410Y-68953590D01*
X140386450Y-68822315D01*
X140381079Y-68819444D01*
X140209328Y-68727640D01*
X140209323Y-68727638D01*
X140203954Y-68724768D01*
X140167356Y-68713666D01*
X140011764Y-68666468D01*
X140011759Y-68666467D01*
X140005934Y-68664700D01*
X139999875Y-68664103D01*
X139999869Y-68664102D01*
X139806061Y-68645014D01*
X139800000Y-68644417D01*
X139793939Y-68645014D01*
X139600130Y-68664102D01*
X139600122Y-68664103D01*
X139594066Y-68664700D01*
X139588242Y-68666466D01*
X139588235Y-68666468D01*
X139401877Y-68722999D01*
X139401875Y-68722999D01*
X139396046Y-68724768D01*
X139390679Y-68727636D01*
X139390671Y-68727640D01*
X139218920Y-68819444D01*
X139218915Y-68819447D01*
X139213550Y-68822315D01*
X139208846Y-68826174D01*
X139208842Y-68826178D01*
X139058296Y-68949727D01*
X139058290Y-68949732D01*
X139053590Y-68953590D01*
X139049732Y-68958290D01*
X139049727Y-68958296D01*
X138926178Y-69108842D01*
X138926174Y-69108846D01*
X138922315Y-69113550D01*
X138919447Y-69118915D01*
X138919444Y-69118920D01*
X138827640Y-69290671D01*
X138827636Y-69290679D01*
X138824768Y-69296046D01*
X138822999Y-69301875D01*
X138822999Y-69301877D01*
X138766468Y-69488235D01*
X138766466Y-69488242D01*
X138764700Y-69494066D01*
X138764103Y-69500122D01*
X138764102Y-69500130D01*
X138745890Y-69685040D01*
X138744417Y-69700000D01*
X129382921Y-69700000D01*
X129575295Y-69600977D01*
X129578200Y-69599532D01*
X129961107Y-69415833D01*
X129962109Y-69415361D01*
X130437939Y-69194806D01*
X130441044Y-69193420D01*
X130830521Y-69026128D01*
X130831867Y-69025559D01*
X131316728Y-68824723D01*
X131319946Y-68823444D01*
X131715687Y-68672635D01*
X131716858Y-68672198D01*
X132210104Y-68491386D01*
X132213386Y-68490237D01*
X132614613Y-68356169D01*
X132615565Y-68355858D01*
X133116568Y-68195359D01*
X133119933Y-68194335D01*
X133525498Y-68077332D01*
X133526818Y-68076959D01*
X134034501Y-67937170D01*
X134037863Y-67936297D01*
X134447539Y-67836363D01*
X134448440Y-67836149D01*
X134962314Y-67717263D01*
X134965866Y-67716497D01*
X135378308Y-67633899D01*
X135379592Y-67633649D01*
X135898558Y-67535984D01*
X135902040Y-67535383D01*
X136317002Y-67470101D01*
X136317884Y-67469967D01*
X136841419Y-67393690D01*
X136844999Y-67393224D01*
X137261420Y-67345363D01*
X137262640Y-67345230D01*
X137789369Y-67290602D01*
X137793060Y-67290276D01*
X138210280Y-67259842D01*
X138211342Y-67259769D01*
X138740825Y-67226896D01*
X138744519Y-67226724D01*
X139161969Y-67213692D01*
X139162654Y-67213674D01*
X139694115Y-67202688D01*
X139697876Y-67202670D01*
X140114364Y-67207002D01*
G37*
G04 #@! TD.AperFunction*
G04 #@! TA.AperFunction,Conductor*
G36*
X147464631Y-96126495D02*
G01*
X147523940Y-96130868D01*
X147578019Y-96168950D01*
X147604828Y-96229415D01*
X147598994Y-96276754D01*
X147601534Y-96277260D01*
X147588189Y-96344346D01*
X147588188Y-96344351D01*
X147587000Y-96350326D01*
X147587000Y-97174674D01*
X147588188Y-97180649D01*
X147588189Y-97180653D01*
X147596461Y-97222237D01*
X147601534Y-97247740D01*
X147604057Y-97251516D01*
X147612000Y-97291446D01*
X147612000Y-98183222D01*
X147598485Y-98239517D01*
X147560885Y-98283540D01*
X147507398Y-98305695D01*
X147456515Y-98313753D01*
X147456508Y-98313755D01*
X147446874Y-98315281D01*
X147438178Y-98319711D01*
X147438174Y-98319713D01*
X147425865Y-98325985D01*
X147369571Y-98339500D01*
X147147402Y-98339500D01*
X147099949Y-98330061D01*
X147059721Y-98303181D01*
X147005986Y-98249446D01*
X146998316Y-98241776D01*
X146938221Y-98213753D01*
X146898083Y-98195036D01*
X146898080Y-98195035D01*
X146889487Y-98191028D01*
X146880087Y-98189790D01*
X146880082Y-98189789D01*
X146843921Y-98185029D01*
X146843917Y-98185028D01*
X146839901Y-98184500D01*
X146835847Y-98184500D01*
X146424159Y-98184500D01*
X146424143Y-98184500D01*
X146420100Y-98184501D01*
X146416084Y-98185029D01*
X146416078Y-98185030D01*
X146379917Y-98189790D01*
X146379915Y-98189790D01*
X146370513Y-98191028D01*
X146361916Y-98195036D01*
X146361915Y-98195037D01*
X146309789Y-98219344D01*
X146261684Y-98241776D01*
X146254016Y-98249443D01*
X146254013Y-98249446D01*
X146200279Y-98303181D01*
X146160051Y-98330061D01*
X146112598Y-98339500D01*
X146072634Y-98339500D01*
X146005595Y-98319816D01*
X145979710Y-98303181D01*
X145914069Y-98260996D01*
X145905555Y-98258496D01*
X145798284Y-98226999D01*
X145798282Y-98226998D01*
X145789772Y-98224500D01*
X145660228Y-98224500D01*
X145651718Y-98226998D01*
X145651715Y-98226999D01*
X145544444Y-98258496D01*
X145544441Y-98258497D01*
X145535931Y-98260996D01*
X145528468Y-98265791D01*
X145528468Y-98265792D01*
X145434412Y-98326237D01*
X145434406Y-98326241D01*
X145426951Y-98331033D01*
X145421146Y-98337732D01*
X145421143Y-98337735D01*
X145347922Y-98422237D01*
X145347917Y-98422243D01*
X145342118Y-98428937D01*
X145338438Y-98436994D01*
X145338434Y-98437001D01*
X145291988Y-98538704D01*
X145288303Y-98546774D01*
X145287040Y-98555552D01*
X145284542Y-98564063D01*
X145283414Y-98563731D01*
X145265059Y-98609186D01*
X145219986Y-98647543D01*
X145162269Y-98660639D01*
X145105056Y-98645491D01*
X145061380Y-98605550D01*
X145023671Y-98549116D01*
X145014544Y-98535456D01*
X144964260Y-98501856D01*
X144923795Y-98457209D01*
X144909153Y-98398756D01*
X144909153Y-98189149D01*
X144918592Y-98141696D01*
X144945472Y-98101468D01*
X145012504Y-98034436D01*
X145127205Y-97919735D01*
X145168445Y-97858014D01*
X145187818Y-97760625D01*
X145168698Y-97664507D01*
X145171654Y-97604320D01*
X145202634Y-97552634D01*
X145254320Y-97521654D01*
X145314508Y-97518698D01*
X145410625Y-97537818D01*
X145508014Y-97518445D01*
X145569735Y-97477205D01*
X145571940Y-97475000D01*
X146069867Y-97475000D01*
X146071129Y-97483777D01*
X146087040Y-97594446D01*
X146087041Y-97594450D01*
X146088303Y-97603226D01*
X146091987Y-97611294D01*
X146091988Y-97611295D01*
X146138434Y-97712998D01*
X146138436Y-97713002D01*
X146142118Y-97721063D01*
X146147920Y-97727759D01*
X146147922Y-97727762D01*
X146204589Y-97793159D01*
X146226951Y-97818967D01*
X146234411Y-97823761D01*
X146234412Y-97823762D01*
X146242121Y-97828716D01*
X146335931Y-97889004D01*
X146460228Y-97925500D01*
X146580901Y-97925500D01*
X146589772Y-97925500D01*
X146714069Y-97889004D01*
X146823049Y-97818967D01*
X146907882Y-97721063D01*
X146961697Y-97603226D01*
X146980133Y-97475000D01*
X146961697Y-97346774D01*
X146923065Y-97262182D01*
X146911565Y-97237001D01*
X146911564Y-97236999D01*
X146907882Y-97228937D01*
X146896250Y-97215513D01*
X146828856Y-97137735D01*
X146823049Y-97131033D01*
X146815589Y-97126238D01*
X146815587Y-97126237D01*
X146754081Y-97086710D01*
X146714069Y-97060996D01*
X146705555Y-97058496D01*
X146598284Y-97026999D01*
X146598282Y-97026998D01*
X146589772Y-97024500D01*
X146460228Y-97024500D01*
X146451718Y-97026998D01*
X146451715Y-97026999D01*
X146344444Y-97058496D01*
X146344441Y-97058497D01*
X146335931Y-97060996D01*
X146328468Y-97065791D01*
X146328468Y-97065792D01*
X146234412Y-97126237D01*
X146234406Y-97126241D01*
X146226951Y-97131033D01*
X146221146Y-97137732D01*
X146221143Y-97137735D01*
X146147922Y-97222237D01*
X146147917Y-97222243D01*
X146142118Y-97228937D01*
X146138438Y-97236994D01*
X146138434Y-97237001D01*
X146092591Y-97337384D01*
X146088303Y-97346774D01*
X146087041Y-97355547D01*
X146087040Y-97355553D01*
X146080578Y-97400500D01*
X146069867Y-97475000D01*
X145571940Y-97475000D01*
X145813099Y-97233841D01*
X145854339Y-97172120D01*
X145873712Y-97074731D01*
X145854339Y-96977342D01*
X145853910Y-96976700D01*
X145846704Y-96940468D01*
X145856143Y-96893016D01*
X145883020Y-96852791D01*
X146572393Y-96163419D01*
X146612622Y-96136539D01*
X146660075Y-96127100D01*
X147072765Y-96127100D01*
X147072769Y-96127100D01*
X147072770Y-96127099D01*
X147072773Y-96127099D01*
X147446389Y-96127099D01*
X147452480Y-96127099D01*
X147458453Y-96125910D01*
X147464515Y-96125314D01*
X147464631Y-96126495D01*
G37*
G04 #@! TD.AperFunction*
G04 #@! TA.AperFunction,Conductor*
G36*
X150094479Y-86742859D02*
G01*
X150140038Y-86790076D01*
X150155125Y-86853931D01*
X150139796Y-86902876D01*
X150142118Y-86903937D01*
X150109609Y-86975122D01*
X150088303Y-87021774D01*
X150087041Y-87030547D01*
X150087040Y-87030553D01*
X150072590Y-87131058D01*
X150069867Y-87150000D01*
X150071129Y-87158777D01*
X150087040Y-87269446D01*
X150087041Y-87269450D01*
X150088303Y-87278226D01*
X150091987Y-87286294D01*
X150091988Y-87286295D01*
X150138434Y-87387998D01*
X150138436Y-87388002D01*
X150142118Y-87396063D01*
X150147920Y-87402759D01*
X150147922Y-87402762D01*
X150168046Y-87425986D01*
X150226951Y-87493967D01*
X150232576Y-87497582D01*
X150263294Y-87538615D01*
X150274500Y-87590127D01*
X150274500Y-88158066D01*
X150255081Y-88224691D01*
X150202905Y-88270448D01*
X150134316Y-88281005D01*
X150088923Y-88275029D01*
X150088915Y-88275028D01*
X150084901Y-88274500D01*
X150080847Y-88274500D01*
X149669159Y-88274500D01*
X149669143Y-88274500D01*
X149665100Y-88274501D01*
X149661084Y-88275029D01*
X149661078Y-88275030D01*
X149624917Y-88279790D01*
X149624915Y-88279790D01*
X149615513Y-88281028D01*
X149606916Y-88285036D01*
X149606915Y-88285037D01*
X149516514Y-88327192D01*
X149506684Y-88331776D01*
X149499016Y-88339443D01*
X149499013Y-88339446D01*
X149429446Y-88409013D01*
X149429443Y-88409016D01*
X149421776Y-88416684D01*
X149417606Y-88425624D01*
X149373680Y-88464093D01*
X149316245Y-88478027D01*
X148389622Y-88475589D01*
X148338288Y-88464316D01*
X148296236Y-88432793D01*
X148273049Y-88406033D01*
X148264397Y-88400473D01*
X148240224Y-88384938D01*
X148164069Y-88335996D01*
X148153852Y-88332996D01*
X148048284Y-88301999D01*
X148048282Y-88301998D01*
X148039772Y-88299500D01*
X147910228Y-88299500D01*
X147901721Y-88301997D01*
X147901719Y-88301998D01*
X147897436Y-88303256D01*
X147884431Y-88307074D01*
X147827484Y-88310127D01*
X147775190Y-88287364D01*
X147738616Y-88243602D01*
X147725500Y-88188097D01*
X147725500Y-87880122D01*
X147734939Y-87832670D01*
X147761816Y-87792443D01*
X147961731Y-87592527D01*
X148009551Y-87562792D01*
X148065591Y-87557273D01*
X148090099Y-87560500D01*
X148509900Y-87560499D01*
X148559487Y-87553972D01*
X148668316Y-87503224D01*
X148753224Y-87418316D01*
X148803972Y-87309487D01*
X148810500Y-87259901D01*
X148810499Y-86975121D01*
X148819938Y-86927669D01*
X148846815Y-86887443D01*
X148972443Y-86761816D01*
X149012669Y-86734939D01*
X149060122Y-86725500D01*
X150031204Y-86725500D01*
X150094479Y-86742859D01*
G37*
G04 #@! TD.AperFunction*
G04 #@! TA.AperFunction,Conductor*
G36*
X151417331Y-85784939D02*
G01*
X151457559Y-85811819D01*
X151658559Y-86012819D01*
X151688809Y-86062182D01*
X151693351Y-86119898D01*
X151671196Y-86173385D01*
X151627173Y-86210985D01*
X151570878Y-86224500D01*
X148941885Y-86224500D01*
X148917694Y-86222117D01*
X148916980Y-86221975D01*
X148905000Y-86219592D01*
X148893020Y-86221975D01*
X148819239Y-86236650D01*
X148819234Y-86236651D01*
X148807259Y-86239034D01*
X148800245Y-86243721D01*
X148797108Y-86245816D01*
X148797103Y-86245819D01*
X148734554Y-86287613D01*
X148734551Y-86287615D01*
X148724399Y-86294399D01*
X148717615Y-86304550D01*
X148717612Y-86304554D01*
X148717200Y-86305172D01*
X148701783Y-86323955D01*
X148462557Y-86563181D01*
X148422329Y-86590061D01*
X148374876Y-86599500D01*
X148094159Y-86599500D01*
X148094143Y-86599500D01*
X148090100Y-86599501D01*
X148086084Y-86600029D01*
X148086078Y-86600030D01*
X148049917Y-86604790D01*
X148049915Y-86604790D01*
X148040513Y-86606028D01*
X148031916Y-86610036D01*
X148031915Y-86610037D01*
X147941514Y-86652192D01*
X147931684Y-86656776D01*
X147924016Y-86664443D01*
X147924013Y-86664446D01*
X147854446Y-86734013D01*
X147854443Y-86734016D01*
X147846776Y-86741684D01*
X147842192Y-86751513D01*
X147842192Y-86751514D01*
X147815032Y-86809760D01*
X147796028Y-86850513D01*
X147794789Y-86859917D01*
X147794046Y-86862470D01*
X147761526Y-86916592D01*
X147706571Y-86947685D01*
X147643429Y-86947685D01*
X147588474Y-86916592D01*
X147555954Y-86862470D01*
X147555209Y-86859917D01*
X147553972Y-86850513D01*
X147503224Y-86741684D01*
X147418316Y-86656776D01*
X147360871Y-86629989D01*
X147318083Y-86610036D01*
X147318080Y-86610035D01*
X147309487Y-86606028D01*
X147300087Y-86604790D01*
X147300082Y-86604789D01*
X147263921Y-86600029D01*
X147263917Y-86600028D01*
X147259901Y-86599500D01*
X147255848Y-86599500D01*
X146975123Y-86599500D01*
X146927671Y-86590061D01*
X146887444Y-86563183D01*
X146776816Y-86452556D01*
X146749939Y-86412331D01*
X146740500Y-86364878D01*
X146740500Y-85899500D01*
X146757113Y-85837500D01*
X146802500Y-85792113D01*
X146864500Y-85775500D01*
X151369878Y-85775500D01*
X151417331Y-85784939D01*
G37*
G04 #@! TD.AperFunction*
M02*
