M48
; DRILL file {KiCad (7.0.0)} date Sun May 14 21:47:30 2023
; FORMAT={-:-/ absolute / metric / decimal}
; #@! TF.CreationDate,2023-05-14T21:47:30+08:00
; #@! TF.GenerationSoftware,Kicad,Pcbnew,(7.0.0)
; #@! TF.FileFunction,MixedPlating,1,4
FMAT,2
METRIC
; #@! TA.AperFunction,Plated,PTH,ViaDrill
T1C0.300
; #@! TA.AperFunction,Plated,PTH,ComponentDrill
T2C0.600
; #@! TA.AperFunction,Plated,PTH,ComponentDrill
T3C1.000
; #@! TA.AperFunction,Plated,PTH,ComponentDrill
T4C1.900
; #@! TA.AperFunction,NonPlated,NPTH,ComponentDrill
T5C0.650
%
G90
G05
T1
X117.525Y-90.425
X117.65Y-92.3
X118.075Y-94.35
X118.525Y-96.45
X118.725Y-90.4
X119.025Y-92.7
X119.225Y-98.225
X119.325Y-94.575
X119.775Y-90.375
X119.775Y-91.375
X120.275Y-98.4
X120.275Y-99.725
X120.275Y-100.875
X120.3Y-97.15
X120.625Y-92.5
X120.625Y-93.725
X121.65Y-93.775
X121.675Y-92.525
X121.78Y-102.545
X123.26Y-98.065
X123.27Y-100.045
X123.3Y-93.495
X123.33Y-96.325
X123.57Y-102.615
X124.65Y-94.555
X124.68Y-95.905
X125.54Y-102.565
X126.15Y-93.675
X127.765Y-102.5
X128.6Y-107.695
X129.46Y-108.725
X129.57Y-106.575
X130.6Y-108.3
X130.67Y-106.655
X130.88Y-103.875
X131.17Y-109.405
X132.4Y-109.875
X132.925Y-104.425
X133.19Y-101.945
X133.26Y-89.785
X133.55Y-87.165
X134.25Y-93.95
X134.65Y-89.775
X134.89Y-87.195
X135.82Y-85.805
X135.95Y-89.815
X136.0Y-101.45
X136.0Y-107.225
X136.65Y-107.225
X136.81Y-102.409
X137.16Y-89.955
X137.3Y-105.0
X137.7Y-98.275
X137.7Y-98.825
X138.275Y-98.275
X138.275Y-98.825
X138.55Y-84.0
X138.55Y-84.625
X138.85Y-98.275
X138.85Y-98.825
X138.9Y-96.665
X138.96Y-86.024
X139.225Y-84.625
X139.605Y-94.349
X139.675Y-98.275
X139.675Y-98.875
X140.275Y-98.275
X140.275Y-98.875
X140.61Y-82.595
X140.875Y-98.275
X140.875Y-98.875
X141.7Y-98.3
X141.7Y-98.85
X142.275Y-98.3
X142.275Y-98.85
X142.3Y-108.575
X142.3Y-109.575
X142.3Y-110.575
X142.3Y-111.575
X142.3Y-112.575
X142.325Y-94.4
X142.455Y-106.45
X142.85Y-98.3
X142.85Y-98.85
X142.94Y-80.485
X142.95Y-81.515
X142.99Y-82.575
X143.1Y-79.065
X143.8Y-102.075
X143.8Y-102.825
X144.05Y-86.115
X144.05Y-103.575
X144.05Y-104.325
X144.06Y-78.065
X144.7Y-74.425
X144.8Y-96.575
X144.825Y-86.115
X144.87Y-70.575
X145.14Y-95.115
X145.3Y-103.575
X145.3Y-104.325
X145.34Y-79.365
X145.65Y-86.125
X145.725Y-98.675
X145.8Y-97.825
X145.8Y-100.075
X145.8Y-100.825
X145.8Y-106.325
X146.05Y-103.575
X146.525Y-97.475
X146.55Y-80.8
X146.55Y-81.75
X146.55Y-82.7
X146.55Y-101.075
X146.55Y-101.825
X146.674Y-88.325
X146.75Y-106.325
X147.04Y-86.125
X147.2Y-96.425
X147.44Y-72.765
X147.58Y-101.495
X147.775Y-106.325
X147.95Y-82.7
X147.975Y-88.75
X148.0Y-75.8
X148.28Y-102.155
X148.31Y-73.405
X148.8Y-106.325
X148.975Y-82.7
X149.24Y-87.605
X149.42Y-102.395
X149.8Y-106.325
X150.0Y-80.975
X150.0Y-81.95
X150.14Y-84.685
X150.24Y-72.835
X150.5Y-102.165
X150.525Y-87.15
X150.8Y-106.325
X151.082Y-87.637
X151.32Y-102.165
X151.39Y-88.265
X151.73Y-104.275
X151.74Y-105.205
X151.8Y-106.325
X151.885Y-88.759
X152.05Y-84.225
X152.5Y-85.2
X152.584Y-88.749
X152.8Y-106.325
X153.8Y-106.325
X153.9Y-82.45
X153.98Y-98.335
X153.99Y-99.285
X154.051Y-89.333
X154.55Y-81.825
X154.751Y-89.341
X154.8Y-106.325
X155.05Y-85.2
X155.66Y-80.435
X155.717Y-96.242
X156.28Y-103.535
X156.61Y-97.735
X156.61Y-98.595
X156.61Y-99.455
X156.76Y-81.585
X157.3Y-82.845
X158.05Y-84.525
X158.09Y-102.145
X158.875Y-95.25
X159.26Y-97.365
X159.34Y-99.655
X159.825Y-90.75
X161.07Y-91.535
X161.8Y-89.45
T3
X120.715Y-84.695
X120.715Y-95.695
T4
X130.715Y-87.695
X130.715Y-92.695
T5
X153.732Y-81.29
X155.944Y-86.63
T2
G00X152.187Y-80.382
M15
G01X153.203Y-79.961
M16
G05
G00X155.493Y-88.364
M15
G01X156.51Y-87.943
M16
G05
G00X156.28Y-78.687
M15
G01X156.834Y-78.457
M16
G05
G00X159.586Y-86.669
M15
G01X160.14Y-86.44
M16
G05
T0
M30
