G04 #@! TF.GenerationSoftware,KiCad,Pcbnew,(7.0.0)*
G04 #@! TF.CreationDate,2023-05-14T21:45:47+08:00*
G04 #@! TF.ProjectId,ServoLess,53657276-6f4c-4657-9373-2e6b69636164,V2.0*
G04 #@! TF.SameCoordinates,Original*
G04 #@! TF.FileFunction,Legend,Top*
G04 #@! TF.FilePolarity,Positive*
%FSLAX46Y46*%
G04 Gerber Fmt 4.6, Leading zero omitted, Abs format (unit mm)*
G04 Created by KiCad (PCBNEW (7.0.0)) date 2023-05-14 21:45:47*
%MOMM*%
%LPD*%
G01*
G04 APERTURE LIST*
G04 Aperture macros list*
%AMRoundRect*
0 Rectangle with rounded corners*
0 $1 Rounding radius*
0 $2 $3 $4 $5 $6 $7 $8 $9 X,Y pos of 4 corners*
0 Add a 4 corners polygon primitive as box body*
4,1,4,$2,$3,$4,$5,$6,$7,$8,$9,$2,$3,0*
0 Add four circle primitives for the rounded corners*
1,1,$1+$1,$2,$3*
1,1,$1+$1,$4,$5*
1,1,$1+$1,$6,$7*
1,1,$1+$1,$8,$9*
0 Add four rect primitives between the rounded corners*
20,1,$1+$1,$2,$3,$4,$5,0*
20,1,$1+$1,$4,$5,$6,$7,0*
20,1,$1+$1,$6,$7,$8,$9,0*
20,1,$1+$1,$8,$9,$2,$3,0*%
%AMHorizOval*
0 Thick line with rounded ends*
0 $1 width*
0 $2 $3 position (X,Y) of the first rounded end (center of the circle)*
0 $4 $5 position (X,Y) of the second rounded end (center of the circle)*
0 Add line between two ends*
20,1,$1,$2,$3,$4,$5,0*
0 Add two circle primitives to create the rounded ends*
1,1,$1,$2,$3*
1,1,$1,$4,$5*%
%AMRotRect*
0 Rectangle, with rotation*
0 The origin of the aperture is its center*
0 $1 length*
0 $2 width*
0 $3 Rotation angle, in degrees counterclockwise*
0 Add horizontal line*
21,1,$1,$2,0,0,$3*%
G04 Aperture macros list end*
%ADD10C,0.160000*%
%ADD11C,0.240000*%
%ADD12C,0.120000*%
%ADD13RoundRect,0.250000X0.550000X-1.500000X0.550000X1.500000X-0.550000X1.500000X-0.550000X-1.500000X0*%
%ADD14RoundRect,0.150000X-0.512500X-0.150000X0.512500X-0.150000X0.512500X0.150000X-0.512500X0.150000X0*%
%ADD15RoundRect,0.135000X-0.185000X0.135000X-0.185000X-0.135000X0.185000X-0.135000X0.185000X0.135000X0*%
%ADD16RoundRect,0.140000X0.170000X-0.140000X0.170000X0.140000X-0.170000X0.140000X-0.170000X-0.140000X0*%
%ADD17RoundRect,0.150000X0.377759X0.520022X0.100595X0.634827X-0.377759X-0.520022X-0.100595X-0.634827X0*%
%ADD18RoundRect,0.250000X0.572102X0.466582X-0.074614X0.734461X-0.572102X-0.466582X0.074614X-0.734461X0*%
%ADD19RoundRect,0.218750X-0.256250X0.218750X-0.256250X-0.218750X0.256250X-0.218750X0.256250X0.218750X0*%
%ADD20R,0.650000X1.050000*%
%ADD21C,0.650000*%
%ADD22RotRect,0.600000X1.450000X112.500000*%
%ADD23RotRect,0.300000X1.450000X112.500000*%
%ADD24HorizOval,1.000000X0.508134X0.210476X-0.508134X-0.210476X0*%
%ADD25HorizOval,1.000000X0.277164X0.114805X-0.277164X-0.114805X0*%
%ADD26RoundRect,0.135000X-0.135000X-0.185000X0.135000X-0.185000X0.135000X0.185000X-0.135000X0.185000X0*%
%ADD27C,1.400000*%
%ADD28R,3.500000X3.500000*%
%ADD29C,3.500000*%
%ADD30RoundRect,0.135000X0.185000X-0.135000X0.185000X0.135000X-0.185000X0.135000X-0.185000X-0.135000X0*%
%ADD31RoundRect,0.140000X-0.170000X0.140000X-0.170000X-0.140000X0.170000X-0.140000X0.170000X0.140000X0*%
%ADD32RoundRect,0.250000X-1.000000X-0.900000X1.000000X-0.900000X1.000000X0.900000X-1.000000X0.900000X0*%
%ADD33RoundRect,0.250000X-0.475000X0.250000X-0.475000X-0.250000X0.475000X-0.250000X0.475000X0.250000X0*%
%ADD34RoundRect,0.140000X-0.140000X-0.170000X0.140000X-0.170000X0.140000X0.170000X-0.140000X0.170000X0*%
%ADD35RoundRect,0.140000X0.140000X0.170000X-0.140000X0.170000X-0.140000X-0.170000X0.140000X-0.170000X0*%
%ADD36RoundRect,0.225000X0.225000X0.250000X-0.225000X0.250000X-0.225000X-0.250000X0.225000X-0.250000X0*%
%ADD37RoundRect,0.100000X-0.100000X0.637500X-0.100000X-0.637500X0.100000X-0.637500X0.100000X0.637500X0*%
%ADD38RoundRect,0.250000X-0.625000X0.312500X-0.625000X-0.312500X0.625000X-0.312500X0.625000X0.312500X0*%
%ADD39RoundRect,0.135000X0.135000X0.185000X-0.135000X0.185000X-0.135000X-0.185000X0.135000X-0.185000X0*%
%ADD40RoundRect,0.218750X0.218750X0.256250X-0.218750X0.256250X-0.218750X-0.256250X0.218750X-0.256250X0*%
%ADD41R,0.449999X1.400000*%
%ADD42R,5.180000X3.099999*%
%ADD43RoundRect,0.250000X0.650000X-0.325000X0.650000X0.325000X-0.650000X0.325000X-0.650000X-0.325000X0*%
%ADD44RoundRect,0.250000X-0.550000X1.500000X-0.550000X-1.500000X0.550000X-1.500000X0.550000X1.500000X0*%
%ADD45RoundRect,0.112500X0.187500X0.112500X-0.187500X0.112500X-0.187500X-0.112500X0.187500X-0.112500X0*%
G04 APERTURE END LIST*
D10*
G36*
X161528964Y-91322713D02*
G01*
X161537011Y-91322929D01*
X161544951Y-91323288D01*
X161552785Y-91323792D01*
X161568133Y-91325231D01*
X161583056Y-91327245D01*
X161597552Y-91329835D01*
X161611623Y-91333000D01*
X161625268Y-91336740D01*
X161638487Y-91341057D01*
X161651280Y-91345948D01*
X161663647Y-91351416D01*
X161675588Y-91357458D01*
X161687103Y-91364077D01*
X161698193Y-91371270D01*
X161708856Y-91379040D01*
X161719094Y-91387384D01*
X161728905Y-91396304D01*
X161738204Y-91405706D01*
X161746903Y-91415542D01*
X161755002Y-91425813D01*
X161762501Y-91436519D01*
X161769400Y-91447660D01*
X161775699Y-91459237D01*
X161781398Y-91471248D01*
X161786498Y-91483695D01*
X161790997Y-91496576D01*
X161794897Y-91509893D01*
X161798196Y-91523644D01*
X161800896Y-91537831D01*
X161802996Y-91552453D01*
X161804495Y-91567510D01*
X161805395Y-91583001D01*
X161805620Y-91590910D01*
X161805695Y-91598928D01*
X161805695Y-91697798D01*
X161251948Y-91697798D01*
X161251948Y-91599515D01*
X161252226Y-91584308D01*
X161253059Y-91569463D01*
X161254448Y-91554981D01*
X161256393Y-91540860D01*
X161258894Y-91527100D01*
X161261950Y-91513703D01*
X161265561Y-91500667D01*
X161269729Y-91487993D01*
X161274452Y-91475681D01*
X161279730Y-91463731D01*
X161285565Y-91452142D01*
X161291955Y-91440915D01*
X161298900Y-91430050D01*
X161306402Y-91419547D01*
X161314459Y-91409406D01*
X161323071Y-91399626D01*
X161327559Y-91394890D01*
X161336862Y-91385868D01*
X161346601Y-91377448D01*
X161356777Y-91369629D01*
X161367389Y-91362412D01*
X161378438Y-91355796D01*
X161389923Y-91349781D01*
X161401845Y-91344368D01*
X161414204Y-91339557D01*
X161426999Y-91335346D01*
X161440231Y-91331738D01*
X161453900Y-91328730D01*
X161468005Y-91326325D01*
X161482546Y-91324520D01*
X161497525Y-91323317D01*
X161512939Y-91322716D01*
X161520810Y-91322641D01*
X161528964Y-91322713D01*
G37*
G36*
X162308286Y-93479245D02*
G01*
X160749358Y-93479245D01*
X160749358Y-93124958D01*
X161103644Y-93124958D01*
X161954000Y-93124958D01*
X161954000Y-92624748D01*
X161805695Y-92624748D01*
X161805695Y-92937379D01*
X161103644Y-92937379D01*
X161103644Y-93124958D01*
X160749358Y-93124958D01*
X160749358Y-92512983D01*
X161103644Y-92512983D01*
X161954000Y-92512983D01*
X161954000Y-92012773D01*
X161805695Y-92012773D01*
X161805695Y-92337909D01*
X161601704Y-92337909D01*
X161601704Y-92050289D01*
X161453790Y-92050289D01*
X161453790Y-92333025D01*
X161251948Y-92333025D01*
X161251948Y-92037784D01*
X161103644Y-92037784D01*
X161103644Y-92512983D01*
X160749358Y-92512983D01*
X160749358Y-91872871D01*
X161103644Y-91872871D01*
X161954000Y-91872871D01*
X161954000Y-91583688D01*
X161953883Y-91571388D01*
X161953533Y-91559230D01*
X161952950Y-91547214D01*
X161952134Y-91535340D01*
X161951085Y-91523608D01*
X161949802Y-91512018D01*
X161948287Y-91500569D01*
X161946538Y-91489263D01*
X161944556Y-91478099D01*
X161942341Y-91467077D01*
X161939892Y-91456197D01*
X161937211Y-91445458D01*
X161934296Y-91434862D01*
X161931148Y-91424408D01*
X161927767Y-91414095D01*
X161924153Y-91403925D01*
X161920306Y-91393896D01*
X161916225Y-91384010D01*
X161911911Y-91374265D01*
X161907364Y-91364663D01*
X161902584Y-91355202D01*
X161897571Y-91345884D01*
X161892325Y-91336707D01*
X161886845Y-91327672D01*
X161881132Y-91318779D01*
X161875186Y-91310029D01*
X161869007Y-91301420D01*
X161862595Y-91292953D01*
X161855949Y-91284628D01*
X161849070Y-91276445D01*
X161841959Y-91268404D01*
X161834614Y-91260505D01*
X161827076Y-91252788D01*
X161819387Y-91245315D01*
X161811545Y-91238087D01*
X161803552Y-91231105D01*
X161795407Y-91224367D01*
X161787110Y-91217874D01*
X161778661Y-91211627D01*
X161770060Y-91205624D01*
X161761308Y-91199866D01*
X161752403Y-91194354D01*
X161743347Y-91189086D01*
X161734138Y-91184064D01*
X161724778Y-91179286D01*
X161715266Y-91174753D01*
X161705602Y-91170466D01*
X161695786Y-91166423D01*
X161685818Y-91162625D01*
X161675699Y-91159073D01*
X161665427Y-91155765D01*
X161655004Y-91152703D01*
X161644428Y-91149885D01*
X161633701Y-91147313D01*
X161622822Y-91144985D01*
X161611791Y-91142903D01*
X161600608Y-91141065D01*
X161589273Y-91139472D01*
X161577787Y-91138125D01*
X161566148Y-91137022D01*
X161554358Y-91136165D01*
X161542415Y-91135552D01*
X161530321Y-91135185D01*
X161518075Y-91135062D01*
X161492578Y-91135499D01*
X161467890Y-91136811D01*
X161444011Y-91138997D01*
X161420943Y-91142057D01*
X161398683Y-91145991D01*
X161377233Y-91150800D01*
X161356592Y-91156483D01*
X161336761Y-91163040D01*
X161317739Y-91170472D01*
X161299527Y-91178778D01*
X161282124Y-91187958D01*
X161265531Y-91198013D01*
X161249747Y-91208942D01*
X161234772Y-91220745D01*
X161220607Y-91233423D01*
X161207251Y-91246974D01*
X161194705Y-91261401D01*
X161182968Y-91276701D01*
X161172041Y-91292876D01*
X161161923Y-91309925D01*
X161152614Y-91327848D01*
X161144115Y-91346646D01*
X161136426Y-91366318D01*
X161129546Y-91386864D01*
X161123475Y-91408285D01*
X161118213Y-91430580D01*
X161113762Y-91453749D01*
X161110119Y-91477793D01*
X161107286Y-91502711D01*
X161105262Y-91528503D01*
X161104048Y-91555170D01*
X161103644Y-91582711D01*
X161103644Y-91697798D01*
X161103644Y-91872871D01*
X160749358Y-91872871D01*
X160749358Y-90780777D01*
X162308286Y-90780777D01*
X162308286Y-93479245D01*
G37*
G36*
X139651348Y-103488412D02*
G01*
X139643483Y-103487262D01*
X139632053Y-103485166D01*
X139621062Y-103482623D01*
X139610510Y-103479634D01*
X139600399Y-103476198D01*
X139590727Y-103472316D01*
X139581494Y-103467987D01*
X139572702Y-103463212D01*
X139564348Y-103457990D01*
X139556435Y-103452322D01*
X139548961Y-103446207D01*
X139544276Y-103441942D01*
X139537816Y-103435400D01*
X139532035Y-103428682D01*
X139526935Y-103421790D01*
X139522514Y-103414722D01*
X139518774Y-103407478D01*
X139515714Y-103400060D01*
X139513333Y-103392467D01*
X139511633Y-103384698D01*
X139510613Y-103376754D01*
X139510273Y-103368635D01*
X139510824Y-103355811D01*
X139512477Y-103343814D01*
X139515233Y-103332645D01*
X139519090Y-103322302D01*
X139524050Y-103312788D01*
X139530112Y-103304100D01*
X139537276Y-103296240D01*
X139545542Y-103289207D01*
X139554910Y-103283002D01*
X139565380Y-103277624D01*
X139576953Y-103273074D01*
X139589628Y-103269351D01*
X139603404Y-103266455D01*
X139618283Y-103264386D01*
X139626136Y-103263662D01*
X139634264Y-103263145D01*
X139642668Y-103262835D01*
X139651348Y-103262732D01*
X139651348Y-103488412D01*
G37*
G36*
X139651348Y-101558698D02*
G01*
X139643483Y-101557549D01*
X139632053Y-101555452D01*
X139621062Y-101552909D01*
X139610510Y-101549920D01*
X139600399Y-101546484D01*
X139590727Y-101542602D01*
X139581494Y-101538273D01*
X139572702Y-101533498D01*
X139564348Y-101528276D01*
X139556435Y-101522608D01*
X139548961Y-101516493D01*
X139544276Y-101512229D01*
X139537816Y-101505686D01*
X139532035Y-101498968D01*
X139526935Y-101492076D01*
X139522514Y-101485008D01*
X139518774Y-101477765D01*
X139515714Y-101470346D01*
X139513333Y-101462753D01*
X139511633Y-101454984D01*
X139510613Y-101447040D01*
X139510273Y-101438921D01*
X139510824Y-101426097D01*
X139512477Y-101414100D01*
X139515233Y-101402931D01*
X139519090Y-101392588D01*
X139524050Y-101383074D01*
X139530112Y-101374386D01*
X139537276Y-101366526D01*
X139545542Y-101359494D01*
X139554910Y-101353288D01*
X139565380Y-101347910D01*
X139576953Y-101343360D01*
X139589628Y-101339637D01*
X139603404Y-101336741D01*
X139618283Y-101334672D01*
X139626136Y-101333948D01*
X139634264Y-101333431D01*
X139642668Y-101333121D01*
X139651348Y-101333018D01*
X139651348Y-101558698D01*
G37*
G36*
X140380791Y-107119266D02*
G01*
X138796852Y-107119266D01*
X138796852Y-106311664D01*
X139151138Y-106311664D01*
X139151263Y-106324109D01*
X139151637Y-106336411D01*
X139152260Y-106348569D01*
X139153132Y-106360583D01*
X139154253Y-106372453D01*
X139155624Y-106384179D01*
X139157244Y-106395761D01*
X139159113Y-106407199D01*
X139161231Y-106418494D01*
X139163599Y-106429645D01*
X139166215Y-106440651D01*
X139169081Y-106451514D01*
X139172196Y-106462233D01*
X139175560Y-106472808D01*
X139179174Y-106483240D01*
X139183036Y-106493527D01*
X139187148Y-106503671D01*
X139191509Y-106513670D01*
X139196120Y-106523526D01*
X139200979Y-106533238D01*
X139206088Y-106542806D01*
X139211446Y-106552230D01*
X139217053Y-106561510D01*
X139222909Y-106570647D01*
X139229015Y-106579639D01*
X139235369Y-106588488D01*
X139241973Y-106597193D01*
X139248826Y-106605754D01*
X139255929Y-106614171D01*
X139263280Y-106622444D01*
X139270881Y-106630573D01*
X139278731Y-106638558D01*
X139286777Y-106646336D01*
X139294965Y-106653867D01*
X139303295Y-106661151D01*
X139311768Y-106668188D01*
X139320383Y-106674978D01*
X139329140Y-106681522D01*
X139338040Y-106687818D01*
X139347082Y-106693867D01*
X139356267Y-106699670D01*
X139365594Y-106705225D01*
X139375063Y-106710534D01*
X139384674Y-106715596D01*
X139394428Y-106720411D01*
X139404324Y-106724978D01*
X139414363Y-106729299D01*
X139424544Y-106733374D01*
X139434867Y-106737201D01*
X139445333Y-106740781D01*
X139455941Y-106744114D01*
X139466691Y-106747201D01*
X139477584Y-106750040D01*
X139488619Y-106752633D01*
X139499796Y-106754979D01*
X139511116Y-106757077D01*
X139522578Y-106758929D01*
X139534182Y-106760534D01*
X139545929Y-106761892D01*
X139557818Y-106763003D01*
X139569849Y-106763867D01*
X139582023Y-106764485D01*
X139594339Y-106764855D01*
X139606798Y-106764979D01*
X139618642Y-106764868D01*
X139630338Y-106764536D01*
X139641885Y-106763983D01*
X139653283Y-106763208D01*
X139664533Y-106762212D01*
X139675633Y-106760994D01*
X139686585Y-106759556D01*
X139697387Y-106757896D01*
X139708041Y-106756014D01*
X139718547Y-106753911D01*
X139728903Y-106751587D01*
X139739110Y-106749042D01*
X139749169Y-106746275D01*
X139759079Y-106743287D01*
X139768840Y-106740077D01*
X139778452Y-106736646D01*
X139787915Y-106732994D01*
X139797229Y-106729121D01*
X139806395Y-106725026D01*
X139815412Y-106720710D01*
X139824280Y-106716172D01*
X139832999Y-106711413D01*
X139841569Y-106706433D01*
X139849990Y-106701231D01*
X139858263Y-106695808D01*
X139866387Y-106690164D01*
X139874362Y-106684298D01*
X139882188Y-106678211D01*
X139889865Y-106671903D01*
X139897393Y-106665373D01*
X139904773Y-106658622D01*
X139912004Y-106651650D01*
X139919048Y-106644489D01*
X139925869Y-106637172D01*
X139932466Y-106629700D01*
X139938840Y-106622072D01*
X139944990Y-106614288D01*
X139950916Y-106606349D01*
X139956619Y-106598254D01*
X139962098Y-106590003D01*
X139967353Y-106581596D01*
X139972385Y-106573034D01*
X139977193Y-106564316D01*
X139981778Y-106555443D01*
X139986139Y-106546413D01*
X139990276Y-106537228D01*
X139994189Y-106527887D01*
X139997879Y-106518391D01*
X140001346Y-106508739D01*
X140004589Y-106498931D01*
X140007608Y-106488967D01*
X140010403Y-106478848D01*
X140012975Y-106468573D01*
X140015323Y-106458142D01*
X140017448Y-106447556D01*
X140019348Y-106436814D01*
X140021026Y-106425916D01*
X140022479Y-106414863D01*
X140023709Y-106403653D01*
X140024716Y-106392288D01*
X140025498Y-106380768D01*
X140026057Y-106369091D01*
X140026393Y-106357259D01*
X140026505Y-106345272D01*
X140026461Y-106335960D01*
X140026331Y-106326760D01*
X140026113Y-106317670D01*
X140025809Y-106308690D01*
X140025417Y-106299821D01*
X140024939Y-106291063D01*
X140024373Y-106282416D01*
X140023720Y-106273879D01*
X140022981Y-106265453D01*
X140022154Y-106257138D01*
X140021241Y-106248933D01*
X140020240Y-106240840D01*
X140019152Y-106232856D01*
X140017978Y-106224984D01*
X140015367Y-106209570D01*
X140012409Y-106194600D01*
X140009102Y-106180072D01*
X140005448Y-106165987D01*
X140001445Y-106152344D01*
X139997095Y-106139144D01*
X139992396Y-106126387D01*
X139987350Y-106114073D01*
X139981955Y-106102201D01*
X139819387Y-106102201D01*
X139825444Y-106114102D01*
X139831110Y-106126161D01*
X139836386Y-106138380D01*
X139841271Y-106150757D01*
X139845765Y-106163292D01*
X139849868Y-106175987D01*
X139853581Y-106188840D01*
X139856903Y-106201852D01*
X139859833Y-106215023D01*
X139862374Y-106228353D01*
X139864523Y-106241841D01*
X139866281Y-106255488D01*
X139867649Y-106269294D01*
X139868626Y-106283258D01*
X139869212Y-106297382D01*
X139869408Y-106311664D01*
X139869112Y-106326756D01*
X139868226Y-106341452D01*
X139866749Y-106355753D01*
X139864682Y-106369659D01*
X139862023Y-106383170D01*
X139858774Y-106396285D01*
X139854934Y-106409005D01*
X139850503Y-106421329D01*
X139845482Y-106433258D01*
X139839870Y-106444791D01*
X139833667Y-106455930D01*
X139826873Y-106466673D01*
X139819488Y-106477020D01*
X139811513Y-106486972D01*
X139802947Y-106496529D01*
X139793790Y-106505690D01*
X139784124Y-106514374D01*
X139774080Y-106522497D01*
X139763657Y-106530060D01*
X139752855Y-106537063D01*
X139741675Y-106543506D01*
X139730116Y-106549388D01*
X139718179Y-106554711D01*
X139705863Y-106559473D01*
X139693168Y-106563674D01*
X139680095Y-106567316D01*
X139666643Y-106570397D01*
X139652813Y-106572918D01*
X139638604Y-106574879D01*
X139624017Y-106576280D01*
X139609051Y-106577120D01*
X139593706Y-106577400D01*
X139585791Y-106577326D01*
X139577971Y-106577105D01*
X139562614Y-106576219D01*
X139547636Y-106574742D01*
X139533036Y-106572674D01*
X139518815Y-106570016D01*
X139504973Y-106566766D01*
X139491509Y-106562926D01*
X139478424Y-106558496D01*
X139465717Y-106553474D01*
X139453389Y-106547862D01*
X139441439Y-106541659D01*
X139429868Y-106534865D01*
X139418676Y-106527481D01*
X139407862Y-106519505D01*
X139397427Y-106510939D01*
X139387370Y-106501782D01*
X139382501Y-106497007D01*
X139373228Y-106487161D01*
X139364572Y-106476921D01*
X139356535Y-106466287D01*
X139349116Y-106455260D01*
X139342316Y-106443839D01*
X139336133Y-106432023D01*
X139330569Y-106419814D01*
X139325623Y-106407211D01*
X139321296Y-106394214D01*
X139317586Y-106380824D01*
X139314495Y-106367039D01*
X139312022Y-106352861D01*
X139310167Y-106338289D01*
X139308931Y-106323323D01*
X139308313Y-106307963D01*
X139308235Y-106300136D01*
X139308431Y-106286402D01*
X139309017Y-106272851D01*
X139309994Y-106259481D01*
X139311362Y-106246292D01*
X139313120Y-106233286D01*
X139315270Y-106220461D01*
X139317810Y-106207817D01*
X139320741Y-106195355D01*
X139324062Y-106183075D01*
X139327775Y-106170977D01*
X139331878Y-106159060D01*
X139336372Y-106147325D01*
X139341257Y-106135772D01*
X139346533Y-106124400D01*
X139352199Y-106113210D01*
X139358256Y-106102201D01*
X139183378Y-106102201D01*
X139179474Y-106112911D01*
X139175822Y-106123939D01*
X139172422Y-106135284D01*
X139169273Y-106146946D01*
X139166377Y-106158927D01*
X139163732Y-106171224D01*
X139161339Y-106183839D01*
X139159198Y-106196772D01*
X139157309Y-106210022D01*
X139155672Y-106223590D01*
X139154287Y-106237475D01*
X139153153Y-106251678D01*
X139152272Y-106266198D01*
X139151642Y-106281036D01*
X139151264Y-106296191D01*
X139151138Y-106311664D01*
X138796852Y-106311664D01*
X138796852Y-105410505D01*
X139401243Y-105410505D01*
X139401243Y-105585579D01*
X139750999Y-105585579D01*
X139758906Y-105585704D01*
X139770378Y-105586361D01*
X139781383Y-105587581D01*
X139791920Y-105589365D01*
X139801991Y-105591712D01*
X139811594Y-105594623D01*
X139820730Y-105598096D01*
X139829399Y-105602133D01*
X139837601Y-105606733D01*
X139845336Y-105611897D01*
X139852604Y-105617623D01*
X139857147Y-105621714D01*
X139863412Y-105628167D01*
X139869017Y-105635001D01*
X139873963Y-105642217D01*
X139878249Y-105649814D01*
X139881876Y-105657792D01*
X139884844Y-105666151D01*
X139887152Y-105674892D01*
X139888801Y-105684014D01*
X139889790Y-105693517D01*
X139890120Y-105703401D01*
X139889986Y-105710001D01*
X139888916Y-105722572D01*
X139886775Y-105734305D01*
X139883565Y-105745200D01*
X139879285Y-105755256D01*
X139873934Y-105764475D01*
X139867514Y-105772856D01*
X139860023Y-105780398D01*
X139851463Y-105787103D01*
X139841832Y-105792969D01*
X139831131Y-105797997D01*
X139819360Y-105802188D01*
X139806519Y-105805540D01*
X139792608Y-105808054D01*
X139777626Y-105809730D01*
X139769735Y-105810254D01*
X139761575Y-105810568D01*
X139753148Y-105810673D01*
X139401243Y-105810673D01*
X139401243Y-105985746D01*
X139769366Y-105985746D01*
X139785186Y-105985540D01*
X139800504Y-105984920D01*
X139815319Y-105983886D01*
X139829633Y-105982440D01*
X139843444Y-105980580D01*
X139856753Y-105978307D01*
X139869560Y-105975620D01*
X139881864Y-105972520D01*
X139893666Y-105969007D01*
X139904966Y-105965081D01*
X139915764Y-105960741D01*
X139926060Y-105955988D01*
X139935853Y-105950822D01*
X139945144Y-105945242D01*
X139953933Y-105939249D01*
X139962220Y-105932843D01*
X139970004Y-105926024D01*
X139977287Y-105918791D01*
X139984067Y-105911145D01*
X139990345Y-105903085D01*
X139996120Y-105894613D01*
X140001394Y-105885726D01*
X140006165Y-105876427D01*
X140010434Y-105866714D01*
X140014200Y-105856588D01*
X140017465Y-105846049D01*
X140020227Y-105835097D01*
X140022487Y-105823731D01*
X140024245Y-105811952D01*
X140025500Y-105799759D01*
X140026254Y-105787153D01*
X140026505Y-105774134D01*
X140026400Y-105766819D01*
X140025558Y-105752480D01*
X140023876Y-105738531D01*
X140021353Y-105724971D01*
X140017988Y-105711800D01*
X140013783Y-105699019D01*
X140008736Y-105686626D01*
X140002848Y-105674623D01*
X139996120Y-105663010D01*
X139988550Y-105651785D01*
X139980138Y-105640950D01*
X139970886Y-105630504D01*
X139960793Y-105620447D01*
X139949858Y-105610780D01*
X139938083Y-105601502D01*
X139925466Y-105592613D01*
X139918842Y-105588314D01*
X139918842Y-105585579D01*
X140014000Y-105585579D01*
X140014000Y-105410505D01*
X139401243Y-105410505D01*
X138796852Y-105410505D01*
X138796852Y-104921238D01*
X139388738Y-104921238D01*
X139389214Y-104935632D01*
X139390643Y-104949457D01*
X139393024Y-104962713D01*
X139396358Y-104975399D01*
X139400645Y-104987516D01*
X139405884Y-104999063D01*
X139412075Y-105010041D01*
X139419219Y-105020450D01*
X139427316Y-105030289D01*
X139436365Y-105039559D01*
X139446367Y-105048259D01*
X139457321Y-105056390D01*
X139469228Y-105063952D01*
X139482087Y-105070944D01*
X139495899Y-105077367D01*
X139503163Y-105080364D01*
X139510664Y-105083220D01*
X139510664Y-105085369D01*
X139401243Y-105085369D01*
X139401243Y-105260443D01*
X140014000Y-105260443D01*
X140014000Y-105085369D01*
X139715437Y-105085369D01*
X139710318Y-105085334D01*
X139700287Y-105085055D01*
X139690533Y-105084496D01*
X139681055Y-105083658D01*
X139671853Y-105082541D01*
X139662927Y-105081144D01*
X139654278Y-105079468D01*
X139645905Y-105077513D01*
X139637808Y-105075278D01*
X139629988Y-105072764D01*
X139622444Y-105069970D01*
X139615176Y-105066897D01*
X139604793Y-105061764D01*
X139595031Y-105056002D01*
X139585891Y-105049612D01*
X139580188Y-105045019D01*
X139572325Y-105037757D01*
X139565289Y-105030048D01*
X139559081Y-105021893D01*
X139553700Y-105013292D01*
X139549148Y-105004244D01*
X139545423Y-104994749D01*
X139542526Y-104984808D01*
X139540456Y-104974421D01*
X139539214Y-104963586D01*
X139538801Y-104952306D01*
X139538825Y-104949401D01*
X139539191Y-104940848D01*
X139539997Y-104932539D01*
X139541243Y-104924474D01*
X139542928Y-104916652D01*
X139545053Y-104909075D01*
X139548570Y-104899351D01*
X139552869Y-104890061D01*
X139557949Y-104881204D01*
X139563811Y-104872780D01*
X139395967Y-104872780D01*
X139393885Y-104878343D01*
X139391851Y-104886000D01*
X139390326Y-104894728D01*
X139389444Y-104902821D01*
X139388914Y-104911657D01*
X139388738Y-104921238D01*
X138796852Y-104921238D01*
X138796852Y-104446821D01*
X139388738Y-104446821D01*
X139389214Y-104461215D01*
X139390643Y-104475040D01*
X139393024Y-104488296D01*
X139396358Y-104500982D01*
X139400645Y-104513098D01*
X139405884Y-104524646D01*
X139412075Y-104535624D01*
X139419219Y-104546032D01*
X139427316Y-104555871D01*
X139436365Y-104565141D01*
X139446367Y-104573842D01*
X139457321Y-104581973D01*
X139469228Y-104589534D01*
X139482087Y-104596526D01*
X139495899Y-104602949D01*
X139503163Y-104605947D01*
X139510664Y-104608803D01*
X139510664Y-104610952D01*
X139401243Y-104610952D01*
X139401243Y-104786025D01*
X140014000Y-104786025D01*
X140014000Y-104610952D01*
X139715437Y-104610952D01*
X139710318Y-104610917D01*
X139700287Y-104610638D01*
X139690533Y-104610079D01*
X139681055Y-104609241D01*
X139671853Y-104608124D01*
X139662927Y-104606727D01*
X139654278Y-104605051D01*
X139645905Y-104603095D01*
X139637808Y-104600860D01*
X139629988Y-104598346D01*
X139622444Y-104595553D01*
X139615176Y-104592480D01*
X139604793Y-104587347D01*
X139595031Y-104581585D01*
X139585891Y-104575195D01*
X139580188Y-104570602D01*
X139572325Y-104563340D01*
X139565289Y-104555631D01*
X139559081Y-104547476D01*
X139553700Y-104538874D01*
X139549148Y-104529826D01*
X139545423Y-104520332D01*
X139542526Y-104510391D01*
X139540456Y-104500003D01*
X139539214Y-104489169D01*
X139538801Y-104477889D01*
X139538825Y-104474983D01*
X139539191Y-104466431D01*
X139539997Y-104458121D01*
X139541243Y-104450056D01*
X139542928Y-104442235D01*
X139545053Y-104434658D01*
X139548570Y-104424934D01*
X139552869Y-104415643D01*
X139557949Y-104406786D01*
X139563811Y-104398363D01*
X139395967Y-104398363D01*
X139393885Y-104403925D01*
X139391851Y-104411582D01*
X139390326Y-104420311D01*
X139389444Y-104428403D01*
X139388914Y-104437240D01*
X139388738Y-104446821D01*
X138796852Y-104446821D01*
X138796852Y-104007770D01*
X139151138Y-104007770D01*
X139151202Y-104016994D01*
X139151391Y-104026105D01*
X139151707Y-104035102D01*
X139152149Y-104043985D01*
X139152717Y-104052754D01*
X139153412Y-104061410D01*
X139154233Y-104069952D01*
X139155181Y-104078381D01*
X139156254Y-104086695D01*
X139157454Y-104094896D01*
X139158781Y-104102983D01*
X139160233Y-104110956D01*
X139161812Y-104118816D01*
X139163518Y-104126562D01*
X139167307Y-104141713D01*
X139171602Y-104156408D01*
X139176402Y-104170649D01*
X139181708Y-104184435D01*
X139187518Y-104197766D01*
X139193834Y-104210643D01*
X139200656Y-104223064D01*
X139207982Y-104235030D01*
X139215814Y-104246542D01*
X139224078Y-104257449D01*
X139232749Y-104267653D01*
X139241828Y-104277154D01*
X139251315Y-104285950D01*
X139261209Y-104294043D01*
X139271510Y-104301432D01*
X139282220Y-104308118D01*
X139293337Y-104314099D01*
X139304861Y-104319377D01*
X139316793Y-104323951D01*
X139329133Y-104327822D01*
X139341880Y-104330989D01*
X139355035Y-104333452D01*
X139368597Y-104335211D01*
X139382567Y-104336267D01*
X139396944Y-104336618D01*
X139406787Y-104336423D01*
X139416482Y-104335835D01*
X139426030Y-104334856D01*
X139435431Y-104333486D01*
X139444684Y-104331724D01*
X139453790Y-104329571D01*
X139462749Y-104327025D01*
X139471561Y-104324089D01*
X139480225Y-104320761D01*
X139488742Y-104317041D01*
X139497111Y-104312930D01*
X139505333Y-104308427D01*
X139513408Y-104303532D01*
X139521336Y-104298246D01*
X139529116Y-104292569D01*
X139536749Y-104286500D01*
X139544235Y-104280039D01*
X139551573Y-104273187D01*
X139558764Y-104265943D01*
X139565808Y-104258308D01*
X139572704Y-104250281D01*
X139579453Y-104241863D01*
X139586055Y-104233053D01*
X139592510Y-104223852D01*
X139598817Y-104214259D01*
X139604977Y-104204274D01*
X139610989Y-104193898D01*
X139616855Y-104183130D01*
X139622572Y-104171971D01*
X139628143Y-104160420D01*
X139633566Y-104148478D01*
X139638842Y-104136144D01*
X139642167Y-104128265D01*
X139645448Y-104120577D01*
X139648685Y-104113081D01*
X139651879Y-104105775D01*
X139658136Y-104091738D01*
X139664219Y-104078466D01*
X139670128Y-104065958D01*
X139675864Y-104054216D01*
X139681425Y-104043238D01*
X139686812Y-104033025D01*
X139692025Y-104023576D01*
X139697064Y-104014893D01*
X139701929Y-104006974D01*
X139706620Y-103999820D01*
X139711137Y-103993431D01*
X139717586Y-103985281D01*
X139723644Y-103978852D01*
X139725601Y-103977012D01*
X139731517Y-103971845D01*
X139739507Y-103965772D01*
X139747613Y-103960634D01*
X139755835Y-103956430D01*
X139764173Y-103953160D01*
X139772627Y-103950825D01*
X139781196Y-103949423D01*
X139789882Y-103948956D01*
X139794929Y-103949104D01*
X139804674Y-103950289D01*
X139813955Y-103952658D01*
X139822773Y-103956212D01*
X139831126Y-103960950D01*
X139839015Y-103966873D01*
X139846440Y-103973980D01*
X139851704Y-103980088D01*
X139856707Y-103986863D01*
X139859830Y-103991747D01*
X139864137Y-103999620D01*
X139867991Y-104008148D01*
X139871391Y-104017333D01*
X139874338Y-104027174D01*
X139876832Y-104037671D01*
X139878872Y-104048824D01*
X139879980Y-104056624D01*
X139880887Y-104064715D01*
X139881592Y-104073098D01*
X139882096Y-104081772D01*
X139882398Y-104090738D01*
X139882499Y-104099996D01*
X139882414Y-104108248D01*
X139882157Y-104116445D01*
X139881730Y-104124586D01*
X139881131Y-104132673D01*
X139880362Y-104140703D01*
X139879422Y-104148679D01*
X139878310Y-104156599D01*
X139877028Y-104164464D01*
X139875575Y-104172273D01*
X139873951Y-104180028D01*
X139872155Y-104187726D01*
X139870189Y-104195370D01*
X139868052Y-104202958D01*
X139865744Y-104210491D01*
X139863265Y-104217968D01*
X139860615Y-104225390D01*
X139857794Y-104232757D01*
X139854802Y-104240069D01*
X139851639Y-104247325D01*
X139848305Y-104254525D01*
X139844800Y-104261671D01*
X139841124Y-104268761D01*
X139837278Y-104275796D01*
X139833260Y-104282775D01*
X139829071Y-104289699D01*
X139824711Y-104296568D01*
X139820181Y-104303381D01*
X139815479Y-104310140D01*
X139810606Y-104316842D01*
X139805563Y-104323490D01*
X139800348Y-104330082D01*
X139794963Y-104336618D01*
X139978829Y-104336618D01*
X139984602Y-104324688D01*
X139990003Y-104312344D01*
X139995031Y-104299586D01*
X139999687Y-104286414D01*
X140003970Y-104272829D01*
X140007881Y-104258830D01*
X140011420Y-104244418D01*
X140014586Y-104229591D01*
X140017379Y-104214351D01*
X140018636Y-104206576D01*
X140019800Y-104198698D01*
X140020871Y-104190716D01*
X140021849Y-104182630D01*
X140022733Y-104174441D01*
X140023525Y-104166149D01*
X140024223Y-104157754D01*
X140024829Y-104149254D01*
X140025341Y-104140652D01*
X140025760Y-104131946D01*
X140026086Y-104123137D01*
X140026318Y-104114224D01*
X140026458Y-104105208D01*
X140026505Y-104096088D01*
X140026442Y-104086134D01*
X140026252Y-104076322D01*
X140025936Y-104066654D01*
X140025494Y-104057128D01*
X140024926Y-104047746D01*
X140024231Y-104038507D01*
X140023410Y-104029411D01*
X140022463Y-104020458D01*
X140021389Y-104011649D01*
X140020189Y-104002982D01*
X140018862Y-103994458D01*
X140017410Y-103986078D01*
X140015831Y-103977841D01*
X140014125Y-103969747D01*
X140012294Y-103961796D01*
X140010336Y-103953988D01*
X140008252Y-103946323D01*
X140006041Y-103938801D01*
X140001241Y-103924187D01*
X139995935Y-103910145D01*
X139990125Y-103896676D01*
X139983809Y-103883779D01*
X139976988Y-103871455D01*
X139969661Y-103859703D01*
X139961829Y-103848524D01*
X139953517Y-103837971D01*
X139944747Y-103828099D01*
X139935522Y-103818908D01*
X139925840Y-103810397D01*
X139915702Y-103802568D01*
X139905107Y-103795419D01*
X139894056Y-103788951D01*
X139882548Y-103783164D01*
X139870584Y-103778058D01*
X139858163Y-103773633D01*
X139845286Y-103769888D01*
X139831953Y-103766824D01*
X139818163Y-103764441D01*
X139803917Y-103762739D01*
X139789214Y-103761718D01*
X139774055Y-103761378D01*
X139763644Y-103761565D01*
X139753414Y-103762126D01*
X139743365Y-103763061D01*
X139733499Y-103764370D01*
X139723814Y-103766053D01*
X139714310Y-103768110D01*
X139704989Y-103770541D01*
X139695849Y-103773346D01*
X139686890Y-103776525D01*
X139678114Y-103780078D01*
X139669519Y-103784005D01*
X139661105Y-103788306D01*
X139652873Y-103792980D01*
X139644823Y-103798029D01*
X139636955Y-103803452D01*
X139629268Y-103809249D01*
X139621696Y-103815545D01*
X139614171Y-103822463D01*
X139606693Y-103830004D01*
X139599263Y-103838168D01*
X139591880Y-103846954D01*
X139584544Y-103856364D01*
X139577256Y-103866396D01*
X139570015Y-103877051D01*
X139562821Y-103888329D01*
X139555675Y-103900230D01*
X139548576Y-103912753D01*
X139541524Y-103925900D01*
X139534519Y-103939669D01*
X139531035Y-103946787D01*
X139527562Y-103954061D01*
X139524102Y-103961490D01*
X139520653Y-103969076D01*
X139517215Y-103976817D01*
X139513790Y-103984713D01*
X139508149Y-103998025D01*
X139502656Y-104010701D01*
X139497311Y-104022742D01*
X139492114Y-104034148D01*
X139487065Y-104044919D01*
X139482164Y-104055055D01*
X139477411Y-104064556D01*
X139472806Y-104073422D01*
X139468350Y-104081653D01*
X139464041Y-104089249D01*
X139457856Y-104099453D01*
X139452004Y-104108227D01*
X139446485Y-104115573D01*
X139441299Y-104121489D01*
X139434527Y-104127947D01*
X139427597Y-104133543D01*
X139420508Y-104138278D01*
X139413260Y-104142152D01*
X139405853Y-104145166D01*
X139398288Y-104147318D01*
X139390564Y-104148609D01*
X139382681Y-104149040D01*
X139377785Y-104148883D01*
X139368369Y-104147625D01*
X139359455Y-104145109D01*
X139351040Y-104141336D01*
X139343127Y-104136304D01*
X139335714Y-104130015D01*
X139328802Y-104122468D01*
X139323947Y-104115982D01*
X139319373Y-104108789D01*
X139316510Y-104103627D01*
X139312562Y-104095486D01*
X139309029Y-104086868D01*
X139305912Y-104077772D01*
X139303211Y-104068199D01*
X139300925Y-104058149D01*
X139299055Y-104047621D01*
X139297600Y-104036616D01*
X139296561Y-104025133D01*
X139296100Y-104017213D01*
X139295822Y-104009080D01*
X139295730Y-104000736D01*
X139295974Y-103986415D01*
X139296707Y-103972321D01*
X139297928Y-103958455D01*
X139299638Y-103944816D01*
X139301836Y-103931405D01*
X139304523Y-103918221D01*
X139307698Y-103905265D01*
X139311362Y-103892536D01*
X139315514Y-103880035D01*
X139320154Y-103867761D01*
X139325284Y-103855714D01*
X139330901Y-103843895D01*
X139337007Y-103832304D01*
X139343602Y-103820939D01*
X139350685Y-103809803D01*
X139358256Y-103798893D01*
X139184160Y-103798893D01*
X139180161Y-103809601D01*
X139176421Y-103820622D01*
X139172938Y-103831956D01*
X139169713Y-103843602D01*
X139166746Y-103855562D01*
X139164037Y-103867834D01*
X139161587Y-103880419D01*
X139159394Y-103893318D01*
X139157459Y-103906529D01*
X139155782Y-103920053D01*
X139154363Y-103933890D01*
X139153202Y-103948040D01*
X139152299Y-103962503D01*
X139151654Y-103977279D01*
X139151267Y-103992368D01*
X139151138Y-104007770D01*
X138796852Y-104007770D01*
X138796852Y-103368635D01*
X139388738Y-103368635D01*
X139389093Y-103384319D01*
X139390161Y-103399666D01*
X139391939Y-103414678D01*
X139394429Y-103429354D01*
X139397630Y-103443694D01*
X139401542Y-103457698D01*
X139406166Y-103471367D01*
X139411501Y-103484699D01*
X139417548Y-103497696D01*
X139424306Y-103510357D01*
X139431775Y-103522682D01*
X139439956Y-103534672D01*
X139448848Y-103546325D01*
X139458451Y-103557643D01*
X139468766Y-103568624D01*
X139479792Y-103579270D01*
X139485524Y-103584415D01*
X139497310Y-103594216D01*
X139509525Y-103603363D01*
X139522169Y-103611856D01*
X139535242Y-103619696D01*
X139548745Y-103626883D01*
X139562676Y-103633417D01*
X139577035Y-103639297D01*
X139584376Y-103641992D01*
X139591824Y-103644524D01*
X139599380Y-103646892D01*
X139607042Y-103649097D01*
X139614812Y-103651139D01*
X139622689Y-103653017D01*
X139630673Y-103654732D01*
X139638765Y-103656284D01*
X139646964Y-103657672D01*
X139655270Y-103658897D01*
X139663683Y-103659959D01*
X139672203Y-103660857D01*
X139680831Y-103661592D01*
X139689566Y-103662164D01*
X139698408Y-103662572D01*
X139707357Y-103662817D01*
X139716414Y-103662899D01*
X139725486Y-103662822D01*
X139734433Y-103662591D01*
X139743255Y-103662207D01*
X139751951Y-103661669D01*
X139760523Y-103660977D01*
X139768969Y-103660131D01*
X139777290Y-103659131D01*
X139785486Y-103657978D01*
X139793557Y-103656670D01*
X139801502Y-103655209D01*
X139809322Y-103653594D01*
X139817018Y-103651826D01*
X139832032Y-103647827D01*
X139846547Y-103643213D01*
X139860560Y-103637984D01*
X139874073Y-103632140D01*
X139887085Y-103625680D01*
X139899596Y-103618606D01*
X139911607Y-103610916D01*
X139923117Y-103602611D01*
X139934126Y-103593691D01*
X139944635Y-103584155D01*
X139954549Y-103574041D01*
X139963823Y-103563434D01*
X139972458Y-103552334D01*
X139980453Y-103540741D01*
X139987808Y-103528655D01*
X139994524Y-103516075D01*
X140000600Y-103503003D01*
X140006037Y-103489438D01*
X140010834Y-103475379D01*
X140014992Y-103460828D01*
X140018510Y-103445783D01*
X140020029Y-103438076D01*
X140021388Y-103430245D01*
X140022587Y-103422292D01*
X140023626Y-103414215D01*
X140024506Y-103406014D01*
X140025226Y-103397691D01*
X140025785Y-103389244D01*
X140026185Y-103380674D01*
X140026425Y-103371981D01*
X140026505Y-103363164D01*
X140026459Y-103354982D01*
X140026322Y-103346899D01*
X140026093Y-103338914D01*
X140025772Y-103331028D01*
X140024856Y-103315551D01*
X140023574Y-103300467D01*
X140021925Y-103285777D01*
X140019910Y-103271482D01*
X140017529Y-103257580D01*
X140014781Y-103244071D01*
X140011667Y-103230957D01*
X140008187Y-103218237D01*
X140004340Y-103205910D01*
X140000127Y-103193977D01*
X139995547Y-103182438D01*
X139990601Y-103171293D01*
X139985289Y-103160542D01*
X139979610Y-103150184D01*
X139848891Y-103150184D01*
X139854949Y-103159605D01*
X139860615Y-103169205D01*
X139865891Y-103178985D01*
X139870775Y-103188946D01*
X139875270Y-103199086D01*
X139879373Y-103209407D01*
X139883085Y-103219908D01*
X139886407Y-103230589D01*
X139889338Y-103241450D01*
X139891878Y-103252492D01*
X139894027Y-103263713D01*
X139895786Y-103275115D01*
X139897154Y-103286696D01*
X139898131Y-103298458D01*
X139898717Y-103310400D01*
X139898912Y-103322522D01*
X139898779Y-103332148D01*
X139898379Y-103341486D01*
X139897712Y-103350536D01*
X139896778Y-103359299D01*
X139895578Y-103367774D01*
X139894111Y-103375961D01*
X139892377Y-103383860D01*
X139888109Y-103398796D01*
X139882773Y-103412580D01*
X139876371Y-103425214D01*
X139868902Y-103436696D01*
X139860366Y-103447028D01*
X139850762Y-103456208D01*
X139840092Y-103464238D01*
X139828355Y-103471116D01*
X139815550Y-103476844D01*
X139801679Y-103481420D01*
X139786740Y-103484846D01*
X139778871Y-103486127D01*
X139770735Y-103487120D01*
X139762332Y-103487826D01*
X139762332Y-103100163D01*
X139686128Y-103100163D01*
X139677515Y-103100233D01*
X139669019Y-103100441D01*
X139660638Y-103100789D01*
X139652374Y-103101275D01*
X139644225Y-103101900D01*
X139636192Y-103102664D01*
X139628276Y-103103567D01*
X139620475Y-103104609D01*
X139605222Y-103107109D01*
X139590434Y-103110165D01*
X139576109Y-103113777D01*
X139562248Y-103117944D01*
X139548851Y-103122667D01*
X139535919Y-103127946D01*
X139523450Y-103133780D01*
X139511445Y-103140170D01*
X139499905Y-103147116D01*
X139488829Y-103154617D01*
X139478216Y-103162674D01*
X139468068Y-103171287D01*
X139463187Y-103175786D01*
X139453891Y-103185107D01*
X139445214Y-103194858D01*
X139437157Y-103205040D01*
X139429720Y-103215653D01*
X139422902Y-103226695D01*
X139416705Y-103238169D01*
X139411127Y-103250073D01*
X139406169Y-103262407D01*
X139401830Y-103275172D01*
X139398112Y-103288367D01*
X139395013Y-103301992D01*
X139392534Y-103316049D01*
X139390675Y-103330535D01*
X139389435Y-103345452D01*
X139388815Y-103360800D01*
X139388738Y-103368635D01*
X138796852Y-103368635D01*
X138796852Y-102613046D01*
X139388738Y-102613046D01*
X139388847Y-102621057D01*
X139389718Y-102636713D01*
X139391462Y-102651880D01*
X139394077Y-102666559D01*
X139397563Y-102680750D01*
X139401921Y-102694452D01*
X139407151Y-102707665D01*
X139413253Y-102720390D01*
X139420226Y-102732627D01*
X139428071Y-102744375D01*
X139436787Y-102755635D01*
X139446375Y-102766406D01*
X139456835Y-102776688D01*
X139468166Y-102786482D01*
X139480369Y-102795788D01*
X139486797Y-102800258D01*
X139493444Y-102804605D01*
X139500308Y-102808831D01*
X139500308Y-102810980D01*
X139401243Y-102810980D01*
X139401243Y-102986053D01*
X140014000Y-102986053D01*
X140014000Y-102810980D01*
X139665416Y-102810980D01*
X139657832Y-102810849D01*
X139646777Y-102810159D01*
X139636107Y-102808879D01*
X139625821Y-102807009D01*
X139615920Y-102804547D01*
X139606404Y-102801495D01*
X139597272Y-102797852D01*
X139588525Y-102793618D01*
X139580163Y-102788794D01*
X139572186Y-102783378D01*
X139564593Y-102777372D01*
X139559813Y-102773080D01*
X139553222Y-102766389D01*
X139547325Y-102759396D01*
X139542121Y-102752101D01*
X139537611Y-102744503D01*
X139533796Y-102736603D01*
X139530673Y-102728401D01*
X139528245Y-102719897D01*
X139526511Y-102711091D01*
X139525470Y-102701982D01*
X139525123Y-102692571D01*
X139525268Y-102686007D01*
X139526425Y-102673505D01*
X139528739Y-102661837D01*
X139532210Y-102651001D01*
X139536839Y-102641000D01*
X139542624Y-102631831D01*
X139549567Y-102623496D01*
X139557666Y-102615995D01*
X139566923Y-102609327D01*
X139577337Y-102603493D01*
X139588908Y-102598492D01*
X139601636Y-102594325D01*
X139615521Y-102590991D01*
X139630564Y-102588490D01*
X139638519Y-102587553D01*
X139646763Y-102586823D01*
X139655297Y-102586302D01*
X139664120Y-102585990D01*
X139673232Y-102585886D01*
X140014000Y-102585886D01*
X140014000Y-102410812D01*
X139640406Y-102410812D01*
X139624922Y-102411010D01*
X139609930Y-102411602D01*
X139595430Y-102412590D01*
X139581421Y-102413972D01*
X139567904Y-102415750D01*
X139554878Y-102417922D01*
X139542344Y-102420490D01*
X139530301Y-102423452D01*
X139518750Y-102426809D01*
X139507690Y-102430562D01*
X139497122Y-102434709D01*
X139487046Y-102439252D01*
X139477461Y-102444189D01*
X139468367Y-102449521D01*
X139459765Y-102455248D01*
X139451655Y-102461371D01*
X139444036Y-102467888D01*
X139436909Y-102474800D01*
X139430273Y-102482108D01*
X139424129Y-102489810D01*
X139418476Y-102497907D01*
X139413315Y-102506399D01*
X139408645Y-102515286D01*
X139404467Y-102524569D01*
X139400781Y-102534246D01*
X139397586Y-102544318D01*
X139394882Y-102554785D01*
X139392670Y-102565647D01*
X139390950Y-102576904D01*
X139389721Y-102588556D01*
X139388984Y-102600603D01*
X139388738Y-102613046D01*
X138796852Y-102613046D01*
X138796852Y-102009668D01*
X139388738Y-102009668D01*
X139388937Y-102024244D01*
X139389535Y-102038467D01*
X139390531Y-102052338D01*
X139391925Y-102065856D01*
X139393718Y-102079022D01*
X139395909Y-102091834D01*
X139398499Y-102104295D01*
X139401487Y-102116402D01*
X139404874Y-102128157D01*
X139408659Y-102139559D01*
X139412842Y-102150609D01*
X139417424Y-102161306D01*
X139422404Y-102171651D01*
X139427783Y-102181642D01*
X139433560Y-102191282D01*
X139439736Y-102200568D01*
X139446237Y-102209370D01*
X139453041Y-102217604D01*
X139460147Y-102225270D01*
X139467555Y-102232369D01*
X139475265Y-102238899D01*
X139483278Y-102244862D01*
X139491593Y-102250256D01*
X139500210Y-102255083D01*
X139509130Y-102259342D01*
X139518351Y-102263033D01*
X139527875Y-102266157D01*
X139537702Y-102268712D01*
X139547830Y-102270700D01*
X139558261Y-102272119D01*
X139568994Y-102272971D01*
X139580029Y-102273255D01*
X139589118Y-102273090D01*
X139597968Y-102272595D01*
X139606581Y-102271771D01*
X139614956Y-102270617D01*
X139623092Y-102269133D01*
X139630990Y-102267320D01*
X139638650Y-102265177D01*
X139649694Y-102261343D01*
X139660202Y-102256769D01*
X139670174Y-102251452D01*
X139679610Y-102245393D01*
X139688510Y-102238592D01*
X139696875Y-102231050D01*
X139702241Y-102225499D01*
X139707545Y-102219396D01*
X139712786Y-102212743D01*
X139717965Y-102205539D01*
X139723081Y-102197783D01*
X139728135Y-102189477D01*
X139733126Y-102180619D01*
X139738054Y-102171210D01*
X139742920Y-102161250D01*
X139747723Y-102150740D01*
X139752463Y-102139678D01*
X139757142Y-102128065D01*
X139761757Y-102115901D01*
X139766310Y-102103186D01*
X139770800Y-102089919D01*
X139775228Y-102076102D01*
X139777000Y-102070536D01*
X139780624Y-102059935D01*
X139784354Y-102050040D01*
X139788192Y-102040852D01*
X139792137Y-102032370D01*
X139796188Y-102024596D01*
X139800346Y-102017528D01*
X139806784Y-102008251D01*
X139813462Y-102000565D01*
X139820381Y-101994469D01*
X139827540Y-101989964D01*
X139834939Y-101987048D01*
X139845179Y-101985635D01*
X139848797Y-101985742D01*
X139858963Y-101987347D01*
X139868096Y-101990880D01*
X139876194Y-101996339D01*
X139883258Y-102003725D01*
X139889289Y-102013039D01*
X139892735Y-102020318D01*
X139895722Y-102028453D01*
X139898249Y-102037445D01*
X139900317Y-102047294D01*
X139901925Y-102057998D01*
X139903074Y-102069559D01*
X139903763Y-102081977D01*
X139903993Y-102095251D01*
X139903797Y-102106158D01*
X139903211Y-102117095D01*
X139902234Y-102128061D01*
X139900866Y-102139056D01*
X139899108Y-102150079D01*
X139896958Y-102161132D01*
X139894418Y-102172214D01*
X139891487Y-102183325D01*
X139888166Y-102194464D01*
X139884453Y-102205633D01*
X139880350Y-102216831D01*
X139875856Y-102228058D01*
X139870971Y-102239314D01*
X139865695Y-102250598D01*
X139860029Y-102261912D01*
X139853972Y-102273255D01*
X139996219Y-102273255D01*
X139999886Y-102262620D01*
X140003317Y-102251868D01*
X140006511Y-102240999D01*
X140009469Y-102230012D01*
X140012190Y-102218907D01*
X140014674Y-102207685D01*
X140016922Y-102196345D01*
X140018933Y-102184888D01*
X140020708Y-102173313D01*
X140022246Y-102161621D01*
X140023547Y-102149811D01*
X140024612Y-102137883D01*
X140025440Y-102125838D01*
X140026032Y-102113676D01*
X140026386Y-102101396D01*
X140026505Y-102088998D01*
X140026305Y-102073346D01*
X140025705Y-102058092D01*
X140024705Y-102043237D01*
X140023305Y-102028780D01*
X140021505Y-102014722D01*
X140019306Y-102001062D01*
X140016706Y-101987800D01*
X140013706Y-101974937D01*
X140010307Y-101962472D01*
X140006507Y-101950406D01*
X140002308Y-101938738D01*
X139997709Y-101927468D01*
X139992709Y-101916597D01*
X139987310Y-101906124D01*
X139981511Y-101896050D01*
X139975311Y-101886374D01*
X139968726Y-101877194D01*
X139961817Y-101868606D01*
X139954584Y-101860610D01*
X139947028Y-101853206D01*
X139939148Y-101846395D01*
X139930945Y-101840176D01*
X139922418Y-101834549D01*
X139913567Y-101829515D01*
X139904392Y-101825072D01*
X139894894Y-101821222D01*
X139885073Y-101817965D01*
X139874928Y-101815300D01*
X139864459Y-101813227D01*
X139853666Y-101811746D01*
X139842550Y-101810857D01*
X139831110Y-101810561D01*
X139825172Y-101810647D01*
X139816432Y-101811096D01*
X139807895Y-101811929D01*
X139799561Y-101813147D01*
X139791429Y-101814750D01*
X139783500Y-101816738D01*
X139775774Y-101819110D01*
X139768251Y-101821867D01*
X139760930Y-101825008D01*
X139753811Y-101828534D01*
X139746896Y-101832445D01*
X139742408Y-101835259D01*
X139735882Y-101839771D01*
X139729603Y-101844633D01*
X139723572Y-101849846D01*
X139717788Y-101855409D01*
X139712251Y-101861322D01*
X139706962Y-101867586D01*
X139701920Y-101874200D01*
X139697125Y-101881164D01*
X139692577Y-101888479D01*
X139688277Y-101896144D01*
X139684058Y-101904312D01*
X139679752Y-101913207D01*
X139675361Y-101922831D01*
X139670884Y-101933183D01*
X139667852Y-101940489D01*
X139664781Y-101948119D01*
X139661672Y-101956072D01*
X139658525Y-101964349D01*
X139655340Y-101972949D01*
X139652117Y-101981873D01*
X139648856Y-101991121D01*
X139645556Y-102000692D01*
X139642218Y-102010587D01*
X139638842Y-102020806D01*
X139635408Y-102030175D01*
X139631845Y-102038941D01*
X139628154Y-102047101D01*
X139624334Y-102054658D01*
X139618365Y-102064859D01*
X139612107Y-102073699D01*
X139605561Y-102081180D01*
X139598726Y-102087301D01*
X139591602Y-102092061D01*
X139584190Y-102095461D01*
X139576490Y-102097502D01*
X139568501Y-102098182D01*
X139560689Y-102097552D01*
X139551969Y-102095134D01*
X139543964Y-102090902D01*
X139537839Y-102085991D01*
X139532210Y-102079820D01*
X139527077Y-102072390D01*
X139523368Y-102065682D01*
X139520153Y-102058456D01*
X139517432Y-102050710D01*
X139515207Y-102042445D01*
X139513476Y-102033662D01*
X139512239Y-102024359D01*
X139511497Y-102014538D01*
X139511250Y-102004197D01*
X139511397Y-101993604D01*
X139511836Y-101983122D01*
X139512569Y-101972751D01*
X139513595Y-101962493D01*
X139514914Y-101952345D01*
X139516526Y-101942309D01*
X139518431Y-101932384D01*
X139520629Y-101922571D01*
X139523120Y-101912869D01*
X139525905Y-101903279D01*
X139528982Y-101893800D01*
X139532353Y-101884433D01*
X139536016Y-101875176D01*
X139539973Y-101866032D01*
X139544223Y-101856999D01*
X139548766Y-101848077D01*
X139412771Y-101848077D01*
X139409861Y-101857821D01*
X139407138Y-101867613D01*
X139404604Y-101877453D01*
X139402257Y-101887339D01*
X139400097Y-101897273D01*
X139398126Y-101907254D01*
X139396342Y-101917282D01*
X139394746Y-101927358D01*
X139393338Y-101937481D01*
X139392118Y-101947652D01*
X139391085Y-101957869D01*
X139390240Y-101968135D01*
X139389583Y-101978447D01*
X139389113Y-101988807D01*
X139388832Y-101999214D01*
X139388738Y-102009668D01*
X138796852Y-102009668D01*
X138796852Y-101438921D01*
X139388738Y-101438921D01*
X139389093Y-101454605D01*
X139390161Y-101469952D01*
X139391939Y-101484964D01*
X139394429Y-101499640D01*
X139397630Y-101513980D01*
X139401542Y-101527984D01*
X139406166Y-101541653D01*
X139411501Y-101554986D01*
X139417548Y-101567982D01*
X139424306Y-101580643D01*
X139431775Y-101592968D01*
X139439956Y-101604958D01*
X139448848Y-101616611D01*
X139458451Y-101627929D01*
X139468766Y-101638910D01*
X139479792Y-101649556D01*
X139485524Y-101654702D01*
X139497310Y-101664502D01*
X139509525Y-101673649D01*
X139522169Y-101682142D01*
X139535242Y-101689982D01*
X139548745Y-101697169D01*
X139562676Y-101703703D01*
X139577035Y-101709583D01*
X139584376Y-101712278D01*
X139591824Y-101714810D01*
X139599380Y-101717178D01*
X139607042Y-101719383D01*
X139614812Y-101721425D01*
X139622689Y-101723303D01*
X139630673Y-101725018D01*
X139638765Y-101726570D01*
X139646964Y-101727958D01*
X139655270Y-101729183D01*
X139663683Y-101730245D01*
X139672203Y-101731143D01*
X139680831Y-101731878D01*
X139689566Y-101732450D01*
X139698408Y-101732858D01*
X139707357Y-101733103D01*
X139716414Y-101733185D01*
X139725486Y-101733108D01*
X139734433Y-101732878D01*
X139743255Y-101732493D01*
X139751951Y-101731955D01*
X139760523Y-101731263D01*
X139768969Y-101730417D01*
X139777290Y-101729417D01*
X139785486Y-101728264D01*
X139793557Y-101726956D01*
X139801502Y-101725495D01*
X139809322Y-101723880D01*
X139817018Y-101722112D01*
X139832032Y-101718113D01*
X139846547Y-101713499D01*
X139860560Y-101708270D01*
X139874073Y-101702426D01*
X139887085Y-101695966D01*
X139899596Y-101688892D01*
X139911607Y-101681202D01*
X139923117Y-101672897D01*
X139934126Y-101663977D01*
X139944635Y-101654441D01*
X139954549Y-101644327D01*
X139963823Y-101633720D01*
X139972458Y-101622620D01*
X139980453Y-101611027D01*
X139987808Y-101598941D01*
X139994524Y-101586362D01*
X140000600Y-101573289D01*
X140006037Y-101559724D01*
X140010834Y-101545665D01*
X140014992Y-101531114D01*
X140018510Y-101516069D01*
X140020029Y-101508362D01*
X140021388Y-101500532D01*
X140022587Y-101492578D01*
X140023626Y-101484501D01*
X140024506Y-101476301D01*
X140025226Y-101467977D01*
X140025785Y-101459530D01*
X140026185Y-101450960D01*
X140026425Y-101442267D01*
X140026505Y-101433450D01*
X140026459Y-101425269D01*
X140026322Y-101417185D01*
X140026093Y-101409200D01*
X140025772Y-101401314D01*
X140024856Y-101385837D01*
X140023574Y-101370753D01*
X140021925Y-101356063D01*
X140019910Y-101341768D01*
X140017529Y-101327866D01*
X140014781Y-101314357D01*
X140011667Y-101301243D01*
X140008187Y-101288523D01*
X140004340Y-101276196D01*
X140000127Y-101264263D01*
X139995547Y-101252724D01*
X139990601Y-101241579D01*
X139985289Y-101230828D01*
X139979610Y-101220471D01*
X139848891Y-101220471D01*
X139854949Y-101229891D01*
X139860615Y-101239491D01*
X139865891Y-101249271D01*
X139870775Y-101259232D01*
X139875270Y-101269373D01*
X139879373Y-101279693D01*
X139883085Y-101290194D01*
X139886407Y-101300875D01*
X139889338Y-101311736D01*
X139891878Y-101322778D01*
X139894027Y-101333999D01*
X139895786Y-101345401D01*
X139897154Y-101356982D01*
X139898131Y-101368744D01*
X139898717Y-101380686D01*
X139898912Y-101392808D01*
X139898779Y-101402434D01*
X139898379Y-101411772D01*
X139897712Y-101420823D01*
X139896778Y-101429585D01*
X139895578Y-101438060D01*
X139894111Y-101446247D01*
X139892377Y-101454146D01*
X139888109Y-101469082D01*
X139882773Y-101482866D01*
X139876371Y-101495500D01*
X139868902Y-101506982D01*
X139860366Y-101517314D01*
X139850762Y-101526494D01*
X139840092Y-101534524D01*
X139828355Y-101541402D01*
X139815550Y-101547130D01*
X139801679Y-101551706D01*
X139786740Y-101555132D01*
X139778871Y-101556413D01*
X139770735Y-101557406D01*
X139762332Y-101558112D01*
X139762332Y-101170450D01*
X139686128Y-101170450D01*
X139677515Y-101170519D01*
X139669019Y-101170727D01*
X139660638Y-101171075D01*
X139652374Y-101171561D01*
X139644225Y-101172186D01*
X139636192Y-101172950D01*
X139628276Y-101173853D01*
X139620475Y-101174895D01*
X139605222Y-101177395D01*
X139590434Y-101180451D01*
X139576109Y-101184063D01*
X139562248Y-101188230D01*
X139548851Y-101192954D01*
X139535919Y-101198232D01*
X139523450Y-101204067D01*
X139511445Y-101210457D01*
X139499905Y-101217402D01*
X139488829Y-101224904D01*
X139478216Y-101232961D01*
X139468068Y-101241573D01*
X139463187Y-101246072D01*
X139453891Y-101255393D01*
X139445214Y-101265144D01*
X139437157Y-101275326D01*
X139429720Y-101285939D01*
X139422902Y-101296982D01*
X139416705Y-101308455D01*
X139411127Y-101320359D01*
X139406169Y-101332693D01*
X139401830Y-101345458D01*
X139398112Y-101358653D01*
X139395013Y-101372279D01*
X139392534Y-101386335D01*
X139390675Y-101400821D01*
X139389435Y-101415738D01*
X139388815Y-101431086D01*
X139388738Y-101438921D01*
X138796852Y-101438921D01*
X138796852Y-100816165D01*
X140380791Y-100816165D01*
X140380791Y-107119266D01*
G37*
G36*
X138532461Y-85405824D02*
G01*
X138544458Y-85407477D01*
X138555627Y-85410233D01*
X138565969Y-85414090D01*
X138575484Y-85419050D01*
X138584172Y-85425112D01*
X138592032Y-85432276D01*
X138599064Y-85440542D01*
X138605270Y-85449910D01*
X138610648Y-85460380D01*
X138615198Y-85471953D01*
X138618921Y-85484628D01*
X138621817Y-85498404D01*
X138623886Y-85513283D01*
X138624610Y-85521136D01*
X138625127Y-85529264D01*
X138625437Y-85537668D01*
X138625540Y-85546348D01*
X138399860Y-85546348D01*
X138401009Y-85538483D01*
X138403106Y-85527053D01*
X138405648Y-85516062D01*
X138408638Y-85505510D01*
X138412074Y-85495399D01*
X138415956Y-85485727D01*
X138420285Y-85476494D01*
X138425060Y-85467702D01*
X138430282Y-85459348D01*
X138435950Y-85451435D01*
X138442065Y-85443961D01*
X138446329Y-85439276D01*
X138452872Y-85432816D01*
X138459590Y-85427035D01*
X138466482Y-85421935D01*
X138473550Y-85417514D01*
X138480793Y-85413774D01*
X138488212Y-85410714D01*
X138495805Y-85408333D01*
X138503574Y-85406633D01*
X138511518Y-85405613D01*
X138519637Y-85405273D01*
X138532461Y-85405824D01*
G37*
G36*
X136228604Y-85207226D02*
G01*
X136243449Y-85208059D01*
X136257932Y-85209448D01*
X136272053Y-85211393D01*
X136285812Y-85213894D01*
X136299210Y-85216950D01*
X136312245Y-85220561D01*
X136324919Y-85224729D01*
X136337231Y-85229452D01*
X136349182Y-85234730D01*
X136360770Y-85240565D01*
X136371997Y-85246955D01*
X136382862Y-85253900D01*
X136393365Y-85261402D01*
X136403507Y-85269459D01*
X136413286Y-85278071D01*
X136418023Y-85282559D01*
X136427044Y-85291862D01*
X136435465Y-85301601D01*
X136443284Y-85311777D01*
X136450501Y-85322389D01*
X136457117Y-85333438D01*
X136463131Y-85344923D01*
X136468544Y-85356845D01*
X136473356Y-85369204D01*
X136477566Y-85381999D01*
X136481175Y-85395231D01*
X136484182Y-85408900D01*
X136486588Y-85423005D01*
X136488392Y-85437546D01*
X136489595Y-85452525D01*
X136490196Y-85467939D01*
X136490272Y-85475810D01*
X136490200Y-85483964D01*
X136489984Y-85492011D01*
X136489624Y-85499951D01*
X136489121Y-85507785D01*
X136487682Y-85523133D01*
X136485668Y-85538056D01*
X136483078Y-85552552D01*
X136479913Y-85566623D01*
X136476172Y-85580268D01*
X136471856Y-85593487D01*
X136466964Y-85606280D01*
X136461497Y-85618647D01*
X136455454Y-85630588D01*
X136448836Y-85642103D01*
X136441642Y-85653193D01*
X136433873Y-85663856D01*
X136425528Y-85674094D01*
X136416608Y-85683905D01*
X136407207Y-85693204D01*
X136397371Y-85701903D01*
X136387100Y-85710002D01*
X136376393Y-85717501D01*
X136365252Y-85724400D01*
X136353676Y-85730699D01*
X136341664Y-85736398D01*
X136329218Y-85741498D01*
X136316336Y-85745997D01*
X136303020Y-85749897D01*
X136289268Y-85753196D01*
X136275081Y-85755896D01*
X136260460Y-85757996D01*
X136245403Y-85759495D01*
X136229911Y-85760395D01*
X136222002Y-85760620D01*
X136213984Y-85760695D01*
X136115115Y-85760695D01*
X136115115Y-85206948D01*
X136213398Y-85206948D01*
X136228604Y-85207226D01*
G37*
G36*
X139637914Y-86275791D02*
G01*
X135585755Y-86275791D01*
X135585755Y-85058644D01*
X135940041Y-85058644D01*
X135940041Y-85206948D01*
X135940041Y-85909000D01*
X136229225Y-85909000D01*
X136801339Y-85909000D01*
X136976413Y-85909000D01*
X136976413Y-85610437D01*
X136976448Y-85605318D01*
X136976727Y-85595287D01*
X136977286Y-85585533D01*
X136978124Y-85576055D01*
X136979241Y-85566853D01*
X136980638Y-85557927D01*
X136982314Y-85549278D01*
X136984269Y-85540905D01*
X136986504Y-85532808D01*
X136989018Y-85524988D01*
X136991812Y-85517444D01*
X136994885Y-85510176D01*
X137000018Y-85499793D01*
X137005780Y-85490031D01*
X137012170Y-85480891D01*
X137016763Y-85475188D01*
X137024025Y-85467325D01*
X137031734Y-85460289D01*
X137039889Y-85454081D01*
X137048490Y-85448700D01*
X137057538Y-85444148D01*
X137067033Y-85440423D01*
X137076974Y-85437526D01*
X137087361Y-85435456D01*
X137098196Y-85434214D01*
X137109476Y-85433801D01*
X137112381Y-85433825D01*
X137120934Y-85434191D01*
X137129243Y-85434997D01*
X137137308Y-85436243D01*
X137145130Y-85437928D01*
X137152707Y-85440053D01*
X137162431Y-85443570D01*
X137171721Y-85447869D01*
X137180578Y-85452949D01*
X137189002Y-85458811D01*
X137189002Y-85296243D01*
X137277320Y-85296243D01*
X137277320Y-85909000D01*
X137452393Y-85909000D01*
X137452393Y-85296243D01*
X137547745Y-85296243D01*
X137760334Y-85909000D01*
X137959246Y-85909000D01*
X138069132Y-85611414D01*
X138225373Y-85611414D01*
X138225450Y-85620486D01*
X138225680Y-85629433D01*
X138226065Y-85638255D01*
X138226603Y-85646951D01*
X138227295Y-85655523D01*
X138228141Y-85663969D01*
X138229141Y-85672290D01*
X138230294Y-85680486D01*
X138231602Y-85688557D01*
X138233063Y-85696502D01*
X138234678Y-85704322D01*
X138236446Y-85712018D01*
X138240445Y-85727032D01*
X138245059Y-85741547D01*
X138250288Y-85755560D01*
X138256132Y-85769073D01*
X138262592Y-85782085D01*
X138269666Y-85794596D01*
X138277356Y-85806607D01*
X138285661Y-85818117D01*
X138294581Y-85829126D01*
X138304117Y-85839635D01*
X138314231Y-85849549D01*
X138324838Y-85858823D01*
X138335938Y-85867458D01*
X138347531Y-85875453D01*
X138359617Y-85882808D01*
X138372196Y-85889524D01*
X138385269Y-85895600D01*
X138398834Y-85901037D01*
X138412893Y-85905834D01*
X138427444Y-85909992D01*
X138442489Y-85913510D01*
X138450196Y-85915029D01*
X138458026Y-85916388D01*
X138465980Y-85917587D01*
X138474057Y-85918626D01*
X138482257Y-85919506D01*
X138490581Y-85920226D01*
X138499028Y-85920785D01*
X138507598Y-85921185D01*
X138516291Y-85921425D01*
X138525108Y-85921505D01*
X138533289Y-85921459D01*
X138541373Y-85921322D01*
X138549358Y-85921093D01*
X138557244Y-85920772D01*
X138572721Y-85919856D01*
X138587805Y-85918574D01*
X138602494Y-85916925D01*
X138616790Y-85914910D01*
X138630692Y-85912529D01*
X138644200Y-85909781D01*
X138647489Y-85909000D01*
X138895966Y-85909000D01*
X139071039Y-85909000D01*
X139071039Y-85610437D01*
X139071074Y-85605318D01*
X139071354Y-85595287D01*
X139071912Y-85585533D01*
X139072750Y-85576055D01*
X139073868Y-85566853D01*
X139075264Y-85557927D01*
X139076941Y-85549278D01*
X139078896Y-85540905D01*
X139081131Y-85532808D01*
X139083645Y-85524988D01*
X139086439Y-85517444D01*
X139089511Y-85510176D01*
X139094645Y-85499793D01*
X139100406Y-85490031D01*
X139106796Y-85480891D01*
X139111390Y-85475188D01*
X139118652Y-85467325D01*
X139126360Y-85460289D01*
X139134515Y-85454081D01*
X139143117Y-85448700D01*
X139152165Y-85444148D01*
X139161659Y-85440423D01*
X139171601Y-85437526D01*
X139181988Y-85435456D01*
X139192822Y-85434214D01*
X139204103Y-85433801D01*
X139207008Y-85433825D01*
X139215561Y-85434191D01*
X139223870Y-85434997D01*
X139231935Y-85436243D01*
X139239756Y-85437928D01*
X139247334Y-85440053D01*
X139257058Y-85443570D01*
X139266348Y-85447869D01*
X139275205Y-85452949D01*
X139283628Y-85458811D01*
X139283628Y-85290967D01*
X139278066Y-85288885D01*
X139270409Y-85286851D01*
X139261680Y-85285326D01*
X139253588Y-85284444D01*
X139244751Y-85283914D01*
X139235170Y-85283738D01*
X139220776Y-85284214D01*
X139206951Y-85285643D01*
X139193696Y-85288024D01*
X139181010Y-85291358D01*
X139168893Y-85295645D01*
X139157346Y-85300884D01*
X139146368Y-85307075D01*
X139135959Y-85314219D01*
X139126120Y-85322316D01*
X139116850Y-85331365D01*
X139108150Y-85341367D01*
X139100019Y-85352321D01*
X139092457Y-85364228D01*
X139085465Y-85377087D01*
X139079042Y-85390899D01*
X139076044Y-85398163D01*
X139073189Y-85405664D01*
X139071039Y-85405664D01*
X139071039Y-85296243D01*
X138895966Y-85296243D01*
X138895966Y-85909000D01*
X138647489Y-85909000D01*
X138657315Y-85906667D01*
X138670035Y-85903187D01*
X138682362Y-85899340D01*
X138694295Y-85895127D01*
X138705834Y-85890547D01*
X138716979Y-85885601D01*
X138727730Y-85880289D01*
X138738087Y-85874610D01*
X138738087Y-85743891D01*
X138728667Y-85749949D01*
X138719067Y-85755615D01*
X138709287Y-85760891D01*
X138699326Y-85765775D01*
X138689185Y-85770270D01*
X138678865Y-85774373D01*
X138668364Y-85778085D01*
X138657683Y-85781407D01*
X138646822Y-85784338D01*
X138635780Y-85786878D01*
X138624559Y-85789027D01*
X138613157Y-85790786D01*
X138601576Y-85792154D01*
X138589814Y-85793131D01*
X138577872Y-85793717D01*
X138565750Y-85793912D01*
X138556124Y-85793779D01*
X138546786Y-85793379D01*
X138537735Y-85792712D01*
X138528973Y-85791778D01*
X138520498Y-85790578D01*
X138512311Y-85789111D01*
X138504412Y-85787377D01*
X138489476Y-85783109D01*
X138475692Y-85777773D01*
X138463058Y-85771371D01*
X138451576Y-85763902D01*
X138441244Y-85755366D01*
X138432064Y-85745762D01*
X138424034Y-85735092D01*
X138417156Y-85723355D01*
X138411428Y-85710550D01*
X138406852Y-85696679D01*
X138403426Y-85681740D01*
X138402145Y-85673871D01*
X138401152Y-85665735D01*
X138400446Y-85657332D01*
X138788108Y-85657332D01*
X138788108Y-85581128D01*
X138788039Y-85572515D01*
X138787831Y-85564019D01*
X138787483Y-85555638D01*
X138786997Y-85547374D01*
X138786372Y-85539225D01*
X138785608Y-85531192D01*
X138784705Y-85523276D01*
X138783663Y-85515475D01*
X138781163Y-85500222D01*
X138778107Y-85485434D01*
X138774495Y-85471109D01*
X138770327Y-85457248D01*
X138765604Y-85443851D01*
X138760326Y-85430919D01*
X138754491Y-85418450D01*
X138748101Y-85406445D01*
X138741156Y-85394905D01*
X138733654Y-85383829D01*
X138725597Y-85373216D01*
X138716985Y-85363068D01*
X138712486Y-85358187D01*
X138703165Y-85348891D01*
X138693414Y-85340214D01*
X138683232Y-85332157D01*
X138672619Y-85324720D01*
X138661576Y-85317902D01*
X138650103Y-85311705D01*
X138638199Y-85306127D01*
X138625865Y-85301169D01*
X138613100Y-85296830D01*
X138599905Y-85293112D01*
X138586279Y-85290013D01*
X138572223Y-85287534D01*
X138557737Y-85285675D01*
X138542819Y-85284435D01*
X138527472Y-85283815D01*
X138519637Y-85283738D01*
X138503953Y-85284093D01*
X138488606Y-85285161D01*
X138473594Y-85286939D01*
X138458918Y-85289429D01*
X138444578Y-85292630D01*
X138430573Y-85296542D01*
X138416905Y-85301166D01*
X138403572Y-85306501D01*
X138390576Y-85312548D01*
X138377915Y-85319306D01*
X138365590Y-85326775D01*
X138353600Y-85334956D01*
X138341947Y-85343848D01*
X138330629Y-85353451D01*
X138319648Y-85363766D01*
X138309002Y-85374792D01*
X138303856Y-85380524D01*
X138294056Y-85392310D01*
X138284909Y-85404525D01*
X138276416Y-85417169D01*
X138268576Y-85430242D01*
X138261389Y-85443745D01*
X138254855Y-85457676D01*
X138248975Y-85472035D01*
X138246280Y-85479376D01*
X138243748Y-85486824D01*
X138241380Y-85494380D01*
X138239175Y-85502042D01*
X138237133Y-85509812D01*
X138235255Y-85517689D01*
X138233540Y-85525673D01*
X138231988Y-85533765D01*
X138230600Y-85541964D01*
X138229953Y-85546348D01*
X138229375Y-85550270D01*
X138228313Y-85558683D01*
X138227415Y-85567203D01*
X138226680Y-85575831D01*
X138226108Y-85584566D01*
X138225700Y-85593408D01*
X138225455Y-85602357D01*
X138225373Y-85611414D01*
X138069132Y-85611414D01*
X138185512Y-85296243D01*
X137998911Y-85296243D01*
X137884605Y-85682147D01*
X137882529Y-85689391D01*
X137879598Y-85700037D01*
X137876887Y-85710418D01*
X137874396Y-85720535D01*
X137872124Y-85730387D01*
X137870073Y-85739975D01*
X137868241Y-85749298D01*
X137866629Y-85758357D01*
X137865237Y-85767152D01*
X137864064Y-85775682D01*
X137863112Y-85783947D01*
X137860376Y-85783947D01*
X137860227Y-85781277D01*
X137859598Y-85773033D01*
X137858697Y-85764434D01*
X137857526Y-85755481D01*
X137856082Y-85746175D01*
X137854368Y-85736515D01*
X137852382Y-85726501D01*
X137850125Y-85716134D01*
X137847597Y-85705413D01*
X137844797Y-85694338D01*
X137842779Y-85686758D01*
X137840642Y-85679020D01*
X137732393Y-85296243D01*
X137547745Y-85296243D01*
X137452393Y-85296243D01*
X137277320Y-85296243D01*
X137189002Y-85296243D01*
X137189002Y-85290967D01*
X137183439Y-85288885D01*
X137175782Y-85286851D01*
X137167054Y-85285326D01*
X137158961Y-85284444D01*
X137150125Y-85283914D01*
X137140544Y-85283738D01*
X137126150Y-85284214D01*
X137112325Y-85285643D01*
X137099069Y-85288024D01*
X137086383Y-85291358D01*
X137074266Y-85295645D01*
X137062719Y-85300884D01*
X137051741Y-85307075D01*
X137041332Y-85314219D01*
X137031493Y-85322316D01*
X137022223Y-85331365D01*
X137013523Y-85341367D01*
X137005392Y-85352321D01*
X136997830Y-85364228D01*
X136990838Y-85377087D01*
X136984415Y-85390899D01*
X136981417Y-85398163D01*
X136978562Y-85405664D01*
X136976413Y-85405664D01*
X136976413Y-85296243D01*
X136801339Y-85296243D01*
X136801339Y-85909000D01*
X136229225Y-85909000D01*
X136241525Y-85908883D01*
X136253683Y-85908533D01*
X136265699Y-85907950D01*
X136277573Y-85907134D01*
X136289305Y-85906085D01*
X136300895Y-85904802D01*
X136312343Y-85903287D01*
X136323649Y-85901538D01*
X136334813Y-85899556D01*
X136345836Y-85897341D01*
X136356716Y-85894892D01*
X136367454Y-85892211D01*
X136378050Y-85889296D01*
X136388505Y-85886148D01*
X136398817Y-85882767D01*
X136408988Y-85879153D01*
X136419016Y-85875306D01*
X136428903Y-85871225D01*
X136438647Y-85866911D01*
X136448250Y-85862364D01*
X136457710Y-85857584D01*
X136467029Y-85852571D01*
X136476206Y-85847325D01*
X136485240Y-85841845D01*
X136494133Y-85836132D01*
X136502884Y-85830186D01*
X136511493Y-85824007D01*
X136519959Y-85817595D01*
X136528284Y-85810949D01*
X136536467Y-85804070D01*
X136544508Y-85796959D01*
X136552407Y-85789614D01*
X136560125Y-85782076D01*
X136567597Y-85774387D01*
X136574825Y-85766545D01*
X136581808Y-85758552D01*
X136588545Y-85750407D01*
X136595038Y-85742110D01*
X136601286Y-85733661D01*
X136607288Y-85725060D01*
X136613046Y-85716308D01*
X136618559Y-85707403D01*
X136623826Y-85698347D01*
X136628849Y-85689138D01*
X136633627Y-85679778D01*
X136638159Y-85670266D01*
X136642447Y-85660602D01*
X136646489Y-85650786D01*
X136650287Y-85640818D01*
X136653840Y-85630699D01*
X136657147Y-85620427D01*
X136660210Y-85610004D01*
X136663027Y-85599428D01*
X136665600Y-85588701D01*
X136667927Y-85577822D01*
X136670010Y-85566791D01*
X136671848Y-85555608D01*
X136673440Y-85544273D01*
X136674788Y-85532787D01*
X136675890Y-85521148D01*
X136676748Y-85509358D01*
X136677360Y-85497415D01*
X136677728Y-85485321D01*
X136677850Y-85473075D01*
X136677413Y-85447578D01*
X136676102Y-85422890D01*
X136673916Y-85399011D01*
X136670856Y-85375943D01*
X136666921Y-85353683D01*
X136662113Y-85332233D01*
X136656429Y-85311592D01*
X136649872Y-85291761D01*
X136642440Y-85272739D01*
X136634135Y-85254527D01*
X136624954Y-85237124D01*
X136614900Y-85220531D01*
X136603971Y-85204747D01*
X136592167Y-85189772D01*
X136579490Y-85175607D01*
X136565938Y-85162251D01*
X136551512Y-85149705D01*
X136536211Y-85137968D01*
X136520037Y-85127041D01*
X136502988Y-85116923D01*
X136485064Y-85107614D01*
X136469236Y-85100458D01*
X137264815Y-85100458D01*
X137265254Y-85110130D01*
X137266573Y-85119411D01*
X137268771Y-85128302D01*
X137271849Y-85136801D01*
X137275806Y-85144910D01*
X137280642Y-85152628D01*
X137286357Y-85159956D01*
X137292951Y-85166892D01*
X137294737Y-85168551D01*
X137302172Y-85174660D01*
X137310078Y-85179927D01*
X137318454Y-85184350D01*
X137327300Y-85187932D01*
X137336617Y-85190670D01*
X137346403Y-85192566D01*
X137356660Y-85193619D01*
X137364661Y-85193856D01*
X137367381Y-85193830D01*
X137375359Y-85193441D01*
X137385568Y-85192196D01*
X137395289Y-85190120D01*
X137404521Y-85187213D01*
X137413265Y-85183476D01*
X137421521Y-85178909D01*
X137429288Y-85173511D01*
X137436566Y-85167283D01*
X137443206Y-85160383D01*
X137448961Y-85153068D01*
X137453831Y-85145338D01*
X137457815Y-85137192D01*
X137460914Y-85128631D01*
X137463128Y-85119655D01*
X137464456Y-85110264D01*
X137464898Y-85100458D01*
X137464465Y-85090755D01*
X137463164Y-85081480D01*
X137460997Y-85072633D01*
X137457962Y-85064212D01*
X137454060Y-85056219D01*
X137449291Y-85048654D01*
X137443655Y-85041516D01*
X137437152Y-85034806D01*
X137433618Y-85031635D01*
X137426150Y-85025907D01*
X137418151Y-85020998D01*
X137409621Y-85016907D01*
X137400559Y-85013634D01*
X137390967Y-85011180D01*
X137380843Y-85009543D01*
X137372901Y-85008853D01*
X137364661Y-85008623D01*
X137361941Y-85008648D01*
X137353963Y-85009023D01*
X137343754Y-85010222D01*
X137334033Y-85012222D01*
X137324801Y-85015022D01*
X137316057Y-85018621D01*
X137307801Y-85023021D01*
X137300034Y-85028220D01*
X137292756Y-85034219D01*
X137286207Y-85040854D01*
X137280532Y-85047958D01*
X137275729Y-85055533D01*
X137271800Y-85063577D01*
X137268744Y-85072092D01*
X137266561Y-85081077D01*
X137265251Y-85090533D01*
X137264815Y-85100458D01*
X136469236Y-85100458D01*
X136466266Y-85099115D01*
X136446594Y-85091426D01*
X136426048Y-85084546D01*
X136404627Y-85078475D01*
X136382332Y-85073213D01*
X136359163Y-85068762D01*
X136335119Y-85065119D01*
X136310202Y-85062286D01*
X136284409Y-85060262D01*
X136257743Y-85059048D01*
X136230202Y-85058644D01*
X135940041Y-85058644D01*
X135585755Y-85058644D01*
X135585755Y-84654337D01*
X139637914Y-84654337D01*
X139637914Y-86275791D01*
G37*
G36*
X151981907Y-85614970D02*
G01*
X151991809Y-85615899D01*
X152001253Y-85617306D01*
X152010238Y-85619190D01*
X152018765Y-85621552D01*
X152026833Y-85624392D01*
X152034442Y-85627708D01*
X152041593Y-85631503D01*
X152048285Y-85635774D01*
X152054519Y-85640524D01*
X152065610Y-85651454D01*
X152070468Y-85657636D01*
X152074867Y-85664295D01*
X152078808Y-85671431D01*
X152082290Y-85679045D01*
X152084998Y-85686355D01*
X152088498Y-85700966D01*
X152089439Y-85715565D01*
X152087824Y-85730153D01*
X152083650Y-85744730D01*
X152080605Y-85752014D01*
X152076920Y-85759296D01*
X152072595Y-85766574D01*
X152067631Y-85773850D01*
X152062028Y-85781123D01*
X152055786Y-85788393D01*
X152048904Y-85795660D01*
X152041383Y-85802924D01*
X152033222Y-85810186D01*
X152024422Y-85817444D01*
X152014982Y-85824700D01*
X152004904Y-85831953D01*
X151994186Y-85839203D01*
X151982828Y-85846451D01*
X151970831Y-85853695D01*
X151958195Y-85860937D01*
X151944919Y-85868176D01*
X151931004Y-85875411D01*
X151916450Y-85882645D01*
X151901256Y-85889875D01*
X151885423Y-85897102D01*
X151868951Y-85904327D01*
X151851839Y-85911549D01*
X151834698Y-85918511D01*
X151818002Y-85925014D01*
X151801751Y-85931058D01*
X151785946Y-85936642D01*
X151770587Y-85941766D01*
X151755672Y-85946430D01*
X151741203Y-85950635D01*
X151727179Y-85954381D01*
X151713601Y-85957667D01*
X151700468Y-85960493D01*
X151687781Y-85962860D01*
X151675538Y-85964767D01*
X151663741Y-85966215D01*
X151652390Y-85967203D01*
X151641484Y-85967731D01*
X151631023Y-85967800D01*
X151621007Y-85967409D01*
X151611437Y-85966559D01*
X151602312Y-85965249D01*
X151593633Y-85963480D01*
X151585399Y-85961251D01*
X151577610Y-85958562D01*
X151570267Y-85955414D01*
X151556916Y-85947739D01*
X151545347Y-85938226D01*
X151535559Y-85926874D01*
X151527553Y-85913684D01*
X151524218Y-85906399D01*
X151521362Y-85898760D01*
X151517530Y-85883544D01*
X151516201Y-85868410D01*
X151517378Y-85853360D01*
X151521059Y-85838392D01*
X151523838Y-85830939D01*
X151527244Y-85823507D01*
X151531276Y-85816096D01*
X151535934Y-85808705D01*
X151541218Y-85801335D01*
X151547128Y-85793986D01*
X151553665Y-85786658D01*
X151560827Y-85779350D01*
X151568616Y-85772063D01*
X151577031Y-85764797D01*
X151586071Y-85757551D01*
X151595738Y-85750326D01*
X151606032Y-85743122D01*
X151616951Y-85735938D01*
X151628496Y-85728775D01*
X151640668Y-85721633D01*
X151653465Y-85714512D01*
X151666889Y-85707411D01*
X151680939Y-85700332D01*
X151695615Y-85693272D01*
X151710917Y-85686234D01*
X151726845Y-85679216D01*
X151743399Y-85672219D01*
X151761098Y-85665032D01*
X151778338Y-85658322D01*
X151795120Y-85652089D01*
X151811442Y-85646335D01*
X151827307Y-85641057D01*
X151842712Y-85636257D01*
X151857659Y-85631935D01*
X151872148Y-85628090D01*
X151886178Y-85624722D01*
X151899749Y-85621832D01*
X151912862Y-85619419D01*
X151925516Y-85617484D01*
X151937711Y-85616026D01*
X151949448Y-85615046D01*
X151960726Y-85614543D01*
X151971546Y-85614517D01*
X151981907Y-85614970D01*
G37*
G36*
X151521422Y-84361753D02*
G01*
X151524587Y-84369694D01*
X151527435Y-84377472D01*
X151532184Y-84392539D01*
X151535669Y-84406955D01*
X151537889Y-84420720D01*
X151538845Y-84433834D01*
X151538537Y-84446297D01*
X151536964Y-84458109D01*
X151534127Y-84469270D01*
X151530025Y-84479779D01*
X151524660Y-84489638D01*
X151518029Y-84498846D01*
X151510135Y-84507402D01*
X151500976Y-84515308D01*
X151490553Y-84522562D01*
X151478865Y-84529165D01*
X151465913Y-84535118D01*
X151459400Y-84537650D01*
X151449663Y-84540816D01*
X151439965Y-84543222D01*
X151430305Y-84544869D01*
X151420684Y-84545756D01*
X151411101Y-84545884D01*
X151401557Y-84545252D01*
X151392052Y-84543860D01*
X151382585Y-84541710D01*
X151373156Y-84538799D01*
X151363767Y-84535129D01*
X151354665Y-84530766D01*
X151346004Y-84525737D01*
X151337786Y-84520042D01*
X151330009Y-84513681D01*
X151322673Y-84506653D01*
X151315779Y-84498959D01*
X151309327Y-84490599D01*
X151303316Y-84481573D01*
X151297746Y-84471880D01*
X151292619Y-84461522D01*
X151289445Y-84454246D01*
X151255124Y-84371387D01*
X151485830Y-84275825D01*
X151521422Y-84361753D01*
G37*
G36*
X151215922Y-83647187D02*
G01*
X151213393Y-83648504D01*
X151206026Y-83652433D01*
X151198987Y-83656326D01*
X151190110Y-83661462D01*
X151181815Y-83666535D01*
X151174102Y-83671545D01*
X151166971Y-83676493D01*
X151160423Y-83681379D01*
X151153056Y-83687397D01*
X150918184Y-83884720D01*
X150830549Y-83673150D01*
X151139638Y-83649387D01*
X151148614Y-83648600D01*
X151157580Y-83647547D01*
X151166534Y-83646227D01*
X151175477Y-83644641D01*
X151184408Y-83642789D01*
X151193329Y-83640670D01*
X151202238Y-83638285D01*
X151211136Y-83635634D01*
X151215922Y-83647187D01*
G37*
G36*
X152786643Y-86097315D02*
G01*
X151323274Y-86703462D01*
X150964248Y-85836697D01*
X151369685Y-85836697D01*
X151370458Y-85852630D01*
X151372181Y-85868410D01*
X151372222Y-85868790D01*
X151374976Y-85885177D01*
X151378720Y-85901791D01*
X151383455Y-85918632D01*
X151389180Y-85935700D01*
X151395896Y-85952996D01*
X151399591Y-85961621D01*
X151403441Y-85970031D01*
X151407446Y-85978226D01*
X151411606Y-85986206D01*
X151415921Y-85993972D01*
X151420391Y-86001522D01*
X151425016Y-86008857D01*
X151429796Y-86015977D01*
X151434731Y-86022882D01*
X151439822Y-86029572D01*
X151445067Y-86036048D01*
X151450468Y-86042308D01*
X151456023Y-86048353D01*
X151461734Y-86054183D01*
X151467599Y-86059798D01*
X151473620Y-86065198D01*
X151479796Y-86070383D01*
X151486127Y-86075354D01*
X151492613Y-86080109D01*
X151499254Y-86084649D01*
X151506050Y-86088974D01*
X151513001Y-86093084D01*
X151520108Y-86096979D01*
X151527369Y-86100659D01*
X151534785Y-86104124D01*
X151542357Y-86107375D01*
X151550083Y-86110410D01*
X151557965Y-86113230D01*
X151566001Y-86115835D01*
X151574193Y-86118225D01*
X151582540Y-86120400D01*
X151591042Y-86122360D01*
X151599695Y-86124111D01*
X151608463Y-86125645D01*
X151617345Y-86126961D01*
X151626343Y-86128061D01*
X151635456Y-86128944D01*
X151644684Y-86129609D01*
X151654027Y-86130058D01*
X151663485Y-86130290D01*
X151673058Y-86130305D01*
X151682745Y-86130102D01*
X151692548Y-86129683D01*
X151702466Y-86129047D01*
X151712499Y-86128194D01*
X151722647Y-86127123D01*
X151732910Y-86125836D01*
X151743288Y-86124332D01*
X151753781Y-86122611D01*
X151764389Y-86120673D01*
X151775111Y-86118517D01*
X151785949Y-86116145D01*
X151796902Y-86113556D01*
X151807970Y-86110750D01*
X151819153Y-86107727D01*
X151830451Y-86104486D01*
X151841864Y-86101029D01*
X151853392Y-86097355D01*
X151865035Y-86093464D01*
X151876792Y-86089356D01*
X151888665Y-86085031D01*
X151900653Y-86080488D01*
X151912756Y-86075729D01*
X151924974Y-86070753D01*
X151949398Y-86060325D01*
X151972822Y-86049687D01*
X151995247Y-86038840D01*
X152016673Y-86027784D01*
X152037100Y-86016518D01*
X152056527Y-86005042D01*
X152074955Y-85993357D01*
X152092384Y-85981463D01*
X152108814Y-85969359D01*
X152124244Y-85957046D01*
X152138675Y-85944524D01*
X152152108Y-85931792D01*
X152164540Y-85918850D01*
X152175974Y-85905700D01*
X152186408Y-85892339D01*
X152195843Y-85878770D01*
X152204279Y-85864990D01*
X152211716Y-85851002D01*
X152218153Y-85836804D01*
X152223592Y-85822396D01*
X152228031Y-85807779D01*
X152231470Y-85792953D01*
X152233911Y-85777917D01*
X152235352Y-85762672D01*
X152235794Y-85747218D01*
X152235237Y-85731554D01*
X152233681Y-85715680D01*
X152231125Y-85699597D01*
X152227570Y-85683305D01*
X152223016Y-85666803D01*
X152217463Y-85650092D01*
X152210910Y-85633171D01*
X152207136Y-85624356D01*
X152203208Y-85615758D01*
X152199125Y-85607379D01*
X152194887Y-85599218D01*
X152190495Y-85591275D01*
X152185948Y-85583550D01*
X152181246Y-85576044D01*
X152176390Y-85568755D01*
X152171379Y-85561684D01*
X152166214Y-85554832D01*
X152160894Y-85548198D01*
X152155419Y-85541782D01*
X152149790Y-85535583D01*
X152144006Y-85529604D01*
X152138067Y-85523842D01*
X152131974Y-85518298D01*
X152125727Y-85512972D01*
X152119325Y-85507865D01*
X152112768Y-85502976D01*
X152106056Y-85498304D01*
X152099190Y-85493851D01*
X152092170Y-85489616D01*
X152084994Y-85485599D01*
X152077664Y-85481801D01*
X152070180Y-85478220D01*
X152062541Y-85474857D01*
X152054747Y-85471713D01*
X152046799Y-85468787D01*
X152038696Y-85466078D01*
X152030438Y-85463588D01*
X152022026Y-85461316D01*
X152013460Y-85459263D01*
X152004752Y-85457430D01*
X151995919Y-85455823D01*
X151986960Y-85454440D01*
X151977874Y-85453283D01*
X151968662Y-85452350D01*
X151959324Y-85451643D01*
X151949860Y-85451160D01*
X151940270Y-85450902D01*
X151930553Y-85450869D01*
X151920711Y-85451061D01*
X151910742Y-85451478D01*
X151900647Y-85452120D01*
X151890426Y-85452987D01*
X151880078Y-85454078D01*
X151869605Y-85455395D01*
X151859005Y-85456937D01*
X151848279Y-85458703D01*
X151837427Y-85460695D01*
X151826449Y-85462911D01*
X151815344Y-85465352D01*
X151804114Y-85468019D01*
X151792757Y-85470910D01*
X151781274Y-85474026D01*
X151769665Y-85477367D01*
X151757930Y-85480933D01*
X151746068Y-85484724D01*
X151734081Y-85488739D01*
X151721967Y-85492980D01*
X151709727Y-85497446D01*
X151697361Y-85502136D01*
X151684868Y-85507052D01*
X151672250Y-85512192D01*
X151648262Y-85522447D01*
X151625264Y-85532929D01*
X151603257Y-85543638D01*
X151582241Y-85554574D01*
X151562215Y-85565737D01*
X151543179Y-85577128D01*
X151525134Y-85588745D01*
X151508079Y-85600590D01*
X151492015Y-85612662D01*
X151476941Y-85624960D01*
X151462857Y-85637486D01*
X151449764Y-85650239D01*
X151437661Y-85663220D01*
X151426549Y-85676427D01*
X151416428Y-85689861D01*
X151407296Y-85703523D01*
X151399156Y-85717412D01*
X151392005Y-85731527D01*
X151385845Y-85745870D01*
X151380676Y-85760440D01*
X151376497Y-85775237D01*
X151373308Y-85790262D01*
X151371110Y-85805513D01*
X151369902Y-85820992D01*
X151369685Y-85836697D01*
X150964248Y-85836697D01*
X150717996Y-85242193D01*
X151115008Y-85242193D01*
X151186791Y-85415493D01*
X151835402Y-85146830D01*
X151926328Y-85366343D01*
X152063343Y-85309589D01*
X151809709Y-84697263D01*
X151672694Y-84754017D01*
X151763619Y-84973530D01*
X151115008Y-85242193D01*
X150717996Y-85242193D01*
X150361473Y-84381470D01*
X150758485Y-84381470D01*
X150825482Y-84543217D01*
X151124966Y-84419167D01*
X151146651Y-84471518D01*
X151149265Y-84478627D01*
X151151684Y-84487707D01*
X151153159Y-84497002D01*
X151153691Y-84506513D01*
X151153279Y-84516239D01*
X151152270Y-84524175D01*
X151150657Y-84532249D01*
X151150152Y-84534311D01*
X151147374Y-84543198D01*
X151144496Y-84550531D01*
X151140936Y-84558435D01*
X151136696Y-84566912D01*
X151131774Y-84575961D01*
X151126170Y-84585582D01*
X151122057Y-84592314D01*
X151117640Y-84599300D01*
X151112920Y-84606541D01*
X151107898Y-84614036D01*
X151102573Y-84621785D01*
X151096945Y-84629789D01*
X150946766Y-84836022D01*
X151026475Y-85028457D01*
X151195038Y-84785423D01*
X151199508Y-84778760D01*
X151203826Y-84772187D01*
X151212013Y-84759308D01*
X151219596Y-84746786D01*
X151226578Y-84734620D01*
X151232957Y-84722812D01*
X151238733Y-84711360D01*
X151243908Y-84700266D01*
X151248480Y-84689528D01*
X151252450Y-84679147D01*
X151255817Y-84669123D01*
X151258583Y-84659456D01*
X151260746Y-84650146D01*
X151262306Y-84641193D01*
X151263264Y-84632596D01*
X151263620Y-84624357D01*
X151263374Y-84616474D01*
X151265360Y-84615652D01*
X151272635Y-84624479D01*
X151280064Y-84632921D01*
X151287645Y-84640978D01*
X151295379Y-84648649D01*
X151303265Y-84655934D01*
X151311304Y-84662835D01*
X151319495Y-84669350D01*
X151327840Y-84675479D01*
X151336337Y-84681223D01*
X151344986Y-84686582D01*
X151353788Y-84691555D01*
X151362743Y-84696143D01*
X151371850Y-84700345D01*
X151381110Y-84704162D01*
X151390523Y-84707594D01*
X151400089Y-84710640D01*
X151409767Y-84713264D01*
X151419475Y-84715448D01*
X151429213Y-84717192D01*
X151438979Y-84718496D01*
X151448775Y-84719359D01*
X151458600Y-84719783D01*
X151468454Y-84719767D01*
X151478337Y-84719311D01*
X151488250Y-84718414D01*
X151498192Y-84717078D01*
X151508163Y-84715301D01*
X151518163Y-84713085D01*
X151528192Y-84710428D01*
X151538251Y-84707332D01*
X151548339Y-84703795D01*
X151558456Y-84699819D01*
X151571593Y-84694057D01*
X151584082Y-84687923D01*
X151595925Y-84681417D01*
X151607120Y-84674539D01*
X151617669Y-84667288D01*
X151627571Y-84659666D01*
X151636825Y-84651671D01*
X151645433Y-84643303D01*
X151653393Y-84634564D01*
X151660707Y-84625452D01*
X151667374Y-84615967D01*
X151673393Y-84606111D01*
X151678766Y-84595882D01*
X151683492Y-84585281D01*
X151687570Y-84574308D01*
X151691002Y-84562963D01*
X151693787Y-84551245D01*
X151695924Y-84539155D01*
X151697415Y-84526692D01*
X151698259Y-84513858D01*
X151698455Y-84500651D01*
X151698005Y-84487072D01*
X151696908Y-84473120D01*
X151695163Y-84458797D01*
X151692772Y-84444101D01*
X151689734Y-84429033D01*
X151686049Y-84413592D01*
X151681716Y-84397779D01*
X151676737Y-84381594D01*
X151671111Y-84365037D01*
X151664838Y-84348108D01*
X151657917Y-84330806D01*
X151544111Y-84056053D01*
X150782828Y-84371387D01*
X150758485Y-84381470D01*
X150361473Y-84381470D01*
X150006147Y-83523636D01*
X150403158Y-83523636D01*
X150465089Y-83673150D01*
X150479203Y-83707225D01*
X150685937Y-83690117D01*
X150805201Y-83978048D01*
X150647296Y-84113036D01*
X150723789Y-84297709D01*
X151394563Y-83695012D01*
X151308423Y-83487052D01*
X150403158Y-83523636D01*
X150006147Y-83523636D01*
X149777509Y-82971655D01*
X150192620Y-82971655D01*
X150192996Y-82988593D01*
X150194297Y-83005876D01*
X150196521Y-83023504D01*
X150199670Y-83041477D01*
X150203742Y-83059794D01*
X150208738Y-83078456D01*
X150214658Y-83097463D01*
X150221502Y-83116814D01*
X150229270Y-83136510D01*
X150237999Y-83156615D01*
X150247146Y-83175794D01*
X150256712Y-83194046D01*
X150266696Y-83211372D01*
X150277099Y-83227771D01*
X150287920Y-83243244D01*
X150299160Y-83257791D01*
X150310818Y-83271411D01*
X150322894Y-83284105D01*
X150335389Y-83295873D01*
X150348303Y-83306714D01*
X150361635Y-83316629D01*
X150375385Y-83325617D01*
X150389554Y-83333680D01*
X150404142Y-83340815D01*
X150419148Y-83347025D01*
X150434572Y-83352308D01*
X150450415Y-83356664D01*
X150466676Y-83360095D01*
X150483356Y-83362598D01*
X150500454Y-83364176D01*
X150517971Y-83364827D01*
X150535906Y-83364552D01*
X150554260Y-83363350D01*
X150573032Y-83361222D01*
X150592223Y-83358168D01*
X150611832Y-83354187D01*
X150631859Y-83349280D01*
X150652306Y-83343447D01*
X150673170Y-83336687D01*
X150694453Y-83329001D01*
X150716155Y-83320388D01*
X151162763Y-83135397D01*
X151090980Y-82962097D01*
X150627402Y-83154117D01*
X150615747Y-83158775D01*
X150604340Y-83162989D01*
X150593180Y-83166759D01*
X150582267Y-83170087D01*
X150571603Y-83172971D01*
X150561185Y-83175411D01*
X150551016Y-83177408D01*
X150541094Y-83178962D01*
X150531420Y-83180073D01*
X150521993Y-83180740D01*
X150512814Y-83180964D01*
X150503882Y-83180744D01*
X150495198Y-83180082D01*
X150486762Y-83178975D01*
X150478574Y-83177426D01*
X150470632Y-83175433D01*
X150462939Y-83172997D01*
X150455493Y-83170117D01*
X150448295Y-83166794D01*
X150441344Y-83163028D01*
X150434641Y-83158818D01*
X150428186Y-83154166D01*
X150421978Y-83149069D01*
X150416018Y-83143530D01*
X150410305Y-83137547D01*
X150404840Y-83131120D01*
X150399623Y-83124251D01*
X150394653Y-83116937D01*
X150389931Y-83109181D01*
X150385456Y-83100981D01*
X150381229Y-83092338D01*
X150377250Y-83083252D01*
X150373581Y-83073855D01*
X150370418Y-83064595D01*
X150367758Y-83055472D01*
X150365604Y-83046488D01*
X150363954Y-83037640D01*
X150362809Y-83028931D01*
X150362169Y-83020358D01*
X150362034Y-83011924D01*
X150362403Y-83003626D01*
X150363277Y-82995466D01*
X150364655Y-82987444D01*
X150366539Y-82979559D01*
X150368927Y-82971812D01*
X150371820Y-82964202D01*
X150375217Y-82956730D01*
X150379120Y-82949395D01*
X150383527Y-82942198D01*
X150388438Y-82935138D01*
X150393855Y-82928216D01*
X150399776Y-82921431D01*
X150406202Y-82914784D01*
X150413133Y-82908274D01*
X150420568Y-82901902D01*
X150428508Y-82895667D01*
X150436953Y-82889570D01*
X150445902Y-82883611D01*
X150455357Y-82877788D01*
X150465316Y-82872104D01*
X150475779Y-82866556D01*
X150486748Y-82861147D01*
X150498221Y-82855874D01*
X150510199Y-82850740D01*
X150966556Y-82661711D01*
X150894772Y-82488411D01*
X150438957Y-82677215D01*
X150418084Y-82686225D01*
X150398135Y-82695580D01*
X150379109Y-82705279D01*
X150361007Y-82715323D01*
X150343830Y-82725711D01*
X150327576Y-82736445D01*
X150312246Y-82747523D01*
X150297840Y-82758946D01*
X150284358Y-82770713D01*
X150271800Y-82782825D01*
X150260166Y-82795282D01*
X150249455Y-82808084D01*
X150239669Y-82821231D01*
X150230806Y-82834722D01*
X150222868Y-82848558D01*
X150215853Y-82862738D01*
X150209762Y-82877264D01*
X150204595Y-82892134D01*
X150200353Y-82907348D01*
X150197033Y-82922908D01*
X150194638Y-82938812D01*
X150193167Y-82955061D01*
X150192620Y-82971655D01*
X149777509Y-82971655D01*
X149634696Y-82626875D01*
X151098065Y-82020728D01*
X152786643Y-86097315D01*
G37*
G36*
X153324753Y-101743286D02*
G01*
X151225755Y-101743286D01*
X151225755Y-100538644D01*
X151580041Y-100538644D01*
X151580041Y-101389000D01*
X152080251Y-101389000D01*
X152080251Y-101240695D01*
X151755115Y-101240695D01*
X151755115Y-101036704D01*
X152042735Y-101036704D01*
X152042735Y-100888790D01*
X151760000Y-100888790D01*
X151760000Y-100686948D01*
X152055240Y-100686948D01*
X152055240Y-100538644D01*
X152220153Y-100538644D01*
X152220153Y-101389000D01*
X152395226Y-101389000D01*
X152395226Y-100905399D01*
X152395190Y-100894130D01*
X152395080Y-100883234D01*
X152394897Y-100872710D01*
X152394640Y-100862558D01*
X152394310Y-100852780D01*
X152393907Y-100843373D01*
X152393431Y-100834339D01*
X152392882Y-100825678D01*
X152392259Y-100817389D01*
X152391563Y-100809472D01*
X152390381Y-100798296D01*
X152389035Y-100787958D01*
X152387523Y-100778457D01*
X152385847Y-100769795D01*
X152388583Y-100769795D01*
X152392863Y-100778439D01*
X152396823Y-100785931D01*
X152401259Y-100793936D01*
X152406171Y-100802454D01*
X152410168Y-100809179D01*
X152414433Y-100816193D01*
X152418965Y-100823495D01*
X152423766Y-100831085D01*
X152428834Y-100838965D01*
X152786210Y-101389000D01*
X152970467Y-101389000D01*
X152970467Y-100538644D01*
X152795394Y-100538644D01*
X152795394Y-101023417D01*
X152795433Y-101034042D01*
X152795549Y-101044229D01*
X152795744Y-101053978D01*
X152796017Y-101063289D01*
X152796367Y-101072162D01*
X152796795Y-101080597D01*
X152797583Y-101092428D01*
X152798547Y-101103273D01*
X152799685Y-101113132D01*
X152800999Y-101122005D01*
X152803023Y-101132303D01*
X152805359Y-101140849D01*
X152802623Y-101140849D01*
X152800300Y-101136672D01*
X152796219Y-101129734D01*
X152792014Y-101122810D01*
X152786972Y-101114664D01*
X152782641Y-101107754D01*
X152777840Y-101100156D01*
X152772569Y-101091872D01*
X152766826Y-101082901D01*
X152760614Y-101073242D01*
X152416329Y-100538644D01*
X152220153Y-100538644D01*
X152055240Y-100538644D01*
X151580041Y-100538644D01*
X151225755Y-100538644D01*
X151225755Y-100184358D01*
X153324753Y-100184358D01*
X153324753Y-101743286D01*
G37*
G36*
X144378312Y-78483286D02*
G01*
X141615755Y-78483286D01*
X141615755Y-77278644D01*
X141970041Y-77278644D01*
X141970041Y-78129000D01*
X142157620Y-78129000D01*
X142157620Y-77712810D01*
X142160355Y-77712810D01*
X142162639Y-77718348D01*
X142166339Y-77726951D01*
X142169906Y-77734773D01*
X142174009Y-77743126D01*
X142177920Y-77750352D01*
X142182240Y-77757360D01*
X142428046Y-78129000D01*
X142657829Y-78129000D01*
X142336015Y-77684282D01*
X142632819Y-77278644D01*
X142746147Y-77278644D01*
X142746147Y-78129000D01*
X143246357Y-78129000D01*
X143246357Y-77980695D01*
X142921221Y-77980695D01*
X142921221Y-77776704D01*
X143208841Y-77776704D01*
X143208841Y-77628790D01*
X142926106Y-77628790D01*
X142926106Y-77426948D01*
X143221346Y-77426948D01*
X143221346Y-77278644D01*
X143286217Y-77278644D01*
X143561332Y-77835322D01*
X143561332Y-78129000D01*
X143748911Y-78129000D01*
X143748911Y-77832000D01*
X144024026Y-77278644D01*
X143831563Y-77278644D01*
X143681304Y-77610618D01*
X143678450Y-77617640D01*
X143675748Y-77625029D01*
X143673199Y-77632784D01*
X143670802Y-77640905D01*
X143668558Y-77649392D01*
X143666467Y-77658246D01*
X143664528Y-77667466D01*
X143662742Y-77677053D01*
X143660397Y-77677053D01*
X143658416Y-77669986D01*
X143655615Y-77660091D01*
X143653021Y-77651041D01*
X143650633Y-77642835D01*
X143647769Y-77633209D01*
X143645272Y-77625085D01*
X143642665Y-77617042D01*
X143639685Y-77609055D01*
X143493335Y-77278644D01*
X143286217Y-77278644D01*
X143221346Y-77278644D01*
X142746147Y-77278644D01*
X142632819Y-77278644D01*
X142416322Y-77278644D01*
X142183803Y-77635043D01*
X142179406Y-77642478D01*
X142175010Y-77650421D01*
X142171346Y-77657429D01*
X142167683Y-77664789D01*
X142164019Y-77672503D01*
X142160355Y-77680570D01*
X142157620Y-77680570D01*
X142157620Y-77278644D01*
X141970041Y-77278644D01*
X141615755Y-77278644D01*
X141615755Y-76924358D01*
X144378312Y-76924358D01*
X144378312Y-78483286D01*
G37*
G36*
X123715606Y-83733535D02*
G01*
X123728190Y-83734432D01*
X123740403Y-83735928D01*
X123752245Y-83738023D01*
X123763716Y-83740715D01*
X123774816Y-83744006D01*
X123785545Y-83747896D01*
X123795903Y-83752384D01*
X123805890Y-83757470D01*
X123815507Y-83763155D01*
X123824752Y-83769438D01*
X123833627Y-83776320D01*
X123842130Y-83783800D01*
X123850262Y-83791878D01*
X123858024Y-83800555D01*
X123865415Y-83809830D01*
X123872418Y-83819619D01*
X123878970Y-83829840D01*
X123885070Y-83840490D01*
X123890718Y-83851571D01*
X123895915Y-83863082D01*
X123900659Y-83875024D01*
X123904952Y-83887397D01*
X123908792Y-83900200D01*
X123912181Y-83913433D01*
X123915118Y-83927097D01*
X123917603Y-83941191D01*
X123919637Y-83955716D01*
X123921218Y-83970671D01*
X123922348Y-83986057D01*
X123922743Y-83993912D01*
X123923025Y-84001873D01*
X123923195Y-84009943D01*
X123923251Y-84018120D01*
X123923019Y-84033722D01*
X123922323Y-84048922D01*
X123921163Y-84063721D01*
X123919539Y-84078118D01*
X123917451Y-84092114D01*
X123914898Y-84105709D01*
X123911882Y-84118902D01*
X123908401Y-84131693D01*
X123904457Y-84144083D01*
X123900048Y-84156072D01*
X123895176Y-84167659D01*
X123889839Y-84178844D01*
X123884038Y-84189628D01*
X123877773Y-84200011D01*
X123871045Y-84209992D01*
X123863852Y-84219572D01*
X123856241Y-84228634D01*
X123848260Y-84237111D01*
X123839907Y-84245004D01*
X123831184Y-84252312D01*
X123822090Y-84259036D01*
X123812625Y-84265175D01*
X123802789Y-84270729D01*
X123792581Y-84275699D01*
X123782003Y-84280084D01*
X123771055Y-84283884D01*
X123759735Y-84287100D01*
X123748044Y-84289730D01*
X123735982Y-84291777D01*
X123723549Y-84293238D01*
X123710746Y-84294115D01*
X123697571Y-84294408D01*
X123684678Y-84294102D01*
X123672133Y-84293187D01*
X123659936Y-84291660D01*
X123648087Y-84289523D01*
X123636587Y-84286775D01*
X123625434Y-84283417D01*
X123614629Y-84279448D01*
X123604173Y-84274868D01*
X123594064Y-84269678D01*
X123584303Y-84263877D01*
X123574891Y-84257466D01*
X123565826Y-84250444D01*
X123557110Y-84242811D01*
X123548742Y-84234568D01*
X123540721Y-84225714D01*
X123533049Y-84216250D01*
X123525785Y-84206305D01*
X123518990Y-84196008D01*
X123512663Y-84185361D01*
X123506805Y-84174362D01*
X123501416Y-84163013D01*
X123496495Y-84151312D01*
X123492043Y-84139260D01*
X123488060Y-84126857D01*
X123484545Y-84114103D01*
X123481499Y-84100998D01*
X123478921Y-84087542D01*
X123476812Y-84073734D01*
X123475172Y-84059576D01*
X123474000Y-84045066D01*
X123473297Y-84030206D01*
X123473063Y-84014994D01*
X123473303Y-83999568D01*
X123474022Y-83984506D01*
X123475220Y-83969807D01*
X123476898Y-83955472D01*
X123479055Y-83941500D01*
X123481691Y-83927891D01*
X123484807Y-83914645D01*
X123488401Y-83901763D01*
X123492476Y-83889244D01*
X123497029Y-83877088D01*
X123502062Y-83865296D01*
X123507575Y-83853867D01*
X123513566Y-83842801D01*
X123520037Y-83832099D01*
X123526987Y-83821760D01*
X123534417Y-83811784D01*
X123542264Y-83802272D01*
X123550467Y-83793374D01*
X123559025Y-83785090D01*
X123567939Y-83777419D01*
X123577209Y-83770362D01*
X123586834Y-83763918D01*
X123596816Y-83758089D01*
X123607152Y-83752872D01*
X123617845Y-83748270D01*
X123628893Y-83744281D01*
X123640297Y-83740906D01*
X123652056Y-83738145D01*
X123664172Y-83735997D01*
X123676642Y-83734463D01*
X123689469Y-83733542D01*
X123702651Y-83733235D01*
X123715606Y-83733535D01*
G37*
G36*
X126379112Y-83726707D02*
G01*
X126387388Y-83727051D01*
X126403125Y-83728430D01*
X126417778Y-83730727D01*
X126431345Y-83733944D01*
X126443826Y-83738079D01*
X126455222Y-83743133D01*
X126465533Y-83749107D01*
X126474759Y-83755999D01*
X126482899Y-83763810D01*
X126489954Y-83772540D01*
X126495923Y-83782189D01*
X126500807Y-83792757D01*
X126504606Y-83804244D01*
X126507319Y-83816650D01*
X126508947Y-83829975D01*
X126509490Y-83844219D01*
X126509337Y-83851205D01*
X126508536Y-83861413D01*
X126507048Y-83871294D01*
X126504872Y-83880848D01*
X126502010Y-83890077D01*
X126498461Y-83898979D01*
X126494225Y-83907555D01*
X126489302Y-83915804D01*
X126483692Y-83923727D01*
X126477395Y-83931324D01*
X126470411Y-83938595D01*
X126462897Y-83945334D01*
X126454937Y-83951411D01*
X126446530Y-83956824D01*
X126437677Y-83961575D01*
X126428377Y-83965663D01*
X126418630Y-83969088D01*
X126408437Y-83971850D01*
X126397798Y-83973949D01*
X126386712Y-83975385D01*
X126375179Y-83976159D01*
X126367243Y-83976306D01*
X126277557Y-83976306D01*
X126277557Y-83726592D01*
X126370565Y-83726592D01*
X126379112Y-83726707D01*
G37*
G36*
X122873753Y-83729459D02*
G01*
X122883368Y-83729853D01*
X122892667Y-83730509D01*
X122901651Y-83731428D01*
X122910319Y-83732609D01*
X122918673Y-83734054D01*
X122926711Y-83735760D01*
X122934434Y-83737729D01*
X122948935Y-83742456D01*
X122962174Y-83748232D01*
X122974153Y-83755058D01*
X122984870Y-83762935D01*
X122994327Y-83771862D01*
X123002523Y-83781840D01*
X123009458Y-83792867D01*
X123015132Y-83804945D01*
X123019545Y-83818073D01*
X123022698Y-83832251D01*
X123024589Y-83847480D01*
X123025062Y-83855488D01*
X123025219Y-83863759D01*
X123025060Y-83872222D01*
X123024582Y-83880416D01*
X123023785Y-83888342D01*
X123021236Y-83903387D01*
X123017412Y-83917358D01*
X123012314Y-83930254D01*
X123005940Y-83942075D01*
X122998292Y-83952822D01*
X122989370Y-83962494D01*
X122979173Y-83971091D01*
X122967701Y-83978614D01*
X122954955Y-83985062D01*
X122940934Y-83990435D01*
X122933445Y-83992719D01*
X122925638Y-83994734D01*
X122917512Y-83996480D01*
X122909068Y-83997958D01*
X122900304Y-83999167D01*
X122891223Y-84000107D01*
X122881822Y-84000779D01*
X122872103Y-84001182D01*
X122862065Y-84001316D01*
X122781953Y-84001316D01*
X122781953Y-83729327D01*
X122863824Y-83729327D01*
X122873753Y-83729459D01*
G37*
G36*
X127151396Y-84805791D02*
G01*
X122245755Y-84805791D01*
X122245755Y-83588644D01*
X122600041Y-83588644D01*
X122600041Y-83729327D01*
X122600041Y-84439000D01*
X122787620Y-84439000D01*
X122787620Y-84140437D01*
X122880237Y-84140437D01*
X122889105Y-84140565D01*
X122897880Y-84140533D01*
X122906562Y-84140342D01*
X122915151Y-84139991D01*
X122923647Y-84139481D01*
X122932050Y-84138811D01*
X122940359Y-84137982D01*
X122948576Y-84136993D01*
X122956699Y-84135845D01*
X122964730Y-84134537D01*
X122972667Y-84133070D01*
X122980511Y-84131443D01*
X122988262Y-84129656D01*
X122995919Y-84127710D01*
X123010956Y-84123340D01*
X123025619Y-84118332D01*
X123039911Y-84112685D01*
X123053829Y-84106400D01*
X123067376Y-84099478D01*
X123080549Y-84091917D01*
X123093351Y-84083718D01*
X123105780Y-84074881D01*
X123117836Y-84065406D01*
X123129335Y-84055385D01*
X123140093Y-84044959D01*
X123150108Y-84034130D01*
X123157839Y-84024764D01*
X123285484Y-84024764D01*
X123285595Y-84036445D01*
X123285928Y-84047992D01*
X123286482Y-84059405D01*
X123287258Y-84070684D01*
X123288256Y-84081830D01*
X123289476Y-84092841D01*
X123290917Y-84103718D01*
X123292580Y-84114462D01*
X123294464Y-84125071D01*
X123296571Y-84135547D01*
X123298899Y-84145888D01*
X123301449Y-84156096D01*
X123304220Y-84166170D01*
X123307214Y-84176109D01*
X123310429Y-84185915D01*
X123313866Y-84195587D01*
X123317524Y-84205125D01*
X123321404Y-84214529D01*
X123325506Y-84223799D01*
X123329830Y-84232935D01*
X123334375Y-84241937D01*
X123339142Y-84250805D01*
X123344131Y-84259539D01*
X123349342Y-84268139D01*
X123354774Y-84276606D01*
X123360428Y-84284938D01*
X123366304Y-84293136D01*
X123372401Y-84301201D01*
X123378721Y-84309131D01*
X123385262Y-84316928D01*
X123392024Y-84324590D01*
X123399009Y-84332119D01*
X123406183Y-84339464D01*
X123413490Y-84346576D01*
X123420930Y-84353454D01*
X123428504Y-84360100D01*
X123436211Y-84366512D01*
X123444051Y-84372691D01*
X123452024Y-84378637D01*
X123460130Y-84384350D01*
X123468370Y-84389830D01*
X123476743Y-84395076D01*
X123485249Y-84400090D01*
X123493888Y-84404870D01*
X123502660Y-84409417D01*
X123511566Y-84413730D01*
X123520604Y-84417811D01*
X123529776Y-84421658D01*
X123539081Y-84425272D01*
X123548520Y-84428654D01*
X123558091Y-84431801D01*
X123567796Y-84434716D01*
X123577633Y-84437398D01*
X123587605Y-84439846D01*
X123597709Y-84442061D01*
X123607946Y-84444043D01*
X123618317Y-84445792D01*
X123628820Y-84447308D01*
X123639457Y-84448590D01*
X123650228Y-84449639D01*
X123661131Y-84450455D01*
X123672167Y-84451038D01*
X123683337Y-84451388D01*
X123694640Y-84451505D01*
X123706209Y-84451385D01*
X123717638Y-84451024D01*
X123728928Y-84450423D01*
X123740078Y-84449581D01*
X123751090Y-84448499D01*
X123761962Y-84447177D01*
X123772695Y-84445614D01*
X123783288Y-84443811D01*
X123793742Y-84441767D01*
X123804057Y-84439483D01*
X123814233Y-84436959D01*
X123824269Y-84434194D01*
X123834166Y-84431189D01*
X123843924Y-84427943D01*
X123853542Y-84424457D01*
X123863021Y-84420730D01*
X123872361Y-84416763D01*
X123881561Y-84412556D01*
X123890623Y-84408108D01*
X123899545Y-84403419D01*
X123908327Y-84398491D01*
X123916971Y-84393322D01*
X123925475Y-84387912D01*
X123933839Y-84382262D01*
X123942065Y-84376371D01*
X123950151Y-84370241D01*
X123958098Y-84363869D01*
X123965905Y-84357258D01*
X123973574Y-84350405D01*
X123981103Y-84343313D01*
X123988492Y-84335980D01*
X123995743Y-84328406D01*
X124002823Y-84320628D01*
X124009679Y-84312703D01*
X124016310Y-84304633D01*
X124022716Y-84296417D01*
X124028898Y-84288055D01*
X124034854Y-84279547D01*
X124040586Y-84270894D01*
X124046093Y-84262094D01*
X124051376Y-84253149D01*
X124056433Y-84244059D01*
X124061266Y-84234822D01*
X124065874Y-84225440D01*
X124070257Y-84215912D01*
X124074416Y-84206238D01*
X124078349Y-84196418D01*
X124082058Y-84186452D01*
X124085542Y-84176341D01*
X124088802Y-84166084D01*
X124091836Y-84155681D01*
X124094646Y-84145133D01*
X124097231Y-84134438D01*
X124099591Y-84123598D01*
X124101726Y-84112612D01*
X124103637Y-84101480D01*
X124105323Y-84090203D01*
X124106784Y-84078779D01*
X124108020Y-84067210D01*
X124109032Y-84055495D01*
X124109818Y-84043635D01*
X124110380Y-84031628D01*
X124110718Y-84019476D01*
X124110830Y-84007178D01*
X124110722Y-83995400D01*
X124110398Y-83983755D01*
X124109858Y-83972245D01*
X124109102Y-83960870D01*
X124108130Y-83949628D01*
X124106942Y-83938521D01*
X124105538Y-83927549D01*
X124103918Y-83916711D01*
X124102082Y-83906007D01*
X124100030Y-83895437D01*
X124097762Y-83885002D01*
X124095278Y-83874701D01*
X124092578Y-83864534D01*
X124089662Y-83854502D01*
X124086530Y-83844604D01*
X124083182Y-83834840D01*
X124079618Y-83825211D01*
X124075838Y-83815716D01*
X124071842Y-83806356D01*
X124067629Y-83797129D01*
X124063201Y-83788037D01*
X124058557Y-83779080D01*
X124053697Y-83770256D01*
X124048621Y-83761568D01*
X124043329Y-83753013D01*
X124037821Y-83744593D01*
X124032097Y-83736307D01*
X124026157Y-83728155D01*
X124020001Y-83720138D01*
X124013629Y-83712255D01*
X124007041Y-83704506D01*
X124000237Y-83696892D01*
X123993256Y-83689463D01*
X123986136Y-83682270D01*
X123978879Y-83675312D01*
X123971483Y-83668590D01*
X123963950Y-83662105D01*
X123956278Y-83655855D01*
X123948468Y-83649841D01*
X123940519Y-83644062D01*
X123932433Y-83638520D01*
X123924209Y-83633213D01*
X123915846Y-83628143D01*
X123907345Y-83623308D01*
X123898706Y-83618709D01*
X123889929Y-83614346D01*
X123881014Y-83610218D01*
X123871960Y-83606327D01*
X123862769Y-83602671D01*
X123853439Y-83599251D01*
X123843971Y-83596067D01*
X123834365Y-83593119D01*
X123824621Y-83590407D01*
X123817585Y-83588644D01*
X124163977Y-83588644D01*
X124390244Y-84439000D01*
X124598925Y-84439000D01*
X124746643Y-83884471D01*
X124747261Y-83882155D01*
X124749647Y-83872495D01*
X124751345Y-83864833D01*
X124752963Y-83856815D01*
X124754502Y-83848439D01*
X124755962Y-83839705D01*
X124757344Y-83830615D01*
X124758646Y-83821167D01*
X124759869Y-83811363D01*
X124761014Y-83801201D01*
X124762079Y-83790681D01*
X124764228Y-83790681D01*
X124764534Y-83796772D01*
X124765134Y-83805851D01*
X124765901Y-83814861D01*
X124766837Y-83823803D01*
X124767942Y-83832676D01*
X124769214Y-83841480D01*
X124770655Y-83850215D01*
X124772264Y-83858882D01*
X124774042Y-83867480D01*
X124775987Y-83876010D01*
X124778101Y-83884471D01*
X124924061Y-84439000D01*
X125126880Y-84439000D01*
X125355101Y-83588644D01*
X125456706Y-83588644D01*
X125456706Y-84439000D01*
X125956915Y-84439000D01*
X125956915Y-84290695D01*
X125631779Y-84290695D01*
X125631779Y-84086704D01*
X125919399Y-84086704D01*
X125919399Y-83938790D01*
X125636664Y-83938790D01*
X125636664Y-83736948D01*
X125931905Y-83736948D01*
X125931905Y-83588644D01*
X126096817Y-83588644D01*
X126096817Y-83726592D01*
X126096817Y-84439000D01*
X126271891Y-84439000D01*
X126271891Y-84114840D01*
X126328555Y-84114840D01*
X126336123Y-84115146D01*
X126345438Y-84116386D01*
X126354591Y-84118580D01*
X126363581Y-84121729D01*
X126372409Y-84125831D01*
X126379354Y-84129800D01*
X126386196Y-84134380D01*
X126387909Y-84135636D01*
X126395056Y-84141603D01*
X126400729Y-84147068D01*
X126406670Y-84153382D01*
X126412878Y-84160544D01*
X126419355Y-84168554D01*
X126426099Y-84177412D01*
X126430745Y-84183789D01*
X126435509Y-84190543D01*
X126440392Y-84197675D01*
X126445395Y-84205183D01*
X126450516Y-84213068D01*
X126455757Y-84221330D01*
X126588820Y-84439000D01*
X126797110Y-84439000D01*
X126637083Y-84190263D01*
X126632638Y-84183584D01*
X126628217Y-84177078D01*
X126619451Y-84164587D01*
X126610784Y-84152788D01*
X126602217Y-84141683D01*
X126593749Y-84131270D01*
X126585379Y-84121551D01*
X126577109Y-84112525D01*
X126568939Y-84104191D01*
X126560867Y-84096551D01*
X126552895Y-84089604D01*
X126545022Y-84083350D01*
X126537248Y-84077789D01*
X126529574Y-84072921D01*
X126521998Y-84068746D01*
X126514522Y-84065264D01*
X126507145Y-84062475D01*
X126507145Y-84060325D01*
X126518085Y-84056982D01*
X126528727Y-84053349D01*
X126539072Y-84049428D01*
X126549118Y-84045219D01*
X126558868Y-84040721D01*
X126568319Y-84035935D01*
X126577473Y-84030860D01*
X126586329Y-84025496D01*
X126594887Y-84019844D01*
X126603148Y-84013904D01*
X126611111Y-84007675D01*
X126618777Y-84001158D01*
X126626144Y-83994352D01*
X126633214Y-83987257D01*
X126639987Y-83979874D01*
X126646461Y-83972203D01*
X126652590Y-83964265D01*
X126658323Y-83956131D01*
X126663660Y-83947803D01*
X126668602Y-83939279D01*
X126673149Y-83930559D01*
X126677300Y-83921644D01*
X126681056Y-83912534D01*
X126684417Y-83903228D01*
X126687382Y-83893727D01*
X126689952Y-83884031D01*
X126692126Y-83874139D01*
X126693906Y-83864052D01*
X126695289Y-83853769D01*
X126696278Y-83843291D01*
X126696871Y-83832618D01*
X126697069Y-83821749D01*
X126696773Y-83807408D01*
X126695886Y-83793521D01*
X126694407Y-83780090D01*
X126692336Y-83767115D01*
X126689675Y-83754595D01*
X126686421Y-83742530D01*
X126682576Y-83730920D01*
X126678140Y-83719765D01*
X126673112Y-83709066D01*
X126667492Y-83698822D01*
X126661281Y-83689034D01*
X126654479Y-83679700D01*
X126647085Y-83670822D01*
X126639099Y-83662400D01*
X126630522Y-83654432D01*
X126621353Y-83646920D01*
X126611593Y-83639863D01*
X126601241Y-83633261D01*
X126590298Y-83627115D01*
X126578763Y-83621424D01*
X126566637Y-83616188D01*
X126553919Y-83611408D01*
X126540610Y-83607083D01*
X126526709Y-83603213D01*
X126512217Y-83599798D01*
X126497133Y-83596839D01*
X126481457Y-83594335D01*
X126465191Y-83592286D01*
X126448332Y-83590692D01*
X126430882Y-83589554D01*
X126412841Y-83588871D01*
X126394207Y-83588644D01*
X126096817Y-83588644D01*
X125931905Y-83588644D01*
X125456706Y-83588644D01*
X125355101Y-83588644D01*
X125167522Y-83588644D01*
X125051263Y-84166034D01*
X125050071Y-84171733D01*
X125048396Y-84180313D01*
X125046854Y-84188931D01*
X125045446Y-84197587D01*
X125044173Y-84206281D01*
X125043033Y-84215013D01*
X125042027Y-84223782D01*
X125041155Y-84232589D01*
X125040417Y-84241434D01*
X125039814Y-84250316D01*
X125039344Y-84259237D01*
X125036608Y-84259237D01*
X125035958Y-84252382D01*
X125034925Y-84242406D01*
X125033824Y-84232797D01*
X125032654Y-84223557D01*
X125031415Y-84214683D01*
X125030107Y-84206177D01*
X125028731Y-84198039D01*
X125026789Y-84187759D01*
X125024726Y-84178133D01*
X125022540Y-84169160D01*
X124876189Y-83588644D01*
X124680013Y-83588644D01*
X124519009Y-84162126D01*
X124517223Y-84168761D01*
X124514720Y-84178590D01*
X124512426Y-84188272D01*
X124510342Y-84197806D01*
X124508467Y-84207192D01*
X124506802Y-84216431D01*
X124505346Y-84225522D01*
X124504100Y-84234465D01*
X124503063Y-84243261D01*
X124502236Y-84251909D01*
X124501618Y-84260409D01*
X124501406Y-84256826D01*
X124500712Y-84246307D01*
X124499931Y-84236135D01*
X124499065Y-84226311D01*
X124498113Y-84216833D01*
X124497076Y-84207702D01*
X124495952Y-84198917D01*
X124494742Y-84190480D01*
X124493447Y-84182390D01*
X124492066Y-84174646D01*
X124490090Y-84164861D01*
X124363279Y-83588644D01*
X124163977Y-83588644D01*
X123817585Y-83588644D01*
X123814739Y-83587931D01*
X123804718Y-83585690D01*
X123794560Y-83583685D01*
X123784263Y-83581917D01*
X123773828Y-83580384D01*
X123763255Y-83579086D01*
X123752544Y-83578025D01*
X123741695Y-83577200D01*
X123730707Y-83576610D01*
X123719582Y-83576256D01*
X123708318Y-83576138D01*
X123696472Y-83576260D01*
X123684771Y-83576626D01*
X123673217Y-83577236D01*
X123661808Y-83578089D01*
X123650545Y-83579187D01*
X123639427Y-83580528D01*
X123628456Y-83582113D01*
X123617630Y-83583942D01*
X123606950Y-83586015D01*
X123596416Y-83588331D01*
X123586028Y-83590892D01*
X123575785Y-83593696D01*
X123565689Y-83596745D01*
X123555738Y-83600037D01*
X123545932Y-83603573D01*
X123536273Y-83607353D01*
X123526759Y-83611376D01*
X123517392Y-83615644D01*
X123508169Y-83620155D01*
X123499093Y-83624911D01*
X123490163Y-83629910D01*
X123481378Y-83635153D01*
X123472739Y-83640640D01*
X123464246Y-83646370D01*
X123455898Y-83652345D01*
X123447697Y-83658563D01*
X123439641Y-83665026D01*
X123431731Y-83671732D01*
X123423967Y-83678682D01*
X123416348Y-83685876D01*
X123408876Y-83693314D01*
X123401549Y-83700995D01*
X123394408Y-83708871D01*
X123387494Y-83716892D01*
X123380807Y-83725057D01*
X123374346Y-83733367D01*
X123368112Y-83741821D01*
X123362105Y-83750420D01*
X123356324Y-83759164D01*
X123350771Y-83768052D01*
X123345443Y-83777085D01*
X123340343Y-83786263D01*
X123335469Y-83795585D01*
X123330822Y-83805052D01*
X123326402Y-83814663D01*
X123322208Y-83824420D01*
X123318241Y-83834320D01*
X123314501Y-83844366D01*
X123310987Y-83854556D01*
X123307700Y-83864891D01*
X123304640Y-83875370D01*
X123301806Y-83885994D01*
X123299199Y-83896763D01*
X123296819Y-83907676D01*
X123294665Y-83918734D01*
X123292739Y-83929936D01*
X123291038Y-83941284D01*
X123289565Y-83952775D01*
X123288318Y-83964412D01*
X123287298Y-83976193D01*
X123286505Y-83988119D01*
X123285938Y-84000189D01*
X123285598Y-84012404D01*
X123285574Y-84014994D01*
X123285484Y-84024764D01*
X123157839Y-84024764D01*
X123159382Y-84022895D01*
X123167914Y-84011256D01*
X123175703Y-83999213D01*
X123182751Y-83986765D01*
X123189057Y-83973912D01*
X123194622Y-83960655D01*
X123199444Y-83946994D01*
X123203524Y-83932928D01*
X123206863Y-83918457D01*
X123209459Y-83903582D01*
X123211314Y-83888302D01*
X123211963Y-83880511D01*
X123212427Y-83872618D01*
X123212705Y-83864624D01*
X123212798Y-83856529D01*
X123212486Y-83840048D01*
X123211552Y-83824090D01*
X123209995Y-83808655D01*
X123207815Y-83793743D01*
X123205013Y-83779355D01*
X123201587Y-83765490D01*
X123197539Y-83752148D01*
X123192868Y-83739329D01*
X123187574Y-83727034D01*
X123181657Y-83715261D01*
X123175117Y-83704012D01*
X123167955Y-83693286D01*
X123160170Y-83683084D01*
X123151762Y-83673404D01*
X123142731Y-83664248D01*
X123133077Y-83655615D01*
X123122800Y-83647505D01*
X123111901Y-83639919D01*
X123100379Y-83632855D01*
X123088234Y-83626315D01*
X123075466Y-83620298D01*
X123062076Y-83614804D01*
X123048062Y-83609834D01*
X123033426Y-83605386D01*
X123018167Y-83601462D01*
X123002285Y-83598061D01*
X122985780Y-83595184D01*
X122968653Y-83592829D01*
X122950902Y-83590998D01*
X122932529Y-83589690D01*
X122913533Y-83588905D01*
X122893914Y-83588644D01*
X122600041Y-83588644D01*
X122245755Y-83588644D01*
X122245755Y-83221852D01*
X127151396Y-83221852D01*
X127151396Y-84805791D01*
G37*
G36*
X146066096Y-75568769D02*
G01*
X146073949Y-75572146D01*
X146081463Y-75575632D01*
X146095475Y-75582928D01*
X146108133Y-75590657D01*
X146119436Y-75598821D01*
X146129385Y-75607418D01*
X146137980Y-75616449D01*
X146145220Y-75625913D01*
X146151106Y-75635811D01*
X146155637Y-75646143D01*
X146158814Y-75656908D01*
X146160636Y-75668107D01*
X146161104Y-75679740D01*
X146160218Y-75691806D01*
X146157977Y-75704306D01*
X146154382Y-75717240D01*
X146149433Y-75730607D01*
X146146618Y-75737003D01*
X146141971Y-75746127D01*
X146136815Y-75754686D01*
X146131149Y-75762681D01*
X146124973Y-75770111D01*
X146118287Y-75776978D01*
X146111092Y-75783280D01*
X146103387Y-75789017D01*
X146095172Y-75794190D01*
X146086447Y-75798799D01*
X146077212Y-75802844D01*
X146067691Y-75806195D01*
X146058012Y-75808762D01*
X146048173Y-75810547D01*
X146038175Y-75811548D01*
X146028019Y-75811766D01*
X146017704Y-75811200D01*
X146007230Y-75809851D01*
X145996597Y-75807719D01*
X145985805Y-75804803D01*
X145974855Y-75801105D01*
X145967466Y-75798204D01*
X145884607Y-75763882D01*
X145980168Y-75533177D01*
X146066096Y-75568769D01*
G37*
G36*
X145344800Y-75279516D02*
G01*
X145343944Y-75282235D01*
X145341512Y-75290222D01*
X145339287Y-75297953D01*
X145336642Y-75307861D01*
X145334364Y-75317314D01*
X145332453Y-75326311D01*
X145330910Y-75334852D01*
X145329734Y-75342937D01*
X145328780Y-75352402D01*
X145302230Y-75658009D01*
X145090659Y-75570374D01*
X145292415Y-75335012D01*
X145298206Y-75328109D01*
X145303801Y-75321024D01*
X145309199Y-75313760D01*
X145314401Y-75306315D01*
X145319407Y-75298689D01*
X145324217Y-75290883D01*
X145328830Y-75282897D01*
X145333247Y-75274730D01*
X145344800Y-75279516D01*
G37*
G36*
X148026223Y-75834354D02*
G01*
X147420076Y-77297722D01*
X146112905Y-76756274D01*
X147071376Y-76756274D01*
X147233123Y-76823272D01*
X147563326Y-76026092D01*
X147462053Y-75984144D01*
X147453640Y-75986064D01*
X147445180Y-75987885D01*
X147436673Y-75989606D01*
X147428119Y-75991227D01*
X147419519Y-75992748D01*
X147410872Y-75994170D01*
X147402179Y-75995491D01*
X147393439Y-75996713D01*
X147384652Y-75997835D01*
X147375819Y-75998856D01*
X147366939Y-75999778D01*
X147358013Y-76000601D01*
X147349040Y-76001323D01*
X147340020Y-76001945D01*
X147330954Y-76002468D01*
X147321841Y-76002891D01*
X147312681Y-76003214D01*
X147303475Y-76003437D01*
X147294222Y-76003560D01*
X147284923Y-76003583D01*
X147275576Y-76003506D01*
X147266184Y-76003330D01*
X147256744Y-76003054D01*
X147247259Y-76002678D01*
X147237726Y-76002202D01*
X147228147Y-76001626D01*
X147218521Y-76000950D01*
X147208849Y-76000174D01*
X147199130Y-75999299D01*
X147189364Y-75998324D01*
X147179552Y-75997248D01*
X147169693Y-75996073D01*
X147111444Y-76136699D01*
X147117430Y-76138366D01*
X147126634Y-76140686D01*
X147136110Y-76142792D01*
X147145857Y-76144683D01*
X147155875Y-76146359D01*
X147166164Y-76147821D01*
X147176725Y-76149067D01*
X147187556Y-76150099D01*
X147198659Y-76150915D01*
X147210033Y-76151517D01*
X147221678Y-76151905D01*
X147229460Y-76152011D01*
X147240829Y-76151955D01*
X147251833Y-76151640D01*
X147262472Y-76151065D01*
X147272747Y-76150232D01*
X147282656Y-76149140D01*
X147292201Y-76147789D01*
X147301380Y-76146179D01*
X147310195Y-76144310D01*
X147318645Y-76142183D01*
X147326730Y-76139796D01*
X147071376Y-76756274D01*
X146112905Y-76756274D01*
X145442813Y-76478713D01*
X146401283Y-76478713D01*
X146574583Y-76550496D01*
X146843247Y-75901885D01*
X147062760Y-75992810D01*
X147119514Y-75855795D01*
X146507187Y-75602161D01*
X146450433Y-75739176D01*
X146669947Y-75830101D01*
X146401283Y-76478713D01*
X145442813Y-76478713D01*
X144582088Y-76122189D01*
X145540560Y-76122189D01*
X145702307Y-76189187D01*
X145826357Y-75889703D01*
X145878708Y-75911388D01*
X145885584Y-75914566D01*
X145893715Y-75919276D01*
X145901331Y-75924806D01*
X145908432Y-75931155D01*
X145915018Y-75938324D01*
X145919916Y-75944649D01*
X145924484Y-75951498D01*
X145925586Y-75953314D01*
X145929905Y-75961562D01*
X145933055Y-75968782D01*
X145936127Y-75976888D01*
X145939123Y-75985881D01*
X145942041Y-75995760D01*
X145944882Y-76006525D01*
X145946733Y-76014194D01*
X145948550Y-76022258D01*
X145950333Y-76030715D01*
X145952081Y-76039566D01*
X145953795Y-76048811D01*
X145955475Y-76058449D01*
X145995111Y-76310471D01*
X146187547Y-76390180D01*
X146134888Y-76099137D01*
X146133337Y-76091265D01*
X146131743Y-76083564D01*
X146128424Y-76068668D01*
X146124932Y-76054451D01*
X146121267Y-76040913D01*
X146117428Y-76028052D01*
X146113415Y-76015870D01*
X146109229Y-76004366D01*
X146104869Y-75993540D01*
X146100336Y-75983393D01*
X146095629Y-75973923D01*
X146090749Y-75965133D01*
X146085695Y-75957020D01*
X146080467Y-75949585D01*
X146075066Y-75942829D01*
X146069492Y-75936751D01*
X146063744Y-75931352D01*
X146064566Y-75929366D01*
X146075953Y-75930463D01*
X146087175Y-75931180D01*
X146098232Y-75931516D01*
X146109125Y-75931472D01*
X146119853Y-75931047D01*
X146130417Y-75930242D01*
X146140816Y-75929056D01*
X146151051Y-75927490D01*
X146161120Y-75925544D01*
X146171026Y-75923217D01*
X146180766Y-75920509D01*
X146190342Y-75917421D01*
X146199754Y-75913953D01*
X146209001Y-75910104D01*
X146218083Y-75905875D01*
X146227001Y-75901265D01*
X146235700Y-75896277D01*
X146244109Y-75890956D01*
X146252227Y-75885304D01*
X146260055Y-75879320D01*
X146267593Y-75873004D01*
X146274840Y-75866357D01*
X146281796Y-75859377D01*
X146288462Y-75852066D01*
X146294837Y-75844423D01*
X146300922Y-75836448D01*
X146306717Y-75828141D01*
X146312221Y-75819503D01*
X146317434Y-75810533D01*
X146322357Y-75801230D01*
X146326990Y-75791596D01*
X146331332Y-75781631D01*
X146336547Y-75768268D01*
X146341041Y-75755099D01*
X146344814Y-75742124D01*
X146347867Y-75729344D01*
X146350199Y-75716758D01*
X146351811Y-75704367D01*
X146352701Y-75692169D01*
X146352871Y-75680166D01*
X146352320Y-75668357D01*
X146351049Y-75656743D01*
X146349056Y-75645322D01*
X146346343Y-75634096D01*
X146342910Y-75623064D01*
X146338755Y-75612227D01*
X146333880Y-75601584D01*
X146328284Y-75591135D01*
X146321967Y-75580880D01*
X146314930Y-75570819D01*
X146307172Y-75560953D01*
X146298693Y-75551281D01*
X146289493Y-75541803D01*
X146279573Y-75532520D01*
X146268932Y-75523431D01*
X146257570Y-75514536D01*
X146245488Y-75505835D01*
X146232684Y-75497328D01*
X146219161Y-75489016D01*
X146204916Y-75480898D01*
X146189950Y-75472975D01*
X146174264Y-75465245D01*
X146157857Y-75457710D01*
X146140730Y-75450369D01*
X145865977Y-75336563D01*
X145688976Y-75763882D01*
X145540560Y-76122189D01*
X144582088Y-76122189D01*
X143724255Y-75766863D01*
X144682725Y-75766863D01*
X144866315Y-75842908D01*
X145000400Y-75684628D01*
X145288331Y-75803893D01*
X145272126Y-76011000D01*
X145456799Y-76087494D01*
X145504936Y-75187015D01*
X145296976Y-75100875D01*
X144863950Y-75570374D01*
X144682725Y-75766863D01*
X143724255Y-75766863D01*
X143505235Y-75676142D01*
X143646162Y-75335915D01*
X144066009Y-75335915D01*
X144066591Y-75352950D01*
X144068070Y-75369576D01*
X144070446Y-75385792D01*
X144073719Y-75401598D01*
X144077889Y-75416995D01*
X144082956Y-75431982D01*
X144088920Y-75446560D01*
X144095781Y-75460728D01*
X144103540Y-75474487D01*
X144112195Y-75487836D01*
X144121747Y-75500776D01*
X144132197Y-75513306D01*
X144143543Y-75525426D01*
X144155787Y-75537137D01*
X144168927Y-75548439D01*
X144182965Y-75559331D01*
X144197900Y-75569813D01*
X144213732Y-75579886D01*
X144230460Y-75589549D01*
X144248086Y-75598803D01*
X144266609Y-75607647D01*
X144286029Y-75616081D01*
X144306418Y-75624125D01*
X144326447Y-75631219D01*
X144346117Y-75637361D01*
X144365429Y-75642552D01*
X144384381Y-75646792D01*
X144402973Y-75650082D01*
X144421207Y-75652420D01*
X144439082Y-75653808D01*
X144456597Y-75654244D01*
X144473753Y-75653730D01*
X144490550Y-75652264D01*
X144506988Y-75649848D01*
X144523067Y-75646481D01*
X144538787Y-75642163D01*
X144554148Y-75636894D01*
X144569149Y-75630673D01*
X144583792Y-75623502D01*
X144598075Y-75615380D01*
X144611999Y-75606307D01*
X144625564Y-75596284D01*
X144638769Y-75585309D01*
X144651616Y-75573383D01*
X144664104Y-75560506D01*
X144676232Y-75546679D01*
X144688001Y-75531900D01*
X144699411Y-75516170D01*
X144710462Y-75499490D01*
X144721154Y-75481859D01*
X144731487Y-75463276D01*
X144741460Y-75443743D01*
X144751075Y-75423258D01*
X144760330Y-75401823D01*
X144945321Y-74955215D01*
X144772021Y-74883432D01*
X144580001Y-75347009D01*
X144575053Y-75358544D01*
X144569967Y-75369590D01*
X144564741Y-75380147D01*
X144559378Y-75390216D01*
X144553876Y-75399797D01*
X144548236Y-75408888D01*
X144542457Y-75417492D01*
X144536540Y-75425606D01*
X144530485Y-75433232D01*
X144524291Y-75440370D01*
X144517958Y-75447019D01*
X144511488Y-75453179D01*
X144504879Y-75458851D01*
X144498131Y-75464034D01*
X144491245Y-75468729D01*
X144484221Y-75472935D01*
X144477058Y-75476652D01*
X144469757Y-75479881D01*
X144462317Y-75482621D01*
X144454739Y-75484873D01*
X144447023Y-75486636D01*
X144439168Y-75487911D01*
X144431175Y-75488696D01*
X144423043Y-75488994D01*
X144414773Y-75488803D01*
X144406365Y-75488123D01*
X144397818Y-75486955D01*
X144389133Y-75485298D01*
X144380309Y-75483152D01*
X144371347Y-75480518D01*
X144362246Y-75477395D01*
X144353007Y-75473784D01*
X144343769Y-75469733D01*
X144334984Y-75465423D01*
X144326653Y-75460853D01*
X144318776Y-75456023D01*
X144311354Y-75450933D01*
X144304385Y-75445584D01*
X144297871Y-75439975D01*
X144291811Y-75434107D01*
X144286205Y-75427979D01*
X144281053Y-75421591D01*
X144276355Y-75414944D01*
X144272112Y-75408036D01*
X144268322Y-75400870D01*
X144264987Y-75393443D01*
X144262106Y-75385757D01*
X144259679Y-75377811D01*
X144257706Y-75369606D01*
X144256187Y-75361141D01*
X144255122Y-75352416D01*
X144254511Y-75343431D01*
X144254355Y-75334187D01*
X144254653Y-75324684D01*
X144255404Y-75314920D01*
X144256610Y-75304897D01*
X144258270Y-75294614D01*
X144260384Y-75284072D01*
X144262953Y-75273270D01*
X144265975Y-75262208D01*
X144269451Y-75250886D01*
X144273382Y-75239305D01*
X144277767Y-75227464D01*
X144282606Y-75215364D01*
X144471635Y-74759007D01*
X144298335Y-74687224D01*
X144109530Y-75143039D01*
X144101141Y-75164170D01*
X144093650Y-75184891D01*
X144087055Y-75205202D01*
X144081357Y-75225104D01*
X144076557Y-75244596D01*
X144072653Y-75263679D01*
X144069647Y-75282352D01*
X144067537Y-75300616D01*
X144066325Y-75318470D01*
X144066009Y-75335915D01*
X143646162Y-75335915D01*
X144111382Y-74212773D01*
X148026223Y-75834354D01*
G37*
G36*
X123899162Y-78702288D02*
G01*
X122961660Y-80403000D01*
X122556413Y-80403000D01*
X122333663Y-78702288D01*
X122720153Y-78702288D01*
X122833872Y-79903963D01*
X122835246Y-79920579D01*
X122836290Y-79937018D01*
X122837005Y-79953277D01*
X122837390Y-79969359D01*
X122837445Y-79985261D01*
X122837170Y-80000985D01*
X122836290Y-80021672D01*
X122834825Y-80042042D01*
X122832773Y-80062094D01*
X122831528Y-80072002D01*
X122838171Y-80072002D01*
X122843130Y-80056675D01*
X122848480Y-80041177D01*
X122854221Y-80025507D01*
X122860355Y-80009665D01*
X122866879Y-79993651D01*
X122873796Y-79977466D01*
X122881103Y-79961109D01*
X122888803Y-79944580D01*
X122896894Y-79927880D01*
X122905376Y-79911007D01*
X122911249Y-79899664D01*
X123524787Y-78702288D01*
X123899162Y-78702288D01*
G37*
G36*
X124466036Y-79153096D02*
G01*
X124495255Y-79154955D01*
X124523372Y-79158054D01*
X124550387Y-79162392D01*
X124576299Y-79167970D01*
X124601110Y-79174788D01*
X124624818Y-79182845D01*
X124647424Y-79192141D01*
X124668929Y-79202677D01*
X124689330Y-79214453D01*
X124708630Y-79227468D01*
X124726828Y-79241722D01*
X124743923Y-79257217D01*
X124759917Y-79273950D01*
X124774808Y-79291924D01*
X124788597Y-79311136D01*
X124801244Y-79331433D01*
X124812612Y-79352658D01*
X124822701Y-79374810D01*
X124831510Y-79397891D01*
X124839041Y-79421900D01*
X124845292Y-79446838D01*
X124850264Y-79472703D01*
X124853956Y-79499496D01*
X124856370Y-79527218D01*
X124857504Y-79555868D01*
X124857359Y-79585445D01*
X124855935Y-79615951D01*
X124854743Y-79631552D01*
X124853231Y-79647385D01*
X124851400Y-79663450D01*
X124849248Y-79679748D01*
X124846777Y-79696277D01*
X124843987Y-79713038D01*
X124840876Y-79730031D01*
X124837445Y-79747256D01*
X124805792Y-79899664D01*
X124047662Y-79899664D01*
X124045532Y-79916470D01*
X124044076Y-79932742D01*
X124043294Y-79948481D01*
X124043752Y-79978358D01*
X124046906Y-80006101D01*
X124052755Y-80031710D01*
X124061301Y-80055184D01*
X124072542Y-80076525D01*
X124086479Y-80095732D01*
X124103112Y-80112804D01*
X124122441Y-80127743D01*
X124144465Y-80140547D01*
X124169186Y-80151218D01*
X124196602Y-80159754D01*
X124226714Y-80166156D01*
X124242781Y-80168557D01*
X124259522Y-80170424D01*
X124276937Y-80171758D01*
X124295026Y-80172558D01*
X124313789Y-80172825D01*
X124337583Y-80172434D01*
X124361190Y-80171262D01*
X124384612Y-80169308D01*
X124407847Y-80166572D01*
X124430896Y-80163055D01*
X124453758Y-80158757D01*
X124476435Y-80153676D01*
X124498925Y-80147815D01*
X124521229Y-80141171D01*
X124543346Y-80133746D01*
X124565278Y-80125540D01*
X124587023Y-80116551D01*
X124608582Y-80106782D01*
X124629955Y-80096230D01*
X124651142Y-80084898D01*
X124672142Y-80072783D01*
X124617822Y-80334221D01*
X124595190Y-80345578D01*
X124571941Y-80356203D01*
X124548076Y-80366094D01*
X124523593Y-80375254D01*
X124498494Y-80383680D01*
X124472779Y-80391374D01*
X124446446Y-80398334D01*
X124419497Y-80404563D01*
X124391931Y-80410058D01*
X124363749Y-80414821D01*
X124334949Y-80418851D01*
X124305533Y-80422148D01*
X124275501Y-80424713D01*
X124244851Y-80426545D01*
X124213585Y-80427644D01*
X124197721Y-80427918D01*
X124181702Y-80428010D01*
X124164490Y-80427850D01*
X124147586Y-80427370D01*
X124130989Y-80426571D01*
X124114700Y-80425452D01*
X124098719Y-80424012D01*
X124083045Y-80422253D01*
X124052620Y-80417776D01*
X124023425Y-80412020D01*
X123995461Y-80404984D01*
X123968727Y-80396669D01*
X123943224Y-80387075D01*
X123918950Y-80376201D01*
X123895908Y-80364049D01*
X123874095Y-80350617D01*
X123853513Y-80335906D01*
X123834161Y-80319916D01*
X123816040Y-80302646D01*
X123799149Y-80284098D01*
X123783489Y-80264270D01*
X123769152Y-80243252D01*
X123756231Y-80221234D01*
X123744727Y-80198214D01*
X123734640Y-80174193D01*
X123725969Y-80149170D01*
X123718715Y-80123146D01*
X123712878Y-80096121D01*
X123708457Y-80068094D01*
X123705453Y-80039065D01*
X123703866Y-80009036D01*
X123703695Y-79978005D01*
X123704140Y-79962114D01*
X123704940Y-79945972D01*
X123706094Y-79929581D01*
X123707602Y-79912938D01*
X123709465Y-79896046D01*
X123711681Y-79878903D01*
X123714252Y-79861510D01*
X123717177Y-79843867D01*
X123720456Y-79825973D01*
X123724089Y-79807829D01*
X123728012Y-79789715D01*
X123732211Y-79771816D01*
X123736686Y-79754132D01*
X123741436Y-79736662D01*
X123746462Y-79719407D01*
X123751763Y-79702366D01*
X123757340Y-79685540D01*
X123760103Y-79677696D01*
X124092602Y-79677696D01*
X124534193Y-79677696D01*
X124537597Y-79660337D01*
X124540481Y-79643529D01*
X124542845Y-79627273D01*
X124544690Y-79611567D01*
X124546819Y-79581809D01*
X124546870Y-79554256D01*
X124544841Y-79528906D01*
X124540733Y-79505761D01*
X124534546Y-79484820D01*
X124526280Y-79466084D01*
X124515935Y-79449552D01*
X124503510Y-79435224D01*
X124489007Y-79423100D01*
X124472424Y-79413181D01*
X124453763Y-79405466D01*
X124433022Y-79399955D01*
X124410202Y-79396649D01*
X124385303Y-79395547D01*
X124369287Y-79396227D01*
X124353333Y-79398267D01*
X124337441Y-79401667D01*
X124321611Y-79406428D01*
X124305842Y-79412548D01*
X124290135Y-79420029D01*
X124274490Y-79428870D01*
X124258907Y-79439071D01*
X124243386Y-79450632D01*
X124227927Y-79463553D01*
X124217655Y-79472923D01*
X124202611Y-79487870D01*
X124188254Y-79503697D01*
X124174584Y-79520404D01*
X124161601Y-79537989D01*
X124149305Y-79556454D01*
X124137696Y-79575798D01*
X124126774Y-79596021D01*
X124116538Y-79617124D01*
X124110096Y-79631681D01*
X124103960Y-79646628D01*
X124098128Y-79661967D01*
X124092602Y-79677696D01*
X123760103Y-79677696D01*
X123763192Y-79668928D01*
X123769320Y-79652530D01*
X123775723Y-79636347D01*
X123782402Y-79620379D01*
X123789357Y-79604625D01*
X123796587Y-79589085D01*
X123804092Y-79573760D01*
X123811873Y-79558649D01*
X123819930Y-79543753D01*
X123828262Y-79529071D01*
X123836869Y-79514604D01*
X123845753Y-79500352D01*
X123854911Y-79486313D01*
X123864346Y-79472490D01*
X123874055Y-79458880D01*
X123884041Y-79445485D01*
X123894302Y-79432305D01*
X123904838Y-79419339D01*
X123915650Y-79406588D01*
X123926737Y-79394051D01*
X123938101Y-79381729D01*
X123949739Y-79369621D01*
X123961653Y-79357727D01*
X123973843Y-79346048D01*
X123986308Y-79334584D01*
X123998956Y-79323380D01*
X124011694Y-79312532D01*
X124024522Y-79302039D01*
X124037440Y-79291902D01*
X124050448Y-79282121D01*
X124063547Y-79272696D01*
X124076735Y-79263626D01*
X124090013Y-79254912D01*
X124103382Y-79246553D01*
X124116840Y-79238550D01*
X124144028Y-79223612D01*
X124171575Y-79210096D01*
X124199483Y-79198003D01*
X124227751Y-79187333D01*
X124256379Y-79178085D01*
X124285368Y-79170260D01*
X124314717Y-79163858D01*
X124344426Y-79158878D01*
X124374495Y-79155322D01*
X124404925Y-79153187D01*
X124435715Y-79152476D01*
X124466036Y-79153096D01*
G37*
G36*
X125820279Y-79502623D02*
G01*
X125806302Y-79490899D01*
X125791140Y-79480739D01*
X125774795Y-79472141D01*
X125757264Y-79465107D01*
X125738549Y-79459636D01*
X125718649Y-79455728D01*
X125702947Y-79453823D01*
X125686579Y-79452797D01*
X125675296Y-79452602D01*
X125653066Y-79453429D01*
X125631364Y-79455913D01*
X125610192Y-79460052D01*
X125589549Y-79465846D01*
X125569434Y-79473296D01*
X125549848Y-79482401D01*
X125530792Y-79493162D01*
X125512264Y-79505578D01*
X125494265Y-79519650D01*
X125476795Y-79535377D01*
X125465443Y-79546782D01*
X125454426Y-79558831D01*
X125443845Y-79571432D01*
X125433702Y-79584586D01*
X125423995Y-79598293D01*
X125414724Y-79612552D01*
X125405890Y-79627364D01*
X125397493Y-79642728D01*
X125389532Y-79658645D01*
X125382008Y-79675115D01*
X125374920Y-79692137D01*
X125368269Y-79709712D01*
X125362055Y-79727839D01*
X125356277Y-79746519D01*
X125350935Y-79765752D01*
X125346031Y-79785537D01*
X125341563Y-79805875D01*
X125217292Y-80403000D01*
X124874961Y-80403000D01*
X125129755Y-79177487D01*
X125472086Y-79177487D01*
X125426755Y-79396328D01*
X125431053Y-79396328D01*
X125439741Y-79381326D01*
X125448608Y-79366799D01*
X125457656Y-79352749D01*
X125466884Y-79339175D01*
X125476292Y-79326078D01*
X125485880Y-79313457D01*
X125505596Y-79289643D01*
X125526033Y-79267734D01*
X125547191Y-79247731D01*
X125569069Y-79229632D01*
X125591667Y-79213439D01*
X125614986Y-79199151D01*
X125639026Y-79186768D01*
X125663786Y-79176290D01*
X125689267Y-79167717D01*
X125715468Y-79161049D01*
X125742390Y-79156286D01*
X125770032Y-79153429D01*
X125798394Y-79152476D01*
X125817020Y-79152829D01*
X125834062Y-79153888D01*
X125852421Y-79156091D01*
X125868500Y-79159310D01*
X125884376Y-79164351D01*
X125890230Y-79166935D01*
X125820279Y-79502623D01*
G37*
G36*
X126927383Y-80107173D02*
G01*
X127602665Y-80107173D01*
X127541311Y-80403000D01*
X126465080Y-80403000D01*
X126491263Y-80277166D01*
X126494899Y-80260649D01*
X126498871Y-80244315D01*
X126503179Y-80228164D01*
X126507822Y-80212197D01*
X126512802Y-80196413D01*
X126518117Y-80180812D01*
X126523768Y-80165394D01*
X126529755Y-80150159D01*
X126536078Y-80135108D01*
X126542737Y-80120240D01*
X126549731Y-80105554D01*
X126557062Y-80091053D01*
X126564728Y-80076734D01*
X126572730Y-80062598D01*
X126581068Y-80048646D01*
X126589741Y-80034877D01*
X126598713Y-80021210D01*
X126607943Y-80007662D01*
X126617434Y-79994233D01*
X126627184Y-79980923D01*
X126637193Y-79967733D01*
X126647462Y-79954661D01*
X126657990Y-79941709D01*
X126668778Y-79928875D01*
X126679826Y-79916161D01*
X126691133Y-79903566D01*
X126702699Y-79891089D01*
X126714525Y-79878732D01*
X126726610Y-79866494D01*
X126738955Y-79854375D01*
X126751560Y-79842375D01*
X126764424Y-79830494D01*
X126777856Y-79818499D01*
X126792066Y-79806253D01*
X126807055Y-79793757D01*
X126822822Y-79781011D01*
X126839368Y-79768014D01*
X126856693Y-79754767D01*
X126874796Y-79741269D01*
X126893677Y-79727521D01*
X126913337Y-79713523D01*
X126933776Y-79699275D01*
X126954993Y-79684776D01*
X126976988Y-79670027D01*
X126999762Y-79655027D01*
X127023315Y-79639777D01*
X127047646Y-79624277D01*
X127072756Y-79608526D01*
X127095753Y-79593298D01*
X127117947Y-79578289D01*
X127139338Y-79563500D01*
X127159926Y-79548931D01*
X127179711Y-79534582D01*
X127198694Y-79520452D01*
X127216873Y-79506543D01*
X127234249Y-79492853D01*
X127250823Y-79479383D01*
X127266593Y-79466133D01*
X127281561Y-79453102D01*
X127295725Y-79440292D01*
X127309087Y-79427701D01*
X127321646Y-79415330D01*
X127333401Y-79403179D01*
X127344354Y-79391248D01*
X127354708Y-79379381D01*
X127369318Y-79361408D01*
X127382822Y-79343230D01*
X127395220Y-79324845D01*
X127406512Y-79306254D01*
X127416698Y-79287458D01*
X127425778Y-79268455D01*
X127433753Y-79249246D01*
X127440621Y-79229831D01*
X127446383Y-79210210D01*
X127451039Y-79190383D01*
X127455848Y-79162699D01*
X127458354Y-79136802D01*
X127458559Y-79112690D01*
X127456461Y-79090365D01*
X127452062Y-79069826D01*
X127445361Y-79051073D01*
X127436357Y-79034105D01*
X127425052Y-79018924D01*
X127411444Y-79005529D01*
X127395535Y-78993920D01*
X127377324Y-78984097D01*
X127356810Y-78976060D01*
X127333995Y-78969808D01*
X127308878Y-78965343D01*
X127281458Y-78962664D01*
X127251737Y-78961771D01*
X127224654Y-78962458D01*
X127197430Y-78964519D01*
X127170065Y-78967954D01*
X127142561Y-78972762D01*
X127114915Y-78978945D01*
X127087130Y-78986501D01*
X127059204Y-78995431D01*
X127031137Y-79005735D01*
X127002930Y-79017413D01*
X126974583Y-79030465D01*
X126960356Y-79037506D01*
X126946095Y-79044890D01*
X126931798Y-79052618D01*
X126917466Y-79060690D01*
X126903100Y-79069105D01*
X126888698Y-79077863D01*
X126874261Y-79086965D01*
X126859788Y-79096410D01*
X126845281Y-79106199D01*
X126830739Y-79116331D01*
X126816161Y-79126807D01*
X126801549Y-79137626D01*
X126867592Y-78821087D01*
X126882757Y-78812240D01*
X126897965Y-78803673D01*
X126913217Y-78795387D01*
X126928512Y-78787382D01*
X126943851Y-78779658D01*
X126959233Y-78772214D01*
X126974659Y-78765052D01*
X126990129Y-78758170D01*
X127005641Y-78751570D01*
X127021198Y-78745250D01*
X127036798Y-78739211D01*
X127052441Y-78733453D01*
X127068128Y-78727976D01*
X127083858Y-78722780D01*
X127099632Y-78717864D01*
X127115450Y-78713230D01*
X127131311Y-78708876D01*
X127147215Y-78704803D01*
X127163163Y-78701012D01*
X127179154Y-78697501D01*
X127195189Y-78694270D01*
X127211268Y-78691321D01*
X127227390Y-78688653D01*
X127243555Y-78686265D01*
X127259764Y-78684159D01*
X127276016Y-78682333D01*
X127292312Y-78680788D01*
X127308652Y-78679524D01*
X127325035Y-78678541D01*
X127341461Y-78677839D01*
X127357931Y-78677418D01*
X127374445Y-78677277D01*
X127404325Y-78677786D01*
X127433197Y-78679311D01*
X127461062Y-78681852D01*
X127487920Y-78685411D01*
X127513770Y-78689985D01*
X127538613Y-78695577D01*
X127562448Y-78702185D01*
X127585275Y-78709810D01*
X127607095Y-78718452D01*
X127627908Y-78728110D01*
X127647713Y-78738785D01*
X127666510Y-78750477D01*
X127684300Y-78763185D01*
X127701083Y-78776910D01*
X127716858Y-78791652D01*
X127731625Y-78807410D01*
X127745306Y-78824011D01*
X127757723Y-78841378D01*
X127768876Y-78859511D01*
X127778764Y-78878411D01*
X127787389Y-78898077D01*
X127794750Y-78918510D01*
X127800847Y-78939709D01*
X127805680Y-78961674D01*
X127809249Y-78984405D01*
X127811554Y-79007903D01*
X127812595Y-79032167D01*
X127812372Y-79057197D01*
X127810885Y-79082994D01*
X127808135Y-79109557D01*
X127804120Y-79136886D01*
X127798841Y-79164981D01*
X127795382Y-79180762D01*
X127791648Y-79196354D01*
X127787640Y-79211757D01*
X127783356Y-79226970D01*
X127778798Y-79241994D01*
X127771445Y-79264175D01*
X127763475Y-79285930D01*
X127754886Y-79307260D01*
X127745679Y-79328163D01*
X127735853Y-79348641D01*
X127725409Y-79368692D01*
X127714348Y-79388318D01*
X127710523Y-79394765D01*
X127698720Y-79413853D01*
X127686320Y-79432720D01*
X127673322Y-79451368D01*
X127659726Y-79469796D01*
X127645533Y-79488005D01*
X127630742Y-79505993D01*
X127620550Y-79517863D01*
X127610092Y-79529636D01*
X127599368Y-79541311D01*
X127588379Y-79552888D01*
X127577124Y-79564367D01*
X127565603Y-79575749D01*
X127553817Y-79587033D01*
X127541557Y-79598409D01*
X127528519Y-79610065D01*
X127514703Y-79622002D01*
X127500108Y-79634221D01*
X127484734Y-79646720D01*
X127468582Y-79659500D01*
X127451651Y-79672561D01*
X127433942Y-79685903D01*
X127415455Y-79699525D01*
X127396188Y-79713429D01*
X127376144Y-79727613D01*
X127355321Y-79742078D01*
X127333719Y-79756825D01*
X127311338Y-79771852D01*
X127288180Y-79787159D01*
X127264242Y-79802748D01*
X127241303Y-79817820D01*
X127219283Y-79832454D01*
X127198182Y-79846652D01*
X127178000Y-79860414D01*
X127158737Y-79873739D01*
X127140393Y-79886627D01*
X127122968Y-79899079D01*
X127106461Y-79911094D01*
X127090874Y-79922673D01*
X127076206Y-79933815D01*
X127062457Y-79944521D01*
X127049626Y-79954789D01*
X127032104Y-79969374D01*
X127016649Y-79982977D01*
X127007494Y-79991499D01*
X126994970Y-80003804D01*
X126983484Y-80015807D01*
X126973034Y-80027508D01*
X126960715Y-80042639D01*
X126950240Y-80057233D01*
X126941609Y-80071289D01*
X126933414Y-80088103D01*
X126928100Y-80104078D01*
X126927383Y-80107173D01*
G37*
G36*
X127854724Y-80238868D02*
G01*
X127858436Y-80223669D01*
X127864902Y-80204215D01*
X127873102Y-80185689D01*
X127883037Y-80168091D01*
X127894706Y-80151422D01*
X127908108Y-80135680D01*
X127919299Y-80124483D01*
X127931464Y-80113808D01*
X127944605Y-80103655D01*
X127958417Y-80094227D01*
X127972449Y-80085727D01*
X127986700Y-80078153D01*
X128001172Y-80071507D01*
X128015863Y-80065788D01*
X128030774Y-80060997D01*
X128050997Y-80056051D01*
X128066421Y-80053423D01*
X128082065Y-80051723D01*
X128097929Y-80050951D01*
X128103265Y-80050899D01*
X128119265Y-80051373D01*
X128139540Y-80053480D01*
X128158607Y-80057271D01*
X128176464Y-80062749D01*
X128193112Y-80069911D01*
X128208551Y-80078759D01*
X128222781Y-80089292D01*
X128235803Y-80101510D01*
X128238869Y-80104828D01*
X128250055Y-80118719D01*
X128259190Y-80133429D01*
X128266273Y-80148956D01*
X128271304Y-80165302D01*
X128274284Y-80182467D01*
X128275212Y-80200449D01*
X128274089Y-80219250D01*
X128270914Y-80238868D01*
X128267149Y-80254483D01*
X128262451Y-80269528D01*
X128254733Y-80288701D01*
X128245354Y-80306861D01*
X128234314Y-80324007D01*
X128221613Y-80340139D01*
X128207252Y-80355258D01*
X128195391Y-80365931D01*
X128182595Y-80376035D01*
X128169224Y-80385324D01*
X128155489Y-80393698D01*
X128141390Y-80401160D01*
X128126926Y-80407707D01*
X128112099Y-80413341D01*
X128096907Y-80418062D01*
X128081352Y-80421868D01*
X128065432Y-80424762D01*
X128049148Y-80426741D01*
X128032501Y-80427807D01*
X128021200Y-80428010D01*
X128000555Y-80427167D01*
X127981022Y-80424639D01*
X127962600Y-80420426D01*
X127945289Y-80414528D01*
X127929090Y-80406944D01*
X127914002Y-80397675D01*
X127900025Y-80386721D01*
X127887159Y-80374081D01*
X127875881Y-80360172D01*
X127866667Y-80345407D01*
X127859517Y-80329788D01*
X127854431Y-80313314D01*
X127851408Y-80295984D01*
X127850450Y-80277801D01*
X127851555Y-80258762D01*
X127854724Y-80238868D01*
G37*
G36*
X129451627Y-78678120D02*
G01*
X129485462Y-78680649D01*
X129517820Y-78684864D01*
X129548701Y-78690766D01*
X129578105Y-78698353D01*
X129606032Y-78707626D01*
X129632482Y-78718585D01*
X129657456Y-78731230D01*
X129680952Y-78745562D01*
X129702972Y-78761579D01*
X129723515Y-78779283D01*
X129742581Y-78798672D01*
X129760170Y-78819748D01*
X129776282Y-78842509D01*
X129790917Y-78866957D01*
X129804075Y-78893090D01*
X129815756Y-78920910D01*
X129825961Y-78950416D01*
X129834688Y-78981607D01*
X129841939Y-79014485D01*
X129847712Y-79049049D01*
X129852009Y-79085299D01*
X129854829Y-79123235D01*
X129856172Y-79162856D01*
X129856038Y-79204164D01*
X129854427Y-79247158D01*
X129851339Y-79291838D01*
X129846775Y-79338204D01*
X129840733Y-79386257D01*
X129833215Y-79435995D01*
X129824219Y-79487419D01*
X129813747Y-79540529D01*
X129808113Y-79566913D01*
X129802252Y-79592919D01*
X129796164Y-79618546D01*
X129789848Y-79643795D01*
X129783304Y-79668665D01*
X129776533Y-79693157D01*
X129769535Y-79717269D01*
X129762309Y-79741004D01*
X129754856Y-79764359D01*
X129747175Y-79787337D01*
X129739267Y-79809935D01*
X129731132Y-79832155D01*
X129722769Y-79853997D01*
X129714178Y-79875459D01*
X129705360Y-79896544D01*
X129696315Y-79917249D01*
X129687042Y-79937576D01*
X129677542Y-79957525D01*
X129667814Y-79977095D01*
X129657859Y-79996286D01*
X129647676Y-80015099D01*
X129637266Y-80033533D01*
X129626629Y-80051589D01*
X129615764Y-80069266D01*
X129604671Y-80086565D01*
X129593351Y-80103484D01*
X129581804Y-80120026D01*
X129570029Y-80136189D01*
X129558027Y-80151973D01*
X129545797Y-80167378D01*
X129533340Y-80182405D01*
X129520655Y-80197054D01*
X129507792Y-80211263D01*
X129494750Y-80225021D01*
X129481530Y-80238328D01*
X129468131Y-80251184D01*
X129454553Y-80263589D01*
X129440797Y-80275543D01*
X129426862Y-80287046D01*
X129412749Y-80298097D01*
X129398457Y-80308698D01*
X129383986Y-80318847D01*
X129369337Y-80328546D01*
X129354509Y-80337793D01*
X129339503Y-80346589D01*
X129324318Y-80354934D01*
X129308954Y-80362828D01*
X129293412Y-80370271D01*
X129277691Y-80377263D01*
X129261792Y-80383804D01*
X129245714Y-80389893D01*
X129229457Y-80395532D01*
X129213022Y-80400719D01*
X129196408Y-80405456D01*
X129179615Y-80409741D01*
X129162644Y-80413575D01*
X129145495Y-80416958D01*
X129128166Y-80419890D01*
X129110660Y-80422371D01*
X129092974Y-80424401D01*
X129075110Y-80425980D01*
X129057067Y-80427108D01*
X129038846Y-80427784D01*
X129020446Y-80428010D01*
X128984338Y-80427182D01*
X128949726Y-80424697D01*
X128916609Y-80420557D01*
X128884989Y-80414760D01*
X128854865Y-80407307D01*
X128826236Y-80398197D01*
X128799104Y-80387431D01*
X128773468Y-80375009D01*
X128749327Y-80360931D01*
X128726683Y-80345196D01*
X128705535Y-80327806D01*
X128685882Y-80308758D01*
X128667726Y-80288055D01*
X128651065Y-80265695D01*
X128635901Y-80241679D01*
X128622233Y-80216007D01*
X128610060Y-80188679D01*
X128599384Y-80159694D01*
X128590203Y-80129053D01*
X128582519Y-80096756D01*
X128576330Y-80062802D01*
X128571638Y-80027192D01*
X128568441Y-79989926D01*
X128566741Y-79951004D01*
X128566536Y-79910425D01*
X128567494Y-79879100D01*
X128912488Y-79879100D01*
X128912698Y-79903633D01*
X128913651Y-79927025D01*
X128915348Y-79949276D01*
X128917788Y-79970386D01*
X128920971Y-79990355D01*
X128924898Y-80009182D01*
X128929569Y-80026869D01*
X128934982Y-80043414D01*
X128941140Y-80058819D01*
X128948040Y-80073082D01*
X128964072Y-80098186D01*
X128983077Y-80118725D01*
X129005056Y-80134700D01*
X129030008Y-80146111D01*
X129057934Y-80152957D01*
X129088834Y-80155240D01*
X129104632Y-80154652D01*
X129120177Y-80152890D01*
X129150505Y-80145842D01*
X129165290Y-80140556D01*
X129179821Y-80134096D01*
X129194098Y-80126460D01*
X129208122Y-80117651D01*
X129221893Y-80107666D01*
X129235410Y-80096507D01*
X129248674Y-80084173D01*
X129261685Y-80070664D01*
X129274442Y-80055981D01*
X129286946Y-80040123D01*
X129299196Y-80023091D01*
X129311193Y-80004884D01*
X129322936Y-79985502D01*
X129334426Y-79964945D01*
X129345663Y-79943214D01*
X129356646Y-79920308D01*
X129367376Y-79896228D01*
X129377853Y-79870973D01*
X129388076Y-79844543D01*
X129398046Y-79816939D01*
X129407762Y-79788160D01*
X129417225Y-79758206D01*
X129426434Y-79727078D01*
X129435390Y-79694775D01*
X129444093Y-79661297D01*
X129452542Y-79626645D01*
X129460738Y-79590818D01*
X129468681Y-79553816D01*
X129476156Y-79516670D01*
X129482903Y-79480703D01*
X129488921Y-79445916D01*
X129494210Y-79412308D01*
X129498770Y-79379879D01*
X129502601Y-79348629D01*
X129505704Y-79318559D01*
X129508077Y-79289667D01*
X129509721Y-79261955D01*
X129510637Y-79235423D01*
X129510824Y-79210069D01*
X129510281Y-79185895D01*
X129509010Y-79162900D01*
X129507010Y-79141084D01*
X129504281Y-79120447D01*
X129500823Y-79100990D01*
X129496636Y-79082712D01*
X129491720Y-79065613D01*
X129486076Y-79049693D01*
X129479702Y-79034953D01*
X129464768Y-79009009D01*
X129446919Y-78987783D01*
X129426153Y-78971274D01*
X129402472Y-78959482D01*
X129375876Y-78952406D01*
X129346364Y-78950048D01*
X129329865Y-78950654D01*
X129313634Y-78952473D01*
X129297671Y-78955505D01*
X129281975Y-78959750D01*
X129266548Y-78965208D01*
X129251388Y-78971878D01*
X129236497Y-78979762D01*
X129221873Y-78988858D01*
X129207517Y-78999167D01*
X129193430Y-79010689D01*
X129179610Y-79023423D01*
X129166058Y-79037371D01*
X129152773Y-79052531D01*
X129139757Y-79068904D01*
X129127009Y-79086490D01*
X129114528Y-79105288D01*
X129102316Y-79125300D01*
X129090371Y-79146524D01*
X129078695Y-79168961D01*
X129067286Y-79192611D01*
X129056145Y-79217474D01*
X129045272Y-79243550D01*
X129034667Y-79270838D01*
X129024330Y-79299339D01*
X129014260Y-79329053D01*
X129004459Y-79359980D01*
X128994925Y-79392120D01*
X128985660Y-79425472D01*
X128976662Y-79460038D01*
X128967932Y-79495816D01*
X128959471Y-79532807D01*
X128951277Y-79571011D01*
X128944052Y-79606954D01*
X128937571Y-79641757D01*
X128931834Y-79675419D01*
X128926840Y-79707939D01*
X128922589Y-79739319D01*
X128919082Y-79769557D01*
X128916319Y-79798655D01*
X128914298Y-79826611D01*
X128913021Y-79853426D01*
X128912488Y-79879100D01*
X128567494Y-79879100D01*
X128567827Y-79868190D01*
X128570615Y-79824299D01*
X128574898Y-79778751D01*
X128580678Y-79731548D01*
X128587953Y-79682688D01*
X128596724Y-79632171D01*
X128606992Y-79579999D01*
X128612821Y-79552749D01*
X128618877Y-79525904D01*
X128625161Y-79499464D01*
X128631673Y-79473430D01*
X128638411Y-79447800D01*
X128645378Y-79422577D01*
X128652571Y-79397758D01*
X128659993Y-79373345D01*
X128667641Y-79349337D01*
X128675517Y-79325734D01*
X128683621Y-79302537D01*
X128691952Y-79279745D01*
X128700510Y-79257358D01*
X128709296Y-79235377D01*
X128718309Y-79213801D01*
X128727550Y-79192630D01*
X128737018Y-79171864D01*
X128746714Y-79151504D01*
X128756637Y-79131549D01*
X128766788Y-79111999D01*
X128777166Y-79092855D01*
X128787771Y-79074115D01*
X128798604Y-79055782D01*
X128809665Y-79037853D01*
X128820952Y-79020330D01*
X128832468Y-79003212D01*
X128844210Y-78986499D01*
X128856181Y-78970192D01*
X128868378Y-78954289D01*
X128880803Y-78938793D01*
X128893456Y-78923701D01*
X128906336Y-78909015D01*
X128919422Y-78894758D01*
X128932691Y-78880953D01*
X128946145Y-78867601D01*
X128959782Y-78854701D01*
X128973604Y-78842255D01*
X128987609Y-78830260D01*
X129001799Y-78818719D01*
X129016172Y-78807630D01*
X129030729Y-78796993D01*
X129045470Y-78786809D01*
X129060395Y-78777078D01*
X129075505Y-78767800D01*
X129090798Y-78758974D01*
X129106275Y-78750600D01*
X129121936Y-78742680D01*
X129137780Y-78735212D01*
X129153809Y-78728196D01*
X129170022Y-78721633D01*
X129186419Y-78715523D01*
X129202999Y-78709865D01*
X129219764Y-78704660D01*
X129236712Y-78699908D01*
X129253845Y-78695608D01*
X129271161Y-78691761D01*
X129288662Y-78688366D01*
X129306346Y-78685424D01*
X129324214Y-78682935D01*
X129342267Y-78680898D01*
X129360503Y-78679314D01*
X129378923Y-78678182D01*
X129397527Y-78677504D01*
X129416315Y-78677277D01*
X129451627Y-78678120D01*
G37*
D11*
G36*
X119634923Y-81935509D02*
G01*
X119668225Y-81968634D01*
X119702643Y-81999623D01*
X119738177Y-82028474D01*
X119774828Y-82055188D01*
X119812595Y-82079765D01*
X119851478Y-82102205D01*
X119891478Y-82122507D01*
X119932594Y-82140673D01*
X119974826Y-82156701D01*
X120018174Y-82170593D01*
X120062639Y-82182347D01*
X120108220Y-82191964D01*
X120154917Y-82199444D01*
X120202730Y-82204787D01*
X120251660Y-82207992D01*
X120276543Y-82208794D01*
X120301706Y-82209061D01*
X120330099Y-82208746D01*
X120357729Y-82207802D01*
X120384596Y-82206227D01*
X120410699Y-82204023D01*
X120436039Y-82201190D01*
X120460616Y-82197727D01*
X120496051Y-82191351D01*
X120529767Y-82183559D01*
X120561767Y-82174349D01*
X120592049Y-82163723D01*
X120620614Y-82151681D01*
X120647462Y-82138221D01*
X120664406Y-82128461D01*
X120688317Y-82112826D01*
X120710359Y-82096375D01*
X120730534Y-82079109D01*
X120748842Y-82061027D01*
X120765282Y-82042129D01*
X120779854Y-82022415D01*
X120796379Y-81994862D01*
X120809583Y-81965858D01*
X120819467Y-81935404D01*
X120823164Y-81919633D01*
X120827496Y-81892490D01*
X120828889Y-81865709D01*
X120827343Y-81839291D01*
X120822859Y-81813235D01*
X120815436Y-81787542D01*
X120805075Y-81762211D01*
X120791775Y-81737243D01*
X120775537Y-81712637D01*
X120759755Y-81693707D01*
X120738972Y-81673554D01*
X120713187Y-81652176D01*
X120693218Y-81637245D01*
X120671026Y-81621770D01*
X120646612Y-81605751D01*
X120619974Y-81589189D01*
X120591113Y-81572082D01*
X120560029Y-81554432D01*
X120526723Y-81536237D01*
X120491193Y-81517499D01*
X120453440Y-81498218D01*
X120413465Y-81478392D01*
X120371266Y-81458023D01*
X120349333Y-81447634D01*
X120315060Y-81431146D01*
X120282080Y-81414198D01*
X120250393Y-81396790D01*
X120219999Y-81378921D01*
X120190897Y-81360593D01*
X120163088Y-81341803D01*
X120136572Y-81322554D01*
X120111349Y-81302844D01*
X120087418Y-81282673D01*
X120064781Y-81262043D01*
X120043436Y-81240952D01*
X120023383Y-81219400D01*
X120004624Y-81197389D01*
X119987157Y-81174917D01*
X119970983Y-81151984D01*
X119956102Y-81128592D01*
X119942514Y-81104739D01*
X119930218Y-81080425D01*
X119919215Y-81055651D01*
X119909505Y-81030417D01*
X119901088Y-81004723D01*
X119893963Y-80978568D01*
X119888131Y-80951953D01*
X119883592Y-80924878D01*
X119880346Y-80897342D01*
X119878393Y-80869346D01*
X119877732Y-80840890D01*
X119878364Y-80811973D01*
X119880289Y-80782596D01*
X119883507Y-80752758D01*
X119888017Y-80722460D01*
X119893820Y-80691702D01*
X119904229Y-80646773D01*
X119916527Y-80603116D01*
X119930714Y-80560734D01*
X119946790Y-80519626D01*
X119964756Y-80479791D01*
X119984610Y-80441229D01*
X120006353Y-80403942D01*
X120029986Y-80367928D01*
X120055507Y-80333188D01*
X120082918Y-80299721D01*
X120112217Y-80267528D01*
X120143406Y-80236609D01*
X120176484Y-80206964D01*
X120211450Y-80178592D01*
X120248306Y-80151494D01*
X120287051Y-80125669D01*
X120327275Y-80101195D01*
X120368567Y-80078300D01*
X120410928Y-80056983D01*
X120454357Y-80037246D01*
X120498855Y-80019087D01*
X120544422Y-80002508D01*
X120567606Y-79994810D01*
X120591057Y-79987508D01*
X120614775Y-79980600D01*
X120638761Y-79974086D01*
X120663013Y-79967968D01*
X120687533Y-79962244D01*
X120712320Y-79956915D01*
X120737374Y-79951980D01*
X120762695Y-79947441D01*
X120788283Y-79943296D01*
X120814139Y-79939546D01*
X120840261Y-79936190D01*
X120866651Y-79933230D01*
X120893308Y-79930664D01*
X120920232Y-79928493D01*
X120947423Y-79926716D01*
X120974881Y-79925335D01*
X121002606Y-79924348D01*
X121030599Y-79923756D01*
X121058859Y-79923558D01*
X121105847Y-79923962D01*
X121151709Y-79925171D01*
X121196445Y-79927186D01*
X121240056Y-79930008D01*
X121282541Y-79933636D01*
X121323900Y-79938070D01*
X121364133Y-79943310D01*
X121403241Y-79949357D01*
X121441223Y-79956209D01*
X121478078Y-79963868D01*
X121513809Y-79972333D01*
X121548413Y-79981604D01*
X121581891Y-79991682D01*
X121614244Y-80002565D01*
X121645471Y-80014255D01*
X121675572Y-80026751D01*
X121562609Y-80570802D01*
X121534168Y-80547141D01*
X121504716Y-80525006D01*
X121474253Y-80504398D01*
X121442778Y-80485317D01*
X121410292Y-80467762D01*
X121376794Y-80451734D01*
X121342285Y-80437232D01*
X121306765Y-80424256D01*
X121270234Y-80412807D01*
X121232691Y-80402885D01*
X121194137Y-80394489D01*
X121154571Y-80387620D01*
X121113994Y-80382277D01*
X121072406Y-80378461D01*
X121029807Y-80376171D01*
X120986196Y-80375408D01*
X120960589Y-80375696D01*
X120935516Y-80376562D01*
X120910977Y-80378005D01*
X120875171Y-80381252D01*
X120840566Y-80385798D01*
X120807164Y-80391642D01*
X120774964Y-80398785D01*
X120743967Y-80407227D01*
X120714171Y-80416967D01*
X120685577Y-80428006D01*
X120658186Y-80440344D01*
X120640593Y-80449291D01*
X120615597Y-80463584D01*
X120592586Y-80478758D01*
X120571561Y-80494811D01*
X120552522Y-80511745D01*
X120535469Y-80529559D01*
X120515820Y-80554679D01*
X120499700Y-80581365D01*
X120487111Y-80609615D01*
X120478053Y-80639430D01*
X120476339Y-80647128D01*
X120472523Y-80671762D01*
X120471617Y-80701857D01*
X120475004Y-80731177D01*
X120482684Y-80759722D01*
X120494658Y-80787491D01*
X120507328Y-80809149D01*
X120522745Y-80830310D01*
X120543229Y-80852149D01*
X120563439Y-80869742D01*
X120587801Y-80888377D01*
X120616318Y-80908053D01*
X120637637Y-80921749D01*
X120660802Y-80935908D01*
X120685813Y-80950529D01*
X120712670Y-80965613D01*
X120741373Y-80981159D01*
X120771923Y-80997169D01*
X120804318Y-81013641D01*
X120838560Y-81030575D01*
X120874648Y-81047973D01*
X120893384Y-81056845D01*
X120936761Y-81078290D01*
X120978201Y-81099884D01*
X121017705Y-81121624D01*
X121055271Y-81143513D01*
X121090901Y-81165550D01*
X121124594Y-81187735D01*
X121156351Y-81210067D01*
X121186170Y-81232547D01*
X121214053Y-81255176D01*
X121239999Y-81277952D01*
X121264008Y-81300876D01*
X121286081Y-81323948D01*
X121306216Y-81347167D01*
X121324415Y-81370535D01*
X121340678Y-81394051D01*
X121355003Y-81417714D01*
X121367728Y-81441735D01*
X121379189Y-81466324D01*
X121389385Y-81491481D01*
X121398318Y-81517205D01*
X121405986Y-81543497D01*
X121412391Y-81570356D01*
X121417531Y-81597784D01*
X121421407Y-81625778D01*
X121424018Y-81654341D01*
X121425366Y-81683471D01*
X121425449Y-81713169D01*
X121424269Y-81743435D01*
X121421824Y-81774268D01*
X121418115Y-81805669D01*
X121413142Y-81837638D01*
X121406905Y-81870174D01*
X121401682Y-81894038D01*
X121389899Y-81940697D01*
X121376332Y-81985930D01*
X121360981Y-82029736D01*
X121343846Y-82072116D01*
X121324927Y-82113070D01*
X121304224Y-82152597D01*
X121281736Y-82190698D01*
X121257464Y-82227373D01*
X121231409Y-82262621D01*
X121203569Y-82296443D01*
X121173945Y-82328838D01*
X121142537Y-82359808D01*
X121109345Y-82389350D01*
X121074368Y-82417467D01*
X121037608Y-82444157D01*
X121018558Y-82456967D01*
X120979375Y-82481442D01*
X120938760Y-82504337D01*
X120896714Y-82525654D01*
X120853237Y-82545391D01*
X120808328Y-82563549D01*
X120785338Y-82572036D01*
X120761989Y-82580129D01*
X120738283Y-82587826D01*
X120714219Y-82595129D01*
X120689797Y-82602037D01*
X120665017Y-82608551D01*
X120639879Y-82614669D01*
X120614384Y-82620393D01*
X120588531Y-82625722D01*
X120562320Y-82630657D01*
X120535752Y-82635196D01*
X120508826Y-82639341D01*
X120481541Y-82643091D01*
X120453900Y-82646446D01*
X120425900Y-82649407D01*
X120397542Y-82651973D01*
X120368827Y-82654144D01*
X120339754Y-82655920D01*
X120310323Y-82657302D01*
X120280535Y-82658289D01*
X120250388Y-82658881D01*
X120219884Y-82659078D01*
X120192060Y-82658933D01*
X120164610Y-82658496D01*
X120137535Y-82657769D01*
X120110834Y-82656750D01*
X120084507Y-82655441D01*
X120058555Y-82653840D01*
X120032978Y-82651949D01*
X120007775Y-82649767D01*
X119982946Y-82647293D01*
X119958492Y-82644529D01*
X119910707Y-82638127D01*
X119864420Y-82630561D01*
X119819631Y-82621831D01*
X119776340Y-82611938D01*
X119734547Y-82600880D01*
X119694252Y-82588658D01*
X119655454Y-82575273D01*
X119618155Y-82560723D01*
X119582353Y-82545009D01*
X119548050Y-82528132D01*
X119515244Y-82510090D01*
X119634923Y-81935509D01*
G37*
G36*
X122950880Y-80667025D02*
G01*
X122996534Y-80669930D01*
X123040467Y-80674772D01*
X123082678Y-80681551D01*
X123123166Y-80690266D01*
X123161933Y-80700919D01*
X123198977Y-80713508D01*
X123234299Y-80728033D01*
X123267899Y-80744496D01*
X123299777Y-80762895D01*
X123329933Y-80783231D01*
X123358367Y-80805504D01*
X123385078Y-80829714D01*
X123410068Y-80855860D01*
X123433336Y-80883943D01*
X123454881Y-80913963D01*
X123474642Y-80945677D01*
X123492405Y-80978840D01*
X123508168Y-81013454D01*
X123521933Y-81049518D01*
X123533699Y-81087032D01*
X123543467Y-81125997D01*
X123551235Y-81166411D01*
X123557005Y-81208276D01*
X123560776Y-81251591D01*
X123562548Y-81296356D01*
X123562321Y-81342571D01*
X123560096Y-81390237D01*
X123558234Y-81414613D01*
X123555872Y-81439352D01*
X123553010Y-81464454D01*
X123549649Y-81489918D01*
X123545788Y-81515745D01*
X123541427Y-81541934D01*
X123536567Y-81568486D01*
X123531207Y-81595401D01*
X123481748Y-81833538D01*
X122297170Y-81833538D01*
X122293842Y-81859797D01*
X122291567Y-81885222D01*
X122290345Y-81909814D01*
X122291061Y-81956497D01*
X122295989Y-81999845D01*
X122305129Y-82039859D01*
X122318481Y-82076538D01*
X122336045Y-82109883D01*
X122357822Y-82139894D01*
X122383811Y-82166569D01*
X122414012Y-82189911D01*
X122448426Y-82209918D01*
X122487051Y-82226590D01*
X122529889Y-82239928D01*
X122576939Y-82249932D01*
X122602044Y-82253683D01*
X122628202Y-82256601D01*
X122655412Y-82258685D01*
X122683676Y-82259935D01*
X122712993Y-82260352D01*
X122750171Y-82259741D01*
X122787058Y-82257909D01*
X122823654Y-82254856D01*
X122859959Y-82250582D01*
X122895973Y-82245087D01*
X122931696Y-82238370D01*
X122967127Y-82230432D01*
X123002268Y-82221273D01*
X123037118Y-82210893D01*
X123071677Y-82199291D01*
X123105945Y-82186468D01*
X123139922Y-82172424D01*
X123173608Y-82157159D01*
X123207003Y-82140673D01*
X123240107Y-82122965D01*
X123272920Y-82104036D01*
X123188046Y-82512533D01*
X123152683Y-82530278D01*
X123116356Y-82546879D01*
X123079066Y-82562335D01*
X123040813Y-82576646D01*
X123001596Y-82589813D01*
X122961415Y-82601834D01*
X122920270Y-82612710D01*
X122878162Y-82622442D01*
X122835091Y-82631029D01*
X122791056Y-82638470D01*
X122746057Y-82644767D01*
X122700094Y-82649919D01*
X122653168Y-82653926D01*
X122605278Y-82656789D01*
X122556425Y-82658506D01*
X122531637Y-82658935D01*
X122506608Y-82659078D01*
X122479714Y-82658829D01*
X122453302Y-82658079D01*
X122427369Y-82656830D01*
X122401918Y-82655081D01*
X122376946Y-82652832D01*
X122352456Y-82650084D01*
X122304917Y-82643088D01*
X122259300Y-82634094D01*
X122215606Y-82623100D01*
X122173834Y-82610108D01*
X122133985Y-82595117D01*
X122096058Y-82578128D01*
X122060054Y-82559139D01*
X122025972Y-82538152D01*
X121993813Y-82515166D01*
X121963576Y-82490181D01*
X121935261Y-82463198D01*
X121908869Y-82434215D01*
X121884399Y-82403234D01*
X121861998Y-82370395D01*
X121841810Y-82335991D01*
X121823835Y-82300022D01*
X121808073Y-82262489D01*
X121794526Y-82223391D01*
X121783191Y-82182728D01*
X121774070Y-82140501D01*
X121767163Y-82096709D01*
X121762469Y-82051353D01*
X121759988Y-82004431D01*
X121759721Y-81955945D01*
X121760417Y-81931115D01*
X121761667Y-81905894D01*
X121763471Y-81880282D01*
X121765827Y-81854279D01*
X121768737Y-81827885D01*
X121772200Y-81801099D01*
X121776217Y-81773922D01*
X121780787Y-81746354D01*
X121785910Y-81718395D01*
X121791587Y-81690045D01*
X121797718Y-81661743D01*
X121804279Y-81633776D01*
X121811270Y-81606144D01*
X121818692Y-81578848D01*
X121826545Y-81551886D01*
X121834828Y-81525260D01*
X121843542Y-81498968D01*
X121847859Y-81486713D01*
X122367390Y-81486713D01*
X123057376Y-81486713D01*
X123062694Y-81459590D01*
X123067200Y-81433327D01*
X123070894Y-81407926D01*
X123073776Y-81383387D01*
X123077103Y-81336890D01*
X123077182Y-81293837D01*
X123074012Y-81254229D01*
X123067594Y-81218065D01*
X123057927Y-81185345D01*
X123045011Y-81156069D01*
X123028846Y-81130237D01*
X123009433Y-81107850D01*
X122986772Y-81088907D01*
X122960862Y-81073408D01*
X122931703Y-81061353D01*
X122899295Y-81052743D01*
X122863639Y-81047576D01*
X122824734Y-81045854D01*
X122799710Y-81046917D01*
X122774781Y-81050105D01*
X122749950Y-81055418D01*
X122725215Y-81062856D01*
X122700577Y-81072419D01*
X122676035Y-81084108D01*
X122651590Y-81097922D01*
X122627241Y-81113861D01*
X122602989Y-81131925D01*
X122578834Y-81152114D01*
X122562784Y-81166755D01*
X122539278Y-81190110D01*
X122516845Y-81214840D01*
X122495486Y-81240943D01*
X122475200Y-81268421D01*
X122455987Y-81297272D01*
X122437848Y-81327497D01*
X122420782Y-81359096D01*
X122404789Y-81392069D01*
X122394724Y-81414814D01*
X122385135Y-81438169D01*
X122376024Y-81462136D01*
X122367390Y-81486713D01*
X121847859Y-81486713D01*
X121852686Y-81473012D01*
X121862261Y-81447391D01*
X121872266Y-81422105D01*
X121882702Y-81397154D01*
X121893568Y-81372539D01*
X121904865Y-81348258D01*
X121916592Y-81324313D01*
X121928750Y-81300702D01*
X121941338Y-81277427D01*
X121954357Y-81254487D01*
X121967807Y-81231882D01*
X121981687Y-81209612D01*
X121995997Y-81187677D01*
X122010738Y-81166078D01*
X122025910Y-81144813D01*
X122041512Y-81123884D01*
X122057545Y-81103290D01*
X122074008Y-81083030D01*
X122090901Y-81063106D01*
X122108226Y-81043517D01*
X122125980Y-81024264D01*
X122144166Y-81005345D01*
X122162781Y-80986761D01*
X122181828Y-80968513D01*
X122201304Y-80950600D01*
X122221067Y-80933094D01*
X122240970Y-80916143D01*
X122261014Y-80899749D01*
X122281199Y-80883910D01*
X122301524Y-80868627D01*
X122321990Y-80853900D01*
X122342597Y-80839728D01*
X122363344Y-80826112D01*
X122384233Y-80813052D01*
X122405262Y-80800548D01*
X122447742Y-80777206D01*
X122490785Y-80756088D01*
X122534391Y-80737192D01*
X122578559Y-80720520D01*
X122623291Y-80706071D01*
X122668586Y-80693844D01*
X122714443Y-80683841D01*
X122760864Y-80676060D01*
X122807847Y-80670503D01*
X122855393Y-80667168D01*
X122903503Y-80666057D01*
X122950880Y-80667025D01*
G37*
G36*
X125189005Y-81213161D02*
G01*
X125167166Y-81194842D01*
X125143477Y-81178967D01*
X125117936Y-81165533D01*
X125090545Y-81154542D01*
X125061302Y-81145994D01*
X125030209Y-81139888D01*
X125005674Y-81136911D01*
X124980099Y-81135308D01*
X124962470Y-81135003D01*
X124927735Y-81136296D01*
X124893827Y-81140176D01*
X124860745Y-81146643D01*
X124828489Y-81155697D01*
X124797060Y-81167337D01*
X124766458Y-81181564D01*
X124736682Y-81198378D01*
X124707732Y-81217778D01*
X124679609Y-81239766D01*
X124652312Y-81264340D01*
X124634574Y-81282159D01*
X124617360Y-81300986D01*
X124600828Y-81320675D01*
X124584979Y-81341228D01*
X124569811Y-81362645D01*
X124555326Y-81384925D01*
X124541523Y-81408068D01*
X124528402Y-81432075D01*
X124515963Y-81456946D01*
X124504207Y-81482679D01*
X124493132Y-81509277D01*
X124482740Y-81536737D01*
X124473030Y-81565061D01*
X124464002Y-81594249D01*
X124455656Y-81624300D01*
X124447993Y-81655214D01*
X124441011Y-81686992D01*
X124246838Y-82620000D01*
X123711946Y-82620000D01*
X124110062Y-80705136D01*
X124644954Y-80705136D01*
X124574124Y-81047076D01*
X124580840Y-81047076D01*
X124594414Y-81023634D01*
X124608270Y-81000937D01*
X124622407Y-80978983D01*
X124636825Y-80957774D01*
X124651525Y-80937309D01*
X124666507Y-80917589D01*
X124697314Y-80880380D01*
X124729247Y-80846148D01*
X124762305Y-80814892D01*
X124796490Y-80786613D01*
X124831800Y-80761311D01*
X124868236Y-80738986D01*
X124905798Y-80719637D01*
X124944486Y-80703266D01*
X124984299Y-80689870D01*
X125025238Y-80679452D01*
X125067303Y-80672010D01*
X125110494Y-80667545D01*
X125154811Y-80666057D01*
X125183913Y-80666608D01*
X125210541Y-80668263D01*
X125239228Y-80671705D01*
X125264351Y-80676735D01*
X125289157Y-80684612D01*
X125298304Y-80688649D01*
X125189005Y-81213161D01*
G37*
G36*
X127426270Y-80705136D02*
G01*
X126336946Y-82620000D01*
X125728782Y-82620000D01*
X125477212Y-80705136D01*
X126041413Y-80705136D01*
X126123845Y-81901315D01*
X126125954Y-81937399D01*
X126127472Y-81972377D01*
X126128401Y-82006249D01*
X126128739Y-82039016D01*
X126128487Y-82070678D01*
X126127644Y-82101234D01*
X126126211Y-82130684D01*
X126124188Y-82159029D01*
X126121574Y-82186269D01*
X126118371Y-82212403D01*
X126115907Y-82229211D01*
X126123845Y-82229211D01*
X126132163Y-82203381D01*
X126141318Y-82176725D01*
X126151311Y-82149242D01*
X126162141Y-82120933D01*
X126173808Y-82091798D01*
X126186313Y-82061835D01*
X126199654Y-82031047D01*
X126213833Y-81999432D01*
X126228849Y-81966990D01*
X126239324Y-81944904D01*
X126250172Y-81922449D01*
X126255736Y-81911085D01*
X126855963Y-80705136D01*
X127426270Y-80705136D01*
G37*
G36*
X128695492Y-80666314D02*
G01*
X128722278Y-80667087D01*
X128748605Y-80668375D01*
X128774471Y-80670178D01*
X128799877Y-80672497D01*
X128824822Y-80675330D01*
X128849307Y-80678679D01*
X128896897Y-80686922D01*
X128942644Y-80697226D01*
X128986551Y-80709591D01*
X129028616Y-80724017D01*
X129068840Y-80740503D01*
X129107222Y-80759050D01*
X129143763Y-80779658D01*
X129178463Y-80802327D01*
X129211321Y-80827057D01*
X129242338Y-80853847D01*
X129271514Y-80882698D01*
X129298848Y-80913610D01*
X129311824Y-80929839D01*
X129336158Y-80963520D01*
X129358173Y-80998618D01*
X129377870Y-81035133D01*
X129395249Y-81073065D01*
X129410309Y-81112413D01*
X129423050Y-81153178D01*
X129433474Y-81195360D01*
X129441578Y-81238959D01*
X129447365Y-81283974D01*
X129450833Y-81330407D01*
X129451983Y-81378256D01*
X129451688Y-81402712D01*
X129450814Y-81427522D01*
X129449360Y-81452686D01*
X129447327Y-81478205D01*
X129444714Y-81504077D01*
X129441521Y-81530304D01*
X129437749Y-81556885D01*
X129433397Y-81583821D01*
X129428466Y-81611110D01*
X129422955Y-81638754D01*
X129416666Y-81667762D01*
X129409937Y-81696399D01*
X129402765Y-81724663D01*
X129395153Y-81752556D01*
X129387100Y-81780076D01*
X129378605Y-81807224D01*
X129369669Y-81834000D01*
X129360291Y-81860404D01*
X129350473Y-81886436D01*
X129340213Y-81912096D01*
X129329512Y-81937384D01*
X129318369Y-81962299D01*
X129306786Y-81986843D01*
X129294761Y-82011014D01*
X129282295Y-82034814D01*
X129269387Y-82058241D01*
X129256038Y-82081296D01*
X129242249Y-82103979D01*
X129228017Y-82126290D01*
X129213345Y-82148229D01*
X129198231Y-82169796D01*
X129182676Y-82190991D01*
X129166680Y-82211813D01*
X129150242Y-82232264D01*
X129133364Y-82252342D01*
X129116044Y-82272049D01*
X129098282Y-82291383D01*
X129080080Y-82310345D01*
X129061436Y-82328935D01*
X129042351Y-82347154D01*
X129022825Y-82364999D01*
X129002857Y-82382473D01*
X128982580Y-82399491D01*
X128962049Y-82415968D01*
X128941264Y-82431906D01*
X128920225Y-82447303D01*
X128898932Y-82462159D01*
X128877385Y-82476476D01*
X128855583Y-82490252D01*
X128833528Y-82503488D01*
X128811219Y-82516184D01*
X128788656Y-82528339D01*
X128765838Y-82539955D01*
X128742767Y-82551030D01*
X128719442Y-82561564D01*
X128695862Y-82571559D01*
X128672029Y-82581013D01*
X128647942Y-82589927D01*
X128623600Y-82598301D01*
X128599005Y-82606134D01*
X128574155Y-82613428D01*
X128549052Y-82620181D01*
X128523695Y-82626394D01*
X128498083Y-82632066D01*
X128472217Y-82637198D01*
X128446098Y-82641791D01*
X128419724Y-82645842D01*
X128393097Y-82649354D01*
X128366215Y-82652325D01*
X128339080Y-82654756D01*
X128311690Y-82656647D01*
X128284046Y-82657998D01*
X128256148Y-82658808D01*
X128227997Y-82659078D01*
X128200447Y-82658820D01*
X128173362Y-82658043D01*
X128146742Y-82656749D01*
X128120587Y-82654938D01*
X128094897Y-82652609D01*
X128069673Y-82649762D01*
X128044914Y-82646398D01*
X128020619Y-82642516D01*
X127973426Y-82633199D01*
X127928093Y-82621812D01*
X127884621Y-82608355D01*
X127843009Y-82592827D01*
X127803257Y-82575230D01*
X127765366Y-82555561D01*
X127729336Y-82533823D01*
X127695166Y-82510014D01*
X127662856Y-82484135D01*
X127632407Y-82456185D01*
X127603818Y-82426165D01*
X127577090Y-82394075D01*
X127552544Y-82360124D01*
X127530349Y-82324676D01*
X127510507Y-82287729D01*
X127493017Y-82249285D01*
X127477878Y-82209342D01*
X127465091Y-82167902D01*
X127454656Y-82124964D01*
X127446572Y-82080528D01*
X127440841Y-82034594D01*
X127437461Y-81987162D01*
X127436433Y-81938233D01*
X127436801Y-81913206D01*
X127437757Y-81887805D01*
X127437871Y-81885905D01*
X127978821Y-81885905D01*
X127979747Y-81913107D01*
X127981778Y-81939199D01*
X127984915Y-81964181D01*
X127994506Y-82010814D01*
X128008519Y-82053005D01*
X128026954Y-82090756D01*
X128049812Y-82124065D01*
X128077091Y-82152933D01*
X128108792Y-82177359D01*
X128144916Y-82197345D01*
X128185462Y-82212889D01*
X128230430Y-82223992D01*
X128254572Y-82227878D01*
X128279820Y-82230654D01*
X128306173Y-82232319D01*
X128333632Y-82232875D01*
X128360272Y-82232304D01*
X128386309Y-82230592D01*
X128411740Y-82227739D01*
X128436567Y-82223744D01*
X128460789Y-82218608D01*
X128484406Y-82212331D01*
X128529827Y-82196353D01*
X128572830Y-82175809D01*
X128613414Y-82150700D01*
X128651579Y-82121026D01*
X128669755Y-82104477D01*
X128687326Y-82086787D01*
X128704292Y-82067955D01*
X128720654Y-82047982D01*
X128736411Y-82026868D01*
X128751564Y-82004612D01*
X128766112Y-81981216D01*
X128780055Y-81956677D01*
X128793393Y-81930998D01*
X128806127Y-81904177D01*
X128818256Y-81876215D01*
X128829781Y-81847112D01*
X128840701Y-81816867D01*
X128851016Y-81785481D01*
X128860727Y-81752953D01*
X128869833Y-81719285D01*
X128878334Y-81684475D01*
X128886231Y-81648524D01*
X128892907Y-81614300D01*
X128898510Y-81581164D01*
X128903040Y-81549113D01*
X128906496Y-81518149D01*
X128908879Y-81488272D01*
X128910188Y-81459481D01*
X128910424Y-81431777D01*
X128909587Y-81405158D01*
X128907676Y-81379627D01*
X128904693Y-81355182D01*
X128895505Y-81309551D01*
X128882024Y-81268266D01*
X128864249Y-81231326D01*
X128842182Y-81198733D01*
X128815821Y-81170485D01*
X128785166Y-81146583D01*
X128750218Y-81127027D01*
X128710977Y-81111817D01*
X128667443Y-81100952D01*
X128619615Y-81094433D01*
X128594091Y-81092804D01*
X128567494Y-81092260D01*
X128541331Y-81092845D01*
X128515659Y-81094598D01*
X128490479Y-81097520D01*
X128465790Y-81101610D01*
X128441592Y-81106870D01*
X128417886Y-81113298D01*
X128394671Y-81120895D01*
X128360770Y-81134481D01*
X128327974Y-81150698D01*
X128306724Y-81162969D01*
X128285966Y-81176410D01*
X128265699Y-81191019D01*
X128245924Y-81206797D01*
X128226640Y-81223744D01*
X128207847Y-81241859D01*
X128189731Y-81261041D01*
X128172327Y-81281186D01*
X128155633Y-81302295D01*
X128139649Y-81324368D01*
X128124377Y-81347404D01*
X128109816Y-81371403D01*
X128095965Y-81396367D01*
X128082825Y-81422294D01*
X128070396Y-81449184D01*
X128058677Y-81477038D01*
X128047670Y-81505856D01*
X128037373Y-81535638D01*
X128027787Y-81566383D01*
X128018911Y-81598091D01*
X128010747Y-81630763D01*
X128003293Y-81664399D01*
X127996481Y-81699374D01*
X127990773Y-81733238D01*
X127986172Y-81765992D01*
X127982676Y-81797636D01*
X127980285Y-81828169D01*
X127979000Y-81857592D01*
X127978821Y-81885905D01*
X127437871Y-81885905D01*
X127439300Y-81862030D01*
X127441432Y-81835880D01*
X127444152Y-81809355D01*
X127447460Y-81782456D01*
X127451355Y-81755183D01*
X127455839Y-81727535D01*
X127460910Y-81699513D01*
X127466570Y-81671116D01*
X127472898Y-81642003D01*
X127479669Y-81613282D01*
X127486884Y-81584954D01*
X127494543Y-81557018D01*
X127502646Y-81529475D01*
X127511192Y-81502324D01*
X127520181Y-81475565D01*
X127529615Y-81449199D01*
X127539492Y-81423224D01*
X127549813Y-81397643D01*
X127560577Y-81372453D01*
X127571785Y-81347656D01*
X127583436Y-81323252D01*
X127595532Y-81299240D01*
X127608071Y-81275620D01*
X127621053Y-81252392D01*
X127634479Y-81229557D01*
X127648349Y-81207114D01*
X127662663Y-81185064D01*
X127677420Y-81163406D01*
X127692621Y-81142140D01*
X127708265Y-81121267D01*
X127724353Y-81100786D01*
X127740885Y-81080697D01*
X127757860Y-81061001D01*
X127775279Y-81041697D01*
X127793142Y-81022785D01*
X127811448Y-81004266D01*
X127830198Y-80986139D01*
X127849392Y-80968405D01*
X127869029Y-80951063D01*
X127889110Y-80934113D01*
X127909539Y-80917621D01*
X127930221Y-80901653D01*
X127951156Y-80886209D01*
X127972343Y-80871287D01*
X127993784Y-80856890D01*
X128015477Y-80843016D01*
X128037423Y-80829665D01*
X128059622Y-80816839D01*
X128082074Y-80804535D01*
X128104778Y-80792755D01*
X128127735Y-80781499D01*
X128150946Y-80770766D01*
X128174409Y-80760557D01*
X128198125Y-80750871D01*
X128222093Y-80741709D01*
X128246315Y-80733071D01*
X128270789Y-80724956D01*
X128295516Y-80717364D01*
X128320497Y-80710297D01*
X128345729Y-80703752D01*
X128371215Y-80697731D01*
X128396954Y-80692234D01*
X128422945Y-80687260D01*
X128449189Y-80682810D01*
X128475686Y-80678884D01*
X128502436Y-80675481D01*
X128529439Y-80672601D01*
X128556694Y-80670245D01*
X128584202Y-80668413D01*
X128611964Y-80667104D01*
X128639978Y-80666318D01*
X128668244Y-80666057D01*
X128695492Y-80666314D01*
G37*
G36*
X131232794Y-82620000D02*
G01*
X129703834Y-82620000D01*
X130256434Y-79962637D01*
X130829794Y-79962637D01*
X130373670Y-82156549D01*
X131329270Y-82156549D01*
X131232794Y-82620000D01*
G37*
G36*
X132815848Y-80667025D02*
G01*
X132861503Y-80669930D01*
X132905436Y-80674772D01*
X132947646Y-80681551D01*
X132988135Y-80690266D01*
X133026901Y-80700919D01*
X133063945Y-80713508D01*
X133099268Y-80728033D01*
X133132868Y-80744496D01*
X133164746Y-80762895D01*
X133194902Y-80783231D01*
X133223335Y-80805504D01*
X133250047Y-80829714D01*
X133275037Y-80855860D01*
X133298304Y-80883943D01*
X133319849Y-80913963D01*
X133339611Y-80945677D01*
X133357373Y-80978840D01*
X133373137Y-81013454D01*
X133386902Y-81049518D01*
X133398668Y-81087032D01*
X133408435Y-81125997D01*
X133416204Y-81166411D01*
X133421974Y-81208276D01*
X133425744Y-81251591D01*
X133427517Y-81296356D01*
X133427290Y-81342571D01*
X133425065Y-81390237D01*
X133423202Y-81414613D01*
X133420841Y-81439352D01*
X133417979Y-81464454D01*
X133414618Y-81489918D01*
X133410757Y-81515745D01*
X133406396Y-81541934D01*
X133401535Y-81568486D01*
X133396175Y-81595401D01*
X133346716Y-81833538D01*
X132162138Y-81833538D01*
X132158810Y-81859797D01*
X132156536Y-81885222D01*
X132155314Y-81909814D01*
X132156029Y-81956497D01*
X132160957Y-81999845D01*
X132170097Y-82039859D01*
X132183449Y-82076538D01*
X132201014Y-82109883D01*
X132222791Y-82139894D01*
X132248780Y-82166569D01*
X132278981Y-82189911D01*
X132313394Y-82209918D01*
X132352020Y-82226590D01*
X132394858Y-82239928D01*
X132441908Y-82249932D01*
X132467013Y-82253683D01*
X132493170Y-82256601D01*
X132520381Y-82258685D01*
X132548645Y-82259935D01*
X132577962Y-82260352D01*
X132615140Y-82259741D01*
X132652027Y-82257909D01*
X132688622Y-82254856D01*
X132724927Y-82250582D01*
X132760941Y-82245087D01*
X132796664Y-82238370D01*
X132832096Y-82230432D01*
X132867237Y-82221273D01*
X132902087Y-82210893D01*
X132936646Y-82199291D01*
X132970914Y-82186468D01*
X133004891Y-82172424D01*
X133038577Y-82157159D01*
X133071972Y-82140673D01*
X133105076Y-82122965D01*
X133137889Y-82104036D01*
X133053014Y-82512533D01*
X133017651Y-82530278D01*
X132981325Y-82546879D01*
X132944035Y-82562335D01*
X132905782Y-82576646D01*
X132866564Y-82589813D01*
X132826384Y-82601834D01*
X132785239Y-82612710D01*
X132743131Y-82622442D01*
X132700059Y-82631029D01*
X132656024Y-82638470D01*
X132611025Y-82644767D01*
X132565063Y-82649919D01*
X132518137Y-82653926D01*
X132470247Y-82656789D01*
X132421394Y-82658506D01*
X132396606Y-82658935D01*
X132371577Y-82659078D01*
X132344683Y-82658829D01*
X132318270Y-82658079D01*
X132292338Y-82656830D01*
X132266886Y-82655081D01*
X132241915Y-82652832D01*
X132217425Y-82650084D01*
X132169885Y-82643088D01*
X132124269Y-82634094D01*
X132080575Y-82623100D01*
X132038803Y-82610108D01*
X131998954Y-82595117D01*
X131961027Y-82578128D01*
X131925022Y-82559139D01*
X131890941Y-82538152D01*
X131858781Y-82515166D01*
X131828544Y-82490181D01*
X131800230Y-82463198D01*
X131773838Y-82434215D01*
X131749368Y-82403234D01*
X131726966Y-82370395D01*
X131706778Y-82335991D01*
X131688803Y-82300022D01*
X131673042Y-82262489D01*
X131659494Y-82223391D01*
X131648160Y-82182728D01*
X131639039Y-82140501D01*
X131632131Y-82096709D01*
X131627437Y-82051353D01*
X131624957Y-82004431D01*
X131624690Y-81955945D01*
X131625386Y-81931115D01*
X131626636Y-81905894D01*
X131628439Y-81880282D01*
X131630796Y-81854279D01*
X131633706Y-81827885D01*
X131637169Y-81801099D01*
X131641186Y-81773922D01*
X131645756Y-81746354D01*
X131650879Y-81718395D01*
X131656556Y-81690045D01*
X131662686Y-81661743D01*
X131669247Y-81633776D01*
X131676239Y-81606144D01*
X131683661Y-81578848D01*
X131691514Y-81551886D01*
X131699797Y-81525260D01*
X131708510Y-81498968D01*
X131712828Y-81486713D01*
X132232358Y-81486713D01*
X132922344Y-81486713D01*
X132927663Y-81459590D01*
X132932169Y-81433327D01*
X132935863Y-81407926D01*
X132938745Y-81383387D01*
X132942072Y-81336890D01*
X132942151Y-81293837D01*
X132938981Y-81254229D01*
X132932562Y-81218065D01*
X132922895Y-81185345D01*
X132909979Y-81156069D01*
X132893815Y-81130237D01*
X132874402Y-81107850D01*
X132851740Y-81088907D01*
X132825830Y-81073408D01*
X132796671Y-81061353D01*
X132764264Y-81052743D01*
X132728608Y-81047576D01*
X132689703Y-81045854D01*
X132664678Y-81046917D01*
X132639750Y-81050105D01*
X132614918Y-81055418D01*
X132590183Y-81062856D01*
X132565545Y-81072419D01*
X132541003Y-81084108D01*
X132516558Y-81097922D01*
X132492210Y-81113861D01*
X132467958Y-81131925D01*
X132443802Y-81152114D01*
X132427752Y-81166755D01*
X132404246Y-81190110D01*
X132381814Y-81214840D01*
X132360454Y-81240943D01*
X132340169Y-81268421D01*
X132320956Y-81297272D01*
X132302817Y-81327497D01*
X132285751Y-81359096D01*
X132269758Y-81392069D01*
X132259692Y-81414814D01*
X132250104Y-81438169D01*
X132240993Y-81462136D01*
X132232358Y-81486713D01*
X131712828Y-81486713D01*
X131717655Y-81473012D01*
X131727229Y-81447391D01*
X131737235Y-81422105D01*
X131747670Y-81397154D01*
X131758537Y-81372539D01*
X131769833Y-81348258D01*
X131781561Y-81324313D01*
X131793719Y-81300702D01*
X131806307Y-81277427D01*
X131819326Y-81254487D01*
X131832775Y-81231882D01*
X131846655Y-81209612D01*
X131860966Y-81187677D01*
X131875707Y-81166078D01*
X131890879Y-81144813D01*
X131906481Y-81123884D01*
X131922513Y-81103290D01*
X131938976Y-81083030D01*
X131955870Y-81063106D01*
X131973194Y-81043517D01*
X131990949Y-81024264D01*
X132009134Y-81005345D01*
X132027750Y-80986761D01*
X132046796Y-80968513D01*
X132066273Y-80950600D01*
X132086035Y-80933094D01*
X132105939Y-80916143D01*
X132125983Y-80899749D01*
X132146167Y-80883910D01*
X132166493Y-80868627D01*
X132186959Y-80853900D01*
X132207565Y-80839728D01*
X132228313Y-80826112D01*
X132249201Y-80813052D01*
X132270230Y-80800548D01*
X132312710Y-80777206D01*
X132355753Y-80756088D01*
X132399359Y-80737192D01*
X132443528Y-80720520D01*
X132488260Y-80706071D01*
X132533554Y-80693844D01*
X132579412Y-80683841D01*
X132625832Y-80676060D01*
X132672816Y-80670503D01*
X132720362Y-80667168D01*
X132768471Y-80666057D01*
X132815848Y-80667025D01*
G37*
G36*
X133642250Y-82119912D02*
G01*
X133673014Y-82138841D01*
X133703940Y-82156549D01*
X133735029Y-82173035D01*
X133766280Y-82188300D01*
X133797692Y-82202344D01*
X133829268Y-82215167D01*
X133861005Y-82226769D01*
X133892904Y-82237149D01*
X133924966Y-82246308D01*
X133957190Y-82254246D01*
X133989576Y-82260963D01*
X134022124Y-82266458D01*
X134054834Y-82270732D01*
X134087707Y-82273785D01*
X134120742Y-82275617D01*
X134153939Y-82276228D01*
X134194683Y-82275510D01*
X134233108Y-82273356D01*
X134269215Y-82269766D01*
X134303003Y-82264741D01*
X134334473Y-82258279D01*
X134363625Y-82250382D01*
X134390458Y-82241049D01*
X134414973Y-82230280D01*
X134437170Y-82218075D01*
X134466118Y-82197075D01*
X134489849Y-82172844D01*
X134508364Y-82145383D01*
X134521663Y-82114691D01*
X134527630Y-82092435D01*
X134529891Y-82060435D01*
X134523242Y-82029771D01*
X134512406Y-82007650D01*
X134496559Y-81986280D01*
X134475698Y-81965661D01*
X134449826Y-81945794D01*
X134418940Y-81926678D01*
X134395566Y-81914351D01*
X134369963Y-81902358D01*
X134342133Y-81890700D01*
X134312075Y-81879375D01*
X134296210Y-81873838D01*
X134256848Y-81860001D01*
X134219207Y-81845969D01*
X134183288Y-81831741D01*
X134149092Y-81817318D01*
X134116618Y-81802699D01*
X134085866Y-81787885D01*
X134056836Y-81772875D01*
X134029528Y-81757670D01*
X134003942Y-81742268D01*
X133980078Y-81726672D01*
X133957936Y-81710879D01*
X133937517Y-81694892D01*
X133918819Y-81678708D01*
X133894002Y-81654066D01*
X133873060Y-81628984D01*
X133855478Y-81602845D01*
X133840516Y-81575031D01*
X133828173Y-81545543D01*
X133818448Y-81514381D01*
X133811343Y-81481544D01*
X133806856Y-81447033D01*
X133804989Y-81410847D01*
X133805199Y-81385793D01*
X133806573Y-81359995D01*
X133809110Y-81333453D01*
X133812812Y-81306166D01*
X133817678Y-81278135D01*
X133820547Y-81263841D01*
X133828569Y-81229356D01*
X133838131Y-81195816D01*
X133849234Y-81163220D01*
X133861878Y-81131568D01*
X133876062Y-81100861D01*
X133891788Y-81071099D01*
X133909054Y-81042281D01*
X133927862Y-81014408D01*
X133948210Y-80987479D01*
X133970098Y-80961495D01*
X133993528Y-80936455D01*
X134018498Y-80912360D01*
X134045010Y-80889210D01*
X134073062Y-80867004D01*
X134102655Y-80845742D01*
X134133789Y-80825425D01*
X134166180Y-80806127D01*
X134199391Y-80788073D01*
X134233423Y-80771265D01*
X134268275Y-80755701D01*
X134303948Y-80741383D01*
X134340441Y-80728310D01*
X134377755Y-80716482D01*
X134415889Y-80705899D01*
X134454844Y-80696561D01*
X134494619Y-80688468D01*
X134535215Y-80681620D01*
X134576632Y-80676017D01*
X134618868Y-80671660D01*
X134661926Y-80668547D01*
X134705804Y-80666679D01*
X134750502Y-80666057D01*
X134782351Y-80666350D01*
X134813938Y-80667230D01*
X134845263Y-80668697D01*
X134876325Y-80670751D01*
X134907125Y-80673391D01*
X134937663Y-80676618D01*
X134967938Y-80680432D01*
X134997950Y-80684833D01*
X135027701Y-80689820D01*
X135057189Y-80695394D01*
X135086415Y-80701555D01*
X135115378Y-80708303D01*
X135144079Y-80715638D01*
X135172517Y-80723559D01*
X135200694Y-80732067D01*
X135228607Y-80741161D01*
X135140069Y-81166144D01*
X135115762Y-81151947D01*
X135090925Y-81138667D01*
X135065559Y-81126302D01*
X135039663Y-81114853D01*
X135013237Y-81104320D01*
X134986282Y-81094703D01*
X134958798Y-81086002D01*
X134930784Y-81078217D01*
X134902240Y-81071347D01*
X134873167Y-81065394D01*
X134843565Y-81060356D01*
X134813433Y-81056235D01*
X134782771Y-81053029D01*
X134751580Y-81050739D01*
X134719859Y-81049365D01*
X134687609Y-81048907D01*
X134655867Y-81049680D01*
X134625366Y-81051999D01*
X134596104Y-81055863D01*
X134568083Y-81061272D01*
X134541302Y-81068227D01*
X134515762Y-81076728D01*
X134491461Y-81086775D01*
X134468401Y-81098367D01*
X134447250Y-81111075D01*
X134424003Y-81128355D01*
X134404304Y-81147187D01*
X134388154Y-81167568D01*
X134375551Y-81189500D01*
X134366496Y-81212982D01*
X134362766Y-81227815D01*
X134359673Y-81252781D01*
X134362311Y-81284666D01*
X134372677Y-81314948D01*
X134385523Y-81336608D01*
X134402716Y-81357367D01*
X134424256Y-81377223D01*
X134450143Y-81396178D01*
X134480377Y-81414232D01*
X134502948Y-81425766D01*
X134527451Y-81436901D01*
X134553886Y-81447634D01*
X134582869Y-81458184D01*
X134610892Y-81468614D01*
X134637957Y-81478925D01*
X134664063Y-81489117D01*
X134689210Y-81499190D01*
X134713398Y-81509143D01*
X134736627Y-81518977D01*
X134769673Y-81533505D01*
X134800562Y-81547764D01*
X134829294Y-81561755D01*
X134855867Y-81575477D01*
X134880284Y-81588932D01*
X134902543Y-81602117D01*
X134923221Y-81615556D01*
X134948871Y-81634675D01*
X134972327Y-81655169D01*
X134993589Y-81677036D01*
X135012656Y-81700277D01*
X135029529Y-81724892D01*
X135044207Y-81750881D01*
X135056691Y-81778244D01*
X135059469Y-81785300D01*
X135069143Y-81814256D01*
X135076490Y-81844338D01*
X135081508Y-81875545D01*
X135084199Y-81907879D01*
X135084689Y-81932868D01*
X135083870Y-81958490D01*
X135081741Y-81984746D01*
X135078303Y-82011634D01*
X135073555Y-82039156D01*
X135071681Y-82048471D01*
X135063326Y-82084220D01*
X135053373Y-82118958D01*
X135041821Y-82152685D01*
X135028672Y-82185400D01*
X135013924Y-82217104D01*
X134997578Y-82247796D01*
X134979635Y-82277478D01*
X134960093Y-82306147D01*
X134938953Y-82333806D01*
X134916215Y-82360453D01*
X134891879Y-82386089D01*
X134865945Y-82410714D01*
X134838413Y-82434327D01*
X134809282Y-82456929D01*
X134778554Y-82478520D01*
X134746228Y-82499099D01*
X134712623Y-82518472D01*
X134678059Y-82536594D01*
X134642537Y-82553467D01*
X134606055Y-82569090D01*
X134568615Y-82583463D01*
X134530216Y-82596587D01*
X134490858Y-82608460D01*
X134450541Y-82619084D01*
X134409266Y-82628457D01*
X134367031Y-82636581D01*
X134323838Y-82643455D01*
X134279686Y-82649080D01*
X134234575Y-82653454D01*
X134188505Y-82656579D01*
X134141476Y-82658453D01*
X134093489Y-82659078D01*
X134055731Y-82658709D01*
X134018479Y-82657600D01*
X133981733Y-82655751D01*
X133945493Y-82653163D01*
X133909758Y-82649836D01*
X133874529Y-82645769D01*
X133839805Y-82640963D01*
X133805587Y-82635417D01*
X133771875Y-82629132D01*
X133738669Y-82622108D01*
X133705968Y-82614344D01*
X133673773Y-82605841D01*
X133642083Y-82596598D01*
X133610899Y-82586616D01*
X133580221Y-82575895D01*
X133550048Y-82564434D01*
X133642250Y-82119912D01*
G37*
G36*
X135369047Y-82119912D02*
G01*
X135399811Y-82138841D01*
X135430737Y-82156549D01*
X135461826Y-82173035D01*
X135493077Y-82188300D01*
X135524489Y-82202344D01*
X135556064Y-82215167D01*
X135587802Y-82226769D01*
X135619701Y-82237149D01*
X135651763Y-82246308D01*
X135683987Y-82254246D01*
X135716373Y-82260963D01*
X135748921Y-82266458D01*
X135781631Y-82270732D01*
X135814504Y-82273785D01*
X135847539Y-82275617D01*
X135880736Y-82276228D01*
X135921479Y-82275510D01*
X135959905Y-82273356D01*
X135996012Y-82269766D01*
X136029800Y-82264741D01*
X136061270Y-82258279D01*
X136090422Y-82250382D01*
X136117255Y-82241049D01*
X136141770Y-82230280D01*
X136163967Y-82218075D01*
X136192915Y-82197075D01*
X136216646Y-82172844D01*
X136235161Y-82145383D01*
X136248460Y-82114691D01*
X136254427Y-82092435D01*
X136256688Y-82060435D01*
X136250039Y-82029771D01*
X136239203Y-82007650D01*
X136223355Y-81986280D01*
X136202495Y-81965661D01*
X136176623Y-81945794D01*
X136145737Y-81926678D01*
X136122363Y-81914351D01*
X136096760Y-81902358D01*
X136068930Y-81890700D01*
X136038872Y-81879375D01*
X136023007Y-81873838D01*
X135983644Y-81860001D01*
X135946004Y-81845969D01*
X135910085Y-81831741D01*
X135875889Y-81817318D01*
X135843415Y-81802699D01*
X135812663Y-81787885D01*
X135783632Y-81772875D01*
X135756325Y-81757670D01*
X135730739Y-81742268D01*
X135706875Y-81726672D01*
X135684733Y-81710879D01*
X135664314Y-81694892D01*
X135645616Y-81678708D01*
X135620799Y-81654066D01*
X135599856Y-81628984D01*
X135582275Y-81602845D01*
X135567313Y-81575031D01*
X135554970Y-81545543D01*
X135545245Y-81514381D01*
X135538140Y-81481544D01*
X135533653Y-81447033D01*
X135531786Y-81410847D01*
X135531996Y-81385793D01*
X135533369Y-81359995D01*
X135535907Y-81333453D01*
X135539609Y-81306166D01*
X135544475Y-81278135D01*
X135547344Y-81263841D01*
X135555366Y-81229356D01*
X135564928Y-81195816D01*
X135576031Y-81163220D01*
X135588675Y-81131568D01*
X135602859Y-81100861D01*
X135618585Y-81071099D01*
X135635851Y-81042281D01*
X135654658Y-81014408D01*
X135675006Y-80987479D01*
X135696895Y-80961495D01*
X135720325Y-80936455D01*
X135745295Y-80912360D01*
X135771807Y-80889210D01*
X135799859Y-80867004D01*
X135829452Y-80845742D01*
X135860586Y-80825425D01*
X135892976Y-80806127D01*
X135926188Y-80788073D01*
X135960220Y-80771265D01*
X135995072Y-80755701D01*
X136030745Y-80741383D01*
X136067238Y-80728310D01*
X136104552Y-80716482D01*
X136142686Y-80705899D01*
X136181641Y-80696561D01*
X136221416Y-80688468D01*
X136262012Y-80681620D01*
X136303428Y-80676017D01*
X136345665Y-80671660D01*
X136388723Y-80668547D01*
X136432601Y-80666679D01*
X136477299Y-80666057D01*
X136509148Y-80666350D01*
X136540735Y-80667230D01*
X136572060Y-80668697D01*
X136603122Y-80670751D01*
X136633922Y-80673391D01*
X136664459Y-80676618D01*
X136694735Y-80680432D01*
X136724747Y-80684833D01*
X136754498Y-80689820D01*
X136783986Y-80695394D01*
X136813211Y-80701555D01*
X136842175Y-80708303D01*
X136870876Y-80715638D01*
X136899314Y-80723559D01*
X136927490Y-80732067D01*
X136955404Y-80741161D01*
X136866866Y-81166144D01*
X136842559Y-81151947D01*
X136817722Y-81138667D01*
X136792355Y-81126302D01*
X136766460Y-81114853D01*
X136740034Y-81104320D01*
X136713079Y-81094703D01*
X136685595Y-81086002D01*
X136657581Y-81078217D01*
X136629037Y-81071347D01*
X136599964Y-81065394D01*
X136570362Y-81060356D01*
X136540230Y-81056235D01*
X136509568Y-81053029D01*
X136478377Y-81050739D01*
X136446656Y-81049365D01*
X136414406Y-81048907D01*
X136382664Y-81049680D01*
X136352163Y-81051999D01*
X136322901Y-81055863D01*
X136294880Y-81061272D01*
X136268099Y-81068227D01*
X136242559Y-81076728D01*
X136218258Y-81086775D01*
X136195198Y-81098367D01*
X136174047Y-81111075D01*
X136150800Y-81128355D01*
X136131101Y-81147187D01*
X136114951Y-81167568D01*
X136102348Y-81189500D01*
X136093293Y-81212982D01*
X136089563Y-81227815D01*
X136086470Y-81252781D01*
X136089108Y-81284666D01*
X136099474Y-81314948D01*
X136112320Y-81336608D01*
X136129513Y-81357367D01*
X136151053Y-81377223D01*
X136176940Y-81396178D01*
X136207174Y-81414232D01*
X136229745Y-81425766D01*
X136254248Y-81436901D01*
X136280683Y-81447634D01*
X136309666Y-81458184D01*
X136337689Y-81468614D01*
X136364754Y-81478925D01*
X136390860Y-81489117D01*
X136416007Y-81499190D01*
X136440195Y-81509143D01*
X136463424Y-81518977D01*
X136496470Y-81533505D01*
X136527359Y-81547764D01*
X136556090Y-81561755D01*
X136582664Y-81575477D01*
X136607081Y-81588932D01*
X136629340Y-81602117D01*
X136650018Y-81615556D01*
X136675668Y-81634675D01*
X136699124Y-81655169D01*
X136720386Y-81677036D01*
X136739453Y-81700277D01*
X136756325Y-81724892D01*
X136771004Y-81750881D01*
X136783488Y-81778244D01*
X136786266Y-81785300D01*
X136795940Y-81814256D01*
X136803287Y-81844338D01*
X136808305Y-81875545D01*
X136810996Y-81907879D01*
X136811486Y-81932868D01*
X136810667Y-81958490D01*
X136808538Y-81984746D01*
X136805099Y-82011634D01*
X136800352Y-82039156D01*
X136798478Y-82048471D01*
X136790123Y-82084220D01*
X136780170Y-82118958D01*
X136768618Y-82152685D01*
X136755469Y-82185400D01*
X136740721Y-82217104D01*
X136724375Y-82247796D01*
X136706432Y-82277478D01*
X136686890Y-82306147D01*
X136665750Y-82333806D01*
X136643012Y-82360453D01*
X136618676Y-82386089D01*
X136592742Y-82410714D01*
X136565210Y-82434327D01*
X136536079Y-82456929D01*
X136505351Y-82478520D01*
X136473025Y-82499099D01*
X136439420Y-82518472D01*
X136404856Y-82536594D01*
X136369334Y-82553467D01*
X136332852Y-82569090D01*
X136295412Y-82583463D01*
X136257013Y-82596587D01*
X136217655Y-82608460D01*
X136177338Y-82619084D01*
X136136063Y-82628457D01*
X136093828Y-82636581D01*
X136050635Y-82643455D01*
X136006483Y-82649080D01*
X135961372Y-82653454D01*
X135915302Y-82656579D01*
X135868273Y-82658453D01*
X135820286Y-82659078D01*
X135782528Y-82658709D01*
X135745276Y-82657600D01*
X135708530Y-82655751D01*
X135672290Y-82653163D01*
X135636555Y-82649836D01*
X135601326Y-82645769D01*
X135566602Y-82640963D01*
X135532384Y-82635417D01*
X135498672Y-82629132D01*
X135465466Y-82622108D01*
X135432765Y-82614344D01*
X135400570Y-82605841D01*
X135368880Y-82596598D01*
X135337696Y-82586616D01*
X135307018Y-82575895D01*
X135276845Y-82564434D01*
X135369047Y-82119912D01*
G37*
D12*
X147392500Y-94842500D02*
X147392500Y-94055000D01*
X146998750Y-94448750D02*
X147786250Y-94448750D01*
X146894437Y-93815000D02*
X148180000Y-93815000D01*
X146894437Y-93815000D02*
X145830000Y-92750563D01*
X151585563Y-93815000D02*
X150300000Y-93815000D01*
X151585563Y-93815000D02*
X152650000Y-92750563D01*
X145830000Y-92750563D02*
X145830000Y-86995000D01*
X152650000Y-92750563D02*
X152650000Y-86995000D01*
X145830000Y-86995000D02*
X148180000Y-86995000D01*
X152650000Y-86995000D02*
X150300000Y-86995000D01*
X133125000Y-106090000D02*
X131325000Y-106090000D01*
X133125000Y-106090000D02*
X133925000Y-106090000D01*
X133125000Y-109210000D02*
X132325000Y-109210000D01*
X133125000Y-109210000D02*
X133925000Y-109210000D01*
X137055000Y-96028859D02*
X137055000Y-96336141D01*
X136295000Y-96028859D02*
X136295000Y-96336141D01*
X136315000Y-98170336D02*
X136315000Y-97954664D01*
X137035000Y-98170336D02*
X137035000Y-97954664D01*
X149480175Y-74804270D02*
X148510102Y-74402453D01*
X150436884Y-72494572D02*
X149480175Y-74804270D01*
X148510102Y-74402453D02*
X148131245Y-75317094D01*
X150109831Y-70226789D02*
X146525179Y-68741978D01*
X143733645Y-72423979D02*
X144703718Y-72825797D01*
X144690353Y-70114281D02*
X143733645Y-72423979D01*
X160560000Y-90815000D02*
X159090000Y-90815000D01*
X159090000Y-90815000D02*
X159090000Y-93100000D01*
X160560000Y-93100000D02*
X160560000Y-90815000D01*
X149400000Y-104605000D02*
X149300000Y-104605000D01*
X151100000Y-104605000D02*
X151100000Y-100205000D01*
X147600000Y-100205000D02*
X147600000Y-104605000D01*
X149400000Y-100205000D02*
X149300000Y-100205000D01*
X157283241Y-88034332D02*
X159131000Y-87268965D01*
X160886371Y-86541867D02*
X162641742Y-85814768D01*
X162641742Y-85814768D02*
X159044518Y-77130301D01*
X153686017Y-79349865D02*
X155533776Y-78584498D01*
X157289147Y-77857399D02*
X159044518Y-77130301D01*
X148266359Y-98675000D02*
X148573641Y-98675000D01*
X148266359Y-99435000D02*
X148573641Y-99435000D01*
X119605000Y-95845000D02*
X119605000Y-95255000D01*
X121825000Y-95845000D02*
X121825000Y-95255000D01*
X117505000Y-95255000D02*
X119605000Y-95255000D01*
X117505000Y-95255000D02*
X117505000Y-85135000D01*
X121825000Y-95255000D02*
X126725000Y-95255000D01*
X126725000Y-95255000D02*
X126725000Y-85135000D01*
X117505000Y-85135000D02*
X119605000Y-85135000D01*
X119605000Y-85135000D02*
X119605000Y-84545000D01*
X121825000Y-85135000D02*
X126725000Y-85135000D01*
X121825000Y-85135000D02*
X121825000Y-84545000D01*
X119605000Y-95845000D02*
G75*
G03*
X121825000Y-95845000I1110000J0D01*
G01*
X121825000Y-84545000D02*
G75*
G03*
X119605000Y-84545000I-1110000J0D01*
G01*
X143540000Y-98102836D02*
X143540000Y-97887164D01*
X144260000Y-98102836D02*
X144260000Y-97887164D01*
X159195000Y-94903641D02*
X159195000Y-94596359D01*
X159955000Y-94903641D02*
X159955000Y-94596359D01*
X133900000Y-93377164D02*
X133900000Y-93592836D01*
X133180000Y-93377164D02*
X133180000Y-93592836D01*
X125582500Y-97555000D02*
X125582500Y-101855000D01*
X125582500Y-97555000D02*
X131392500Y-97555000D01*
X125582500Y-101855000D02*
X131392500Y-101855000D01*
X134760000Y-95938748D02*
X134760000Y-96461252D01*
X133290000Y-95938748D02*
X133290000Y-96461252D01*
X148292164Y-97715000D02*
X148507836Y-97715000D01*
X148292164Y-98435000D02*
X148507836Y-98435000D01*
X133612836Y-110220000D02*
X133397164Y-110220000D01*
X133612836Y-109500000D02*
X133397164Y-109500000D01*
X150192164Y-98705000D02*
X150407836Y-98705000D01*
X150192164Y-99425000D02*
X150407836Y-99425000D01*
X133845580Y-105700000D02*
X133564420Y-105700000D01*
X133845580Y-104680000D02*
X133564420Y-104680000D01*
X146620000Y-99618641D02*
X146620000Y-99311359D01*
X147380000Y-99618641D02*
X147380000Y-99311359D01*
X138590000Y-103275000D02*
X138590000Y-99675000D01*
X138590000Y-103275000D02*
X138590000Y-105475000D01*
X135370000Y-103275000D02*
X135370000Y-101075000D01*
X135370000Y-103275000D02*
X135370000Y-105475000D01*
X139185000Y-96365436D02*
X139185000Y-97819564D01*
X137365000Y-96365436D02*
X137365000Y-97819564D01*
X130253641Y-108055000D02*
X129946359Y-108055000D01*
X130253641Y-107295000D02*
X129946359Y-107295000D01*
X134057836Y-98760000D02*
X133842164Y-98760000D01*
X134057836Y-98040000D02*
X133842164Y-98040000D01*
X140960000Y-81257164D02*
X140960000Y-81472836D01*
X140240000Y-81257164D02*
X140240000Y-81472836D01*
X144300000Y-95971359D02*
X144300000Y-96278641D01*
X143540000Y-95971359D02*
X143540000Y-96278641D01*
X132885000Y-103485000D02*
X132885000Y-102015000D01*
X132885000Y-102015000D02*
X130600000Y-102015000D01*
X130600000Y-103485000D02*
X132885000Y-103485000D01*
X140940000Y-79321359D02*
X140940000Y-79628641D01*
X140180000Y-79321359D02*
X140180000Y-79628641D01*
X143050000Y-83575000D02*
X142950000Y-83575000D01*
X144750000Y-83575000D02*
X144750000Y-79175000D01*
X141250000Y-79175000D02*
X141250000Y-83575000D01*
X143050000Y-79175000D02*
X142950000Y-79175000D01*
X128771359Y-102120000D02*
X129078641Y-102120000D01*
X128771359Y-102880000D02*
X129078641Y-102880000D01*
X135680001Y-93765000D02*
X135680001Y-88615000D01*
X145480001Y-91814998D02*
X145480001Y-88614997D01*
X133350000Y-90876252D02*
X133350000Y-89453748D01*
X135170000Y-90876252D02*
X135170000Y-89453748D01*
X157097500Y-91897500D02*
X157097500Y-92685000D01*
X157491250Y-92291250D02*
X156703750Y-92291250D01*
X157595563Y-92925000D02*
X156310000Y-92925000D01*
X157595563Y-92925000D02*
X158660000Y-93989437D01*
X152904437Y-92925000D02*
X154190000Y-92925000D01*
X152904437Y-92925000D02*
X151840000Y-93989437D01*
X158660000Y-93989437D02*
X158660000Y-99745000D01*
X151840000Y-93989437D02*
X151840000Y-99745000D01*
X158660000Y-99745000D02*
X156310000Y-99745000D01*
X151840000Y-99745000D02*
X154190000Y-99745000D01*
X143200000Y-96387936D02*
X143200000Y-97842064D01*
X141380000Y-96387936D02*
X141380000Y-97842064D01*
X161610000Y-90275000D02*
X161610000Y-88575000D01*
X161610000Y-90275000D02*
X158950000Y-90275000D01*
X161610000Y-88575000D02*
X158950000Y-88575000D01*
X145710000Y-103295000D02*
X145710000Y-99695000D01*
X145710000Y-103295000D02*
X145710000Y-105495000D01*
X142490000Y-103295000D02*
X142490000Y-101095000D01*
X142490000Y-103295000D02*
X142490000Y-105495000D01*
%LPC*%
D13*
X149240000Y-93205000D03*
X149240000Y-87605000D03*
D14*
X131987500Y-106700000D03*
X131987500Y-107650000D03*
X131987500Y-108600000D03*
X134262500Y-108600000D03*
X134262500Y-106700000D03*
D15*
X136675000Y-95672500D03*
X136675000Y-96692500D03*
D16*
X136675000Y-98542500D03*
X136675000Y-97582500D03*
D17*
X147910452Y-74386784D03*
X146986573Y-74004101D03*
X146062693Y-73621417D03*
X145138814Y-73238734D03*
D18*
X150594394Y-71304239D03*
X145420669Y-69161212D03*
D19*
X159825000Y-91512500D03*
X159825000Y-93087500D03*
D20*
X148274999Y-104479999D03*
X148274999Y-100329999D03*
X150424999Y-104479999D03*
X150424999Y-100354999D03*
D21*
X155943868Y-86629989D03*
X153731958Y-81289965D03*
D22*
X154746627Y-87515562D03*
X154440481Y-86776458D03*
D23*
X153981261Y-85667803D03*
X153598577Y-84743923D03*
X153407235Y-84281984D03*
X153024552Y-83358104D03*
D22*
X152565332Y-82249449D03*
X152259185Y-81510345D03*
X152259185Y-81510345D03*
X152565332Y-82249449D03*
D23*
X152833210Y-82896164D03*
X153215894Y-83820044D03*
X153789919Y-85205863D03*
X154172602Y-86129743D03*
D22*
X154440481Y-86776458D03*
X154746627Y-87515562D03*
D24*
X156001448Y-88153958D03*
D25*
X159863265Y-86554341D03*
D24*
X152695064Y-80171639D03*
D25*
X156556880Y-78572022D03*
D26*
X147910000Y-99055000D03*
X148930000Y-99055000D03*
D27*
X120715000Y-95695000D03*
X120715000Y-84695000D03*
D28*
X130714999Y-87694999D03*
D29*
X130715000Y-92695000D03*
D16*
X143900000Y-98475000D03*
X143900000Y-97515000D03*
D30*
X159575000Y-95260000D03*
X159575000Y-94240000D03*
D31*
X133540000Y-93005000D03*
X133540000Y-93965000D03*
D32*
X127092500Y-99705000D03*
X131392500Y-99705000D03*
D33*
X134025000Y-95250000D03*
X134025000Y-97150000D03*
D34*
X147920000Y-98075000D03*
X148880000Y-98075000D03*
D35*
X133985000Y-109860000D03*
X133025000Y-109860000D03*
D34*
X149820000Y-99065000D03*
X150780000Y-99065000D03*
D36*
X134480000Y-105190000D03*
X132930000Y-105190000D03*
D30*
X147000000Y-99975000D03*
X147000000Y-98955000D03*
D37*
X137955000Y-100412500D03*
X137305000Y-100412500D03*
X136655000Y-100412500D03*
X136005000Y-100412500D03*
X136005000Y-106137500D03*
X136655000Y-106137500D03*
X137305000Y-106137500D03*
X137955000Y-106137500D03*
D38*
X138275000Y-95630000D03*
X138275000Y-98555000D03*
D39*
X130610000Y-107675000D03*
X129590000Y-107675000D03*
D35*
X134430000Y-98400000D03*
X133470000Y-98400000D03*
D31*
X140600000Y-80885000D03*
X140600000Y-81845000D03*
D15*
X143920000Y-95615000D03*
X143920000Y-96635000D03*
D40*
X132187500Y-102750000D03*
X130612500Y-102750000D03*
D15*
X140560000Y-78965000D03*
X140560000Y-79985000D03*
D20*
X141924999Y-83449999D03*
X141924999Y-79299999D03*
X144074999Y-83449999D03*
X144074999Y-79324999D03*
D26*
X128415000Y-102500000D03*
X129435000Y-102500000D03*
D41*
X136355000Y-93164997D03*
X137005001Y-93164997D03*
X137655000Y-93164997D03*
X138305001Y-93164997D03*
X138954999Y-93164997D03*
X139605001Y-93164997D03*
X140254999Y-93164997D03*
X140905001Y-93164997D03*
X141554999Y-93164997D03*
X142205001Y-93164997D03*
X142854999Y-93164997D03*
X143505000Y-93164997D03*
X144154999Y-93164997D03*
X144805000Y-93164997D03*
X144805000Y-87264996D03*
X144154999Y-87264996D03*
X143505000Y-87264996D03*
X142854999Y-87264996D03*
X142205001Y-87264996D03*
X141554999Y-87264996D03*
X140905001Y-87264996D03*
X140254999Y-87264996D03*
X139605001Y-87264996D03*
X138954999Y-87264996D03*
X138305001Y-87264996D03*
X137655000Y-87264996D03*
X137005001Y-87264996D03*
X136355000Y-87264996D03*
D42*
X140580000Y-90214998D03*
D43*
X134260000Y-91640000D03*
X134260000Y-88690000D03*
D44*
X155250000Y-93535000D03*
X155250000Y-99135000D03*
D38*
X142290000Y-95652500D03*
X142290000Y-98577500D03*
D45*
X161050000Y-89425000D03*
X158950000Y-89425000D03*
D37*
X145075000Y-100432500D03*
X144425000Y-100432500D03*
X143775000Y-100432500D03*
X143125000Y-100432500D03*
X143125000Y-106157500D03*
X143775000Y-106157500D03*
X144425000Y-106157500D03*
X145075000Y-106157500D03*
M02*
